  0
SECTION
  2
HEADER
  9
$ACADVER
  1
AC1009
  9
$DWGCODEPAGE
  3
ansi_1252
  9
$INSBASE
 10
0.0
 20
0.0
 30
0.0
  9
$EXTMIN
 10
1546.407037439266
 20
124.7085896521425
 30
0.0
  9
$EXTMAX
 10
1734.312394096678
 20
262.0946290508855
 30
0.0
  9
$LIMMIN
 10
0.0
 20
0.0
  9
$LIMMAX
 10
12.0
 20
9.0
  9
$ORTHOMODE
 70
     0
  9
$REGENMODE
 70
     1
  9
$FILLMODE
 70
     1
  9
$QTEXTMODE
 70
     0
  9
$MIRRTEXT
 70
     1
  9
$DRAGMODE
 70
     2
  9
$LTSCALE
 40
1.0
  9
$OSMODE
 70
    37
  9
$ATTMODE
 70
     1
  9
$TEXTSIZE
 40
0.2
  9
$TRACEWID
 40
0.05
  9
$TEXTSTYLE
  7
STANDARD
  9
$CLAYER
  8
0
  9
$CELTYPE
  6
BYLAYER
  9
$CECOLOR
 62
   256
  9
$DIMSCALE
 40
1.0
  9
$DIMASZ
 40
0.18
  9
$DIMEXO
 40
0.0625
  9
$DIMDLI
 40
0.38
  9
$DIMRND
 40
0.0
  9
$DIMDLE
 40
0.0
  9
$DIMEXE
 40
0.18
  9
$DIMTP
 40
0.0
  9
$DIMTM
 40
0.0
  9
$DIMTXT
 40
0.18
  9
$DIMCEN
 40
0.09
  9
$DIMTSZ
 40
0.0
  9
$DIMTOL
 70
     0
  9
$DIMLIM
 70
     0
  9
$DIMTIH
 70
     1
  9
$DIMTOH
 70
     1
  9
$DIMSE1
 70
     0
  9
$DIMSE2
 70
     0
  9
$DIMTAD
 70
     0
  9
$DIMZIN
 70
     0
  9
$DIMBLK
  1

  9
$DIMASO
 70
     1
  9
$DIMSHO
 70
     1
  9
$DIMPOST
  1

  9
$DIMAPOST
  1

  9
$DIMALT
 70
     0
  9
$DIMALTD
 70
     2
  9
$DIMALTF
 40
25.4
  9
$DIMLFAC
 40
1.0
  9
$DIMTOFL
 70
     0
  9
$DIMTVP
 40
0.0
  9
$DIMTIX
 70
     0
  9
$DIMSOXD
 70
     0
  9
$DIMSAH
 70
     0
  9
$DIMBLK1
  1

  9
$DIMBLK2
  1

  9
$DIMSTYLE
  2
STANDARD
  9
$DIMCLRD
 70
     0
  9
$DIMCLRE
 70
     0
  9
$DIMCLRT
 70
     0
  9
$DIMTFAC
 40
1.0
  9
$DIMGAP
 40
0.09
  9
$LUNITS
 70
     2
  9
$LUPREC
 70
     4
  9
$SKETCHINC
 40
0.1
  9
$FILLETRAD
 40
0.5
  9
$AUNITS
 70
     0
  9
$AUPREC
 70
     0
  9
$MENU
  1
.
  9
$ELEVATION
 40
0.0
  9
$PELEVATION
 40
0.0
  9
$THICKNESS
 40
0.0
  9
$LIMCHECK
 70
     0
  9
$CHAMFERA
 40
0.5
  9
$CHAMFERB
 40
0.5
  9
$SKPOLY
 70
     0
  9
$TDCREATE
 40
2454910.5
  9
$TDUPDATE
 40
2458454.753565405
  9
$TDINDWG
 40
0.0000000116
  9
$TDUSRTIMER
 40
0.0000000116
  9
$USRTIMER
 70
     1
  9
$ANGBASE
 50
0.0
  9
$ANGDIR
 70
     0
  9
$PDMODE
 70
     0
  9
$PDSIZE
 40
0.0
  9
$PLINEWID
 40
0.0
  9
$COORDS
 70
     1
  9
$SPLFRAME
 70
     0
  9
$SPLINETYPE
 70
     6
  9
$SPLINESEGS
 70
     8
  9
$ATTDIA
 70
     0
  9
$ATTREQ
 70
     1
  9
$HANDLING
 70
     1
  9
$HANDSEED
  5
431
  9
$SURFTAB1
 70
     6
  9
$SURFTAB2
 70
     6
  9
$SURFTYPE
 70
     6
  9
$SURFU
 70
     6
  9
$SURFV
 70
     6
  9
$UCSNAME
  2

  9
$UCSORG
 10
0.0
 20
0.0
 30
0.0
  9
$UCSXDIR
 10
1.0
 20
0.0
 30
0.0
  9
$UCSYDIR
 10
0.0
 20
1.0
 30
0.0
  9
$PUCSNAME
  2

  9
$PUCSORG
 10
0.0
 20
0.0
 30
0.0
  9
$PUCSXDIR
 10
1.0
 20
0.0
 30
0.0
  9
$PUCSYDIR
 10
0.0
 20
1.0
 30
0.0
  9
$USERI1
 70
     0
  9
$USERI2
 70
     0
  9
$USERI3
 70
     0
  9
$USERI4
 70
     0
  9
$USERI5
 70
     0
  9
$USERR1
 40
0.0
  9
$USERR2
 40
0.0
  9
$USERR3
 40
0.0
  9
$USERR4
 40
0.0
  9
$USERR5
 40
0.0
  9
$WORLDVIEW
 70
     1
  9
$SHADEDGE
 70
     3
  9
$SHADEDIF
 70
    70
  9
$TILEMODE
 70
     1
  9
$MAXACTVP
 70
    64
  9
$PLIMCHECK
 70
     0
  9
$PEXTMIN
 10
1.000000000000000E+20
 20
1.000000000000000E+20
 30
1.000000000000000E+20
  9
$PEXTMAX
 10
-1.000000000000000E+20
 20
-1.000000000000000E+20
 30
-1.000000000000000E+20
  9
$PLIMMIN
 10
0.0
 20
0.0
  9
$PLIMMAX
 10
12.0
 20
9.0
  9
$UNITMODE
 70
     0
  9
$VISRETAIN
 70
     1
  9
$PLINEGEN
 70
     0
  9
$PSLTSCALE
 70
     1
  0
ENDSEC
  0
SECTION
  2
TABLES
  0
TABLE
  2
VPORT
 70
     1
  0
VPORT
  2
*ACTIVE
 70
     0
 10
0.0
 20
0.0
 11
1.0
 21
1.0
 12
10.42990654205607
 22
4.5
 13
0.0
 23
0.0
 14
0.5
 24
0.5
 15
0.5
 25
0.5
 16
0.0
 26
0.0
 36
1.0
 17
0.0
 27
0.0
 37
0.0
 40
9.0
 41
1.972972972850329
 42
50.0
 43
0.0
 44
0.0
 50
0.0
 51
0.0
 71
     0
 72
   100
 73
     1
 74
     3
 75
     0
 76
     0
 77
     0
 78
     0
  0
ENDTAB
  0
TABLE
  2
LTYPE
 70
     2
  0
LTYPE
  2
CONTINUOUS
 70
     0
  3
Solid line
 72
    65
 73
     0
 40
0.0
  0
LTYPE
  2
CONTINUOUS2
 70
     0
  3
Solid Line
 72
    65
 73
     0
 40
0.0
  0
ENDTAB
  0
TABLE
  2
LAYER
 70
     1
  0
LAYER
  2
0
 70
     0
 62
     7
  6
CONTINUOUS
  0
ENDTAB
  0
TABLE
  2
STYLE
 70
     1
  0
STYLE
  2
STANDARD
 70
     0
 40
0.0
 41
1.0
 50
0.0
 71
     0
 42
0.2
  3
txt
  4

  0
ENDTAB
  0
TABLE
  2
VIEW
 70
     0
  0
ENDTAB
  0
TABLE
  2
UCS
 70
     0
  0
ENDTAB
  0
TABLE
  2
APPID
 70
     1
  0
APPID
  2
ACAD
 70
     0
  0
ENDTAB
  0
TABLE
  2
DIMSTYLE
 70
     1
  0
DIMSTYLE
  2
STANDARD
 70
     0
  3

  4

  5

  6

  7

 40
1.0
 41
0.18
 42
0.0625
 43
0.38
 44
0.18
 45
0.0
 46
0.0
 47
0.0
 48
0.0
140
0.18
141
0.09
142
0.0
143
25.4
144
1.0
145
0.0
146
1.0
147
0.09
 71
     0
 72
     0
 73
     1
 74
     1
 75
     0
 76
     0
 77
     0
 78
     0
170
     0
171
     2
172
     0
173
     0
174
     0
175
     0
176
     0
177
     0
178
     0
  0
ENDTAB
  0
ENDSEC
  0
SECTION
  2
BLOCKS
  0
BLOCK
  8
0
  2
$MODEL_SPACE
 70
     0
 10
0.0
 20
0.0
 30
0.0
  3
$MODEL_SPACE
  1

  0
ENDBLK
  5
21
  8
0
  0
BLOCK
 67
     1
  8
0
  2
$PAPER_SPACE
 70
     0
 10
0.0
 20
0.0
 30
0.0
  3
$PAPER_SPACE
  1

  0
ENDBLK
  5
1D
 67
     1
  8
0
  0
ENDSEC
  0
SECTION
  2
ENTITIES
  0
POLYLINE
  5
40
  8
0
 66
     1
 10
0.0
 20
0.0
 30
0.0
 70
     1
  0
VERTEX
  5
54
  8
0
 10
1696.196004138921
 20
160.9469353715806
 30
0.0
 42
0.4142135623730951
  0
VERTEX
  5
55
  8
0
 10
1692.196004138921
 20
156.9469353715806
 30
0.0
 42
0.4142135623730951
  0
VERTEX
  5
56
  8
0
 10
1696.196004138921
 20
152.9469353715806
 30
0.0
 42
0.4142135623730951
  0
VERTEX
  5
57
  8
0
 10
1700.196004138921
 20
156.9469353715806
 30
0.0
 42
0.4142135623730951
  0
SEQEND
  5
58
  8
0
  0
POLYLINE
  5
41
  8
0
 66
     1
 10
0.0
 20
0.0
 30
0.0
 70
     1
  0
VERTEX
  5
59
  8
0
 10
1729.454812237891
 20
157.6969353715805
 30
0.0
 42
0.4142135623730951
  0
VERTEX
  5
5A
  8
0
 10
1728.704812237891
 20
156.9469353715806
 30
0.0
 42
0.4142135623730951
  0
VERTEX
  5
5B
  8
0
 10
1729.454812237891
 20
156.1969353715806
 30
0.0
 42
0.4142135623730951
  0
VERTEX
  5
5C
  8
0
 10
1730.204812237891
 20
156.9469353715806
 30
0.0
 42
0.4142135623730951
  0
SEQEND
  5
5D
  8
0
  0
POLYLINE
  5
42
  8
0
 66
     1
 10
0.0
 20
0.0
 30
0.0
 70
     1
  0
VERTEX
  5
5E
  8
0
 10
1696.196004138921
 20
189.1852810910186
 30
0.0
  0
VERTEX
  5
5F
  8
0
 10
1695.212202974614
 20
189.1747518072651
 30
0.0
  0
VERTEX
  5
60
  8
0
 10
1694.234539767325
 20
189.1433327556161
 30
0.0
  0
VERTEX
  5
61
  8
0
 10
1693.263313882533
 20
189.0912771354888
 30
0.0
  0
VERTEX
  5
62
  8
0
 10
1692.298824685713
 20
189.0188381463003
 30
0.0
  0
VERTEX
  5
63
  8
0
 10
1691.341371542342
 20
188.9262689874679
 30
0.0
  0
VERTEX
  5
64
  8
0
 10
1690.391253817895
 20
188.8138228584088
 30
0.0
  0
VERTEX
  5
65
  8
0
 10
1689.44877087785
 20
188.6817529585401
 30
0.0
  0
VERTEX
  5
66
  8
0
 10
1688.514222087682
 20
188.5303124872791
 30
0.0
  0
VERTEX
  5
67
  8
0
 10
1687.587906812868
 20
188.359754644043
 30
0.0
  0
VERTEX
  5
68
  8
0
 10
1686.670124418884
 20
188.1703326282489
 30
0.0
  0
VERTEX
  5
69
  8
0
 10
1685.761174271207
 20
187.9622996393141
 30
0.0
  0
VERTEX
  5
6A
  8
0
 10
1684.861355735313
 20
187.7359088766557
 30
0.0
  0
VERTEX
  5
6B
  8
0
 10
1683.970968176679
 20
187.4914135396911
 30
0.0
  0
VERTEX
  5
6C
  8
0
 10
1683.09031096078
 20
187.2290668278372
 30
0.0
  0
VERTEX
  5
6D
  8
0
 10
1682.219683453093
 20
186.9491219405115
 30
0.0
  0
VERTEX
  5
6E
  8
0
 10
1681.359385019094
 20
186.651832077131
 30
0.0
  0
VERTEX
  5
6F
  8
0
 10
1680.50971502426
 20
186.3374504371129
 30
0.0
  0
VERTEX
  5
70
  8
0
 10
1679.670972834068
 20
186.0062302198745
 30
0.0
  0
VERTEX
  5
71
  8
0
 10
1678.843457813993
 20
185.6584246248329
 30
0.0
  0
VERTEX
  5
72
  8
0
 10
1678.027469329511
 20
185.2942868514054
 30
0.0
  0
VERTEX
  5
73
  8
0
 10
1677.2233067461
 20
184.9140700990092
 30
0.0
  0
VERTEX
  5
74
  8
0
 10
1676.431269429235
 20
184.5180275670614
 30
0.0
  0
VERTEX
  5
75
  8
0
 10
1675.651656744393
 20
184.1064124549792
 30
0.0
  0
VERTEX
  5
76
  8
0
 10
1674.88476805705
 20
183.6794779621799
 30
0.0
  0
VERTEX
  5
77
  8
0
 10
1674.130902732683
 20
183.2374772880806
 30
0.0
  0
VERTEX
  5
78
  8
0
 10
1673.390360136768
 20
182.7806636320986
 30
0.0
  0
VERTEX
  5
79
  8
0
 10
1672.663439634781
 20
182.309290193651
 30
0.0
  0
VERTEX
  5
7A
  8
0
 10
1671.950440592198
 20
181.823610172155
 30
0.0
  0
VERTEX
  5
7B
  8
0
 10
1671.251662374496
 20
181.323876767028
 30
0.0
  0
VERTEX
  5
7C
  8
0
 10
1670.567404347152
 20
180.8103431776869
 30
0.0
  0
VERTEX
  5
7D
  8
0
 10
1669.897965875642
 20
180.283262603549
 30
0.0
  0
VERTEX
  5
7E
  8
0
 10
1669.243646325441
 20
179.7428882440316
 30
0.0
  0
VERTEX
  5
7F
  8
0
 10
1668.604745062026
 20
179.1894732985519
 30
0.0
  0
VERTEX
  5
80
  8
0
 10
1667.981561450875
 20
178.6232709665269
 30
0.0
  0
VERTEX
  5
81
  8
0
 10
1667.374394857462
 20
178.044534447374
 30
0.0
  0
VERTEX
  5
82
  8
0
 10
1666.783544647265
 20
177.4535169405103
 30
0.0
  0
VERTEX
  5
83
  8
0
 10
1666.209310185759
 20
176.8504716453531
 30
0.0
  0
VERTEX
  5
84
  8
0
 10
1665.651990838422
 20
176.2356517613194
 30
0.0
  0
VERTEX
  5
85
  8
0
 10
1665.111885970729
 20
175.6093104878266
 30
0.0
  0
VERTEX
  5
86
  8
0
 10
1664.589294948156
 20
174.9717010242919
 30
0.0
  0
VERTEX
  5
87
  8
0
 10
1664.084517136181
 20
174.3230765701323
 30
0.0
  0
VERTEX
  5
88
  8
0
 10
1663.597851900279
 20
173.6636903247652
 30
0.0
  0
VERTEX
  5
89
  8
0
 10
1663.129598605928
 20
172.9937954876077
 30
0.0
  0
VERTEX
  5
8A
  8
0
 10
1662.680056618602
 20
172.3136452580769
 30
0.0
  0
VERTEX
  5
8B
  8
0
 10
1662.249525303779
 20
171.6234928355903
 30
0.0
  0
VERTEX
  5
8C
  8
0
 10
1661.838304026935
 20
170.9235914195648
 30
0.0
  0
VERTEX
  5
8D
  8
0
 10
1661.446692153546
 20
170.2141942094178
 30
0.0
  0
VERTEX
  5
8E
  8
0
 10
1661.074989049088
 20
169.4955544045663
 30
0.0
  0
VERTEX
  5
8F
  8
0
 10
1660.723494079039
 20
168.7679252044277
 30
0.0
  0
VERTEX
  5
90
  8
0
 10
1660.392506608873
 20
168.031559808419
 30
0.0
  0
VERTEX
  5
91
  8
0
 10
1660.082326004069
 20
167.2867114159576
 30
0.0
  0
VERTEX
  5
92
  8
0
 10
1659.793251630101
 20
166.5336332264606
 30
0.0
  0
VERTEX
  5
93
  8
0
 10
1659.525582852447
 20
165.7725784393452
 30
0.0
  0
VERTEX
  5
94
  8
0
 10
1659.279619036582
 20
165.0038002540286
 30
0.0
  0
VERTEX
  5
95
  8
0
 10
1659.055659547984
 20
164.227551869928
 30
0.0
  0
VERTEX
  5
96
  8
0
 10
1658.854003752127
 20
163.4440864864606
 30
0.0
  0
VERTEX
  5
97
  8
0
 10
1658.67495101449
 20
162.6536573030436
 30
0.0
  0
VERTEX
  5
98
  8
0
 10
1658.518800700547
 20
161.8565175190942
 30
0.0
  0
VERTEX
  5
99
  8
0
 10
1658.385852175776
 20
161.0529203340296
 30
0.0
  0
VERTEX
  5
9A
  8
0
 10
1658.276404805653
 20
160.243118947267
 30
0.0
  0
VERTEX
  5
9B
  8
0
 10
1658.190757955654
 20
159.4273665582236
 30
0.0
  0
VERTEX
  5
9C
  8
0
 10
1658.129210991255
 20
158.6059163663166
 30
0.0
  0
VERTEX
  5
9D
  8
0
 10
1658.092063277933
 20
157.7790215709632
 30
0.0
  0
VERTEX
  5
9E
  8
0
 10
1658.079614181165
 20
156.9469353715806
 30
0.0
  0
VERTEX
  5
9F
  8
0
 10
1658.092063277933
 20
156.1148491721979
 30
0.0
  0
VERTEX
  5
A0
  8
0
 10
1658.129210991255
 20
155.2879543768445
 30
0.0
  0
VERTEX
  5
A1
  8
0
 10
1658.190757955654
 20
154.4665041849375
 30
0.0
  0
VERTEX
  5
A2
  8
0
 10
1658.276404805653
 20
153.6507517958941
 30
0.0
  0
VERTEX
  5
A3
  8
0
 10
1658.385852175776
 20
152.8409504091315
 30
0.0
  0
VERTEX
  5
A4
  8
0
 10
1658.518800700547
 20
152.0373532240669
 30
0.0
  0
VERTEX
  5
A5
  8
0
 10
1658.67495101449
 20
151.2402134401175
 30
0.0
  0
VERTEX
  5
A6
  8
0
 10
1658.854003752127
 20
150.4497842567005
 30
0.0
  0
VERTEX
  5
A7
  8
0
 10
1659.055659547984
 20
149.6663188732331
 30
0.0
  0
VERTEX
  5
A8
  8
0
 10
1659.279619036582
 20
148.8900704891325
 30
0.0
  0
VERTEX
  5
A9
  8
0
 10
1659.525582852447
 20
148.1212923038159
 30
0.0
  0
VERTEX
  5
AA
  8
0
 10
1659.793251630101
 20
147.3602375167005
 30
0.0
  0
VERTEX
  5
AB
  8
0
 10
1660.082326004069
 20
146.6071593272035
 30
0.0
  0
VERTEX
  5
AC
  8
0
 10
1660.392506608873
 20
145.8623109347421
 30
0.0
  0
VERTEX
  5
AD
  8
0
 10
1660.723494079039
 20
145.1259455387335
 30
0.0
  0
VERTEX
  5
AE
  8
0
 10
1661.074989049088
 20
144.3983163385948
 30
0.0
  0
VERTEX
  5
AF
  8
0
 10
1661.446692153546
 20
143.6796765337434
 30
0.0
  0
VERTEX
  5
B0
  8
0
 10
1661.838304026935
 20
142.9702793235963
 30
0.0
  0
VERTEX
  5
B1
  8
0
 10
1662.249525303779
 20
142.2703779075709
 30
0.0
  0
VERTEX
  5
B2
  8
0
 10
1662.680056618602
 20
141.5802254850842
 30
0.0
  0
VERTEX
  5
B3
  8
0
 10
1663.129598605928
 20
140.9000752555535
 30
0.0
  0
VERTEX
  5
B4
  8
0
 10
1663.597851900279
 20
140.2301804183959
 30
0.0
  0
VERTEX
  5
B5
  8
0
 10
1664.084517136181
 20
139.5707941730288
 30
0.0
  0
VERTEX
  5
B6
  8
0
 10
1664.589294948156
 20
138.9221697188693
 30
0.0
  0
VERTEX
  5
B7
  8
0
 10
1665.111885970729
 20
138.2845602553345
 30
0.0
  0
VERTEX
  5
B8
  8
0
 10
1665.651990838422
 20
137.6582189818417
 30
0.0
  0
VERTEX
  5
B9
  8
0
 10
1666.209310185759
 20
137.043399097808
 30
0.0
  0
VERTEX
  5
BA
  8
0
 10
1666.783544647265
 20
136.4403538026508
 30
0.0
  0
VERTEX
  5
BB
  8
0
 10
1667.374394857462
 20
135.8493362957871
 30
0.0
  0
VERTEX
  5
BC
  8
0
 10
1667.981561450875
 20
135.2705997766342
 30
0.0
  0
VERTEX
  5
BD
  8
0
 10
1668.604745062026
 20
134.7043974446092
 30
0.0
  0
VERTEX
  5
BE
  8
0
 10
1669.243646325441
 20
134.1509824991295
 30
0.0
  0
VERTEX
  5
BF
  8
0
 10
1669.897965875642
 20
133.6106081396121
 30
0.0
  0
VERTEX
  5
C0
  8
0
 10
1670.567404347152
 20
133.0835275654743
 30
0.0
  0
VERTEX
  5
C1
  8
0
 10
1671.251662374496
 20
132.5699939761332
 30
0.0
  0
VERTEX
  5
C2
  8
0
 10
1671.950440592198
 20
132.0702605710061
 30
0.0
  0
VERTEX
  5
C3
  8
0
 10
1672.663439634781
 20
131.5845805495101
 30
0.0
  0
VERTEX
  5
C4
  8
0
 10
1673.390360136768
 20
131.1132071110625
 30
0.0
  0
VERTEX
  5
C5
  8
0
 10
1674.130902732683
 20
130.6563934550805
 30
0.0
  0
VERTEX
  5
C6
  8
0
 10
1674.88476805705
 20
130.2143927809812
 30
0.0
  0
VERTEX
  5
C7
  8
0
 10
1675.651656744393
 20
129.7874582881819
 30
0.0
  0
VERTEX
  5
C8
  8
0
 10
1676.431269429235
 20
129.3758431760997
 30
0.0
  0
VERTEX
  5
C9
  8
0
 10
1677.2233067461
 20
128.9798006441519
 30
0.0
  0
VERTEX
  5
CA
  8
0
 10
1678.027469329511
 20
128.5995838917557
 30
0.0
  0
VERTEX
  5
CB
  8
0
 10
1678.843457813993
 20
128.2354461183282
 30
0.0
  0
VERTEX
  5
CC
  8
0
 10
1679.670972834068
 20
127.8876405232866
 30
0.0
  0
VERTEX
  5
CD
  8
0
 10
1680.50971502426
 20
127.5564203060482
 30
0.0
  0
VERTEX
  5
CE
  8
0
 10
1681.359385019094
 20
127.2420386660302
 30
0.0
  0
VERTEX
  5
CF
  8
0
 10
1682.219683453093
 20
126.9447488026497
 30
0.0
  0
VERTEX
  5
D0
  8
0
 10
1683.09031096078
 20
126.6648039153239
 30
0.0
  0
VERTEX
  5
D1
  8
0
 10
1683.970968176679
 20
126.4024572034701
 30
0.0
  0
VERTEX
  5
D2
  8
0
 10
1684.861355735313
 20
126.1579618665054
 30
0.0
  0
VERTEX
  5
D3
  8
0
 10
1685.761174271207
 20
125.931571103847
 30
0.0
  0
VERTEX
  5
D4
  8
0
 10
1686.670124418884
 20
125.7235381149122
 30
0.0
  0
VERTEX
  5
D5
  8
0
 10
1687.587906812868
 20
125.5341160991182
 30
0.0
  0
VERTEX
  5
D6
  8
0
 10
1688.514222087682
 20
125.363558255882
 30
0.0
  0
VERTEX
  5
D7
  8
0
 10
1689.44877087785
 20
125.2121177846211
 30
0.0
  0
VERTEX
  5
D8
  8
0
 10
1690.391253817895
 20
125.0800478847524
 30
0.0
  0
VERTEX
  5
D9
  8
0
 10
1691.341371542342
 20
124.9676017556933
 30
0.0
  0
VERTEX
  5
DA
  8
0
 10
1692.298824685713
 20
124.8750325968608
 30
0.0
  0
VERTEX
  5
DB
  8
0
 10
1693.263313882533
 20
124.8025936076724
 30
0.0
  0
VERTEX
  5
DC
  8
0
 10
1694.234539767325
 20
124.750537987545
 30
0.0
  0
VERTEX
  5
DD
  8
0
 10
1695.212202974614
 20
124.719118935896
 30
0.0
  0
VERTEX
  5
DE
  8
0
 10
1696.196004138921
 20
124.7085896521425
 30
0.0
  0
VERTEX
  5
DF
  8
0
 10
1697.179805303229
 20
124.719118935896
 30
0.0
  0
VERTEX
  5
E0
  8
0
 10
1698.157468510517
 20
124.750537987545
 30
0.0
  0
VERTEX
  5
E1
  8
0
 10
1699.12869439531
 20
124.8025936076724
 30
0.0
  0
VERTEX
  5
E2
  8
0
 10
1700.093183592129
 20
124.8750325968608
 30
0.0
  0
VERTEX
  5
E3
  8
0
 10
1701.050636735501
 20
124.9676017556933
 30
0.0
  0
VERTEX
  5
E4
  8
0
 10
1702.000754459948
 20
125.0800478847524
 30
0.0
  0
VERTEX
  5
E5
  8
0
 10
1702.943237399993
 20
125.2121177846211
 30
0.0
  0
VERTEX
  5
E6
  8
0
 10
1703.877786190161
 20
125.363558255882
 30
0.0
  0
VERTEX
  5
E7
  8
0
 10
1704.804101464975
 20
125.5341160991182
 30
0.0
  0
VERTEX
  5
E8
  8
0
 10
1705.721883858959
 20
125.7235381149122
 30
0.0
  0
VERTEX
  5
E9
  8
0
 10
1706.630834006635
 20
125.931571103847
 30
0.0
  0
VERTEX
  5
EA
  8
0
 10
1707.530652542529
 20
126.1579618665054
 30
0.0
  0
VERTEX
  5
EB
  8
0
 10
1708.421040101164
 20
126.4024572034701
 30
0.0
  0
VERTEX
  5
EC
  8
0
 10
1709.301697317063
 20
126.6648039153239
 30
0.0
  0
VERTEX
  5
ED
  8
0
 10
1710.17232482475
 20
126.9447488026497
 30
0.0
  0
VERTEX
  5
EE
  8
0
 10
1711.032623258748
 20
127.2420386660302
 30
0.0
  0
VERTEX
  5
EF
  8
0
 10
1711.882293253582
 20
127.5564203060482
 30
0.0
  0
VERTEX
  5
F0
  8
0
 10
1712.721035443775
 20
127.8876405232866
 30
0.0
  0
VERTEX
  5
F1
  8
0
 10
1713.54855046385
 20
128.2354461183282
 30
0.0
  0
VERTEX
  5
F2
  8
0
 10
1714.364538948331
 20
128.5995838917557
 30
0.0
  0
VERTEX
  5
F3
  8
0
 10
1715.168701531742
 20
128.9798006441519
 30
0.0
  0
VERTEX
  5
F4
  8
0
 10
1715.960738848607
 20
129.3758431760997
 30
0.0
  0
VERTEX
  5
F5
  8
0
 10
1716.740351533449
 20
129.7874582881819
 30
0.0
  0
VERTEX
  5
F6
  8
0
 10
1717.507240220792
 20
130.2143927809812
 30
0.0
  0
VERTEX
  5
F7
  8
0
 10
1718.261105545159
 20
130.6563934550805
 30
0.0
  0
VERTEX
  5
F8
  8
0
 10
1719.001648141075
 20
131.1132071110625
 30
0.0
  0
VERTEX
  5
F9
  8
0
 10
1719.728568643062
 20
131.5845805495101
 30
0.0
  0
VERTEX
  5
FA
  8
0
 10
1720.441567685645
 20
132.0702605710061
 30
0.0
  0
VERTEX
  5
FB
  8
0
 10
1721.140345903346
 20
132.5699939761332
 30
0.0
  0
VERTEX
  5
FC
  8
0
 10
1721.824603930691
 20
133.0835275654743
 30
0.0
  0
VERTEX
  5
FD
  8
0
 10
1722.494042402201
 20
133.6106081396121
 30
0.0
  0
VERTEX
  5
FE
  8
0
 10
1723.148361952402
 20
134.1509824991295
 30
0.0
  0
VERTEX
  5
FF
  8
0
 10
1723.787263215816
 20
134.7043974446092
 30
0.0
  0
VERTEX
  5
100
  8
0
 10
1724.410446826968
 20
135.2705997766342
 30
0.0
  0
VERTEX
  5
101
  8
0
 10
1725.017613420381
 20
135.8493362957871
 30
0.0
  0
VERTEX
  5
102
  8
0
 10
1725.608463630578
 20
136.4403538026508
 30
0.0
  0
VERTEX
  5
103
  8
0
 10
1726.182698092083
 20
137.043399097808
 30
0.0
  0
VERTEX
  5
104
  8
0
 10
1726.740017439421
 20
137.6582189818417
 30
0.0
  0
VERTEX
  5
105
  8
0
 10
1727.280122307114
 20
138.2845602553345
 30
0.0
  0
VERTEX
  5
106
  8
0
 10
1727.802713329686
 20
138.9221697188693
 30
0.0
  0
VERTEX
  5
107
  8
0
 10
1728.307491141662
 20
139.5707941730288
 30
0.0
  0
VERTEX
  5
108
  8
0
 10
1728.794156377563
 20
140.2301804183959
 30
0.0
  0
VERTEX
  5
109
  8
0
 10
1729.262409671915
 20
140.9000752555535
 30
0.0
  0
VERTEX
  5
10A
  8
0
 10
1729.711951659241
 20
141.5802254850842
 30
0.0
  0
VERTEX
  5
10B
  8
0
 10
1730.142482974064
 20
142.2703779075709
 30
0.0
  0
VERTEX
  5
10C
  8
0
 10
1730.553704250908
 20
142.9702793235963
 30
0.0
  0
VERTEX
  5
10D
  8
0
 10
1730.945316124297
 20
143.6796765337434
 30
0.0
  0
VERTEX
  5
10E
  8
0
 10
1731.317019228754
 20
144.3983163385948
 30
0.0
  0
VERTEX
  5
10F
  8
0
 10
1731.668514198804
 20
145.1259455387335
 30
0.0
  0
VERTEX
  5
110
  8
0
 10
1731.999501668969
 20
145.8623109347421
 30
0.0
  0
VERTEX
  5
111
  8
0
 10
1732.309682273774
 20
146.6071593272035
 30
0.0
  0
VERTEX
  5
112
  8
0
 10
1732.598756647742
 20
147.3602375167005
 30
0.0
  0
VERTEX
  5
113
  8
0
 10
1732.866425425396
 20
148.1212923038159
 30
0.0
  0
VERTEX
  5
114
  8
0
 10
1733.11238924126
 20
148.8900704891325
 30
0.0
  0
VERTEX
  5
115
  8
0
 10
1733.336348729859
 20
149.6663188732331
 30
0.0
  0
VERTEX
  5
116
  8
0
 10
1733.538004525715
 20
150.4497842567005
 30
0.0
  0
VERTEX
  5
117
  8
0
 10
1733.717057263353
 20
151.2402134401175
 30
0.0
  0
VERTEX
  5
118
  8
0
 10
1733.873207577295
 20
152.0373532240669
 30
0.0
  0
VERTEX
  5
119
  8
0
 10
1734.006156102066
 20
152.8409504091315
 30
0.0
  0
VERTEX
  5
11A
  8
0
 10
1734.11560347219
 20
153.6507517958941
 30
0.0
  0
VERTEX
  5
11B
  8
0
 10
1734.201250322189
 20
154.4665041849375
 30
0.0
  0
VERTEX
  5
11C
  8
0
 10
1734.262797286588
 20
155.2879543768445
 30
0.0
  0
VERTEX
  5
11D
  8
0
 10
1734.299944999909
 20
156.1148491721979
 30
0.0
  0
VERTEX
  5
11E
  8
0
 10
1734.312394096678
 20
156.9469353715806
 30
0.0
  0
VERTEX
  5
11F
  8
0
 10
1734.299944999909
 20
157.7790215709632
 30
0.0
  0
VERTEX
  5
120
  8
0
 10
1734.262797286588
 20
158.6059163663166
 30
0.0
  0
VERTEX
  5
121
  8
0
 10
1734.201250322189
 20
159.4273665582236
 30
0.0
  0
VERTEX
  5
122
  8
0
 10
1734.11560347219
 20
160.243118947267
 30
0.0
  0
VERTEX
  5
123
  8
0
 10
1734.006156102066
 20
161.0529203340296
 30
0.0
  0
VERTEX
  5
124
  8
0
 10
1733.873207577295
 20
161.8565175190942
 30
0.0
  0
VERTEX
  5
125
  8
0
 10
1733.717057263353
 20
162.6536573030436
 30
0.0
  0
VERTEX
  5
126
  8
0
 10
1733.538004525715
 20
163.4440864864606
 30
0.0
  0
VERTEX
  5
127
  8
0
 10
1733.336348729859
 20
164.227551869928
 30
0.0
  0
VERTEX
  5
128
  8
0
 10
1733.11238924126
 20
165.0038002540286
 30
0.0
  0
VERTEX
  5
129
  8
0
 10
1732.866425425396
 20
165.7725784393452
 30
0.0
  0
VERTEX
  5
12A
  8
0
 10
1732.598756647742
 20
166.5336332264606
 30
0.0
  0
VERTEX
  5
12B
  8
0
 10
1732.309682273774
 20
167.2867114159576
 30
0.0
  0
VERTEX
  5
12C
  8
0
 10
1731.999501668969
 20
168.031559808419
 30
0.0
  0
VERTEX
  5
12D
  8
0
 10
1731.668514198804
 20
168.7679252044277
 30
0.0
  0
VERTEX
  5
12E
  8
0
 10
1731.317019228754
 20
169.4955544045663
 30
0.0
  0
VERTEX
  5
12F
  8
0
 10
1730.945316124297
 20
170.2141942094178
 30
0.0
  0
VERTEX
  5
130
  8
0
 10
1730.553704250908
 20
170.9235914195648
 30
0.0
  0
VERTEX
  5
131
  8
0
 10
1730.142482974064
 20
171.6234928355903
 30
0.0
  0
VERTEX
  5
132
  8
0
 10
1729.711951659241
 20
172.3136452580769
 30
0.0
  0
VERTEX
  5
133
  8
0
 10
1729.262409671915
 20
172.9937954876077
 30
0.0
  0
VERTEX
  5
134
  8
0
 10
1728.794156377563
 20
173.6636903247652
 30
0.0
  0
VERTEX
  5
135
  8
0
 10
1728.307491141662
 20
174.3230765701323
 30
0.0
  0
VERTEX
  5
136
  8
0
 10
1727.802713329686
 20
174.9717010242919
 30
0.0
  0
VERTEX
  5
137
  8
0
 10
1727.280122307114
 20
175.6093104878266
 30
0.0
  0
VERTEX
  5
138
  8
0
 10
1726.740017439421
 20
176.2356517613194
 30
0.0
  0
VERTEX
  5
139
  8
0
 10
1726.182698092083
 20
176.8504716453531
 30
0.0
  0
VERTEX
  5
13A
  8
0
 10
1725.608463630578
 20
177.4535169405103
 30
0.0
  0
VERTEX
  5
13B
  8
0
 10
1725.017613420381
 20
178.044534447374
 30
0.0
  0
VERTEX
  5
13C
  8
0
 10
1724.410446826968
 20
178.6232709665269
 30
0.0
  0
VERTEX
  5
13D
  8
0
 10
1723.787263215816
 20
179.1894732985519
 30
0.0
  0
VERTEX
  5
13E
  8
0
 10
1723.148361952402
 20
179.7428882440316
 30
0.0
  0
VERTEX
  5
13F
  8
0
 10
1722.494042402201
 20
180.283262603549
 30
0.0
  0
VERTEX
  5
140
  8
0
 10
1721.824603930691
 20
180.8103431776869
 30
0.0
  0
VERTEX
  5
141
  8
0
 10
1721.140345903346
 20
181.323876767028
 30
0.0
  0
VERTEX
  5
142
  8
0
 10
1720.441567685645
 20
181.823610172155
 30
0.0
  0
VERTEX
  5
143
  8
0
 10
1719.728568643062
 20
182.309290193651
 30
0.0
  0
VERTEX
  5
144
  8
0
 10
1719.001648141075
 20
182.7806636320986
 30
0.0
  0
VERTEX
  5
145
  8
0
 10
1718.261105545159
 20
183.2374772880806
 30
0.0
  0
VERTEX
  5
146
  8
0
 10
1717.507240220792
 20
183.6794779621799
 30
0.0
  0
VERTEX
  5
147
  8
0
 10
1716.740351533449
 20
184.1064124549792
 30
0.0
  0
VERTEX
  5
148
  8
0
 10
1715.960738848607
 20
184.5180275670614
 30
0.0
  0
VERTEX
  5
149
  8
0
 10
1715.168701531742
 20
184.9140700990092
 30
0.0
  0
VERTEX
  5
14A
  8
0
 10
1714.364538948331
 20
185.2942868514054
 30
0.0
  0
VERTEX
  5
14B
  8
0
 10
1713.54855046385
 20
185.6584246248329
 30
0.0
  0
VERTEX
  5
14C
  8
0
 10
1712.721035443775
 20
186.0062302198745
 30
0.0
  0
VERTEX
  5
14D
  8
0
 10
1711.882293253582
 20
186.3374504371129
 30
0.0
  0
VERTEX
  5
14E
  8
0
 10
1711.032623258748
 20
186.651832077131
 30
0.0
  0
VERTEX
  5
14F
  8
0
 10
1710.17232482475
 20
186.9491219405115
 30
0.0
  0
VERTEX
  5
150
  8
0
 10
1709.301697317063
 20
187.2290668278372
 30
0.0
  0
VERTEX
  5
151
  8
0
 10
1708.421040101164
 20
187.4914135396911
 30
0.0
  0
VERTEX
  5
152
  8
0
 10
1707.530652542529
 20
187.7359088766557
 30
0.0
  0
VERTEX
  5
153
  8
0
 10
1706.630834006635
 20
187.9622996393141
 30
0.0
  0
VERTEX
  5
154
  8
0
 10
1705.721883858959
 20
188.1703326282489
 30
0.0
  0
VERTEX
  5
155
  8
0
 10
1704.804101464975
 20
188.359754644043
 30
0.0
  0
VERTEX
  5
156
  8
0
 10
1703.877786190161
 20
188.5303124872791
 30
0.0
  0
VERTEX
  5
157
  8
0
 10
1702.943237399993
 20
188.6817529585401
 30
0.0
  0
VERTEX
  5
158
  8
0
 10
1702.000754459948
 20
188.8138228584088
 30
0.0
  0
VERTEX
  5
159
  8
0
 10
1701.050636735501
 20
188.9262689874679
 30
0.0
  0
VERTEX
  5
15A
  8
0
 10
1700.093183592129
 20
189.0188381463003
 30
0.0
  0
VERTEX
  5
15B
  8
0
 10
1699.12869439531
 20
189.0912771354888
 30
0.0
  0
VERTEX
  5
15C
  8
0
 10
1698.157468510517
 20
189.1433327556161
 30
0.0
  0
VERTEX
  5
15D
  8
0
 10
1697.179805303229
 20
189.1747518072651
 30
0.0
  0
SEQEND
  5
15E
  8
0
  0
POLYLINE
  5
43
  8
0
 66
     1
 10
0.0
 20
0.0
 30
0.0
 70
     1
  0
VERTEX
  5
15F
  8
0
 10
1662.99683688539
 20
157.6969353715805
 30
0.0
 42
0.4142135623730951
  0
VERTEX
  5
160
  8
0
 10
1662.24683688539
 20
156.9469353715806
 30
0.0
 42
0.4142135623730951
  0
VERTEX
  5
161
  8
0
 10
1662.99683688539
 20
156.1969353715806
 30
0.0
 42
0.4142135623730951
  0
VERTEX
  5
162
  8
0
 10
1663.74683688539
 20
156.9469353715806
 30
0.0
 42
0.4142135623730951
  0
SEQEND
  5
163
  8
0
  0
POLYLINE
  5
44
  8
0
 66
     1
 10
0.0
 20
0.0
 30
0.0
 70
     1
  0
VERTEX
  5
164
  8
0
 10
1573.207870185735
 20
157.6969353715805
 30
0.0
 42
0.4142135623730951
  0
VERTEX
  5
165
  8
0
 10
1572.457870185735
 20
156.9469353715806
 30
0.0
 42
0.4142135623730951
  0
VERTEX
  5
166
  8
0
 10
1573.207870185735
 20
156.1969353715806
 30
0.0
 42
0.4142135623730951
  0
VERTEX
  5
167
  8
0
 10
1573.957870185735
 20
156.9469353715806
 30
0.0
 42
0.4142135623730951
  0
SEQEND
  5
168
  8
0
  0
POLYLINE
  5
45
  8
0
 66
     1
 10
0.0
 20
0.0
 30
0.0
 70
     1
  0
VERTEX
  5
169
  8
0
 10
1639.665845538236
 20
157.6969353715805
 30
0.0
 42
0.4142135623730951
  0
VERTEX
  5
16A
  8
0
 10
1638.915845538236
 20
156.9469353715806
 30
0.0
 42
0.4142135623730951
  0
VERTEX
  5
16B
  8
0
 10
1639.665845538236
 20
156.1969353715806
 30
0.0
 42
0.4142135623730951
  0
VERTEX
  5
16C
  8
0
 10
1640.415845538236
 20
156.9469353715806
 30
0.0
 42
0.4142135623730951
  0
SEQEND
  5
16D
  8
0
  0
POLYLINE
  5
46
  8
0
 66
     1
 10
0.0
 20
0.0
 30
0.0
 70
     1
  0
VERTEX
  5
16E
  8
0
 10
1606.407037439267
 20
189.1852810910186
 30
0.0
  0
VERTEX
  5
16F
  8
0
 10
1605.423236274959
 20
189.1747518072651
 30
0.0
  0
VERTEX
  5
170
  8
0
 10
1604.445573067671
 20
189.1433327556161
 30
0.0
  0
VERTEX
  5
171
  8
0
 10
1603.474347182878
 20
189.0912771354888
 30
0.0
  0
VERTEX
  5
172
  8
0
 10
1602.509857986058
 20
189.0188381463003
 30
0.0
  0
VERTEX
  5
173
  8
0
 10
1601.552404842687
 20
188.9262689874679
 30
0.0
  0
VERTEX
  5
174
  8
0
 10
1600.60228711824
 20
188.8138228584088
 30
0.0
  0
VERTEX
  5
175
  8
0
 10
1599.659804178195
 20
188.6817529585401
 30
0.0
  0
VERTEX
  5
176
  8
0
 10
1598.725255388027
 20
188.5303124872791
 30
0.0
  0
VERTEX
  5
177
  8
0
 10
1597.798940113213
 20
188.359754644043
 30
0.0
  0
VERTEX
  5
178
  8
0
 10
1596.881157719229
 20
188.1703326282489
 30
0.0
  0
VERTEX
  5
179
  8
0
 10
1595.972207571552
 20
187.9622996393141
 30
0.0
  0
VERTEX
  5
17A
  8
0
 10
1595.072389035658
 20
187.7359088766557
 30
0.0
  0
VERTEX
  5
17B
  8
0
 10
1594.182001477024
 20
187.4914135396911
 30
0.0
  0
VERTEX
  5
17C
  8
0
 10
1593.301344261125
 20
187.2290668278372
 30
0.0
  0
VERTEX
  5
17D
  8
0
 10
1592.430716753438
 20
186.9491219405115
 30
0.0
  0
VERTEX
  5
17E
  8
0
 10
1591.57041831944
 20
186.651832077131
 30
0.0
  0
VERTEX
  5
17F
  8
0
 10
1590.720748324606
 20
186.3374504371129
 30
0.0
  0
VERTEX
  5
180
  8
0
 10
1589.882006134413
 20
186.0062302198745
 30
0.0
  0
VERTEX
  5
181
  8
0
 10
1589.054491114338
 20
185.6584246248329
 30
0.0
  0
VERTEX
  5
182
  8
0
 10
1588.238502629857
 20
185.2942868514054
 30
0.0
  0
VERTEX
  5
183
  8
0
 10
1587.434340046445
 20
184.9140700990092
 30
0.0
  0
VERTEX
  5
184
  8
0
 10
1586.64230272958
 20
184.5180275670614
 30
0.0
  0
VERTEX
  5
185
  8
0
 10
1585.862690044738
 20
184.1064124549792
 30
0.0
  0
VERTEX
  5
186
  8
0
 10
1585.095801357396
 20
183.6794779621799
 30
0.0
  0
VERTEX
  5
187
  8
0
 10
1584.341936033029
 20
183.2374772880806
 30
0.0
  0
VERTEX
  5
188
  8
0
 10
1583.601393437113
 20
182.7806636320986
 30
0.0
  0
VERTEX
  5
189
  8
0
 10
1582.874472935126
 20
182.309290193651
 30
0.0
  0
VERTEX
  5
18A
  8
0
 10
1582.161473892543
 20
181.823610172155
 30
0.0
  0
VERTEX
  5
18B
  8
0
 10
1581.462695674842
 20
181.323876767028
 30
0.0
  0
VERTEX
  5
18C
  8
0
 10
1580.778437647497
 20
180.8103431776869
 30
0.0
  0
VERTEX
  5
18D
  8
0
 10
1580.108999175987
 20
180.283262603549
 30
0.0
  0
VERTEX
  5
18E
  8
0
 10
1579.454679625786
 20
179.7428882440316
 30
0.0
  0
VERTEX
  5
18F
  8
0
 10
1578.815778362371
 20
179.1894732985519
 30
0.0
  0
VERTEX
  5
190
  8
0
 10
1578.19259475122
 20
178.6232709665269
 30
0.0
  0
VERTEX
  5
191
  8
0
 10
1577.585428157807
 20
178.044534447374
 30
0.0
  0
VERTEX
  5
192
  8
0
 10
1576.99457794761
 20
177.4535169405103
 30
0.0
  0
VERTEX
  5
193
  8
0
 10
1576.420343486105
 20
176.8504716453531
 30
0.0
  0
VERTEX
  5
194
  8
0
 10
1575.863024138767
 20
176.2356517613194
 30
0.0
  0
VERTEX
  5
195
  8
0
 10
1575.322919271074
 20
175.6093104878266
 30
0.0
  0
VERTEX
  5
196
  8
0
 10
1574.800328248502
 20
174.9717010242919
 30
0.0
  0
VERTEX
  5
197
  8
0
 10
1574.295550436526
 20
174.3230765701323
 30
0.0
  0
VERTEX
  5
198
  8
0
 10
1573.808885200625
 20
173.6636903247652
 30
0.0
  0
VERTEX
  5
199
  8
0
 10
1573.340631906273
 20
172.9937954876077
 30
0.0
  0
VERTEX
  5
19A
  8
0
 10
1572.891089918947
 20
172.3136452580769
 30
0.0
  0
VERTEX
  5
19B
  8
0
 10
1572.460558604124
 20
171.6234928355903
 30
0.0
  0
VERTEX
  5
19C
  8
0
 10
1572.04933732728
 20
170.9235914195648
 30
0.0
  0
VERTEX
  5
19D
  8
0
 10
1571.657725453891
 20
170.2141942094178
 30
0.0
  0
VERTEX
  5
19E
  8
0
 10
1571.286022349434
 20
169.4955544045663
 30
0.0
  0
VERTEX
  5
19F
  8
0
 10
1570.934527379384
 20
168.7679252044277
 30
0.0
  0
VERTEX
  5
1A0
  8
0
 10
1570.603539909219
 20
168.031559808419
 30
0.0
  0
VERTEX
  5
1A1
  8
0
 10
1570.293359304414
 20
167.2867114159576
 30
0.0
  0
VERTEX
  5
1A2
  8
0
 10
1570.004284930446
 20
166.5336332264606
 30
0.0
  0
VERTEX
  5
1A3
  8
0
 10
1569.736616152792
 20
165.7725784393452
 30
0.0
  0
VERTEX
  5
1A4
  8
0
 10
1569.490652336927
 20
165.0038002540286
 30
0.0
  0
VERTEX
  5
1A5
  8
0
 10
1569.266692848329
 20
164.227551869928
 30
0.0
  0
VERTEX
  5
1A6
  8
0
 10
1569.065037052473
 20
163.4440864864606
 30
0.0
  0
VERTEX
  5
1A7
  8
0
 10
1568.885984314835
 20
162.6536573030436
 30
0.0
  0
VERTEX
  5
1A8
  8
0
 10
1568.729834000893
 20
161.8565175190942
 30
0.0
  0
VERTEX
  5
1A9
  8
0
 10
1568.596885476122
 20
161.0529203340296
 30
0.0
  0
VERTEX
  5
1AA
  8
0
 10
1568.487438105998
 20
160.243118947267
 30
0.0
  0
VERTEX
  5
1AB
  8
0
 10
1568.401791255999
 20
159.4273665582236
 30
0.0
  0
VERTEX
  5
1AC
  8
0
 10
1568.3402442916
 20
158.6059163663166
 30
0.0
  0
VERTEX
  5
1AD
  8
0
 10
1568.303096578279
 20
157.7790215709632
 30
0.0
  0
VERTEX
  5
1AE
  8
0
 10
1568.29064748151
 20
156.9469353715806
 30
0.0
  0
VERTEX
  5
1AF
  8
0
 10
1568.303096578279
 20
156.1148491721979
 30
0.0
  0
VERTEX
  5
1B0
  8
0
 10
1568.3402442916
 20
155.2879543768445
 30
0.0
  0
VERTEX
  5
1B1
  8
0
 10
1568.401791255999
 20
154.4665041849375
 30
0.0
  0
VERTEX
  5
1B2
  8
0
 10
1568.487438105998
 20
153.6507517958941
 30
0.0
  0
VERTEX
  5
1B3
  8
0
 10
1568.596885476122
 20
152.8409504091315
 30
0.0
  0
VERTEX
  5
1B4
  8
0
 10
1568.729834000893
 20
152.0373532240669
 30
0.0
  0
VERTEX
  5
1B5
  8
0
 10
1568.885984314835
 20
151.2402134401175
 30
0.0
  0
VERTEX
  5
1B6
  8
0
 10
1569.065037052473
 20
150.4497842567005
 30
0.0
  0
VERTEX
  5
1B7
  8
0
 10
1569.266692848329
 20
149.6663188732331
 30
0.0
  0
VERTEX
  5
1B8
  8
0
 10
1569.490652336927
 20
148.8900704891325
 30
0.0
  0
VERTEX
  5
1B9
  8
0
 10
1569.736616152792
 20
148.1212923038159
 30
0.0
  0
VERTEX
  5
1BA
  8
0
 10
1570.004284930446
 20
147.3602375167005
 30
0.0
  0
VERTEX
  5
1BB
  8
0
 10
1570.293359304414
 20
146.6071593272035
 30
0.0
  0
VERTEX
  5
1BC
  8
0
 10
1570.603539909219
 20
145.8623109347421
 30
0.0
  0
VERTEX
  5
1BD
  8
0
 10
1570.934527379384
 20
145.1259455387335
 30
0.0
  0
VERTEX
  5
1BE
  8
0
 10
1571.286022349434
 20
144.3983163385948
 30
0.0
  0
VERTEX
  5
1BF
  8
0
 10
1571.657725453891
 20
143.6796765337434
 30
0.0
  0
VERTEX
  5
1C0
  8
0
 10
1572.04933732728
 20
142.9702793235963
 30
0.0
  0
VERTEX
  5
1C1
  8
0
 10
1572.460558604124
 20
142.2703779075709
 30
0.0
  0
VERTEX
  5
1C2
  8
0
 10
1572.891089918947
 20
141.5802254850842
 30
0.0
  0
VERTEX
  5
1C3
  8
0
 10
1573.340631906273
 20
140.9000752555535
 30
0.0
  0
VERTEX
  5
1C4
  8
0
 10
1573.808885200625
 20
140.2301804183959
 30
0.0
  0
VERTEX
  5
1C5
  8
0
 10
1574.295550436526
 20
139.5707941730288
 30
0.0
  0
VERTEX
  5
1C6
  8
0
 10
1574.800328248502
 20
138.9221697188693
 30
0.0
  0
VERTEX
  5
1C7
  8
0
 10
1575.322919271074
 20
138.2845602553345
 30
0.0
  0
VERTEX
  5
1C8
  8
0
 10
1575.863024138767
 20
137.6582189818417
 30
0.0
  0
VERTEX
  5
1C9
  8
0
 10
1576.420343486105
 20
137.043399097808
 30
0.0
  0
VERTEX
  5
1CA
  8
0
 10
1576.99457794761
 20
136.4403538026508
 30
0.0
  0
VERTEX
  5
1CB
  8
0
 10
1577.585428157807
 20
135.8493362957871
 30
0.0
  0
VERTEX
  5
1CC
  8
0
 10
1578.19259475122
 20
135.2705997766342
 30
0.0
  0
VERTEX
  5
1CD
  8
0
 10
1578.815778362371
 20
134.7043974446092
 30
0.0
  0
VERTEX
  5
1CE
  8
0
 10
1579.454679625786
 20
134.1509824991295
 30
0.0
  0
VERTEX
  5
1CF
  8
0
 10
1580.108999175987
 20
133.6106081396121
 30
0.0
  0
VERTEX
  5
1D0
  8
0
 10
1580.778437647497
 20
133.0835275654743
 30
0.0
  0
VERTEX
  5
1D1
  8
0
 10
1581.462695674842
 20
132.5699939761332
 30
0.0
  0
VERTEX
  5
1D2
  8
0
 10
1582.161473892543
 20
132.0702605710061
 30
0.0
  0
VERTEX
  5
1D3
  8
0
 10
1582.874472935126
 20
131.5845805495101
 30
0.0
  0
VERTEX
  5
1D4
  8
0
 10
1583.601393437113
 20
131.1132071110625
 30
0.0
  0
VERTEX
  5
1D5
  8
0
 10
1584.341936033029
 20
130.6563934550805
 30
0.0
  0
VERTEX
  5
1D6
  8
0
 10
1585.095801357396
 20
130.2143927809812
 30
0.0
  0
VERTEX
  5
1D7
  8
0
 10
1585.862690044738
 20
129.7874582881819
 30
0.0
  0
VERTEX
  5
1D8
  8
0
 10
1586.64230272958
 20
129.3758431760997
 30
0.0
  0
VERTEX
  5
1D9
  8
0
 10
1587.434340046445
 20
128.9798006441519
 30
0.0
  0
VERTEX
  5
1DA
  8
0
 10
1588.238502629857
 20
128.5995838917557
 30
0.0
  0
VERTEX
  5
1DB
  8
0
 10
1589.054491114338
 20
128.2354461183282
 30
0.0
  0
VERTEX
  5
1DC
  8
0
 10
1589.882006134413
 20
127.8876405232866
 30
0.0
  0
VERTEX
  5
1DD
  8
0
 10
1590.720748324606
 20
127.5564203060482
 30
0.0
  0
VERTEX
  5
1DE
  8
0
 10
1591.57041831944
 20
127.2420386660302
 30
0.0
  0
VERTEX
  5
1DF
  8
0
 10
1592.430716753438
 20
126.9447488026497
 30
0.0
  0
VERTEX
  5
1E0
  8
0
 10
1593.301344261125
 20
126.6648039153239
 30
0.0
  0
VERTEX
  5
1E1
  8
0
 10
1594.182001477024
 20
126.4024572034701
 30
0.0
  0
VERTEX
  5
1E2
  8
0
 10
1595.072389035658
 20
126.1579618665054
 30
0.0
  0
VERTEX
  5
1E3
  8
0
 10
1595.972207571552
 20
125.931571103847
 30
0.0
  0
VERTEX
  5
1E4
  8
0
 10
1596.881157719229
 20
125.7235381149122
 30
0.0
  0
VERTEX
  5
1E5
  8
0
 10
1597.798940113213
 20
125.5341160991182
 30
0.0
  0
VERTEX
  5
1E6
  8
0
 10
1598.725255388027
 20
125.363558255882
 30
0.0
  0
VERTEX
  5
1E7
  8
0
 10
1599.659804178195
 20
125.2121177846211
 30
0.0
  0
VERTEX
  5
1E8
  8
0
 10
1600.60228711824
 20
125.0800478847524
 30
0.0
  0
VERTEX
  5
1E9
  8
0
 10
1601.552404842687
 20
124.9676017556933
 30
0.0
  0
VERTEX
  5
1EA
  8
0
 10
1602.509857986058
 20
124.8750325968608
 30
0.0
  0
VERTEX
  5
1EB
  8
0
 10
1603.474347182878
 20
124.8025936076724
 30
0.0
  0
VERTEX
  5
1EC
  8
0
 10
1604.445573067671
 20
124.750537987545
 30
0.0
  0
VERTEX
  5
1ED
  8
0
 10
1605.423236274959
 20
124.719118935896
 30
0.0
  0
VERTEX
  5
1EE
  8
0
 10
1606.407037439267
 20
124.7085896521425
 30
0.0
  0
VERTEX
  5
1EF
  8
0
 10
1607.390838603574
 20
124.719118935896
 30
0.0
  0
VERTEX
  5
1F0
  8
0
 10
1608.368501810862
 20
124.750537987545
 30
0.0
  0
VERTEX
  5
1F1
  8
0
 10
1609.339727695655
 20
124.8025936076724
 30
0.0
  0
VERTEX
  5
1F2
  8
0
 10
1610.304216892475
 20
124.8750325968608
 30
0.0
  0
VERTEX
  5
1F3
  8
0
 10
1611.261670035846
 20
124.9676017556933
 30
0.0
  0
VERTEX
  5
1F4
  8
0
 10
1612.211787760293
 20
125.0800478847524
 30
0.0
  0
VERTEX
  5
1F5
  8
0
 10
1613.154270700338
 20
125.2121177846211
 30
0.0
  0
VERTEX
  5
1F6
  8
0
 10
1614.088819490506
 20
125.363558255882
 30
0.0
  0
VERTEX
  5
1F7
  8
0
 10
1615.01513476532
 20
125.5341160991182
 30
0.0
  0
VERTEX
  5
1F8
  8
0
 10
1615.932917159304
 20
125.7235381149122
 30
0.0
  0
VERTEX
  5
1F9
  8
0
 10
1616.841867306981
 20
125.931571103847
 30
0.0
  0
VERTEX
  5
1FA
  8
0
 10
1617.741685842875
 20
126.1579618665054
 30
0.0
  0
VERTEX
  5
1FB
  8
0
 10
1618.632073401509
 20
126.4024572034701
 30
0.0
  0
VERTEX
  5
1FC
  8
0
 10
1619.512730617408
 20
126.6648039153239
 30
0.0
  0
VERTEX
  5
1FD
  8
0
 10
1620.383358125095
 20
126.9447488026497
 30
0.0
  0
VERTEX
  5
1FE
  8
0
 10
1621.243656559094
 20
127.2420386660302
 30
0.0
  0
VERTEX
  5
1FF
  8
0
 10
1622.093326553927
 20
127.5564203060482
 30
0.0
  0
VERTEX
  5
200
  8
0
 10
1622.93206874412
 20
127.8876405232866
 30
0.0
  0
VERTEX
  5
201
  8
0
 10
1623.759583764195
 20
128.2354461183282
 30
0.0
  0
VERTEX
  5
202
  8
0
 10
1624.575572248677
 20
128.5995838917557
 30
0.0
  0
VERTEX
  5
203
  8
0
 10
1625.379734832088
 20
128.9798006441519
 30
0.0
  0
VERTEX
  5
204
  8
0
 10
1626.171772148953
 20
129.3758431760997
 30
0.0
  0
VERTEX
  5
205
  8
0
 10
1626.951384833795
 20
129.7874582881819
 30
0.0
  0
VERTEX
  5
206
  8
0
 10
1627.718273521137
 20
130.2143927809812
 30
0.0
  0
VERTEX
  5
207
  8
0
 10
1628.472138845505
 20
130.6563934550805
 30
0.0
  0
VERTEX
  5
208
  8
0
 10
1629.21268144142
 20
131.1132071110625
 30
0.0
  0
VERTEX
  5
209
  8
0
 10
1629.939601943407
 20
131.5845805495101
 30
0.0
  0
VERTEX
  5
20A
  8
0
 10
1630.65260098599
 20
132.0702605710061
 30
0.0
  0
VERTEX
  5
20B
  8
0
 10
1631.351379203692
 20
132.5699939761332
 30
0.0
  0
VERTEX
  5
20C
  8
0
 10
1632.035637231036
 20
133.0835275654743
 30
0.0
  0
VERTEX
  5
20D
  8
0
 10
1632.705075702546
 20
133.6106081396121
 30
0.0
  0
VERTEX
  5
20E
  8
0
 10
1633.359395252747
 20
134.1509824991295
 30
0.0
  0
VERTEX
  5
20F
  8
0
 10
1633.998296516162
 20
134.7043974446092
 30
0.0
  0
VERTEX
  5
210
  8
0
 10
1634.621480127313
 20
135.2705997766342
 30
0.0
  0
VERTEX
  5
211
  8
0
 10
1635.228646720726
 20
135.8493362957871
 30
0.0
  0
VERTEX
  5
212
  8
0
 10
1635.819496930923
 20
136.4403538026508
 30
0.0
  0
VERTEX
  5
213
  8
0
 10
1636.393731392428
 20
137.043399097808
 30
0.0
  0
VERTEX
  5
214
  8
0
 10
1636.951050739766
 20
137.6582189818417
 30
0.0
  0
VERTEX
  5
215
  8
0
 10
1637.491155607459
 20
138.2845602553345
 30
0.0
  0
VERTEX
  5
216
  8
0
 10
1638.013746630032
 20
138.9221697188693
 30
0.0
  0
VERTEX
  5
217
  8
0
 10
1638.518524442007
 20
139.5707941730288
 30
0.0
  0
VERTEX
  5
218
  8
0
 10
1639.005189677908
 20
140.2301804183959
 30
0.0
  0
VERTEX
  5
219
  8
0
 10
1639.47344297226
 20
140.9000752555535
 30
0.0
  0
VERTEX
  5
21A
  8
0
 10
1639.922984959586
 20
141.5802254850842
 30
0.0
  0
VERTEX
  5
21B
  8
0
 10
1640.353516274409
 20
142.2703779075709
 30
0.0
  0
VERTEX
  5
21C
  8
0
 10
1640.764737551253
 20
142.9702793235963
 30
0.0
  0
VERTEX
  5
21D
  8
0
 10
1641.156349424642
 20
143.6796765337434
 30
0.0
  0
VERTEX
  5
21E
  8
0
 10
1641.5280525291
 20
144.3983163385948
 30
0.0
  0
VERTEX
  5
21F
  8
0
 10
1641.879547499149
 20
145.1259455387335
 30
0.0
  0
VERTEX
  5
220
  8
0
 10
1642.210534969314
 20
145.8623109347421
 30
0.0
  0
VERTEX
  5
221
  8
0
 10
1642.520715574119
 20
146.6071593272035
 30
0.0
  0
VERTEX
  5
222
  8
0
 10
1642.809789948087
 20
147.3602375167005
 30
0.0
  0
VERTEX
  5
223
  8
0
 10
1643.077458725741
 20
148.1212923038159
 30
0.0
  0
VERTEX
  5
224
  8
0
 10
1643.323422541606
 20
148.8900704891325
 30
0.0
  0
VERTEX
  5
225
  8
0
 10
1643.547382030204
 20
149.6663188732331
 30
0.0
  0
VERTEX
  5
226
  8
0
 10
1643.74903782606
 20
150.4497842567005
 30
0.0
  0
VERTEX
  5
227
  8
0
 10
1643.928090563698
 20
151.2402134401175
 30
0.0
  0
VERTEX
  5
228
  8
0
 10
1644.08424087764
 20
152.0373532240669
 30
0.0
  0
VERTEX
  5
229
  8
0
 10
1644.217189402412
 20
152.8409504091315
 30
0.0
  0
VERTEX
  5
22A
  8
0
 10
1644.326636772535
 20
153.6507517958941
 30
0.0
  0
VERTEX
  5
22B
  8
0
 10
1644.412283622534
 20
154.4665041849375
 30
0.0
  0
VERTEX
  5
22C
  8
0
 10
1644.473830586933
 20
155.2879543768445
 30
0.0
  0
VERTEX
  5
22D
  8
0
 10
1644.510978300254
 20
156.1148491721979
 30
0.0
  0
VERTEX
  5
22E
  8
0
 10
1644.523427397023
 20
156.9469353715806
 30
0.0
  0
VERTEX
  5
22F
  8
0
 10
1644.510978300254
 20
157.7790215709632
 30
0.0
  0
VERTEX
  5
230
  8
0
 10
1644.473830586933
 20
158.6059163663166
 30
0.0
  0
VERTEX
  5
231
  8
0
 10
1644.412283622534
 20
159.4273665582236
 30
0.0
  0
VERTEX
  5
232
  8
0
 10
1644.326636772535
 20
160.243118947267
 30
0.0
  0
VERTEX
  5
233
  8
0
 10
1644.217189402412
 20
161.0529203340296
 30
0.0
  0
VERTEX
  5
234
  8
0
 10
1644.08424087764
 20
161.8565175190942
 30
0.0
  0
VERTEX
  5
235
  8
0
 10
1643.928090563698
 20
162.6536573030436
 30
0.0
  0
VERTEX
  5
236
  8
0
 10
1643.74903782606
 20
163.4440864864606
 30
0.0
  0
VERTEX
  5
237
  8
0
 10
1643.547382030204
 20
164.227551869928
 30
0.0
  0
VERTEX
  5
238
  8
0
 10
1643.323422541606
 20
165.0038002540286
 30
0.0
  0
VERTEX
  5
239
  8
0
 10
1643.077458725741
 20
165.7725784393452
 30
0.0
  0
VERTEX
  5
23A
  8
0
 10
1642.809789948087
 20
166.5336332264606
 30
0.0
  0
VERTEX
  5
23B
  8
0
 10
1642.520715574119
 20
167.2867114159576
 30
0.0
  0
VERTEX
  5
23C
  8
0
 10
1642.210534969314
 20
168.031559808419
 30
0.0
  0
VERTEX
  5
23D
  8
0
 10
1641.879547499149
 20
168.7679252044277
 30
0.0
  0
VERTEX
  5
23E
  8
0
 10
1641.5280525291
 20
169.4955544045663
 30
0.0
  0
VERTEX
  5
23F
  8
0
 10
1641.156349424642
 20
170.2141942094178
 30
0.0
  0
VERTEX
  5
240
  8
0
 10
1640.764737551253
 20
170.9235914195648
 30
0.0
  0
VERTEX
  5
241
  8
0
 10
1640.353516274409
 20
171.6234928355903
 30
0.0
  0
VERTEX
  5
242
  8
0
 10
1639.922984959586
 20
172.3136452580769
 30
0.0
  0
VERTEX
  5
243
  8
0
 10
1639.47344297226
 20
172.9937954876077
 30
0.0
  0
VERTEX
  5
244
  8
0
 10
1639.005189677908
 20
173.6636903247652
 30
0.0
  0
VERTEX
  5
245
  8
0
 10
1638.518524442007
 20
174.3230765701323
 30
0.0
  0
VERTEX
  5
246
  8
0
 10
1638.013746630032
 20
174.9717010242919
 30
0.0
  0
VERTEX
  5
247
  8
0
 10
1637.491155607459
 20
175.6093104878266
 30
0.0
  0
VERTEX
  5
248
  8
0
 10
1636.951050739766
 20
176.2356517613194
 30
0.0
  0
VERTEX
  5
249
  8
0
 10
1636.393731392428
 20
176.8504716453531
 30
0.0
  0
VERTEX
  5
24A
  8
0
 10
1635.819496930923
 20
177.4535169405103
 30
0.0
  0
VERTEX
  5
24B
  8
0
 10
1635.228646720726
 20
178.044534447374
 30
0.0
  0
VERTEX
  5
24C
  8
0
 10
1634.621480127313
 20
178.6232709665269
 30
0.0
  0
VERTEX
  5
24D
  8
0
 10
1633.998296516162
 20
179.1894732985519
 30
0.0
  0
VERTEX
  5
24E
  8
0
 10
1633.359395252747
 20
179.7428882440316
 30
0.0
  0
VERTEX
  5
24F
  8
0
 10
1632.705075702546
 20
180.283262603549
 30
0.0
  0
VERTEX
  5
250
  8
0
 10
1632.035637231036
 20
180.8103431776869
 30
0.0
  0
VERTEX
  5
251
  8
0
 10
1631.351379203692
 20
181.323876767028
 30
0.0
  0
VERTEX
  5
252
  8
0
 10
1630.65260098599
 20
181.823610172155
 30
0.0
  0
VERTEX
  5
253
  8
0
 10
1629.939601943407
 20
182.309290193651
 30
0.0
  0
VERTEX
  5
254
  8
0
 10
1629.21268144142
 20
182.7806636320986
 30
0.0
  0
VERTEX
  5
255
  8
0
 10
1628.472138845505
 20
183.2374772880806
 30
0.0
  0
VERTEX
  5
256
  8
0
 10
1627.718273521137
 20
183.6794779621799
 30
0.0
  0
VERTEX
  5
257
  8
0
 10
1626.951384833795
 20
184.1064124549792
 30
0.0
  0
VERTEX
  5
258
  8
0
 10
1626.171772148953
 20
184.5180275670614
 30
0.0
  0
VERTEX
  5
259
  8
0
 10
1625.379734832088
 20
184.9140700990092
 30
0.0
  0
VERTEX
  5
25A
  8
0
 10
1624.575572248677
 20
185.2942868514054
 30
0.0
  0
VERTEX
  5
25B
  8
0
 10
1623.759583764195
 20
185.6584246248329
 30
0.0
  0
VERTEX
  5
25C
  8
0
 10
1622.93206874412
 20
186.0062302198745
 30
0.0
  0
VERTEX
  5
25D
  8
0
 10
1622.093326553927
 20
186.3374504371129
 30
0.0
  0
VERTEX
  5
25E
  8
0
 10
1621.243656559094
 20
186.651832077131
 30
0.0
  0
VERTEX
  5
25F
  8
0
 10
1620.383358125095
 20
186.9491219405115
 30
0.0
  0
VERTEX
  5
260
  8
0
 10
1619.512730617408
 20
187.2290668278372
 30
0.0
  0
VERTEX
  5
261
  8
0
 10
1618.632073401509
 20
187.4914135396911
 30
0.0
  0
VERTEX
  5
262
  8
0
 10
1617.741685842875
 20
187.7359088766557
 30
0.0
  0
VERTEX
  5
263
  8
0
 10
1616.841867306981
 20
187.9622996393141
 30
0.0
  0
VERTEX
  5
264
  8
0
 10
1615.932917159304
 20
188.1703326282489
 30
0.0
  0
VERTEX
  5
265
  8
0
 10
1615.01513476532
 20
188.359754644043
 30
0.0
  0
VERTEX
  5
266
  8
0
 10
1614.088819490506
 20
188.5303124872791
 30
0.0
  0
VERTEX
  5
267
  8
0
 10
1613.154270700338
 20
188.6817529585401
 30
0.0
  0
VERTEX
  5
268
  8
0
 10
1612.211787760293
 20
188.8138228584088
 30
0.0
  0
VERTEX
  5
269
  8
0
 10
1611.261670035846
 20
188.9262689874679
 30
0.0
  0
VERTEX
  5
26A
  8
0
 10
1610.304216892475
 20
189.0188381463003
 30
0.0
  0
VERTEX
  5
26B
  8
0
 10
1609.339727695655
 20
189.0912771354888
 30
0.0
  0
VERTEX
  5
26C
  8
0
 10
1608.368501810862
 20
189.1433327556161
 30
0.0
  0
VERTEX
  5
26D
  8
0
 10
1607.390838603574
 20
189.1747518072651
 30
0.0
  0
SEQEND
  5
26E
  8
0
  0
POLYLINE
  5
47
  8
0
 66
     1
 10
0.0
 20
0.0
 30
0.0
 70
     1
  0
VERTEX
  5
26F
  8
0
 10
1606.407037439267
 20
180.4469353715806
 30
0.0
 42
0.4142135623730951
  0
VERTEX
  5
270
  8
0
 10
1582.907037439267
 20
156.9469353715806
 30
0.0
 42
0.4142135623730951
  0
VERTEX
  5
271
  8
0
 10
1606.407037439267
 20
133.4469353715806
 30
0.0
 42
0.4142135623730951
  0
VERTEX
  5
272
  8
0
 10
1629.907037439267
 20
156.9469353715806
 30
0.0
 42
0.4142135623730951
  0
SEQEND
  5
273
  8
0
  0
POLYLINE
  5
48
  8
0
 66
     1
 10
0.0
 20
0.0
 30
0.0
 70
     1
  0
VERTEX
  5
274
  8
0
 10
1557.160295753101
 20
232.8562833314474
 30
0.0
 42
0.4142135623730951
  0
VERTEX
  5
275
  8
0
 10
1554.160295753101
 20
229.8562833314474
 30
0.0
 42
0.4142135623730951
  0
VERTEX
  5
276
  8
0
 10
1557.160295753101
 20
226.8562833314474
 30
0.0
 42
0.4142135623730951
  0
VERTEX
  5
277
  8
0
 10
1560.160295753101
 20
229.8562833314474
 30
0.0
 42
0.4142135623730951
  0
SEQEND
  5
278
  8
0
  0
POLYLINE
  5
49
  8
0
 66
     1
 10
0.0
 20
0.0
 30
0.0
 70
     1
  0
VERTEX
  5
279
  8
0
 10
1655.785434766713
 20
232.8562833314474
 30
0.0
 42
0.4142135623730951
  0
VERTEX
  5
27A
  8
0
 10
1652.785434766713
 20
229.8562833314474
 30
0.0
 42
0.4142135623730951
  0
VERTEX
  5
27B
  8
0
 10
1655.785434766713
 20
226.8562833314474
 30
0.0
 42
0.4142135623730951
  0
VERTEX
  5
27C
  8
0
 10
1658.785434766713
 20
229.8562833314474
 30
0.0
 42
0.4142135623730951
  0
SEQEND
  5
27D
  8
0
  0
POLYLINE
  5
4A
  8
0
 66
     1
 10
0.0
 20
0.0
 30
0.0
 70
     1
  0
VERTEX
  5
27E
  8
0
 10
1594.705314675007
 20
210.6403557362785
 30
0.0
  0
VERTEX
  5
27F
  8
0
 10
1593.968168854304
 20
210.9622832953758
 30
0.0
  0
VERTEX
  5
280
  8
0
 10
1593.244965894491
 20
211.3030933696014
 30
0.0
  0
VERTEX
  5
281
  8
0
 10
1592.536195051624
 20
211.6624079852373
 30
0.0
  0
VERTEX
  5
282
  8
0
 10
1591.842345581762
 20
212.039849168566
 30
0.0
  0
VERTEX
  5
283
  8
0
 10
1591.163906740964
 20
212.4350389458695
 30
0.0
  0
VERTEX
  5
284
  8
0
 10
1590.501367785287
 20
212.8475993434303
 30
0.0
  0
VERTEX
  5
285
  8
0
 10
1589.855217970789
 20
213.2771523875305
 30
0.0
  0
VERTEX
  5
286
  8
0
 10
1589.225946553529
 20
213.7233201044524
 30
0.0
  0
VERTEX
  5
287
  8
0
 10
1588.614042789563
 20
214.1857245204782
 30
0.0
  0
VERTEX
  5
288
  8
0
 10
1588.01999593495
 20
214.6639876618902
 30
0.0
  0
VERTEX
  5
289
  8
0
 10
1587.444295245749
 20
215.1577315549707
 30
0.0
  0
VERTEX
  5
28A
  8
0
 10
1586.887429978017
 20
215.6665782260019
 30
0.0
  0
VERTEX
  5
28B
  8
0
 10
1586.349889387812
 20
216.190149701266
 30
0.0
  0
VERTEX
  5
28C
  8
0
 10
1585.832162731192
 20
216.7280680070454
 30
0.0
  0
VERTEX
  5
28D
  8
0
 10
1585.334739264215
 20
217.2799551696222
 30
0.0
  0
VERTEX
  5
28E
  8
0
 10
1584.858108242939
 20
217.8454332152788
 30
0.0
  0
VERTEX
  5
28F
  8
0
 10
1584.402758923422
 20
218.4241241702974
 30
0.0
  0
VERTEX
  5
290
  8
0
 10
1583.969180561722
 20
219.0156500609602
 30
0.0
  0
VERTEX
  5
291
  8
0
 10
1583.557862413898
 20
219.6196329135494
 30
0.0
  0
VERTEX
  5
292
  8
0
 10
1583.169293736006
 20
220.2356947543474
 30
0.0
  0
VERTEX
  5
293
  8
0
 10
1582.803963784105
 20
220.8634576096364
 30
0.0
  0
VERTEX
  5
294
  8
0
 10
1582.462361814253
 20
221.5025435056987
 30
0.0
  0
VERTEX
  5
295
  8
0
 10
1582.144977082507
 20
222.1525744688165
 30
0.0
  0
VERTEX
  5
296
  8
0
 10
1581.852298844927
 20
222.813172525272
 30
0.0
  0
VERTEX
  5
297
  8
0
 10
1581.58481635757
 20
223.4839597013475
 30
0.0
  0
VERTEX
  5
298
  8
0
 10
1581.343018876494
 20
224.1645580233253
 30
0.0
  0
VERTEX
  5
299
  8
0
 10
1581.127395657756
 20
224.8545895174876
 30
0.0
  0
VERTEX
  5
29A
  8
0
 10
1580.938435957416
 20
225.5536762101167
 30
0.0
  0
VERTEX
  5
29B
  8
0
 10
1580.77662903153
 20
226.2614401274948
 30
0.0
  0
VERTEX
  5
29C
  8
0
 10
1580.642464136157
 20
226.9775032959042
 30
0.0
  0
VERTEX
  5
29D
  8
0
 10
1580.536430527354
 20
227.7014877416271
 30
0.0
  0
VERTEX
  5
29E
  8
0
 10
1580.459017461187
 20
228.4330154909458
 30
0.0
  0
VERTEX
  5
29F
  8
0
 10
1580.459025263886
 20
231.2796191459098
 30
0.0
  0
VERTEX
  5
2A0
  8
0
 10
1580.459017461181
 20
231.2795511719492
 30
0.0
  0
VERTEX
  5
2A1
  8
0
 10
1580.536421331401
 20
232.0110058308003
 30
0.0
  0
VERTEX
  5
2A2
  8
0
 10
1580.642440150248
 20
232.7349184296436
 30
0.0
  0
VERTEX
  5
2A3
  8
0
 10
1580.776584909899
 20
233.4509108002927
 30
0.0
  0
VERTEX
  5
2A4
  8
0
 10
1580.93836660253
 20
234.1586047745608
 30
0.0
  0
VERTEX
  5
2A5
  8
0
 10
1581.127296220319
 20
234.8576221842615
 30
0.0
  0
VERTEX
  5
2A6
  8
0
 10
1581.342884755441
 20
235.5475848612081
 30
0.0
  0
VERTEX
  5
2A7
  8
0
 10
1581.584643200074
 20
236.228114637214
 30
0.0
  0
VERTEX
  5
2A8
  8
0
 10
1581.852082546393
 20
236.8988333440925
 30
0.0
  0
VERTEX
  5
2A9
  8
0
 10
1582.144713786577
 20
237.5593628136571
 30
0.0
  0
VERTEX
  5
2AA
  8
0
 10
1582.4620479128
 20
238.2093248777212
 30
0.0
  0
VERTEX
  5
2AB
  8
0
 10
1582.80359591724
 20
238.8483413680981
 30
0.0
  0
VERTEX
  5
2AC
  8
0
 10
1583.168868792074
 20
239.4760341166013
 30
0.0
  0
VERTEX
  5
2AD
  8
0
 10
1583.557377529478
 20
240.0920249550441
 30
0.0
  0
VERTEX
  5
2AE
  8
0
 10
1583.968633121629
 20
240.69593571524
 30
0.0
  0
VERTEX
  5
2AF
  8
0
 10
1584.402146560703
 20
241.2873882290023
 30
0.0
  0
VERTEX
  5
2B0
  8
0
 10
1584.857428838877
 20
241.8660043281444
 30
0.0
  0
VERTEX
  5
2B1
  8
0
 10
1585.333990948328
 20
242.4314058444797
 30
0.0
  0
VERTEX
  5
2B2
  8
0
 10
1585.831343881232
 20
242.9832146098217
 30
0.0
  0
VERTEX
  5
2B3
  8
0
 10
1586.348998629766
 20
243.5210524559836
 30
0.0
  0
VERTEX
  5
2B4
  8
0
 10
1586.886466186106
 20
244.0445412147789
 30
0.0
  0
VERTEX
  5
2B5
  8
0
 10
1587.44325754243
 20
244.5533027180211
 30
0.0
  0
VERTEX
  5
2B6
  8
0
 10
1588.018883690913
 20
245.0469587975234
 30
0.0
  0
VERTEX
  5
2B7
  8
0
 10
1588.612855623732
 20
245.5251312850992
 30
0.0
  0
VERTEX
  5
2B8
  8
0
 10
1589.224684333065
 20
245.9874420125621
 30
0.0
  0
VERTEX
  5
2B9
  8
0
 10
1589.853880811087
 20
246.4335128117253
 30
0.0
  0
VERTEX
  5
2BA
  8
0
 10
1590.499956049976
 20
246.8629655144023
 30
0.0
  0
VERTEX
  5
2BB
  8
0
 10
1591.162421041907
 20
247.2754219524064
 30
0.0
  0
VERTEX
  5
2BC
  8
0
 10
1591.840786779057
 20
247.670503957551
 30
0.0
  0
VERTEX
  5
2BD
  8
0
 10
1592.534564253604
 20
248.0478333616496
 30
0.0
  0
VERTEX
  5
2BE
  8
0
 10
1593.243264457724
 20
248.4070319965155
 30
0.0
  0
VERTEX
  5
2BF
  8
0
 10
1593.966398383593
 20
248.7477216939621
 30
0.0
  0
VERTEX
  5
2C0
  8
0
 10
1594.703477023387
 20
249.0695242858028
 30
0.0
  0
VERTEX
  5
2C1
  8
0
 10
1595.355954403922
 20
249.4528835573142
 30
0.0
  0
VERTEX
  5
2C2
  8
0
 10
1596.02150228244
 20
249.8143406192793
 30
0.0
  0
VERTEX
  5
2C3
  8
0
 10
1596.6995768421
 20
250.1535048928536
 30
0.0
  0
VERTEX
  5
2C4
  8
0
 10
1597.389634266061
 20
250.4699857991924
 30
0.0
  0
VERTEX
  5
2C5
  8
0
 10
1598.091130737484
 20
250.7633927594511
 30
0.0
  0
VERTEX
  5
2C6
  8
0
 10
1598.803522439528
 20
251.033335194785
 30
0.0
  0
VERTEX
  5
2C7
  8
0
 10
1599.526265555352
 20
251.2794225263496
 30
0.0
  0
VERTEX
  5
2C8
  8
0
 10
1600.258816268118
 20
251.5012641753002
 30
0.0
  0
VERTEX
  5
2C9
  8
0
 10
1601.000630760983
 20
251.6984695627922
 30
0.0
  0
VERTEX
  5
2CA
  8
0
 10
1601.751165217109
 20
251.870648109981
 30
0.0
  0
VERTEX
  5
2CB
  8
0
 10
1602.509875819655
 20
252.017409238022
 30
0.0
  0
VERTEX
  5
2CC
  8
0
 10
1603.276218751779
 20
252.1383623680705
 30
0.0
  0
VERTEX
  5
2CD
  8
0
 10
1604.049650196643
 20
252.2331169212819
 30
0.0
  0
VERTEX
  5
2CE
  8
0
 10
1604.829626337406
 20
252.3012823188116
 30
0.0
  0
VERTEX
  5
2CF
  8
0
 10
1605.615603357227
 20
252.342467981815
 30
0.0
  0
VERTEX
  5
2D0
  8
0
 10
1606.407037439267
 20
252.3562833314474
 30
0.0
  0
VERTEX
  5
2D1
  8
0
 10
1607.182849001355
 20
252.3429744838892
 30
0.0
  0
VERTEX
  5
2D2
  8
0
 10
1607.953903943465
 20
252.3032775210028
 30
0.0
  0
VERTEX
  5
2D3
  8
0
 10
1608.719660263353
 20
252.237536812472
 30
0.0
  0
VERTEX
  5
2D4
  8
0
 10
1609.479575958776
 20
252.1460967279804
 30
0.0
  0
VERTEX
  5
2D5
  8
0
 10
1610.233109027488
 20
252.0293016372117
 30
0.0
  0
VERTEX
  5
2D6
  8
0
 10
1610.979717467248
 20
251.8874959098494
 30
0.0
  0
VERTEX
  5
2D7
  8
0
 10
1611.718859275811
 20
251.7210239155773
 30
0.0
  0
VERTEX
  5
2D8
  8
0
 10
1612.449992450932
 20
251.530230024079
 30
0.0
  0
VERTEX
  5
2D9
  8
0
 10
1613.172574990369
 20
251.3154586050381
 30
0.0
  0
VERTEX
  5
2DA
  8
0
 10
1613.886064891878
 20
251.0770540281383
 30
0.0
  0
VERTEX
  5
2DB
  8
0
 10
1614.589920153215
 20
250.8153606630633
 30
0.0
  0
VERTEX
  5
2DC
  8
0
 10
1615.283598772135
 20
250.5307228794967
 30
0.0
  0
VERTEX
  5
2DD
  8
0
 10
1615.966558746396
 20
250.2234850471221
 30
0.0
  0
VERTEX
  5
2DE
  8
0
 10
1616.638258073753
 20
249.8939915356232
 30
0.0
  0
VERTEX
  5
2DF
  8
0
 10
1617.298154751963
 20
249.5425867146837
 30
0.0
  0
VERTEX
  5
2E0
  8
0
 10
1617.945706778782
 20
249.1696149539871
 30
0.0
  0
VERTEX
  5
2E1
  8
0
 10
1618.704565311962
 20
248.8513221717009
 30
0.0
  0
VERTEX
  5
2E2
  8
0
 10
1619.449402901958
 20
248.5136609412274
 30
0.0
  0
VERTEX
  5
2E3
  8
0
 10
1620.179625379742
 20
248.1570147547571
 30
0.0
  0
VERTEX
  5
2E4
  8
0
 10
1620.894638576284
 20
247.7817671044804
 30
0.0
  0
VERTEX
  5
2E5
  8
0
 10
1621.593848322555
 20
247.3883014825878
 30
0.0
  0
VERTEX
  5
2E6
  8
0
 10
1622.276660449528
 20
246.9770013812699
 30
0.0
  0
VERTEX
  5
2E7
  8
0
 10
1622.942480788172
 20
246.5482502927172
 30
0.0
  0
VERTEX
  5
2E8
  8
0
 10
1623.590715169458
 20
246.1024317091201
 30
0.0
  0
VERTEX
  5
2E9
  8
0
 10
1624.220769424359
 20
245.6399291226692
 30
0.0
  0
VERTEX
  5
2EA
  8
0
 10
1624.832049383845
 20
245.1611260255549
 30
0.0
  0
VERTEX
  5
2EB
  8
0
 10
1625.423960878886
 20
244.6664059099679
 30
0.0
  0
VERTEX
  5
2EC
  8
0
 10
1625.995909740455
 20
244.1561522680985
 30
0.0
  0
VERTEX
  5
2ED
  8
0
 10
1626.547301799522
 20
243.6307485921373
 30
0.0
  0
VERTEX
  5
2EE
  8
0
 10
1627.077542887058
 20
243.0905783742748
 30
0.0
  0
VERTEX
  5
2EF
  8
0
 10
1627.586038834035
 20
242.5360251067015
 30
0.0
  0
VERTEX
  5
2F0
  8
0
 10
1628.072195471423
 20
241.9674722816078
 30
0.0
  0
VERTEX
  5
2F1
  8
0
 10
1628.535418630194
 20
241.3853033911844
 30
0.0
  0
VERTEX
  5
2F2
  8
0
 10
1628.975114141318
 20
240.7899019276217
 30
0.0
  0
VERTEX
  5
2F3
  8
0
 10
1629.390687835767
 20
240.1816513831101
 30
0.0
  0
VERTEX
  5
2F4
  8
0
 10
1629.781545544512
 20
239.5609352498403
 30
0.0
  0
VERTEX
  5
2F5
  8
0
 10
1630.147093098524
 20
238.9281370200027
 30
0.0
  0
VERTEX
  5
2F6
  8
0
 10
1630.486736328774
 20
238.2836401857878
 30
0.0
  0
VERTEX
  5
2F7
  8
0
 10
1630.799881066233
 20
237.6278282393861
 30
0.0
  0
VERTEX
  5
2F8
  8
0
 10
1631.085933141872
 20
236.9610846729881
 30
0.0
  0
VERTEX
  5
2F9
  8
0
 10
1631.344298386663
 20
236.2837929787844
 30
0.0
  0
VERTEX
  5
2FA
  8
0
 10
1631.462912769668
 20
235.9413114250649
 30
0.0
  0
VERTEX
  5
2FB
  8
0
 10
1631.574382631575
 20
235.5963366489653
 30
0.0
  0
VERTEX
  5
2FC
  8
0
 10
1631.678633701256
 20
235.2489165870097
 30
0.0
  0
VERTEX
  5
2FD
  8
0
 10
1631.775591707581
 20
234.8990991757215
 30
0.0
  0
VERTEX
  5
2FE
  8
0
 10
1631.865182379423
 20
234.5469323516249
 30
0.0
  0
VERTEX
  5
2FF
  8
0
 10
1631.947331445652
 20
234.1924640512435
 30
0.0
  0
VERTEX
  5
300
  8
0
 10
1632.02196463514
 20
233.8357422111011
 30
0.0
  0
VERTEX
  5
301
  8
0
 10
1632.089007676758
 20
233.4768147677216
 30
0.0
  0
VERTEX
  5
302
  8
0
 10
1632.148386299378
 20
233.1157296576288
 30
0.0
  0
VERTEX
  5
303
  8
0
 10
1632.200026231871
 20
232.7525348173465
 30
0.0
  0
VERTEX
  5
304
  8
0
 10
1632.243853203109
 20
232.3872781833985
 30
0.0
  0
VERTEX
  5
305
  8
0
 10
1632.279792941962
 20
232.0200076923087
 30
0.0
  0
VERTEX
  5
306
  8
0
 10
1632.307771177303
 20
231.6507712806008
 30
0.0
  0
VERTEX
  5
307
  8
0
 10
1632.327713638001
 20
231.2796168847986
 30
0.0
  0
VERTEX
  5
308
  8
0
 10
1632.348221472515
 20
230.5948565885162
 30
0.0
  0
VERTEX
  5
309
  8
0
 10
1632.355057417352
 20
229.8562833313227
 30
0.0
  0
VERTEX
  5
30A
  8
0
 10
1632.348221472515
 20
229.1177100741293
 30
0.0
  0
VERTEX
  5
30B
  8
0
 10
1632.327713638001
 20
228.4329497778468
 30
0.0
  0
VERTEX
  5
30C
  8
0
 10
1632.307773169186
 20
228.0618261219389
 30
0.0
  0
VERTEX
  5
30D
  8
0
 10
1632.27979825985
 20
227.6926200899768
 30
0.0
  0
VERTEX
  5
30E
  8
0
 10
1632.243863168188
 20
227.3253795689459
 30
0.0
  0
VERTEX
  5
30F
  8
0
 10
1632.200042152391
 20
226.9601524458316
 30
0.0
  0
VERTEX
  5
310
  8
0
 10
1632.148409470655
 20
226.5969866076191
 30
0.0
  0
VERTEX
  5
311
  8
0
 10
1632.089039381172
 20
226.2359299412936
 30
0.0
  0
VERTEX
  5
312
  8
0
 10
1632.022006142136
 20
225.8770303338404
 30
0.0
  0
VERTEX
  5
313
  8
0
 10
1631.947384011741
 20
225.5203356722449
 30
0.0
  0
VERTEX
  5
314
  8
0
 10
1631.865247248181
 20
225.1658938434923
 30
0.0
  0
VERTEX
  5
315
  8
0
 10
1631.775670109648
 20
224.8137527345679
 30
0.0
  0
VERTEX
  5
316
  8
0
 10
1631.678726854336
 20
224.4639602324569
 30
0.0
  0
VERTEX
  5
317
  8
0
 10
1631.57449174044
 20
224.1165642241448
 30
0.0
  0
VERTEX
  5
318
  8
0
 10
1631.463039026153
 20
223.7716125966167
 30
0.0
  0
VERTEX
  5
319
  8
0
 10
1631.344442969668
 20
223.4291532368579
 30
0.0
  0
VERTEX
  5
31A
  8
0
 10
1631.086117862878
 20
222.7519028685894
 30
0.0
  0
VERTEX
  5
31B
  8
0
 10
1630.800110485621
 20
222.0851962152217
 30
0.0
  0
VERTEX
  5
31C
  8
0
 10
1630.487014903444
 20
221.429416372637
 30
0.0
  0
VERTEX
  5
31D
  8
0
 10
1630.147425181896
 20
220.7849464367176
 30
0.0
  0
VERTEX
  5
31E
  8
0
 10
1629.781935386526
 20
220.1521695033458
 30
0.0
  0
VERTEX
  5
31F
  8
0
 10
1629.391139582883
 20
219.5314686684037
 30
0.0
  0
VERTEX
  5
320
  8
0
 10
1628.975631836515
 20
218.9232270277738
 30
0.0
  0
VERTEX
  5
321
  8
0
 10
1628.53600621297
 20
218.3278276773382
 30
0.0
  0
VERTEX
  5
322
  8
0
 10
1628.072856777799
 20
217.7456537129792
 30
0.0
  0
VERTEX
  5
323
  8
0
 10
1627.586777596548
 20
217.1770882305792
 30
0.0
  0
VERTEX
  5
324
  8
0
 10
1627.078362734768
 20
216.6225143260203
 30
0.0
  0
VERTEX
  5
325
  8
0
 10
1626.548206258006
 20
216.0823150951849
 30
0.0
  0
VERTEX
  5
326
  8
0
 10
1625.996902231811
 20
215.5568736339551
 30
0.0
  0
VERTEX
  5
327
  8
0
 10
1625.425044721732
 20
215.0465730382134
 30
0.0
  0
VERTEX
  5
328
  8
0
 10
1624.833227793317
 20
214.551796403842
 30
0.0
  0
VERTEX
  5
329
  8
0
 10
1624.222045512116
 20
214.072926826723
 30
0.0
  0
VERTEX
  5
32A
  8
0
 10
1623.592091943676
 20
213.6103474027389
 30
0.0
  0
VERTEX
  5
32B
  8
0
 10
1622.943961153547
 20
213.1644412277718
 30
0.0
  0
VERTEX
  5
32C
  8
0
 10
1622.278247207277
 20
212.7355913977041
 30
0.0
  0
VERTEX
  5
32D
  8
0
 10
1621.595544170415
 20
212.324181008418
 30
0.0
  0
VERTEX
  5
32E
  8
0
 10
1620.896446108508
 20
211.9305931557957
 30
0.0
  0
VERTEX
  5
32F
  8
0
 10
1620.181547087107
 20
211.5552109357196
 30
0.0
  0
VERTEX
  5
330
  8
0
 10
1619.45144117176
 20
211.1984174440719
 30
0.0
  0
VERTEX
  5
331
  8
0
 10
1618.706722428015
 20
210.860595776735
 30
0.0
  0
VERTEX
  5
332
  8
0
 10
1617.947984921422
 20
210.542129029591
 30
0.0
  0
VERTEX
  5
333
  8
0
 10
1617.308841050835
 20
210.1727469614547
 30
0.0
  0
VERTEX
  5
334
  8
0
 10
1616.656665626873
 20
209.8240257430857
 30
0.0
  0
VERTEX
  5
335
  8
0
 10
1615.991903543915
 20
209.4964028127338
 30
0.0
  0
VERTEX
  5
336
  8
0
 10
1615.31499969634
 20
209.190315608649
 30
0.0
  0
VERTEX
  5
337
  8
0
 10
1614.626398978528
 20
208.9062015690812
 30
0.0
  0
VERTEX
  5
338
  8
0
 10
1613.926546284856
 20
208.6444981322804
 30
0.0
  0
VERTEX
  5
339
  8
0
 10
1613.215886509705
 20
208.4056427364965
 30
0.0
  0
VERTEX
  5
33A
  8
0
 10
1612.494864547452
 20
208.1900728199796
 30
0.0
  0
VERTEX
  5
33B
  8
0
 10
1611.763925292477
 20
207.9982258209795
 30
0.0
  0
VERTEX
  5
33C
  8
0
 10
1611.023513639159
 20
207.8305391777463
 30
0.0
  0
VERTEX
  5
33D
  8
0
 10
1610.274074481877
 20
207.6874503285298
 30
0.0
  0
VERTEX
  5
33E
  8
0
 10
1609.51605271501
 20
207.56939671158
 30
0.0
  0
VERTEX
  5
33F
  8
0
 10
1608.749893232936
 20
207.476815765147
 30
0.0
  0
VERTEX
  5
340
  8
0
 10
1607.976040930035
 20
207.4101449274805
 30
0.0
  0
VERTEX
  5
341
  8
0
 10
1607.194940700686
 20
207.3698216368307
 30
0.0
  0
VERTEX
  5
342
  8
0
 10
1606.407037439267
 20
207.3562833314474
 30
0.0
  0
VERTEX
  5
343
  8
0
 10
1605.606614545102
 20
207.3702561420741
 30
0.0
  0
VERTEX
  5
344
  8
0
 10
1604.813221281711
 20
207.4118693998753
 30
0.0
  0
VERTEX
  5
345
  8
0
 10
1604.027324591682
 20
207.4806653437329
 30
0.0
  0
VERTEX
  5
346
  8
0
 10
1603.249391417603
 20
207.5761862125288
 30
0.0
  0
VERTEX
  5
347
  8
0
 10
1602.479888702064
 20
207.697974245145
 30
0.0
  0
VERTEX
  5
348
  8
0
 10
1601.719283387652
 20
207.8455716804633
 30
0.0
  0
VERTEX
  5
349
  8
0
 10
1600.968042416956
 20
208.0185207573655
 30
0.0
  0
VERTEX
  5
34A
  8
0
 10
1600.226632732564
 20
208.2163637147337
 30
0.0
  0
VERTEX
  5
34B
  8
0
 10
1599.495521277065
 20
208.4386427914496
 30
0.0
  0
VERTEX
  5
34C
  8
0
 10
1598.775174993048
 20
208.6849002263953
 30
0.0
  0
VERTEX
  5
34D
  8
0
 10
1598.0660608231
 20
208.9546782584525
 30
0.0
  0
VERTEX
  5
34E
  8
0
 10
1597.368645709811
 20
209.2475191265032
 30
0.0
  0
VERTEX
  5
34F
  8
0
 10
1596.683396595768
 20
209.5629650694293
 30
0.0
  0
VERTEX
  5
350
  8
0
 10
1596.010780423562
 20
209.9005583261126
 30
0.0
  0
VERTEX
  5
351
  8
0
 10
1595.351264135778
 20
210.259841135435
 30
0.0
  0
SEQEND
  5
352
  8
0
  0
POLYLINE
  5
4B
  8
0
 66
     1
 10
0.0
 20
0.0
 30
0.0
  0
VERTEX
  5
353
  8
0
 10
1570.162933873582
 20
219.8562833314474
 30
0.0
  0
VERTEX
  5
354
  8
0
 10
1546.407037439266
 20
219.8562833314474
 30
0.0
  0
VERTEX
  5
355
  8
0
 10
1546.407037439266
 20
239.8562833314474
 30
0.0
  0
VERTEX
  5
356
  8
0
 10
1570.162933873604
 20
239.8562833314474
 30
0.0
  0
SEQEND
  5
357
  8
0
  0
POLYLINE
  5
4C
  8
0
 66
     1
 10
0.0
 20
0.0
 30
0.0
  0
VERTEX
  5
358
  8
0
 10
1642.651141004946
 20
219.8562833314253
 30
0.0
  0
VERTEX
  5
359
  8
0
 10
1642.520715574119
 20
219.5165072870704
 30
0.0
  0
VERTEX
  5
35A
  8
0
 10
1642.210534969314
 20
218.7716588946089
 30
0.0
  0
VERTEX
  5
35B
  8
0
 10
1641.879547499149
 20
218.0352934986003
 30
0.0
  0
VERTEX
  5
35C
  8
0
 10
1641.5280525291
 20
217.3076642984617
 30
0.0
  0
VERTEX
  5
35D
  8
0
 10
1641.156349424642
 20
216.5890244936102
 30
0.0
  0
VERTEX
  5
35E
  8
0
 10
1640.764737551253
 20
215.8796272834632
 30
0.0
  0
VERTEX
  5
35F
  8
0
 10
1640.353516274409
 20
215.1797258674377
 30
0.0
  0
VERTEX
  5
360
  8
0
 10
1639.922984959586
 20
214.489573444951
 30
0.0
  0
VERTEX
  5
361
  8
0
 10
1639.47344297226
 20
213.8094232154203
 30
0.0
  0
VERTEX
  5
362
  8
0
 10
1639.005189677909
 20
213.1395283782628
 30
0.0
  0
VERTEX
  5
363
  8
0
 10
1638.518524442007
 20
212.4801421328957
 30
0.0
  0
VERTEX
  5
364
  8
0
 10
1638.013746630032
 20
211.8315176787361
 30
0.0
  0
VERTEX
  5
365
  8
0
 10
1637.49115560746
 20
211.1939082152014
 30
0.0
  0
VERTEX
  5
366
  8
0
 10
1636.951050739767
 20
210.5675669417085
 30
0.0
  0
VERTEX
  5
367
  8
0
 10
1636.393731392429
 20
209.9527470576749
 30
0.0
  0
VERTEX
  5
368
  8
0
 10
1635.819496930924
 20
209.3497017625177
 30
0.0
  0
VERTEX
  5
369
  8
0
 10
1635.228646720726
 20
208.758684255654
 30
0.0
  0
VERTEX
  5
36A
  8
0
 10
1634.621480127314
 20
208.179947736501
 30
0.0
  0
VERTEX
  5
36B
  8
0
 10
1633.998296516162
 20
207.6137454044761
 30
0.0
  0
VERTEX
  5
36C
  8
0
 10
1633.359395252748
 20
207.0603304589964
 30
0.0
  0
VERTEX
  5
36D
  8
0
 10
1632.705075702547
 20
206.5199560994789
 30
0.0
  0
VERTEX
  5
36E
  8
0
 10
1632.035637231036
 20
205.9928755253411
 30
0.0
  0
VERTEX
  5
36F
  8
0
 10
1631.351379203692
 20
205.479341936
 30
0.0
  0
VERTEX
  5
370
  8
0
 10
1630.65260098599
 20
204.979608530873
 30
0.0
  0
VERTEX
  5
371
  8
0
 10
1629.939601943408
 20
204.493928509377
 30
0.0
  0
VERTEX
  5
372
  8
0
 10
1629.212681441421
 20
204.0225550709294
 30
0.0
  0
VERTEX
  5
373
  8
0
 10
1628.472138845505
 20
203.5657414149474
 30
0.0
  0
VERTEX
  5
374
  8
0
 10
1627.718273521138
 20
203.1237407408481
 30
0.0
  0
VERTEX
  5
375
  8
0
 10
1626.951384833795
 20
202.6968062480488
 30
0.0
  0
VERTEX
  5
376
  8
0
 10
1626.171772148953
 20
202.2851911359666
 30
0.0
  0
VERTEX
  5
377
  8
0
 10
1625.379734832088
 20
201.8891486040188
 30
0.0
  0
VERTEX
  5
378
  8
0
 10
1624.575572248677
 20
201.5089318516225
 30
0.0
  0
VERTEX
  5
379
  8
0
 10
1623.759583764196
 20
201.144794078195
 30
0.0
  0
VERTEX
  5
37A
  8
0
 10
1622.93206874412
 20
200.7969884831535
 30
0.0
  0
VERTEX
  5
37B
  8
0
 10
1622.093326553928
 20
200.4657682659151
 30
0.0
  0
VERTEX
  5
37C
  8
0
 10
1621.243656559094
 20
200.151386625897
 30
0.0
  0
VERTEX
  5
37D
  8
0
 10
1620.383358125095
 20
199.8540967625165
 30
0.0
  0
VERTEX
  5
37E
  8
0
 10
1619.512730617409
 20
199.5741518751908
 30
0.0
  0
VERTEX
  5
37F
  8
0
 10
1618.63207340151
 20
199.3118051633369
 30
0.0
  0
VERTEX
  5
380
  8
0
 10
1617.741685842875
 20
199.0673098263723
 30
0.0
  0
VERTEX
  5
381
  8
0
 10
1616.841867306981
 20
198.8409190637139
 30
0.0
  0
VERTEX
  5
382
  8
0
 10
1615.932917159304
 20
198.6328860747791
 30
0.0
  0
VERTEX
  5
383
  8
0
 10
1615.015134765321
 20
198.443464058985
 30
0.0
  0
VERTEX
  5
384
  8
0
 10
1614.088819490507
 20
198.2729062157489
 30
0.0
  0
VERTEX
  5
385
  8
0
 10
1613.154270700339
 20
198.1214657444879
 30
0.0
  0
VERTEX
  5
386
  8
0
 10
1612.211787760293
 20
197.9893958446192
 30
0.0
  0
VERTEX
  5
387
  8
0
 10
1611.261670035847
 20
197.8769497155601
 30
0.0
  0
VERTEX
  5
388
  8
0
 10
1610.304216892475
 20
197.7843805567277
 30
0.0
  0
VERTEX
  5
389
  8
0
 10
1609.339727695655
 20
197.7119415675392
 30
0.0
  0
VERTEX
  5
38A
  8
0
 10
1608.368501810863
 20
197.6598859474119
 30
0.0
  0
VERTEX
  5
38B
  8
0
 10
1607.390838603575
 20
197.6284668957628
 30
0.0
  0
VERTEX
  5
38C
  8
0
 10
1606.407037439267
 20
197.6179376120093
 30
0.0
  0
VERTEX
  5
38D
  8
0
 10
1605.423236274959
 20
197.6284668957628
 30
0.0
  0
VERTEX
  5
38E
  8
0
 10
1604.445573067671
 20
197.6598859474119
 30
0.0
  0
VERTEX
  5
38F
  8
0
 10
1603.474347182879
 20
197.7119415675392
 30
0.0
  0
VERTEX
  5
390
  8
0
 10
1602.509857986058
 20
197.7843805567277
 30
0.0
  0
VERTEX
  5
391
  8
0
 10
1601.552404842687
 20
197.8769497155601
 30
0.0
  0
VERTEX
  5
392
  8
0
 10
1600.60228711824
 20
197.9893958446192
 30
0.0
  0
VERTEX
  5
393
  8
0
 10
1599.659804178195
 20
198.1214657444879
 30
0.0
  0
VERTEX
  5
394
  8
0
 10
1598.725255388027
 20
198.2729062157489
 30
0.0
  0
VERTEX
  5
395
  8
0
 10
1597.798940113213
 20
198.443464058985
 30
0.0
  0
VERTEX
  5
396
  8
0
 10
1596.881157719229
 20
198.6328860747791
 30
0.0
  0
VERTEX
  5
397
  8
0
 10
1595.972207571552
 20
198.8409190637139
 30
0.0
  0
VERTEX
  5
398
  8
0
 10
1595.072389035658
 20
199.0673098263723
 30
0.0
  0
VERTEX
  5
399
  8
0
 10
1594.182001477024
 20
199.3118051633369
 30
0.0
  0
VERTEX
  5
39A
  8
0
 10
1593.301344261125
 20
199.5741518751908
 30
0.0
  0
VERTEX
  5
39B
  8
0
 10
1592.430716753438
 20
199.8540967625165
 30
0.0
  0
VERTEX
  5
39C
  8
0
 10
1591.57041831944
 20
200.151386625897
 30
0.0
  0
VERTEX
  5
39D
  8
0
 10
1590.720748324606
 20
200.4657682659151
 30
0.0
  0
VERTEX
  5
39E
  8
0
 10
1589.882006134413
 20
200.7969884831535
 30
0.0
  0
VERTEX
  5
39F
  8
0
 10
1589.054491114338
 20
201.144794078195
 30
0.0
  0
VERTEX
  5
3A0
  8
0
 10
1588.238502629857
 20
201.5089318516225
 30
0.0
  0
VERTEX
  5
3A1
  8
0
 10
1587.434340046445
 20
201.8891486040188
 30
0.0
  0
VERTEX
  5
3A2
  8
0
 10
1586.64230272958
 20
202.2851911359666
 30
0.0
  0
VERTEX
  5
3A3
  8
0
 10
1585.862690044738
 20
202.6968062480488
 30
0.0
  0
VERTEX
  5
3A4
  8
0
 10
1585.095801357396
 20
203.1237407408481
 30
0.0
  0
VERTEX
  5
3A5
  8
0
 10
1584.341936033029
 20
203.5657414149474
 30
0.0
  0
VERTEX
  5
3A6
  8
0
 10
1583.601393437113
 20
204.0225550709294
 30
0.0
  0
VERTEX
  5
3A7
  8
0
 10
1582.874472935126
 20
204.493928509377
 30
0.0
  0
VERTEX
  5
3A8
  8
0
 10
1582.161473892543
 20
204.979608530873
 30
0.0
  0
VERTEX
  5
3A9
  8
0
 10
1581.462695674842
 20
205.479341936
 30
0.0
  0
VERTEX
  5
3AA
  8
0
 10
1580.778437647497
 20
205.9928755253411
 30
0.0
  0
VERTEX
  5
3AB
  8
0
 10
1580.108999175987
 20
206.5199560994789
 30
0.0
  0
VERTEX
  5
3AC
  8
0
 10
1579.454679625786
 20
207.0603304589964
 30
0.0
  0
VERTEX
  5
3AD
  8
0
 10
1578.815778362371
 20
207.6137454044761
 30
0.0
  0
VERTEX
  5
3AE
  8
0
 10
1578.19259475122
 20
208.179947736501
 30
0.0
  0
VERTEX
  5
3AF
  8
0
 10
1577.585428157807
 20
208.758684255654
 30
0.0
  0
VERTEX
  5
3B0
  8
0
 10
1576.99457794761
 20
209.3497017625177
 30
0.0
  0
VERTEX
  5
3B1
  8
0
 10
1576.420343486105
 20
209.9527470576749
 30
0.0
  0
VERTEX
  5
3B2
  8
0
 10
1575.863024138767
 20
210.5675669417085
 30
0.0
  0
VERTEX
  5
3B3
  8
0
 10
1575.322919271074
 20
211.1939082152014
 30
0.0
  0
VERTEX
  5
3B4
  8
0
 10
1574.800328248502
 20
211.8315176787361
 30
0.0
  0
VERTEX
  5
3B5
  8
0
 10
1574.295550436527
 20
212.4801421328957
 30
0.0
  0
VERTEX
  5
3B6
  8
0
 10
1573.808885200625
 20
213.1395283782628
 30
0.0
  0
VERTEX
  5
3B7
  8
0
 10
1573.340631906273
 20
213.8094232154203
 30
0.0
  0
VERTEX
  5
3B8
  8
0
 10
1572.891089918948
 20
214.489573444951
 30
0.0
  0
VERTEX
  5
3B9
  8
0
 10
1572.460558604125
 20
215.1797258674377
 30
0.0
  0
VERTEX
  5
3BA
  8
0
 10
1572.04933732728
 20
215.8796272834632
 30
0.0
  0
VERTEX
  5
3BB
  8
0
 10
1571.657725453891
 20
216.5890244936102
 30
0.0
  0
VERTEX
  5
3BC
  8
0
 10
1571.286022349434
 20
217.3076642984617
 30
0.0
  0
VERTEX
  5
3BD
  8
0
 10
1570.934527379384
 20
218.0352934986003
 30
0.0
  0
VERTEX
  5
3BE
  8
0
 10
1570.603539909219
 20
218.7716588946089
 30
0.0
  0
VERTEX
  5
3BF
  8
0
 10
1570.293359304414
 20
219.5165072870704
 30
0.0
  0
VERTEX
  5
3C0
  8
0
 10
1570.162933873582
 20
219.8562833314412
 30
0.0
  0
SEQEND
  5
3C1
  8
0
  0
POLYLINE
  5
4D
  8
0
 66
     1
 10
0.0
 20
0.0
 30
0.0
  0
VERTEX
  5
3C2
  8
0
 10
1642.651141004964
 20
239.8562833314211
 30
0.0
  0
VERTEX
  5
3C3
  8
0
 10
1642.520715574119
 20
240.1960593758245
 30
0.0
  0
VERTEX
  5
3C4
  8
0
 10
1642.210534969314
 20
240.9409077682859
 30
0.0
  0
VERTEX
  5
3C5
  8
0
 10
1641.879547499149
 20
241.6772731642945
 30
0.0
  0
VERTEX
  5
3C6
  8
0
 10
1641.5280525291
 20
242.4049023644332
 30
0.0
  0
VERTEX
  5
3C7
  8
0
 10
1641.156349424642
 20
243.1235421692846
 30
0.0
  0
VERTEX
  5
3C8
  8
0
 10
1640.764737551253
 20
243.8329393794317
 30
0.0
  0
VERTEX
  5
3C9
  8
0
 10
1640.353516274409
 20
244.5328407954571
 30
0.0
  0
VERTEX
  5
3CA
  8
0
 10
1639.922984959586
 20
245.2229932179438
 30
0.0
  0
VERTEX
  5
3CB
  8
0
 10
1639.47344297226
 20
245.9031434474745
 30
0.0
  0
VERTEX
  5
3CC
  8
0
 10
1639.005189677909
 20
246.573038284632
 30
0.0
  0
VERTEX
  5
3CD
  8
0
 10
1638.518524442007
 20
247.2324245299992
 30
0.0
  0
VERTEX
  5
3CE
  8
0
 10
1638.013746630032
 20
247.8810489841587
 30
0.0
  0
VERTEX
  5
3CF
  8
0
 10
1637.49115560746
 20
248.5186584476935
 30
0.0
  0
VERTEX
  5
3D0
  8
0
 10
1636.951050739767
 20
249.1449997211863
 30
0.0
  0
VERTEX
  5
3D1
  8
0
 10
1636.393731392429
 20
249.7598196052199
 30
0.0
  0
VERTEX
  5
3D2
  8
0
 10
1635.819496930924
 20
250.3628649003772
 30
0.0
  0
VERTEX
  5
3D3
  8
0
 10
1635.228646720726
 20
250.9538824072409
 30
0.0
  0
VERTEX
  5
3D4
  8
0
 10
1634.621480127314
 20
251.5326189263938
 30
0.0
  0
VERTEX
  5
3D5
  8
0
 10
1633.998296516162
 20
252.0988212584188
 30
0.0
  0
VERTEX
  5
3D6
  8
0
 10
1633.359395252748
 20
252.6522362038985
 30
0.0
  0
VERTEX
  5
3D7
  8
0
 10
1632.705075702547
 20
253.1926105634159
 30
0.0
  0
VERTEX
  5
3D8
  8
0
 10
1632.035637231036
 20
253.7196911375537
 30
0.0
  0
VERTEX
  5
3D9
  8
0
 10
1631.351379203692
 20
254.2332247268948
 30
0.0
  0
VERTEX
  5
3DA
  8
0
 10
1630.65260098599
 20
254.7329581320219
 30
0.0
  0
VERTEX
  5
3DB
  8
0
 10
1629.939601943408
 20
255.2186381535179
 30
0.0
  0
VERTEX
  5
3DC
  8
0
 10
1629.212681441421
 20
255.6900115919655
 30
0.0
  0
VERTEX
  5
3DD
  8
0
 10
1628.472138845505
 20
256.1468252479475
 30
0.0
  0
VERTEX
  5
3DE
  8
0
 10
1627.718273521138
 20
256.5888259220468
 30
0.0
  0
VERTEX
  5
3DF
  8
0
 10
1626.951384833795
 20
257.0157604148462
 30
0.0
  0
VERTEX
  5
3E0
  8
0
 10
1626.171772148953
 20
257.4273755269283
 30
0.0
  0
VERTEX
  5
3E1
  8
0
 10
1625.379734832088
 20
257.8234180588761
 30
0.0
  0
VERTEX
  5
3E2
  8
0
 10
1624.575572248677
 20
258.2036348112723
 30
0.0
  0
VERTEX
  5
3E3
  8
0
 10
1623.759583764196
 20
258.5677725846998
 30
0.0
  0
VERTEX
  5
3E4
  8
0
 10
1622.93206874412
 20
258.9155781797414
 30
0.0
  0
VERTEX
  5
3E5
  8
0
 10
1622.093326553928
 20
259.2467983969798
 30
0.0
  0
VERTEX
  5
3E6
  8
0
 10
1621.243656559094
 20
259.5611800369978
 30
0.0
  0
VERTEX
  5
3E7
  8
0
 10
1620.383358125095
 20
259.8584699003783
 30
0.0
  0
VERTEX
  5
3E8
  8
0
 10
1619.512730617409
 20
260.1384147877041
 30
0.0
  0
VERTEX
  5
3E9
  8
0
 10
1618.63207340151
 20
260.4007614995579
 30
0.0
  0
VERTEX
  5
3EA
  8
0
 10
1617.741685842875
 20
260.6452568365227
 30
0.0
  0
VERTEX
  5
3EB
  8
0
 10
1616.841867306981
 20
260.871647599181
 30
0.0
  0
VERTEX
  5
3EC
  8
0
 10
1615.932917159304
 20
261.0796805881158
 30
0.0
  0
VERTEX
  5
3ED
  8
0
 10
1615.015134765321
 20
261.2691026039099
 30
0.0
  0
VERTEX
  5
3EE
  8
0
 10
1614.088819490507
 20
261.439660447146
 30
0.0
  0
VERTEX
  5
3EF
  8
0
 10
1613.154270700339
 20
261.5911009184069
 30
0.0
  0
VERTEX
  5
3F0
  8
0
 10
1612.211787760293
 20
261.7231708182757
 30
0.0
  0
VERTEX
  5
3F1
  8
0
 10
1611.261670035847
 20
261.8356169473348
 30
0.0
  0
VERTEX
  5
3F2
  8
0
 10
1610.304216892475
 20
261.9281861061672
 30
0.0
  0
VERTEX
  5
3F3
  8
0
 10
1609.339727695655
 20
262.0006250953556
 30
0.0
  0
VERTEX
  5
3F4
  8
0
 10
1608.368501810863
 20
262.0526807154829
 30
0.0
  0
VERTEX
  5
3F5
  8
0
 10
1607.390838603575
 20
262.084099767132
 30
0.0
  0
VERTEX
  5
3F6
  8
0
 10
1606.407037439267
 20
262.0946290508855
 30
0.0
  0
VERTEX
  5
3F7
  8
0
 10
1605.423236274959
 20
262.084099767132
 30
0.0
  0
VERTEX
  5
3F8
  8
0
 10
1604.445573067671
 20
262.0526807154829
 30
0.0
  0
VERTEX
  5
3F9
  8
0
 10
1603.474347182879
 20
262.0006250953556
 30
0.0
  0
VERTEX
  5
3FA
  8
0
 10
1602.509857986058
 20
261.9281861061672
 30
0.0
  0
VERTEX
  5
3FB
  8
0
 10
1601.552404842687
 20
261.8356169473348
 30
0.0
  0
VERTEX
  5
3FC
  8
0
 10
1600.60228711824
 20
261.7231708182757
 30
0.0
  0
VERTEX
  5
3FD
  8
0
 10
1599.659804178195
 20
261.5911009184069
 30
0.0
  0
VERTEX
  5
3FE
  8
0
 10
1598.725255388027
 20
261.439660447146
 30
0.0
  0
VERTEX
  5
3FF
  8
0
 10
1597.798940113213
 20
261.2691026039099
 30
0.0
  0
VERTEX
  5
400
  8
0
 10
1596.881157719229
 20
261.0796805881158
 30
0.0
  0
VERTEX
  5
401
  8
0
 10
1595.972207571552
 20
260.871647599181
 30
0.0
  0
VERTEX
  5
402
  8
0
 10
1595.072389035658
 20
260.6452568365227
 30
0.0
  0
VERTEX
  5
403
  8
0
 10
1594.182001477024
 20
260.4007614995579
 30
0.0
  0
VERTEX
  5
404
  8
0
 10
1593.301344261125
 20
260.1384147877041
 30
0.0
  0
VERTEX
  5
405
  8
0
 10
1592.430716753438
 20
259.8584699003783
 30
0.0
  0
VERTEX
  5
406
  8
0
 10
1591.57041831944
 20
259.5611800369978
 30
0.0
  0
VERTEX
  5
407
  8
0
 10
1590.720748324606
 20
259.2467983969798
 30
0.0
  0
VERTEX
  5
408
  8
0
 10
1589.882006134413
 20
258.9155781797414
 30
0.0
  0
VERTEX
  5
409
  8
0
 10
1589.054491114338
 20
258.5677725846998
 30
0.0
  0
VERTEX
  5
40A
  8
0
 10
1588.238502629857
 20
258.2036348112723
 30
0.0
  0
VERTEX
  5
40B
  8
0
 10
1587.434340046445
 20
257.8234180588761
 30
0.0
  0
VERTEX
  5
40C
  8
0
 10
1586.64230272958
 20
257.4273755269283
 30
0.0
  0
VERTEX
  5
40D
  8
0
 10
1585.862690044738
 20
257.0157604148462
 30
0.0
  0
VERTEX
  5
40E
  8
0
 10
1585.095801357396
 20
256.5888259220468
 30
0.0
  0
VERTEX
  5
40F
  8
0
 10
1584.341936033029
 20
256.1468252479475
 30
0.0
  0
VERTEX
  5
410
  8
0
 10
1583.601393437113
 20
255.6900115919655
 30
0.0
  0
VERTEX
  5
411
  8
0
 10
1582.874472935126
 20
255.2186381535179
 30
0.0
  0
VERTEX
  5
412
  8
0
 10
1582.161473892543
 20
254.7329581320219
 30
0.0
  0
VERTEX
  5
413
  8
0
 10
1581.462695674842
 20
254.2332247268948
 30
0.0
  0
VERTEX
  5
414
  8
0
 10
1580.778437647497
 20
253.7196911375537
 30
0.0
  0
VERTEX
  5
415
  8
0
 10
1580.108999175987
 20
253.1926105634159
 30
0.0
  0
VERTEX
  5
416
  8
0
 10
1579.454679625786
 20
252.6522362038985
 30
0.0
  0
VERTEX
  5
417
  8
0
 10
1578.815778362371
 20
252.0988212584188
 30
0.0
  0
VERTEX
  5
418
  8
0
 10
1578.19259475122
 20
251.5326189263938
 30
0.0
  0
VERTEX
  5
419
  8
0
 10
1577.585428157807
 20
250.9538824072409
 30
0.0
  0
VERTEX
  5
41A
  8
0
 10
1576.99457794761
 20
250.3628649003772
 30
0.0
  0
VERTEX
  5
41B
  8
0
 10
1576.420343486105
 20
249.7598196052199
 30
0.0
  0
VERTEX
  5
41C
  8
0
 10
1575.863024138767
 20
249.1449997211863
 30
0.0
  0
VERTEX
  5
41D
  8
0
 10
1575.322919271074
 20
248.5186584476935
 30
0.0
  0
VERTEX
  5
41E
  8
0
 10
1574.800328248502
 20
247.8810489841587
 30
0.0
  0
VERTEX
  5
41F
  8
0
 10
1574.295550436527
 20
247.2324245299992
 30
0.0
  0
VERTEX
  5
420
  8
0
 10
1573.808885200625
 20
246.573038284632
 30
0.0
  0
VERTEX
  5
421
  8
0
 10
1573.340631906273
 20
245.9031434474745
 30
0.0
  0
VERTEX
  5
422
  8
0
 10
1572.891089918948
 20
245.2229932179438
 30
0.0
  0
VERTEX
  5
423
  8
0
 10
1572.460558604125
 20
244.5328407954571
 30
0.0
  0
VERTEX
  5
424
  8
0
 10
1572.04933732728
 20
243.8329393794317
 30
0.0
  0
VERTEX
  5
425
  8
0
 10
1571.657725453891
 20
243.1235421692846
 30
0.0
  0
VERTEX
  5
426
  8
0
 10
1571.286022349434
 20
242.4049023644332
 30
0.0
  0
VERTEX
  5
427
  8
0
 10
1570.934527379384
 20
241.6772731642945
 30
0.0
  0
VERTEX
  5
428
  8
0
 10
1570.603539909219
 20
240.9409077682859
 30
0.0
  0
VERTEX
  5
429
  8
0
 10
1570.293359304414
 20
240.1960593758245
 30
0.0
  0
VERTEX
  5
42A
  8
0
 10
1570.162933873572
 20
239.8562833314282
 30
0.0
  0
SEQEND
  5
42B
  8
0
  0
POLYLINE
  5
4E
  8
0
 66
     1
 10
0.0
 20
0.0
 30
0.0
  0
VERTEX
  5
42C
  8
0
 10
1642.651141004946
 20
219.8562833314474
 30
0.0
  0
VERTEX
  5
42D
  8
0
 10
1666.407037439266
 20
219.8562833314474
 30
0.0
  0
VERTEX
  5
42E
  8
0
 10
1666.407037439266
 20
239.8562833314474
 30
0.0
  0
VERTEX
  5
42F
  8
0
 10
1642.65114100492
 20
239.8562833314474
 30
0.0
  0
SEQEND
  5
430
  8
0
  0
ENDSEC
  0
EOF
