  0
SECTION
  2
HEADER
  9
$ACADVER
  1
AC1009
  9
$DWGCODEPAGE
  3
ansi_1252
  9
$INSBASE
 10
0.0
 20
0.0
 30
0.0
  9
$EXTMIN
 10
17.69340936583149
 20
40.94268157198869
 30
0.0
  9
$EXTMAX
 10
916.158897563483
 20
981.1350897211764
 30
0.0
  9
$LIMMIN
 10
0.0
 20
0.0
  9
$LIMMAX
 10
12.0
 20
9.0
  9
$ORTHOMODE
 70
     0
  9
$REGENMODE
 70
     1
  9
$FILLMODE
 70
     1
  9
$QTEXTMODE
 70
     0
  9
$MIRRTEXT
 70
     1
  9
$DRAGMODE
 70
     2
  9
$LTSCALE
 40
1.0
  9
$OSMODE
 70
    37
  9
$ATTMODE
 70
     1
  9
$TEXTSIZE
 40
0.2
  9
$TRACEWID
 40
0.05
  9
$TEXTSTYLE
  7
STANDARD
  9
$CLAYER
  8
0
  9
$CELTYPE
  6
BYLAYER
  9
$CECOLOR
 62
   256
  9
$DIMSCALE
 40
1.0
  9
$DIMASZ
 40
0.18
  9
$DIMEXO
 40
0.0625
  9
$DIMDLI
 40
0.38
  9
$DIMRND
 40
0.0
  9
$DIMDLE
 40
0.0
  9
$DIMEXE
 40
0.18
  9
$DIMTP
 40
0.0
  9
$DIMTM
 40
0.0
  9
$DIMTXT
 40
0.18
  9
$DIMCEN
 40
0.09
  9
$DIMTSZ
 40
0.0
  9
$DIMTOL
 70
     0
  9
$DIMLIM
 70
     0
  9
$DIMTIH
 70
     1
  9
$DIMTOH
 70
     1
  9
$DIMSE1
 70
     0
  9
$DIMSE2
 70
     0
  9
$DIMTAD
 70
     0
  9
$DIMZIN
 70
     0
  9
$DIMBLK
  1

  9
$DIMASO
 70
     1
  9
$DIMSHO
 70
     1
  9
$DIMPOST
  1

  9
$DIMAPOST
  1

  9
$DIMALT
 70
     0
  9
$DIMALTD
 70
     2
  9
$DIMALTF
 40
25.4
  9
$DIMLFAC
 40
1.0
  9
$DIMTOFL
 70
     0
  9
$DIMTVP
 40
0.0
  9
$DIMTIX
 70
     0
  9
$DIMSOXD
 70
     0
  9
$DIMSAH
 70
     0
  9
$DIMBLK1
  1

  9
$DIMBLK2
  1

  9
$DIMSTYLE
  2
STANDARD
  9
$DIMCLRD
 70
     0
  9
$DIMCLRE
 70
     0
  9
$DIMCLRT
 70
     0
  9
$DIMTFAC
 40
1.0
  9
$DIMGAP
 40
0.09
  9
$LUNITS
 70
     2
  9
$LUPREC
 70
     4
  9
$SKETCHINC
 40
0.1
  9
$FILLETRAD
 40
0.5
  9
$AUNITS
 70
     0
  9
$AUPREC
 70
     0
  9
$MENU
  1
.
  9
$ELEVATION
 40
0.0
  9
$PELEVATION
 40
0.0
  9
$THICKNESS
 40
0.0
  9
$LIMCHECK
 70
     0
  9
$CHAMFERA
 40
0.0
  9
$CHAMFERB
 40
0.0
  9
$SKPOLY
 70
     0
  9
$TDCREATE
 40
2454910.5
  9
$TDUPDATE
 40
2458489.495678113
  9
$TDINDWG
 40
0.0000000116
  9
$TDUSRTIMER
 40
0.0000000116
  9
$USRTIMER
 70
     1
  9
$ANGBASE
 50
0.0
  9
$ANGDIR
 70
     0
  9
$PDMODE
 70
     0
  9
$PDSIZE
 40
0.0
  9
$PLINEWID
 40
0.0
  9
$COORDS
 70
     1
  9
$SPLFRAME
 70
     0
  9
$SPLINETYPE
 70
     6
  9
$SPLINESEGS
 70
     8
  9
$ATTDIA
 70
     0
  9
$ATTREQ
 70
     1
  9
$HANDLING
 70
     1
  9
$HANDSEED
  5
465
  9
$SURFTAB1
 70
     6
  9
$SURFTAB2
 70
     6
  9
$SURFTYPE
 70
     6
  9
$SURFU
 70
     6
  9
$SURFV
 70
     6
  9
$UCSNAME
  2

  9
$UCSORG
 10
0.0
 20
0.0
 30
0.0
  9
$UCSXDIR
 10
1.0
 20
0.0
 30
0.0
  9
$UCSYDIR
 10
0.0
 20
1.0
 30
0.0
  9
$PUCSNAME
  2

  9
$PUCSORG
 10
0.0
 20
0.0
 30
0.0
  9
$PUCSXDIR
 10
1.0
 20
0.0
 30
0.0
  9
$PUCSYDIR
 10
0.0
 20
1.0
 30
0.0
  9
$USERI1
 70
     0
  9
$USERI2
 70
     0
  9
$USERI3
 70
     0
  9
$USERI4
 70
     0
  9
$USERI5
 70
     0
  9
$USERR1
 40
0.0
  9
$USERR2
 40
0.0
  9
$USERR3
 40
0.0
  9
$USERR4
 40
0.0
  9
$USERR5
 40
0.0
  9
$WORLDVIEW
 70
     1
  9
$SHADEDGE
 70
     3
  9
$SHADEDIF
 70
    70
  9
$TILEMODE
 70
     1
  9
$MAXACTVP
 70
    64
  9
$PLIMCHECK
 70
     0
  9
$PEXTMIN
 10
1.000000000000000E+20
 20
1.000000000000000E+20
 30
1.000000000000000E+20
  9
$PEXTMAX
 10
-1.000000000000000E+20
 20
-1.000000000000000E+20
 30
-1.000000000000000E+20
  9
$PLIMMIN
 10
0.0
 20
0.0
  9
$PLIMMAX
 10
12.0
 20
9.0
  9
$UNITMODE
 70
     0
  9
$VISRETAIN
 70
     1
  9
$PLINEGEN
 70
     0
  9
$PSLTSCALE
 70
     1
  0
ENDSEC
  0
SECTION
  2
TABLES
  0
TABLE
  2
VPORT
 70
     1
  0
VPORT
  2
*ACTIVE
 70
     0
 10
0.0
 20
0.0
 11
1.0
 21
1.0
 12
10.42990654205607
 22
4.5
 13
0.0
 23
0.0
 14
0.5
 24
0.5
 15
0.5
 25
0.5
 16
0.0
 26
0.0
 36
1.0
 17
0.0
 27
0.0
 37
0.0
 40
9.0
 41
1.972972972850329
 42
50.0
 43
0.0
 44
0.0
 50
0.0
 51
0.0
 71
     0
 72
   100
 73
     1
 74
     3
 75
     0
 76
     0
 77
     0
 78
     0
  0
ENDTAB
  0
TABLE
  2
LTYPE
 70
     2
  0
LTYPE
  2
CONTINUOUS
 70
     0
  3
Solid line
 72
    65
 73
     0
 40
0.0
  0
LTYPE
  2
CONTINUOUS2
 70
     0
  3
Solid Line
 72
    65
 73
     0
 40
0.0
  0
ENDTAB
  0
TABLE
  2
LAYER
 70
     4
  0
LAYER
  2
0
 70
     0
 62
     7
  6
CONTINUOUS
  0
LAYER
  2
CUT_LAST
 70
     0
 62
    18
  6
CONTINUOUS
  0
LAYER
  2
CUT_FIRST
 70
     0
 62
   105
  6
CONTINUOUS
  0
LAYER
  2
ENGRAVE
 70
     0
 62
    30
  6
CONTINUOUS
  0
ENDTAB
  0
TABLE
  2
STYLE
 70
     1
  0
STYLE
  2
STANDARD
 70
     0
 40
0.0
 41
1.0
 50
0.0
 71
     0
 42
0.2
  3
txt
  4

  0
ENDTAB
  0
TABLE
  2
VIEW
 70
     0
  0
ENDTAB
  0
TABLE
  2
UCS
 70
     0
  0
ENDTAB
  0
TABLE
  2
APPID
 70
     1
  0
APPID
  2
ACAD
 70
     0
  0
ENDTAB
  0
TABLE
  2
DIMSTYLE
 70
     1
  0
DIMSTYLE
  2
STANDARD
 70
     0
  3

  4

  5

  6

  7

 40
1.0
 41
0.18
 42
0.0625
 43
0.38
 44
0.18
 45
0.0
 46
0.0
 47
0.0
 48
0.0
140
0.18
141
0.09
142
0.0
143
25.4
144
1.0
145
0.0
146
1.0
147
0.09
 71
     0
 72
     0
 73
     1
 74
     1
 75
     0
 76
     0
 77
     0
 78
     0
170
     0
171
     2
172
     0
173
     0
174
     0
175
     0
176
     0
177
     0
178
     0
  0
ENDTAB
  0
ENDSEC
  0
SECTION
  2
BLOCKS
  0
BLOCK
  8
0
  2
$MODEL_SPACE
 70
     0
 10
0.0
 20
0.0
 30
0.0
  3
$MODEL_SPACE
  1

  0
ENDBLK
  5
21
  8
0
  0
BLOCK
 67
     1
  8
0
  2
$PAPER_SPACE
 70
     0
 10
0.0
 20
0.0
 30
0.0
  3
$PAPER_SPACE
  1

  0
ENDBLK
  5
1D
 67
     1
  8
0
  0
ENDSEC
  0
SECTION
  2
ENTITIES
  0
POLYLINE
  5
70
  8
CUT_LAST
 66
     1
 10
0.0
 20
0.0
 30
0.0
 70
     1
  0
VERTEX
  5
88
  8
CUT_LAST
 10
669.491922563485
 20
362.3770283170975
 30
0.0
  0
VERTEX
  5
89
  8
CUT_LAST
 10
669.491922563485
 20
414.3914506487424
 30
0.0
  0
VERTEX
  5
8A
  8
CUT_LAST
 10
649.4918975634853
 20
414.3914506487424
 30
0.0
  0
VERTEX
  5
8B
  8
CUT_LAST
 10
649.4918975634844
 20
461.2869330884891
 30
0.0
  0
VERTEX
  5
8C
  8
CUT_LAST
 10
649.4918975634844
 20
501.0582256487455
 30
0.0
  0
VERTEX
  5
8D
  8
CUT_LAST
 10
669.4919225634864
 20
501.0582256487455
 30
0.0
  0
VERTEX
  5
8E
  8
CUT_LAST
 10
669.4919225634841
 20
569.992636361465
 30
0.0
  0
VERTEX
  5
8F
  8
CUT_LAST
 10
669.4919225634836
 20
597.7250131487463
 30
0.0
  0
VERTEX
  5
90
  8
CUT_LAST
 10
669.4919225634836
 20
617.7250381487465
 30
0.0
  0
VERTEX
  5
91
  8
CUT_LAST
 10
739.4449120225215
 20
617.7250381487474
 30
0.0
  0
VERTEX
  5
92
  8
CUT_LAST
 10
739.4449120225229
 20
637.7250631487468
 30
0.0
  0
VERTEX
  5
93
  8
CUT_LAST
 10
826.1116870225236
 20
637.7250631487468
 30
0.0
  0
VERTEX
  5
94
  8
CUT_LAST
 10
826.1116870225236
 20
617.7250381487474
 30
0.0
  0
VERTEX
  5
95
  8
CUT_LAST
 10
839.4450370225236
 20
617.7250381487465
 30
0.0
  0
VERTEX
  5
96
  8
CUT_LAST
 10
896.1588725634782
 20
617.7250381487465
 30
0.0
  0
VERTEX
  5
97
  8
CUT_LAST
 10
896.1588725634816
 20
597.7250131487453
 30
0.0
  0
VERTEX
  5
98
  8
CUT_LAST
 10
896.1588725634816
 20
569.992636361465
 30
0.0
  0
VERTEX
  5
99
  8
CUT_LAST
 10
896.1588725634823
 20
501.0582256487446
 30
0.0
  0
VERTEX
  5
9A
  8
CUT_LAST
 10
916.1588975634824
 20
501.0582256487446
 30
0.0
  0
VERTEX
  5
9B
  8
CUT_LAST
 10
916.158897563483
 20
461.2869330884891
 30
0.0
  0
VERTEX
  5
9C
  8
CUT_LAST
 10
916.158897563483
 20
414.3914506487424
 30
0.0
  0
VERTEX
  5
9D
  8
CUT_LAST
 10
896.1588725634823
 20
414.3914506487433
 30
0.0
  0
VERTEX
  5
9E
  8
CUT_LAST
 10
896.1588725634823
 20
362.3770283170966
 30
0.0
  0
VERTEX
  5
9F
  8
CUT_LAST
 10
896.1588725634823
 20
317.7246631487394
 30
0.0
  0
VERTEX
  5
A0
  8
CUT_LAST
 10
826.111687022522
 20
317.7246631487421
 30
0.0
  0
VERTEX
  5
A1
  8
CUT_LAST
 10
826.111687022522
 20
297.7246381487387
 30
0.0
  0
VERTEX
  5
A2
  8
CUT_LAST
 10
739.4449120225215
 20
297.7246381487387
 30
0.0
  0
VERTEX
  5
A3
  8
CUT_LAST
 10
739.4449120225222
 20
317.7246631487394
 30
0.0
  0
VERTEX
  5
A4
  8
CUT_LAST
 10
669.4919225634841
 20
317.7246631487408
 30
0.0
  0
SEQEND
  5
456
  8
CUT_LAST
  0
POLYLINE
  5
71
  8
CUT_LAST
 66
     1
 10
0.0
 20
0.0
 30
0.0
 70
     1
  0
VERTEX
  5
A5
  8
CUT_LAST
 10
17.69340936583149
 20
705.7873990741448
 30
0.0
  0
VERTEX
  5
A6
  8
CUT_LAST
 10
17.69340936583149
 20
757.8017563878432
 30
0.0
  0
VERTEX
  5
A7
  8
CUT_LAST
 10
37.69340936583126
 20
757.8017563878432
 30
0.0
  0
VERTEX
  5
A8
  8
CUT_LAST
 10
37.69340936583126
 20
804.6971802083117
 30
0.0
  0
VERTEX
  5
A9
  8
CUT_LAST
 10
37.69340936583126
 20
844.4684230545113
 30
0.0
  0
VERTEX
  5
AA
  8
CUT_LAST
 10
17.69340936583149
 20
844.4684230545113
 30
0.0
  0
VERTEX
  5
AB
  8
CUT_LAST
 10
17.69340936583149
 20
913.402747599323
 30
0.0
  0
VERTEX
  5
AC
  8
CUT_LAST
 10
17.69340936583149
 20
961.1350897211773
 30
0.0
  0
VERTEX
  5
AD
  8
CUT_LAST
 10
167.693409365831
 20
961.1350897211742
 30
0.0
  0
VERTEX
  5
AE
  8
CUT_LAST
 10
167.693409365831
 20
981.1350897211764
 30
0.0
  0
VERTEX
  5
AF
  8
CUT_LAST
 10
287.6934093658306
 20
981.1350897211764
 30
0.0
  0
VERTEX
  5
B0
  8
CUT_LAST
 10
287.6934093658306
 20
961.1350897211773
 30
0.0
  0
VERTEX
  5
B1
  8
CUT_LAST
 10
437.6934093658319
 20
961.1350897211773
 30
0.0
  0
VERTEX
  5
B2
  8
CUT_LAST
 10
437.6934093658319
 20
913.402747599323
 30
0.0
  0
VERTEX
  5
B3
  8
CUT_LAST
 10
437.6934093658319
 20
844.4684230545113
 30
0.0
  0
VERTEX
  5
B4
  8
CUT_LAST
 10
417.6934093658314
 20
844.4684230545113
 30
0.0
  0
VERTEX
  5
B5
  8
CUT_LAST
 10
417.6934093658334
 20
804.6971802083117
 30
0.0
  0
VERTEX
  5
B6
  8
CUT_LAST
 10
417.6934093658314
 20
757.8017563878432
 30
0.0
  0
VERTEX
  5
B7
  8
CUT_LAST
 10
437.6934093658319
 20
757.8017563878432
 30
0.0
  0
VERTEX
  5
B8
  8
CUT_LAST
 10
437.6934093658319
 20
705.7873990741443
 30
0.0
  0
VERTEX
  5
B9
  8
CUT_LAST
 10
437.6934093658319
 20
661.135089721173
 30
0.0
  0
VERTEX
  5
BA
  8
CUT_LAST
 10
287.6934093658306
 20
661.135089721173
 30
0.0
  0
VERTEX
  5
BB
  8
CUT_LAST
 10
287.6934093658306
 20
641.1350897211714
 30
0.0
  0
VERTEX
  5
BC
  8
CUT_LAST
 10
167.693409365831
 20
641.1350897211714
 30
0.0
  0
VERTEX
  5
BD
  8
CUT_LAST
 10
167.693409365831
 20
661.135089721173
 30
0.0
  0
VERTEX
  5
BE
  8
CUT_LAST
 10
17.69340936583149
 20
661.1350897211712
 30
0.0
  0
SEQEND
  5
457
  8
CUT_LAST
  0
POLYLINE
  5
72
  8
CUT_LAST
 66
     1
 10
0.0
 20
0.0
 30
0.0
 70
     1
  0
VERTEX
  5
BF
  8
CUT_LAST
 10
559.1337110050364
 20
413.9465729258494
 30
0.0
  0
VERTEX
  5
C0
  8
CUT_LAST
 10
507.1193536913396
 20
413.9465729258494
 30
0.0
  0
VERTEX
  5
C1
  8
CUT_LAST
 10
507.1193536913396
 20
393.9465729258498
 30
0.0
  0
VERTEX
  5
C2
  8
CUT_LAST
 10
460.2239298708746
 20
393.946572925849
 30
0.0
  0
VERTEX
  5
C3
  8
CUT_LAST
 10
420.4526870246721
 20
393.946572925849
 30
0.0
  0
VERTEX
  5
C4
  8
CUT_LAST
 10
420.4526870246721
 20
413.9465729258516
 30
0.0
  0
VERTEX
  5
C5
  8
CUT_LAST
 10
351.5183624798624
 20
413.9465729258494
 30
0.0
  0
VERTEX
  5
C6
  8
CUT_LAST
 10
323.7860203580082
 20
413.9465729258486
 30
0.0
  0
VERTEX
  5
C7
  8
CUT_LAST
 10
303.7860203580084
 20
413.9465729258486
 30
0.0
  0
VERTEX
  5
C8
  8
CUT_LAST
 10
303.7860203580073
 20
483.8994749437576
 30
0.0
  0
VERTEX
  5
C9
  8
CUT_LAST
 10
283.7860203580093
 20
483.8994749437591
 30
0.0
  0
VERTEX
  5
CA
  8
CUT_LAST
 10
283.7860203580093
 20
570.5661416104265
 30
0.0
  0
VERTEX
  5
CB
  8
CUT_LAST
 10
303.7860203580073
 20
570.5661416104265
 30
0.0
  0
VERTEX
  5
CC
  8
CUT_LAST
 10
303.7860203580087
 20
583.8994749437593
 30
0.0
  0
VERTEX
  5
CD
  8
CUT_LAST
 10
303.7860203580087
 20
640.6132395925085
 30
0.0
  0
VERTEX
  5
CE
  8
CUT_LAST
 10
323.7860203580098
 20
640.6132395925122
 30
0.0
  0
VERTEX
  5
CF
  8
CUT_LAST
 10
351.5183624798624
 20
640.6132395925122
 30
0.0
  0
VERTEX
  5
D0
  8
CUT_LAST
 10
420.4526870246738
 20
640.6132395925122
 30
0.0
  0
VERTEX
  5
D1
  8
CUT_LAST
 10
420.4526870246738
 20
660.6132395925126
 30
0.0
  0
VERTEX
  5
D2
  8
CUT_LAST
 10
460.2239298708743
 20
660.6132395925126
 30
0.0
  0
VERTEX
  5
D3
  8
CUT_LAST
 10
507.1193536913399
 20
660.6132395925142
 30
0.0
  0
VERTEX
  5
D4
  8
CUT_LAST
 10
507.1193536913382
 20
640.6132395925122
 30
0.0
  0
VERTEX
  5
D5
  8
CUT_LAST
 10
559.1337110050373
 20
640.6132395925115
 30
0.0
  0
VERTEX
  5
D6
  8
CUT_LAST
 10
603.7860203580068
 20
640.6132395925115
 30
0.0
  0
VERTEX
  5
D7
  8
CUT_LAST
 10
603.7860203580043
 20
570.5661416104257
 30
0.0
  0
VERTEX
  5
D8
  8
CUT_LAST
 10
623.7860203580084
 20
570.5661416104257
 30
0.0
  0
VERTEX
  5
D9
  8
CUT_LAST
 10
623.7860203580084
 20
483.8994749437584
 30
0.0
  0
VERTEX
  5
DA
  8
CUT_LAST
 10
603.7860203580077
 20
483.8994749437576
 30
0.0
  0
VERTEX
  5
DB
  8
CUT_LAST
 10
603.7860203580054
 20
413.9465729258486
 30
0.0
  0
SEQEND
  5
458
  8
CUT_LAST
  0
POLYLINE
  5
73
  8
CUT_LAST
 66
     1
 10
0.0
 20
0.0
 30
0.0
  0
VERTEX
  5
DC
  8
CUT_LAST
 10
161.8718444568608
 20
60.92268157198711
 30
0.0
  0
VERTEX
  5
DD
  8
CUT_LAST
 10
148.5518444568606
 20
60.92268157198711
 30
0.0
  0
VERTEX
  5
DE
  8
CUT_LAST
 10
148.5518444568651
 20
118.8212575252641
 30
0.0
  0
VERTEX
  5
DF
  8
CUT_LAST
 10
146.962996547552
 20
117.5055999903622
 30
0.0
  0
VERTEX
  5
E0
  8
CUT_LAST
 10
142.7812499685806
 20
113.67897957158
 30
0.0
  0
VERTEX
  5
E1
  8
CUT_LAST
 10
138.8879128593527
 20
109.7271149206525
 30
0.0
  0
VERTEX
  5
E2
  8
CUT_LAST
 10
135.2914160074165
 20
105.6568876678895
 30
0.0
  0
VERTEX
  5
E3
  8
CUT_LAST
 10
131.9999686346823
 20
101.4750169503006
 30
0.0
  0
VERTEX
  5
E4
  8
CUT_LAST
 10
129.0215710574911
 20
97.18800318382941
 30
0.0
  0
VERTEX
  5
E5
  8
CUT_LAST
 10
126.3640445072013
 20
92.80206878245244
 30
0.0
  0
VERTEX
  5
E6
  8
CUT_LAST
 10
124.0350813099655
 20
88.3231000523933
 30
0.0
  0
VERTEX
  5
E7
  8
CUT_LAST
 10
122.042317280949
 20
83.75659602301764
 30
0.0
  0
VERTEX
  5
E8
  8
CUT_LAST
 10
120.3934259187782
 20
79.10763119249393
 30
0.0
  0
VERTEX
  5
E9
  8
CUT_LAST
 10
119.084383814298
 20
74.33767071285294
 30
0.0
  0
VERTEX
  5
EA
  8
CUT_LAST
 10
118.579407611657
 20
71.98932342118277
 30
0.0
  0
VERTEX
  5
EB
  8
CUT_LAST
 10
118.1561958504633
 20
69.58015344692896
 30
0.0
  0
VERTEX
  5
EC
  8
CUT_LAST
 10
117.8250519242398
 20
67.15354178060133
 30
0.0
  0
VERTEX
  5
ED
  8
CUT_LAST
 10
117.5870830506796
 20
64.70993523127035
 30
0.0
  0
VERTEX
  5
EE
  8
CUT_LAST
 10
117.4434314232874
 20
62.24976447790013
 30
0.0
  0
VERTEX
  5
EF
  8
CUT_LAST
 10
117.4176248078
 20
60.92268157199166
 30
0.0
  0
SEQEND
  5
459
  8
CUT_LAST
  0
POLYLINE
  5
74
  8
CUT_LAST
 66
     1
 10
0.0
 20
0.0
 30
0.0
  0
VERTEX
  5
F0
  8
CUT_LAST
 10
161.8718444568608
 20
60.92268157198632
 30
0.0
  0
VERTEX
  5
F1
  8
CUT_LAST
 10
161.8718444568692
 20
128.6108806015306
 30
0.0
  0
VERTEX
  5
F2
  8
CUT_LAST
 10
166.3979967593924
 20
131.418942232745
 30
0.0
  0
VERTEX
  5
F3
  8
CUT_LAST
 10
171.8880858917232
 20
134.5135546075227
 30
0.0
  0
VERTEX
  5
F4
  8
CUT_LAST
 10
177.6119047803416
 20
137.4405388365389
 30
0.0
  0
VERTEX
  5
F5
  8
CUT_LAST
 10
183.5598428714976
 20
140.1928896916346
 30
0.0
  0
VERTEX
  5
F6
  8
CUT_LAST
 10
186.4706470987039
 20
141.4071952242819
 30
0.0
  0
VERTEX
  5
F7
  8
CUT_LAST
 10
186.4706470987079
 20
60.92268157198632
 30
0.0
  0
SEQEND
  5
45A
  8
CUT_LAST
  0
POLYLINE
  5
75
  8
CUT_LAST
 66
     1
 10
0.0
 20
0.0
 30
0.0
 70
     1
  0
VERTEX
  5
F8
  8
CUT_LAST
 10
275.5788789414607
 20
60.92268157198711
 30
0.0
  0
VERTEX
  5
F9
  8
CUT_LAST
 10
275.5788789414601
 20
157.0122914124714
 30
0.0
  0
VERTEX
  5
FA
  8
CUT_LAST
 10
276.724974727139
 20
156.9934335809635
 30
0.0
  0
VERTEX
  5
FB
  8
CUT_LAST
 10
284.4912412802087
 20
156.6091445988871
 30
0.0
  0
VERTEX
  5
FC
  8
CUT_LAST
 10
292.1413026376942
 20
155.9765768988364
 30
0.0
  0
VERTEX
  5
FD
  8
CUT_LAST
 10
299.6654012710601
 20
155.1022207989182
 30
0.0
  0
VERTEX
  5
FE
  8
CUT_LAST
 10
300.5232956698908
 20
154.9733766669756
 30
0.0
  0
VERTEX
  5
FF
  8
CUT_LAST
 10
300.5232956698862
 20
60.92268157198791
 30
0.0
  0
SEQEND
  5
45B
  8
CUT_LAST
  0
POLYLINE
  5
76
  8
CUT_LAST
 66
     1
 10
0.0
 20
0.0
 30
0.0
 70
     1
  0
VERTEX
  5
100
  8
CUT_LAST
 10
237.3144622130343
 20
60.92268157198711
 30
0.0
  0
VERTEX
  5
101
  8
CUT_LAST
 10
237.3144622130313
 20
154.9934812203736
 30
0.0
  0
VERTEX
  5
102
  8
CUT_LAST
 10
238.0384926671708
 20
155.1022207989182
 30
0.0
  0
VERTEX
  5
103
  8
CUT_LAST
 10
245.5625913005358
 20
155.9765768988379
 30
0.0
  0
VERTEX
  5
104
  8
CUT_LAST
 10
253.2126526580206
 20
156.6091445988879
 30
0.0
  0
VERTEX
  5
105
  8
CUT_LAST
 10
260.9789192110906
 20
156.9934335809635
 30
0.0
  0
VERTEX
  5
106
  8
CUT_LAST
 10
262.2588789414615
 20
157.0144940064719
 30
0.0
  0
VERTEX
  5
107
  8
CUT_LAST
 10
262.2588789414613
 20
60.92268157198711
 30
0.0
  0
SEQEND
  5
45C
  8
CUT_LAST
  0
POLYLINE
  5
77
  8
CUT_LAST
 66
     1
 10
0.0
 20
0.0
 30
0.0
  0
VERTEX
  5
108
  8
CUT_LAST
 10
117.4176248078
 20
60.92268157198711
 30
0.0
  0
VERTEX
  5
109
  8
CUT_LAST
 10
51.89517684797507
 20
60.92268157198632
 30
0.0
  0
VERTEX
  5
10A
  8
CUT_LAST
 10
51.89517684797507
 20
105.530338615607
 30
0.0
  0
VERTEX
  5
10B
  8
CUT_LAST
 10
51.89517684797507
 20
157.49268157199
 30
0.0
  0
VERTEX
  5
10C
  8
CUT_LAST
 10
71.87517684797531
 20
157.49268157199
 30
0.0
  0
VERTEX
  5
10D
  8
CUT_LAST
 10
71.87517684797531
 20
204.3412099686367
 30
0.0
  0
VERTEX
  5
10E
  8
CUT_LAST
 10
71.87517684797531
 20
244.0726815719903
 30
0.0
  0
VERTEX
  5
10F
  8
CUT_LAST
 10
51.89517684797507
 20
244.0726815719903
 30
0.0
  0
VERTEX
  5
110
  8
CUT_LAST
 10
51.89517684797507
 20
312.93807179226
 30
0.0
  0
VERTEX
  5
111
  8
CUT_LAST
 10
51.89517684797507
 20
360.6226815719893
 30
0.0
  0
VERTEX
  5
112
  8
CUT_LAST
 10
201.7451768479757
 20
360.6226815719875
 30
0.0
  0
VERTEX
  5
113
  8
CUT_LAST
 10
201.7451768479752
 20
380.6026815719889
 30
0.0
  0
VERTEX
  5
114
  8
CUT_LAST
 10
321.6251768479747
 20
380.6026815719889
 30
0.0
  0
VERTEX
  5
115
  8
CUT_LAST
 10
321.6251768479755
 20
360.6226815719893
 30
0.0
  0
VERTEX
  5
116
  8
CUT_LAST
 10
471.4751768479757
 20
360.6226815719893
 30
0.0
  0
VERTEX
  5
117
  8
CUT_LAST
 10
471.4751768479757
 20
312.93807179226
 30
0.0
  0
VERTEX
  5
118
  8
CUT_LAST
 10
471.4751768479757
 20
244.0726815719903
 30
0.0
  0
VERTEX
  5
119
  8
CUT_LAST
 10
451.4951768479756
 20
244.0726815719903
 30
0.0
  0
VERTEX
  5
11A
  8
CUT_LAST
 10
451.4951768479756
 20
204.3412099686367
 30
0.0
  0
VERTEX
  5
11B
  8
CUT_LAST
 10
451.4951768479756
 20
157.49268157199
 30
0.0
  0
VERTEX
  5
11C
  8
CUT_LAST
 10
471.4751768479757
 20
157.49268157199
 30
0.0
  0
VERTEX
  5
11D
  8
CUT_LAST
 10
471.4751768479757
 20
105.530338615607
 30
0.0
  0
VERTEX
  5
11E
  8
CUT_LAST
 10
471.4751768479757
 20
60.92268157198791
 30
0.0
  0
VERTEX
  5
11F
  8
CUT_LAST
 10
420.2862691304294
 20
60.92268157198939
 30
0.0
  0
VERTEX
  5
120
  8
CUT_LAST
 10
420.2604625149424
 20
62.24976447790013
 30
0.0
  0
VERTEX
  5
121
  8
CUT_LAST
 10
420.1168108875504
 20
64.70993523127035
 30
0.0
  0
VERTEX
  5
122
  8
CUT_LAST
 10
419.87884201399
 20
67.15354178060133
 30
0.0
  0
VERTEX
  5
123
  8
CUT_LAST
 10
419.5536848408839
 20
69.53628271940224
 30
0.0
  0
VERTEX
  5
124
  8
CUT_LAST
 10
418.6076630777497
 20
74.38083963911933
 30
0.0
  0
VERTEX
  5
125
  8
CUT_LAST
 10
417.3104680194513
 20
79.10763119249393
 30
0.0
  0
VERTEX
  5
126
  8
CUT_LAST
 10
415.6615766572804
 20
83.75659602301764
 30
0.0
  0
VERTEX
  5
127
  8
CUT_LAST
 10
413.6688126282643
 20
88.3231000523933
 30
0.0
  0
VERTEX
  5
128
  8
CUT_LAST
 10
411.3398494310278
 20
92.80206878245244
 30
0.0
  0
VERTEX
  5
129
  8
CUT_LAST
 10
408.6823228807383
 20
97.18800318382941
 30
0.0
  0
VERTEX
  5
12A
  8
CUT_LAST
 10
405.7039253035471
 20
101.4750169503006
 30
0.0
  0
VERTEX
  5
12B
  8
CUT_LAST
 10
402.4124779308128
 20
105.6568876678895
 30
0.0
  0
VERTEX
  5
12C
  8
CUT_LAST
 10
398.8159810788767
 20
109.7271149206525
 30
0.0
  0
VERTEX
  5
12D
  8
CUT_LAST
 10
394.922643969649
 20
113.67897957158
 30
0.0
  0
VERTEX
  5
12E
  8
CUT_LAST
 10
390.7408973906774
 20
117.5055999903622
 30
0.0
  0
VERTEX
  5
12F
  8
CUT_LAST
 10
389.0291715331705
 20
118.9230075401425
 30
0.0
  0
VERTEX
  5
130
  8
CUT_LAST
 10
389.0291715331731
 20
60.92268157198859
 30
0.0
  0
VERTEX
  5
131
  8
CUT_LAST
 10
375.7091715331715
 20
60.92268157198791
 30
0.0
  0
VERTEX
  5
132
  8
CUT_LAST
 10
375.7091715331632
 20
128.687115078099
 30
0.0
  0
VERTEX
  5
133
  8
CUT_LAST
 10
371.3058971788366
 20
131.4189422327442
 30
0.0
  0
VERTEX
  5
134
  8
CUT_LAST
 10
365.815808046506
 20
134.5135546075211
 30
0.0
  0
VERTEX
  5
135
  8
CUT_LAST
 10
360.0919891578873
 20
137.4405388365367
 30
0.0
  0
VERTEX
  5
136
  8
CUT_LAST
 10
354.1440510667312
 20
140.1928896916323
 30
0.0
  0
VERTEX
  5
137
  8
CUT_LAST
 10
351.5053564188323
 20
141.2936787725056
 30
0.0
  0
VERTEX
  5
138
  8
CUT_LAST
 10
351.505356418846
 20
60.92268157198791
 30
0.0
  0
VERTEX
  5
139
  8
CUT_LAST
 10
338.1853564188452
 20
60.92268157198791
 30
0.0
  0
VERTEX
  5
13A
  8
CUT_LAST
 10
338.1853564188432
 20
146.28885766934
 30
0.0
  0
VERTEX
  5
13B
  8
CUT_LAST
 10
335.052782841094
 20
147.3328868151399
 30
0.0
  0
VERTEX
  5
13C
  8
CUT_LAST
 10
328.3058889037382
 20
149.3177323022882
 30
0.0
  0
VERTEX
  5
13D
  8
CUT_LAST
 10
321.3838412239927
 20
151.0937410316576
 30
0.0
  0
VERTEX
  5
13E
  8
CUT_LAST
 10
314.2965057370071
 20
152.6542368736411
 30
0.0
  0
VERTEX
  5
13F
  8
CUT_LAST
 10
313.8432956698833
 20
152.7379833624534
 30
0.0
  0
VERTEX
  5
140
  8
CUT_LAST
 10
313.843295669885
 20
60.92268157198791
 30
0.0
  0
VERTEX
  5
141
  8
CUT_LAST
 10
321.6251768479747
 20
60.92268157198791
 30
0.0
  0
VERTEX
  5
142
  8
CUT_LAST
 10
321.6251768479747
 20
40.94268157198869
 30
0.0
  0
VERTEX
  5
143
  8
CUT_LAST
 10
201.7451768479757
 20
40.94268157198869
 30
0.0
  0
VERTEX
  5
144
  8
CUT_LAST
 10
201.7451768479752
 20
60.92268157198791
 30
0.0
  0
VERTEX
  5
145
  8
CUT_LAST
 10
223.994462213035
 20
60.92268157198711
 30
0.0
  0
VERTEX
  5
146
  8
CUT_LAST
 10
223.994462213036
 20
152.7627194313846
 30
0.0
  0
VERTEX
  5
147
  8
CUT_LAST
 10
223.4073882012221
 20
152.6542368736427
 30
0.0
  0
VERTEX
  5
148
  8
CUT_LAST
 10
216.3200527142369
 20
151.0937410316576
 30
0.0
  0
VERTEX
  5
149
  8
CUT_LAST
 10
209.3980050344913
 20
149.3177323022889
 30
0.0
  0
VERTEX
  5
14A
  8
CUT_LAST
 10
202.6511110971355
 20
147.3328868151399
 30
0.0
  0
VERTEX
  5
14B
  8
CUT_LAST
 10
199.7906470987057
 20
146.3795467863243
 30
0.0
  0
VERTEX
  5
14C
  8
CUT_LAST
 10
199.7906470987088
 20
60.92268157198711
 30
0.0
  0
VERTEX
  5
14D
  8
CUT_LAST
 10
186.4706470987079
 20
60.92268157198711
 30
0.0
  0
SEQEND
  5
45D
  8
CUT_LAST
  0
POLYLINE
  5
79
  8
CUT_FIRST
 66
     1
 10
0.0
 20
0.0
 30
0.0
  0
VERTEX
  5
14E
  8
CUT_FIRST
 10
472.4881657285739
 20
691.0802371852175
 30
0.0
  0
VERTEX
  5
14F
  8
CUT_FIRST
 10
472.488159824152
 20
761.0801860135692
 30
0.0
  0
VERTEX
  5
150
  8
CUT_FIRST
 10
492.4881775374174
 20
761.0801860135692
 30
0.0
  0
VERTEX
  5
151
  8
CUT_FIRST
 10
492.4881775374174
 20
847.7469550235336
 30
0.0
  0
VERTEX
  5
152
  8
CUT_FIRST
 10
472.488159824152
 20
847.7469550235336
 30
0.0
  0
VERTEX
  5
153
  8
CUT_FIRST
 10
472.4881657285739
 20
917.7469038518847
 30
0.0
  0
VERTEX
  5
154
  8
CUT_FIRST
 10
472.4881539197302
 20
917.7469038518847
 30
0.0
  0
VERTEX
  5
155
  8
CUT_FIRST
 10
472.4881539197302
 20
937.7469038518869
 30
0.0
  0
VERTEX
  5
156
  8
CUT_FIRST
 10
622.4879945003684
 20
937.7469038518869
 30
0.0
  0
VERTEX
  5
157
  8
CUT_FIRST
 10
622.4879945003693
 20
917.7469038518847
 30
0.0
  0
VERTEX
  5
158
  8
CUT_FIRST
 10
742.4883133390929
 20
917.7469038518847
 30
0.0
  0
VERTEX
  5
159
  8
CUT_FIRST
 10
742.4883133390927
 20
937.7469038518869
 30
0.0
  0
VERTEX
  5
15A
  8
CUT_FIRST
 10
892.4881539197313
 20
937.7469038518869
 30
0.0
  0
VERTEX
  5
15B
  8
CUT_FIRST
 10
892.4881539197313
 20
917.7469038518847
 30
0.0
  0
VERTEX
  5
15C
  8
CUT_FIRST
 10
892.4881421108872
 20
917.7469038518847
 30
0.0
  0
VERTEX
  5
15D
  8
CUT_FIRST
 10
892.4881480153095
 20
847.7469550235304
 30
0.0
  0
VERTEX
  5
15E
  8
CUT_FIRST
 10
872.4881303020444
 20
847.7469550235336
 30
0.0
  0
VERTEX
  5
15F
  8
CUT_FIRST
 10
872.4881303020444
 20
761.0801860135692
 30
0.0
  0
VERTEX
  5
160
  8
CUT_FIRST
 10
892.4881480153095
 20
761.0801860135729
 30
0.0
  0
VERTEX
  5
161
  8
CUT_FIRST
 10
892.4881421108867
 20
691.0802371852175
 30
0.0
  0
VERTEX
  5
162
  8
CUT_FIRST
 10
892.4881539197313
 20
691.0802371852175
 30
0.0
  0
VERTEX
  5
163
  8
CUT_FIRST
 10
892.4881539197313
 20
671.0802371852175
 30
0.0
  0
VERTEX
  5
164
  8
CUT_FIRST
 10
742.4883133390927
 20
671.0802371852175
 30
0.0
  0
VERTEX
  5
165
  8
CUT_FIRST
 10
742.4883133390929
 20
691.0802371852175
 30
0.0
  0
VERTEX
  5
166
  8
CUT_FIRST
 10
622.4879945003688
 20
691.0802371852175
 30
0.0
  0
VERTEX
  5
167
  8
CUT_FIRST
 10
622.4879945003702
 20
671.0802371852175
 30
0.0
  0
VERTEX
  5
168
  8
CUT_FIRST
 10
472.4881539197302
 20
671.0802371852175
 30
0.0
  0
VERTEX
  5
169
  8
CUT_FIRST
 10
472.4881539197302
 20
691.0802371852175
 30
0.0
  0
SEQEND
  5
45E
  8
CUT_FIRST
  0
POLYLINE
  5
7A
  8
CUT_FIRST
 66
     1
 10
0.0
 20
0.0
 30
0.0
 70
     1
  0
VERTEX
  5
16A
  8
CUT_FIRST
 10
326.2287888519631
 20
274.8025403421608
 30
0.0
  0
VERTEX
  5
16B
  8
CUT_FIRST
 10
326.2287758604746
 20
270.0629508535518
 30
0.0
  0
VERTEX
  5
16C
  8
CUT_FIRST
 10
326.3169909383008
 20
269.1825726458818
 30
0.0
  0
VERTEX
  5
16D
  8
CUT_FIRST
 10
326.4301512060438
 20
268.3086471825332
 30
0.0
  0
VERTEX
  5
16E
  8
CUT_FIRST
 10
326.567950533122
 20
267.4414116361139
 30
0.0
  0
VERTEX
  5
16F
  8
CUT_FIRST
 10
326.7300827889549
 20
266.5811031792358
 30
0.0
  0
VERTEX
  5
170
  8
CUT_FIRST
 10
326.9162418429603
 20
265.7279589845075
 30
0.0
  0
VERTEX
  5
171
  8
CUT_FIRST
 10
327.126121564558
 20
264.8822162245395
 30
0.0
  0
VERTEX
  5
172
  8
CUT_FIRST
 10
327.3594158231659
 20
264.0441120719415
 30
0.0
  0
VERTEX
  5
173
  8
CUT_FIRST
 10
327.6158184882032
 20
263.213883699323
 30
0.0
  0
VERTEX
  5
174
  8
CUT_FIRST
 10
327.895023429088
 20
262.3917682792944
 30
0.0
  0
VERTEX
  5
175
  8
CUT_FIRST
 10
328.1967245152399
 20
261.5780029844649
 30
0.0
  0
VERTEX
  5
176
  8
CUT_FIRST
 10
328.5206156160768
 20
260.7728249874455
 30
0.0
  0
VERTEX
  5
177
  8
CUT_FIRST
 10
328.8663906010183
 20
259.9764714608444
 30
0.0
  0
VERTEX
  5
178
  8
CUT_FIRST
 10
329.2337433394826
 20
259.1891795772725
 30
0.0
  0
VERTEX
  5
179
  8
CUT_FIRST
 10
329.6223677008884
 20
258.4111865093399
 30
0.0
  0
VERTEX
  5
17A
  8
CUT_FIRST
 10
330.0319575546548
 20
257.642729429656
 30
0.0
  0
VERTEX
  5
17B
  8
CUT_FIRST
 10
330.4622067701999
 20
256.88404551083
 30
0.0
  0
VERTEX
  5
17C
  8
CUT_FIRST
 10
330.9128092169428
 20
256.135371925473
 30
0.0
  0
VERTEX
  5
17D
  8
CUT_FIRST
 10
331.3834587643024
 20
255.3969458461943
 30
0.0
  0
VERTEX
  5
17E
  8
CUT_FIRST
 10
331.8738492816972
 20
254.6690044456032
 30
0.0
  0
VERTEX
  5
17F
  8
CUT_FIRST
 10
332.3836746385459
 20
253.9517848963105
 30
0.0
  0
VERTEX
  5
180
  8
CUT_FIRST
 10
332.9126287042675
 20
253.2455243709258
 30
0.0
  0
VERTEX
  5
181
  8
CUT_FIRST
 10
333.4604053482808
 20
252.5504600420587
 30
0.0
  0
VERTEX
  5
182
  8
CUT_FIRST
 10
334.0266984400039
 20
251.8668290823191
 30
0.0
  0
VERTEX
  5
183
  8
CUT_FIRST
 10
334.6112018488559
 20
251.1948686643167
 30
0.0
  0
VERTEX
  5
184
  8
CUT_FIRST
 10
335.2136094442557
 20
250.5348159606617
 30
0.0
  0
VERTEX
  5
185
  8
CUT_FIRST
 10
335.8336150956227
 20
249.8869081439639
 30
0.0
  0
VERTEX
  5
186
  8
CUT_FIRST
 10
336.4709126723737
 20
249.2513823868326
 30
0.0
  0
VERTEX
  5
187
  8
CUT_FIRST
 10
337.1251960439291
 20
248.6284758618785
 30
0.0
  0
VERTEX
  5
188
  8
CUT_FIRST
 10
337.7961590797073
 20
248.0184257417114
 30
0.0
  0
VERTEX
  5
189
  8
CUT_FIRST
 10
338.4834956491263
 20
247.4214691989404
 30
0.0
  0
VERTEX
  5
18A
  8
CUT_FIRST
 10
339.186899621606
 20
246.8378434061756
 30
0.0
  0
VERTEX
  5
18B
  8
CUT_FIRST
 10
339.9060648665642
 20
246.267785536027
 30
0.0
  0
VERTEX
  5
18C
  8
CUT_FIRST
 10
340.6406852534201
 20
245.7115327611047
 30
0.0
  0
VERTEX
  5
18D
  8
CUT_FIRST
 10
341.3904546515922
 20
245.169322254018
 30
0.0
  0
VERTEX
  5
18E
  8
CUT_FIRST
 10
342.155066930499
 20
244.6413911873775
 30
0.0
  0
VERTEX
  5
18F
  8
CUT_FIRST
 10
342.9342159595602
 20
244.1279767337921
 30
0.0
  0
VERTEX
  5
190
  8
CUT_FIRST
 10
343.7275956081934
 20
243.6293160658728
 30
0.0
  0
VERTEX
  5
191
  8
CUT_FIRST
 10
344.5348997458177
 20
243.1456463562281
 30
0.0
  0
VERTEX
  5
192
  8
CUT_FIRST
 10
345.3558222418524
 20
242.6772047774691
 30
0.0
  0
VERTEX
  5
193
  8
CUT_FIRST
 10
346.1900569657155
 20
242.2242285022047
 30
0.0
  0
VERTEX
  5
194
  8
CUT_FIRST
 10
347.0372977868259
 20
241.7869547030454
 30
0.0
  0
VERTEX
  5
195
  8
CUT_FIRST
 10
347.8972385746033
 20
241.3656205526008
 30
0.0
  0
VERTEX
  5
196
  8
CUT_FIRST
 10
348.7695731984649
 20
240.9604632234808
 30
0.0
  0
VERTEX
  5
197
  8
CUT_FIRST
 10
349.6539955278301
 20
240.5717198882951
 30
0.0
  0
VERTEX
  5
198
  8
CUT_FIRST
 10
350.5501994321181
 20
240.1996277196539
 30
0.0
  0
VERTEX
  5
199
  8
CUT_FIRST
 10
351.4578787807468
 20
239.8444238901668
 30
0.0
  0
VERTEX
  5
19A
  8
CUT_FIRST
 10
352.3767274431355
 20
239.5063455724434
 30
0.0
  0
VERTEX
  5
19B
  8
CUT_FIRST
 10
353.3064392887022
 20
239.185629939094
 30
0.0
  0
VERTEX
  5
19C
  8
CUT_FIRST
 10
354.2467081868666
 20
238.8825141627279
 30
0.0
  0
VERTEX
  5
19D
  8
CUT_FIRST
 10
355.1972280070471
 20
238.5972354159558
 30
0.0
  0
VERTEX
  5
19E
  8
CUT_FIRST
 10
356.1576926186626
 20
238.3300308713872
 30
0.0
  0
VERTEX
  5
19F
  8
CUT_FIRST
 10
357.1277958911311
 20
238.0811377016313
 30
0.0
  0
VERTEX
  5
1A0
  8
CUT_FIRST
 10
358.1072316938724
 20
237.8507930792991
 30
0.0
  0
VERTEX
  5
1A1
  8
CUT_FIRST
 10
359.0956938963041
 20
237.6392341769994
 30
0.0
  0
VERTEX
  5
1A2
  8
CUT_FIRST
 10
360.0928763678459
 20
237.4466981673426
 30
0.0
  0
VERTEX
  5
1A3
  8
CUT_FIRST
 10
361.0984729779159
 20
237.2734222229383
 30
0.0
  0
VERTEX
  5
1A4
  8
CUT_FIRST
 10
362.1121775959331
 20
237.1196435163968
 30
0.0
  0
VERTEX
  5
1A5
  8
CUT_FIRST
 10
363.1336840913163
 20
236.9855992203272
 30
0.0
  0
VERTEX
  5
1A6
  8
CUT_FIRST
 10
364.1626863334845
 20
236.8715265073403
 30
0.0
  0
VERTEX
  5
1A7
  8
CUT_FIRST
 10
365.1988781918555
 20
236.7776625500448
 30
0.0
  0
VERTEX
  5
1A8
  8
CUT_FIRST
 10
366.2419535358491
 20
236.7042445210515
 30
0.0
  0
VERTEX
  5
1A9
  8
CUT_FIRST
 10
367.2916062348831
 20
236.6515095929701
 30
0.0
  0
VERTEX
  5
1AA
  8
CUT_FIRST
 10
368.3475301583767
 20
236.6196949384104
 30
0.0
  0
VERTEX
  5
1AB
  8
CUT_FIRST
 10
369.4094191757483
 20
236.6090377299816
 30
0.0
  0
VERTEX
  5
1AC
  8
CUT_FIRST
 10
370.4718866576762
 20
236.6196583949586
 30
0.0
  0
VERTEX
  5
1AD
  8
CUT_FIRST
 10
371.5295145943429
 20
236.6513641823475
 30
0.0
  0
VERTEX
  5
1AE
  8
CUT_FIRST
 10
372.5819415043313
 20
236.7039214725821
 30
0.0
  0
VERTEX
  5
1AF
  8
CUT_FIRST
 10
373.6288059062243
 20
236.7770966460948
 30
0.0
  0
VERTEX
  5
1B0
  8
CUT_FIRST
 10
374.6697463186049
 20
236.8706560833196
 30
0.0
  0
VERTEX
  5
1B1
  8
CUT_FIRST
 10
375.7044012600561
 20
236.9843661646892
 30
0.0
  0
VERTEX
  5
1B2
  8
CUT_FIRST
 10
376.7324092491613
 20
237.1179932706371
 30
0.0
  0
VERTEX
  5
1B3
  8
CUT_FIRST
 10
377.7534088045023
 20
237.2713037815966
 30
0.0
  0
VERTEX
  5
1B4
  8
CUT_FIRST
 10
378.7670384446629
 20
237.4440640780008
 30
0.0
  0
VERTEX
  5
1B5
  8
CUT_FIRST
 10
379.772936688226
 20
237.6360405402828
 30
0.0
  0
VERTEX
  5
1B6
  8
CUT_FIRST
 10
380.7707420537738
 20
237.8469995488764
 30
0.0
  0
VERTEX
  5
1B7
  8
CUT_FIRST
 10
381.7600930598907
 20
238.0767074842139
 30
0.0
  0
VERTEX
  5
1B8
  8
CUT_FIRST
 10
382.7406282251585
 20
238.3249307267289
 30
0.0
  0
VERTEX
  5
1B9
  8
CUT_FIRST
 10
383.7119860681603
 20
238.5914356568551
 30
0.0
  0
VERTEX
  5
1BA
  8
CUT_FIRST
 10
384.6738051074791
 20
238.8759886550256
 30
0.0
  0
VERTEX
  5
1BB
  8
CUT_FIRST
 10
385.6257238616979
 20
239.1783561016729
 30
0.0
  0
VERTEX
  5
1BC
  8
CUT_FIRST
 10
386.5673808493996
 20
239.4983043772312
 30
0.0
  0
VERTEX
  5
1BD
  8
CUT_FIRST
 10
387.4984145891673
 20
239.8355998621332
 30
0.0
  0
VERTEX
  5
1BE
  8
CUT_FIRST
 10
388.4184635995836
 20
240.1900089368115
 30
0.0
  0
VERTEX
  5
1BF
  8
CUT_FIRST
 10
389.3271663992317
 20
240.5612979817007
 30
0.0
  0
VERTEX
  5
1C0
  8
CUT_FIRST
 10
390.2241615066947
 20
240.9492333772333
 30
0.0
  0
VERTEX
  5
1C1
  8
CUT_FIRST
 10
391.1090874405551
 20
241.3535815038427
 30
0.0
  0
VERTEX
  5
1C2
  8
CUT_FIRST
 10
391.9815827193962
 20
241.7741087419618
 30
0.0
  0
VERTEX
  5
1C3
  8
CUT_FIRST
 10
392.8412858618003
 20
242.2105814720241
 30
0.0
  0
VERTEX
  5
1C4
  8
CUT_FIRST
 10
393.6878353863516
 20
242.6627660744623
 30
0.0
  0
VERTEX
  5
1C5
  8
CUT_FIRST
 10
394.5208698116318
 20
243.1304289297113
 30
0.0
  0
VERTEX
  5
1C6
  8
CUT_FIRST
 10
395.3400276562249
 20
243.6133364182023
 30
0.0
  0
VERTEX
  5
1C7
  8
CUT_FIRST
 10
396.1449474387126
 20
244.1112549203694
 30
0.0
  0
VERTEX
  5
1C8
  8
CUT_FIRST
 10
396.9352676776789
 20
244.6239508166459
 30
0.0
  0
VERTEX
  5
1C9
  8
CUT_FIRST
 10
397.7106268917064
 20
245.1511904874647
 30
0.0
  0
VERTEX
  5
1CA
  8
CUT_FIRST
 10
398.4706635993775
 20
245.6927403132596
 30
0.0
  0
VERTEX
  5
1CB
  8
CUT_FIRST
 10
399.2150163192765
 20
246.2483666744633
 30
0.0
  0
VERTEX
  5
1CC
  8
CUT_FIRST
 10
399.9433235699846
 20
246.8178359515092
 30
0.0
  0
VERTEX
  5
1CD
  8
CUT_FIRST
 10
400.6552238700862
 20
247.4009145248307
 30
0.0
  0
VERTEX
  5
1CE
  8
CUT_FIRST
 10
401.3503557381631
 20
247.9973687748607
 30
0.0
  0
VERTEX
  5
1CF
  8
CUT_FIRST
 10
402.0283576927992
 20
248.6069650820332
 30
0.0
  0
VERTEX
  5
1D0
  8
CUT_FIRST
 10
402.6888682525769
 20
249.2294698267801
 30
0.0
  0
VERTEX
  5
1D1
  8
CUT_FIRST
 10
403.3315259360795
 20
249.8646493895351
 30
0.0
  0
VERTEX
  5
1D2
  8
CUT_FIRST
 10
403.9559692618895
 20
250.5122701507321
 30
0.0
  0
VERTEX
  5
1D3
  8
CUT_FIRST
 10
404.5618367485899
 20
251.1720984908046
 30
0.0
  0
VERTEX
  5
1D4
  8
CUT_FIRST
 10
405.1487669147643
 20
251.8439007901848
 30
0.0
  0
VERTEX
  5
1D5
  8
CUT_FIRST
 10
405.7163982789943
 20
252.5274434293057
 30
0.0
  0
VERTEX
  5
1D6
  8
CUT_FIRST
 10
406.2643693598641
 20
253.2224927886014
 30
0.0
  0
VERTEX
  5
1D7
  8
CUT_FIRST
 10
406.7923186759567
 20
253.9288152485049
 30
0.0
  0
VERTEX
  5
1D8
  8
CUT_FIRST
 10
407.2998847458543
 20
254.6461771894493
 30
0.0
  0
VERTEX
  5
1D9
  8
CUT_FIRST
 10
407.7867060881398
 20
255.3743449918677
 30
0.0
  0
VERTEX
  5
1DA
  8
CUT_FIRST
 10
408.252421221397
 20
256.1130850361939
 30
0.0
  0
VERTEX
  5
1DB
  8
CUT_FIRST
 10
408.6966686642074
 20
256.8621637028609
 30
0.0
  0
VERTEX
  5
1DC
  8
CUT_FIRST
 10
409.1190869351557
 20
257.6213473723012
 30
0.0
  0
VERTEX
  5
1DD
  8
CUT_FIRST
 10
409.5193145528234
 20
258.3904024249489
 30
0.0
  0
VERTEX
  5
1DE
  8
CUT_FIRST
 10
409.8969900357941
 20
259.1690952412366
 30
0.0
  0
VERTEX
  5
1DF
  8
CUT_FIRST
 10
410.2517519026505
 20
259.9571922015982
 30
0.0
  0
VERTEX
  5
1E0
  8
CUT_FIRST
 10
410.5832386719761
 20
260.7544596864666
 30
0.0
  0
VERTEX
  5
1E1
  8
CUT_FIRST
 10
410.8910888623534
 20
261.5606640762749
 30
0.0
  0
VERTEX
  5
1E2
  8
CUT_FIRST
 10
411.1749409923652
 20
262.3755717514567
 30
0.0
  0
VERTEX
  5
1E3
  8
CUT_FIRST
 10
411.4344335805948
 20
263.1989490924449
 30
0.0
  0
VERTEX
  5
1E4
  8
CUT_FIRST
 10
411.6692051456248
 20
264.0305624796727
 30
0.0
  0
VERTEX
  5
1E5
  8
CUT_FIRST
 10
411.8788942060379
 20
264.8701782935735
 30
0.0
  0
VERTEX
  5
1E6
  8
CUT_FIRST
 10
412.0631392804178
 20
265.7175629145804
 30
0.0
  0
VERTEX
  5
1E7
  8
CUT_FIRST
 10
412.2215788873473
 20
266.5724827231268
 30
0.0
  0
VERTEX
  5
1E8
  8
CUT_FIRST
 10
412.3538515454087
 20
267.4347040996461
 30
0.0
  0
VERTEX
  5
1E9
  8
CUT_FIRST
 10
412.4595957731858
 20
268.3039934245708
 30
0.0
  0
VERTEX
  5
1EA
  8
CUT_FIRST
 10
412.5384500892603
 20
269.1801170783348
 30
0.0
  0
VERTEX
  5
1EB
  8
CUT_FIRST
 10
412.5900530122166
 20
270.0628414413711
 30
0.0
  0
VERTEX
  5
1EC
  8
CUT_FIRST
 10
412.6241985163598
 20
271.2029659883266
 30
0.0
  0
VERTEX
  5
1ED
  8
CUT_FIRST
 10
412.6355803510738
 20
272.4326890093932
 30
0.0
  0
VERTEX
  5
1EE
  8
CUT_FIRST
 10
412.624198516359
 20
273.6624120304599
 30
0.0
  0
VERTEX
  5
1EF
  8
CUT_FIRST
 10
412.5900530122166
 20
274.8025365774149
 30
0.0
  0
VERTEX
  5
1F0
  8
CUT_FIRST
 10
412.5384500892603
 20
275.6852609404706
 30
0.0
  0
VERTEX
  5
1F1
  8
CUT_FIRST
 10
412.4595957731858
 20
276.5613845942528
 30
0.0
  0
VERTEX
  5
1F2
  8
CUT_FIRST
 10
412.3538515454087
 20
277.430673919196
 30
0.0
  0
VERTEX
  5
1F3
  8
CUT_FIRST
 10
412.2215788873473
 20
278.2928952957323
 30
0.0
  0
VERTEX
  5
1F4
  8
CUT_FIRST
 10
412.0631392804178
 20
279.1478151042953
 30
0.0
  0
VERTEX
  5
1F5
  8
CUT_FIRST
 10
411.8788942060379
 20
279.9951997253189
 30
0.0
  0
VERTEX
  5
1F6
  8
CUT_FIRST
 10
411.6692051456248
 20
280.8348155392353
 30
0.0
  0
VERTEX
  5
1F7
  8
CUT_FIRST
 10
411.4344335805948
 20
281.6664289264783
 30
0.0
  0
VERTEX
  5
1F8
  8
CUT_FIRST
 10
411.1749409923652
 20
282.4898062674811
 30
0.0
  0
VERTEX
  5
1F9
  8
CUT_FIRST
 10
410.8910888623534
 20
283.304713942677
 30
0.0
  0
VERTEX
  5
1FA
  8
CUT_FIRST
 10
410.5832386719761
 20
284.1109183324988
 30
0.0
  0
VERTEX
  5
1FB
  8
CUT_FIRST
 10
410.2517519026505
 20
284.9081858173802
 30
0.0
  0
VERTEX
  5
1FC
  8
CUT_FIRST
 10
409.8969900357941
 20
285.6962827777542
 30
0.0
  0
VERTEX
  5
1FD
  8
CUT_FIRST
 10
409.5193145528234
 20
286.4749755940549
 30
0.0
  0
VERTEX
  5
1FE
  8
CUT_FIRST
 10
409.1190869351557
 20
287.2440306467142
 30
0.0
  0
VERTEX
  5
1FF
  8
CUT_FIRST
 10
408.6966686642074
 20
288.0032143161656
 30
0.0
  0
VERTEX
  5
200
  8
CUT_FIRST
 10
408.252421221397
 20
288.7522929828432
 30
0.0
  0
VERTEX
  5
201
  8
CUT_FIRST
 10
407.7867060881398
 20
289.4910330271796
 30
0.0
  0
VERTEX
  5
202
  8
CUT_FIRST
 10
407.2998847458543
 20
290.2192008296079
 30
0.0
  0
VERTEX
  5
203
  8
CUT_FIRST
 10
406.7923186759567
 20
290.936562770562
 30
0.0
  0
VERTEX
  5
204
  8
CUT_FIRST
 10
406.2643693598641
 20
291.6428852304741
 30
0.0
  0
VERTEX
  5
205
  8
CUT_FIRST
 10
405.7163982789943
 20
292.3379345897786
 30
0.0
  0
VERTEX
  5
206
  8
CUT_FIRST
 10
405.1487669147643
 20
293.0214772289082
 30
0.0
  0
VERTEX
  5
207
  8
CUT_FIRST
 10
404.5618367485899
 20
293.6932795282958
 30
0.0
  0
VERTEX
  5
208
  8
CUT_FIRST
 10
403.9559692618895
 20
294.3531078683752
 30
0.0
  0
VERTEX
  5
209
  8
CUT_FIRST
 10
403.3315259360795
 20
295.000728629579
 30
0.0
  0
VERTEX
  5
20A
  8
CUT_FIRST
 10
402.6888682525769
 20
295.6359081923413
 30
0.0
  0
VERTEX
  5
20B
  8
CUT_FIRST
 10
402.0283576927992
 20
296.2584129370946
 30
0.0
  0
VERTEX
  5
20C
  8
CUT_FIRST
 10
401.3503557381631
 20
296.8680092442731
 30
0.0
  0
VERTEX
  5
20D
  8
CUT_FIRST
 10
400.6552238700862
 20
297.4644634943088
 30
0.0
  0
VERTEX
  5
20E
  8
CUT_FIRST
 10
399.9433235699846
 20
298.0475420676354
 30
0.0
  0
VERTEX
  5
20F
  8
CUT_FIRST
 10
399.2150163192765
 20
298.6170113446865
 30
0.0
  0
VERTEX
  5
210
  8
CUT_FIRST
 10
398.4706635993775
 20
299.1726377058947
 30
0.0
  0
VERTEX
  5
211
  8
CUT_FIRST
 10
397.7106268917064
 20
299.7141875316942
 30
0.0
  0
VERTEX
  5
212
  8
CUT_FIRST
 10
396.9352676776789
 20
300.2414272025175
 30
0.0
  0
VERTEX
  5
213
  8
CUT_FIRST
 10
396.1449474387126
 20
300.7541230987978
 30
0.0
  0
VERTEX
  5
214
  8
CUT_FIRST
 10
395.3400276562249
 20
301.2520416009687
 30
0.0
  0
VERTEX
  5
215
  8
CUT_FIRST
 10
394.5208698116318
 20
301.7349490894627
 30
0.0
  0
VERTEX
  5
216
  8
CUT_FIRST
 10
393.6878353863516
 20
302.2026119447147
 30
0.0
  0
VERTEX
  5
217
  8
CUT_FIRST
 10
392.8412858618003
 20
302.6547965471559
 30
0.0
  0
VERTEX
  5
218
  8
CUT_FIRST
 10
391.9815827193962
 20
303.0912692772205
 30
0.0
  0
VERTEX
  5
219
  8
CUT_FIRST
 10
391.1090874405551
 20
303.5117965153426
 30
0.0
  0
VERTEX
  5
21A
  8
CUT_FIRST
 10
390.2241615066947
 20
303.9161446419539
 30
0.0
  0
VERTEX
  5
21B
  8
CUT_FIRST
 10
389.3271663992317
 20
304.3040800374885
 30
0.0
  0
VERTEX
  5
21C
  8
CUT_FIRST
 10
388.4184635995836
 20
304.6753690823795
 30
0.0
  0
VERTEX
  5
21D
  8
CUT_FIRST
 10
387.4984145891673
 20
305.0297781570597
 30
0.0
  0
VERTEX
  5
21E
  8
CUT_FIRST
 10
386.5673808493996
 20
305.3670736419632
 30
0.0
  0
VERTEX
  5
21F
  8
CUT_FIRST
 10
385.6257238616979
 20
305.6870219175227
 30
0.0
  0
VERTEX
  5
220
  8
CUT_FIRST
 10
384.6738051074791
 20
305.9893893641711
 30
0.0
  0
VERTEX
  5
221
  8
CUT_FIRST
 10
383.7119860681603
 20
306.2739423623424
 30
0.0
  0
VERTEX
  5
222
  8
CUT_FIRST
 10
382.7406282251585
 20
306.5404472924693
 30
0.0
  0
VERTEX
  5
223
  8
CUT_FIRST
 10
381.7600930598907
 20
306.7886705349858
 30
0.0
  0
VERTEX
  5
224
  8
CUT_FIRST
 10
380.7707420537738
 20
307.0183784703233
 30
0.0
  0
VERTEX
  5
225
  8
CUT_FIRST
 10
379.772936688226
 20
307.2293374789173
 30
0.0
  0
VERTEX
  5
226
  8
CUT_FIRST
 10
378.7670384446629
 20
307.4213139411997
 30
0.0
  0
VERTEX
  5
227
  8
CUT_FIRST
 10
377.7534088045023
 20
307.5940742376046
 30
0.0
  0
VERTEX
  5
228
  8
CUT_FIRST
 10
376.7324092491613
 20
307.7473847485641
 30
0.0
  0
VERTEX
  5
229
  8
CUT_FIRST
 10
375.7044012600561
 20
307.8810118545123
 30
0.0
  0
VERTEX
  5
22A
  8
CUT_FIRST
 10
374.6697463186049
 20
307.9947219358819
 30
0.0
  0
VERTEX
  5
22B
  8
CUT_FIRST
 10
373.6288059062243
 20
308.0882813731068
 30
0.0
  0
VERTEX
  5
22C
  8
CUT_FIRST
 10
372.5819415043313
 20
308.1614565466199
 30
0.0
  0
VERTEX
  5
22D
  8
CUT_FIRST
 10
371.5295145943429
 20
308.2140138368537
 30
0.0
  0
VERTEX
  5
22E
  8
CUT_FIRST
 10
370.4718866576762
 20
308.2457196242431
 30
0.0
  0
VERTEX
  5
22F
  8
CUT_FIRST
 10
369.4094191757483
 20
308.2563402892196
 30
0.0
  0
VERTEX
  5
230
  8
CUT_FIRST
 10
368.3475301583767
 20
308.2456830807915
 30
0.0
  0
VERTEX
  5
231
  8
CUT_FIRST
 10
367.2916062348831
 20
308.2138684262314
 30
0.0
  0
VERTEX
  5
232
  8
CUT_FIRST
 10
366.2419535358491
 20
308.1611334981501
 30
0.0
  0
VERTEX
  5
233
  8
CUT_FIRST
 10
365.1988781918555
 20
308.0877154691568
 30
0.0
  0
VERTEX
  5
234
  8
CUT_FIRST
 10
364.1626863334845
 20
307.9938515118616
 30
0.0
  0
VERTEX
  5
235
  8
CUT_FIRST
 10
363.1336840913163
 20
307.8797787988743
 30
0.0
  0
VERTEX
  5
236
  8
CUT_FIRST
 10
362.1121775959331
 20
307.745734502805
 30
0.0
  0
VERTEX
  5
237
  8
CUT_FIRST
 10
361.0984729779159
 20
307.5919557962631
 30
0.0
  0
VERTEX
  5
238
  8
CUT_FIRST
 10
360.0928763678459
 20
307.4186798518591
 30
0.0
  0
VERTEX
  5
239
  8
CUT_FIRST
 10
359.0956938963041
 20
307.2261438422022
 30
0.0
  0
VERTEX
  5
23A
  8
CUT_FIRST
 10
358.1072316938724
 20
307.0145849399029
 30
0.0
  0
VERTEX
  5
23B
  8
CUT_FIRST
 10
357.1277958911311
 20
306.78424031757
 30
0.0
  0
VERTEX
  5
23C
  8
CUT_FIRST
 10
356.1576926186626
 20
306.535347147814
 30
0.0
  0
VERTEX
  5
23D
  8
CUT_FIRST
 10
355.1972280070471
 20
306.2681426032455
 30
0.0
  0
VERTEX
  5
23E
  8
CUT_FIRST
 10
354.2467081868666
 20
305.9828638564733
 30
0.0
  0
VERTEX
  5
23F
  8
CUT_FIRST
 10
353.3064392887022
 20
305.6797480801075
 30
0.0
  0
VERTEX
  5
240
  8
CUT_FIRST
 10
352.3767274431355
 20
305.3590324467583
 30
0.0
  0
VERTEX
  5
241
  8
CUT_FIRST
 10
351.4578787807468
 20
305.0209541290349
 30
0.0
  0
VERTEX
  5
242
  8
CUT_FIRST
 10
350.5501994321181
 20
304.6657502995481
 30
0.0
  0
VERTEX
  5
243
  8
CUT_FIRST
 10
349.6539955278301
 20
304.2936581309066
 30
0.0
  0
VERTEX
  5
244
  8
CUT_FIRST
 10
348.7695731984649
 20
303.9049147957212
 30
0.0
  0
VERTEX
  5
245
  8
CUT_FIRST
 10
347.8972385746033
 20
303.4997574666007
 30
0.0
  0
VERTEX
  5
246
  8
CUT_FIRST
 10
347.0372977868259
 20
303.0784233161559
 30
0.0
  0
VERTEX
  5
247
  8
CUT_FIRST
 10
346.1900569657155
 20
302.641149516997
 30
0.0
  0
VERTEX
  5
248
  8
CUT_FIRST
 10
345.3558222418524
 20
302.1881732417326
 30
0.0
  0
VERTEX
  5
249
  8
CUT_FIRST
 10
344.5348997458177
 20
301.7197316629735
 30
0.0
  0
VERTEX
  5
24A
  8
CUT_FIRST
 10
343.7275956081934
 20
301.2360619533291
 30
0.0
  0
VERTEX
  5
24B
  8
CUT_FIRST
 10
342.9342159595602
 20
300.7374012854092
 30
0.0
  0
VERTEX
  5
24C
  8
CUT_FIRST
 10
342.155066930499
 20
300.2239868318242
 30
0.0
  0
VERTEX
  5
24D
  8
CUT_FIRST
 10
341.3904546515922
 20
299.6960557651832
 30
0.0
  0
VERTEX
  5
24E
  8
CUT_FIRST
 10
340.6406852534201
 20
299.1538452580969
 30
0.0
  0
VERTEX
  5
24F
  8
CUT_FIRST
 10
339.9060648665642
 20
298.5975924831743
 30
0.0
  0
VERTEX
  5
250
  8
CUT_FIRST
 10
339.186899621606
 20
298.0275346130261
 30
0.0
  0
VERTEX
  5
251
  8
CUT_FIRST
 10
338.4834956491263
 20
297.4439088202616
 30
0.0
  0
VERTEX
  5
252
  8
CUT_FIRST
 10
337.7961590797073
 20
296.8469522774906
 30
0.0
  0
VERTEX
  5
253
  8
CUT_FIRST
 10
337.1251960439291
 20
296.2369021573228
 30
0.0
  0
VERTEX
  5
254
  8
CUT_FIRST
 10
336.4709126723737
 20
295.6139956323686
 30
0.0
  0
VERTEX
  5
255
  8
CUT_FIRST
 10
335.8336150956227
 20
294.9784698752378
 30
0.0
  0
VERTEX
  5
256
  8
CUT_FIRST
 10
335.2136094442557
 20
294.33056205854
 30
0.0
  0
VERTEX
  5
257
  8
CUT_FIRST
 10
334.6112018488559
 20
293.6705093548849
 30
0.0
  0
VERTEX
  5
258
  8
CUT_FIRST
 10
334.0266984400039
 20
292.9985489368827
 30
0.0
  0
VERTEX
  5
259
  8
CUT_FIRST
 10
333.4604053482808
 20
292.3149179771434
 30
0.0
  0
VERTEX
  5
25A
  8
CUT_FIRST
 10
332.9126287042675
 20
291.6198536482756
 30
0.0
  0
VERTEX
  5
25B
  8
CUT_FIRST
 10
332.3836746385459
 20
290.9135931228908
 30
0.0
  0
VERTEX
  5
25C
  8
CUT_FIRST
 10
331.8738492816972
 20
290.1963735735984
 30
0.0
  0
VERTEX
  5
25D
  8
CUT_FIRST
 10
331.3834587643024
 20
289.4684321730078
 30
0.0
  0
VERTEX
  5
25E
  8
CUT_FIRST
 10
330.9128092169428
 20
288.730006093729
 30
0.0
  0
VERTEX
  5
25F
  8
CUT_FIRST
 10
330.4622067701999
 20
287.9813325083715
 30
0.0
  0
VERTEX
  5
260
  8
CUT_FIRST
 10
330.0319575546548
 20
287.2226485895461
 30
0.0
  0
VERTEX
  5
261
  8
CUT_FIRST
 10
329.6223677008884
 20
286.4541915098622
 30
0.0
  0
VERTEX
  5
262
  8
CUT_FIRST
 10
329.2337433394826
 20
285.6761984419292
 30
0.0
  0
VERTEX
  5
263
  8
CUT_FIRST
 10
328.8663906010183
 20
284.8889065583573
 30
0.0
  0
VERTEX
  5
264
  8
CUT_FIRST
 10
328.5206156160768
 20
284.0925530317567
 30
0.0
  0
VERTEX
  5
265
  8
CUT_FIRST
 10
328.1967245152399
 20
283.2873750347364
 30
0.0
  0
VERTEX
  5
266
  8
CUT_FIRST
 10
327.895023429088
 20
282.4736097399077
 30
0.0
  0
VERTEX
  5
267
  8
CUT_FIRST
 10
327.6158184882032
 20
281.6514943198788
 30
0.0
  0
VERTEX
  5
268
  8
CUT_FIRST
 10
327.3594158231659
 20
280.8212659472606
 30
0.0
  0
VERTEX
  5
269
  8
CUT_FIRST
 10
327.126121564558
 20
279.9831617946621
 30
0.0
  0
VERTEX
  5
26A
  8
CUT_FIRST
 10
326.9162418429603
 20
279.1374190346938
 30
0.0
  0
VERTEX
  5
26B
  8
CUT_FIRST
 10
326.7300827889549
 20
278.2842748399659
 30
0.0
  0
VERTEX
  5
26C
  8
CUT_FIRST
 10
326.567950533122
 20
277.4239663830878
 30
0.0
  0
VERTEX
  5
26D
  8
CUT_FIRST
 10
326.4301512060438
 20
276.556730836669
 30
0.0
  0
VERTEX
  5
26E
  8
CUT_FIRST
 10
326.3169909383008
 20
275.68280537332
 30
0.0
  0
VERTEX
  5
26F
  8
CUT_FIRST
 10
326.2287758604746
 20
274.80242716565
 30
0.0
  0
SEQEND
  5
45F
  8
CUT_FIRST
  0
POLYLINE
  5
7B
  8
CUT_FIRST
 66
     1
 10
0.0
 20
0.0
 30
0.0
 70
     1
  0
VERTEX
  5
270
  8
CUT_FIRST
 10
151.1989015797255
 20
278.3734083109754
 30
0.0
  0
VERTEX
  5
271
  8
CUT_FIRST
 10
110.8586839142051
 20
278.3734594184992
 30
0.0
  0
VERTEX
  5
272
  8
CUT_FIRST
 10
110.8586383561515
 20
270.0629508535518
 30
0.0
  0
VERTEX
  5
273
  8
CUT_FIRST
 10
110.9468534339778
 20
269.1825726458818
 30
0.0
  0
VERTEX
  5
274
  8
CUT_FIRST
 10
111.0600137017205
 20
268.3086471825332
 30
0.0
  0
VERTEX
  5
275
  8
CUT_FIRST
 10
111.1978130287993
 20
267.4414116361139
 30
0.0
  0
VERTEX
  5
276
  8
CUT_FIRST
 10
111.3599452846318
 20
266.5811031792358
 30
0.0
  0
VERTEX
  5
277
  8
CUT_FIRST
 10
111.5461043386376
 20
265.7279589845075
 30
0.0
  0
VERTEX
  5
278
  8
CUT_FIRST
 10
111.7559840602352
 20
264.8822162245395
 30
0.0
  0
VERTEX
  5
279
  8
CUT_FIRST
 10
111.9892783188431
 20
264.0441120719415
 30
0.0
  0
VERTEX
  5
27A
  8
CUT_FIRST
 10
112.2456809838801
 20
263.213883699323
 30
0.0
  0
VERTEX
  5
27B
  8
CUT_FIRST
 10
112.5248859247654
 20
262.3917682792944
 30
0.0
  0
VERTEX
  5
27C
  8
CUT_FIRST
 10
112.8265870109171
 20
261.5780029844649
 30
0.0
  0
VERTEX
  5
27D
  8
CUT_FIRST
 10
113.150478111754
 20
260.7728249874455
 30
0.0
  0
VERTEX
  5
27E
  8
CUT_FIRST
 10
113.4962530966954
 20
259.9764714608444
 30
0.0
  0
VERTEX
  5
27F
  8
CUT_FIRST
 10
113.8636058351597
 20
259.1891795772725
 30
0.0
  0
VERTEX
  5
280
  8
CUT_FIRST
 10
114.2522301965653
 20
258.4111865093399
 30
0.0
  0
VERTEX
  5
281
  8
CUT_FIRST
 10
114.6618200503313
 20
257.642729429656
 30
0.0
  0
VERTEX
  5
282
  8
CUT_FIRST
 10
115.0920692658766
 20
256.88404551083
 30
0.0
  0
VERTEX
  5
283
  8
CUT_FIRST
 10
115.5426717126198
 20
256.135371925473
 30
0.0
  0
VERTEX
  5
284
  8
CUT_FIRST
 10
116.0133212599793
 20
255.3969458461943
 30
0.0
  0
VERTEX
  5
285
  8
CUT_FIRST
 10
116.5037117773741
 20
254.6690044456032
 30
0.0
  0
VERTEX
  5
286
  8
CUT_FIRST
 10
117.0135371342229
 20
253.9517848963105
 30
0.0
  0
VERTEX
  5
287
  8
CUT_FIRST
 10
117.5424911999446
 20
253.2455243709258
 30
0.0
  0
VERTEX
  5
288
  8
CUT_FIRST
 10
118.0902678439572
 20
252.5504600420587
 30
0.0
  0
VERTEX
  5
289
  8
CUT_FIRST
 10
118.6565609356808
 20
251.8668290823191
 30
0.0
  0
VERTEX
  5
28A
  8
CUT_FIRST
 10
119.241064344533
 20
251.1948686643167
 30
0.0
  0
VERTEX
  5
28B
  8
CUT_FIRST
 10
119.843471939933
 20
250.5348159606617
 30
0.0
  0
VERTEX
  5
28C
  8
CUT_FIRST
 10
120.4634775912994
 20
249.8869081439639
 30
0.0
  0
VERTEX
  5
28D
  8
CUT_FIRST
 10
121.1007751680509
 20
249.2513823868326
 30
0.0
  0
VERTEX
  5
28E
  8
CUT_FIRST
 10
121.7550585396057
 20
248.6284758618785
 30
0.0
  0
VERTEX
  5
28F
  8
CUT_FIRST
 10
122.4260215753841
 20
248.0184257417114
 30
0.0
  0
VERTEX
  5
290
  8
CUT_FIRST
 10
123.1133581448034
 20
247.4214691989404
 30
0.0
  0
VERTEX
  5
291
  8
CUT_FIRST
 10
123.8167621172824
 20
246.8378434061756
 30
0.0
  0
VERTEX
  5
292
  8
CUT_FIRST
 10
124.5359273622408
 20
246.267785536027
 30
0.0
  0
VERTEX
  5
293
  8
CUT_FIRST
 10
125.2705477490966
 20
245.7115327611047
 30
0.0
  0
VERTEX
  5
294
  8
CUT_FIRST
 10
126.0203171472687
 20
245.169322254018
 30
0.0
  0
VERTEX
  5
295
  8
CUT_FIRST
 10
126.7849294261759
 20
244.6413911873775
 30
0.0
  0
VERTEX
  5
296
  8
CUT_FIRST
 10
127.5640784552366
 20
244.1279767337921
 30
0.0
  0
VERTEX
  5
297
  8
CUT_FIRST
 10
128.3574581038702
 20
243.6293160658728
 30
0.0
  0
VERTEX
  5
298
  8
CUT_FIRST
 10
129.1647622414943
 20
243.1456463562281
 30
0.0
  0
VERTEX
  5
299
  8
CUT_FIRST
 10
129.9856847375288
 20
242.6772047774691
 30
0.0
  0
VERTEX
  5
29A
  8
CUT_FIRST
 10
130.8199194613923
 20
242.2242285022047
 30
0.0
  0
VERTEX
  5
29B
  8
CUT_FIRST
 10
131.6671602825028
 20
241.7869547030454
 30
0.0
  0
VERTEX
  5
29C
  8
CUT_FIRST
 10
132.5271010702799
 20
241.3656205526008
 30
0.0
  0
VERTEX
  5
29D
  8
CUT_FIRST
 10
133.3994356941414
 20
240.9604632234808
 30
0.0
  0
VERTEX
  5
29E
  8
CUT_FIRST
 10
134.2838580235067
 20
240.5717198882951
 30
0.0
  0
VERTEX
  5
29F
  8
CUT_FIRST
 10
135.1800619277944
 20
240.1996277196539
 30
0.0
  0
VERTEX
  5
2A0
  8
CUT_FIRST
 10
136.087741276423
 20
239.8444238901668
 30
0.0
  0
VERTEX
  5
2A1
  8
CUT_FIRST
 10
137.0065899388116
 20
239.5063455724434
 30
0.0
  0
VERTEX
  5
2A2
  8
CUT_FIRST
 10
137.9363017843787
 20
239.185629939094
 30
0.0
  0
VERTEX
  5
2A3
  8
CUT_FIRST
 10
138.8765706825432
 20
238.8825141627279
 30
0.0
  0
VERTEX
  5
2A4
  8
CUT_FIRST
 10
139.8270905027238
 20
238.5972354159558
 30
0.0
  0
VERTEX
  5
2A5
  8
CUT_FIRST
 10
140.7875551143388
 20
238.3300308713872
 30
0.0
  0
VERTEX
  5
2A6
  8
CUT_FIRST
 10
141.7576583868076
 20
238.0811377016313
 30
0.0
  0
VERTEX
  5
2A7
  8
CUT_FIRST
 10
142.7370941895488
 20
237.8507930792991
 30
0.0
  0
VERTEX
  5
2A8
  8
CUT_FIRST
 10
143.7255563919807
 20
237.6392341769994
 30
0.0
  0
VERTEX
  5
2A9
  8
CUT_FIRST
 10
144.7227388635223
 20
237.4466981673426
 30
0.0
  0
VERTEX
  5
2AA
  8
CUT_FIRST
 10
145.7283354735924
 20
237.2734222229383
 30
0.0
  0
VERTEX
  5
2AB
  8
CUT_FIRST
 10
146.7420400916098
 20
237.1196435163968
 30
0.0
  0
VERTEX
  5
2AC
  8
CUT_FIRST
 10
147.7635465869925
 20
236.9855992203272
 30
0.0
  0
VERTEX
  5
2AD
  8
CUT_FIRST
 10
148.7925488291603
 20
236.8715265073403
 30
0.0
  0
VERTEX
  5
2AE
  8
CUT_FIRST
 10
149.8287406875319
 20
236.7776625500448
 30
0.0
  0
VERTEX
  5
2AF
  8
CUT_FIRST
 10
150.8718160315247
 20
236.7042445210515
 30
0.0
  0
VERTEX
  5
2B0
  8
CUT_FIRST
 10
151.9214687305589
 20
236.6515095929701
 30
0.0
  0
VERTEX
  5
2B1
  8
CUT_FIRST
 10
152.9773926540528
 20
236.6196949384104
 30
0.0
  0
VERTEX
  5
2B2
  8
CUT_FIRST
 10
154.0392816714247
 20
236.6090377299816
 30
0.0
  0
VERTEX
  5
2B3
  8
CUT_FIRST
 10
155.1011679459689
 20
236.619695676023
 30
0.0
  0
VERTEX
  5
2B4
  8
CUT_FIRST
 10
156.15708916254
 20
236.6515109395532
 30
0.0
  0
VERTEX
  5
2B5
  8
CUT_FIRST
 10
157.2067391928058
 20
236.7042463504278
 30
0.0
  0
VERTEX
  5
2B6
  8
CUT_FIRST
 10
158.2498119084332
 20
236.7776647385031
 30
0.0
  0
VERTEX
  5
2B7
  8
CUT_FIRST
 10
159.2860011810892
 20
236.8715289336347
 30
0.0
  0
VERTEX
  5
2B8
  8
CUT_FIRST
 10
160.3150008824413
 20
236.985601765678
 30
0.0
  0
VERTEX
  5
2B9
  8
CUT_FIRST
 10
161.3365048841559
 20
237.1196460644878
 30
0.0
  0
VERTEX
  5
2BA
  8
CUT_FIRST
 10
162.3502070579009
 20
237.2734246599217
 30
0.0
  0
VERTEX
  5
2BB
  8
CUT_FIRST
 10
163.3558012753427
 20
237.4467003818341
 30
0.0
  0
VERTEX
  5
2BC
  8
CUT_FIRST
 10
164.3529814081487
 20
237.6392360600803
 30
0.0
  0
VERTEX
  5
2BD
  8
CUT_FIRST
 10
165.3414413279866
 20
237.8507945245173
 30
0.0
  0
VERTEX
  5
2BE
  8
CUT_FIRST
 10
166.3208749065223
 20
238.0811386049996
 30
0.0
  0
VERTEX
  5
2BF
  8
CUT_FIRST
 10
167.290976015424
 20
238.3300311313839
 30
0.0
  0
VERTEX
  5
2C0
  8
CUT_FIRST
 10
168.2514385263583
 20
238.5972349335246
 30
0.0
  0
VERTEX
  5
2C1
  8
CUT_FIRST
 10
169.2019563109928
 20
238.882512841279
 30
0.0
  0
VERTEX
  5
2C2
  8
CUT_FIRST
 10
170.1422232409933
 20
239.185627684501
 30
0.0
  0
VERTEX
  5
2C3
  8
CUT_FIRST
 10
171.0719331880286
 20
239.5063422930477
 30
0.0
  0
VERTEX
  5
2C4
  8
CUT_FIRST
 10
171.9907800237651
 20
239.844419496774
 30
0.0
  0
VERTEX
  5
2C5
  8
CUT_FIRST
 10
172.898457619869
 20
240.1996221255362
 30
0.0
  0
VERTEX
  5
2C6
  8
CUT_FIRST
 10
173.7946598480089
 20
240.5717130091891
 30
0.0
  0
VERTEX
  5
2C7
  8
CUT_FIRST
 10
174.6790805798512
 20
240.9604549775892
 30
0.0
  0
VERTEX
  5
2C8
  8
CUT_FIRST
 10
175.5514136870629
 20
241.3656108605919
 30
0.0
  0
VERTEX
  5
2C9
  8
CUT_FIRST
 10
176.4113530413115
 20
241.7869434880524
 30
0.0
  0
VERTEX
  5
2CA
  8
CUT_FIRST
 10
177.2585925142635
 20
242.2242156898269
 30
0.0
  0
VERTEX
  5
2CB
  8
CUT_FIRST
 10
178.0928259775868
 20
242.6771902957712
 30
0.0
  0
VERTEX
  5
2CC
  8
CUT_FIRST
 10
178.9137473029478
 20
243.1456301357405
 30
0.0
  0
VERTEX
  5
2CD
  8
CUT_FIRST
 10
179.7210503620139
 20
243.6292980395912
 30
0.0
  0
VERTEX
  5
2CE
  8
CUT_FIRST
 10
180.5144290264526
 20
244.127956837178
 30
0.0
  0
VERTEX
  5
2CF
  8
CUT_FIRST
 10
181.2935771679307
 20
244.6413693583575
 30
0.0
  0
VERTEX
  5
2D0
  8
CUT_FIRST
 10
182.0581886581147
 20
245.1692984329847
 30
0.0
  0
VERTEX
  5
2D1
  8
CUT_FIRST
 10
182.8079573686724
 20
245.7115068909156
 30
0.0
  0
VERTEX
  5
2D2
  8
CUT_FIRST
 10
183.542577171271
 20
246.2677575620053
 30
0.0
  0
VERTEX
  5
2D3
  8
CUT_FIRST
 10
184.2617419375777
 20
246.8378132761109
 30
0.0
  0
VERTEX
  5
2D4
  8
CUT_FIRST
 10
184.9651455392592
 20
247.4214368630865
 30
0.0
  0
VERTEX
  5
2D5
  8
CUT_FIRST
 10
185.6524818479822
 20
248.0183911527889
 30
0.0
  0
VERTEX
  5
2D6
  8
CUT_FIRST
 10
186.3234447354147
 20
248.6284389750726
 30
0.0
  0
VERTEX
  5
2D7
  8
CUT_FIRST
 10
186.9777280732231
 20
249.2513431597943
 30
0.0
  0
VERTEX
  5
2D8
  8
CUT_FIRST
 10
187.615025733075
 20
249.8868665368096
 30
0.0
  0
VERTEX
  5
2D9
  8
CUT_FIRST
 10
188.2350315866374
 20
250.5347719359741
 30
0.0
  0
VERTEX
  5
2DA
  8
CUT_FIRST
 10
188.8374395055774
 20
251.194822187143
 30
0.0
  0
VERTEX
  5
2DB
  8
CUT_FIRST
 10
189.4219433615619
 20
251.8667801201721
 30
0.0
  0
VERTEX
  5
2DC
  8
CUT_FIRST
 10
189.9882370262585
 20
252.5504085649178
 30
0.0
  0
VERTEX
  5
2DD
  8
CUT_FIRST
 10
190.5360143713337
 20
253.2454703512348
 30
0.0
  0
VERTEX
  5
2DE
  8
CUT_FIRST
 10
191.0649692684547
 20
253.9517283089794
 30
0.0
  0
VERTEX
  5
2DF
  8
CUT_FIRST
 10
191.5747955892894
 20
254.668945268007
 30
0.0
  0
VERTEX
  5
2E0
  8
CUT_FIRST
 10
192.065187205504
 20
255.3968840581734
 30
0.0
  0
VERTEX
  5
2E1
  8
CUT_FIRST
 10
192.5358379887659
 20
256.1353075093343
 30
0.0
  0
VERTEX
  5
2E2
  8
CUT_FIRST
 10
192.9864418107426
 20
256.8839784513456
 30
0.0
  0
VERTEX
  5
2E3
  8
CUT_FIRST
 10
193.4166925431003
 20
257.6426597140622
 30
0.0
  0
VERTEX
  5
2E4
  8
CUT_FIRST
 10
193.8262840575071
 20
258.4111141273406
 30
0.0
  0
VERTEX
  5
2E5
  8
CUT_FIRST
 10
194.2149102256294
 20
259.189104521036
 30
0.0
  0
VERTEX
  5
2E6
  8
CUT_FIRST
 10
194.582264919135
 20
259.9763937250043
 30
0.0
  0
VERTEX
  5
2E7
  8
CUT_FIRST
 10
194.9280420096902
 20
260.7727445691012
 30
0.0
  0
VERTEX
  5
2E8
  8
CUT_FIRST
 10
195.2519353689626
 20
261.5779198831823
 30
0.0
  0
VERTEX
  5
2E9
  8
CUT_FIRST
 10
195.5536388686196
 20
262.3916824971029
 30
0.0
  0
VERTEX
  5
2EA
  8
CUT_FIRST
 10
195.8328463803274
 20
263.213795240719
 30
0.0
  0
VERTEX
  5
2EB
  8
CUT_FIRST
 10
196.0892517757534
 20
264.0440209438871
 30
0.0
  0
VERTEX
  5
2EC
  8
CUT_FIRST
 10
196.3225489265656
 20
264.8821224364613
 30
0.0
  0
VERTEX
  5
2ED
  8
CUT_FIRST
 10
196.5324317044304
 20
265.7278625482986
 30
0.0
  0
VERTEX
  5
2EE
  8
CUT_FIRST
 10
196.7185939810142
 20
266.581004109254
 30
0.0
  0
VERTEX
  5
2EF
  8
CUT_FIRST
 10
196.8807296279857
 20
267.4413099491831
 30
0.0
  0
VERTEX
  5
2F0
  8
CUT_FIRST
 10
197.0185325170111
 20
268.3085428979421
 30
0.0
  0
VERTEX
  5
2F1
  8
CUT_FIRST
 10
197.1316965197576
 20
269.1824657853858
 30
0.0
  0
VERTEX
  5
2F2
  8
CUT_FIRST
 10
197.2199155078922
 20
270.0628414413711
 30
0.0
  0
VERTEX
  5
2F3
  8
CUT_FIRST
 10
197.2199155078922
 20
278.3733500063781
 30
0.0
  0
VERTEX
  5
2F4
  8
CUT_FIRST
 10
162.549676582184
 20
278.3733939305373
 30
0.0
  0
VERTEX
  5
2F5
  8
CUT_FIRST
 10
162.550464920766
 20
278.3713152872798
 30
0.0
  0
VERTEX
  5
2F6
  8
CUT_FIRST
 10
180.5381781073245
 20
273.6258472251188
 30
0.0
  0
VERTEX
  5
2F7
  8
CUT_FIRST
 10
162.5934536531708
 20
268.9161407474276
 30
0.0
  0
VERTEX
  5
2F8
  8
CUT_FIRST
 10
156.8889620964655
 20
253.9524726291509
 30
0.0
  0
VERTEX
  5
2F9
  8
CUT_FIRST
 10
151.2274592721795
 20
268.880379162954
 30
0.0
  0
VERTEX
  5
2FA
  8
CUT_FIRST
 10
133.2397460856049
 20
273.6258472251188
 30
0.0
  0
VERTEX
  5
2FB
  8
CUT_FIRST
 10
151.1844705397516
 20
278.3355537027934
 30
0.0
  0
SEQEND
  5
460
  8
CUT_FIRST
  0
POLYLINE
  5
7D
  8
ENGRAVE
 66
     1
 10
0.0
 20
0.0
 30
0.0
  0
VERTEX
  5
2FC
  8
ENGRAVE
 10
471.4751298139981
 20
277.7008740720787
 30
0.0
  0
VERTEX
  5
2FD
  8
ENGRAVE
 10
422.8901024124391
 20
277.7043052237566
 30
0.0
  0
VERTEX
  5
2FE
  8
ENGRAVE
 10
423.1590181759666
 20
275.574883768261
 30
0.0
  0
VERTEX
  5
2FF
  8
ENGRAVE
 10
423.2774776323287
 20
272.6197546326898
 30
0.0
  0
VERTEX
  5
300
  8
ENGRAVE
 10
423.2068219836653
 20
270.2952218276596
 30
0.0
  0
VERTEX
  5
301
  8
ENGRAVE
 10
422.9973961697624
 20
268.0041210128479
 30
0.0
  0
VERTEX
  5
302
  8
ENGRAVE
 10
422.6525182179757
 20
265.7463340311756
 30
0.0
  0
VERTEX
  5
303
  8
ENGRAVE
 10
422.1756397377318
 20
263.5248996537194
 30
0.0
  0
VERTEX
  5
304
  8
ENGRAVE
 10
421.570241835712
 20
261.3428243813236
 30
0.0
  0
VERTEX
  5
305
  8
ENGRAVE
 10
420.8398269501029
 20
259.2030785751792
 30
0.0
  0
VERTEX
  5
306
  8
ENGRAVE
 10
419.987910674696
 20
257.1085951958748
 30
0.0
  0
VERTEX
  5
307
  8
ENGRAVE
 10
419.0180140806671
 20
255.062270467158
 30
0.0
  0
VERTEX
  5
308
  8
ENGRAVE
 10
417.9336570951624
 20
253.0669663976323
 30
0.0
  0
VERTEX
  5
309
  8
ENGRAVE
 10
416.7383531164141
 20
251.1255144283335
 30
0.0
  0
VERTEX
  5
30A
  8
ENGRAVE
 10
415.4356050013567
 20
249.2407198437696
 30
0.0
  0
VERTEX
  5
30B
  8
ENGRAVE
 10
414.0289023669658
 20
247.4153664737728
 30
0.0
  0
VERTEX
  5
30C
  8
ENGRAVE
 10
412.5217200287044
 20
245.6522213148156
 30
0.0
  0
VERTEX
  5
30D
  8
ENGRAVE
 10
410.9175174880278
 20
243.9540389409282
 30
0.0
  0
VERTEX
  5
30E
  8
ENGRAVE
 10
409.2197390891498
 20
242.3235653491018
 30
0.0
  0
VERTEX
  5
30F
  8
ENGRAVE
 10
407.4318148839354
 20
240.7635414200071
 30
0.0
  0
VERTEX
  5
310
  8
ENGRAVE
 10
405.5571617965138
 20
239.2767057150452
 30
0.0
  0
VERTEX
  5
311
  8
ENGRAVE
 10
403.5991850769547
 20
237.8657967770492
 30
0.0
  0
VERTEX
  5
312
  8
ENGRAVE
 10
401.5612798956644
 20
236.533554930494
 30
0.0
  0
VERTEX
  5
313
  8
ENGRAVE
 10
399.4468329878539
 20
235.2827236357116
 30
0.0
  0
VERTEX
  5
314
  8
ENGRAVE
 10
397.259224346172
 20
234.116050478795
 30
0.0
  0
VERTEX
  5
315
  8
ENGRAVE
 10
395.0018287201609
 20
233.0362877467997
 30
0.0
  0
VERTEX
  5
316
  8
ENGRAVE
 10
392.6780171993996
 20
232.0461928059117
 30
0.0
  0
VERTEX
  5
317
  8
ENGRAVE
 10
390.2911586220059
 20
231.1485281883174
 30
0.0
  0
VERTEX
  5
318
  8
ENGRAVE
 10
387.8446208568909
 20
230.3460614648082
 30
0.0
  0
VERTEX
  5
319
  8
ENGRAVE
 10
385.3417720516603
 20
229.6415649669055
 30
0.0
  0
VERTEX
  5
31A
  8
ENGRAVE
 10
382.7859816884231
 20
229.0378153246848
 30
0.0
  0
VERTEX
  5
31B
  8
ENGRAVE
 10
380.1806215736219
 20
228.5375928844652
 30
0.0
  0
VERTEX
  5
31C
  8
ENGRAVE
 10
377.5290666453602
 20
228.1436809936534
 30
0.0
  0
VERTEX
  5
31D
  8
ENGRAVE
 10
374.8346956758497
 20
227.8588651904364
 30
0.0
  0
VERTEX
  5
31E
  8
ENGRAVE
 10
372.1008918380788
 20
227.6859323048979
 30
0.0
  0
VERTEX
  5
31F
  8
ENGRAVE
 10
369.3310720273081
 20
227.6276700951798
 30
0.0
  0
VERTEX
  5
320
  8
ENGRAVE
 10
366.5612522082268
 20
227.685932305057
 30
0.0
  0
VERTEX
  5
321
  8
ENGRAVE
 10
363.8274483694381
 20
227.8588651906318
 30
0.0
  0
VERTEX
  5
322
  8
ENGRAVE
 10
361.1330774058643
 20
228.1436809933067
 30
0.0
  0
VERTEX
  5
323
  8
ENGRAVE
 10
358.4815224823753
 20
228.5375928834506
 30
0.0
  0
VERTEX
  5
324
  8
ENGRAVE
 10
355.8761623591179
 20
229.0378153251542
 30
0.0
  0
VERTEX
  5
325
  8
ENGRAVE
 10
353.3203720048458
 20
229.6415649649491
 30
0.0
  0
VERTEX
  5
326
  8
ENGRAVE
 10
350.8175231970225
 20
230.3460614633666
 30
0.0
  0
VERTEX
  5
327
  8
ENGRAVE
 10
348.3709854289033
 20
231.1485281874633
 30
0.0
  0
VERTEX
  5
328
  8
ENGRAVE
 10
345.9841268442656
 20
232.0461928079893
 30
0.0
  0
VERTEX
  5
329
  8
ENGRAVE
 10
343.6603153305911
 20
233.0362877460365
 30
0.0
  0
VERTEX
  5
32A
  8
ENGRAVE
 10
341.4029196972626
 20
234.1160504816238
 30
0.0
  0
VERTEX
  5
32B
  8
ENGRAVE
 10
339.215311055811
 20
235.2827236384797
 30
0.0
  0
VERTEX
  5
32C
  8
ENGRAVE
 10
337.1008641569774
 20
236.5335549282649
 30
0.0
  0
VERTEX
  5
32D
  8
ENGRAVE
 10
335.0629589731553
 20
237.8657967763163
 30
0.0
  0
VERTEX
  5
32E
  8
ENGRAVE
 10
333.104982250834
 20
239.2767057163837
 30
0.0
  0
VERTEX
  5
32F
  8
ENGRAVE
 10
331.2303291651568
 20
240.7635414199526
 30
0.0
  0
VERTEX
  5
330
  8
ENGRAVE
 10
329.4424049589491
 20
242.3235653498347
 30
0.0
  0
VERTEX
  5
331
  8
ENGRAVE
 10
327.7446265603983
 20
243.9540389416369
 30
0.0
  0
VERTEX
  5
332
  8
ENGRAVE
 10
326.140424013519
 20
245.6522213223331
 30
0.0
  0
VERTEX
  5
333
  8
ENGRAVE
 10
324.63324168868
 20
247.4153664655229
 30
0.0
  0
VERTEX
  5
334
  8
ENGRAVE
 10
323.2265390451732
 20
249.240719846992
 30
0.0
  0
VERTEX
  5
335
  8
ENGRAVE
 10
321.9237909384172
 20
251.1255144195812
 30
0.0
  0
VERTEX
  5
336
  8
ENGRAVE
 10
320.7284869566919
 20
253.0669663924654
 30
0.0
  0
VERTEX
  5
337
  8
ENGRAVE
 10
319.6441299676469
 20
255.0622704685088
 30
0.0
  0
VERTEX
  5
338
  8
ENGRAVE
 10
318.6742333750454
 20
257.1085951943847
 30
0.0
  0
VERTEX
  5
339
  8
ENGRAVE
 10
317.8223170970905
 20
259.203078579807
 30
0.0
  0
VERTEX
  5
33A
  8
ENGRAVE
 10
317.0919022135146
 20
261.3428243810404
 30
0.0
  0
VERTEX
  5
33B
  8
ENGRAVE
 10
316.4865043100118
 20
263.5248996596495
 30
0.0
  0
VERTEX
  5
33C
  8
ENGRAVE
 10
316.0096258312453
 20
265.7463340313876
 30
0.0
  0
VERTEX
  5
33D
  8
ENGRAVE
 10
315.6647478793042
 20
268.0041210152057
 30
0.0
  0
VERTEX
  5
33E
  8
ENGRAVE
 10
315.4553220650746
 20
270.2952218320253
 30
0.0
  0
VERTEX
  5
33F
  8
ENGRAVE
 10
315.3846633744805
 20
272.6198547168142
 30
0.0
  0
VERTEX
  5
340
  8
ENGRAVE
 10
315.5032681921259
 20
275.5565727314633
 30
0.0
  0
VERTEX
  5
341
  8
ENGRAVE
 10
315.7748031943822
 20
277.7036269607941
 30
0.0
  0
VERTEX
  5
342
  8
ENGRAVE
 10
207.6228293396469
 20
277.7026329028806
 30
0.0
  0
VERTEX
  5
343
  8
ENGRAVE
 10
207.8714884013167
 20
275.5690072918604
 30
0.0
  0
VERTEX
  5
344
  8
ENGRAVE
 10
207.9856733680734
 20
272.6192969625577
 30
0.0
  0
VERTEX
  5
345
  8
ENGRAVE
 10
207.9150316306443
 20
270.2952218272999
 30
0.0
  0
VERTEX
  5
346
  8
ENGRAVE
 10
207.7056058167278
 20
268.0041210151315
 30
0.0
  0
VERTEX
  5
347
  8
ENGRAVE
 10
207.3607278644496
 20
265.7463340295659
 30
0.0
  0
VERTEX
  5
348
  8
ENGRAVE
 10
206.8838493852992
 20
263.5248996569479
 30
0.0
  0
VERTEX
  5
349
  8
ENGRAVE
 10
206.2784514818727
 20
261.3428243790991
 30
0.0
  0
VERTEX
  5
34A
  8
ENGRAVE
 10
205.548036598693
 20
259.2030785795555
 30
0.0
  0
VERTEX
  5
34B
  8
ENGRAVE
 10
204.6961203206554
 20
257.1085951936034
 30
0.0
  0
VERTEX
  5
34C
  8
ENGRAVE
 10
203.7262237268202
 20
255.0622704658193
 30
0.0
  0
VERTEX
  5
34D
  8
ENGRAVE
 10
202.6418667401767
 20
253.0669663942826
 30
0.0
  0
VERTEX
  5
34E
  8
ENGRAVE
 10
201.4465627604928
 20
251.1255144242933
 30
0.0
  0
VERTEX
  5
34F
  8
ENGRAVE
 10
200.1438146487701
 20
249.2407198441451
 30
0.0
  0
VERTEX
  5
350
  8
ENGRAVE
 10
198.737112011429
 20
247.4153664705323
 30
0.0
  0
VERTEX
  5
351
  8
ENGRAVE
 10
197.2299296776015
 20
245.6522213170083
 30
0.0
  0
VERTEX
  5
352
  8
ENGRAVE
 10
195.6257271302256
 20
243.9540389361794
 30
0.0
  0
VERTEX
  5
353
  8
ENGRAVE
 10
193.9279487345459
 20
242.3235653477449
 30
0.0
  0
VERTEX
  5
354
  8
ENGRAVE
 10
192.1400245353401
 20
240.7635414237262
 30
0.0
  0
VERTEX
  5
355
  8
ENGRAVE
 10
190.2653714473006
 20
239.276705718104
 30
0.0
  0
VERTEX
  5
356
  8
ENGRAVE
 10
188.3073947212481
 20
237.8657967752199
 30
0.0
  0
VERTEX
  5
357
  8
ENGRAVE
 10
186.2694895376683
 20
236.533554927423
 30
0.0
  0
VERTEX
  5
358
  8
ENGRAVE
 10
184.1550426372841
 20
235.282723637032
 30
0.0
  0
VERTEX
  5
359
  8
ENGRAVE
 10
181.9674339931793
 20
234.116050478892
 30
0.0
  0
VERTEX
  5
35A
  8
ENGRAVE
 10
179.7100383677133
 20
233.0362877470243
 30
0.0
  0
VERTEX
  5
35B
  8
ENGRAVE
 10
177.3862268458256
 20
232.0461928057118
 30
0.0
  0
VERTEX
  5
35C
  8
ENGRAVE
 10
174.9993682639979
 20
231.1485281865426
 30
0.0
  0
VERTEX
  5
35D
  8
ENGRAVE
 10
172.5528304979382
 20
230.3460614629668
 30
0.0
  0
VERTEX
  5
35E
  8
ENGRAVE
 10
170.0499816948635
 20
229.6415649659969
 30
0.0
  0
VERTEX
  5
35F
  8
ENGRAVE
 10
167.4941913325235
 20
229.0378153241522
 30
0.0
  0
VERTEX
  5
360
  8
ENGRAVE
 10
164.8888312195633
 20
228.5375928843955
 30
0.0
  0
VERTEX
  5
361
  8
ENGRAVE
 10
162.2372762910587
 20
228.1436809935293
 30
0.0
  0
VERTEX
  5
362
  8
ENGRAVE
 10
159.5429053252557
 20
227.8588651905485
 30
0.0
  0
VERTEX
  5
363
  8
ENGRAVE
 10
156.8091014842385
 20
227.6859323048253
 30
0.0
  0
VERTEX
  5
364
  8
ENGRAVE
 10
154.0392816750181
 20
227.6276700951983
 30
0.0
  0
VERTEX
  5
365
  8
ENGRAVE
 10
151.2694618592805
 20
227.6859323048336
 30
0.0
  0
VERTEX
  5
366
  8
ENGRAVE
 10
148.5356580154763
 20
227.8588651907487
 30
0.0
  0
VERTEX
  5
367
  8
ENGRAVE
 10
145.841287054495
 20
228.1436809931673
 30
0.0
  0
VERTEX
  5
368
  8
ENGRAVE
 10
143.189732125651
 20
228.5375928839836
 30
0.0
  0
VERTEX
  5
369
  8
ENGRAVE
 10
140.5843720115281
 20
229.0378153238671
 30
0.0
  0
VERTEX
  5
36A
  8
ENGRAVE
 10
138.0285816505692
 20
229.6415649653186
 30
0.0
  0
VERTEX
  5
36B
  8
ENGRAVE
 10
135.5257328451442
 20
230.3460614628638
 30
0.0
  0
VERTEX
  5
36C
  8
ENGRAVE
 10
133.0791950797632
 20
231.1485281862761
 30
0.0
  0
VERTEX
  5
36D
  8
ENGRAVE
 10
130.6923364960212
 20
232.0461928060753
 30
0.0
  0
VERTEX
  5
36E
  8
ENGRAVE
 10
128.3685249767504
 20
233.0362877463334
 30
0.0
  0
VERTEX
  5
36F
  8
ENGRAVE
 10
126.1111293510906
 20
234.1160504781711
 30
0.0
  0
VERTEX
  5
370
  8
ENGRAVE
 10
123.9235207003832
 20
235.282723639885
 30
0.0
  0
VERTEX
  5
371
  8
ENGRAVE
 10
121.8090738066255
 20
236.533554926581
 30
0.0
  0
VERTEX
  5
372
  8
ENGRAVE
 10
119.7711686194478
 20
237.8657967766434
 30
0.0
  0
VERTEX
  5
373
  8
ENGRAVE
 10
117.8131918949579
 20
239.2767057185886
 30
0.0
  0
VERTEX
  5
374
  8
ENGRAVE
 10
115.9385388087477
 20
240.7635414227146
 30
0.0
  0
VERTEX
  5
375
  8
ENGRAVE
 10
114.1506146065859
 20
242.32356534935
 30
0.0
  0
VERTEX
  5
376
  8
ENGRAVE
 10
112.4528362099128
 20
243.9540389388991
 30
0.0
  0
VERTEX
  5
377
  8
ENGRAVE
 10
110.8486336643175
 20
245.6522213179957
 30
0.0
  0
VERTEX
  5
378
  8
ENGRAVE
 10
109.3414513297331
 20
247.415366472731
 30
0.0
  0
VERTEX
  5
379
  8
ENGRAVE
 10
107.9347486969595
 20
249.2407198402624
 30
0.0
  0
VERTEX
  5
37A
  8
ENGRAVE
 10
106.6320005825834
 20
251.1255144237606
 30
0.0
  0
VERTEX
  5
37B
  8
ENGRAVE
 10
105.4366966022879
 20
253.0669663949489
 30
0.0
  0
VERTEX
  5
37C
  8
ENGRAVE
 10
104.3523396161015
 20
255.0622704655286
 30
0.0
  0
VERTEX
  5
37D
  8
ENGRAVE
 10
103.3824430214685
 20
257.1085951954751
 30
0.0
  0
VERTEX
  5
37E
  8
ENGRAVE
 10
102.5305267452665
 20
259.2030785765845
 30
0.0
  0
VERTEX
  5
37F
  8
ENGRAVE
 10
101.80011186178
 20
261.3428243763702
 30
0.0
  0
VERTEX
  5
380
  8
ENGRAVE
 10
101.1947139570606
 20
263.5248996590104
 30
0.0
  0
VERTEX
  5
381
  8
ENGRAVE
 10
100.7178354781025
 20
265.7463340307637
 30
0.0
  0
VERTEX
  5
382
  8
ENGRAVE
 10
100.3729575267852
 20
268.0041210100632
 30
0.0
  0
VERTEX
  5
383
  8
ENGRAVE
 10
100.1635317123135
 20
270.2952218261377
 30
0.0
  0
VERTEX
  5
384
  8
ENGRAVE
 10
100.0928850326967
 20
272.619459557319
 30
0.0
  0
VERTEX
  5
385
  8
ENGRAVE
 10
100.2080867505038
 20
275.5583374801063
 30
0.0
  0
VERTEX
  5
386
  8
ENGRAVE
 10
100.4606578585414
 20
277.7027312502543
 30
0.0
  0
VERTEX
  5
387
  8
ENGRAVE
 10
51.89520231631322
 20
277.7008740709043
 30
0.0
  0
SEQEND
  5
461
  8
ENGRAVE
  0
POLYLINE
  5
7E
  8
ENGRAVE
 66
     1
 10
0.0
 20
0.0
 30
0.0
  0
VERTEX
  5
388
  8
ENGRAVE
 10
374.3263223478243
 20
360.6226815719913
 30
0.0
  0
VERTEX
  5
389
  8
ENGRAVE
 10
374.3266698082693
 20
317.1557621332109
 30
0.0
  0
VERTEX
  5
38A
  8
ENGRAVE
 10
375.3229505016146
 20
317.0711018399619
 30
0.0
  0
VERTEX
  5
38B
  8
ENGRAVE
 10
376.3137235957493
 20
316.9712815167383
 30
0.0
  0
VERTEX
  5
38C
  8
ENGRAVE
 10
377.2988173790594
 20
316.856443285553
 30
0.0
  0
VERTEX
  5
38D
  8
ENGRAVE
 10
378.2780601399326
 20
316.7267292684189
 30
0.0
  0
VERTEX
  5
38E
  8
ENGRAVE
 10
379.2512801667548
 20
316.5822815873487
 30
0.0
  0
VERTEX
  5
38F
  8
ENGRAVE
 10
380.2183057479126
 20
316.4232423643554
 30
0.0
  0
VERTEX
  5
390
  8
ENGRAVE
 10
381.1789651717929
 20
316.2497537214512
 30
0.0
  0
VERTEX
  5
391
  8
ENGRAVE
 10
382.1330867267826
 20
316.0619577806499
 30
0.0
  0
VERTEX
  5
392
  8
ENGRAVE
 10
383.0804987012675
 20
315.8599966639641
 30
0.0
  0
VERTEX
  5
393
  8
ENGRAVE
 10
384.021029383635
 20
315.6440124934061
 30
0.0
  0
VERTEX
  5
394
  8
ENGRAVE
 10
384.954507062271
 20
315.4141473909889
 30
0.0
  0
VERTEX
  5
395
  8
ENGRAVE
 10
385.8807600255628
 20
315.170543478726
 30
0.0
  0
VERTEX
  5
396
  8
ENGRAVE
 10
386.7996165618966
 20
314.9133428786294
 30
0.0
  0
VERTEX
  5
397
  8
ENGRAVE
 10
387.710904959659
 20
314.6426877127127
 30
0.0
  0
VERTEX
  5
398
  8
ENGRAVE
 10
388.6144535072368
 20
314.3587201029879
 30
0.0
  0
VERTEX
  5
399
  8
ENGRAVE
 10
389.5100904930167
 20
314.0615821714687
 30
0.0
  0
VERTEX
  5
39A
  8
ENGRAVE
 10
390.3976442053848
 20
313.751416040167
 30
0.0
  0
VERTEX
  5
39B
  8
ENGRAVE
 10
391.2769429327285
 20
313.4283638310965
 30
0.0
  0
VERTEX
  5
39C
  8
ENGRAVE
 10
392.1478149634338
 20
313.0925676662697
 30
0.0
  0
VERTEX
  5
39D
  8
ENGRAVE
 10
393.0100885858876
 20
312.7441696676996
 30
0.0
  0
VERTEX
  5
39E
  8
ENGRAVE
 10
393.8635920884767
 20
312.3833119573984
 30
0.0
  0
VERTEX
  5
39F
  8
ENGRAVE
 10
394.7081537595869
 20
312.0101366573796
 30
0.0
  0
VERTEX
  5
3A0
  8
ENGRAVE
 10
395.5436018876061
 20
311.624785889656
 30
0.0
  0
VERTEX
  5
3A1
  8
ENGRAVE
 10
396.3697647609195
 20
311.2274017762396
 30
0.0
  0
VERTEX
  5
3A2
  8
ENGRAVE
 10
397.1864706679145
 20
310.8181264391445
 30
0.0
  0
VERTEX
  5
3A3
  8
ENGRAVE
 10
397.9935478969775
 20
310.3971020003829
 30
0.0
  0
VERTEX
  5
3A4
  8
ENGRAVE
 10
398.7908247364959
 20
309.9644705819675
 30
0.0
  0
VERTEX
  5
3A5
  8
ENGRAVE
 10
399.578129474855
 20
309.5203743059112
 30
0.0
  0
VERTEX
  5
3A6
  8
ENGRAVE
 10
400.3552904004422
 20
309.064955294227
 30
0.0
  0
VERTEX
  5
3A7
  8
ENGRAVE
 10
401.1221358016444
 20
308.5983556689281
 30
0.0
  0
VERTEX
  5
3A8
  8
ENGRAVE
 10
401.8784939668477
 20
308.1207175520261
 30
0.0
  0
VERTEX
  5
3A9
  8
ENGRAVE
 10
402.6241931844384
 20
307.6321830655352
 30
0.0
  0
VERTEX
  5
3AA
  8
ENGRAVE
 10
403.3590617428036
 20
307.1328943314677
 30
0.0
  0
VERTEX
  5
3AB
  8
ENGRAVE
 10
404.0829279303305
 20
306.6229934718363
 30
0.0
  0
VERTEX
  5
3AC
  8
ENGRAVE
 10
404.7956200354045
 20
306.102622608654
 30
0.0
  0
VERTEX
  5
3AD
  8
ENGRAVE
 10
405.4969663464126
 20
305.5719238639342
 30
0.0
  0
VERTEX
  5
3AE
  8
ENGRAVE
 10
406.1867951517418
 20
305.0310393596883
 30
0.0
  0
VERTEX
  5
3AF
  8
ENGRAVE
 10
406.8649347397793
 20
304.4801112179301
 30
0.0
  0
VERTEX
  5
3B0
  8
ENGRAVE
 10
407.5312133989102
 20
303.9192815606724
 30
0.0
  0
VERTEX
  5
3B1
  8
ENGRAVE
 10
408.1854594175218
 20
303.3486925099282
 30
0.0
  0
VERTEX
  5
3B2
  8
ENGRAVE
 10
408.8275010840008
 20
302.7684861877096
 30
0.0
  0
VERTEX
  5
3B3
  8
ENGRAVE
 10
409.4571666867341
 20
302.1788047160309
 30
0.0
  0
VERTEX
  5
3B4
  8
ENGRAVE
 10
410.0742845141076
 20
301.5797902169031
 30
0.0
  0
VERTEX
  5
3B5
  8
ENGRAVE
 10
410.6786828545087
 20
300.97158481234
 30
0.0
  0
VERTEX
  5
3B6
  8
ENGRAVE
 10
411.2701899963236
 20
300.3543306243544
 30
0.0
  0
VERTEX
  5
3B7
  8
ENGRAVE
 10
411.8486342279393
 20
299.7281697749588
 30
0.0
  0
VERTEX
  5
3B8
  8
ENGRAVE
 10
412.4138438377416
 20
299.0932443861669
 30
0.0
  0
VERTEX
  5
3B9
  8
ENGRAVE
 10
412.9656471141174
 20
298.4496965799905
 30
0.0
  0
VERTEX
  5
3BA
  8
ENGRAVE
 10
413.5038723454539
 20
297.7976684784434
 30
0.0
  0
VERTEX
  5
3BB
  8
ENGRAVE
 10
414.028347820137
 20
297.137302203537
 30
0.0
  0
VERTEX
  5
3BC
  8
ENGRAVE
 10
414.538901826554
 20
296.4687398772858
 30
0.0
  0
VERTEX
  5
3BD
  8
ENGRAVE
 10
415.0353626530912
 20
295.7921236217014
 30
0.0
  0
VERTEX
  5
3BE
  8
ENGRAVE
 10
415.517558588135
 20
295.1075955587979
 30
0.0
  0
VERTEX
  5
3BF
  8
ENGRAVE
 10
415.9853179200721
 20
294.4152978105867
 30
0.0
  0
VERTEX
  5
3C0
  8
ENGRAVE
 10
416.4384689372894
 20
293.7153724990814
 30
0.0
  0
VERTEX
  5
3C1
  8
ENGRAVE
 10
416.8768399281734
 20
293.0079617462947
 30
0.0
  0
VERTEX
  5
3C2
  8
ENGRAVE
 10
417.3002591811106
 20
292.2932076742395
 30
0.0
  0
VERTEX
  5
3C3
  8
ENGRAVE
 10
417.7085549844878
 20
291.5712524049289
 30
0.0
  0
VERTEX
  5
3C4
  8
ENGRAVE
 10
418.101555626691
 20
290.8422380603753
 30
0.0
  0
VERTEX
  5
3C5
  8
ENGRAVE
 10
418.4790893961077
 20
290.1063067625918
 30
0.0
  0
VERTEX
  5
3C6
  8
ENGRAVE
 10
418.8409845811242
 20
289.363600633591
 30
0.0
  0
VERTEX
  5
3C7
  8
ENGRAVE
 10
419.1870694701266
 20
288.6142617953857
 30
0.0
  0
VERTEX
  5
3C8
  8
ENGRAVE
 10
419.5171723515025
 20
287.8584323699889
 30
0.0
  0
VERTEX
  5
3C9
  8
ENGRAVE
 10
419.8311215136375
 20
287.0962544794133
 30
0.0
  0
VERTEX
  5
3CA
  8
ENGRAVE
 10
471.4751768479745
 20
287.0915570770715
 30
0.0
  0
SEQEND
  5
462
  8
ENGRAVE
  0
POLYLINE
  5
7F
  8
ENGRAVE
 66
     1
 10
0.0
 20
0.0
 30
0.0
  0
VERTEX
  5
3CB
  8
ENGRAVE
 10
364.3359207083826
 20
360.6226815719913
 30
0.0
  0
VERTEX
  5
3CC
  8
ENGRAVE
 10
364.3357106711701
 20
317.1550722371217
 30
0.0
  0
VERTEX
  5
3CD
  8
ENGRAVE
 10
363.3543526559307
 20
317.0712664609271
 30
0.0
  0
VERTEX
  5
3CE
  8
ENGRAVE
 10
362.3777286807908
 20
316.9726484279917
 30
0.0
  0
VERTEX
  5
3CF
  8
ENGRAVE
 10
361.4060251100245
 20
316.8593421269643
 30
0.0
  0
VERTEX
  5
3D0
  8
ENGRAVE
 10
360.4394283079075
 20
316.7314715464937
 30
0.0
  0
VERTEX
  5
3D1
  8
ENGRAVE
 10
359.4781246387134
 20
316.5891606752276
 30
0.0
  0
VERTEX
  5
3D2
  8
ENGRAVE
 10
358.5223004667179
 20
316.4325335018152
 30
0.0
  0
VERTEX
  5
3D3
  8
ENGRAVE
 10
357.5721421561951
 20
316.2617140149046
 30
0.0
  0
VERTEX
  5
3D4
  8
ENGRAVE
 10
356.6278360714203
 20
316.0768262031444
 30
0.0
  0
VERTEX
  5
3D5
  8
ENGRAVE
 10
355.6895685766679
 20
315.877994055183
 30
0.0
  0
VERTEX
  5
3D6
  8
ENGRAVE
 10
354.7575260362124
 20
315.6653415596688
 30
0.0
  0
VERTEX
  5
3D7
  8
ENGRAVE
 10
353.8318948143295
 20
315.4389927052511
 30
0.0
  0
VERTEX
  5
3D8
  8
ENGRAVE
 10
352.9128612752935
 20
315.1990714805768
 30
0.0
  0
VERTEX
  5
3D9
  8
ENGRAVE
 10
352.0006117833788
 20
314.9457018742957
 30
0.0
  0
VERTEX
  5
3DA
  8
ENGRAVE
 10
351.09533270286
 20
314.6790078750557
 30
0.0
  0
VERTEX
  5
3DB
  8
ENGRAVE
 10
350.1972103980132
 20
314.3991134715058
 30
0.0
  0
VERTEX
  5
3DC
  8
ENGRAVE
 10
349.3064312331107
 20
314.1061426522931
 30
0.0
  0
VERTEX
  5
3DD
  8
ENGRAVE
 10
348.4231815724302
 20
313.8002194060678
 30
0.0
  0
VERTEX
  5
3DE
  8
ENGRAVE
 10
347.5476477802445
 20
313.4814677214772
 30
0.0
  0
VERTEX
  5
3DF
  8
ENGRAVE
 10
346.6800162208287
 20
313.1500115871705
 30
0.0
  0
VERTEX
  5
3E0
  8
ENGRAVE
 10
345.8204732584578
 20
312.8059749917957
 30
0.0
  0
VERTEX
  5
3E1
  8
ENGRAVE
 10
344.9692052574069
 20
312.4494819240017
 30
0.0
  0
VERTEX
  5
3E2
  8
ENGRAVE
 10
344.1263985819498
 20
312.0806563724365
 30
0.0
  0
VERTEX
  5
3E3
  8
ENGRAVE
 10
343.292239596362
 20
311.6996223257488
 30
0.0
  0
VERTEX
  5
3E4
  8
ENGRAVE
 10
342.4669146649179
 20
311.3065037725867
 30
0.0
  0
VERTEX
  5
3E5
  8
ENGRAVE
 10
341.6506101518929
 20
310.9014247015996
 30
0.0
  0
VERTEX
  5
3E6
  8
ENGRAVE
 10
340.8435124215612
 20
310.484509101435
 30
0.0
  0
VERTEX
  5
3E7
  8
ENGRAVE
 10
340.0458078381974
 20
310.0558809607417
 30
0.0
  0
VERTEX
  5
3E8
  8
ENGRAVE
 10
339.257682766076
 20
309.6156642681684
 30
0.0
  0
VERTEX
  5
3E9
  8
ENGRAVE
 10
338.4793235694729
 20
309.1639830123636
 30
0.0
  0
VERTEX
  5
3EA
  8
ENGRAVE
 10
337.7109166126623
 20
308.7009611819753
 30
0.0
  0
VERTEX
  5
3EB
  8
ENGRAVE
 10
336.9526482599182
 20
308.2267227656525
 30
0.0
  0
VERTEX
  5
3EC
  8
ENGRAVE
 10
336.2047048755162
 20
307.7413917520431
 30
0.0
  0
VERTEX
  5
3ED
  8
ENGRAVE
 10
335.4672728237309
 20
307.2450921297964
 30
0.0
  0
VERTEX
  5
3EE
  8
ENGRAVE
 10
334.7405384688373
 20
306.7379478875599
 30
0.0
  0
VERTEX
  5
3EF
  8
ENGRAVE
 10
334.0246881751099
 20
306.220083013983
 30
0.0
  0
VERTEX
  5
3F0
  8
ENGRAVE
 10
333.319908306823
 20
305.6916214977132
 30
0.0
  0
VERTEX
  5
3F1
  8
ENGRAVE
 10
332.6263852282519
 20
305.1526873273998
 30
0.0
  0
VERTEX
  5
3F2
  8
ENGRAVE
 10
331.9443053036717
 20
304.6034044916909
 30
0.0
  0
VERTEX
  5
3F3
  8
ENGRAVE
 10
331.2738548973565
 20
304.0438969792352
 30
0.0
  0
VERTEX
  5
3F4
  8
ENGRAVE
 10
330.6152203735812
 20
303.4742887786808
 30
0.0
  0
VERTEX
  5
3F5
  8
ENGRAVE
 10
329.9685880966203
 20
302.8947038786765
 30
0.0
  0
VERTEX
  5
3F6
  8
ENGRAVE
 10
329.3341444307491
 20
302.3052662678705
 30
0.0
  0
VERTEX
  5
3F7
  8
ENGRAVE
 10
328.7120757402423
 20
301.7060999349114
 30
0.0
  0
VERTEX
  5
3F8
  8
ENGRAVE
 10
328.1025683893742
 20
301.0973288684482
 30
0.0
  0
VERTEX
  5
3F9
  8
ENGRAVE
 10
327.50580874242
 20
300.4790770571285
 30
0.0
  0
VERTEX
  5
3FA
  8
ENGRAVE
 10
326.921983163654
 20
299.8514684896015
 30
0.0
  0
VERTEX
  5
3FB
  8
ENGRAVE
 10
326.3512780173516
 20
299.2146271545148
 30
0.0
  0
VERTEX
  5
3FC
  8
ENGRAVE
 10
325.7938796677872
 20
298.5686770405177
 30
0.0
  0
VERTEX
  5
3FD
  8
ENGRAVE
 10
325.2499744792355
 20
297.9137421362583
 30
0.0
  0
VERTEX
  5
3FE
  8
ENGRAVE
 10
324.7197488159709
 20
297.2499464303853
 30
0.0
  0
VERTEX
  5
3FF
  8
ENGRAVE
 10
324.2033890422694
 20
296.5774139115468
 30
0.0
  0
VERTEX
  5
400
  8
ENGRAVE
 10
323.7010815224045
 20
295.8962685683913
 30
0.0
  0
VERTEX
  5
401
  8
ENGRAVE
 10
323.2130126206512
 20
295.2066343895679
 30
0.0
  0
VERTEX
  5
402
  8
ENGRAVE
 10
322.7393687012847
 20
294.5086353637246
 30
0.0
  0
VERTEX
  5
403
  8
ENGRAVE
 10
322.2803361285793
 20
293.8023954795096
 30
0.0
  0
VERTEX
  5
404
  8
ENGRAVE
 10
321.8361012668102
 20
293.0880387255721
 30
0.0
  0
VERTEX
  5
405
  8
ENGRAVE
 10
321.4068504802514
 20
292.3656890905601
 30
0.0
  0
VERTEX
  5
406
  8
ENGRAVE
 10
320.9927701331789
 20
291.635470563122
 30
0.0
  0
VERTEX
  5
407
  8
ENGRAVE
 10
320.5940465898665
 20
290.8975071319064
 30
0.0
  0
VERTEX
  5
408
  8
ENGRAVE
 10
320.2108662145894
 20
290.1519227855615
 30
0.0
  0
VERTEX
  5
409
  8
ENGRAVE
 10
319.8434153716216
 20
289.3988415127363
 30
0.0
  0
VERTEX
  5
40A
  8
ENGRAVE
 10
319.4918804252385
 20
288.6383873020795
 30
0.0
  0
VERTEX
  5
40B
  8
ENGRAVE
 10
319.1564477397147
 20
287.8706841422381
 30
0.0
  0
VERTEX
  5
40C
  8
ENGRAVE
 10
318.8373036793249
 20
287.0958560218621
 30
0.0
  0
VERTEX
  5
40D
  8
ENGRAVE
 10
51.89517684797507
 20
287.0915570770715
 30
0.0
  0
SEQEND
  5
463
  8
ENGRAVE
  0
POLYLINE
  5
80
  8
ENGRAVE
 66
     1
 10
0.0
 20
0.0
 30
0.0
  0
VERTEX
  5
40E
  8
ENGRAVE
 10
440.2688832611969
 20
60.92268157198939
 30
0.0
  0
VERTEX
  5
40F
  8
ENGRAVE
 10
440.2326192227305
 20
62.78752841899106
 30
0.0
  0
VERTEX
  5
410
  8
ENGRAVE
 10
440.0576248794282
 20
65.78447299460944
 30
0.0
  0
VERTEX
  5
411
  8
ENGRAVE
 10
439.7676200887581
 20
68.76241542604416
 30
0.0
  0
VERTEX
  5
412
  8
ENGRAVE
 10
439.352072515039
 20
71.80753421152369
 30
0.0
  0
VERTEX
  5
413
  8
ENGRAVE
 10
438.2275362840346
 20
77.56625984739648
 30
0.0
  0
VERTEX
  5
414
  8
ENGRAVE
 10
436.6503758040287
 20
83.31320498664579
 30
0.0
  0
VERTEX
  5
415
  8
ENGRAVE
 10
434.6514415529102
 20
88.94909783249395
 30
0.0
  0
VERTEX
  5
416
  8
ENGRAVE
 10
432.2448907156573
 20
94.46381203581333
 30
0.0
  0
VERTEX
  5
417
  8
ENGRAVE
 10
429.4451807551246
 20
99.8481020844848
 30
0.0
  0
VERTEX
  5
418
  8
ENGRAVE
 10
426.2668444990036
 20
105.0935715316614
 30
0.0
  0
VERTEX
  5
419
  8
ENGRAVE
 10
422.7243017572172
 20
110.1925984778537
 30
0.0
  0
VERTEX
  5
41A
  8
ENGRAVE
 10
418.8317145265885
 20
115.1382332432853
 30
0.0
  0
VERTEX
  5
41B
  8
ENGRAVE
 10
414.6028866315567
 20
119.9240821553926
 30
0.0
  0
VERTEX
  5
41C
  8
ENGRAVE
 10
410.0512040890046
 20
124.5441889782258
 30
0.0
  0
VERTEX
  5
41D
  8
ENGRAVE
 10
405.1896097862112
 20
128.9929224621203
 30
0.0
  0
VERTEX
  5
41E
  8
ENGRAVE
 10
400.0306049991322
 20
133.2648754167373
 30
0.0
  0
VERTEX
  5
41F
  8
ENGRAVE
 10
394.5862703976752
 20
137.3547781094785
 30
0.0
  0
VERTEX
  5
420
  8
ENGRAVE
 10
388.8682999708622
 20
141.2574268344419
 30
0.0
  0
VERTEX
  5
421
  8
ENGRAVE
 10
382.8880425417448
 20
144.9676270904855
 30
0.0
  0
VERTEX
  5
422
  8
ENGRAVE
 10
376.6565467305221
 20
148.4801500360868
 30
0.0
  0
VERTEX
  5
423
  8
ENGRAVE
 10
370.18460649024
 20
151.7897004224025
 30
0.0
  0
VERTEX
  5
424
  8
ENGRAVE
 10
363.4828051736332
 20
154.8908941977879
 30
0.0
  0
VERTEX
  5
425
  8
ENGRAVE
 10
356.5615569848892
 20
157.7782439858346
 30
0.0
  0
VERTEX
  5
426
  8
ENGRAVE
 10
349.4311451938976
 20
160.4461508703318
 30
0.0
  0
VERTEX
  5
427
  8
ENGRAVE
 10
342.1017568166167
 20
162.8889011831464
 30
0.0
  0
VERTEX
  5
428
  8
ENGRAVE
 10
334.5835138531671
 20
165.1006671833966
 30
0.0
  0
VERTEX
  5
429
  8
ENGRAVE
 10
326.8865011877954
 20
167.0755108014343
 30
0.0
  0
VERTEX
  5
42A
  8
ENGRAVE
 10
319.0207914118797
 20
168.8073897877981
 30
0.0
  0
VERTEX
  5
42B
  8
ENGRAVE
 10
310.996466778306
 20
170.2901657936174
 30
0.0
  0
VERTEX
  5
42C
  8
ENGRAVE
 10
302.8236385077159
 20
171.5176140267569
 30
0.0
  0
VERTEX
  5
42D
  8
ENGRAVE
 10
294.5124636109753
 20
172.4834342295763
 30
0.0
  0
VERTEX
  5
42E
  8
ENGRAVE
 10
286.0731592718338
 20
173.1812627941561
 30
0.0
  0
VERTEX
  5
42F
  8
ENGRAVE
 10
277.5160148980355
 20
173.6046858479613
 30
0.0
  0
VERTEX
  5
430
  8
ENGRAVE
 10
268.8519469687457
 20
173.7472442059145
 30
0.0
  0
VERTEX
  5
431
  8
ENGRAVE
 10
260.1878790385591
 20
173.6046858479152
 30
0.0
  0
VERTEX
  5
432
  8
ENGRAVE
 10
251.6307346658755
 20
173.1812627940993
 30
0.0
  0
VERTEX
  5
433
  8
ENGRAVE
 10
243.1914303269267
 20
172.4834342295544
 30
0.0
  0
VERTEX
  5
434
  8
ENGRAVE
 10
234.8802554287326
 20
171.5176140265358
 30
0.0
  0
VERTEX
  5
435
  8
ENGRAVE
 10
226.7074271590393
 20
170.2901657934712
 30
0.0
  0
VERTEX
  5
436
  8
ENGRAVE
 10
218.6831025265076
 20
168.8073897878745
 30
0.0
  0
VERTEX
  5
437
  8
ENGRAVE
 10
210.8173927531598
 20
167.0755108020233
 30
0.0
  0
VERTEX
  5
438
  8
ENGRAVE
 10
203.1203800886844
 20
165.1006671843687
 30
0.0
  0
VERTEX
  5
439
  8
ENGRAVE
 10
195.6021371238298
 20
162.8889011838173
 30
0.0
  0
VERTEX
  5
43A
  8
ENGRAVE
 10
188.2727487448527
 20
160.4461508704673
 30
0.0
  0
VERTEX
  5
43B
  8
ENGRAVE
 10
181.1423369529402
 20
157.7782439856732
 30
0.0
  0
VERTEX
  5
43C
  8
ENGRAVE
 10
174.2210887656503
 20
154.8908941982869
 30
0.0
  0
VERTEX
  5
43D
  8
ENGRAVE
 10
167.5192874467294
 20
151.7897004218324
 30
0.0
  0
VERTEX
  5
43E
  8
ENGRAVE
 10
161.0473472069076
 20
148.4801500356749
 30
0.0
  0
VERTEX
  5
43F
  8
ENGRAVE
 10
154.8158513976112
 20
144.9676270911305
 30
0.0
  0
VERTEX
  5
440
  8
ENGRAVE
 10
148.8355939670768
 20
141.2574268342663
 30
0.0
  0
VERTEX
  5
441
  8
ENGRAVE
 10
143.117623541572
 20
137.3547781102492
 30
0.0
  0
VERTEX
  5
442
  8
ENGRAVE
 10
137.6732889398235
 20
133.2648754172969
 30
0.0
  0
VERTEX
  5
443
  8
ENGRAVE
 10
132.514284152188
 20
128.9929224622059
 30
0.0
  0
VERTEX
  5
444
  8
ENGRAVE
 10
127.6526898489517
 20
124.5441889779238
 30
0.0
  0
VERTEX
  5
445
  8
ENGRAVE
 10
123.1010073076236
 20
119.9240821563655
 30
0.0
  0
VERTEX
  5
446
  8
ENGRAVE
 10
118.8721794124828
 20
115.1382332443287
 30
0.0
  0
VERTEX
  5
447
  8
ENGRAVE
 10
114.9795921809335
 20
110.1925984776727
 30
0.0
  0
VERTEX
  5
448
  8
ENGRAVE
 10
111.4370494386292
 20
105.0935715307952
 30
0.0
  0
VERTEX
  5
449
  8
ENGRAVE
 10
108.258713183559
 20
99.84810208530322
 30
0.0
  0
VERTEX
  5
44A
  8
ENGRAVE
 10
105.4590032221816
 20
94.4638120350887
 30
0.0
  0
VERTEX
  5
44B
  8
ENGRAVE
 10
103.0524523849984
 20
88.94909783149453
 30
0.0
  0
VERTEX
  5
44C
  8
ENGRAVE
 10
101.0535181336524
 20
83.31320498491422
 30
0.0
  0
VERTEX
  5
44D
  8
ENGRAVE
 10
99.50005174647698
 20
77.65259769952829
 30
0.0
  0
VERTEX
  5
44E
  8
ENGRAVE
 10
98.85548013956965
 20
74.65507429217823
 30
0.0
  0
VERTEX
  5
44F
  8
ENGRAVE
 10
98.33984791709487
 20
71.71979275691476
 30
0.0
  0
VERTEX
  5
450
  8
ENGRAVE
 10
97.9362738496052
 20
68.76241542670138
 30
0.0
  0
VERTEX
  5
451
  8
ENGRAVE
 10
97.64626905890186
 20
65.78447299522722
 30
0.0
  0
VERTEX
  5
452
  8
ENGRAVE
 10
97.47127471556583
 20
62.78752841866398
 30
0.0
  0
VERTEX
  5
453
  8
ENGRAVE
 10
97.43501067709646
 20
60.92268157198791
 30
0.0
  0
SEQEND
  5
464
  8
ENGRAVE
  0
ENDSEC
  0
EOF
