  0
SECTION
  2
HEADER
  9
$ACADVER
  1
AC1009
  9
$DWGCODEPAGE
  3
ansi_1252
  9
$INSBASE
 10
0.0
 20
0.0
 30
0.0
  9
$EXTMIN
 10
-120.0632237742897
 20
787.3190763576781
 30
0.0
  9
$EXTMAX
 10
18.89357250630219
 20
849.7575483140618
 30
0.0
  9
$LIMMIN
 10
0.0
 20
0.0
  9
$LIMMAX
 10
12.0
 20
9.0
  9
$ORTHOMODE
 70
     0
  9
$REGENMODE
 70
     1
  9
$FILLMODE
 70
     1
  9
$QTEXTMODE
 70
     0
  9
$MIRRTEXT
 70
     1
  9
$DRAGMODE
 70
     2
  9
$LTSCALE
 40
1.0
  9
$OSMODE
 70
    37
  9
$ATTMODE
 70
     1
  9
$TEXTSIZE
 40
0.2
  9
$TRACEWID
 40
0.05
  9
$TEXTSTYLE
  7
STANDARD
  9
$CLAYER
  8
0
  9
$CELTYPE
  6
BYLAYER
  9
$CECOLOR
 62
   256
  9
$DIMSCALE
 40
1.0
  9
$DIMASZ
 40
0.18
  9
$DIMEXO
 40
0.0625
  9
$DIMDLI
 40
0.38
  9
$DIMRND
 40
0.0
  9
$DIMDLE
 40
0.0
  9
$DIMEXE
 40
0.18
  9
$DIMTP
 40
0.0
  9
$DIMTM
 40
0.0
  9
$DIMTXT
 40
0.18
  9
$DIMCEN
 40
0.09
  9
$DIMTSZ
 40
0.0
  9
$DIMTOL
 70
     0
  9
$DIMLIM
 70
     0
  9
$DIMTIH
 70
     1
  9
$DIMTOH
 70
     1
  9
$DIMSE1
 70
     0
  9
$DIMSE2
 70
     0
  9
$DIMTAD
 70
     0
  9
$DIMZIN
 70
     0
  9
$DIMBLK
  1

  9
$DIMASO
 70
     1
  9
$DIMSHO
 70
     1
  9
$DIMPOST
  1

  9
$DIMAPOST
  1

  9
$DIMALT
 70
     0
  9
$DIMALTD
 70
     2
  9
$DIMALTF
 40
25.4
  9
$DIMLFAC
 40
1.0
  9
$DIMTOFL
 70
     0
  9
$DIMTVP
 40
0.0
  9
$DIMTIX
 70
     0
  9
$DIMSOXD
 70
     0
  9
$DIMSAH
 70
     0
  9
$DIMBLK1
  1

  9
$DIMBLK2
  1

  9
$DIMSTYLE
  2
STANDARD
  9
$DIMCLRD
 70
     0
  9
$DIMCLRE
 70
     0
  9
$DIMCLRT
 70
     0
  9
$DIMTFAC
 40
1.0
  9
$DIMGAP
 40
0.09
  9
$LUNITS
 70
     2
  9
$LUPREC
 70
     4
  9
$SKETCHINC
 40
0.1
  9
$FILLETRAD
 40
0.5
  9
$AUNITS
 70
     0
  9
$AUPREC
 70
     0
  9
$MENU
  1
.
  9
$ELEVATION
 40
0.0
  9
$PELEVATION
 40
0.0
  9
$THICKNESS
 40
0.0
  9
$LIMCHECK
 70
     0
  9
$CHAMFERA
 40
0.0
  9
$CHAMFERB
 40
0.0
  9
$SKPOLY
 70
     0
  9
$TDCREATE
 40
2454910.5
  9
$TDUPDATE
 40
2458444.484484028
  9
$TDINDWG
 40
0.0000000116
  9
$TDUSRTIMER
 40
0.0000000116
  9
$USRTIMER
 70
     1
  9
$ANGBASE
 50
0.0
  9
$ANGDIR
 70
     0
  9
$PDMODE
 70
     0
  9
$PDSIZE
 40
0.0
  9
$PLINEWID
 40
0.0
  9
$COORDS
 70
     1
  9
$SPLFRAME
 70
     0
  9
$SPLINETYPE
 70
     6
  9
$SPLINESEGS
 70
     8
  9
$ATTDIA
 70
     0
  9
$ATTREQ
 70
     1
  9
$HANDLING
 70
     1
  9
$HANDSEED
  5
280
  9
$SURFTAB1
 70
     6
  9
$SURFTAB2
 70
     6
  9
$SURFTYPE
 70
     6
  9
$SURFU
 70
     6
  9
$SURFV
 70
     6
  9
$UCSNAME
  2

  9
$UCSORG
 10
0.0
 20
0.0
 30
0.0
  9
$UCSXDIR
 10
1.0
 20
0.0
 30
0.0
  9
$UCSYDIR
 10
0.0
 20
1.0
 30
0.0
  9
$PUCSNAME
  2

  9
$PUCSORG
 10
0.0
 20
0.0
 30
0.0
  9
$PUCSXDIR
 10
1.0
 20
0.0
 30
0.0
  9
$PUCSYDIR
 10
0.0
 20
1.0
 30
0.0
  9
$USERI1
 70
     0
  9
$USERI2
 70
     0
  9
$USERI3
 70
     0
  9
$USERI4
 70
     0
  9
$USERI5
 70
     0
  9
$USERR1
 40
0.0
  9
$USERR2
 40
0.0
  9
$USERR3
 40
0.0
  9
$USERR4
 40
0.0
  9
$USERR5
 40
0.0
  9
$WORLDVIEW
 70
     1
  9
$SHADEDGE
 70
     3
  9
$SHADEDIF
 70
    70
  9
$TILEMODE
 70
     1
  9
$MAXACTVP
 70
    64
  9
$PLIMCHECK
 70
     0
  9
$PEXTMIN
 10
1.000000000000000E+20
 20
1.000000000000000E+20
 30
1.000000000000000E+20
  9
$PEXTMAX
 10
-1.000000000000000E+20
 20
-1.000000000000000E+20
 30
-1.000000000000000E+20
  9
$PLIMMIN
 10
0.0
 20
0.0
  9
$PLIMMAX
 10
12.0
 20
9.0
  9
$UNITMODE
 70
     0
  9
$VISRETAIN
 70
     1
  9
$PLINEGEN
 70
     0
  9
$PSLTSCALE
 70
     1
  0
ENDSEC
  0
SECTION
  2
TABLES
  0
TABLE
  2
VPORT
 70
     1
  0
VPORT
  2
*ACTIVE
 70
     0
 10
0.0
 20
0.0
 11
1.0
 21
1.0
 12
10.42990654205607
 22
4.5
 13
0.0
 23
0.0
 14
0.5
 24
0.5
 15
0.5
 25
0.5
 16
0.0
 26
0.0
 36
1.0
 17
0.0
 27
0.0
 37
0.0
 40
9.0
 41
1.972972972850329
 42
50.0
 43
0.0
 44
0.0
 50
0.0
 51
0.0
 71
     0
 72
   100
 73
     1
 74
     3
 75
     0
 76
     0
 77
     0
 78
     0
  0
ENDTAB
  0
TABLE
  2
LTYPE
 70
     2
  0
LTYPE
  2
CONTINUOUS
 70
     0
  3
Solid line
 72
    65
 73
     0
 40
0.0
  0
LTYPE
  2
CONTINUOUS2
 70
     0
  3
Solid Line
 72
    65
 73
     0
 40
0.0
  0
ENDTAB
  0
TABLE
  2
LAYER
 70
     2
  0
LAYER
  2
0
 70
     0
 62
     7
  6
CONTINUOUS
  0
LAYER
  2
6MM_ENGRAVE
 70
     0
 62
   245
  6
CONTINUOUS
  0
ENDTAB
  0
TABLE
  2
STYLE
 70
     1
  0
STYLE
  2
STANDARD
 70
     0
 40
0.0
 41
1.0
 50
0.0
 71
     0
 42
0.2
  3
txt
  4

  0
ENDTAB
  0
TABLE
  2
VIEW
 70
     0
  0
ENDTAB
  0
TABLE
  2
UCS
 70
     0
  0
ENDTAB
  0
TABLE
  2
APPID
 70
     1
  0
APPID
  2
ACAD
 70
     0
  0
ENDTAB
  0
TABLE
  2
DIMSTYLE
 70
     1
  0
DIMSTYLE
  2
STANDARD
 70
     0
  3

  4

  5

  6

  7

 40
1.0
 41
0.18
 42
0.0625
 43
0.38
 44
0.18
 45
0.0
 46
0.0
 47
0.0
 48
0.0
140
0.18
141
0.09
142
0.0
143
25.4
144
1.0
145
0.0
146
1.0
147
0.09
 71
     0
 72
     0
 73
     1
 74
     1
 75
     0
 76
     0
 77
     0
 78
     0
170
     0
171
     2
172
     0
173
     0
174
     0
175
     0
176
     0
177
     0
178
     0
  0
ENDTAB
  0
ENDSEC
  0
SECTION
  2
BLOCKS
  0
BLOCK
  8
0
  2
$MODEL_SPACE
 70
     0
 10
0.0
 20
0.0
 30
0.0
  3
$MODEL_SPACE
  1

  0
ENDBLK
  5
21
  8
0
  0
BLOCK
 67
     1
  8
0
  2
$PAPER_SPACE
 70
     0
 10
0.0
 20
0.0
 30
0.0
  3
$PAPER_SPACE
  1

  0
ENDBLK
  5
1D
 67
     1
  8
0
  0
ENDSEC
  0
SECTION
  2
ENTITIES
  0
POLYLINE
  5
70
  8
6MM_ENGRAVE
 66
     1
 10
0.0
 20
0.0
 30
0.0
 70
     1
  0
VERTEX
  5
81
  8
6MM_ENGRAVE
 10
-77.78568486133626
 20
804.088438959846
 30
0.0
 42
0.1197374911983832
  0
VERTEX
  5
82
  8
6MM_ENGRAVE
 10
-77.77941642085555
 20
804.0732200018824
 30
0.0
 42
-0.528572153671556
  0
VERTEX
  5
83
  8
6MM_ENGRAVE
 10
-77.78495870524232
 20
804.057721837109
 30
0.0
 42
-0.0008974509690686
  0
VERTEX
  5
84
  8
6MM_ENGRAVE
 10
-80.4818941076321
 20
803.3602327461231
 30
0.0
 42
0.0008974509690192
  0
VERTEX
  5
85
  8
6MM_ENGRAVE
 10
-83.17882951002144
 20
802.6627436551372
 30
0.0
  0
VERTEX
  5
86
  8
6MM_ENGRAVE
 10
-77.77710896998728
 20
801.2376768866386
 30
0.0
  0
VERTEX
  5
87
  8
6MM_ENGRAVE
 10
-76.07695643941297
 20
796.7548180314318
 30
0.0
  0
VERTEX
  5
88
  8
6MM_ENGRAVE
 10
-74.36389436794803
 20
801.2484161108741
 30
0.0
  0
VERTEX
  5
89
  8
6MM_ENGRAVE
 10
-68.97508336880409
 20
802.6627436551372
 30
0.0
 42
0.0005041938326824
  0
VERTEX
  5
8A
  8
6MM_ENGRAVE
 10
-71.67793272064779
 20
803.3677176524268
 30
0.0
 42
-0.0005041938325835
  0
VERTEX
  5
8B
  8
6MM_ENGRAVE
 10
-74.38078207249094
 20
804.0726916497164
 30
0.0
 42
-0.3998813752753463
  0
VERTEX
  5
8C
  8
6MM_ENGRAVE
 10
-74.38416132632995
 20
804.0781561764657
 30
0.0
 42
0.2672658564920533
  0
VERTEX
  5
8D
  8
6MM_ENGRAVE
 10
-74.38615404899235
 20
804.0842643239339
 30
0.0
 42
0.1165558919076346
  0
VERTEX
  5
8E
  8
6MM_ENGRAVE
 10
-74.38190090479708
 20
804.087573552803
 30
0.0
 42
-0.2271103990047046
  0
VERTEX
  5
8F
  8
6MM_ENGRAVE
 10
-74.37704064550206
 20
804.0899012363807
 30
0.0
 42
-0.0000704315442778
  0
VERTEX
  5
90
  8
6MM_ENGRAVE
 10
-69.17129437422923
 20
804.0891613436611
 30
0.0
 42
0.000070431543093
  0
VERTEX
  5
91
  8
6MM_ENGRAVE
 10
-63.96554810295653
 20
804.0884214509417
 30
0.0
 42
-0.0125375453468379
  0
VERTEX
  5
92
  8
6MM_ENGRAVE
 10
-63.98229781077152
 20
801.7617530563643
 30
0.0
 42
-0.0811224683308011
  0
VERTEX
  5
93
  8
6MM_ENGRAVE
 10
-64.49602327341837
 20
799.1492407054526
 30
0.0
 42
-0.0904311940605169
  0
VERTEX
  5
94
  8
6MM_ENGRAVE
 10
-66.21831964501031
 20
796.2525843759703
 30
0.0
 42
-0.1330013154763879
  0
VERTEX
  5
95
  8
6MM_ENGRAVE
 10
-72.09699455074613
 20
792.3203260634061
 30
0.0
 42
-0.0974553400692623
  0
VERTEX
  5
96
  8
6MM_ENGRAVE
 10
-77.92959691149609
 20
791.5530353735492
 30
0.0
 42
-0.0975682569794642
  0
VERTEX
  5
97
  8
6MM_ENGRAVE
 10
-83.61125807548467
 20
793.0524219220579
 30
0.0
 42
-0.1076164465152198
  0
VERTEX
  5
98
  8
6MM_ENGRAVE
 10
-87.56179883270727
 20
796.1626610565683
 30
0.0
 42
-0.1143333367832672
  0
VERTEX
  5
99
  8
6MM_ENGRAVE
 10
-89.6734049271968
 20
800.405824814043
 30
0.0
 42
-0.0170814826084425
  0
VERTEX
  5
9A
  8
6MM_ENGRAVE
 10
-89.7934050221788
 20
800.9980248360425
 30
0.0
 42
0.0056933353703639
  0
VERTEX
  5
9B
  8
6MM_ENGRAVE
 10
-89.8998889396926
 20
801.5928038405159
 30
0.0
  0
VERTEX
  5
9C
  8
6MM_ENGRAVE
 10
-89.89987525858643
 20
804.0884543074644
 30
0.0
  0
SEQEND
  5
276
  8
6MM_ENGRAVE
  0
POLYLINE
  5
71
  8
6MM_ENGRAVE
 66
     1
 10
0.0
 20
0.0
 30
0.0
 70
     1
  0
VERTEX
  5
9D
  8
6MM_ENGRAVE
 10
5.41979764330342
 20
802.3873931794602
 30
0.0
  0
VERTEX
  5
9E
  8
6MM_ENGRAVE
 10
18.89336035081151
 20
802.3864416550964
 30
0.0
  0
VERTEX
  5
9F
  8
6MM_ENGRAVE
 10
18.89357250630219
 20
808.2064581101678
 30
0.0
  0
VERTEX
  5
A0
  8
6MM_ENGRAVE
 10
3.856207774941426
 20
808.2078258678284
 30
0.0
 42
0.0284547993658444
  0
VERTEX
  5
A1
  8
6MM_ENGRAVE
 10
2.380613520065511
 20
810.5800246716913
 30
0.0
 42
0.0425591169468926
  0
VERTEX
  5
A2
  8
6MM_ENGRAVE
 10
1.178361072489666
 20
812.0119556415377
 30
0.0
 42
0.0617171282319418
  0
VERTEX
  5
A3
  8
6MM_ENGRAVE
 10
-1.884853871074238
 20
814.4091495913287
 30
0.0
 42
0.0976849000277724
  0
VERTEX
  5
A4
  8
6MM_ENGRAVE
 10
-9.280299801193395
 20
817.0751829612473
 30
0.0
  0
VERTEX
  5
A5
  8
6MM_ENGRAVE
 10
-9.280397426095563
 20
829.2879508504693
 30
0.0
  0
VERTEX
  5
A6
  8
6MM_ENGRAVE
 10
-15.28045149742675
 20
829.2879470565192
 30
0.0
  0
VERTEX
  5
A7
  8
6MM_ENGRAVE
 10
-15.28051051538525
 20
817.0740657935481
 30
0.0
 42
0.033121077195956
  0
VERTEX
  5
A8
  8
6MM_ENGRAVE
 10
-19.05290882328939
 20
816.0594821051758
 30
0.0
 42
0.0849266764923912
  0
VERTEX
  5
A9
  8
6MM_ENGRAVE
 10
-24.4728414345626
 20
813.109831228353
 30
0.0
 42
0.0418665700411366
  0
VERTEX
  5
AA
  8
6MM_ENGRAVE
 10
-26.25224990096353
 20
811.447054927396
 30
0.0
 42
0.043873995867839
  0
VERTEX
  5
AB
  8
6MM_ENGRAVE
 10
-27.65501710420661
 20
809.5937100173549
 30
0.0
 42
0.0219264512995434
  0
VERTEX
  5
AC
  8
6MM_ENGRAVE
 10
-28.04528112459894
 20
808.9063006551983
 30
0.0
 42
-0.0073077762357931
  0
VERTEX
  5
AD
  8
6MM_ENGRAVE
 10
-28.41528791453137
 20
808.2077789216803
 30
0.0
  0
VERTEX
  5
AE
  8
6MM_ENGRAVE
 10
-108.1066040671562
 20
808.2064955402502
 30
0.0
  0
VERTEX
  5
AF
  8
6MM_ENGRAVE
 10
-108.1066040671562
 20
802.3864578429897
 30
0.0
  0
VERTEX
  5
B0
  8
6MM_ENGRAVE
 10
-94.63296563179468
 20
802.3869730850025
 30
0.0
 42
0.0387526605295567
  0
VERTEX
  5
B1
  8
6MM_ENGRAVE
 10
-94.405721101081
 20
799.8617566673313
 30
0.0
 42
0.0513628485683379
  0
VERTEX
  5
B2
  8
6MM_ENGRAVE
 10
-93.89517567372543
 20
798.0159477863376
 30
0.0
 42
0.1838371496650265
  0
VERTEX
  5
B3
  8
6MM_ENGRAVE
 10
-86.21949227439336
 20
789.5435526104845
 30
0.0
 42
0.2162990789689725
  0
VERTEX
  5
B4
  8
6MM_ENGRAVE
 10
-69.36336888921355
 20
788.7837257122176
 30
0.0
 42
0.1381006420178734
  0
VERTEX
  5
B5
  8
6MM_ENGRAVE
 10
-61.86853889426397
 20
794.5460920264754
 30
0.0
 42
0.1591653884174604
  0
VERTEX
  5
B6
  8
6MM_ENGRAVE
 10
-59.23170309191678
 20
802.3667084297949
 30
0.0
 42
0.0120513831787407
  0
VERTEX
  5
B7
  8
6MM_ENGRAVE
 10
-59.23174814855218
 20
802.3697964940022
 30
0.0
 42
0.0021586726842407
  0
VERTEX
  5
B8
  8
6MM_ENGRAVE
 10
-59.2324893594295
 20
802.3870199305187
 30
0.0
  0
VERTEX
  5
B9
  8
6MM_ENGRAVE
 10
-29.98075313950995
 20
802.3872887921848
 30
0.0
 42
0.0257820118061991
  0
VERTEX
  5
BA
  8
6MM_ENGRAVE
 10
-29.81973341101372
 20
800.2911273922882
 30
0.0
 42
0.0539756251545182
  0
VERTEX
  5
BB
  8
6MM_ENGRAVE
 10
-29.32820292605627
 20
798.2477678103811
 30
0.0
 42
0.1669980963285278
  0
VERTEX
  5
BC
  8
6MM_ENGRAVE
 10
-23.09644490575981
 20
790.4598751315602
 30
0.0
 42
0.1923989854010969
  0
VERTEX
  5
BD
  8
6MM_ENGRAVE
 10
-8.353725388310838
 20
787.7032528881257
 30
0.0
 42
0.1582567564938972
  0
VERTEX
  5
BE
  8
6MM_ENGRAVE
 10
1.919305514712905
 20
793.4389841794139
 30
0.0
 42
0.1078329248486538
  0
VERTEX
  5
BF
  8
6MM_ENGRAVE
 10
4.775586604018466
 20
798.2823405528914
 30
0.0
 42
0.040606723859865
  0
VERTEX
  5
C0
  8
6MM_ENGRAVE
 10
5.32122280991562
 20
800.5430139898432
 30
0.0
 42
0.051177816751802
  0
SEQEND
  5
277
  8
6MM_ENGRAVE
  0
POLYLINE
  5
72
  8
6MM_ENGRAVE
 66
     1
 10
0.0
 20
0.0
 30
0.0
 70
     1
  0
VERTEX
  5
C1
  8
6MM_ENGRAVE
 10
-25.22410977996553
 20
803.0161052700191
 30
0.0
  0
VERTEX
  5
C2
  8
6MM_ENGRAVE
 10
-25.22411368131689
 20
803.0160712830484
 30
0.0
  0
VERTEX
  5
C3
  8
6MM_ENGRAVE
 10
-25.19762264307921
 20
803.2804493614647
 30
0.0
  0
VERTEX
  5
C4
  8
6MM_ENGRAVE
 10
-25.16364055006723
 20
803.5428896770773
 30
0.0
  0
VERTEX
  5
C5
  8
6MM_ENGRAVE
 10
-25.12225933346907
 20
803.8033210068158
 30
0.0
  0
VERTEX
  5
C6
  8
6MM_ENGRAVE
 10
-25.07357092447272
 20
804.0616721276106
 30
0.0
  0
VERTEX
  5
C7
  8
6MM_ENGRAVE
 10
-25.01766725426724
 20
804.3178718163911
 30
0.0
  0
VERTEX
  5
C8
  8
6MM_ENGRAVE
 10
-24.95464025404017
 20
804.5718488500872
 30
0.0
  0
VERTEX
  5
C9
  8
6MM_ENGRAVE
 10
-24.8845818549806
 20
804.8235320056291
 30
0.0
  0
VERTEX
  5
CA
  8
6MM_ENGRAVE
 10
-24.80758398827656
 20
805.0728500599462
 30
0.0
  0
VERTEX
  5
CB
  8
6MM_ENGRAVE
 10
-24.72373858511661
 20
805.3197317899686
 30
0.0
  0
VERTEX
  5
CC
  8
6MM_ENGRAVE
 10
-24.63313757668858
 20
805.5641059726261
 30
0.0
  0
VERTEX
  5
CD
  8
6MM_ENGRAVE
 10
-24.535872894181
 20
805.8059013848485
 30
0.0
  0
VERTEX
  5
CE
  8
6MM_ENGRAVE
 10
-24.43203646878281
 20
806.0450468035656
 30
0.0
  0
VERTEX
  5
CF
  8
6MM_ENGRAVE
 10
-24.32172023168157
 20
806.2814710057074
 30
0.0
  0
VERTEX
  5
D0
  8
6MM_ENGRAVE
 10
-24.2050161140654
 20
806.5151027682037
 30
0.0
  0
VERTEX
  5
D1
  8
6MM_ENGRAVE
 10
-24.08201604712379
 20
806.7458708679844
 30
0.0
  0
VERTEX
  5
D2
  8
6MM_ENGRAVE
 10
-23.95281196204444
 20
806.9737040819791
 30
0.0
  0
VERTEX
  5
D3
  8
6MM_ENGRAVE
 10
-23.81749579001554
 20
807.1985311871179
 30
0.0
  0
VERTEX
  5
D4
  8
6MM_ENGRAVE
 10
-23.67615946222547
 20
807.4202809603305
 30
0.0
  0
VERTEX
  5
D5
  8
6MM_ENGRAVE
 10
-23.52889490986267
 20
807.638882178547
 30
0.0
  0
VERTEX
  5
D6
  8
6MM_ENGRAVE
 10
-23.37579406411565
 20
807.8542636186969
 30
0.0
  0
VERTEX
  5
D7
  8
6MM_ENGRAVE
 10
-23.21694885617241
 20
808.0663540577102
 30
0.0
  0
VERTEX
  5
D8
  8
6MM_ENGRAVE
 10
-23.05245121722162
 20
808.2750822725168
 30
0.0
  0
VERTEX
  5
D9
  8
6MM_ENGRAVE
 10
-22.88239307845116
 20
808.4803770400465
 30
0.0
  0
VERTEX
  5
DA
  8
6MM_ENGRAVE
 10
-22.70686637105037
 20
808.6821671372293
 30
0.0
  0
VERTEX
  5
DB
  8
6MM_ENGRAVE
 10
-22.5259630262065
 20
808.8803813409947
 30
0.0
  0
VERTEX
  5
DC
  8
6MM_ENGRAVE
 10
-22.3397749751082
 20
809.0749484282728
 30
0.0
  0
VERTEX
  5
DD
  8
6MM_ENGRAVE
 10
-22.14839414894398
 20
809.2657971759934
 30
0.0
  0
VERTEX
  5
DE
  8
6MM_ENGRAVE
 10
-21.951912478902
 20
809.4528563610863
 30
0.0
  0
VERTEX
  5
DF
  8
6MM_ENGRAVE
 10
-21.75042189617061
 20
809.6360547604814
 30
0.0
  0
VERTEX
  5
E0
  8
6MM_ENGRAVE
 10
-21.54401433193854
 20
809.8153211511086
 30
0.0
  0
VERTEX
  5
E1
  8
6MM_ENGRAVE
 10
-21.33278171739374
 20
809.9905843098977
 30
0.0
  0
VERTEX
  5
E2
  8
6MM_ENGRAVE
 10
-21.11681598372425
 20
810.1617730137784
 30
0.0
  0
VERTEX
  5
E3
  8
6MM_ENGRAVE
 10
-20.89620906211908
 20
810.3288160396808
 30
0.0
  0
VERTEX
  5
E4
  8
6MM_ENGRAVE
 10
-20.67105288376652
 20
810.4916421645346
 30
0.0
  0
VERTEX
  5
E5
  8
6MM_ENGRAVE
 10
-20.44143937985419
 20
810.6501801652697
 30
0.0
  0
VERTEX
  5
E6
  8
6MM_ENGRAVE
 10
-20.20746048157105
 20
810.8043588188159
 30
0.0
  0
VERTEX
  5
E7
  8
6MM_ENGRAVE
 10
-19.96920812010544
 20
810.954106902103
 30
0.0
  0
VERTEX
  5
E8
  8
6MM_ENGRAVE
 10
-19.72677422664546
 20
811.099353192061
 30
0.0
  0
VERTEX
  5
E9
  8
6MM_ENGRAVE
 10
-19.48025073237994
 20
811.2400264656196
 30
0.0
  0
VERTEX
  5
EA
  8
6MM_ENGRAVE
 10
-19.22972956849634
 20
811.3760554997089
 30
0.0
  0
VERTEX
  5
EB
  8
6MM_ENGRAVE
 10
-18.97530266618378
 20
811.5073690712584
 30
0.0
  0
VERTEX
  5
EC
  8
6MM_ENGRAVE
 10
-18.71706195663018
 20
811.6338959571981
 30
0.0
  0
VERTEX
  5
ED
  8
6MM_ENGRAVE
 10
-18.45509937102418
 20
811.7555649344579
 30
0.0
  0
VERTEX
  5
EE
  8
6MM_ENGRAVE
 10
-18.18950684055377
 20
811.8723047799676
 30
0.0
  0
VERTEX
  5
EF
  8
6MM_ENGRAVE
 10
-17.92037629640767
 20
811.984044270657
 30
0.0
  0
VERTEX
  5
F0
  8
6MM_ENGRAVE
 10
-17.64779966977405
 20
812.0907121834562
 30
0.0
  0
VERTEX
  5
F1
  8
6MM_ENGRAVE
 10
-17.37186889184093
 20
812.1922372952947
 30
0.0
  0
VERTEX
  5
F2
  8
6MM_ENGRAVE
 10
-17.09267589379686
 20
812.2885483831025
 30
0.0
  0
VERTEX
  5
F3
  8
6MM_ENGRAVE
 10
-16.81031260683078
 20
812.3795742238094
 30
0.0
  0
VERTEX
  5
F4
  8
6MM_ENGRAVE
 10
-16.52487096213002
 20
812.4652435943453
 30
0.0
  0
VERTEX
  5
F5
  8
6MM_ENGRAVE
 10
-16.23644289088326
 20
812.54548527164
 30
0.0
  0
VERTEX
  5
F6
  8
6MM_ENGRAVE
 10
-15.94512032427934
 20
812.6202280326236
 30
0.0
  0
VERTEX
  5
F7
  8
6MM_ENGRAVE
 10
-15.65099519350607
 20
812.6894006542257
 30
0.0
  0
VERTEX
  5
F8
  8
6MM_ENGRAVE
 10
-15.35415942975228
 20
812.752931913376
 30
0.0
  0
VERTEX
  5
F9
  8
6MM_ENGRAVE
 10
-15.05470496420573
 20
812.8107505870046
 30
0.0
  0
VERTEX
  5
FA
  8
6MM_ENGRAVE
 10
-14.75272372805514
 20
812.8627854520412
 30
0.0
  0
VERTEX
  5
FB
  8
6MM_ENGRAVE
 10
-14.44830765248894
 20
812.9089652854159
 30
0.0
  0
VERTEX
  5
FC
  8
6MM_ENGRAVE
 10
-14.14154866869483
 20
812.9492188640583
 30
0.0
  0
VERTEX
  5
FD
  8
6MM_ENGRAVE
 10
-13.83253870786161
 20
812.9834749648983
 30
0.0
  0
VERTEX
  5
FE
  8
6MM_ENGRAVE
 10
-13.52136970117807
 20
813.0116623648657
 30
0.0
  0
VERTEX
  5
FF
  8
6MM_ENGRAVE
 10
-13.20813357983213
 20
813.0337098408905
 30
0.0
  0
VERTEX
  5
100
  8
6MM_ENGRAVE
 10
-12.89292227501145
 20
813.0495461699024
 30
0.0
  0
VERTEX
  5
101
  8
6MM_ENGRAVE
 10
-12.57582771790531
 20
813.0591001288315
 30
0.0
  0
VERTEX
  5
102
  8
6MM_ENGRAVE
 10
-12.25694183970155
 20
813.0623004946073
 30
0.0
  0
VERTEX
  5
103
  8
6MM_ENGRAVE
 10
-11.9378822482614
 20
813.0591111028507
 30
0.0
  0
VERTEX
  5
104
  8
6MM_ENGRAVE
 10
-11.62027597502684
 20
813.0495898367953
 30
0.0
  0
VERTEX
  5
105
  8
6MM_ENGRAVE
 10
-11.30423157307309
 20
813.0338068525305
 30
0.0
  0
VERTEX
  5
106
  8
6MM_ENGRAVE
 10
-10.98985759547618
 20
813.0118323061449
 30
0.0
  0
VERTEX
  5
107
  8
6MM_ENGRAVE
 10
-10.67726259531199
 20
812.9837363537285
 30
0.0
  0
VERTEX
  5
108
  8
6MM_ENGRAVE
 10
-10.36655512565693
 20
812.9495891513703
 30
0.0
  0
VERTEX
  5
109
  8
6MM_ENGRAVE
 10
-10.05784373958619
 20
812.9094608551595
 30
0.0
  0
VERTEX
  5
10A
  8
6MM_ENGRAVE
 10
-9.751236990176468
 20
812.8634216211856
 30
0.0
  0
VERTEX
  5
10B
  8
6MM_ENGRAVE
 10
-9.446843430502982
 20
812.8115416055375
 30
0.0
  0
VERTEX
  5
10C
  8
6MM_ENGRAVE
 10
-9.144771613642265
 20
812.7538909643049
 30
0.0
  0
VERTEX
  5
10D
  8
6MM_ENGRAVE
 10
-8.84513009267002
 20
812.690539853577
 30
0.0
  0
VERTEX
  5
10E
  8
6MM_ENGRAVE
 10
-8.548027420662324
 20
812.6215584294429
 30
0.0
  0
VERTEX
  5
10F
  8
6MM_ENGRAVE
 10
-8.253572150694371
 20
812.5470168479919
 30
0.0
  0
VERTEX
  5
110
  8
6MM_ENGRAVE
 10
-7.961872835843341
 20
812.4669852653135
 30
0.0
  0
VERTEX
  5
111
  8
6MM_ENGRAVE
 10
-7.673038029184315
 20
812.3815338374968
 30
0.0
  0
VERTEX
  5
112
  8
6MM_ENGRAVE
 10
-7.387176283793028
 20
812.290732720631
 30
0.0
  0
VERTEX
  5
113
  8
6MM_ENGRAVE
 10
-7.104396152745981
 20
812.1946520708058
 30
0.0
  0
VERTEX
  5
114
  8
6MM_ENGRAVE
 10
-6.824806189119503
 20
812.0933620441101
 30
0.0
  0
VERTEX
  5
115
  8
6MM_ENGRAVE
 10
-6.548514945988078
 20
811.9869327966333
 30
0.0
  0
VERTEX
  5
116
  8
6MM_ENGRAVE
 10
-6.275630976428904
 20
811.8754344844647
 30
0.0
  0
VERTEX
  5
117
  8
6MM_ENGRAVE
 10
-6.006262833517287
 20
811.7589372636934
 30
0.0
  0
VERTEX
  5
118
  8
6MM_ENGRAVE
 10
-5.740519070329601
 20
811.6375112904091
 30
0.0
  0
VERTEX
  5
119
  8
6MM_ENGRAVE
 10
-5.478508239941608
 20
811.5112267207005
 30
0.0
  0
VERTEX
  5
11A
  8
6MM_ENGRAVE
 10
-5.220338895429041
 20
811.3801537106574
 30
0.0
  0
VERTEX
  5
11B
  8
6MM_ENGRAVE
 10
-4.966119589867407
 20
811.2443624163689
 30
0.0
  0
VERTEX
  5
11C
  8
6MM_ENGRAVE
 10
-4.715958876334032
 20
811.1039229939242
 30
0.0
  0
VERTEX
  5
11D
  8
6MM_ENGRAVE
 10
-4.469965307903852
 20
810.9589055994127
 30
0.0
  0
VERTEX
  5
11E
  8
6MM_ENGRAVE
 10
-4.228247437652744
 20
810.8093803889237
 30
0.0
  0
VERTEX
  5
11F
  8
6MM_ENGRAVE
 10
-3.990913818656612
 20
810.6554175185465
 30
0.0
  0
VERTEX
  5
120
  8
6MM_ENGRAVE
 10
-3.758073003992269
 20
810.4970871443701
 30
0.0
  0
VERTEX
  5
121
  8
6MM_ENGRAVE
 10
-3.529833546734739
 20
810.3344594224841
 30
0.0
  0
VERTEX
  5
122
  8
6MM_ENGRAVE
 10
-3.306303999959869
 20
810.1676045089777
 30
0.0
  0
VERTEX
  5
123
  8
6MM_ENGRAVE
 10
-3.087592916744068
 20
809.99659255994
 30
0.0
  0
VERTEX
  5
124
  8
6MM_ENGRAVE
 10
-2.873808850163567
 20
809.8214937314606
 30
0.0
  0
VERTEX
  5
125
  8
6MM_ENGRAVE
 10
-2.665060353293637
 20
809.6423781796286
 30
0.0
  0
VERTEX
  5
126
  8
6MM_ENGRAVE
 10
-2.461455979210296
 20
809.4593160605334
 30
0.0
  0
VERTEX
  5
127
  8
6MM_ENGRAVE
 10
-2.263104280989676
 20
809.2723775302642
 30
0.0
  0
VERTEX
  5
128
  8
6MM_ENGRAVE
 10
-2.07011381170808
 20
809.0816327449102
 30
0.0
  0
VERTEX
  5
129
  8
6MM_ENGRAVE
 10
-1.882593124440415
 20
808.8871518605607
 30
0.0
  0
VERTEX
  5
12A
  8
6MM_ENGRAVE
 10
-1.700650772263469
 20
808.6890050333052
 30
0.0
  0
VERTEX
  5
12B
  8
6MM_ENGRAVE
 10
-1.524395308252974
 20
808.4872624192326
 30
0.0
  0
VERTEX
  5
12C
  8
6MM_ENGRAVE
 10
-1.353935285484862
 20
808.2819941744326
 30
0.0
  0
VERTEX
  5
12D
  8
6MM_ENGRAVE
 10
-1.189379257035011
 20
808.0732704549944
 30
0.0
  0
VERTEX
  5
12E
  8
6MM_ENGRAVE
 10
-1.03083577597938
 20
807.861161417007
 30
0.0
  0
VERTEX
  5
12F
  8
6MM_ENGRAVE
 10
-0.8784133953936752
 20
807.6457372165598
 30
0.0
  0
VERTEX
  5
130
  8
6MM_ENGRAVE
 10
-0.732220668354115
 20
807.4270680097424
 30
0.0
  0
VERTEX
  5
131
  8
6MM_ENGRAVE
 10
-0.5923661479362305
 20
807.2052239526438
 30
0.0
  0
VERTEX
  5
132
  8
6MM_ENGRAVE
 10
-0.4589583872167236
 20
806.9802752013532
 30
0.0
  0
VERTEX
  5
133
  8
6MM_ENGRAVE
 10
-0.3321059392707877
 20
806.7522919119599
 30
0.0
  0
VERTEX
  5
134
  8
6MM_ENGRAVE
 10
-0.2119173571749524
 20
806.5213442405534
 30
0.0
  0
VERTEX
  5
135
  8
6MM_ENGRAVE
 10
-0.0985011940044966
 20
806.287502343223
 30
0.0
  0
VERTEX
  5
136
  8
6MM_ENGRAVE
 10
0.0080339971644765
 20
806.0508363760578
 30
0.0
  0
VERTEX
  5
137
  8
6MM_ENGRAVE
 10
0.1075796632553807
 20
805.811416495147
 30
0.0
  0
VERTEX
  5
138
  8
6MM_ENGRAVE
 10
0.2000272511929939
 20
805.5693128565802
 30
0.0
  0
VERTEX
  5
139
  8
6MM_ENGRAVE
 10
0.2852682079011846
 20
805.3245956164463
 30
0.0
  0
VERTEX
  5
13A
  8
6MM_ENGRAVE
 10
0.3631939803043895
 20
805.0773349308349
 30
0.0
  0
VERTEX
  5
13B
  8
6MM_ENGRAVE
 10
0.433696015325852
 20
804.8276009558352
 30
0.0
  0
VERTEX
  5
13C
  8
6MM_ENGRAVE
 10
0.4966657598904636
 20
804.5754638475364
 30
0.0
  0
VERTEX
  5
13D
  8
6MM_ENGRAVE
 10
0.551994660921638
 20
804.3209937620279
 30
0.0
  0
VERTEX
  5
13E
  8
6MM_ENGRAVE
 10
0.5995741653435278
 20
804.064260855399
 30
0.0
  0
VERTEX
  5
13F
  8
6MM_ENGRAVE
 10
0.639295720080769
 20
803.8053352837387
 30
0.0
  0
VERTEX
  5
140
  8
6MM_ENGRAVE
 10
0.6710507720570593
 20
803.5442872031367
 30
0.0
  0
VERTEX
  5
141
  8
6MM_ENGRAVE
 10
0.6947307681961821
 20
803.281186769682
 30
0.0
  0
VERTEX
  5
142
  8
6MM_ENGRAVE
 10
0.7102271554226309
 20
803.016104139464
 30
0.0
  0
VERTEX
  5
143
  8
6MM_ENGRAVE
 10
0.7204810698125232
 20
802.6737240870578
 30
0.0
  0
VERTEX
  5
144
  8
6MM_ENGRAVE
 10
0.7238990412752617
 20
802.3044375617196
 30
0.0
  0
VERTEX
  5
145
  8
6MM_ENGRAVE
 10
0.7204810698125232
 20
801.9351510363815
 30
0.0
  0
VERTEX
  5
146
  8
6MM_ENGRAVE
 10
0.7102271554226309
 20
801.5927709839755
 30
0.0
  0
VERTEX
  5
147
  8
6MM_ENGRAVE
 10
0.6947307681961821
 20
801.3276883537632
 30
0.0
  0
VERTEX
  5
148
  8
6MM_ENGRAVE
 10
0.6710507720570593
 20
801.0645879203141
 30
0.0
  0
VERTEX
  5
149
  8
6MM_ENGRAVE
 10
0.639295720080769
 20
800.8035398397174
 30
0.0
  0
VERTEX
  5
14A
  8
6MM_ENGRAVE
 10
0.5995741653435278
 20
800.5446142680623
 30
0.0
  0
VERTEX
  5
14B
  8
6MM_ENGRAVE
 10
0.551994660921638
 20
800.2878813614384
 30
0.0
  0
VERTEX
  5
14C
  8
6MM_ENGRAVE
 10
0.4966657598904636
 20
800.0334112759349
 30
0.0
  0
VERTEX
  5
14D
  8
6MM_ENGRAVE
 10
0.433696015325852
 20
799.7812741676407
 30
0.0
  0
VERTEX
  5
14E
  8
6MM_ENGRAVE
 10
0.3631939803043895
 20
799.5315401926456
 30
0.0
  0
VERTEX
  5
14F
  8
6MM_ENGRAVE
 10
0.2852682079011846
 20
799.2842795070386
 30
0.0
  0
VERTEX
  5
150
  8
6MM_ENGRAVE
 10
0.2000272511929939
 20
799.0395622669091
 30
0.0
  0
VERTEX
  5
151
  8
6MM_ENGRAVE
 10
0.1075796632553807
 20
798.7974586283462
 30
0.0
  0
VERTEX
  5
152
  8
6MM_ENGRAVE
 10
0.0080339971644765
 20
798.5580387474395
 30
0.0
  0
VERTEX
  5
153
  8
6MM_ENGRAVE
 10
-0.0985011940044966
 20
798.3213727802779
 30
0.0
  0
VERTEX
  5
154
  8
6MM_ENGRAVE
 10
-0.2119173571749524
 20
798.0875308829511
 30
0.0
  0
VERTEX
  5
155
  8
6MM_ENGRAVE
 10
-0.3321059392707877
 20
797.856583211548
 30
0.0
  0
VERTEX
  5
156
  8
6MM_ENGRAVE
 10
-0.4589583872167236
 20
797.6285999221583
 30
0.0
  0
VERTEX
  5
157
  8
6MM_ENGRAVE
 10
-0.5923661479362305
 20
797.403651170871
 30
0.0
  0
VERTEX
  5
158
  8
6MM_ENGRAVE
 10
-0.732220668354115
 20
797.1818071137754
 30
0.0
  0
VERTEX
  5
159
  8
6MM_ENGRAVE
 10
-0.8784133953936752
 20
796.9631379069608
 30
0.0
  0
VERTEX
  5
15A
  8
6MM_ENGRAVE
 10
-1.03083577597938
 20
796.7477137065166
 30
0.0
  0
VERTEX
  5
15B
  8
6MM_ENGRAVE
 10
-1.189379257035011
 20
796.5356046685318
 30
0.0
  0
VERTEX
  5
15C
  8
6MM_ENGRAVE
 10
-1.353935285484862
 20
796.3268809490962
 30
0.0
  0
VERTEX
  5
15D
  8
6MM_ENGRAVE
 10
-1.524395308252974
 20
796.1216127042986
 30
0.0
  0
VERTEX
  5
15E
  8
6MM_ENGRAVE
 10
-1.700650772263469
 20
795.9198700902284
 30
0.0
  0
VERTEX
  5
15F
  8
6MM_ENGRAVE
 10
-1.882593124440415
 20
795.721723262975
 30
0.0
  0
VERTEX
  5
160
  8
6MM_ENGRAVE
 10
-2.07011381170808
 20
795.5272423786278
 30
0.0
  0
VERTEX
  5
161
  8
6MM_ENGRAVE
 10
-2.263104280989676
 20
795.3364975932759
 30
0.0
  0
VERTEX
  5
162
  8
6MM_ENGRAVE
 10
-2.461455979210296
 20
795.1495590630085
 30
0.0
  0
VERTEX
  5
163
  8
6MM_ENGRAVE
 10
-2.665060353293637
 20
794.966496943915
 30
0.0
  0
VERTEX
  5
164
  8
6MM_ENGRAVE
 10
-2.873808850163567
 20
794.7873813920847
 30
0.0
  0
VERTEX
  5
165
  8
6MM_ENGRAVE
 10
-3.087592916744068
 20
794.6122825636069
 30
0.0
  0
VERTEX
  5
166
  8
6MM_ENGRAVE
 10
-3.306303999959869
 20
794.4412706145708
 30
0.0
  0
VERTEX
  5
167
  8
6MM_ENGRAVE
 10
-3.529833546734739
 20
794.2744157010659
 30
0.0
  0
VERTEX
  5
168
  8
6MM_ENGRAVE
 10
-3.758073003992269
 20
794.1117879791811
 30
0.0
  0
VERTEX
  5
169
  8
6MM_ENGRAVE
 10
-3.990913818656612
 20
793.9534576050062
 30
0.0
  0
VERTEX
  5
16A
  8
6MM_ENGRAVE
 10
-4.228247437652744
 20
793.7994947346299
 30
0.0
  0
VERTEX
  5
16B
  8
6MM_ENGRAVE
 10
-4.469965307903852
 20
793.6499695241421
 30
0.0
  0
VERTEX
  5
16C
  8
6MM_ENGRAVE
 10
-4.715958876334032
 20
793.5049521296315
 30
0.0
  0
VERTEX
  5
16D
  8
6MM_ENGRAVE
 10
-4.966119589867407
 20
793.3645127071878
 30
0.0
  0
VERTEX
  5
16E
  8
6MM_ENGRAVE
 10
-5.220338895429041
 20
793.2287214129001
 30
0.0
  0
VERTEX
  5
16F
  8
6MM_ENGRAVE
 10
-5.478508239941608
 20
793.0976484028579
 30
0.0
  0
VERTEX
  5
170
  8
6MM_ENGRAVE
 10
-5.740519070329601
 20
792.9713638331501
 30
0.0
  0
VERTEX
  5
171
  8
6MM_ENGRAVE
 10
-6.006262833517287
 20
792.8499378598663
 30
0.0
  0
VERTEX
  5
172
  8
6MM_ENGRAVE
 10
-6.275630976428904
 20
792.7334406390958
 30
0.0
  0
VERTEX
  5
173
  8
6MM_ENGRAVE
 10
-6.548514945988078
 20
792.6219423269276
 30
0.0
  0
VERTEX
  5
174
  8
6MM_ENGRAVE
 10
-6.824806189119503
 20
792.5155130794512
 30
0.0
  0
VERTEX
  5
175
  8
6MM_ENGRAVE
 10
-7.104396152745981
 20
792.414223052756
 30
0.0
  0
VERTEX
  5
176
  8
6MM_ENGRAVE
 10
-7.387176283793028
 20
792.318142402931
 30
0.0
  0
VERTEX
  5
177
  8
6MM_ENGRAVE
 10
-7.673038029184315
 20
792.2273412860658
 30
0.0
  0
VERTEX
  5
178
  8
6MM_ENGRAVE
 10
-7.961872835843341
 20
792.1418898582494
 30
0.0
  0
VERTEX
  5
179
  8
6MM_ENGRAVE
 10
-8.253572150694371
 20
792.0618582755712
 30
0.0
  0
VERTEX
  5
17A
  8
6MM_ENGRAVE
 10
-8.548027420662324
 20
791.9873166941206
 30
0.0
  0
VERTEX
  5
17B
  8
6MM_ENGRAVE
 10
-8.84513009267002
 20
791.9183352699868
 30
0.0
  0
VERTEX
  5
17C
  8
6MM_ENGRAVE
 10
-9.144771613642265
 20
791.8549841592587
 30
0.0
  0
VERTEX
  5
17D
  8
6MM_ENGRAVE
 10
-9.446843430502982
 20
791.7973335180263
 30
0.0
  0
VERTEX
  5
17E
  8
6MM_ENGRAVE
 10
-9.751236990176468
 20
791.7454535023785
 30
0.0
  0
VERTEX
  5
17F
  8
6MM_ENGRAVE
 10
-10.05784373958619
 20
791.6994142684044
 30
0.0
  0
VERTEX
  5
180
  8
6MM_ENGRAVE
 10
-10.36655512565693
 20
791.6592859721939
 30
0.0
  0
VERTEX
  5
181
  8
6MM_ENGRAVE
 10
-10.67726259531199
 20
791.6251387698355
 30
0.0
  0
VERTEX
  5
182
  8
6MM_ENGRAVE
 10
-10.98985759547618
 20
791.5970428174192
 30
0.0
  0
VERTEX
  5
183
  8
6MM_ENGRAVE
 10
-11.30423157307309
 20
791.5750682710337
 30
0.0
  0
VERTEX
  5
184
  8
6MM_ENGRAVE
 10
-11.62027597502684
 20
791.5592852867687
 30
0.0
  0
VERTEX
  5
185
  8
6MM_ENGRAVE
 10
-11.9378822482614
 20
791.5497640207134
 30
0.0
  0
VERTEX
  5
186
  8
6MM_ENGRAVE
 10
-12.25694183970155
 20
791.5465746289569
 30
0.0
  0
VERTEX
  5
187
  8
6MM_ENGRAVE
 10
-12.57582771790531
 20
791.5497749947326
 30
0.0
  0
VERTEX
  5
188
  8
6MM_ENGRAVE
 10
-12.89292227501145
 20
791.5593289536616
 30
0.0
  0
VERTEX
  5
189
  8
6MM_ENGRAVE
 10
-13.20813357983213
 20
791.5751652826737
 30
0.0
  0
VERTEX
  5
18A
  8
6MM_ENGRAVE
 10
-13.52136970117807
 20
791.5972127586984
 30
0.0
  0
VERTEX
  5
18B
  8
6MM_ENGRAVE
 10
-13.83253870786161
 20
791.6254001586659
 30
0.0
  0
VERTEX
  5
18C
  8
6MM_ENGRAVE
 10
-14.14154866869483
 20
791.6596562595059
 30
0.0
  0
VERTEX
  5
18D
  8
6MM_ENGRAVE
 10
-14.44830765248894
 20
791.6999098381483
 30
0.0
  0
VERTEX
  5
18E
  8
6MM_ENGRAVE
 10
-14.75272372805514
 20
791.7460896715229
 30
0.0
  0
VERTEX
  5
18F
  8
6MM_ENGRAVE
 10
-15.05470496420573
 20
791.7981245365596
 30
0.0
  0
VERTEX
  5
190
  8
6MM_ENGRAVE
 10
-15.35415942975228
 20
791.8559432101882
 30
0.0
  0
VERTEX
  5
191
  8
6MM_ENGRAVE
 10
-15.65099519350607
 20
791.9194744693385
 30
0.0
  0
VERTEX
  5
192
  8
6MM_ENGRAVE
 10
-15.94512032427934
 20
791.9886470909405
 30
0.0
  0
VERTEX
  5
193
  8
6MM_ENGRAVE
 10
-16.23644289088326
 20
792.063389851924
 30
0.0
  0
VERTEX
  5
194
  8
6MM_ENGRAVE
 10
-16.52487096213002
 20
792.1436315292187
 30
0.0
  0
VERTEX
  5
195
  8
6MM_ENGRAVE
 10
-16.81031260683078
 20
792.2293008997547
 30
0.0
  0
VERTEX
  5
196
  8
6MM_ENGRAVE
 10
-17.09267589379686
 20
792.3203267404616
 30
0.0
  0
VERTEX
  5
197
  8
6MM_ENGRAVE
 10
-17.37186889184093
 20
792.4166378282694
 30
0.0
  0
VERTEX
  5
198
  8
6MM_ENGRAVE
 10
-17.64779966977405
 20
792.5181629401079
 30
0.0
  0
VERTEX
  5
199
  8
6MM_ENGRAVE
 10
-17.92037629640767
 20
792.624830852907
 30
0.0
  0
VERTEX
  5
19A
  8
6MM_ENGRAVE
 10
-18.18950684055377
 20
792.7365703435964
 30
0.0
  0
VERTEX
  5
19B
  8
6MM_ENGRAVE
 10
-18.45509937102418
 20
792.8533101891062
 30
0.0
  0
VERTEX
  5
19C
  8
6MM_ENGRAVE
 10
-18.71706195663018
 20
792.974979166366
 30
0.0
  0
VERTEX
  5
19D
  8
6MM_ENGRAVE
 10
-18.97530266618378
 20
793.1015060523057
 30
0.0
  0
VERTEX
  5
19E
  8
6MM_ENGRAVE
 10
-19.22972956849634
 20
793.2328196238552
 30
0.0
  0
VERTEX
  5
19F
  8
6MM_ENGRAVE
 10
-19.48025073237994
 20
793.3688486579445
 30
0.0
  0
VERTEX
  5
1A0
  8
6MM_ENGRAVE
 10
-19.72677422664546
 20
793.5095219315031
 30
0.0
  0
VERTEX
  5
1A1
  8
6MM_ENGRAVE
 10
-19.96920812010544
 20
793.6547682214609
 30
0.0
  0
VERTEX
  5
1A2
  8
6MM_ENGRAVE
 10
-20.20746048157105
 20
793.8045163047482
 30
0.0
  0
VERTEX
  5
1A3
  8
6MM_ENGRAVE
 10
-20.44143937985419
 20
793.9586949582945
 30
0.0
  0
VERTEX
  5
1A4
  8
6MM_ENGRAVE
 10
-20.67105288376652
 20
794.1172329590295
 30
0.0
  0
VERTEX
  5
1A5
  8
6MM_ENGRAVE
 10
-20.89620906211908
 20
794.2800590838833
 30
0.0
  0
VERTEX
  5
1A6
  8
6MM_ENGRAVE
 10
-21.11681598372425
 20
794.4471021097856
 30
0.0
  0
VERTEX
  5
1A7
  8
6MM_ENGRAVE
 10
-21.33278171739374
 20
794.6182908136665
 30
0.0
  0
VERTEX
  5
1A8
  8
6MM_ENGRAVE
 10
-21.54401433193854
 20
794.7935539724555
 30
0.0
  0
VERTEX
  5
1A9
  8
6MM_ENGRAVE
 10
-21.75042189617061
 20
794.9728203630827
 30
0.0
  0
VERTEX
  5
1AA
  8
6MM_ENGRAVE
 10
-21.951912478902
 20
795.1560187624777
 30
0.0
  0
VERTEX
  5
1AB
  8
6MM_ENGRAVE
 10
-22.14839414894398
 20
795.3430779475707
 30
0.0
  0
VERTEX
  5
1AC
  8
6MM_ENGRAVE
 10
-22.3397749751082
 20
795.5339266952913
 30
0.0
  0
VERTEX
  5
1AD
  8
6MM_ENGRAVE
 10
-22.5259630262065
 20
795.7284937825694
 30
0.0
  0
VERTEX
  5
1AE
  8
6MM_ENGRAVE
 10
-22.70686637105037
 20
795.9267079863349
 30
0.0
  0
VERTEX
  5
1AF
  8
6MM_ENGRAVE
 10
-22.88239307845116
 20
796.1284980835176
 30
0.0
  0
VERTEX
  5
1B0
  8
6MM_ENGRAVE
 10
-23.05245121722162
 20
796.3337928510473
 30
0.0
  0
VERTEX
  5
1B1
  8
6MM_ENGRAVE
 10
-23.21694885617241
 20
796.5425210658539
 30
0.0
  0
VERTEX
  5
1B2
  8
6MM_ENGRAVE
 10
-23.37579406411565
 20
796.7546115048672
 30
0.0
  0
VERTEX
  5
1B3
  8
6MM_ENGRAVE
 10
-23.52889490986267
 20
796.9699929450172
 30
0.0
  0
VERTEX
  5
1B4
  8
6MM_ENGRAVE
 10
-23.67615946222547
 20
797.1885941632336
 30
0.0
  0
VERTEX
  5
1B5
  8
6MM_ENGRAVE
 10
-23.81749579001554
 20
797.4103439364462
 30
0.0
  0
VERTEX
  5
1B6
  8
6MM_ENGRAVE
 10
-23.95281196204444
 20
797.6351710415851
 30
0.0
  0
VERTEX
  5
1B7
  8
6MM_ENGRAVE
 10
-24.08201604712379
 20
797.8630042555799
 30
0.0
  0
VERTEX
  5
1B8
  8
6MM_ENGRAVE
 10
-24.2050161140654
 20
798.0937723553604
 30
0.0
  0
VERTEX
  5
1B9
  8
6MM_ENGRAVE
 10
-24.32172023168157
 20
798.3274041178568
 30
0.0
  0
VERTEX
  5
1BA
  8
6MM_ENGRAVE
 10
-24.43203646878281
 20
798.5638283199985
 30
0.0
  0
VERTEX
  5
1BB
  8
6MM_ENGRAVE
 10
-24.535872894181
 20
798.8029737387158
 30
0.0
  0
VERTEX
  5
1BC
  8
6MM_ENGRAVE
 10
-24.63313757668858
 20
799.0447691509381
 30
0.0
  0
VERTEX
  5
1BD
  8
6MM_ENGRAVE
 10
-24.72373858511661
 20
799.2891433335956
 30
0.0
  0
VERTEX
  5
1BE
  8
6MM_ENGRAVE
 10
-24.80758398827656
 20
799.536025063618
 30
0.0
  0
VERTEX
  5
1BF
  8
6MM_ENGRAVE
 10
-24.8845818549806
 20
799.7853431179352
 30
0.0
  0
VERTEX
  5
1C0
  8
6MM_ENGRAVE
 10
-24.95464025404017
 20
800.0370262734768
 30
0.0
  0
VERTEX
  5
1C1
  8
6MM_ENGRAVE
 10
-25.01766725426724
 20
800.2910033071731
 30
0.0
  0
VERTEX
  5
1C2
  8
6MM_ENGRAVE
 10
-25.07357092447272
 20
800.5472029959537
 30
0.0
  0
VERTEX
  5
1C3
  8
6MM_ENGRAVE
 10
-25.12225933346907
 20
800.8055541167483
 30
0.0
  0
VERTEX
  5
1C4
  8
6MM_ENGRAVE
 10
-25.16364055006723
 20
801.065985446487
 30
0.0
  0
VERTEX
  5
1C5
  8
6MM_ENGRAVE
 10
-25.19762264307921
 20
801.3284257620996
 30
0.0
  0
VERTEX
  5
1C6
  8
6MM_ENGRAVE
 10
-25.22411368131394
 20
801.5928038405159
 30
0.0
  0
SEQEND
  5
278
  8
6MM_ENGRAVE
  0
POLYLINE
  5
73
  8
6MM_ENGRAVE
 66
     1
 10
0.0
 20
0.0
 30
0.0
 70
     1
  0
VERTEX
  5
1C7
  8
6MM_ENGRAVE
 10
4.899351646906192
 20
802.8874297956205
 30
0.0
 42
-0.0267394602957598
  0
VERTEX
  5
1C8
  8
6MM_ENGRAVE
 10
4.728262435179582
 20
800.4836255908226
 30
0.0
 42
-0.0765148249710515
  0
VERTEX
  5
1C9
  8
6MM_ENGRAVE
 10
3.735466133148806
 20
796.9950165276413
 30
0.0
 42
-0.1048473330506779
  0
VERTEX
  5
1CA
  8
6MM_ENGRAVE
 10
0.48328530389138
 20
792.6171004351745
 30
0.0
 42
-0.1536209274841777
  0
VERTEX
  5
1CB
  8
6MM_ENGRAVE
 10
-9.96399540490478
 20
787.9755415019205
 30
0.0
 42
-0.202374703122267
  0
VERTEX
  5
1CC
  8
6MM_ENGRAVE
 10
-24.7004536310409
 20
792.3109570444255
 30
0.0
 42
-0.1917510414584003
  0
VERTEX
  5
1CD
  8
6MM_ENGRAVE
 10
-29.36661035827689
 20
800.7236061571949
 30
0.0
 42
-0.0210793917758917
  0
VERTEX
  5
1CE
  8
6MM_ENGRAVE
 10
-29.42783341215537
 20
801.4391119769886
 30
0.0
 42
-0.0104466890660699
  0
VERTEX
  5
1CF
  8
6MM_ENGRAVE
 10
-29.46015211189053
 20
802.8872934374011
 30
0.0
  0
VERTEX
  5
1D0
  8
6MM_ENGRAVE
 10
-59.75221874326596
 20
802.8870150137396
 30
0.0
 42
-0.023686143626511
  0
VERTEX
  5
1D1
  8
6MM_ENGRAVE
 10
-59.91504926623333
 20
800.5033031033458
 30
0.0
 42
-0.0522623625490926
  0
VERTEX
  5
1D2
  8
6MM_ENGRAVE
 10
-60.41904746065217
 20
798.249448488629
 30
0.0
 42
-0.1415241614751358
  0
VERTEX
  5
1D3
  8
6MM_ENGRAVE
 10
-64.57485536540365
 20
792.2474212482036
 30
0.0
 42
-0.20381635310588
  0
VERTEX
  5
1D4
  8
6MM_ENGRAVE
 10
-79.2628310991473
 20
787.9938702302516
 30
0.0
 42
-0.142780352561056
  0
VERTEX
  5
1D5
  8
6MM_ENGRAVE
 10
-89.32749020855132
 20
792.2953123318944
 30
0.0
 42
-0.1759681601752471
  0
VERTEX
  5
1D6
  8
6MM_ENGRAVE
 10
-93.90154346913182
 20
800.0150415967245
 30
0.0
 42
-0.0282671438628161
  0
VERTEX
  5
1D7
  8
6MM_ENGRAVE
 10
-94.0258482598447
 20
800.9657775587133
 30
0.0
 42
-0.0140844386279425
  0
VERTEX
  5
1D8
  8
6MM_ENGRAVE
 10
-94.11298152697238
 20
802.886992830141
 30
0.0
  0
VERTEX
  5
1D9
  8
6MM_ENGRAVE
 10
-107.6066042069644
 20
802.8864768239157
 30
0.0
  0
VERTEX
  5
1DA
  8
6MM_ENGRAVE
 10
-107.6066042069644
 20
807.7065037321951
 30
0.0
  0
VERTEX
  5
1DB
  8
6MM_ENGRAVE
 10
-28.09925648355402
 20
807.7077841509227
 30
0.0
 42
-0.0322204985752376
  0
VERTEX
  5
1DC
  8
6MM_ENGRAVE
 10
-26.58985107272971
 20
810.1223935114638
 30
0.0
 42
-0.0821179232994955
  0
VERTEX
  5
1DD
  8
6MM_ENGRAVE
 10
-23.39524585594957
 20
813.3069847043487
 30
0.0
 42
-0.0626306242163848
  0
VERTEX
  5
1DE
  8
6MM_ENGRAVE
 10
-19.57327933586868
 20
815.3695094924117
 30
0.0
 42
-0.0547908530108519
  0
VERTEX
  5
1DF
  8
6MM_ENGRAVE
 10
-14.78051272367341
 20
816.6459886219328
 30
0.0
  0
VERTEX
  5
1E0
  8
6MM_ENGRAVE
 10
-14.78045405324684
 20
828.7879475124855
 30
0.0
  0
VERTEX
  5
1E1
  8
6MM_ENGRAVE
 10
-9.78039328946443
 20
828.7879506741203
 30
0.0
  0
VERTEX
  5
1E2
  8
6MM_ENGRAVE
 10
-9.780296241134097
 20
816.6473113306001
 30
0.0
 42
-0.0278426556648328
  0
VERTEX
  5
1E3
  8
6MM_ENGRAVE
 10
-5.466091447194106
 20
815.5385261744257
 30
0.0
 42
-0.1017618337576888
  0
VERTEX
  5
1E4
  8
6MM_ENGRAVE
 10
-0.1615916231219341
 20
812.5709909490231
 30
0.0
 42
-0.051873531844802
  0
VERTEX
  5
1E5
  8
6MM_ENGRAVE
 10
1.821657199618899
 20
810.4602072173907
 30
0.0
 42
-0.0462783599981778
  0
VERTEX
  5
1E6
  8
6MM_ENGRAVE
 10
3.540012596594353
 20
807.7078547658189
 30
0.0
  0
VERTEX
  5
1E7
  8
6MM_ENGRAVE
 10
18.3935544210761
 20
807.7065037281881
 30
0.0
  0
VERTEX
  5
1E8
  8
6MM_ENGRAVE
 10
18.39337871793516
 20
802.8864768260308
 30
0.0
  0
SEQEND
  5
279
  8
6MM_ENGRAVE
  0
POLYLINE
  5
74
  8
6MM_ENGRAVE
 66
     1
 10
0.0
 20
0.0
 30
0.0
 70
     1
  0
VERTEX
  5
1E9
  8
6MM_ENGRAVE
 10
17.89339708505828
 20
803.3865119969653
 30
0.0
  0
VERTEX
  5
1EA
  8
6MM_ENGRAVE
 10
17.8935363358499
 20
807.2065493462087
 30
0.0
  0
VERTEX
  5
1EB
  8
6MM_ENGRAVE
 10
3.223817418247735
 20
807.2078836638093
 30
0.0
 42
0.0159800910567258
  0
VERTEX
  5
1EC
  8
6MM_ENGRAVE
 10
2.118063400253847
 20
809.0855210485191
 30
0.0
 42
0.0562566099135111
  0
VERTEX
  5
1ED
  8
6MM_ENGRAVE
 10
0.2292355245574118
 20
811.437697917927
 30
0.0
 42
0.0846237212758973
  0
VERTEX
  5
1EE
  8
6MM_ENGRAVE
 10
-3.931064358234568
 20
814.3639095721333
 30
0.0
 42
0.072370069687689
  0
VERTEX
  5
1EF
  8
6MM_ENGRAVE
 10
-9.602741131274941
 20
816.1161760217315
 30
0.0
 42
0.0014685943887535
  0
VERTEX
  5
1F0
  8
6MM_ENGRAVE
 10
-9.941466355375214
 20
816.1681395435112
 30
0.0
 42
-0.0004895311500252
  0
VERTEX
  5
1F1
  8
6MM_ENGRAVE
 10
-10.2802926810748
 20
816.2194396999531
 30
0.0
  0
VERTEX
  5
1F2
  8
6MM_ENGRAVE
 10
-10.28038915283284
 20
828.2879504977714
 30
0.0
  0
VERTEX
  5
1F3
  8
6MM_ENGRAVE
 10
-14.28045660906681
 20
828.2879479684516
 30
0.0
  0
VERTEX
  5
1F4
  8
6MM_ENGRAVE
 10
-14.28051493196201
 20
816.2179114503176
 30
0.0
 42
0.0224508948156587
  0
VERTEX
  5
1F5
  8
6MM_ENGRAVE
 10
-18.15042311555879
 20
815.3137249152469
 30
0.0
 42
0.086109950680854
  0
VERTEX
  5
1F6
  8
6MM_ENGRAVE
 10
-22.9576350760493
 20
813.0139574841606
 30
0.0
 42
0.0844904321793277
  0
VERTEX
  5
1F7
  8
6MM_ENGRAVE
 10
-26.23849456003526
 20
809.725235909994
 30
0.0
 42
0.0326386372831212
  0
VERTEX
  5
1F8
  8
6MM_ENGRAVE
 10
-27.78322505257611
 20
807.207789380165
 30
0.0
  0
VERTEX
  5
1F9
  8
6MM_ENGRAVE
 10
-107.1066043467726
 20
807.2065119241399
 30
0.0
  0
VERTEX
  5
1FA
  8
6MM_ENGRAVE
 10
-107.1066043467726
 20
803.3864958048417
 30
0.0
  0
VERTEX
  5
1FB
  8
6MM_ENGRAVE
 10
-93.61054505191488
 20
803.387011904245
 30
0.0
 42
0.02608637500317
  0
VERTEX
  5
1FC
  8
6MM_ENGRAVE
 10
-93.43042881239883
 20
800.6069699156693
 30
0.0
 42
0.0884015069490876
  0
VERTEX
  5
1FD
  8
6MM_ENGRAVE
 10
-92.2996413746401
 20
796.8614698330911
 30
0.0
 42
0.1332120357231342
  0
VERTEX
  5
1FE
  8
6MM_ENGRAVE
 10
-87.37209238197534
 20
791.4039833469753
 30
0.0
 42
0.2019894099609983
  0
VERTEX
  5
1FF
  8
6MM_ENGRAVE
 10
-72.61585189435954
 20
788.8268560688563
 30
0.0
 42
0.1475050010074819
  0
VERTEX
  5
200
  8
6MM_ENGRAVE
 10
-63.53897872629836
 20
794.0071948882999
 30
0.0
 42
0.1392622647011904
  0
VERTEX
  5
201
  8
6MM_ENGRAVE
 10
-60.52698860807204
 20
799.7569400854713
 30
0.0
 42
0.0327879298223147
  0
VERTEX
  5
202
  8
6MM_ENGRAVE
 10
-60.36038424925784
 20
800.937083759517
 30
0.0
 42
0.0159230254558437
  0
VERTEX
  5
203
  8
6MM_ENGRAVE
 10
-60.25533957424859
 20
803.387010249615
 30
0.0
  0
VERTEX
  5
204
  8
6MM_ENGRAVE
 10
-28.95883111904518
 20
803.3872979054088
 30
0.0
 42
0.0141285207932194
  0
VERTEX
  5
205
  8
6MM_ENGRAVE
 10
-28.80830522244022
 20
800.7084120802895
 30
0.0
 42
0.0529941945625457
  0
VERTEX
  5
206
  8
6MM_ENGRAVE
 10
-28.44582376015554
 20
798.8264204471841
 30
0.0
 42
0.1514988659171831
  0
VERTEX
  5
207
  8
6MM_ENGRAVE
 10
-24.15458347575721
 20
792.5116848758978
 30
0.0
 42
0.2184151671416249
  0
VERTEX
  5
208
  8
6MM_ENGRAVE
 10
-8.697989085399032
 20
788.6778252097943
 30
0.0
 42
0.1522620143793361
  0
VERTEX
  5
209
  8
6MM_ENGRAVE
 10
0.9291871012658977
 20
793.8022872310252
 30
0.0
 42
0.1443889582537788
  0
VERTEX
  5
20A
  8
6MM_ENGRAVE
 10
4.124959561561527
 20
799.7556706499245
 30
0.0
 42
0.0327507267472971
  0
VERTEX
  5
20B
  8
6MM_ENGRAVE
 10
4.291535416117172
 20
800.9344891596108
 30
0.0
 42
0.0158674380691993
  0
VERTEX
  5
20C
  8
6MM_ENGRAVE
 10
4.397490761304313
 20
803.3874650992706
 30
0.0
  0
SEQEND
  5
27A
  8
6MM_ENGRAVE
  0
POLYLINE
  5
75
  8
6MM_ENGRAVE
 66
     1
 10
0.0
 20
0.0
 30
0.0
 70
     1
  0
VERTEX
  5
20D
  8
6MM_ENGRAVE
 10
-25.06484963428535
 20
798.7609445217113
 30
0.0
 42
0.1466254483904966
  0
VERTEX
  5
20E
  8
6MM_ENGRAVE
 10
-21.2899179731161
 20
793.9271786535278
 30
0.0
 42
0.2128420894279838
  0
VERTEX
  5
20F
  8
6MM_ENGRAVE
 10
-8.774261171291643
 20
791.4268795992064
 30
0.0
 42
0.1244360773421736
  0
VERTEX
  5
210
  8
6MM_ENGRAVE
 10
-2.178351176967634
 20
794.776106005658
 30
0.0
 42
0.3181963331986492
  0
VERTEX
  5
211
  8
6MM_ENGRAVE
 10
0.5288881079485623
 20
805.973675106223
 30
0.0
 42
0.1470361575216549
  0
VERTEX
  5
212
  8
6MM_ENGRAVE
 10
-3.309020535715252
 20
810.8090781469147
 30
0.0
 42
0.160230117899874
  0
VERTEX
  5
213
  8
6MM_ENGRAVE
 10
-12.61632996161965
 20
813.5881507903416
 30
0.0
 42
0.1537776850612092
  0
VERTEX
  5
214
  8
6MM_ENGRAVE
 10
-21.39133951054947
 20
810.5553946758159
 30
0.0
 42
0.1004189785201626
  0
VERTEX
  5
215
  8
6MM_ENGRAVE
 10
-24.42881086723177
 20
807.1796682026286
 30
0.0
 42
0.1147824438303635
  0
VERTEX
  5
216
  8
6MM_ENGRAVE
 10
-25.71138500409175
 20
803.0910467810501
 30
0.0
 42
0.1122803320216643
  0
SEQEND
  5
27B
  8
6MM_ENGRAVE
  0
POLYLINE
  5
76
  8
6MM_ENGRAVE
 66
     1
 10
0.0
 20
0.0
 30
0.0
 70
     1
  0
VERTEX
  5
217
  8
6MM_ENGRAVE
 10
-23.98562154946832
 20
795.914707448391
 30
0.0
 42
-0.107131128433849
  0
VERTEX
  5
218
  8
6MM_ENGRAVE
 10
-25.90995948358768
 20
800.0690637269352
 30
0.0
 42
-0.2058027477365002
  0
VERTEX
  5
219
  8
6MM_ENGRAVE
 10
-24.38979885296963
 20
808.1652652318634
 30
0.0
 42
-0.1224911823373106
  0
VERTEX
  5
21A
  8
6MM_ENGRAVE
 10
-20.02442760791865
 20
812.115280579616
 30
0.0
 42
-0.1876450616598394
  0
VERTEX
  5
21B
  8
6MM_ENGRAVE
 10
-8.149690035008067
 20
813.5561067005608
 30
0.0
 42
-0.1426256737875065
  0
VERTEX
  5
21C
  8
6MM_ENGRAVE
 10
-0.9219776810368323
 20
809.2865194738786
 30
0.0
 42
-0.1790259888549752
  0
VERTEX
  5
21D
  8
6MM_ENGRAVE
 10
1.709666036435552
 20
803.0549023243816
 30
0.0
 42
-0.0976939326098244
  0
VERTEX
  5
21E
  8
6MM_ENGRAVE
 10
1.047658878127139
 20
798.6592818897891
 30
0.0
 42
-0.1013086665316926
  0
VERTEX
  5
21F
  8
6MM_ENGRAVE
 10
-1.180498132126797
 20
794.9937219980588
 30
0.0
 42
-0.1076356512807227
  0
VERTEX
  5
220
  8
6MM_ENGRAVE
 10
-5.712963092050689
 20
791.8377464874904
 30
0.0
 42
-0.1689833701890826
  0
VERTEX
  5
221
  8
6MM_ENGRAVE
 10
-16.80268244001376
 20
791.1827830564985
 30
0.0
 42
-0.0768270451363731
  0
VERTEX
  5
222
  8
6MM_ENGRAVE
 10
-20.973340027723
 20
793.0913198911524
 30
0.0
 42
-0.0854686855296568
  0
SEQEND
  5
27C
  8
6MM_ENGRAVE
  0
POLYLINE
  5
77
  8
6MM_ENGRAVE
 66
     1
 10
0.0
 20
0.0
 30
0.0
 70
     1
  0
VERTEX
  5
223
  8
6MM_ENGRAVE
 10
-63.46554824276476
 20
804.5884206776778
 30
0.0
  0
VERTEX
  5
224
  8
6MM_ENGRAVE
 10
-90.39987237779248
 20
804.5884548011088
 30
0.0
 42
0.0066073238971192
  0
VERTEX
  5
225
  8
6MM_ENGRAVE
 10
-90.25892623637039
 20
801.2765227999058
 30
0.0
 42
0.0958663880146461
  0
VERTEX
  5
226
  8
6MM_ENGRAVE
 10
-89.46045978854531
 20
798.1084646556333
 30
0.0
 42
0.1299050034442761
  0
VERTEX
  5
227
  8
6MM_ENGRAVE
 10
-85.95266585116093
 20
793.9133600337832
 30
0.0
 42
0.1895343845592698
  0
VERTEX
  5
228
  8
6MM_ENGRAVE
 10
-74.87420916582003
 20
791.1858108404332
 30
0.0
 42
0.1446289436788158
  0
VERTEX
  5
229
  8
6MM_ENGRAVE
 10
-66.91993290014322
 20
794.7426402921212
 30
0.0
 42
0.182856009388397
  0
VERTEX
  5
22A
  8
6MM_ENGRAVE
 10
-63.56723324376544
 20
800.8604309336108
 30
0.0
 42
0.0280924141402931
  0
VERTEX
  5
22B
  8
6MM_ENGRAVE
 10
-63.51640886506721
 20
801.4681340357517
 30
0.0
 42
0.0054854513480322
  0
SEQEND
  5
27D
  8
6MM_ENGRAVE
  0
POLYLINE
  5
78
  8
6MM_ENGRAVE
 66
     1
 10
0.0
 20
0.0
 30
0.0
 70
     1
  0
VERTEX
  5
22C
  8
6MM_ENGRAVE
 10
-90.90382639761658
 20
805.0884552997666
 30
0.0
  0
VERTEX
  5
22D
  8
6MM_ENGRAVE
 10
-62.97526632215963
 20
805.0884199167256
 30
0.0
 42
-0.0042421540946627
  0
VERTEX
  5
22E
  8
6MM_ENGRAVE
 10
-63.00843356838403
 20
801.7751177083551
 30
0.0
 42
-0.0866567358560073
  0
VERTEX
  5
22F
  8
6MM_ENGRAVE
 10
-63.60617995723477
 20
798.6899264304604
 30
0.0
 42
-0.1426874100915662
  0
VERTEX
  5
230
  8
6MM_ENGRAVE
 10
-67.36847674292036
 20
793.7173634212237
 30
0.0
 42
-0.2100643659394022
  0
VERTEX
  5
231
  8
6MM_ENGRAVE
 10
-79.9275913133523
 20
790.8361715987587
 30
0.0
 42
-0.1219500432883904
  0
VERTEX
  5
232
  8
6MM_ENGRAVE
 10
-86.85133994936382
 20
794.0224572466027
 30
0.0
 42
-0.1480515781410056
  0
VERTEX
  5
233
  8
6MM_ENGRAVE
 10
-90.43551901328603
 20
799.229798868605
 30
0.0
 42
-0.0659598018847448
  0
VERTEX
  5
234
  8
6MM_ENGRAVE
 10
-90.75786700526926
 20
801.0305709263517
 30
0.0
 42
-0.0047234364549453
  0
SEQEND
  5
27E
  8
6MM_ENGRAVE
  0
POLYLINE
  5
79
  8
6MM_ENGRAVE
 66
     1
 10
0.0
 20
0.0
 30
0.0
 70
     1
  0
VERTEX
  5
235
  8
6MM_ENGRAVE
 10
-120.0632237742897
 20
849.7575483140615
 30
0.0
 42
0.024078418808765
  0
VERTEX
  5
236
  8
6MM_ENGRAVE
 10
-119.6423924019581
 20
845.8474624414807
 30
0.0
 42
0.0459937936989477
  0
VERTEX
  5
237
  8
6MM_ENGRAVE
 10
-118.6205996767242
 20
841.7999837727195
 30
0.0
 42
0.0760754067307605
  0
VERTEX
  5
238
  8
6MM_ENGRAVE
 10
-114.8746299101063
 20
834.7950033377542
 30
0.0
 42
0.0787836586478805
  0
VERTEX
  5
239
  8
6MM_ENGRAVE
 10
-105.4535506098653
 20
825.6481653243418
 30
0.0
 42
0.0632570747865679
  0
VERTEX
  5
23A
  8
6MM_ENGRAVE
 10
-94.25982908172877
 20
819.7200416972246
 30
0.0
 42
0.090833166546644
  0
VERTEX
  5
23B
  8
6MM_ENGRAVE
 10
-67.59010909317087
 20
814.8800160330923
 30
0.0
 42
0.0379033897848592
  0
VERTEX
  5
23C
  8
6MM_ENGRAVE
 10
-55.83479358107287
 20
815.7918569665194
 30
0.0
 42
0.0381700126337746
  0
VERTEX
  5
23D
  8
6MM_ENGRAVE
 10
-44.43324709907372
 20
818.4552829262204
 30
0.0
 42
0.0677367650157593
  0
VERTEX
  5
23E
  8
6MM_ENGRAVE
 10
-30.92961285302855
 20
824.8299724365929
 30
0.0
 42
0.0776483134627619
  0
VERTEX
  5
23F
  8
6MM_ENGRAVE
 10
-21.22002142833333
 20
833.542177033734
 30
0.0
 42
0.0614241437478868
  0
VERTEX
  5
240
  8
6MM_ENGRAVE
 10
-17.47366053820021
 20
839.4937884867606
 30
0.0
 42
0.0676546546543189
  0
VERTEX
  5
241
  8
6MM_ENGRAVE
 10
-15.56081612271114
 20
845.5907935312397
 30
0.0
 42
0.0136343742294756
  0
VERTEX
  5
242
  8
6MM_ENGRAVE
 10
-15.37662117677413
 20
846.8825373361096
 30
0.0
 42
0.0061577322586876
  0
VERTEX
  5
243
  8
6MM_ENGRAVE
 10
-15.08232448575031
 20
849.7561740284937
 30
0.0
  0
VERTEX
  5
244
  8
6MM_ENGRAVE
 10
-22.11061775017184
 20
849.7575483140608
 30
0.0
 42
-0.0206108339859391
  0
VERTEX
  5
245
  8
6MM_ENGRAVE
 10
-22.41621319083889
 20
846.8812992887558
 30
0.0
 42
-0.0592785039940569
  0
VERTEX
  5
246
  8
6MM_ENGRAVE
 10
-23.55627981580339
 20
842.6883889056204
 30
0.0
 42
-0.0574454132994024
  0
VERTEX
  5
247
  8
6MM_ENGRAVE
 10
-25.87173566159565
 20
838.4365262142205
 30
0.0
 42
-0.046882238184247
  0
VERTEX
  5
248
  8
6MM_ENGRAVE
 10
-29.72143998386961
 20
833.9315689077285
 30
0.0
 42
-0.0147039549152863
  0
VERTEX
  5
249
  8
6MM_ENGRAVE
 10
-30.601490605708
 20
833.1270901767116
 30
0.0
 42
0.00490100435889
  0
VERTEX
  5
24A
  8
6MM_ENGRAVE
 10
-31.49714200490548
 20
832.340017310471
 30
0.0
  0
VERTEX
  5
24B
  8
6MM_ENGRAVE
 10
-31.49714200490252
 20
849.7575483140613
 30
0.0
  0
VERTEX
  5
24C
  8
6MM_ENGRAVE
 10
-35.49714560997744
 20
849.7575483140613
 30
0.0
  0
VERTEX
  5
24D
  8
6MM_ENGRAVE
 10
-35.49714560997744
 20
829.4078502419945
 30
0.0
  0
VERTEX
  5
24E
  8
6MM_ENGRAVE
 10
-36.81945141263634
 20
828.5874809877146
 30
0.0
 42
-0.0183054540801704
  0
VERTEX
  5
24F
  8
6MM_ENGRAVE
 10
-39.20326734308799
 20
827.2876027101071
 30
0.0
 42
-0.0126370392666822
  0
VERTEX
  5
250
  8
6MM_ENGRAVE
 10
-42.76556510800723
 20
825.6220919668317
 30
0.0
  0
VERTEX
  5
251
  8
6MM_ENGRAVE
 10
-42.76556510800314
 20
849.7575483140613
 30
0.0
  0
VERTEX
  5
252
  8
6MM_ENGRAVE
 10
-46.76556871307505
 20
849.7575483140613
 30
0.0
  0
VERTEX
  5
253
  8
6MM_ENGRAVE
 10
-46.76556871307357
 20
824.1220368921092
 30
0.0
 42
-0.0117599100094608
  0
VERTEX
  5
254
  8
6MM_ENGRAVE
 10
-50.75195508655105
 20
822.9649100521838
 30
0.0
 42
-0.0143003533561402
  0
VERTEX
  5
255
  8
6MM_ENGRAVE
 10
-54.07550345411396
 20
822.1853607643318
 30
0.0
  0
VERTEX
  5
256
  8
6MM_ENGRAVE
 10
-54.07550345411293
 20
849.7575483140604
 30
0.0
  0
VERTEX
  5
257
  8
6MM_ENGRAVE
 10
-58.07550705918535
 20
849.7575483140613
 30
0.0
  0
VERTEX
  5
258
  8
6MM_ENGRAVE
 10
-58.07550705918137
 20
821.5140708786836
 30
0.0
 42
-0.0126597946395644
  0
VERTEX
  5
259
  8
6MM_ENGRAVE
 10
-61.74519413675512
 20
821.1203720321657
 30
0.0
 42
-0.0122077041656748
  0
VERTEX
  5
25A
  8
6MM_ENGRAVE
 10
-65.56632964477252
 20
820.9017836164896
 30
0.0
  0
VERTEX
  5
25B
  8
6MM_ENGRAVE
 10
-65.5663296447715
 20
849.7575483140608
 30
0.0
  0
VERTEX
  5
25C
  8
6MM_ENGRAVE
 10
-69.56633324984185
 20
849.7575483140608
 30
0.0
  0
VERTEX
  5
25D
  8
6MM_ENGRAVE
 10
-69.56633324984185
 20
820.9011221762539
 30
0.0
 42
-0.0120740058954379
  0
VERTEX
  5
25E
  8
6MM_ENGRAVE
 10
-73.42768467542669
 20
821.120284960858
 30
0.0
 42
-0.0127934948588188
  0
VERTEX
  5
25F
  8
6MM_ENGRAVE
 10
-77.05715583543302
 20
821.5080334698189
 30
0.0
  0
VERTEX
  5
260
  8
6MM_ENGRAVE
 10
-77.05715583543109
 20
849.7575483140608
 30
0.0
  0
VERTEX
  5
261
  8
6MM_ENGRAVE
 10
-81.05715944050097
 20
849.7575483140608
 30
0.0
  0
VERTEX
  5
262
  8
6MM_ENGRAVE
 10
-81.05715944050142
 20
822.1779325087082
 30
0.0
 42
-0.0140879628480151
  0
VERTEX
  5
263
  8
6MM_ENGRAVE
 10
-84.42104660045248
 20
822.9644317722841
 30
0.0
 42
-0.0119722875564945
  0
VERTEX
  5
264
  8
6MM_ENGRAVE
 10
-88.32557893853124
 20
824.0948028984997
 30
0.0
  0
VERTEX
  5
265
  8
6MM_ENGRAVE
 10
-88.32557893853021
 20
849.7575483140618
 30
0.0
  0
VERTEX
  5
266
  8
6MM_ENGRAVE
 10
-92.32558254359954
 20
849.7575483140618
 30
0.0
  0
VERTEX
  5
267
  8
6MM_ENGRAVE
 10
-92.32558254360113
 20
825.5880029115514
 30
0.0
 42
-0.0124709653280615
  0
VERTEX
  5
268
  8
6MM_ENGRAVE
 10
-95.97111641412955
 20
827.2899715147017
 30
0.0
 42
-0.018499242080011
  0
VERTEX
  5
269
  8
6MM_ENGRAVE
 10
-98.35341090099965
 20
828.5874809877146
 30
0.0
  0
VERTEX
  5
26A
  8
6MM_ENGRAVE
 10
-99.71261702165916
 20
829.4307434988341
 30
0.0
  0
VERTEX
  5
26B
  8
6MM_ENGRAVE
 10
-99.71261702166166
 20
849.7575483140618
 30
0.0
  0
VERTEX
  5
26C
  8
6MM_ENGRAVE
 10
-103.7126206267311
 20
849.7575483140618
 30
0.0
  0
VERTEX
  5
26D
  8
6MM_ENGRAVE
 10
-103.7126206267301
 20
832.3705728980335
 30
0.0
 42
-0.0152754209396949
  0
VERTEX
  5
26E
  8
6MM_ENGRAVE
 10
-106.344114134583
 20
834.87891626644
 30
0.0
 42
-0.0339426562480925
  0
VERTEX
  5
26F
  8
6MM_ENGRAVE
 10
-108.6263570395807
 20
837.5290677025449
 30
0.0
 42
-0.0627277026912915
  0
VERTEX
  5
270
  8
6MM_ENGRAVE
 10
-111.614982741815
 20
842.7756024490486
 30
0.0
 42
-0.0707832123184367
  0
VERTEX
  5
271
  8
6MM_ENGRAVE
 10
-112.9463197719337
 20
847.9641367352158
 30
0.0
 42
-0.0169865709498973
  0
VERTEX
  5
272
  8
6MM_ENGRAVE
 10
-113.0144362628002
 20
848.8601861714758
 30
0.0
 42
0.0056617063085762
  0
VERTEX
  5
273
  8
6MM_ENGRAVE
 10
-113.0622445633897
 20
849.7575483140608
 30
0.0
  0
SEQEND
  5
27F
  8
6MM_ENGRAVE
  0
ENDSEC
  0
EOF
