  0
SECTION
  2
HEADER
  9
$ACADVER
  1
AC1009
  9
$DWGCODEPAGE
  3
ansi_1252
  9
$INSBASE
 10
0.0
 20
0.0
 30
0.0
  9
$EXTMIN
 10
-460.3643676283204
 20
909.3536838091077
 30
0.0
  9
$EXTMAX
 10
-434.4163549057277
 20
930.8694096747577
 30
0.0
  9
$LIMMIN
 10
0.0
 20
0.0
  9
$LIMMAX
 10
12.0
 20
9.0
  9
$ORTHOMODE
 70
     0
  9
$REGENMODE
 70
     1
  9
$FILLMODE
 70
     1
  9
$QTEXTMODE
 70
     0
  9
$MIRRTEXT
 70
     1
  9
$DRAGMODE
 70
     2
  9
$LTSCALE
 40
1.0
  9
$OSMODE
 70
    37
  9
$ATTMODE
 70
     1
  9
$TEXTSIZE
 40
0.2
  9
$TRACEWID
 40
0.05
  9
$TEXTSTYLE
  7
STANDARD
  9
$CLAYER
  8
0
  9
$CELTYPE
  6
BYLAYER
  9
$CECOLOR
 62
   256
  9
$DIMSCALE
 40
1.0
  9
$DIMASZ
 40
0.18
  9
$DIMEXO
 40
0.0625
  9
$DIMDLI
 40
0.38
  9
$DIMRND
 40
0.0
  9
$DIMDLE
 40
0.0
  9
$DIMEXE
 40
0.18
  9
$DIMTP
 40
0.0
  9
$DIMTM
 40
0.0
  9
$DIMTXT
 40
0.18
  9
$DIMCEN
 40
0.09
  9
$DIMTSZ
 40
0.0
  9
$DIMTOL
 70
     0
  9
$DIMLIM
 70
     0
  9
$DIMTIH
 70
     1
  9
$DIMTOH
 70
     1
  9
$DIMSE1
 70
     0
  9
$DIMSE2
 70
     0
  9
$DIMTAD
 70
     0
  9
$DIMZIN
 70
     0
  9
$DIMBLK
  1

  9
$DIMASO
 70
     1
  9
$DIMSHO
 70
     1
  9
$DIMPOST
  1

  9
$DIMAPOST
  1

  9
$DIMALT
 70
     0
  9
$DIMALTD
 70
     2
  9
$DIMALTF
 40
25.4
  9
$DIMLFAC
 40
1.0
  9
$DIMTOFL
 70
     0
  9
$DIMTVP
 40
0.0
  9
$DIMTIX
 70
     0
  9
$DIMSOXD
 70
     0
  9
$DIMSAH
 70
     0
  9
$DIMBLK1
  1

  9
$DIMBLK2
  1

  9
$DIMSTYLE
  2
STANDARD
  9
$DIMCLRD
 70
     0
  9
$DIMCLRE
 70
     0
  9
$DIMCLRT
 70
     0
  9
$DIMTFAC
 40
1.0
  9
$DIMGAP
 40
0.09
  9
$LUNITS
 70
     2
  9
$LUPREC
 70
     4
  9
$SKETCHINC
 40
0.1
  9
$FILLETRAD
 40
0.5
  9
$AUNITS
 70
     0
  9
$AUPREC
 70
     0
  9
$MENU
  1
.
  9
$ELEVATION
 40
0.0
  9
$PELEVATION
 40
0.0
  9
$THICKNESS
 40
0.0
  9
$LIMCHECK
 70
     0
  9
$CHAMFERA
 40
0.5
  9
$CHAMFERB
 40
0.5
  9
$SKPOLY
 70
     0
  9
$TDCREATE
 40
2454910.5
  9
$TDUPDATE
 40
2458454.707838009
  9
$TDINDWG
 40
0.0000000116
  9
$TDUSRTIMER
 40
0.0000000116
  9
$USRTIMER
 70
     1
  9
$ANGBASE
 50
0.0
  9
$ANGDIR
 70
     0
  9
$PDMODE
 70
     0
  9
$PDSIZE
 40
0.0
  9
$PLINEWID
 40
0.0
  9
$COORDS
 70
     1
  9
$SPLFRAME
 70
     0
  9
$SPLINETYPE
 70
     6
  9
$SPLINESEGS
 70
     8
  9
$ATTDIA
 70
     0
  9
$ATTREQ
 70
     1
  9
$HANDLING
 70
     1
  9
$HANDSEED
  5
14E
  9
$SURFTAB1
 70
     6
  9
$SURFTAB2
 70
     6
  9
$SURFTYPE
 70
     6
  9
$SURFU
 70
     6
  9
$SURFV
 70
     6
  9
$UCSNAME
  2

  9
$UCSORG
 10
0.0
 20
0.0
 30
0.0
  9
$UCSXDIR
 10
1.0
 20
0.0
 30
0.0
  9
$UCSYDIR
 10
0.0
 20
1.0
 30
0.0
  9
$PUCSNAME
  2

  9
$PUCSORG
 10
0.0
 20
0.0
 30
0.0
  9
$PUCSXDIR
 10
1.0
 20
0.0
 30
0.0
  9
$PUCSYDIR
 10
0.0
 20
1.0
 30
0.0
  9
$USERI1
 70
     0
  9
$USERI2
 70
     0
  9
$USERI3
 70
     0
  9
$USERI4
 70
     0
  9
$USERI5
 70
     0
  9
$USERR1
 40
0.0
  9
$USERR2
 40
0.0
  9
$USERR3
 40
0.0
  9
$USERR4
 40
0.0
  9
$USERR5
 40
0.0
  9
$WORLDVIEW
 70
     1
  9
$SHADEDGE
 70
     3
  9
$SHADEDIF
 70
    70
  9
$TILEMODE
 70
     1
  9
$MAXACTVP
 70
    64
  9
$PLIMCHECK
 70
     0
  9
$PEXTMIN
 10
1.000000000000000E+20
 20
1.000000000000000E+20
 30
1.000000000000000E+20
  9
$PEXTMAX
 10
-1.000000000000000E+20
 20
-1.000000000000000E+20
 30
-1.000000000000000E+20
  9
$PLIMMIN
 10
0.0
 20
0.0
  9
$PLIMMAX
 10
12.0
 20
9.0
  9
$UNITMODE
 70
     0
  9
$VISRETAIN
 70
     1
  9
$PLINEGEN
 70
     0
  9
$PSLTSCALE
 70
     1
  0
ENDSEC
  0
SECTION
  2
TABLES
  0
TABLE
  2
VPORT
 70
     1
  0
VPORT
  2
*ACTIVE
 70
     0
 10
0.0
 20
0.0
 11
1.0
 21
1.0
 12
10.42990654205607
 22
4.5
 13
0.0
 23
0.0
 14
0.5
 24
0.5
 15
0.5
 25
0.5
 16
0.0
 26
0.0
 36
1.0
 17
0.0
 27
0.0
 37
0.0
 40
9.0
 41
1.972972972850329
 42
50.0
 43
0.0
 44
0.0
 50
0.0
 51
0.0
 71
     0
 72
   100
 73
     1
 74
     3
 75
     0
 76
     0
 77
     0
 78
     0
  0
ENDTAB
  0
TABLE
  2
LTYPE
 70
     2
  0
LTYPE
  2
CONTINUOUS
 70
     0
  3
Solid line
 72
    65
 73
     0
 40
0.0
  0
LTYPE
  2
CONTINUOUS2
 70
     0
  3
Solid Line
 72
    65
 73
     0
 40
0.0
  0
ENDTAB
  0
TABLE
  2
LAYER
 70
     2
  0
LAYER
  2
0
 70
     0
 62
     7
  6
CONTINUOUS
  0
LAYER
  2
CUT_FIRST
 70
     0
 62
   105
  6
CONTINUOUS
  0
ENDTAB
  0
TABLE
  2
STYLE
 70
     1
  0
STYLE
  2
STANDARD
 70
     0
 40
0.0
 41
1.0
 50
0.0
 71
     0
 42
0.2
  3
txt
  4

  0
ENDTAB
  0
TABLE
  2
VIEW
 70
     0
  0
ENDTAB
  0
TABLE
  2
UCS
 70
     0
  0
ENDTAB
  0
TABLE
  2
APPID
 70
     1
  0
APPID
  2
ACAD
 70
     0
  0
ENDTAB
  0
TABLE
  2
DIMSTYLE
 70
     1
  0
DIMSTYLE
  2
STANDARD
 70
     0
  3

  4

  5

  6

  7

 40
1.0
 41
0.18
 42
0.0625
 43
0.38
 44
0.18
 45
0.0
 46
0.0
 47
0.0
 48
0.0
140
0.18
141
0.09
142
0.0
143
25.4
144
1.0
145
0.0
146
1.0
147
0.09
 71
     0
 72
     0
 73
     1
 74
     1
 75
     0
 76
     0
 77
     0
 78
     0
170
     0
171
     2
172
     0
173
     0
174
     0
175
     0
176
     0
177
     0
178
     0
  0
ENDTAB
  0
ENDSEC
  0
SECTION
  2
BLOCKS
  0
BLOCK
  8
0
  2
$MODEL_SPACE
 70
     0
 10
0.0
 20
0.0
 30
0.0
  3
$MODEL_SPACE
  1

  0
ENDBLK
  5
21
  8
0
  0
BLOCK
 67
     1
  8
0
  2
$PAPER_SPACE
 70
     0
 10
0.0
 20
0.0
 30
0.0
  3
$PAPER_SPACE
  1

  0
ENDBLK
  5
1D
 67
     1
  8
0
  0
ENDSEC
  0
SECTION
  2
ENTITIES
  0
POLYLINE
  5
41
  8
CUT_FIRST
 66
     1
 10
0.0
 20
0.0
 30
0.0
 70
     1
  0
VERTEX
  5
47
  8
CUT_FIRST
 10
-460.364363726969
 20
920.8232144501699
 30
0.0
  0
VERTEX
  5
48
  8
CUT_FIRST
 10
-460.3643676283204
 20
919.3999130206664
 30
0.0
  0
VERTEX
  5
49
  8
CUT_FIRST
 10
-460.3378765900827
 20
919.1355349422502
 30
0.0
  0
VERTEX
  5
4A
  8
CUT_FIRST
 10
-460.3038944970705
 20
918.8730946266378
 30
0.0
  0
VERTEX
  5
4B
  8
CUT_FIRST
 10
-460.2625132804722
 20
918.612663296899
 30
0.0
  0
VERTEX
  5
4C
  8
CUT_FIRST
 10
-460.213824871476
 20
918.3543121761044
 30
0.0
  0
VERTEX
  5
4D
  8
CUT_FIRST
 10
-460.1579212012704
 20
918.0981124873238
 30
0.0
  0
VERTEX
  5
4E
  8
CUT_FIRST
 10
-460.0948942010436
 20
917.8441354536276
 30
0.0
  0
VERTEX
  5
4F
  8
CUT_FIRST
 10
-460.024835801984
 20
917.5924522980858
 30
0.0
  0
VERTEX
  5
50
  8
CUT_FIRST
 10
-459.9478379352799
 20
917.3431342437686
 30
0.0
  0
VERTEX
  5
51
  8
CUT_FIRST
 10
-459.8639925321198
 20
917.0962525137463
 30
0.0
  0
VERTEX
  5
52
  8
CUT_FIRST
 10
-459.7733915236918
 20
916.8518783310888
 30
0.0
  0
VERTEX
  5
53
  8
CUT_FIRST
 10
-459.6761268411845
 20
916.6100829188665
 30
0.0
  0
VERTEX
  5
54
  8
CUT_FIRST
 10
-459.5722904157859
 20
916.3709375001492
 30
0.0
  0
VERTEX
  5
55
  8
CUT_FIRST
 10
-459.4619741786846
 20
916.1345132980074
 30
0.0
  0
VERTEX
  5
56
  8
CUT_FIRST
 10
-459.3452700610689
 20
915.9008815355112
 30
0.0
  0
VERTEX
  5
57
  8
CUT_FIRST
 10
-459.2222699941271
 20
915.6701134357306
 30
0.0
  0
VERTEX
  5
58
  8
CUT_FIRST
 10
-459.0930659090476
 20
915.4422802217357
 30
0.0
  0
VERTEX
  5
59
  8
CUT_FIRST
 10
-458.9577497370187
 20
915.217453116597
 30
0.0
  0
VERTEX
  5
5A
  8
CUT_FIRST
 10
-458.8164134092287
 20
914.9957033433843
 30
0.0
  0
VERTEX
  5
5B
  8
CUT_FIRST
 10
-458.669148856866
 20
914.7771021251679
 30
0.0
  0
VERTEX
  5
5C
  8
CUT_FIRST
 10
-458.5160480111189
 20
914.5617206850179
 30
0.0
  0
VERTEX
  5
5D
  8
CUT_FIRST
 10
-458.3572028031758
 20
914.3496302460046
 30
0.0
  0
VERTEX
  5
5E
  8
CUT_FIRST
 10
-458.1927051642249
 20
914.140902031198
 30
0.0
  0
VERTEX
  5
5F
  8
CUT_FIRST
 10
-458.0226470254548
 20
913.9356072636683
 30
0.0
  0
VERTEX
  5
60
  8
CUT_FIRST
 10
-457.8471203180536
 20
913.7338171664857
 30
0.0
  0
VERTEX
  5
61
  8
CUT_FIRST
 10
-457.6662169732097
 20
913.5356029627202
 30
0.0
  0
VERTEX
  5
62
  8
CUT_FIRST
 10
-457.4800289221113
 20
913.3410358754421
 30
0.0
  0
VERTEX
  5
63
  8
CUT_FIRST
 10
-457.2886480959471
 20
913.1501871277214
 30
0.0
  0
VERTEX
  5
64
  8
CUT_FIRST
 10
-457.0921664259052
 20
912.9631279426285
 30
0.0
  0
VERTEX
  5
65
  8
CUT_FIRST
 10
-456.8906758431739
 20
912.7799295432335
 30
0.0
  0
VERTEX
  5
66
  8
CUT_FIRST
 10
-456.6842682789417
 20
912.6006631526063
 30
0.0
  0
VERTEX
  5
67
  8
CUT_FIRST
 10
-456.4730356643968
 20
912.4253999938172
 30
0.0
  0
VERTEX
  5
68
  8
CUT_FIRST
 10
-456.2570699307276
 20
912.2542112899364
 30
0.0
  0
VERTEX
  5
69
  8
CUT_FIRST
 10
-456.0364630091224
 20
912.0871682640341
 30
0.0
  0
VERTEX
  5
6A
  8
CUT_FIRST
 10
-455.8113068307696
 20
911.9243421391802
 30
0.0
  0
VERTEX
  5
6B
  8
CUT_FIRST
 10
-455.5816933268576
 20
911.7658041384452
 30
0.0
  0
VERTEX
  5
6C
  8
CUT_FIRST
 10
-455.3477144285745
 20
911.6116254848989
 30
0.0
  0
VERTEX
  5
6D
  8
CUT_FIRST
 10
-455.1094620671089
 20
911.4618774016119
 30
0.0
  0
VERTEX
  5
6E
  8
CUT_FIRST
 10
-454.8670281736491
 20
911.3166311116538
 30
0.0
  0
VERTEX
  5
6F
  8
CUT_FIRST
 10
-454.6205046793832
 20
911.1759578380952
 30
0.0
  0
VERTEX
  5
70
  8
CUT_FIRST
 10
-454.3699835154998
 20
911.039928804006
 30
0.0
  0
VERTEX
  5
71
  8
CUT_FIRST
 10
-454.1155566131872
 20
910.9086152324564
 30
0.0
  0
VERTEX
  5
72
  8
CUT_FIRST
 10
-453.8573159036335
 20
910.7820883465167
 30
0.0
  0
VERTEX
  5
73
  8
CUT_FIRST
 10
-453.5953533180274
 20
910.6604193692569
 30
0.0
  0
VERTEX
  5
74
  8
CUT_FIRST
 10
-453.329760787557
 20
910.5436795237472
 30
0.0
  0
VERTEX
  5
75
  8
CUT_FIRST
 10
-453.0606302434107
 20
910.4319400330578
 30
0.0
  0
VERTEX
  5
76
  8
CUT_FIRST
 10
-452.7880536167769
 20
910.3252721202588
 30
0.0
  0
VERTEX
  5
77
  8
CUT_FIRST
 10
-452.5121228388439
 20
910.2237470084202
 30
0.0
  0
VERTEX
  5
78
  8
CUT_FIRST
 10
-452.2329298408001
 20
910.1274359206125
 30
0.0
  0
VERTEX
  5
79
  8
CUT_FIRST
 10
-451.9505665538337
 20
910.0364100799054
 30
0.0
  0
VERTEX
  5
7A
  8
CUT_FIRST
 10
-451.6651249091331
 20
909.9507407093695
 30
0.0
  0
VERTEX
  5
7B
  8
CUT_FIRST
 10
-451.3766968378866
 20
909.8704990320748
 30
0.0
  0
VERTEX
  5
7C
  8
CUT_FIRST
 10
-451.0853742712827
 20
909.7957562710912
 30
0.0
  0
VERTEX
  5
7D
  8
CUT_FIRST
 10
-450.7912491405095
 20
909.7265836494894
 30
0.0
  0
VERTEX
  5
7E
  8
CUT_FIRST
 10
-450.4944133767556
 20
909.663052390339
 30
0.0
  0
VERTEX
  5
7F
  8
CUT_FIRST
 10
-450.1949589112091
 20
909.6052337167104
 30
0.0
  0
VERTEX
  5
80
  8
CUT_FIRST
 10
-449.8929776750585
 20
909.5531988516736
 30
0.0
  0
VERTEX
  5
81
  8
CUT_FIRST
 10
-449.5885615994921
 20
909.5070190182992
 30
0.0
  0
VERTEX
  5
82
  8
CUT_FIRST
 10
-449.2818026156982
 20
909.4667654396567
 30
0.0
  0
VERTEX
  5
83
  8
CUT_FIRST
 10
-448.9727926548651
 20
909.4325093388168
 30
0.0
  0
VERTEX
  5
84
  8
CUT_FIRST
 10
-448.6616236481813
 20
909.4043219388492
 30
0.0
  0
VERTEX
  5
85
  8
CUT_FIRST
 10
-448.348387526835
 20
909.3822744628244
 30
0.0
  0
VERTEX
  5
86
  8
CUT_FIRST
 10
-448.0331762220146
 20
909.3664381338125
 30
0.0
  0
VERTEX
  5
87
  8
CUT_FIRST
 10
-447.7160816649085
 20
909.3568841748836
 30
0.0
  0
VERTEX
  5
88
  8
CUT_FIRST
 10
-447.397195786705
 20
909.3536838091077
 30
0.0
  0
VERTEX
  5
89
  8
CUT_FIRST
 10
-447.078136195265
 20
909.3568732008641
 30
0.0
  0
VERTEX
  5
8A
  8
CUT_FIRST
 10
-446.7605299220301
 20
909.3663944669195
 30
0.0
  0
VERTEX
  5
8B
  8
CUT_FIRST
 10
-446.4444855200762
 20
909.3821774511846
 30
0.0
  0
VERTEX
  5
8C
  8
CUT_FIRST
 10
-446.1301115424793
 20
909.4041519975699
 30
0.0
  0
VERTEX
  5
8D
  8
CUT_FIRST
 10
-445.8175165423153
 20
909.4322479499864
 30
0.0
  0
VERTEX
  5
8E
  8
CUT_FIRST
 10
-445.50680907266
 20
909.4663951523446
 30
0.0
  0
VERTEX
  5
8F
  8
CUT_FIRST
 10
-445.1980976865894
 20
909.5065234485553
 30
0.0
  0
VERTEX
  5
90
  8
CUT_FIRST
 10
-444.8914909371796
 20
909.5525626825292
 30
0.0
  0
VERTEX
  5
91
  8
CUT_FIRST
 10
-444.5870973775063
 20
909.6044426981771
 30
0.0
  0
VERTEX
  5
92
  8
CUT_FIRST
 10
-444.2850255606456
 20
909.6620933394096
 30
0.0
  0
VERTEX
  5
93
  8
CUT_FIRST
 10
-443.9853840396734
 20
909.7254444501375
 30
0.0
  0
VERTEX
  5
94
  8
CUT_FIRST
 10
-443.6882813676654
 20
909.7944258742714
 30
0.0
  0
VERTEX
  5
95
  8
CUT_FIRST
 10
-443.3938260976978
 20
909.868967455722
 30
0.0
  0
VERTEX
  5
96
  8
CUT_FIRST
 10
-443.1021267828465
 20
909.9489990384002
 30
0.0
  0
VERTEX
  5
97
  8
CUT_FIRST
 10
-442.8132919761873
 20
910.0344504662166
 30
0.0
  0
VERTEX
  5
98
  8
CUT_FIRST
 10
-442.5274302307963
 20
910.1252515830819
 30
0.0
  0
VERTEX
  5
99
  8
CUT_FIRST
 10
-442.2446500997493
 20
910.2213322329069
 30
0.0
  0
VERTEX
  5
9A
  8
CUT_FIRST
 10
-441.9650601361223
 20
910.3226222596022
 30
0.0
  0
VERTEX
  5
9B
  8
CUT_FIRST
 10
-441.6887688929912
 20
910.4290515070784
 30
0.0
  0
VERTEX
  5
9C
  8
CUT_FIRST
 10
-441.415884923432
 20
910.5405498192465
 30
0.0
  0
VERTEX
  5
9D
  8
CUT_FIRST
 10
-441.1465167805204
 20
910.6570470400171
 30
0.0
  0
VERTEX
  5
9E
  8
CUT_FIRST
 10
-440.8807730173327
 20
910.778473013301
 30
0.0
  0
VERTEX
  5
9F
  8
CUT_FIRST
 10
-440.6187621869445
 20
910.9047575830086
 30
0.0
  0
VERTEX
  5
A0
  8
CUT_FIRST
 10
-440.360592842432
 20
911.035830593051
 30
0.0
  0
VERTEX
  5
A1
  8
CUT_FIRST
 10
-440.1063735368708
 20
911.1716218873385
 30
0.0
  0
VERTEX
  5
A2
  8
CUT_FIRST
 10
-439.8562128233372
 20
911.3120613097824
 30
0.0
  0
VERTEX
  5
A3
  8
CUT_FIRST
 10
-439.6102192549068
 20
911.4570787042928
 30
0.0
  0
VERTEX
  5
A4
  8
CUT_FIRST
 10
-439.3685013846558
 20
911.6066039147807
 30
0.0
  0
VERTEX
  5
A5
  8
CUT_FIRST
 10
-439.13116776566
 20
911.7605667851569
 30
0.0
  0
VERTEX
  5
A6
  8
CUT_FIRST
 10
-438.8983269509953
 20
911.9188971593319
 30
0.0
  0
VERTEX
  5
A7
  8
CUT_FIRST
 10
-438.6700874937378
 20
912.0815248812166
 30
0.0
  0
VERTEX
  5
A8
  8
CUT_FIRST
 10
-438.4465579469631
 20
912.2483797947216
 30
0.0
  0
VERTEX
  5
A9
  8
CUT_FIRST
 10
-438.2278468637476
 20
912.4193917437576
 30
0.0
  0
VERTEX
  5
AA
  8
CUT_FIRST
 10
-438.0140627971668
 20
912.5944905722355
 30
0.0
  0
VERTEX
  5
AB
  8
CUT_FIRST
 10
-437.8053143002969
 20
912.7736061240657
 30
0.0
  0
VERTEX
  5
AC
  8
CUT_FIRST
 10
-437.6017099262137
 20
912.9566682431594
 30
0.0
  0
VERTEX
  5
AD
  8
CUT_FIRST
 10
-437.4033582279932
 20
913.1436067734267
 30
0.0
  0
VERTEX
  5
AE
  8
CUT_FIRST
 10
-437.2103677587112
 20
913.3343515587785
 30
0.0
  0
VERTEX
  5
AF
  8
CUT_FIRST
 10
-437.0228470714438
 20
913.5288324431258
 30
0.0
  0
VERTEX
  5
B0
  8
CUT_FIRST
 10
-436.8409047192669
 20
913.7269792703793
 30
0.0
  0
VERTEX
  5
B1
  8
CUT_FIRST
 10
-436.6646492552563
 20
913.9287218844495
 30
0.0
  0
VERTEX
  5
B2
  8
CUT_FIRST
 10
-436.4941892324882
 20
914.133990129247
 30
0.0
  0
VERTEX
  5
B3
  8
CUT_FIRST
 10
-436.3296332040383
 20
914.3427138486827
 30
0.0
  0
VERTEX
  5
B4
  8
CUT_FIRST
 10
-436.1710897229824
 20
914.5548228866674
 30
0.0
  0
VERTEX
  5
B5
  8
CUT_FIRST
 10
-436.0186673423967
 20
914.7702470871116
 30
0.0
  0
VERTEX
  5
B6
  8
CUT_FIRST
 10
-435.8724746153572
 20
914.9889162939261
 30
0.0
  0
VERTEX
  5
B7
  8
CUT_FIRST
 10
-435.7326200949395
 20
915.2107603510217
 30
0.0
  0
VERTEX
  5
B8
  8
CUT_FIRST
 10
-435.5992123342199
 20
915.4357091023091
 30
0.0
  0
VERTEX
  5
B9
  8
CUT_FIRST
 10
-435.4723598862739
 20
915.6636923916989
 30
0.0
  0
VERTEX
  5
BA
  8
CUT_FIRST
 10
-435.3521713041779
 20
915.8946400631019
 30
0.0
  0
VERTEX
  5
BB
  8
CUT_FIRST
 10
-435.2387551410075
 20
916.1284819604286
 30
0.0
  0
VERTEX
  5
BC
  8
CUT_FIRST
 10
-435.1322199498388
 20
916.3651479275901
 30
0.0
  0
VERTEX
  5
BD
  8
CUT_FIRST
 10
-435.0326742837476
 20
916.6045678084969
 30
0.0
  0
VERTEX
  5
BE
  8
CUT_FIRST
 10
-434.9402266958099
 20
916.8466714470596
 30
0.0
  0
VERTEX
  5
BF
  8
CUT_FIRST
 10
-434.8549857391016
 20
917.0913886871892
 30
0.0
  0
VERTEX
  5
C0
  8
CUT_FIRST
 10
-434.7770599666987
 20
917.3386493727962
 30
0.0
  0
VERTEX
  5
C1
  8
CUT_FIRST
 10
-434.7065579316771
 20
917.5883833477914
 30
0.0
  0
VERTEX
  5
C2
  8
CUT_FIRST
 10
-434.6435881871128
 20
917.8405204560854
 30
0.0
  0
VERTEX
  5
C3
  8
CUT_FIRST
 10
-434.5882592860816
 20
918.094990541589
 30
0.0
  0
VERTEX
  5
C4
  8
CUT_FIRST
 10
-434.5406797816594
 20
918.351723448213
 30
0.0
  0
VERTEX
  5
C5
  8
CUT_FIRST
 10
-434.5009582269223
 20
918.610649019868
 30
0.0
  0
VERTEX
  5
C6
  8
CUT_FIRST
 10
-434.4692031749461
 20
918.8716971004646
 30
0.0
  0
VERTEX
  5
C7
  8
CUT_FIRST
 10
-434.4455231788069
 20
919.1347975339138
 30
0.0
  0
VERTEX
  5
C8
  8
CUT_FIRST
 10
-434.4300267915804
 20
919.3998801641261
 30
0.0
  0
VERTEX
  5
C9
  8
CUT_FIRST
 10
-434.4197728771908
 20
919.7422602165323
 30
0.0
  0
VERTEX
  5
CA
  8
CUT_FIRST
 10
-434.4163549057277
 20
920.1115467418704
 30
0.0
  0
VERTEX
  5
CB
  8
CUT_FIRST
 10
-434.419772877191
 20
920.4808332672085
 30
0.0
  0
VERTEX
  5
CC
  8
CUT_FIRST
 10
-434.4300267915804
 20
920.8232133196145
 30
0.0
  0
VERTEX
  5
CD
  8
CUT_FIRST
 10
-434.4455231788069
 20
921.0882959498326
 30
0.0
  0
VERTEX
  5
CE
  8
CUT_FIRST
 10
-434.4692031749461
 20
921.3513963832872
 30
0.0
  0
VERTEX
  5
CF
  8
CUT_FIRST
 10
-434.5009582269223
 20
921.6124444638895
 30
0.0
  0
VERTEX
  5
D0
  8
CUT_FIRST
 10
-434.5406797816594
 20
921.8713700355496
 30
0.0
  0
VERTEX
  5
D1
  8
CUT_FIRST
 10
-434.5882592860816
 20
922.1281029421785
 30
0.0
  0
VERTEX
  5
D2
  8
CUT_FIRST
 10
-434.6435881871128
 20
922.3825730276872
 30
0.0
  0
VERTEX
  5
D3
  8
CUT_FIRST
 10
-434.7065579316771
 20
922.6347101359859
 30
0.0
  0
VERTEX
  5
D4
  8
CUT_FIRST
 10
-434.7770599666987
 20
922.8844441109856
 30
0.0
  0
VERTEX
  5
D5
  8
CUT_FIRST
 10
-434.8549857391016
 20
923.131704796597
 30
0.0
  0
VERTEX
  5
D6
  8
CUT_FIRST
 10
-434.9402266958099
 20
923.3764220367308
 30
0.0
  0
VERTEX
  5
D7
  8
CUT_FIRST
 10
-435.0326742837476
 20
923.6185256752976
 30
0.0
  0
VERTEX
  5
D8
  8
CUT_FIRST
 10
-435.1322199498388
 20
923.8579455562083
 30
0.0
  0
VERTEX
  5
D9
  8
CUT_FIRST
 10
-435.2387551410075
 20
924.0946115233735
 30
0.0
  0
VERTEX
  5
DA
  8
CUT_FIRST
 10
-435.3521713041779
 20
924.3284534207041
 30
0.0
  0
VERTEX
  5
DB
  8
CUT_FIRST
 10
-435.4723598862739
 20
924.5594010921106
 30
0.0
  0
VERTEX
  5
DC
  8
CUT_FIRST
 10
-435.5992123342199
 20
924.7873843815037
 30
0.0
  0
VERTEX
  5
DD
  8
CUT_FIRST
 10
-435.7326200949395
 20
925.0123331327943
 30
0.0
  0
VERTEX
  5
DE
  8
CUT_FIRST
 10
-435.8724746153572
 20
925.234177189893
 30
0.0
  0
VERTEX
  5
DF
  8
CUT_FIRST
 10
-436.0186673423967
 20
925.4528463967105
 30
0.0
  0
VERTEX
  5
E0
  8
CUT_FIRST
 10
-436.1710897229824
 20
925.6682705971576
 30
0.0
  0
VERTEX
  5
E1
  8
CUT_FIRST
 10
-436.3296332040383
 20
925.8803796351449
 30
0.0
  0
VERTEX
  5
E2
  8
CUT_FIRST
 10
-436.4941892324882
 20
926.0891033545832
 30
0.0
  0
VERTEX
  5
E3
  8
CUT_FIRST
 10
-436.6646492552563
 20
926.2943715993833
 30
0.0
  0
VERTEX
  5
E4
  8
CUT_FIRST
 10
-436.8409047192669
 20
926.4961142134557
 30
0.0
  0
VERTEX
  5
E5
  8
CUT_FIRST
 10
-437.0228470714438
 20
926.6942610407114
 30
0.0
  0
VERTEX
  5
E6
  8
CUT_FIRST
 10
-437.2103677587112
 20
926.8887419250607
 30
0.0
  0
VERTEX
  5
E7
  8
CUT_FIRST
 10
-437.4033582279932
 20
927.0794867104147
 30
0.0
  0
VERTEX
  5
E8
  8
CUT_FIRST
 10
-437.6017099262137
 20
927.2664252406839
 30
0.0
  0
VERTEX
  5
E9
  8
CUT_FIRST
 10
-437.8053143002969
 20
927.4494873597794
 30
0.0
  0
VERTEX
  5
EA
  8
CUT_FIRST
 10
-438.0140627971668
 20
927.6286029116113
 30
0.0
  0
VERTEX
  5
EB
  8
CUT_FIRST
 10
-438.2278468637476
 20
927.8037017400907
 30
0.0
  0
VERTEX
  5
EC
  8
CUT_FIRST
 10
-438.4465579469631
 20
927.9747136891283
 30
0.0
  0
VERTEX
  5
ED
  8
CUT_FIRST
 10
-438.6700874937378
 20
928.1415686026346
 30
0.0
  0
VERTEX
  5
EE
  8
CUT_FIRST
 10
-438.8983269509953
 20
928.3041963245207
 30
0.0
  0
VERTEX
  5
EF
  8
CUT_FIRST
 10
-439.13116776566
 20
928.462526698697
 30
0.0
  0
VERTEX
  5
F0
  8
CUT_FIRST
 10
-439.3685013846558
 20
928.6164895690744
 30
0.0
  0
VERTEX
  5
F1
  8
CUT_FIRST
 10
-439.6102192549068
 20
928.7660147795634
 30
0.0
  0
VERTEX
  5
F2
  8
CUT_FIRST
 10
-439.8562128233372
 20
928.9110321740748
 30
0.0
  0
VERTEX
  5
F3
  8
CUT_FIRST
 10
-440.1063735368708
 20
929.0514715965196
 30
0.0
  0
VERTEX
  5
F4
  8
CUT_FIRST
 10
-440.360592842432
 20
929.187262890808
 30
0.0
  0
VERTEX
  5
F5
  8
CUT_FIRST
 10
-440.6187621869445
 20
929.318335900851
 30
0.0
  0
VERTEX
  5
F6
  8
CUT_FIRST
 10
-440.8807730173327
 20
929.4446204705596
 30
0.0
  0
VERTEX
  5
F7
  8
CUT_FIRST
 10
-441.1465167805204
 20
929.566046443844
 30
0.0
  0
VERTEX
  5
F8
  8
CUT_FIRST
 10
-441.415884923432
 20
929.6825436646152
 30
0.0
  0
VERTEX
  5
F9
  8
CUT_FIRST
 10
-441.6887688929912
 20
929.7940419767839
 30
0.0
  0
VERTEX
  5
FA
  8
CUT_FIRST
 10
-441.9650601361223
 20
929.9004712242606
 30
0.0
  0
VERTEX
  5
FB
  8
CUT_FIRST
 10
-442.2446500997493
 20
930.0017612509564
 30
0.0
  0
VERTEX
  5
FC
  8
CUT_FIRST
 10
-442.5274302307963
 20
930.0978419007818
 30
0.0
  0
VERTEX
  5
FD
  8
CUT_FIRST
 10
-442.8132919761873
 20
930.1886430176473
 30
0.0
  0
VERTEX
  5
FE
  8
CUT_FIRST
 10
-443.1021267828465
 20
930.274094445464
 30
0.0
  0
VERTEX
  5
FF
  8
CUT_FIRST
 10
-443.3938260976978
 20
930.3541260281424
 30
0.0
  0
VERTEX
  5
100
  8
CUT_FIRST
 10
-443.6882813676654
 20
930.4286676095935
 30
0.0
  0
VERTEX
  5
101
  8
CUT_FIRST
 10
-443.9853840396734
 20
930.4976490337274
 30
0.0
  0
VERTEX
  5
102
  8
CUT_FIRST
 10
-444.2850255606456
 20
930.5610001444554
 30
0.0
  0
VERTEX
  5
103
  8
CUT_FIRST
 10
-444.5870973775063
 20
930.618650785688
 30
0.0
  0
VERTEX
  5
104
  8
CUT_FIRST
 10
-444.8914909371796
 20
930.6705308013361
 30
0.0
  0
VERTEX
  5
105
  8
CUT_FIRST
 10
-445.1980976865894
 20
930.71657003531
 30
0.0
  0
VERTEX
  5
106
  8
CUT_FIRST
 10
-445.50680907266
 20
930.7566983315209
 30
0.0
  0
VERTEX
  5
107
  8
CUT_FIRST
 10
-445.8175165423153
 20
930.7908455338791
 30
0.0
  0
VERTEX
  5
108
  8
CUT_FIRST
 10
-446.1301115424793
 20
930.8189414862956
 30
0.0
  0
VERTEX
  5
109
  8
CUT_FIRST
 10
-446.4444855200762
 20
930.840916032681
 30
0.0
  0
VERTEX
  5
10A
  8
CUT_FIRST
 10
-446.7605299220301
 20
930.8566990169459
 30
0.0
  0
VERTEX
  5
10B
  8
CUT_FIRST
 10
-447.078136195265
 20
930.8662202830013
 30
0.0
  0
VERTEX
  5
10C
  8
CUT_FIRST
 10
-447.397195786705
 20
930.8694096747577
 30
0.0
  0
VERTEX
  5
10D
  8
CUT_FIRST
 10
-447.7160816649085
 20
930.866209308982
 30
0.0
  0
VERTEX
  5
10E
  8
CUT_FIRST
 10
-448.0331762220146
 20
930.856655350053
 30
0.0
  0
VERTEX
  5
10F
  8
CUT_FIRST
 10
-448.348387526835
 20
930.840819021041
 30
0.0
  0
VERTEX
  5
110
  8
CUT_FIRST
 10
-448.6616236481813
 20
930.8187715450163
 30
0.0
  0
VERTEX
  5
111
  8
CUT_FIRST
 10
-448.9727926548651
 20
930.7905841450488
 30
0.0
  0
VERTEX
  5
112
  8
CUT_FIRST
 10
-449.2818026156982
 20
930.7563280442088
 30
0.0
  0
VERTEX
  5
113
  8
CUT_FIRST
 10
-449.5885615994921
 20
930.7160744655664
 30
0.0
  0
VERTEX
  5
114
  8
CUT_FIRST
 10
-449.8929776750585
 20
930.6698946321917
 30
0.0
  0
VERTEX
  5
115
  8
CUT_FIRST
 10
-450.1949589112091
 20
930.6178597671551
 30
0.0
  0
VERTEX
  5
116
  8
CUT_FIRST
 10
-450.4944133767556
 20
930.5600410935265
 30
0.0
  0
VERTEX
  5
117
  8
CUT_FIRST
 10
-450.7912491405095
 20
930.4965098343762
 30
0.0
  0
VERTEX
  5
118
  8
CUT_FIRST
 10
-451.0853742712827
 20
930.4273372127741
 30
0.0
  0
VERTEX
  5
119
  8
CUT_FIRST
 10
-451.3766968378866
 20
930.3525944517905
 30
0.0
  0
VERTEX
  5
11A
  8
CUT_FIRST
 10
-451.6651249091331
 20
930.2723527744959
 30
0.0
  0
VERTEX
  5
11B
  8
CUT_FIRST
 10
-451.9505665538337
 20
930.1866834039599
 30
0.0
  0
VERTEX
  5
11C
  8
CUT_FIRST
 10
-452.2329298408001
 20
930.095657563253
 30
0.0
  0
VERTEX
  5
11D
  8
CUT_FIRST
 10
-452.5121228388439
 20
929.9993464754452
 30
0.0
  0
VERTEX
  5
11E
  8
CUT_FIRST
 10
-452.7880536167769
 20
929.8978213636067
 30
0.0
  0
VERTEX
  5
11F
  8
CUT_FIRST
 10
-453.0606302434107
 20
929.7911534508078
 30
0.0
  0
VERTEX
  5
120
  8
CUT_FIRST
 10
-453.329760787557
 20
929.6794139601183
 30
0.0
  0
VERTEX
  5
121
  8
CUT_FIRST
 10
-453.5953533180274
 20
929.5626741146086
 30
0.0
  0
VERTEX
  5
122
  8
CUT_FIRST
 10
-453.8573159036335
 20
929.4410051373487
 30
0.0
  0
VERTEX
  5
123
  8
CUT_FIRST
 10
-454.1155566131872
 20
929.3144782514089
 30
0.0
  0
VERTEX
  5
124
  8
CUT_FIRST
 10
-454.3699835154998
 20
929.1831646798595
 30
0.0
  0
VERTEX
  5
125
  8
CUT_FIRST
 10
-454.6205046793832
 20
929.0471356457703
 30
0.0
  0
VERTEX
  5
126
  8
CUT_FIRST
 10
-454.8670281736491
 20
928.9064623722116
 30
0.0
  0
VERTEX
  5
127
  8
CUT_FIRST
 10
-455.1094620671089
 20
928.7612160822537
 30
0.0
  0
VERTEX
  5
128
  8
CUT_FIRST
 10
-455.3477144285745
 20
928.6114679989664
 30
0.0
  0
VERTEX
  5
129
  8
CUT_FIRST
 10
-455.5816933268576
 20
928.4572893454202
 30
0.0
  0
VERTEX
  5
12A
  8
CUT_FIRST
 10
-455.8113068307696
 20
928.2987513446851
 30
0.0
  0
VERTEX
  5
12B
  8
CUT_FIRST
 10
-456.0364630091224
 20
928.1359252198314
 30
0.0
  0
VERTEX
  5
12C
  8
CUT_FIRST
 10
-456.2570699307276
 20
927.968882193929
 30
0.0
  0
VERTEX
  5
12D
  8
CUT_FIRST
 10
-456.4730356643968
 20
927.7976934900482
 30
0.0
  0
VERTEX
  5
12E
  8
CUT_FIRST
 10
-456.6842682789417
 20
927.6224303312592
 30
0.0
  0
VERTEX
  5
12F
  8
CUT_FIRST
 10
-456.8906758431739
 20
927.4431639406321
 30
0.0
  0
VERTEX
  5
130
  8
CUT_FIRST
 10
-457.0921664259052
 20
927.2599655412369
 30
0.0
  0
VERTEX
  5
131
  8
CUT_FIRST
 10
-457.2886480959471
 20
927.0729063561439
 30
0.0
  0
VERTEX
  5
132
  8
CUT_FIRST
 10
-457.4800289221113
 20
926.8820576084233
 30
0.0
  0
VERTEX
  5
133
  8
CUT_FIRST
 10
-457.6662169732097
 20
926.6874905211453
 30
0.0
  0
VERTEX
  5
134
  8
CUT_FIRST
 10
-457.8471203180536
 20
926.4892763173798
 30
0.0
  0
VERTEX
  5
135
  8
CUT_FIRST
 10
-458.0226470254548
 20
926.2874862201971
 30
0.0
  0
VERTEX
  5
136
  8
CUT_FIRST
 10
-458.1927051642249
 20
926.0821914526675
 30
0.0
  0
VERTEX
  5
137
  8
CUT_FIRST
 10
-458.3572028031758
 20
925.8734632378607
 30
0.0
  0
VERTEX
  5
138
  8
CUT_FIRST
 10
-458.5160480111189
 20
925.6613727988474
 30
0.0
  0
VERTEX
  5
139
  8
CUT_FIRST
 10
-458.669148856866
 20
925.4459913586976
 30
0.0
  0
VERTEX
  5
13A
  8
CUT_FIRST
 10
-458.8164134092287
 20
925.2273901404812
 30
0.0
  0
VERTEX
  5
13B
  8
CUT_FIRST
 10
-458.9577497370187
 20
925.0056403672686
 30
0.0
  0
VERTEX
  5
13C
  8
CUT_FIRST
 10
-459.0930659090476
 20
924.7808132621296
 30
0.0
  0
VERTEX
  5
13D
  8
CUT_FIRST
 10
-459.2222699941271
 20
924.5529800481349
 30
0.0
  0
VERTEX
  5
13E
  8
CUT_FIRST
 10
-459.3452700610689
 20
924.3222119483544
 30
0.0
  0
VERTEX
  5
13F
  8
CUT_FIRST
 10
-459.4619741786846
 20
924.0885801858581
 30
0.0
  0
VERTEX
  5
140
  8
CUT_FIRST
 10
-459.5722904157859
 20
923.8521559837162
 30
0.0
  0
VERTEX
  5
141
  8
CUT_FIRST
 10
-459.6761268411845
 20
923.6130105649991
 30
0.0
  0
VERTEX
  5
142
  8
CUT_FIRST
 10
-459.7733915236918
 20
923.3712151527766
 30
0.0
  0
VERTEX
  5
143
  8
CUT_FIRST
 10
-459.8639925321198
 20
923.1268409701192
 30
0.0
  0
VERTEX
  5
144
  8
CUT_FIRST
 10
-459.9478379352799
 20
922.8799592400968
 30
0.0
  0
VERTEX
  5
145
  8
CUT_FIRST
 10
-460.024835801984
 20
922.6306411857797
 30
0.0
  0
VERTEX
  5
146
  8
CUT_FIRST
 10
-460.0948942010436
 20
922.3789580302379
 30
0.0
  0
VERTEX
  5
147
  8
CUT_FIRST
 10
-460.1579212012704
 20
922.1249809965416
 30
0.0
  0
VERTEX
  5
148
  8
CUT_FIRST
 10
-460.213824871476
 20
921.8687813077611
 30
0.0
  0
VERTEX
  5
149
  8
CUT_FIRST
 10
-460.2625132804722
 20
921.6104301869665
 30
0.0
  0
VERTEX
  5
14A
  8
CUT_FIRST
 10
-460.3038944970705
 20
921.3499988572278
 30
0.0
  0
VERTEX
  5
14B
  8
CUT_FIRST
 10
-460.3378765900827
 20
921.0875585416153
 30
0.0
  0
VERTEX
  5
14C
  8
CUT_FIRST
 10
-460.3643676283204
 20
920.823180463199
 30
0.0
  0
SEQEND
  5
14D
  8
CUT_FIRST
  0
ENDSEC
  0
EOF
