  0
SECTION
  2
HEADER
  9
$ACADVER
  1
AC1009
  9
$DWGCODEPAGE
  3
ansi_1252
  9
$INSBASE
 10
0.0
 20
0.0
 30
0.0
  9
$EXTMIN
 10
-624.63558362156
 20
667.4630416336895
 30
0.0
  9
$EXTMAX
 10
-266.9116297425806
 20
1114.768703303514
 30
0.0
  9
$LIMMIN
 10
0.0
 20
0.0
  9
$LIMMAX
 10
12.0
 20
9.0
  9
$ORTHOMODE
 70
     0
  9
$REGENMODE
 70
     1
  9
$FILLMODE
 70
     1
  9
$QTEXTMODE
 70
     0
  9
$MIRRTEXT
 70
     1
  9
$DRAGMODE
 70
     2
  9
$LTSCALE
 40
1.0
  9
$OSMODE
 70
    37
  9
$ATTMODE
 70
     1
  9
$TEXTSIZE
 40
0.2
  9
$TRACEWID
 40
0.05
  9
$TEXTSTYLE
  7
STANDARD
  9
$CLAYER
  8
0
  9
$CELTYPE
  6
BYLAYER
  9
$CECOLOR
 62
   256
  9
$DIMSCALE
 40
1.0
  9
$DIMASZ
 40
0.18
  9
$DIMEXO
 40
0.0625
  9
$DIMDLI
 40
0.38
  9
$DIMRND
 40
0.0
  9
$DIMDLE
 40
0.0
  9
$DIMEXE
 40
0.18
  9
$DIMTP
 40
0.0
  9
$DIMTM
 40
0.0
  9
$DIMTXT
 40
0.18
  9
$DIMCEN
 40
0.09
  9
$DIMTSZ
 40
0.0
  9
$DIMTOL
 70
     0
  9
$DIMLIM
 70
     0
  9
$DIMTIH
 70
     1
  9
$DIMTOH
 70
     1
  9
$DIMSE1
 70
     0
  9
$DIMSE2
 70
     0
  9
$DIMTAD
 70
     0
  9
$DIMZIN
 70
     0
  9
$DIMBLK
  1

  9
$DIMASO
 70
     1
  9
$DIMSHO
 70
     1
  9
$DIMPOST
  1

  9
$DIMAPOST
  1

  9
$DIMALT
 70
     0
  9
$DIMALTD
 70
     2
  9
$DIMALTF
 40
25.4
  9
$DIMLFAC
 40
1.0
  9
$DIMTOFL
 70
     0
  9
$DIMTVP
 40
0.0
  9
$DIMTIX
 70
     0
  9
$DIMSOXD
 70
     0
  9
$DIMSAH
 70
     0
  9
$DIMBLK1
  1

  9
$DIMBLK2
  1

  9
$DIMSTYLE
  2
STANDARD
  9
$DIMCLRD
 70
     0
  9
$DIMCLRE
 70
     0
  9
$DIMCLRT
 70
     0
  9
$DIMTFAC
 40
1.0
  9
$DIMGAP
 40
0.09
  9
$LUNITS
 70
     2
  9
$LUPREC
 70
     4
  9
$SKETCHINC
 40
0.1
  9
$FILLETRAD
 40
0.5
  9
$AUNITS
 70
     0
  9
$AUPREC
 70
     0
  9
$MENU
  1
.
  9
$ELEVATION
 40
0.0
  9
$PELEVATION
 40
0.0
  9
$THICKNESS
 40
0.0
  9
$LIMCHECK
 70
     0
  9
$CHAMFERA
 40
0.0
  9
$CHAMFERB
 40
0.0
  9
$SKPOLY
 70
     0
  9
$TDCREATE
 40
2454910.5
  9
$TDUPDATE
 40
2458444.484262025
  9
$TDINDWG
 40
0.0000000116
  9
$TDUSRTIMER
 40
0.0000000116
  9
$USRTIMER
 70
     1
  9
$ANGBASE
 50
0.0
  9
$ANGDIR
 70
     0
  9
$PDMODE
 70
     0
  9
$PDSIZE
 40
0.0
  9
$PLINEWID
 40
0.0
  9
$COORDS
 70
     1
  9
$SPLFRAME
 70
     0
  9
$SPLINETYPE
 70
     6
  9
$SPLINESEGS
 70
     8
  9
$ATTDIA
 70
     0
  9
$ATTREQ
 70
     1
  9
$HANDLING
 70
     1
  9
$HANDSEED
  5
4E6
  9
$SURFTAB1
 70
     6
  9
$SURFTAB2
 70
     6
  9
$SURFTYPE
 70
     6
  9
$SURFU
 70
     6
  9
$SURFV
 70
     6
  9
$UCSNAME
  2

  9
$UCSORG
 10
0.0
 20
0.0
 30
0.0
  9
$UCSXDIR
 10
1.0
 20
0.0
 30
0.0
  9
$UCSYDIR
 10
0.0
 20
1.0
 30
0.0
  9
$PUCSNAME
  2

  9
$PUCSORG
 10
0.0
 20
0.0
 30
0.0
  9
$PUCSXDIR
 10
1.0
 20
0.0
 30
0.0
  9
$PUCSYDIR
 10
0.0
 20
1.0
 30
0.0
  9
$USERI1
 70
     0
  9
$USERI2
 70
     0
  9
$USERI3
 70
     0
  9
$USERI4
 70
     0
  9
$USERI5
 70
     0
  9
$USERR1
 40
0.0
  9
$USERR2
 40
0.0
  9
$USERR3
 40
0.0
  9
$USERR4
 40
0.0
  9
$USERR5
 40
0.0
  9
$WORLDVIEW
 70
     1
  9
$SHADEDGE
 70
     3
  9
$SHADEDIF
 70
    70
  9
$TILEMODE
 70
     1
  9
$MAXACTVP
 70
    64
  9
$PLIMCHECK
 70
     0
  9
$PEXTMIN
 10
1.000000000000000E+20
 20
1.000000000000000E+20
 30
1.000000000000000E+20
  9
$PEXTMAX
 10
-1.000000000000000E+20
 20
-1.000000000000000E+20
 30
-1.000000000000000E+20
  9
$PLIMMIN
 10
0.0
 20
0.0
  9
$PLIMMAX
 10
12.0
 20
9.0
  9
$UNITMODE
 70
     0
  9
$VISRETAIN
 70
     1
  9
$PLINEGEN
 70
     0
  9
$PSLTSCALE
 70
     1
  0
ENDSEC
  0
SECTION
  2
TABLES
  0
TABLE
  2
VPORT
 70
     1
  0
VPORT
  2
*ACTIVE
 70
     0
 10
0.0
 20
0.0
 11
1.0
 21
1.0
 12
10.42990654205607
 22
4.5
 13
0.0
 23
0.0
 14
0.5
 24
0.5
 15
0.5
 25
0.5
 16
0.0
 26
0.0
 36
1.0
 17
0.0
 27
0.0
 37
0.0
 40
9.0
 41
1.972972972850329
 42
50.0
 43
0.0
 44
0.0
 50
0.0
 51
0.0
 71
     0
 72
   100
 73
     1
 74
     3
 75
     0
 76
     0
 77
     0
 78
     0
  0
ENDTAB
  0
TABLE
  2
LTYPE
 70
     2
  0
LTYPE
  2
CONTINUOUS
 70
     0
  3
Solid line
 72
    65
 73
     0
 40
0.0
  0
LTYPE
  2
CONTINUOUS2
 70
     0
  3
Solid Line
 72
    65
 73
     0
 40
0.0
  0
ENDTAB
  0
TABLE
  2
LAYER
 70
     4
  0
LAYER
  2
0
 70
     0
 62
     7
  6
CONTINUOUS
  0
LAYER
  2
CUT_LAST
 70
     0
 62
    18
  6
CONTINUOUS
  0
LAYER
  2
CUT_FIRST
 70
     0
 62
   105
  6
CONTINUOUS
  0
LAYER
  2
ENGRAVE
 70
     0
 62
    30
  6
CONTINUOUS
  0
ENDTAB
  0
TABLE
  2
STYLE
 70
     1
  0
STYLE
  2
STANDARD
 70
     0
 40
0.0
 41
1.0
 50
0.0
 71
     0
 42
0.2
  3
txt
  4

  0
ENDTAB
  0
TABLE
  2
VIEW
 70
     0
  0
ENDTAB
  0
TABLE
  2
UCS
 70
     0
  0
ENDTAB
  0
TABLE
  2
APPID
 70
     1
  0
APPID
  2
ACAD
 70
     0
  0
ENDTAB
  0
TABLE
  2
DIMSTYLE
 70
     1
  0
DIMSTYLE
  2
STANDARD
 70
     0
  3

  4

  5

  6

  7

 40
1.0
 41
0.18
 42
0.0625
 43
0.38
 44
0.18
 45
0.0
 46
0.0
 47
0.0
 48
0.0
140
0.18
141
0.09
142
0.0
143
25.4
144
1.0
145
0.0
146
1.0
147
0.09
 71
     0
 72
     0
 73
     1
 74
     1
 75
     0
 76
     0
 77
     0
 78
     0
170
     0
171
     2
172
     0
173
     0
174
     0
175
     0
176
     0
177
     0
178
     0
  0
ENDTAB
  0
ENDSEC
  0
SECTION
  2
BLOCKS
  0
BLOCK
  8
0
  2
$MODEL_SPACE
 70
     0
 10
0.0
 20
0.0
 30
0.0
  3
$MODEL_SPACE
  1

  0
ENDBLK
  5
21
  8
0
  0
BLOCK
 67
     1
  8
0
  2
$PAPER_SPACE
 70
     0
 10
0.0
 20
0.0
 30
0.0
  3
$PAPER_SPACE
  1

  0
ENDBLK
  5
1D
 67
     1
  8
0
  0
ENDSEC
  0
SECTION
  2
ENTITIES
  0
POLYLINE
  5
70
  8
CUT_LAST
 66
     1
 10
0.0
 20
0.0
 30
0.0
 70
     1
  0
VERTEX
  5
9B
  8
CUT_LAST
 10
-618.6355782139556
 20
869.9906756255252
 30
0.0
  0
VERTEX
  5
9C
  8
CUT_LAST
 10
-618.6355782139556
 20
885.5949968832875
 30
0.0
  0
VERTEX
  5
9D
  8
CUT_LAST
 10
-624.6355836215598
 20
885.5949968832875
 30
0.0
  0
VERTEX
  5
9E
  8
CUT_LAST
 10
-624.63558362156
 20
899.663636709022
 30
0.0
  0
VERTEX
  5
9F
  8
CUT_LAST
 10
-624.63558362156
 20
911.5950203162397
 30
0.0
  0
VERTEX
  5
A0
  8
CUT_LAST
 10
-618.6355782139551
 20
911.5950203162397
 30
0.0
  0
VERTEX
  5
A1
  8
CUT_LAST
 10
-618.6355782139558
 20
932.2753363181607
 30
0.0
  0
VERTEX
  5
A2
  8
CUT_LAST
 10
-618.635578213956
 20
940.5950464529933
 30
0.0
  0
VERTEX
  5
A3
  8
CUT_LAST
 10
-618.635578213956
 20
946.5950518605978
 30
0.0
  0
VERTEX
  5
A4
  8
CUT_LAST
 10
-597.6496886947021
 20
946.595051860598
 30
0.0
  0
VERTEX
  5
A5
  8
CUT_LAST
 10
-597.6496886947017
 20
952.595057268202
 30
0.0
  0
VERTEX
  5
A6
  8
CUT_LAST
 10
-571.6496652617494
 20
952.595057268202
 30
0.0
  0
VERTEX
  5
A7
  8
CUT_LAST
 10
-571.6496652617494
 20
946.595051860598
 30
0.0
  0
VERTEX
  5
A8
  8
CUT_LAST
 10
-567.6496616566799
 20
946.5950518605978
 30
0.0
  0
VERTEX
  5
A9
  8
CUT_LAST
 10
-550.6355169277753
 20
946.5950518605978
 30
0.0
  0
VERTEX
  5
AA
  8
CUT_LAST
 10
-550.6355169277742
 20
940.5950464529931
 30
0.0
  0
VERTEX
  5
AB
  8
CUT_LAST
 10
-550.6355169277742
 20
932.2753363181607
 30
0.0
  0
VERTEX
  5
AC
  8
CUT_LAST
 10
-550.635516927774
 20
911.5950203162395
 30
0.0
  0
VERTEX
  5
AD
  8
CUT_LAST
 10
-544.6355115201698
 20
911.5950203162395
 30
0.0
  0
VERTEX
  5
AE
  8
CUT_LAST
 10
-544.6355115201695
 20
899.663636709022
 30
0.0
  0
VERTEX
  5
AF
  8
CUT_LAST
 10
-544.6355115201695
 20
885.5949968832875
 30
0.0
  0
VERTEX
  5
B0
  8
CUT_LAST
 10
-550.635516927774
 20
885.5949968832878
 30
0.0
  0
VERTEX
  5
B1
  8
CUT_LAST
 10
-550.635516927774
 20
869.990675625525
 30
0.0
  0
VERTEX
  5
B2
  8
CUT_LAST
 10
-550.635516927774
 20
856.5949707465329
 30
0.0
  0
VERTEX
  5
B3
  8
CUT_LAST
 10
-571.6496652617499
 20
856.5949707465338
 30
0.0
  0
VERTEX
  5
B4
  8
CUT_LAST
 10
-571.6496652617499
 20
850.5949653389284
 30
0.0
  0
VERTEX
  5
B5
  8
CUT_LAST
 10
-597.6496886947021
 20
850.5949653389284
 30
0.0
  0
VERTEX
  5
B6
  8
CUT_LAST
 10
-597.6496886947019
 20
856.5949707465329
 30
0.0
  0
VERTEX
  5
B7
  8
CUT_LAST
 10
-618.6355782139558
 20
856.5949707465334
 30
0.0
  0
SEQEND
  5
4C4
  8
CUT_LAST
  0
POLYLINE
  5
71
  8
CUT_LAST
 66
     1
 10
0.0
 20
0.0
 30
0.0
 70
     1
  0
VERTEX
  5
B8
  8
CUT_LAST
 10
-392.6227391997537
 20
765.0293023421016
 30
0.0
  0
VERTEX
  5
B9
  8
CUT_LAST
 10
-352.6227031490586
 20
765.0293023421016
 30
0.0
  0
VERTEX
  5
BA
  8
CUT_LAST
 10
-352.6227031490586
 20
805.0293383927965
 30
0.0
  0
VERTEX
  5
BB
  8
CUT_LAST
 10
-392.6227391997537
 20
805.0293383927965
 30
0.0
  0
SEQEND
  5
4C5
  8
CUT_LAST
  0
POLYLINE
  5
72
  8
CUT_LAST
 66
     1
 10
0.0
 20
0.0
 30
0.0
  0
VERTEX
  5
BC
  8
CUT_LAST
 10
-509.7208479686072
 20
856.5949707465322
 30
0.0
  0
VERTEX
  5
BD
  8
CUT_LAST
 10
-513.7208515736768
 20
856.5949707465322
 30
0.0
  0
VERTEX
  5
BE
  8
CUT_LAST
 10
-513.7208515736754
 20
873.9819461625607
 30
0.0
  0
VERTEX
  5
BF
  8
CUT_LAST
 10
-514.1979835079967
 20
873.5868534536535
 30
0.0
  0
VERTEX
  5
C0
  8
CUT_LAST
 10
-515.4537643932349
 20
872.4377171570798
 30
0.0
  0
VERTEX
  5
C1
  8
CUT_LAST
 10
-516.6229357500414
 20
871.2509699460845
 30
0.0
  0
VERTEX
  5
C2
  8
CUT_LAST
 10
-517.7029658081019
 20
870.0286783781788
 30
0.0
  0
VERTEX
  5
C3
  8
CUT_LAST
 10
-518.6913893333897
 20
868.7728602140429
 30
0.0
  0
VERTEX
  5
C4
  8
CUT_LAST
 10
-519.5858038263398
 20
867.4854675322961
 30
0.0
  0
VERTEX
  5
C5
  8
CUT_LAST
 10
-520.3838605667097
 20
866.1683689274082
 30
0.0
  0
VERTEX
  5
C6
  8
CUT_LAST
 10
-521.0832495445638
 20
864.8233320604991
 30
0.0
  0
VERTEX
  5
C7
  8
CUT_LAST
 10
-521.6816777202484
 20
863.4520082932268
 30
0.0
  0
VERTEX
  5
C8
  8
CUT_LAST
 10
-522.1768407377448
 20
862.0559215002886
 30
0.0
  0
VERTEX
  5
C9
  8
CUT_LAST
 10
-522.5699468291193
 20
860.6234996448379
 30
0.0
  0
VERTEX
  5
CA
  8
CUT_LAST
 10
-522.7215914710891
 20
859.9182896123577
 30
0.0
  0
VERTEX
  5
CB
  8
CUT_LAST
 10
-522.8486822046088
 20
859.1948144935709
 30
0.0
  0
VERTEX
  5
CC
  8
CUT_LAST
 10
-522.9481249147208
 20
858.466101624696
 30
0.0
  0
VERTEX
  5
CD
  8
CUT_LAST
 10
-523.0195871033195
 20
857.7322851827519
 30
0.0
  0
VERTEX
  5
CE
  8
CUT_LAST
 10
-523.0627257690435
 20
856.9934945008774
 30
0.0
  0
VERTEX
  5
CF
  8
CUT_LAST
 10
-523.0704755104086
 20
856.5949707465336
 30
0.0
  0
SEQEND
  5
4C6
  8
CUT_LAST
  0
POLYLINE
  5
73
  8
CUT_LAST
 66
     1
 10
0.0
 20
0.0
 30
0.0
  0
VERTEX
  5
D0
  8
CUT_LAST
 10
-509.7208479686072
 20
856.594970746532
 30
0.0
  0
VERTEX
  5
D1
  8
CUT_LAST
 10
-509.7208479686047
 20
876.9217755617602
 30
0.0
  0
VERTEX
  5
D2
  8
CUT_LAST
 10
-508.361641847945
 20
877.76503807288
 30
0.0
  0
VERTEX
  5
D3
  8
CUT_LAST
 10
-506.7129649469333
 20
878.6943519358982
 30
0.0
  0
VERTEX
  5
D4
  8
CUT_LAST
 10
-504.9940988666601
 20
879.5733269710369
 30
0.0
  0
VERTEX
  5
D5
  8
CUT_LAST
 10
-503.2079296619038
 20
880.39985950428
 30
0.0
  0
VERTEX
  5
D6
  8
CUT_LAST
 10
-502.3338134905467
 20
880.7645161490432
 30
0.0
  0
VERTEX
  5
D7
  8
CUT_LAST
 10
-502.3338134905455
 20
856.594970746532
 30
0.0
  0
SEQEND
  5
4C7
  8
CUT_LAST
  0
POLYLINE
  5
74
  8
CUT_LAST
 66
     1
 10
0.0
 20
0.0
 30
0.0
 70
     1
  0
VERTEX
  5
D8
  8
CUT_LAST
 10
-475.574560591718
 20
856.5949707465322
 30
0.0
  0
VERTEX
  5
D9
  8
CUT_LAST
 10
-475.5745605917182
 20
885.4507354441043
 30
0.0
  0
VERTEX
  5
DA
  8
CUT_LAST
 10
-475.2303873729141
 20
885.4450724265356
 30
0.0
  0
VERTEX
  5
DB
  8
CUT_LAST
 10
-472.8981730928683
 20
885.3296702258078
 30
0.0
  0
VERTEX
  5
DC
  8
CUT_LAST
 10
-470.600855299404
 20
885.1397097843173
 30
0.0
  0
VERTEX
  5
DD
  8
CUT_LAST
 10
-468.3413641839113
 20
884.8771401482973
 30
0.0
  0
VERTEX
  5
DE
  8
CUT_LAST
 10
-468.0837380061266
 20
884.8384481819112
 30
0.0
  0
VERTEX
  5
DF
  8
CUT_LAST
 10
-468.083738006128
 20
856.5949707465325
 30
0.0
  0
SEQEND
  5
4C8
  8
CUT_LAST
  0
POLYLINE
  5
75
  8
CUT_LAST
 66
     1
 10
0.0
 20
0.0
 30
0.0
 70
     1
  0
VERTEX
  5
E0
  8
CUT_LAST
 10
-487.0653867823778
 20
856.5949707465322
 30
0.0
  0
VERTEX
  5
E1
  8
CUT_LAST
 10
-487.0653867823787
 20
884.8444855907753
 30
0.0
  0
VERTEX
  5
E2
  8
CUT_LAST
 10
-486.8479600236146
 20
884.8771401482973
 30
0.0
  0
VERTEX
  5
E3
  8
CUT_LAST
 10
-484.5884689081222
 20
885.1397097843178
 30
0.0
  0
VERTEX
  5
E4
  8
CUT_LAST
 10
-482.2911511146581
 20
885.3296702258081
 30
0.0
  0
VERTEX
  5
E5
  8
CUT_LAST
 10
-479.9589368346122
 20
885.4450724265356
 30
0.0
  0
VERTEX
  5
E6
  8
CUT_LAST
 10
-479.5745641967873
 20
885.4513968843403
 30
0.0
  0
VERTEX
  5
E7
  8
CUT_LAST
 10
-479.5745641967874
 20
856.5949707465322
 30
0.0
  0
SEQEND
  5
4C9
  8
CUT_LAST
  0
POLYLINE
  5
76
  8
CUT_LAST
 66
     1
 10
0.0
 20
0.0
 30
0.0
  0
VERTEX
  5
E8
  8
CUT_LAST
 10
-523.0704755104086
 20
856.5949707465322
 30
0.0
  0
VERTEX
  5
E9
  8
CUT_LAST
 10
-542.7469040428621
 20
856.594970746532
 30
0.0
  0
VERTEX
  5
EA
  8
CUT_LAST
 10
-542.7469040428621
 20
869.990675625525
 30
0.0
  0
VERTEX
  5
EB
  8
CUT_LAST
 10
-542.7469040428621
 20
885.5949968832871
 30
0.0
  0
VERTEX
  5
EC
  8
CUT_LAST
 10
-536.7468986352577
 20
885.5949968832871
 30
0.0
  0
VERTEX
  5
ED
  8
CUT_LAST
 10
-536.7468986352577
 20
899.663636709022
 30
0.0
  0
VERTEX
  5
EE
  8
CUT_LAST
 10
-536.7468986352577
 20
911.595020316239
 30
0.0
  0
VERTEX
  5
EF
  8
CUT_LAST
 10
-542.7469040428621
 20
911.595020316239
 30
0.0
  0
VERTEX
  5
F0
  8
CUT_LAST
 10
-542.7469040428621
 20
932.2753363181607
 30
0.0
  0
VERTEX
  5
F1
  8
CUT_LAST
 10
-542.7469040428621
 20
946.595051860597
 30
0.0
  0
VERTEX
  5
F2
  8
CUT_LAST
 10
-497.7468634858298
 20
946.5950518605964
 30
0.0
  0
VERTEX
  5
F3
  8
CUT_LAST
 10
-497.74686348583
 20
952.5950572682011
 30
0.0
  0
VERTEX
  5
F4
  8
CUT_LAST
 10
-461.7468310402043
 20
952.5950572682011
 30
0.0
  0
VERTEX
  5
F5
  8
CUT_LAST
 10
-461.7468310402041
 20
946.595051860597
 30
0.0
  0
VERTEX
  5
F6
  8
CUT_LAST
 10
-416.7467904831719
 20
946.595051860597
 30
0.0
  0
VERTEX
  5
F7
  8
CUT_LAST
 10
-416.7467904831719
 20
932.2753363181607
 30
0.0
  0
VERTEX
  5
F8
  8
CUT_LAST
 10
-416.7467904831719
 20
911.595020316239
 30
0.0
  0
VERTEX
  5
F9
  8
CUT_LAST
 10
-422.7467958907762
 20
911.595020316239
 30
0.0
  0
VERTEX
  5
FA
  8
CUT_LAST
 10
-422.7467958907762
 20
899.663636709022
 30
0.0
  0
VERTEX
  5
FB
  8
CUT_LAST
 10
-422.7467958907762
 20
885.5949968832871
 30
0.0
  0
VERTEX
  5
FC
  8
CUT_LAST
 10
-416.7467904831719
 20
885.5949968832871
 30
0.0
  0
VERTEX
  5
FD
  8
CUT_LAST
 10
-416.7467904831719
 20
869.990675625525
 30
0.0
  0
VERTEX
  5
FE
  8
CUT_LAST
 10
-416.7467904831719
 20
856.5949707465325
 30
0.0
  0
VERTEX
  5
FF
  8
CUT_LAST
 10
-432.1188486971175
 20
856.5949707465329
 30
0.0
  0
VERTEX
  5
100
  8
CUT_LAST
 10
-432.1265984384826
 20
856.9934945008774
 30
0.0
  0
VERTEX
  5
101
  8
CUT_LAST
 10
-432.1697371042065
 20
857.7322851827519
 30
0.0
  0
VERTEX
  5
102
  8
CUT_LAST
 10
-432.2411992928053
 20
858.466101624696
 30
0.0
  0
VERTEX
  5
103
  8
CUT_LAST
 10
-432.3388441775379
 20
859.1816400890466
 30
0.0
  0
VERTEX
  5
104
  8
CUT_LAST
 10
-432.6229350531393
 20
860.636463298043
 30
0.0
  0
VERTEX
  5
105
  8
CUT_LAST
 10
-433.0124834697814
 20
862.0559215002886
 30
0.0
  0
VERTEX
  5
106
  8
CUT_LAST
 10
-433.5076464872777
 20
863.4520082932268
 30
0.0
  0
VERTEX
  5
107
  8
CUT_LAST
 10
-434.1060746629622
 20
864.8233320604991
 30
0.0
  0
VERTEX
  5
108
  8
CUT_LAST
 10
-434.8054636408166
 20
866.1683689274082
 30
0.0
  0
VERTEX
  5
109
  8
CUT_LAST
 10
-435.6035203811864
 20
867.4854675322961
 30
0.0
  0
VERTEX
  5
10A
  8
CUT_LAST
 10
-436.4979348741365
 20
868.7728602140429
 30
0.0
  0
VERTEX
  5
10B
  8
CUT_LAST
 10
-437.4863583994243
 20
870.0286783781788
 30
0.0
  0
VERTEX
  5
10C
  8
CUT_LAST
 10
-438.5663884574848
 20
871.2509699460845
 30
0.0
  0
VERTEX
  5
10D
  8
CUT_LAST
 10
-439.7355598142912
 20
872.4377171570798
 30
0.0
  0
VERTEX
  5
10E
  8
CUT_LAST
 10
-440.9913406995295
 20
873.5868534536535
 30
0.0
  0
VERTEX
  5
10F
  8
CUT_LAST
 10
-441.5053729518507
 20
874.012501750123
 30
0.0
  0
VERTEX
  5
110
  8
CUT_LAST
 10
-441.5053729518499
 20
856.5949707465327
 30
0.0
  0
VERTEX
  5
111
  8
CUT_LAST
 10
-445.5053765569199
 20
856.5949707465325
 30
0.0
  0
VERTEX
  5
112
  8
CUT_LAST
 10
-445.5053765569224
 20
876.9446688185999
 30
0.0
  0
VERTEX
  5
113
  8
CUT_LAST
 10
-446.8276823595813
 20
877.7650380728797
 30
0.0
  0
VERTEX
  5
114
  8
CUT_LAST
 10
-448.476359260593
 20
878.6943519358978
 30
0.0
  0
VERTEX
  5
115
  8
CUT_LAST
 10
-450.1952253408662
 20
879.5733269710362
 30
0.0
  0
VERTEX
  5
116
  8
CUT_LAST
 10
-451.9813945456226
 20
880.3998595042793
 30
0.0
  0
VERTEX
  5
117
  8
CUT_LAST
 10
-452.7737960549524
 20
880.7304270937624
 30
0.0
  0
VERTEX
  5
118
  8
CUT_LAST
 10
-452.7737960549483
 20
856.5949707465325
 30
0.0
  0
VERTEX
  5
119
  8
CUT_LAST
 10
-456.7737996600181
 20
856.5949707465325
 30
0.0
  0
VERTEX
  5
11A
  8
CUT_LAST
 10
-456.7737996600187
 20
882.230482168485
 30
0.0
  0
VERTEX
  5
11B
  8
CUT_LAST
 10
-457.7145132939633
 20
882.5440047170583
 30
0.0
  0
VERTEX
  5
11C
  8
CUT_LAST
 10
-459.7406093954982
 20
883.1400549500988
 30
0.0
  0
VERTEX
  5
11D
  8
CUT_LAST
 10
-461.819304265877
 20
883.6733913855427
 30
0.0
  0
VERTEX
  5
11E
  8
CUT_LAST
 10
-463.9476351591412
 20
884.1420091778573
 30
0.0
  0
VERTEX
  5
11F
  8
CUT_LAST
 10
-464.0837344010593
 20
884.1671582962628
 30
0.0
  0
VERTEX
  5
120
  8
CUT_LAST
 10
-464.0837344010588
 20
856.5949707465325
 30
0.0
  0
VERTEX
  5
121
  8
CUT_LAST
 10
-461.7468310402043
 20
856.5949707465325
 30
0.0
  0
VERTEX
  5
122
  8
CUT_LAST
 10
-461.7468310402043
 20
850.5949653389284
 30
0.0
  0
VERTEX
  5
123
  8
CUT_LAST
 10
-497.7468634858298
 20
850.5949653389284
 30
0.0
  0
VERTEX
  5
124
  8
CUT_LAST
 10
-497.74686348583
 20
856.5949707465325
 30
0.0
  0
VERTEX
  5
125
  8
CUT_LAST
 10
-491.0653903874471
 20
856.5949707465322
 30
0.0
  0
VERTEX
  5
126
  8
CUT_LAST
 10
-491.0653903874468
 20
884.1745865518859
 30
0.0
  0
VERTEX
  5
127
  8
CUT_LAST
 10
-491.2416890483851
 20
884.1420091778577
 30
0.0
  0
VERTEX
  5
128
  8
CUT_LAST
 10
-493.3700199416492
 20
883.6733913855427
 30
0.0
  0
VERTEX
  5
129
  8
CUT_LAST
 10
-495.448714812028
 20
883.140054950099
 30
0.0
  0
VERTEX
  5
12A
  8
CUT_LAST
 10
-497.4748109135629
 20
882.5440047170583
 30
0.0
  0
VERTEX
  5
12B
  8
CUT_LAST
 10
-498.3338098854766
 20
882.2577161620944
 30
0.0
  0
VERTEX
  5
12C
  8
CUT_LAST
 10
-498.3338098854757
 20
856.5949707465322
 30
0.0
  0
VERTEX
  5
12D
  8
CUT_LAST
 10
-502.3338134905455
 20
856.5949707465322
 30
0.0
  0
SEQEND
  5
4CA
  8
CUT_LAST
  0
POLYLINE
  5
77
  8
CUT_LAST
 66
     1
 10
0.0
 20
0.0
 30
0.0
 70
     1
  0
VERTEX
  5
12E
  8
CUT_LAST
 10
-562.7230986662737
 20
998.4954641973959
 30
0.0
  0
VERTEX
  5
12F
  8
CUT_LAST
 10
-562.7230986662737
 20
1014.099785455158
 30
0.0
  0
VERTEX
  5
130
  8
CUT_LAST
 10
-556.7230932586695
 20
1014.099785455158
 30
0.0
  0
VERTEX
  5
131
  8
CUT_LAST
 10
-556.7230932586695
 20
1028.168425280893
 30
0.0
  0
VERTEX
  5
132
  8
CUT_LAST
 10
-556.7230932586695
 20
1040.09980888811
 30
0.0
  0
VERTEX
  5
133
  8
CUT_LAST
 10
-562.7230986662737
 20
1040.09980888811
 30
0.0
  0
VERTEX
  5
134
  8
CUT_LAST
 10
-562.7230986662737
 20
1060.780124890031
 30
0.0
  0
VERTEX
  5
135
  8
CUT_LAST
 10
-562.7230986662737
 20
1075.099840432468
 30
0.0
  0
VERTEX
  5
136
  8
CUT_LAST
 10
-517.7230581092417
 20
1075.099840432467
 30
0.0
  0
VERTEX
  5
137
  8
CUT_LAST
 10
-517.7230581092417
 20
1081.099845840072
 30
0.0
  0
VERTEX
  5
138
  8
CUT_LAST
 10
-481.7230256636162
 20
1081.099845840072
 30
0.0
  0
VERTEX
  5
139
  8
CUT_LAST
 10
-481.7230256636162
 20
1075.099840432468
 30
0.0
  0
VERTEX
  5
13A
  8
CUT_LAST
 10
-436.7229851065839
 20
1075.099840432468
 30
0.0
  0
VERTEX
  5
13B
  8
CUT_LAST
 10
-436.7229851065839
 20
1060.780124890031
 30
0.0
  0
VERTEX
  5
13C
  8
CUT_LAST
 10
-436.7229851065839
 20
1040.09980888811
 30
0.0
  0
VERTEX
  5
13D
  8
CUT_LAST
 10
-442.7229905141883
 20
1040.09980888811
 30
0.0
  0
VERTEX
  5
13E
  8
CUT_LAST
 10
-442.7229905141877
 20
1028.168425280893
 30
0.0
  0
VERTEX
  5
13F
  8
CUT_LAST
 10
-442.7229905141883
 20
1014.099785455158
 30
0.0
  0
VERTEX
  5
140
  8
CUT_LAST
 10
-436.7229851065839
 20
1014.099785455158
 30
0.0
  0
VERTEX
  5
141
  8
CUT_LAST
 10
-436.7229851065839
 20
998.4954641973957
 30
0.0
  0
VERTEX
  5
142
  8
CUT_LAST
 10
-436.7229851065839
 20
985.0997593184036
 30
0.0
  0
VERTEX
  5
143
  8
CUT_LAST
 10
-481.7230256636162
 20
985.0997593184036
 30
0.0
  0
VERTEX
  5
144
  8
CUT_LAST
 10
-481.7230256636162
 20
979.0997539107991
 30
0.0
  0
VERTEX
  5
145
  8
CUT_LAST
 10
-517.7230581092417
 20
979.0997539107991
 30
0.0
  0
VERTEX
  5
146
  8
CUT_LAST
 10
-517.7230581092417
 20
985.0997593184036
 30
0.0
  0
VERTEX
  5
147
  8
CUT_LAST
 10
-562.7230986662737
 20
985.0997593184031
 30
0.0
  0
SEQEND
  5
4CB
  8
CUT_LAST
  0
POLYLINE
  5
78
  8
CUT_LAST
 66
     1
 10
0.0
 20
0.0
 30
0.0
 70
     1
  0
VERTEX
  5
148
  8
CUT_LAST
 10
-312.1039595098712
 20
917.8063210317612
 30
0.0
  0
VERTEX
  5
149
  8
CUT_LAST
 10
-327.7082807676334
 20
917.8063210317612
 30
0.0
  0
VERTEX
  5
14A
  8
CUT_LAST
 10
-327.7082807676334
 20
911.8063156241569
 30
0.0
  0
VERTEX
  5
14B
  8
CUT_LAST
 10
-341.7769205933678
 20
911.8063156241567
 30
0.0
  0
VERTEX
  5
14C
  8
CUT_LAST
 10
-353.7083042005858
 20
911.8063156241567
 30
0.0
  0
VERTEX
  5
14D
  8
CUT_LAST
 10
-353.7083042005858
 20
917.8063210317619
 30
0.0
  0
VERTEX
  5
14E
  8
CUT_LAST
 10
-374.3886202025065
 20
917.8063210317612
 30
0.0
  0
VERTEX
  5
14F
  8
CUT_LAST
 10
-382.7083303373395
 20
917.806321031761
 30
0.0
  0
VERTEX
  5
150
  8
CUT_LAST
 10
-388.7083357449438
 20
917.806321031761
 30
0.0
  0
VERTEX
  5
151
  8
CUT_LAST
 10
-388.7083357449441
 20
938.7922105510146
 30
0.0
  0
VERTEX
  5
152
  8
CUT_LAST
 10
-394.7083411525479
 20
938.792210551015
 30
0.0
  0
VERTEX
  5
153
  8
CUT_LAST
 10
-394.7083411525479
 20
964.7922339839674
 30
0.0
  0
VERTEX
  5
154
  8
CUT_LAST
 10
-388.7083357449441
 20
964.7922339839674
 30
0.0
  0
VERTEX
  5
155
  8
CUT_LAST
 10
-388.7083357449437
 20
968.7922375890369
 30
0.0
  0
VERTEX
  5
156
  8
CUT_LAST
 10
-388.7083357449437
 20
985.8063823179416
 30
0.0
  0
VERTEX
  5
157
  8
CUT_LAST
 10
-382.708330337339
 20
985.8063823179427
 30
0.0
  0
VERTEX
  5
158
  8
CUT_LAST
 10
-374.3886202025065
 20
985.8063823179427
 30
0.0
  0
VERTEX
  5
159
  8
CUT_LAST
 10
-353.7083042005853
 20
985.8063823179427
 30
0.0
  0
VERTEX
  5
15A
  8
CUT_LAST
 10
-353.7083042005853
 20
991.8063877255472
 30
0.0
  0
VERTEX
  5
15B
  8
CUT_LAST
 10
-341.7769205933679
 20
991.8063877255472
 30
0.0
  0
VERTEX
  5
15C
  8
CUT_LAST
 10
-327.7082807676333
 20
991.8063877255477
 30
0.0
  0
VERTEX
  5
15D
  8
CUT_LAST
 10
-327.7082807676338
 20
985.8063823179427
 30
0.0
  0
VERTEX
  5
15E
  8
CUT_LAST
 10
-312.1039595098709
 20
985.8063823179425
 30
0.0
  0
VERTEX
  5
15F
  8
CUT_LAST
 10
-298.7082546308789
 20
985.8063823179425
 30
0.0
  0
VERTEX
  5
160
  8
CUT_LAST
 10
-298.7082546308797
 20
964.7922339839672
 30
0.0
  0
VERTEX
  5
161
  8
CUT_LAST
 10
-292.7082492232741
 20
964.7922339839672
 30
0.0
  0
VERTEX
  5
162
  8
CUT_LAST
 10
-292.7082492232741
 20
938.7922105510148
 30
0.0
  0
VERTEX
  5
163
  8
CUT_LAST
 10
-298.7082546308787
 20
938.7922105510146
 30
0.0
  0
VERTEX
  5
164
  8
CUT_LAST
 10
-298.7082546308793
 20
917.806321031761
 30
0.0
  0
SEQEND
  5
4CC
  8
CUT_LAST
  0
POLYLINE
  5
7A
  8
CUT_FIRST
 66
     1
 10
0.0
 20
0.0
 30
0.0
 70
     1
  0
VERTEX
  5
165
  8
CUT_FIRST
 10
-587.6355502746669
 20
913.3625212537104
 30
0.0
  0
VERTEX
  5
166
  8
CUT_FIRST
 10
-581.6355448670627
 20
913.3625212537104
 30
0.0
  0
VERTEX
  5
167
  8
CUT_FIRST
 10
-581.6355448670627
 20
919.3625266613147
 30
0.0
  0
VERTEX
  5
168
  8
CUT_FIRST
 10
-587.6355502746669
 20
919.3625266613147
 30
0.0
  0
SEQEND
  5
4CD
  8
CUT_FIRST
  0
POLYLINE
  5
7B
  8
CUT_FIRST
 66
     1
 10
0.0
 20
0.0
 30
0.0
 70
     1
  0
VERTEX
  5
169
  8
CUT_FIRST
 10
-375.6227238782083
 20
782.0293176636467
 30
0.0
  0
VERTEX
  5
16A
  8
CUT_FIRST
 10
-369.622718470604
 20
782.0293176636467
 30
0.0
  0
VERTEX
  5
16B
  8
CUT_FIRST
 10
-369.622718470604
 20
788.0293230712512
 30
0.0
  0
VERTEX
  5
16C
  8
CUT_FIRST
 10
-375.6227238782083
 20
788.0293230712512
 30
0.0
  0
SEQEND
  5
4CE
  8
CUT_FIRST
  0
POLYLINE
  5
7C
  8
CUT_FIRST
 66
     1
 10
0.0
 20
0.0
 30
0.0
 70
     1
  0
VERTEX
  5
16D
  8
CUT_FIRST
 10
-368.900061094412
 20
875.6783048392424
 30
0.0
  0
VERTEX
  5
16E
  8
CUT_FIRST
 10
-362.9000556868077
 20
875.6783048392424
 30
0.0
  0
VERTEX
  5
16F
  8
CUT_FIRST
 10
-362.9000556868077
 20
881.6783102468465
 30
0.0
  0
VERTEX
  5
170
  8
CUT_FIRST
 10
-368.900061094412
 20
881.6783102468465
 30
0.0
  0
SEQEND
  5
4CF
  8
CUT_FIRST
  0
POLYLINE
  5
7D
  8
CUT_FIRST
 66
     1
 10
0.0
 20
0.0
 30
0.0
 70
     1
  0
VERTEX
  5
171
  8
CUT_FIRST
 10
-398.0054428811675
 20
682.4630551527002
 30
0.0
  0
VERTEX
  5
172
  8
CUT_FIRST
 10
-357.2954921688419
 20
682.463273053444
 30
0.0
  0
VERTEX
  5
173
  8
CUT_FIRST
 10
-357.2954921688419
 20
676.4632747311427
 30
0.0
  0
VERTEX
  5
174
  8
CUT_FIRST
 10
-398.0054428811664
 20
676.4630497450972
 30
0.0
  0
VERTEX
  5
175
  8
CUT_FIRST
 10
-398.0054428811652
 20
667.4630416336895
 30
0.0
  0
VERTEX
  5
176
  8
CUT_FIRST
 10
-404.0054482887696
 20
667.4630416336895
 30
0.0
  0
VERTEX
  5
177
  8
CUT_FIRST
 10
-410.0054536963738
 20
676.4630497450959
 30
0.0
  0
VERTEX
  5
178
  8
CUT_FIRST
 10
-410.0054536963738
 20
682.4630551527002
 30
0.0
  0
VERTEX
  5
179
  8
CUT_FIRST
 10
-404.0054482887696
 20
691.4630632641066
 30
0.0
  0
VERTEX
  5
17A
  8
CUT_FIRST
 10
-398.0054428811652
 20
691.4630632641066
 30
0.0
  0
SEQEND
  5
4D0
  8
CUT_FIRST
  0
POLYLINE
  5
7E
  8
CUT_FIRST
 66
     1
 10
0.0
 20
0.0
 30
0.0
 70
     1
  0
VERTEX
  5
17B
  8
CUT_FIRST
 10
-429.0767685899687
 20
717.936403683269
 30
0.0
  0
VERTEX
  5
17C
  8
CUT_FIRST
 10
-407.0767487620863
 20
717.936403683269
 30
0.0
  0
VERTEX
  5
17D
  8
CUT_FIRST
 10
-407.0767487620863
 20
739.9364235111514
 30
0.0
  0
VERTEX
  5
17E
  8
CUT_FIRST
 10
-429.0767685899687
 20
739.9364235111514
 30
0.0
  0
SEQEND
  5
4D1
  8
CUT_FIRST
  0
POLYLINE
  5
7F
  8
CUT_FIRST
 66
     1
 10
0.0
 20
0.0
 30
0.0
 70
     1
  0
VERTEX
  5
17F
  8
CUT_FIRST
 10
-421.0767613798296
 20
725.9364108934079
 30
0.0
  0
VERTEX
  5
180
  8
CUT_FIRST
 10
-415.0767559722253
 20
725.9364108934079
 30
0.0
  0
VERTEX
  5
181
  8
CUT_FIRST
 10
-415.0767559722253
 20
731.9364163010123
 30
0.0
  0
VERTEX
  5
182
  8
CUT_FIRST
 10
-421.0767613798296
 20
731.9364163010123
 30
0.0
  0
SEQEND
  5
4D2
  8
CUT_FIRST
  0
POLYLINE
  5
80
  8
CUT_FIRST
 66
     1
 10
0.0
 20
0.0
 30
0.0
 70
     1
  0
VERTEX
  5
183
  8
CUT_FIRST
 10
-403.4333194552449
 20
718.3005032085209
 30
0.0
  0
VERTEX
  5
184
  8
CUT_FIRST
 10
-381.4332996273625
 20
718.3005032085209
 30
0.0
  0
VERTEX
  5
185
  8
CUT_FIRST
 10
-381.4332996273625
 20
740.3005230364032
 30
0.0
  0
VERTEX
  5
186
  8
CUT_FIRST
 10
-403.4333194552449
 20
740.3005230364032
 30
0.0
  0
SEQEND
  5
4D3
  8
CUT_FIRST
  0
POLYLINE
  5
81
  8
CUT_FIRST
 66
     1
 10
0.0
 20
0.0
 30
0.0
 70
     1
  0
VERTEX
  5
187
  8
CUT_FIRST
 10
-395.4333122451059
 20
726.30051041866
 30
0.0
  0
VERTEX
  5
188
  8
CUT_FIRST
 10
-389.4333068375016
 20
726.30051041866
 30
0.0
  0
VERTEX
  5
189
  8
CUT_FIRST
 10
-389.4333068375016
 20
732.3005158262644
 30
0.0
  0
VERTEX
  5
18A
  8
CUT_FIRST
 10
-395.4333122451059
 20
732.3005158262644
 30
0.0
  0
SEQEND
  5
4D4
  8
CUT_FIRST
  0
POLYLINE
  5
82
  8
CUT_FIRST
 66
     1
 10
0.0
 20
0.0
 30
0.0
 70
     1
  0
VERTEX
  5
18B
  8
CUT_FIRST
 10
-390.9927882946075
 20
847.4236590711262
 30
0.0
  0
VERTEX
  5
18C
  8
CUT_FIRST
 10
-353.6365655710329
 20
831.2435713073914
 30
0.0
  0
VERTEX
  5
18D
  8
CUT_FIRST
 10
-356.016777491027
 20
825.73588067454
 30
0.0
  0
VERTEX
  5
18E
  8
CUT_FIRST
 10
-393.3730002146002
 20
841.9159684382757
 30
0.0
  0
VERTEX
  5
18F
  8
CUT_FIRST
 10
-396.9433180945908
 20
833.6544324889969
 30
0.0
  0
VERTEX
  5
190
  8
CUT_FIRST
 10
-402.4510087274422
 20
836.034644408991
 30
0.0
  0
VERTEX
  5
191
  8
CUT_FIRST
 10
-404.3883814803023
 20
846.6763922782623
 30
0.0
  0
VERTEX
  5
192
  8
CUT_FIRST
 10
-402.0081695603082
 20
852.1840829111135
 30
0.0
  0
VERTEX
  5
193
  8
CUT_FIRST
 10
-392.9301610474657
 20
858.0654069403963
 30
0.0
  0
VERTEX
  5
194
  8
CUT_FIRST
 10
-387.4224704146143
 20
855.6851950204023
 30
0.0
  0
SEQEND
  5
4D5
  8
CUT_FIRST
  0
POLYLINE
  5
83
  8
CUT_FIRST
 66
     1
 10
0.0
 20
0.0
 30
0.0
 70
     1
  0
VERTEX
  5
195
  8
CUT_FIRST
 10
-460.364363726969
 20
920.8232144501699
 30
0.0
  0
VERTEX
  5
196
  8
CUT_FIRST
 10
-460.3643676283204
 20
919.3999130206664
 30
0.0
  0
VERTEX
  5
197
  8
CUT_FIRST
 10
-460.3378765900827
 20
919.1355349422502
 30
0.0
  0
VERTEX
  5
198
  8
CUT_FIRST
 10
-460.3038944970705
 20
918.8730946266378
 30
0.0
  0
VERTEX
  5
199
  8
CUT_FIRST
 10
-460.2625132804722
 20
918.612663296899
 30
0.0
  0
VERTEX
  5
19A
  8
CUT_FIRST
 10
-460.213824871476
 20
918.3543121761044
 30
0.0
  0
VERTEX
  5
19B
  8
CUT_FIRST
 10
-460.1579212012704
 20
918.0981124873238
 30
0.0
  0
VERTEX
  5
19C
  8
CUT_FIRST
 10
-460.0948942010436
 20
917.8441354536276
 30
0.0
  0
VERTEX
  5
19D
  8
CUT_FIRST
 10
-460.024835801984
 20
917.5924522980858
 30
0.0
  0
VERTEX
  5
19E
  8
CUT_FIRST
 10
-459.9478379352799
 20
917.3431342437686
 30
0.0
  0
VERTEX
  5
19F
  8
CUT_FIRST
 10
-459.8639925321198
 20
917.0962525137463
 30
0.0
  0
VERTEX
  5
1A0
  8
CUT_FIRST
 10
-459.7733915236918
 20
916.8518783310888
 30
0.0
  0
VERTEX
  5
1A1
  8
CUT_FIRST
 10
-459.6761268411845
 20
916.6100829188665
 30
0.0
  0
VERTEX
  5
1A2
  8
CUT_FIRST
 10
-459.5722904157859
 20
916.3709375001492
 30
0.0
  0
VERTEX
  5
1A3
  8
CUT_FIRST
 10
-459.4619741786846
 20
916.1345132980074
 30
0.0
  0
VERTEX
  5
1A4
  8
CUT_FIRST
 10
-459.3452700610689
 20
915.9008815355112
 30
0.0
  0
VERTEX
  5
1A5
  8
CUT_FIRST
 10
-459.2222699941271
 20
915.6701134357306
 30
0.0
  0
VERTEX
  5
1A6
  8
CUT_FIRST
 10
-459.0930659090476
 20
915.4422802217357
 30
0.0
  0
VERTEX
  5
1A7
  8
CUT_FIRST
 10
-458.9577497370187
 20
915.217453116597
 30
0.0
  0
VERTEX
  5
1A8
  8
CUT_FIRST
 10
-458.8164134092287
 20
914.9957033433843
 30
0.0
  0
VERTEX
  5
1A9
  8
CUT_FIRST
 10
-458.669148856866
 20
914.7771021251679
 30
0.0
  0
VERTEX
  5
1AA
  8
CUT_FIRST
 10
-458.5160480111189
 20
914.5617206850179
 30
0.0
  0
VERTEX
  5
1AB
  8
CUT_FIRST
 10
-458.3572028031758
 20
914.3496302460046
 30
0.0
  0
VERTEX
  5
1AC
  8
CUT_FIRST
 10
-458.1927051642249
 20
914.140902031198
 30
0.0
  0
VERTEX
  5
1AD
  8
CUT_FIRST
 10
-458.0226470254548
 20
913.9356072636683
 30
0.0
  0
VERTEX
  5
1AE
  8
CUT_FIRST
 10
-457.8471203180536
 20
913.7338171664857
 30
0.0
  0
VERTEX
  5
1AF
  8
CUT_FIRST
 10
-457.6662169732097
 20
913.5356029627202
 30
0.0
  0
VERTEX
  5
1B0
  8
CUT_FIRST
 10
-457.4800289221113
 20
913.3410358754421
 30
0.0
  0
VERTEX
  5
1B1
  8
CUT_FIRST
 10
-457.2886480959471
 20
913.1501871277214
 30
0.0
  0
VERTEX
  5
1B2
  8
CUT_FIRST
 10
-457.0921664259052
 20
912.9631279426285
 30
0.0
  0
VERTEX
  5
1B3
  8
CUT_FIRST
 10
-456.8906758431739
 20
912.7799295432335
 30
0.0
  0
VERTEX
  5
1B4
  8
CUT_FIRST
 10
-456.6842682789417
 20
912.6006631526063
 30
0.0
  0
VERTEX
  5
1B5
  8
CUT_FIRST
 10
-456.4730356643968
 20
912.4253999938172
 30
0.0
  0
VERTEX
  5
1B6
  8
CUT_FIRST
 10
-456.2570699307276
 20
912.2542112899364
 30
0.0
  0
VERTEX
  5
1B7
  8
CUT_FIRST
 10
-456.0364630091224
 20
912.0871682640341
 30
0.0
  0
VERTEX
  5
1B8
  8
CUT_FIRST
 10
-455.8113068307696
 20
911.9243421391802
 30
0.0
  0
VERTEX
  5
1B9
  8
CUT_FIRST
 10
-455.5816933268576
 20
911.7658041384452
 30
0.0
  0
VERTEX
  5
1BA
  8
CUT_FIRST
 10
-455.3477144285745
 20
911.6116254848989
 30
0.0
  0
VERTEX
  5
1BB
  8
CUT_FIRST
 10
-455.1094620671089
 20
911.4618774016119
 30
0.0
  0
VERTEX
  5
1BC
  8
CUT_FIRST
 10
-454.8670281736491
 20
911.3166311116538
 30
0.0
  0
VERTEX
  5
1BD
  8
CUT_FIRST
 10
-454.6205046793832
 20
911.1759578380952
 30
0.0
  0
VERTEX
  5
1BE
  8
CUT_FIRST
 10
-454.3699835154998
 20
911.039928804006
 30
0.0
  0
VERTEX
  5
1BF
  8
CUT_FIRST
 10
-454.1155566131872
 20
910.9086152324564
 30
0.0
  0
VERTEX
  5
1C0
  8
CUT_FIRST
 10
-453.8573159036335
 20
910.7820883465167
 30
0.0
  0
VERTEX
  5
1C1
  8
CUT_FIRST
 10
-453.5953533180274
 20
910.6604193692569
 30
0.0
  0
VERTEX
  5
1C2
  8
CUT_FIRST
 10
-453.329760787557
 20
910.5436795237472
 30
0.0
  0
VERTEX
  5
1C3
  8
CUT_FIRST
 10
-453.0606302434107
 20
910.4319400330578
 30
0.0
  0
VERTEX
  5
1C4
  8
CUT_FIRST
 10
-452.7880536167769
 20
910.3252721202588
 30
0.0
  0
VERTEX
  5
1C5
  8
CUT_FIRST
 10
-452.5121228388439
 20
910.2237470084202
 30
0.0
  0
VERTEX
  5
1C6
  8
CUT_FIRST
 10
-452.2329298408001
 20
910.1274359206125
 30
0.0
  0
VERTEX
  5
1C7
  8
CUT_FIRST
 10
-451.9505665538337
 20
910.0364100799054
 30
0.0
  0
VERTEX
  5
1C8
  8
CUT_FIRST
 10
-451.6651249091331
 20
909.9507407093695
 30
0.0
  0
VERTEX
  5
1C9
  8
CUT_FIRST
 10
-451.3766968378866
 20
909.8704990320748
 30
0.0
  0
VERTEX
  5
1CA
  8
CUT_FIRST
 10
-451.0853742712827
 20
909.7957562710912
 30
0.0
  0
VERTEX
  5
1CB
  8
CUT_FIRST
 10
-450.7912491405095
 20
909.7265836494894
 30
0.0
  0
VERTEX
  5
1CC
  8
CUT_FIRST
 10
-450.4944133767556
 20
909.663052390339
 30
0.0
  0
VERTEX
  5
1CD
  8
CUT_FIRST
 10
-450.1949589112091
 20
909.6052337167104
 30
0.0
  0
VERTEX
  5
1CE
  8
CUT_FIRST
 10
-449.8929776750585
 20
909.5531988516736
 30
0.0
  0
VERTEX
  5
1CF
  8
CUT_FIRST
 10
-449.5885615994921
 20
909.5070190182992
 30
0.0
  0
VERTEX
  5
1D0
  8
CUT_FIRST
 10
-449.2818026156982
 20
909.4667654396567
 30
0.0
  0
VERTEX
  5
1D1
  8
CUT_FIRST
 10
-448.9727926548651
 20
909.4325093388168
 30
0.0
  0
VERTEX
  5
1D2
  8
CUT_FIRST
 10
-448.6616236481813
 20
909.4043219388492
 30
0.0
  0
VERTEX
  5
1D3
  8
CUT_FIRST
 10
-448.348387526835
 20
909.3822744628244
 30
0.0
  0
VERTEX
  5
1D4
  8
CUT_FIRST
 10
-448.0331762220146
 20
909.3664381338125
 30
0.0
  0
VERTEX
  5
1D5
  8
CUT_FIRST
 10
-447.7160816649085
 20
909.3568841748836
 30
0.0
  0
VERTEX
  5
1D6
  8
CUT_FIRST
 10
-447.397195786705
 20
909.3536838091077
 30
0.0
  0
VERTEX
  5
1D7
  8
CUT_FIRST
 10
-447.078136195265
 20
909.3568732008641
 30
0.0
  0
VERTEX
  5
1D8
  8
CUT_FIRST
 10
-446.7605299220301
 20
909.3663944669195
 30
0.0
  0
VERTEX
  5
1D9
  8
CUT_FIRST
 10
-446.4444855200762
 20
909.3821774511846
 30
0.0
  0
VERTEX
  5
1DA
  8
CUT_FIRST
 10
-446.1301115424793
 20
909.4041519975699
 30
0.0
  0
VERTEX
  5
1DB
  8
CUT_FIRST
 10
-445.8175165423153
 20
909.4322479499864
 30
0.0
  0
VERTEX
  5
1DC
  8
CUT_FIRST
 10
-445.50680907266
 20
909.4663951523446
 30
0.0
  0
VERTEX
  5
1DD
  8
CUT_FIRST
 10
-445.1980976865894
 20
909.5065234485553
 30
0.0
  0
VERTEX
  5
1DE
  8
CUT_FIRST
 10
-444.8914909371796
 20
909.5525626825292
 30
0.0
  0
VERTEX
  5
1DF
  8
CUT_FIRST
 10
-444.5870973775063
 20
909.6044426981771
 30
0.0
  0
VERTEX
  5
1E0
  8
CUT_FIRST
 10
-444.2850255606456
 20
909.6620933394096
 30
0.0
  0
VERTEX
  5
1E1
  8
CUT_FIRST
 10
-443.9853840396734
 20
909.7254444501375
 30
0.0
  0
VERTEX
  5
1E2
  8
CUT_FIRST
 10
-443.6882813676654
 20
909.7944258742714
 30
0.0
  0
VERTEX
  5
1E3
  8
CUT_FIRST
 10
-443.3938260976978
 20
909.868967455722
 30
0.0
  0
VERTEX
  5
1E4
  8
CUT_FIRST
 10
-443.1021267828465
 20
909.9489990384002
 30
0.0
  0
VERTEX
  5
1E5
  8
CUT_FIRST
 10
-442.8132919761873
 20
910.0344504662166
 30
0.0
  0
VERTEX
  5
1E6
  8
CUT_FIRST
 10
-442.5274302307963
 20
910.1252515830819
 30
0.0
  0
VERTEX
  5
1E7
  8
CUT_FIRST
 10
-442.2446500997493
 20
910.2213322329069
 30
0.0
  0
VERTEX
  5
1E8
  8
CUT_FIRST
 10
-441.9650601361223
 20
910.3226222596022
 30
0.0
  0
VERTEX
  5
1E9
  8
CUT_FIRST
 10
-441.6887688929912
 20
910.4290515070784
 30
0.0
  0
VERTEX
  5
1EA
  8
CUT_FIRST
 10
-441.415884923432
 20
910.5405498192465
 30
0.0
  0
VERTEX
  5
1EB
  8
CUT_FIRST
 10
-441.1465167805204
 20
910.6570470400171
 30
0.0
  0
VERTEX
  5
1EC
  8
CUT_FIRST
 10
-440.8807730173327
 20
910.778473013301
 30
0.0
  0
VERTEX
  5
1ED
  8
CUT_FIRST
 10
-440.6187621869445
 20
910.9047575830086
 30
0.0
  0
VERTEX
  5
1EE
  8
CUT_FIRST
 10
-440.360592842432
 20
911.035830593051
 30
0.0
  0
VERTEX
  5
1EF
  8
CUT_FIRST
 10
-440.1063735368708
 20
911.1716218873385
 30
0.0
  0
VERTEX
  5
1F0
  8
CUT_FIRST
 10
-439.8562128233372
 20
911.3120613097824
 30
0.0
  0
VERTEX
  5
1F1
  8
CUT_FIRST
 10
-439.6102192549068
 20
911.4570787042928
 30
0.0
  0
VERTEX
  5
1F2
  8
CUT_FIRST
 10
-439.3685013846558
 20
911.6066039147807
 30
0.0
  0
VERTEX
  5
1F3
  8
CUT_FIRST
 10
-439.13116776566
 20
911.7605667851569
 30
0.0
  0
VERTEX
  5
1F4
  8
CUT_FIRST
 10
-438.8983269509953
 20
911.9188971593319
 30
0.0
  0
VERTEX
  5
1F5
  8
CUT_FIRST
 10
-438.6700874937378
 20
912.0815248812166
 30
0.0
  0
VERTEX
  5
1F6
  8
CUT_FIRST
 10
-438.4465579469631
 20
912.2483797947216
 30
0.0
  0
VERTEX
  5
1F7
  8
CUT_FIRST
 10
-438.2278468637476
 20
912.4193917437576
 30
0.0
  0
VERTEX
  5
1F8
  8
CUT_FIRST
 10
-438.0140627971668
 20
912.5944905722355
 30
0.0
  0
VERTEX
  5
1F9
  8
CUT_FIRST
 10
-437.8053143002969
 20
912.7736061240657
 30
0.0
  0
VERTEX
  5
1FA
  8
CUT_FIRST
 10
-437.6017099262137
 20
912.9566682431594
 30
0.0
  0
VERTEX
  5
1FB
  8
CUT_FIRST
 10
-437.4033582279932
 20
913.1436067734267
 30
0.0
  0
VERTEX
  5
1FC
  8
CUT_FIRST
 10
-437.2103677587112
 20
913.3343515587785
 30
0.0
  0
VERTEX
  5
1FD
  8
CUT_FIRST
 10
-437.0228470714438
 20
913.5288324431258
 30
0.0
  0
VERTEX
  5
1FE
  8
CUT_FIRST
 10
-436.8409047192669
 20
913.7269792703793
 30
0.0
  0
VERTEX
  5
1FF
  8
CUT_FIRST
 10
-436.6646492552563
 20
913.9287218844495
 30
0.0
  0
VERTEX
  5
200
  8
CUT_FIRST
 10
-436.4941892324882
 20
914.133990129247
 30
0.0
  0
VERTEX
  5
201
  8
CUT_FIRST
 10
-436.3296332040383
 20
914.3427138486827
 30
0.0
  0
VERTEX
  5
202
  8
CUT_FIRST
 10
-436.1710897229824
 20
914.5548228866674
 30
0.0
  0
VERTEX
  5
203
  8
CUT_FIRST
 10
-436.0186673423967
 20
914.7702470871116
 30
0.0
  0
VERTEX
  5
204
  8
CUT_FIRST
 10
-435.8724746153572
 20
914.9889162939261
 30
0.0
  0
VERTEX
  5
205
  8
CUT_FIRST
 10
-435.7326200949395
 20
915.2107603510217
 30
0.0
  0
VERTEX
  5
206
  8
CUT_FIRST
 10
-435.5992123342199
 20
915.4357091023091
 30
0.0
  0
VERTEX
  5
207
  8
CUT_FIRST
 10
-435.4723598862739
 20
915.6636923916989
 30
0.0
  0
VERTEX
  5
208
  8
CUT_FIRST
 10
-435.3521713041779
 20
915.8946400631019
 30
0.0
  0
VERTEX
  5
209
  8
CUT_FIRST
 10
-435.2387551410075
 20
916.1284819604286
 30
0.0
  0
VERTEX
  5
20A
  8
CUT_FIRST
 10
-435.1322199498388
 20
916.3651479275901
 30
0.0
  0
VERTEX
  5
20B
  8
CUT_FIRST
 10
-435.0326742837476
 20
916.6045678084969
 30
0.0
  0
VERTEX
  5
20C
  8
CUT_FIRST
 10
-434.9402266958099
 20
916.8466714470596
 30
0.0
  0
VERTEX
  5
20D
  8
CUT_FIRST
 10
-434.8549857391016
 20
917.0913886871892
 30
0.0
  0
VERTEX
  5
20E
  8
CUT_FIRST
 10
-434.7770599666987
 20
917.3386493727962
 30
0.0
  0
VERTEX
  5
20F
  8
CUT_FIRST
 10
-434.7065579316771
 20
917.5883833477914
 30
0.0
  0
VERTEX
  5
210
  8
CUT_FIRST
 10
-434.6435881871128
 20
917.8405204560854
 30
0.0
  0
VERTEX
  5
211
  8
CUT_FIRST
 10
-434.5882592860816
 20
918.094990541589
 30
0.0
  0
VERTEX
  5
212
  8
CUT_FIRST
 10
-434.5406797816594
 20
918.351723448213
 30
0.0
  0
VERTEX
  5
213
  8
CUT_FIRST
 10
-434.5009582269223
 20
918.610649019868
 30
0.0
  0
VERTEX
  5
214
  8
CUT_FIRST
 10
-434.4692031749461
 20
918.8716971004646
 30
0.0
  0
VERTEX
  5
215
  8
CUT_FIRST
 10
-434.4455231788069
 20
919.1347975339138
 30
0.0
  0
VERTEX
  5
216
  8
CUT_FIRST
 10
-434.4300267915804
 20
919.3998801641261
 30
0.0
  0
VERTEX
  5
217
  8
CUT_FIRST
 10
-434.4197728771908
 20
919.7422602165323
 30
0.0
  0
VERTEX
  5
218
  8
CUT_FIRST
 10
-434.4163549057277
 20
920.1115467418704
 30
0.0
  0
VERTEX
  5
219
  8
CUT_FIRST
 10
-434.419772877191
 20
920.4808332672085
 30
0.0
  0
VERTEX
  5
21A
  8
CUT_FIRST
 10
-434.4300267915804
 20
920.8232133196145
 30
0.0
  0
VERTEX
  5
21B
  8
CUT_FIRST
 10
-434.4455231788069
 20
921.0882959498326
 30
0.0
  0
VERTEX
  5
21C
  8
CUT_FIRST
 10
-434.4692031749461
 20
921.3513963832872
 30
0.0
  0
VERTEX
  5
21D
  8
CUT_FIRST
 10
-434.5009582269223
 20
921.6124444638895
 30
0.0
  0
VERTEX
  5
21E
  8
CUT_FIRST
 10
-434.5406797816594
 20
921.8713700355496
 30
0.0
  0
VERTEX
  5
21F
  8
CUT_FIRST
 10
-434.5882592860816
 20
922.1281029421785
 30
0.0
  0
VERTEX
  5
220
  8
CUT_FIRST
 10
-434.6435881871128
 20
922.3825730276872
 30
0.0
  0
VERTEX
  5
221
  8
CUT_FIRST
 10
-434.7065579316771
 20
922.6347101359859
 30
0.0
  0
VERTEX
  5
222
  8
CUT_FIRST
 10
-434.7770599666987
 20
922.8844441109856
 30
0.0
  0
VERTEX
  5
223
  8
CUT_FIRST
 10
-434.8549857391016
 20
923.131704796597
 30
0.0
  0
VERTEX
  5
224
  8
CUT_FIRST
 10
-434.9402266958099
 20
923.3764220367308
 30
0.0
  0
VERTEX
  5
225
  8
CUT_FIRST
 10
-435.0326742837476
 20
923.6185256752976
 30
0.0
  0
VERTEX
  5
226
  8
CUT_FIRST
 10
-435.1322199498388
 20
923.8579455562083
 30
0.0
  0
VERTEX
  5
227
  8
CUT_FIRST
 10
-435.2387551410075
 20
924.0946115233735
 30
0.0
  0
VERTEX
  5
228
  8
CUT_FIRST
 10
-435.3521713041779
 20
924.3284534207041
 30
0.0
  0
VERTEX
  5
229
  8
CUT_FIRST
 10
-435.4723598862739
 20
924.5594010921106
 30
0.0
  0
VERTEX
  5
22A
  8
CUT_FIRST
 10
-435.5992123342199
 20
924.7873843815037
 30
0.0
  0
VERTEX
  5
22B
  8
CUT_FIRST
 10
-435.7326200949395
 20
925.0123331327943
 30
0.0
  0
VERTEX
  5
22C
  8
CUT_FIRST
 10
-435.8724746153572
 20
925.234177189893
 30
0.0
  0
VERTEX
  5
22D
  8
CUT_FIRST
 10
-436.0186673423967
 20
925.4528463967105
 30
0.0
  0
VERTEX
  5
22E
  8
CUT_FIRST
 10
-436.1710897229824
 20
925.6682705971576
 30
0.0
  0
VERTEX
  5
22F
  8
CUT_FIRST
 10
-436.3296332040383
 20
925.8803796351449
 30
0.0
  0
VERTEX
  5
230
  8
CUT_FIRST
 10
-436.4941892324882
 20
926.0891033545832
 30
0.0
  0
VERTEX
  5
231
  8
CUT_FIRST
 10
-436.6646492552563
 20
926.2943715993833
 30
0.0
  0
VERTEX
  5
232
  8
CUT_FIRST
 10
-436.8409047192669
 20
926.4961142134557
 30
0.0
  0
VERTEX
  5
233
  8
CUT_FIRST
 10
-437.0228470714438
 20
926.6942610407114
 30
0.0
  0
VERTEX
  5
234
  8
CUT_FIRST
 10
-437.2103677587112
 20
926.8887419250607
 30
0.0
  0
VERTEX
  5
235
  8
CUT_FIRST
 10
-437.4033582279932
 20
927.0794867104147
 30
0.0
  0
VERTEX
  5
236
  8
CUT_FIRST
 10
-437.6017099262137
 20
927.2664252406839
 30
0.0
  0
VERTEX
  5
237
  8
CUT_FIRST
 10
-437.8053143002969
 20
927.4494873597794
 30
0.0
  0
VERTEX
  5
238
  8
CUT_FIRST
 10
-438.0140627971668
 20
927.6286029116113
 30
0.0
  0
VERTEX
  5
239
  8
CUT_FIRST
 10
-438.2278468637476
 20
927.8037017400907
 30
0.0
  0
VERTEX
  5
23A
  8
CUT_FIRST
 10
-438.4465579469631
 20
927.9747136891283
 30
0.0
  0
VERTEX
  5
23B
  8
CUT_FIRST
 10
-438.6700874937378
 20
928.1415686026346
 30
0.0
  0
VERTEX
  5
23C
  8
CUT_FIRST
 10
-438.8983269509953
 20
928.3041963245207
 30
0.0
  0
VERTEX
  5
23D
  8
CUT_FIRST
 10
-439.13116776566
 20
928.462526698697
 30
0.0
  0
VERTEX
  5
23E
  8
CUT_FIRST
 10
-439.3685013846558
 20
928.6164895690744
 30
0.0
  0
VERTEX
  5
23F
  8
CUT_FIRST
 10
-439.6102192549068
 20
928.7660147795634
 30
0.0
  0
VERTEX
  5
240
  8
CUT_FIRST
 10
-439.8562128233372
 20
928.9110321740748
 30
0.0
  0
VERTEX
  5
241
  8
CUT_FIRST
 10
-440.1063735368708
 20
929.0514715965196
 30
0.0
  0
VERTEX
  5
242
  8
CUT_FIRST
 10
-440.360592842432
 20
929.187262890808
 30
0.0
  0
VERTEX
  5
243
  8
CUT_FIRST
 10
-440.6187621869445
 20
929.318335900851
 30
0.0
  0
VERTEX
  5
244
  8
CUT_FIRST
 10
-440.8807730173327
 20
929.4446204705596
 30
0.0
  0
VERTEX
  5
245
  8
CUT_FIRST
 10
-441.1465167805204
 20
929.566046443844
 30
0.0
  0
VERTEX
  5
246
  8
CUT_FIRST
 10
-441.415884923432
 20
929.6825436646152
 30
0.0
  0
VERTEX
  5
247
  8
CUT_FIRST
 10
-441.6887688929912
 20
929.7940419767839
 30
0.0
  0
VERTEX
  5
248
  8
CUT_FIRST
 10
-441.9650601361223
 20
929.9004712242606
 30
0.0
  0
VERTEX
  5
249
  8
CUT_FIRST
 10
-442.2446500997493
 20
930.0017612509564
 30
0.0
  0
VERTEX
  5
24A
  8
CUT_FIRST
 10
-442.5274302307963
 20
930.0978419007818
 30
0.0
  0
VERTEX
  5
24B
  8
CUT_FIRST
 10
-442.8132919761873
 20
930.1886430176473
 30
0.0
  0
VERTEX
  5
24C
  8
CUT_FIRST
 10
-443.1021267828465
 20
930.274094445464
 30
0.0
  0
VERTEX
  5
24D
  8
CUT_FIRST
 10
-443.3938260976978
 20
930.3541260281424
 30
0.0
  0
VERTEX
  5
24E
  8
CUT_FIRST
 10
-443.6882813676654
 20
930.4286676095935
 30
0.0
  0
VERTEX
  5
24F
  8
CUT_FIRST
 10
-443.9853840396734
 20
930.4976490337274
 30
0.0
  0
VERTEX
  5
250
  8
CUT_FIRST
 10
-444.2850255606456
 20
930.5610001444554
 30
0.0
  0
VERTEX
  5
251
  8
CUT_FIRST
 10
-444.5870973775063
 20
930.618650785688
 30
0.0
  0
VERTEX
  5
252
  8
CUT_FIRST
 10
-444.8914909371796
 20
930.6705308013361
 30
0.0
  0
VERTEX
  5
253
  8
CUT_FIRST
 10
-445.1980976865894
 20
930.71657003531
 30
0.0
  0
VERTEX
  5
254
  8
CUT_FIRST
 10
-445.50680907266
 20
930.7566983315209
 30
0.0
  0
VERTEX
  5
255
  8
CUT_FIRST
 10
-445.8175165423153
 20
930.7908455338791
 30
0.0
  0
VERTEX
  5
256
  8
CUT_FIRST
 10
-446.1301115424793
 20
930.8189414862956
 30
0.0
  0
VERTEX
  5
257
  8
CUT_FIRST
 10
-446.4444855200762
 20
930.840916032681
 30
0.0
  0
VERTEX
  5
258
  8
CUT_FIRST
 10
-446.7605299220301
 20
930.8566990169459
 30
0.0
  0
VERTEX
  5
259
  8
CUT_FIRST
 10
-447.078136195265
 20
930.8662202830013
 30
0.0
  0
VERTEX
  5
25A
  8
CUT_FIRST
 10
-447.397195786705
 20
930.8694096747577
 30
0.0
  0
VERTEX
  5
25B
  8
CUT_FIRST
 10
-447.7160816649085
 20
930.866209308982
 30
0.0
  0
VERTEX
  5
25C
  8
CUT_FIRST
 10
-448.0331762220146
 20
930.856655350053
 30
0.0
  0
VERTEX
  5
25D
  8
CUT_FIRST
 10
-448.348387526835
 20
930.840819021041
 30
0.0
  0
VERTEX
  5
25E
  8
CUT_FIRST
 10
-448.6616236481813
 20
930.8187715450163
 30
0.0
  0
VERTEX
  5
25F
  8
CUT_FIRST
 10
-448.9727926548651
 20
930.7905841450488
 30
0.0
  0
VERTEX
  5
260
  8
CUT_FIRST
 10
-449.2818026156982
 20
930.7563280442088
 30
0.0
  0
VERTEX
  5
261
  8
CUT_FIRST
 10
-449.5885615994921
 20
930.7160744655664
 30
0.0
  0
VERTEX
  5
262
  8
CUT_FIRST
 10
-449.8929776750585
 20
930.6698946321917
 30
0.0
  0
VERTEX
  5
263
  8
CUT_FIRST
 10
-450.1949589112091
 20
930.6178597671551
 30
0.0
  0
VERTEX
  5
264
  8
CUT_FIRST
 10
-450.4944133767556
 20
930.5600410935265
 30
0.0
  0
VERTEX
  5
265
  8
CUT_FIRST
 10
-450.7912491405095
 20
930.4965098343762
 30
0.0
  0
VERTEX
  5
266
  8
CUT_FIRST
 10
-451.0853742712827
 20
930.4273372127741
 30
0.0
  0
VERTEX
  5
267
  8
CUT_FIRST
 10
-451.3766968378866
 20
930.3525944517905
 30
0.0
  0
VERTEX
  5
268
  8
CUT_FIRST
 10
-451.6651249091331
 20
930.2723527744959
 30
0.0
  0
VERTEX
  5
269
  8
CUT_FIRST
 10
-451.9505665538337
 20
930.1866834039599
 30
0.0
  0
VERTEX
  5
26A
  8
CUT_FIRST
 10
-452.2329298408001
 20
930.095657563253
 30
0.0
  0
VERTEX
  5
26B
  8
CUT_FIRST
 10
-452.5121228388439
 20
929.9993464754452
 30
0.0
  0
VERTEX
  5
26C
  8
CUT_FIRST
 10
-452.7880536167769
 20
929.8978213636067
 30
0.0
  0
VERTEX
  5
26D
  8
CUT_FIRST
 10
-453.0606302434107
 20
929.7911534508078
 30
0.0
  0
VERTEX
  5
26E
  8
CUT_FIRST
 10
-453.329760787557
 20
929.6794139601183
 30
0.0
  0
VERTEX
  5
26F
  8
CUT_FIRST
 10
-453.5953533180274
 20
929.5626741146086
 30
0.0
  0
VERTEX
  5
270
  8
CUT_FIRST
 10
-453.8573159036335
 20
929.4410051373487
 30
0.0
  0
VERTEX
  5
271
  8
CUT_FIRST
 10
-454.1155566131872
 20
929.3144782514089
 30
0.0
  0
VERTEX
  5
272
  8
CUT_FIRST
 10
-454.3699835154998
 20
929.1831646798595
 30
0.0
  0
VERTEX
  5
273
  8
CUT_FIRST
 10
-454.6205046793832
 20
929.0471356457703
 30
0.0
  0
VERTEX
  5
274
  8
CUT_FIRST
 10
-454.8670281736491
 20
928.9064623722116
 30
0.0
  0
VERTEX
  5
275
  8
CUT_FIRST
 10
-455.1094620671089
 20
928.7612160822537
 30
0.0
  0
VERTEX
  5
276
  8
CUT_FIRST
 10
-455.3477144285745
 20
928.6114679989664
 30
0.0
  0
VERTEX
  5
277
  8
CUT_FIRST
 10
-455.5816933268576
 20
928.4572893454202
 30
0.0
  0
VERTEX
  5
278
  8
CUT_FIRST
 10
-455.8113068307696
 20
928.2987513446851
 30
0.0
  0
VERTEX
  5
279
  8
CUT_FIRST
 10
-456.0364630091224
 20
928.1359252198314
 30
0.0
  0
VERTEX
  5
27A
  8
CUT_FIRST
 10
-456.2570699307276
 20
927.968882193929
 30
0.0
  0
VERTEX
  5
27B
  8
CUT_FIRST
 10
-456.4730356643968
 20
927.7976934900482
 30
0.0
  0
VERTEX
  5
27C
  8
CUT_FIRST
 10
-456.6842682789417
 20
927.6224303312592
 30
0.0
  0
VERTEX
  5
27D
  8
CUT_FIRST
 10
-456.8906758431739
 20
927.4431639406321
 30
0.0
  0
VERTEX
  5
27E
  8
CUT_FIRST
 10
-457.0921664259052
 20
927.2599655412369
 30
0.0
  0
VERTEX
  5
27F
  8
CUT_FIRST
 10
-457.2886480959471
 20
927.0729063561439
 30
0.0
  0
VERTEX
  5
280
  8
CUT_FIRST
 10
-457.4800289221113
 20
926.8820576084233
 30
0.0
  0
VERTEX
  5
281
  8
CUT_FIRST
 10
-457.6662169732097
 20
926.6874905211453
 30
0.0
  0
VERTEX
  5
282
  8
CUT_FIRST
 10
-457.8471203180536
 20
926.4892763173798
 30
0.0
  0
VERTEX
  5
283
  8
CUT_FIRST
 10
-458.0226470254548
 20
926.2874862201971
 30
0.0
  0
VERTEX
  5
284
  8
CUT_FIRST
 10
-458.1927051642249
 20
926.0821914526675
 30
0.0
  0
VERTEX
  5
285
  8
CUT_FIRST
 10
-458.3572028031758
 20
925.8734632378607
 30
0.0
  0
VERTEX
  5
286
  8
CUT_FIRST
 10
-458.5160480111189
 20
925.6613727988474
 30
0.0
  0
VERTEX
  5
287
  8
CUT_FIRST
 10
-458.669148856866
 20
925.4459913586976
 30
0.0
  0
VERTEX
  5
288
  8
CUT_FIRST
 10
-458.8164134092287
 20
925.2273901404812
 30
0.0
  0
VERTEX
  5
289
  8
CUT_FIRST
 10
-458.9577497370187
 20
925.0056403672686
 30
0.0
  0
VERTEX
  5
28A
  8
CUT_FIRST
 10
-459.0930659090476
 20
924.7808132621296
 30
0.0
  0
VERTEX
  5
28B
  8
CUT_FIRST
 10
-459.2222699941271
 20
924.5529800481349
 30
0.0
  0
VERTEX
  5
28C
  8
CUT_FIRST
 10
-459.3452700610689
 20
924.3222119483544
 30
0.0
  0
VERTEX
  5
28D
  8
CUT_FIRST
 10
-459.4619741786846
 20
924.0885801858581
 30
0.0
  0
VERTEX
  5
28E
  8
CUT_FIRST
 10
-459.5722904157859
 20
923.8521559837162
 30
0.0
  0
VERTEX
  5
28F
  8
CUT_FIRST
 10
-459.6761268411845
 20
923.6130105649991
 30
0.0
  0
VERTEX
  5
290
  8
CUT_FIRST
 10
-459.7733915236918
 20
923.3712151527766
 30
0.0
  0
VERTEX
  5
291
  8
CUT_FIRST
 10
-459.8639925321198
 20
923.1268409701192
 30
0.0
  0
VERTEX
  5
292
  8
CUT_FIRST
 10
-459.9478379352799
 20
922.8799592400968
 30
0.0
  0
VERTEX
  5
293
  8
CUT_FIRST
 10
-460.024835801984
 20
922.6306411857797
 30
0.0
  0
VERTEX
  5
294
  8
CUT_FIRST
 10
-460.0948942010436
 20
922.3789580302379
 30
0.0
  0
VERTEX
  5
295
  8
CUT_FIRST
 10
-460.1579212012704
 20
922.1249809965416
 30
0.0
  0
VERTEX
  5
296
  8
CUT_FIRST
 10
-460.213824871476
 20
921.8687813077611
 30
0.0
  0
VERTEX
  5
297
  8
CUT_FIRST
 10
-460.2625132804722
 20
921.6104301869665
 30
0.0
  0
VERTEX
  5
298
  8
CUT_FIRST
 10
-460.3038944970705
 20
921.3499988572278
 30
0.0
  0
VERTEX
  5
299
  8
CUT_FIRST
 10
-460.3378765900827
 20
921.0875585416153
 30
0.0
  0
VERTEX
  5
29A
  8
CUT_FIRST
 10
-460.3643676283204
 20
920.823180463199
 30
0.0
  0
SEQEND
  5
4D6
  8
CUT_FIRST
  0
POLYLINE
  5
84
  8
CUT_FIRST
 66
     1
 10
0.0
 20
0.0
 30
0.0
 70
     1
  0
VERTEX
  5
29B
  8
CUT_FIRST
 10
-512.9259388083401
 20
921.8955481399961
 30
0.0
  0
VERTEX
  5
29C
  8
CUT_FIRST
 10
-525.0401292055901
 20
921.8955634876147
 30
0.0
  0
VERTEX
  5
29D
  8
CUT_FIRST
 10
-525.0401428866996
 20
919.3999130206664
 30
0.0
  0
VERTEX
  5
29E
  8
CUT_FIRST
 10
-525.0136518484619
 20
919.1355349422502
 30
0.0
  0
VERTEX
  5
29F
  8
CUT_FIRST
 10
-524.9796697554498
 20
918.8730946266378
 30
0.0
  0
VERTEX
  5
2A0
  8
CUT_FIRST
 10
-524.9382885388513
 20
918.612663296899
 30
0.0
  0
VERTEX
  5
2A1
  8
CUT_FIRST
 10
-524.8896001298552
 20
918.3543121761044
 30
0.0
  0
VERTEX
  5
2A2
  8
CUT_FIRST
 10
-524.8336964596496
 20
918.0981124873238
 30
0.0
  0
VERTEX
  5
2A3
  8
CUT_FIRST
 10
-524.7706694594227
 20
917.8441354536276
 30
0.0
  0
VERTEX
  5
2A4
  8
CUT_FIRST
 10
-524.7006110603631
 20
917.5924522980858
 30
0.0
  0
VERTEX
  5
2A5
  8
CUT_FIRST
 10
-524.6236131936591
 20
917.3431342437686
 30
0.0
  0
VERTEX
  5
2A6
  8
CUT_FIRST
 10
-524.5397677904989
 20
917.0962525137463
 30
0.0
  0
VERTEX
  5
2A7
  8
CUT_FIRST
 10
-524.449166782071
 20
916.8518783310888
 30
0.0
  0
VERTEX
  5
2A8
  8
CUT_FIRST
 10
-524.3519020995636
 20
916.6100829188665
 30
0.0
  0
VERTEX
  5
2A9
  8
CUT_FIRST
 10
-524.2480656741651
 20
916.3709375001492
 30
0.0
  0
VERTEX
  5
2AA
  8
CUT_FIRST
 10
-524.1377494370638
 20
916.1345132980074
 30
0.0
  0
VERTEX
  5
2AB
  8
CUT_FIRST
 10
-524.0210453194481
 20
915.9008815355112
 30
0.0
  0
VERTEX
  5
2AC
  8
CUT_FIRST
 10
-523.8980452525064
 20
915.6701134357306
 30
0.0
  0
VERTEX
  5
2AD
  8
CUT_FIRST
 10
-523.7688411674269
 20
915.4422802217357
 30
0.0
  0
VERTEX
  5
2AE
  8
CUT_FIRST
 10
-523.6335249953979
 20
915.217453116597
 30
0.0
  0
VERTEX
  5
2AF
  8
CUT_FIRST
 10
-523.4921886676079
 20
914.9957033433843
 30
0.0
  0
VERTEX
  5
2B0
  8
CUT_FIRST
 10
-523.3449241152452
 20
914.7771021251679
 30
0.0
  0
VERTEX
  5
2B1
  8
CUT_FIRST
 10
-523.1918232694982
 20
914.5617206850179
 30
0.0
  0
VERTEX
  5
2B2
  8
CUT_FIRST
 10
-523.032978061555
 20
914.3496302460046
 30
0.0
  0
VERTEX
  5
2B3
  8
CUT_FIRST
 10
-522.8684804226043
 20
914.140902031198
 30
0.0
  0
VERTEX
  5
2B4
  8
CUT_FIRST
 10
-522.698422283834
 20
913.9356072636683
 30
0.0
  0
VERTEX
  5
2B5
  8
CUT_FIRST
 10
-522.5228955764328
 20
913.7338171664857
 30
0.0
  0
VERTEX
  5
2B6
  8
CUT_FIRST
 10
-522.3419922315888
 20
913.5356029627202
 30
0.0
  0
VERTEX
  5
2B7
  8
CUT_FIRST
 10
-522.1558041804906
 20
913.3410358754421
 30
0.0
  0
VERTEX
  5
2B8
  8
CUT_FIRST
 10
-521.9644233543263
 20
913.1501871277214
 30
0.0
  0
VERTEX
  5
2B9
  8
CUT_FIRST
 10
-521.7679416842846
 20
912.9631279426285
 30
0.0
  0
VERTEX
  5
2BA
  8
CUT_FIRST
 10
-521.5664511015532
 20
912.7799295432335
 30
0.0
  0
VERTEX
  5
2BB
  8
CUT_FIRST
 10
-521.360043537321
 20
912.6006631526063
 30
0.0
  0
VERTEX
  5
2BC
  8
CUT_FIRST
 10
-521.1488109227762
 20
912.4253999938172
 30
0.0
  0
VERTEX
  5
2BD
  8
CUT_FIRST
 10
-520.932845189107
 20
912.2542112899364
 30
0.0
  0
VERTEX
  5
2BE
  8
CUT_FIRST
 10
-520.7122382675018
 20
912.0871682640341
 30
0.0
  0
VERTEX
  5
2BF
  8
CUT_FIRST
 10
-520.487082089149
 20
911.9243421391802
 30
0.0
  0
VERTEX
  5
2C0
  8
CUT_FIRST
 10
-520.2574685852369
 20
911.7658041384452
 30
0.0
  0
VERTEX
  5
2C1
  8
CUT_FIRST
 10
-520.0234896869539
 20
911.6116254848989
 30
0.0
  0
VERTEX
  5
2C2
  8
CUT_FIRST
 10
-519.7852373254882
 20
911.4618774016119
 30
0.0
  0
VERTEX
  5
2C3
  8
CUT_FIRST
 10
-519.5428034320284
 20
911.3166311116538
 30
0.0
  0
VERTEX
  5
2C4
  8
CUT_FIRST
 10
-519.2962799377626
 20
911.1759578380952
 30
0.0
  0
VERTEX
  5
2C5
  8
CUT_FIRST
 10
-519.0457587738791
 20
911.039928804006
 30
0.0
  0
VERTEX
  5
2C6
  8
CUT_FIRST
 10
-518.7913318715665
 20
910.9086152324564
 30
0.0
  0
VERTEX
  5
2C7
  8
CUT_FIRST
 10
-518.5330911620129
 20
910.7820883465167
 30
0.0
  0
VERTEX
  5
2C8
  8
CUT_FIRST
 10
-518.2711285764068
 20
910.6604193692569
 30
0.0
  0
VERTEX
  5
2C9
  8
CUT_FIRST
 10
-518.0055360459364
 20
910.5436795237472
 30
0.0
  0
VERTEX
  5
2CA
  8
CUT_FIRST
 10
-517.7364055017902
 20
910.4319400330578
 30
0.0
  0
VERTEX
  5
2CB
  8
CUT_FIRST
 10
-517.4638288751564
 20
910.3252721202588
 30
0.0
  0
VERTEX
  5
2CC
  8
CUT_FIRST
 10
-517.1878980972234
 20
910.2237470084202
 30
0.0
  0
VERTEX
  5
2CD
  8
CUT_FIRST
 10
-516.9087050991795
 20
910.1274359206125
 30
0.0
  0
VERTEX
  5
2CE
  8
CUT_FIRST
 10
-516.6263418122131
 20
910.0364100799054
 30
0.0
  0
VERTEX
  5
2CF
  8
CUT_FIRST
 10
-516.3409001675125
 20
909.9507407093695
 30
0.0
  0
VERTEX
  5
2D0
  8
CUT_FIRST
 10
-516.0524720962661
 20
909.8704990320748
 30
0.0
  0
VERTEX
  5
2D1
  8
CUT_FIRST
 10
-515.7611495296621
 20
909.7957562710912
 30
0.0
  0
VERTEX
  5
2D2
  8
CUT_FIRST
 10
-515.467024398889
 20
909.7265836494894
 30
0.0
  0
VERTEX
  5
2D3
  8
CUT_FIRST
 10
-515.170188635135
 20
909.663052390339
 30
0.0
  0
VERTEX
  5
2D4
  8
CUT_FIRST
 10
-514.8707341695886
 20
909.6052337167104
 30
0.0
  0
VERTEX
  5
2D5
  8
CUT_FIRST
 10
-514.568752933438
 20
909.5531988516736
 30
0.0
  0
VERTEX
  5
2D6
  8
CUT_FIRST
 10
-514.2643368578715
 20
909.5070190182992
 30
0.0
  0
VERTEX
  5
2D7
  8
CUT_FIRST
 10
-513.9575778740777
 20
909.4667654396567
 30
0.0
  0
VERTEX
  5
2D8
  8
CUT_FIRST
 10
-513.6485679132447
 20
909.4325093388168
 30
0.0
  0
VERTEX
  5
2D9
  8
CUT_FIRST
 10
-513.3373989065608
 20
909.4043219388492
 30
0.0
  0
VERTEX
  5
2DA
  8
CUT_FIRST
 10
-513.0241627852147
 20
909.3822744628244
 30
0.0
  0
VERTEX
  5
2DB
  8
CUT_FIRST
 10
-512.7089514803943
 20
909.3664381338125
 30
0.0
  0
VERTEX
  5
2DC
  8
CUT_FIRST
 10
-512.3918569232881
 20
909.3568841748836
 30
0.0
  0
VERTEX
  5
2DD
  8
CUT_FIRST
 10
-512.0729710450845
 20
909.3536838091077
 30
0.0
  0
VERTEX
  5
2DE
  8
CUT_FIRST
 10
-511.7540859905537
 20
909.3568843963891
 30
0.0
  0
VERTEX
  5
2DF
  8
CUT_FIRST
 10
-511.4369922463379
 20
909.3664385381921
 30
0.0
  0
VERTEX
  5
2E0
  8
CUT_FIRST
 10
-511.1217817429502
 20
909.3822750121872
 30
0.0
  0
VERTEX
  5
2E1
  8
CUT_FIRST
 10
-510.8085464109037
 20
909.4043225960445
 30
0.0
  0
VERTEX
  5
2E2
  8
CUT_FIRST
 10
-510.4973781807116
 20
909.4325100674344
 30
0.0
  0
VERTEX
  5
2E3
  8
CUT_FIRST
 10
-510.188368982887
 20
909.466766204027
 30
0.0
  0
VERTEX
  5
2E4
  8
CUT_FIRST
 10
-509.8816107479432
 20
909.5070197834923
 30
0.0
  0
VERTEX
  5
2E5
  8
CUT_FIRST
 10
-509.5771954063932
 20
909.5531995835012
 30
0.0
  0
VERTEX
  5
2E6
  8
CUT_FIRST
 10
-509.2752148887502
 20
909.6052343817234
 30
0.0
  0
VERTEX
  5
2E7
  8
CUT_FIRST
 10
-508.9757611255274
 20
909.6630529558292
 30
0.0
  0
VERTEX
  5
2E8
  8
CUT_FIRST
 10
-508.6789260472377
 20
909.7265840834892
 30
0.0
  0
VERTEX
  5
2E9
  8
CUT_FIRST
 10
-508.3848015843947
 20
909.7957565423733
 30
0.0
  0
VERTEX
  5
2EA
  8
CUT_FIRST
 10
-508.0934796675112
 20
909.870499110152
 30
0.0
  0
VERTEX
  5
2EB
  8
CUT_FIRST
 10
-507.8050522271004
 20
909.9507405644952
 30
0.0
  0
VERTEX
  5
2EC
  8
CUT_FIRST
 10
-507.5196111936755
 20
910.0364096830735
 30
0.0
  0
VERTEX
  5
2ED
  8
CUT_FIRST
 10
-507.2372484977498
 20
910.1274352435569
 30
0.0
  0
VERTEX
  5
2EE
  8
CUT_FIRST
 10
-506.9580560698361
 20
910.2237460236158
 30
0.0
  0
VERTEX
  5
2EF
  8
CUT_FIRST
 10
-506.6821258404478
 20
910.3252708009204
 30
0.0
  0
VERTEX
  5
2F0
  8
CUT_FIRST
 10
-506.4095497400982
 20
910.431938353141
 30
0.0
  0
VERTEX
  5
2F1
  8
CUT_FIRST
 10
-506.1404196993001
 20
910.5436774579478
 30
0.0
  0
VERTEX
  5
2F2
  8
CUT_FIRST
 10
-505.8748276485668
 20
910.660416893011
 30
0.0
  0
VERTEX
  5
2F3
  8
CUT_FIRST
 10
-505.6128655184115
 20
910.7820854360009
 30
0.0
  0
VERTEX
  5
2F4
  8
CUT_FIRST
 10
-505.3546252393473
 20
910.9086118645877
 30
0.0
  0
VERTEX
  5
2F5
  8
CUT_FIRST
 10
-505.1001987418874
 20
911.0399249564416
 30
0.0
  0
VERTEX
  5
2F6
  8
CUT_FIRST
 10
-504.8496779565449
 20
911.175953489233
 30
0.0
  0
VERTEX
  5
2F7
  8
CUT_FIRST
 10
-504.603154813833
 20
911.3166262406321
 30
0.0
  0
VERTEX
  5
2F8
  8
CUT_FIRST
 10
-504.3607212442648
 20
911.4618719883092
 30
0.0
  0
VERTEX
  5
2F9
  8
CUT_FIRST
 10
-504.1224691783534
 20
911.6116195099344
 30
0.0
  0
VERTEX
  5
2FA
  8
CUT_FIRST
 10
-503.888490546612
 20
911.765797583178
 30
0.0
  0
VERTEX
  5
2FB
  8
CUT_FIRST
 10
-503.6588772795539
 20
911.9243349857103
 30
0.0
  0
VERTEX
  5
2FC
  8
CUT_FIRST
 10
-503.4337213076921
 20
912.0871604952015
 30
0.0
  0
VERTEX
  5
2FD
  8
CUT_FIRST
 10
-503.2131145615397
 20
912.2542028893217
 30
0.0
  0
VERTEX
  5
2FE
  8
CUT_FIRST
 10
-502.9971489716099
 20
912.4253909457416
 30
0.0
  0
VERTEX
  5
2FF
  8
CUT_FIRST
 10
-502.7859164684158
 20
912.6006534421309
 30
0.0
  0
VERTEX
  5
300
  8
CUT_FIRST
 10
-502.5795089824708
 20
912.7799191561603
 30
0.0
  0
VERTEX
  5
301
  8
CUT_FIRST
 10
-502.3780184442878
 20
912.9631168654996
 30
0.0
  0
VERTEX
  5
302
  8
CUT_FIRST
 10
-502.1815367843801
 20
913.1501753478194
 30
0.0
  0
VERTEX
  5
303
  8
CUT_FIRST
 10
-501.9901559332607
 20
913.3410233807899
 30
0.0
  0
VERTEX
  5
304
  8
CUT_FIRST
 10
-501.8039678214429
 20
913.5355897420814
 30
0.0
  0
VERTEX
  5
305
  8
CUT_FIRST
 10
-501.6230643794397
 20
913.7338032093638
 30
0.0
  0
VERTEX
  5
306
  8
CUT_FIRST
 10
-501.4475375377644
 20
913.9355925603077
 30
0.0
  0
VERTEX
  5
307
  8
CUT_FIRST
 10
-501.27747922693
 20
914.1408865725832
 30
0.0
  0
VERTEX
  5
308
  8
CUT_FIRST
 10
-501.1129813774498
 20
914.3496140238606
 30
0.0
  0
VERTEX
  5
309
  8
CUT_FIRST
 10
-500.9541359198369
 20
914.5617036918101
 30
0.0
  0
VERTEX
  5
30A
  8
CUT_FIRST
 10
-500.8010347846043
 20
914.7770843541019
 30
0.0
  0
VERTEX
  5
30B
  8
CUT_FIRST
 10
-500.6537699022654
 20
914.9956847884064
 30
0.0
  0
VERTEX
  5
30C
  8
CUT_FIRST
 10
-500.5124332033333
 20
915.2174337723937
 30
0.0
  0
VERTEX
  5
30D
  8
CUT_FIRST
 10
-500.3771166183209
 20
915.4422600837343
 30
0.0
  0
VERTEX
  5
30E
  8
CUT_FIRST
 10
-500.2479120777417
 20
915.670092500098
 30
0.0
  0
VERTEX
  5
30F
  8
CUT_FIRST
 10
-500.1249115121086
 20
915.9008597991555
 30
0.0
  0
VERTEX
  5
310
  8
CUT_FIRST
 10
-500.0082068519349
 20
916.1344907585767
 30
0.0
  0
VERTEX
  5
311
  8
CUT_FIRST
 10
-499.8978900277336
 20
916.3709141560321
 30
0.0
  0
VERTEX
  5
312
  8
CUT_FIRST
 10
-499.794052970018
 20
916.6100587691918
 30
0.0
  0
VERTEX
  5
313
  8
CUT_FIRST
 10
-499.6967876093012
 20
916.8518533757261
 30
0.0
  0
VERTEX
  5
314
  8
CUT_FIRST
 10
-499.6061858760963
 20
917.0962267533052
 30
0.0
  0
VERTEX
  5
315
  8
CUT_FIRST
 10
-499.5223397009166
 20
917.3431076795994
 30
0.0
  0
VERTEX
  5
316
  8
CUT_FIRST
 10
-499.4453410142752
 20
917.5924249322791
 30
0.0
  0
VERTEX
  5
317
  8
CUT_FIRST
 10
-499.375281746685
 20
917.8441072890141
 30
0.0
  0
VERTEX
  5
318
  8
CUT_FIRST
 10
-499.3122538286594
 20
918.0980835274752
 30
0.0
  0
VERTEX
  5
319
  8
CUT_FIRST
 10
-499.2563491907117
 20
918.3542824253323
 30
0.0
  0
VERTEX
  5
31A
  8
CUT_FIRST
 10
-499.2076597633546
 20
918.6126327602556
 30
0.0
  0
VERTEX
  5
31B
  8
CUT_FIRST
 10
-499.1662774771016
 20
918.8730633099156
 30
0.0
  0
VERTEX
  5
31C
  8
CUT_FIRST
 10
-499.1322942624657
 20
919.1355028519822
 30
0.0
  0
VERTEX
  5
31D
  8
CUT_FIRST
 10
-499.1058020499601
 20
919.3998801641261
 30
0.0
  0
VERTEX
  5
31E
  8
CUT_FIRST
 10
-499.1058020499601
 20
921.8955306310922
 30
0.0
  0
VERTEX
  5
31F
  8
CUT_FIRST
 10
-509.5172945943636
 20
921.8955438215423
 30
0.0
  0
VERTEX
  5
320
  8
CUT_FIRST
 10
-509.5170578558373
 20
921.8949196037853
 30
0.0
  0
VERTEX
  5
321
  8
CUT_FIRST
 10
-504.115337315808
 20
920.4698528352878
 30
0.0
  0
VERTEX
  5
322
  8
CUT_FIRST
 10
-509.5041483149517
 20
919.0555252910248
 30
0.0
  0
VERTEX
  5
323
  8
CUT_FIRST
 10
-511.2172103864164
 20
914.5619272115825
 30
0.0
  0
VERTEX
  5
324
  8
CUT_FIRST
 10
-512.9173629169911
 20
919.0447860667892
 30
0.0
  0
VERTEX
  5
325
  8
CUT_FIRST
 10
-518.3190834570253
 20
920.4698528352878
 30
0.0
  0
VERTEX
  5
326
  8
CUT_FIRST
 10
-512.9302724578837
 20
921.8841803795459
 30
0.0
  0
SEQEND
  5
4D7
  8
CUT_FIRST
  0
POLYLINE
  5
85
  8
CUT_FIRST
 66
     1
 10
0.0
 20
0.0
 30
0.0
 70
     1
  0
VERTEX
  5
327
  8
CUT_FIRST
 10
-399.433189797685
 20
882.2505617595748
 30
0.0
  0
VERTEX
  5
328
  8
CUT_FIRST
 10
-404.8220007968273
 20
880.8362342153124
 30
0.0
  0
VERTEX
  5
329
  8
CUT_FIRST
 10
-399.4202802567934
 20
879.4111674468136
 30
0.0
  0
VERTEX
  5
32A
  8
CUT_FIRST
 10
-397.7201277262186
 20
874.9283085916071
 30
0.0
  0
VERTEX
  5
32B
  8
CUT_FIRST
 10
-396.0070656547538
 20
879.4219066710491
 30
0.0
  0
VERTEX
  5
32C
  8
CUT_FIRST
 10
-390.61825465561
 20
880.8362342153124
 30
0.0
  0
VERTEX
  5
32D
  8
CUT_FIRST
 10
-396.0199751956395
 20
882.2613009838099
 30
0.0
  0
VERTEX
  5
32E
  8
CUT_FIRST
 10
-397.7201277262187
 20
886.744159839018
 30
0.0
  0
SEQEND
  5
4D8
  8
CUT_FIRST
  0
POLYLINE
  5
86
  8
CUT_FIRST
 66
     1
 10
0.0
 20
0.0
 30
0.0
 70
     1
  0
VERTEX
  5
32F
  8
CUT_FIRST
 10
-385.9000764159574
 20
858.678289517697
 30
0.0
  0
VERTEX
  5
330
  8
CUT_FIRST
 10
-345.9000403652623
 20
858.678289517697
 30
0.0
  0
VERTEX
  5
331
  8
CUT_FIRST
 10
-345.9000403652623
 20
898.678325568392
 30
0.0
  0
VERTEX
  5
332
  8
CUT_FIRST
 10
-385.9000764159574
 20
898.678325568392
 30
0.0
  0
SEQEND
  5
4D9
  8
CUT_FIRST
  0
POLYLINE
  5
87
  8
CUT_FIRST
 66
     1
 10
0.0
 20
0.0
 30
0.0
 70
     1
  0
VERTEX
  5
333
  8
CUT_FIRST
 10
-353.7083042005853
 20
948.8063489710497
 30
0.0
  0
VERTEX
  5
334
  8
CUT_FIRST
 10
-353.7083042005853
 20
954.8063543786541
 30
0.0
  0
VERTEX
  5
335
  8
CUT_FIRST
 10
-359.7083096081896
 20
954.8063543786541
 30
0.0
  0
VERTEX
  5
336
  8
CUT_FIRST
 10
-359.7083096081896
 20
948.8063489710497
 30
0.0
  0
SEQEND
  5
4DA
  8
CUT_FIRST
  0
POLYLINE
  5
88
  8
CUT_FIRST
 66
     1
 10
0.0
 20
0.0
 30
0.0
  0
VERTEX
  5
337
  8
CUT_FIRST
 10
-392.9115909682556
 20
1040.768723995131
 30
0.0
  0
VERTEX
  5
338
  8
CUT_FIRST
 10
-392.9115927395817
 20
1061.768702771695
 30
0.0
  0
VERTEX
  5
339
  8
CUT_FIRST
 10
-386.9115891033023
 20
1061.768702771695
 30
0.0
  0
VERTEX
  5
33A
  8
CUT_FIRST
 10
-386.9115891033023
 20
1087.768726204648
 30
0.0
  0
VERTEX
  5
33B
  8
CUT_FIRST
 10
-392.9115927395817
 20
1087.768726204648
 30
0.0
  0
VERTEX
  5
33C
  8
CUT_FIRST
 10
-392.9115909682556
 20
1108.768704981212
 30
0.0
  0
VERTEX
  5
33D
  8
CUT_FIRST
 10
-392.9115945109078
 20
1108.768704981212
 30
0.0
  0
VERTEX
  5
33E
  8
CUT_FIRST
 10
-392.9115945109078
 20
1114.768703303514
 30
0.0
  0
VERTEX
  5
33F
  8
CUT_FIRST
 10
-347.9116549194434
 20
1114.768703303514
 30
0.0
  0
VERTEX
  5
340
  8
CUT_FIRST
 10
-347.9116549194431
 20
1108.768704981212
 30
0.0
  0
VERTEX
  5
341
  8
CUT_FIRST
 10
-311.9115693340452
 20
1108.768704981212
 30
0.0
  0
VERTEX
  5
342
  8
CUT_FIRST
 10
-311.9115693340453
 20
1114.768703303514
 30
0.0
  0
VERTEX
  5
343
  8
CUT_FIRST
 10
-266.9116297425806
 20
1114.768703303514
 30
0.0
  0
VERTEX
  5
344
  8
CUT_FIRST
 10
-266.9116297425806
 20
1108.768704981212
 30
0.0
  0
VERTEX
  5
345
  8
CUT_FIRST
 10
-266.9116332852328
 20
1108.768704981212
 30
0.0
  0
VERTEX
  5
346
  8
CUT_FIRST
 10
-266.9116315139066
 20
1087.768726204647
 30
0.0
  0
VERTEX
  5
347
  8
CUT_FIRST
 10
-272.911635150186
 20
1087.768726204648
 30
0.0
  0
VERTEX
  5
348
  8
CUT_FIRST
 10
-272.911635150186
 20
1061.768702771695
 30
0.0
  0
VERTEX
  5
349
  8
CUT_FIRST
 10
-266.9116315139066
 20
1061.768702771696
 30
0.0
  0
VERTEX
  5
34A
  8
CUT_FIRST
 10
-266.911633285233
 20
1040.768723995131
 30
0.0
  0
VERTEX
  5
34B
  8
CUT_FIRST
 10
-266.9116297425806
 20
1040.768723995131
 30
0.0
  0
VERTEX
  5
34C
  8
CUT_FIRST
 10
-266.9116297425806
 20
1034.76872567283
 30
0.0
  0
VERTEX
  5
34D
  8
CUT_FIRST
 10
-311.9115693340453
 20
1034.76872567283
 30
0.0
  0
VERTEX
  5
34E
  8
CUT_FIRST
 10
-311.9115693340452
 20
1040.768723995131
 30
0.0
  0
VERTEX
  5
34F
  8
CUT_FIRST
 10
-347.9116549194432
 20
1040.768723995131
 30
0.0
  0
VERTEX
  5
350
  8
CUT_FIRST
 10
-347.9116549194428
 20
1034.76872567283
 30
0.0
  0
VERTEX
  5
351
  8
CUT_FIRST
 10
-392.9115945109078
 20
1034.76872567283
 30
0.0
  0
VERTEX
  5
352
  8
CUT_FIRST
 10
-392.9115945109078
 20
1040.768723995131
 30
0.0
  0
SEQEND
  5
4DB
  8
CUT_FIRST
  0
POLYLINE
  5
8A
  8
ENGRAVE
 66
     1
 10
0.0
 20
0.0
 30
0.0
 70
     1
  0
VERTEX
  5
353
  8
ENGRAVE
 10
-403.4732410021197
 20
683.4630560539675
 30
0.0
 42
0.4142135623730951
  0
VERTEX
  5
354
  8
ENGRAVE
 10
-407.4732446071892
 20
679.463052448898
 30
0.0
 42
0.4142135623730951
  0
VERTEX
  5
355
  8
ENGRAVE
 10
-403.4732410021197
 20
675.4630488438283
 30
0.0
 42
0.4142135623730951
  0
VERTEX
  5
356
  8
ENGRAVE
 10
-399.4732373970502
 20
679.463052448898
 30
0.0
 42
0.4142135623730951
  0
SEQEND
  5
4DC
  8
ENGRAVE
  0
POLYLINE
  5
8B
  8
ENGRAVE
 66
     1
 10
0.0
 20
0.0
 30
0.0
 70
     1
  0
VERTEX
  5
357
  8
ENGRAVE
 10
-399.9333163008091
 20
721.8005063629566
 30
0.0
  0
VERTEX
  5
358
  8
ENGRAVE
 10
-384.9333027817984
 20
721.8005063629566
 30
0.0
  0
VERTEX
  5
359
  8
ENGRAVE
 10
-384.9333027817984
 20
736.8005198819674
 30
0.0
  0
VERTEX
  5
35A
  8
ENGRAVE
 10
-399.9333163008091
 20
736.8005198819674
 30
0.0
  0
SEQEND
  5
4DD
  8
ENGRAVE
  0
POLYLINE
  5
8C
  8
ENGRAVE
 66
     1
 10
0.0
 20
0.0
 30
0.0
 70
     1
  0
VERTEX
  5
35B
  8
ENGRAVE
 10
-425.5767654355328
 20
721.4364068377049
 30
0.0
  0
VERTEX
  5
35C
  8
ENGRAVE
 10
-410.5767519165221
 20
721.4364068377049
 30
0.0
  0
VERTEX
  5
35D
  8
ENGRAVE
 10
-410.5767519165221
 20
736.4364203567155
 30
0.0
  0
VERTEX
  5
35E
  8
ENGRAVE
 10
-425.5767654355328
 20
736.4364203567155
 30
0.0
  0
SEQEND
  5
4DE
  8
ENGRAVE
  0
POLYLINE
  5
8D
  8
ENGRAVE
 66
     1
 10
0.0
 20
0.0
 30
0.0
 70
     1
  0
VERTEX
  5
35F
  8
ENGRAVE
 10
-393.1627914520773
 20
849.4508386898312
 30
0.0
  0
VERTEX
  5
360
  8
ENGRAVE
 10
-396.3364073454026
 20
842.1072511793624
 30
0.0
  0
VERTEX
  5
361
  8
ENGRAVE
 10
-401.1093327377196
 20
848.5274769200707
 30
0.0
  0
SEQEND
  5
4DF
  8
ENGRAVE
  0
POLYLINE
  5
8E
  8
ENGRAVE
 66
     1
 10
0.0
 20
0.0
 30
0.0
 70
     1
  0
VERTEX
  5
362
  8
ENGRAVE
 10
-381.9000728108879
 20
894.6783219633224
 30
0.0
  0
VERTEX
  5
363
  8
ENGRAVE
 10
-381.9000728108879
 20
862.6782931227665
 30
0.0
  0
VERTEX
  5
364
  8
ENGRAVE
 10
-349.9000439703318
 20
862.6782931227665
 30
0.0
  0
VERTEX
  5
365
  8
ENGRAVE
 10
-349.9000439703318
 20
894.6783219633224
 30
0.0
  0
SEQEND
  5
4E0
  8
ENGRAVE
  0
POLYLINE
  5
8F
  8
ENGRAVE
 66
     1
 10
0.0
 20
0.0
 30
0.0
 70
     1
  0
VERTEX
  5
366
  8
ENGRAVE
 10
-388.6227355946842
 20
801.0293347877271
 30
0.0
  0
VERTEX
  5
367
  8
ENGRAVE
 10
-388.6227355946842
 20
769.0293059471709
 30
0.0
  0
VERTEX
  5
368
  8
ENGRAVE
 10
-356.622706754128
 20
769.0293059471709
 30
0.0
  0
VERTEX
  5
369
  8
ENGRAVE
 10
-356.622706754128
 20
801.0293347877271
 30
0.0
  0
SEQEND
  5
4E1
  8
ENGRAVE
  0
POLYLINE
  5
90
  8
ENGRAVE
 66
     1
 10
0.0
 20
0.0
 30
0.0
  0
VERTEX
  5
36A
  8
ENGRAVE
 10
-416.7468046075022
 20
921.6935857240712
 30
0.0
  0
VERTEX
  5
36B
  8
ENGRAVE
 10
-431.3369160758684
 20
921.6946161008791
 30
0.0
  0
VERTEX
  5
36C
  8
ENGRAVE
 10
-431.2561605185433
 20
921.0551496219981
 30
0.0
  0
VERTEX
  5
36D
  8
ENGRAVE
 10
-431.2205870761632
 20
920.1677226553517
 30
0.0
  0
VERTEX
  5
36E
  8
ENGRAVE
 10
-431.2418050077977
 20
919.4696641268064
 30
0.0
  0
VERTEX
  5
36F
  8
ENGRAVE
 10
-431.3046956992847
 20
918.7816452440118
 30
0.0
  0
VERTEX
  5
370
  8
ENGRAVE
 10
-431.4082627451147
 20
918.1036305243294
 30
0.0
  0
VERTEX
  5
371
  8
ENGRAVE
 10
-431.5514696250063
 20
917.4365325124488
 30
0.0
  0
VERTEX
  5
372
  8
ENGRAVE
 10
-431.7332709606355
 20
916.7812540622899
 30
0.0
  0
VERTEX
  5
373
  8
ENGRAVE
 10
-431.9526149678151
 20
916.1386871750144
 30
0.0
  0
VERTEX
  5
374
  8
ENGRAVE
 10
-432.2084459117224
 20
915.5097126203616
 30
0.0
  0
VERTEX
  5
375
  8
ENGRAVE
 10
-432.4997064126729
 20
914.8952001359764
 30
0.0
  0
VERTEX
  5
376
  8
ENGRAVE
 10
-432.8253394345348
 20
914.2960091846767
 30
0.0
  0
VERTEX
  5
377
  8
ENGRAVE
 10
-433.1842899018131
 20
913.712990049822
 30
0.0
  0
VERTEX
  5
378
  8
ENGRAVE
 10
-433.5755059045704
 20
913.1469851599518
 30
0.0
  0
VERTEX
  5
379
  8
ENGRAVE
 10
-433.9979395088365
 20
912.5988305007542
 30
0.0
  0
VERTEX
  5
37A
  8
ENGRAVE
 10
-434.4505472255439
 20
912.0693570028495
 30
0.0
  0
VERTEX
  5
37B
  8
ENGRAVE
 10
-434.9322901644304
 20
911.5593918663919
 30
0.0
  0
VERTEX
  5
37C
  8
ENGRAVE
 10
-435.442133986962
 20
911.0697597158456
 30
0.0
  0
VERTEX
  5
37D
  8
ENGRAVE
 10
-435.9790486466053
 20
910.601283639241
 30
0.0
  0
VERTEX
  5
37E
  8
ENGRAVE
 10
-436.5420080390934
 20
910.1547860281304
 30
0.0
  0
VERTEX
  5
37F
  8
ENGRAVE
 10
-437.1299895658861
 20
909.7310892684901
 30
0.0
  0
VERTEX
  5
380
  8
ENGRAVE
 10
-437.7419736553719
 20
909.3310162813245
 30
0.0
  0
VERTEX
  5
381
  8
ENGRAVE
 10
-438.3769432690333
 20
908.9553909293378
 30
0.0
  0
VERTEX
  5
382
  8
ENGRAVE
 10
-439.0338833931481
 20
908.6050383142024
 30
0.0
  0
VERTEX
  5
383
  8
ENGRAVE
 10
-439.7117805885019
 20
908.2807849492924
 30
0.0
  0
VERTEX
  5
384
  8
ENGRAVE
 10
-440.4096225149694
 20
907.9834588732479
 30
0.0
  0
VERTEX
  5
385
  8
ENGRAVE
 10
-441.1263975085404
 20
907.7138896760616
 30
0.0
  0
VERTEX
  5
386
  8
ENGRAVE
 10
-441.861094196258
 20
907.4729084608225
 30
0.0
  0
VERTEX
  5
387
  8
ENGRAVE
 10
-442.6127011214732
 20
907.2613477602692
 30
0.0
  0
VERTEX
  5
388
  8
ENGRAVE
 10
-443.3802064267848
 20
907.0800413979988
 30
0.0
  0
VERTEX
  5
389
  8
ENGRAVE
 10
-444.162597556793
 20
906.9298243135983
 30
0.0
  0
VERTEX
  5
38A
  8
ENGRAVE
 10
-444.9588610156584
 20
906.811532347883
 30
0.0
  0
VERTEX
  5
38B
  8
ENGRAVE
 10
-445.7679821561566
 20
906.726001999561
 30
0.0
  0
VERTEX
  5
38C
  8
ENGRAVE
 10
-446.5889450095077
 20
906.6740701552976
 30
0.0
  0
VERTEX
  5
38D
  8
ENGRAVE
 10
-447.420723480114
 20
906.6565739804544
 30
0.0
  0
VERTEX
  5
38E
  8
ENGRAVE
 10
-448.252501953216
 20
906.6740701553454
 30
0.0
  0
VERTEX
  5
38F
  8
ENGRAVE
 10
-449.0734648068727
 20
906.7260019996197
 30
0.0
  0
VERTEX
  5
390
  8
ENGRAVE
 10
-449.8825859455882
 20
906.8115323477789
 30
0.0
  0
VERTEX
  5
391
  8
ENGRAVE
 10
-450.6788494030203
 20
906.9298243132936
 30
0.0
  0
VERTEX
  5
392
  8
ENGRAVE
 10
-451.4612405355679
 20
907.0800413981398
 30
0.0
  0
VERTEX
  5
393
  8
ENGRAVE
 10
-452.2287458381873
 20
907.2613477596817
 30
0.0
  0
VERTEX
  5
394
  8
ENGRAVE
 10
-452.9803527641811
 20
907.4729084603896
 30
0.0
  0
VERTEX
  5
395
  8
ENGRAVE
 10
-453.7150494528009
 20
907.7138896758051
 30
0.0
  0
VERTEX
  5
396
  8
ENGRAVE
 10
-454.4318244485473
 20
907.9834588738718
 30
0.0
  0
VERTEX
  5
397
  8
ENGRAVE
 10
-455.1296663728866
 20
908.2807849490632
 30
0.0
  0
VERTEX
  5
398
  8
ENGRAVE
 10
-455.8075635704378
 20
908.6050383150518
 30
0.0
  0
VERTEX
  5
399
  8
ENGRAVE
 10
-456.4645036944835
 20
908.9553909301691
 30
0.0
  0
VERTEX
  5
39A
  8
ENGRAVE
 10
-457.0994733054491
 20
909.3310162806551
 30
0.0
  0
VERTEX
  5
39B
  8
ENGRAVE
 10
-457.7114573956952
 20
909.73108926827
 30
0.0
  0
VERTEX
  5
39C
  8
ENGRAVE
 10
-458.2994389233174
 20
910.1547860285324
 30
0.0
  0
VERTEX
  5
39D
  8
ENGRAVE
 10
-458.8623983152816
 20
910.6012836392247
 30
0.0
  0
VERTEX
  5
39E
  8
ENGRAVE
 10
-459.3993129752232
 20
911.0697597160657
 30
0.0
  0
VERTEX
  5
39F
  8
ENGRAVE
 10
-459.9091567976566
 20
911.5593918666048
 30
0.0
  0
VERTEX
  5
3A0
  8
ENGRAVE
 10
-460.3908997384058
 20
912.069357005107
 30
0.0
  0
VERTEX
  5
3A1
  8
ENGRAVE
 10
-460.8435074510824
 20
912.5988304982767
 30
0.0
  0
VERTEX
  5
3A2
  8
ENGRAVE
 10
-461.265941058086
 20
913.1469851609195
 30
0.0
  0
VERTEX
  5
3A3
  8
ENGRAVE
 10
-461.6571570583504
 20
913.7129900471937
 30
0.0
  0
VERTEX
  5
3A4
  8
ENGRAVE
 10
-462.0161075265227
 20
914.2960091831251
 30
0.0
  0
VERTEX
  5
3A5
  8
ENGRAVE
 10
-462.3417405494478
 20
914.8952001363821
 30
0.0
  0
VERTEX
  5
3A6
  8
ENGRAVE
 10
-462.6330010499696
 20
915.5097126199141
 30
0.0
  0
VERTEX
  5
3A7
  8
ENGRAVE
 10
-462.8888319946421
 20
916.1386871764041
 30
0.0
  0
VERTEX
  5
3A8
  8
ENGRAVE
 10
-463.1081760012112
 20
916.7812540622049
 30
0.0
  0
VERTEX
  5
3A9
  8
ENGRAVE
 10
-463.2899773372857
 20
917.4365325142296
 30
0.0
  0
VERTEX
  5
3AA
  8
ENGRAVE
 10
-463.4331842167336
 20
918.1036305243931
 30
0.0
  0
VERTEX
  5
3AB
  8
ENGRAVE
 10
-463.53675126261
 20
918.7816452447198
 30
0.0
  0
VERTEX
  5
3AC
  8
ENGRAVE
 10
-463.599641954195
 20
919.4696641281174
 30
0.0
  0
VERTEX
  5
3AD
  8
ENGRAVE
 10
-463.6208607993231
 20
920.1677527106714
 30
0.0
  0
VERTEX
  5
3AE
  8
ENGRAVE
 10
-463.5852437048666
 20
921.0496508071931
 30
0.0
  0
VERTEX
  5
3AF
  8
ENGRAVE
 10
-463.5037015886558
 20
921.6944124181242
 30
0.0
  0
VERTEX
  5
3B0
  8
ENGRAVE
 10
-495.9818010867284
 20
921.6941139019652
 30
0.0
  0
VERTEX
  5
3B1
  8
ENGRAVE
 10
-495.9071286285368
 20
921.0533849127798
 30
0.0
  0
VERTEX
  5
3B2
  8
ENGRAVE
 10
-495.8728388178257
 20
920.1675852167497
 30
0.0
  0
VERTEX
  5
3B3
  8
ENGRAVE
 10
-495.8940525719087
 20
919.4696641266984
 30
0.0
  0
VERTEX
  5
3B4
  8
ENGRAVE
 10
-495.9569432633997
 20
918.7816452446975
 30
0.0
  0
VERTEX
  5
3B5
  8
ENGRAVE
 10
-496.0605103093773
 20
918.103630523846
 30
0.0
  0
VERTEX
  5
3B6
  8
ENGRAVE
 10
-496.2037171889405
 20
917.4365325134183
 30
0.0
  0
VERTEX
  5
3B7
  8
ENGRAVE
 10
-496.3855185249921
 20
916.7812540616219
 30
0.0
  0
VERTEX
  5
3B8
  8
ENGRAVE
 10
-496.6048625314422
 20
916.1386871763286
 30
0.0
  0
VERTEX
  5
3B9
  8
ENGRAVE
 10
-496.8606934761395
 20
915.5097126196795
 30
0.0
  0
VERTEX
  5
3BA
  8
ENGRAVE
 10
-497.1519539770318
 20
914.8952001355744
 30
0.0
  0
VERTEX
  5
3BB
  8
ENGRAVE
 10
-497.4775869992357
 20
914.2960091836708
 30
0.0
  0
VERTEX
  5
3BC
  8
ENGRAVE
 10
-497.836537466795
 20
913.7129900486087
 30
0.0
  0
VERTEX
  5
3BD
  8
ENGRAVE
 10
-498.2277534685509
 20
913.1469851600646
 30
0.0
  0
VERTEX
  5
3BE
  8
ENGRAVE
 10
-498.6501870737029
 20
912.598830499781
 30
0.0
  0
VERTEX
  5
3BF
  8
ENGRAVE
 10
-499.1027947890788
 20
912.069357003508
 30
0.0
  0
VERTEX
  5
3C0
  8
ENGRAVE
 10
-499.5845377299771
 20
911.5593918649658
 30
0.0
  0
VERTEX
  5
3C1
  8
ENGRAVE
 10
-500.0943815515483
 20
911.0697597154382
 30
0.0
  0
VERTEX
  5
3C2
  8
ENGRAVE
 10
-500.6312962093872
 20
910.6012836403579
 30
0.0
  0
VERTEX
  5
3C3
  8
ENGRAVE
 10
-501.1942556020608
 20
910.154786029049
 30
0.0
  0
VERTEX
  5
3C4
  8
ENGRAVE
 10
-501.7822371308035
 20
909.7310892679408
 30
0.0
  0
VERTEX
  5
3C5
  8
ENGRAVE
 10
-502.3942212209768
 20
909.3310162804023
 30
0.0
  0
VERTEX
  5
3C6
  8
ENGRAVE
 10
-503.0291908324081
 20
908.9553909297343
 30
0.0
  0
VERTEX
  5
3C7
  8
ENGRAVE
 10
-503.6861309572505
 20
908.6050383142315
 30
0.0
  0
VERTEX
  5
3C8
  8
ENGRAVE
 10
-504.3640281524406
 20
908.2807849493598
 30
0.0
  0
VERTEX
  5
3C9
  8
ENGRAVE
 10
-505.0618700792464
 20
907.9834588731878
 30
0.0
  0
VERTEX
  5
3CA
  8
ENGRAVE
 10
-505.7786450741489
 20
907.7138896755287
 30
0.0
  0
VERTEX
  5
3CB
  8
ENGRAVE
 10
-506.5133417621502
 20
907.4729084602695
 30
0.0
  0
VERTEX
  5
3CC
  8
ENGRAVE
 10
-507.264948686718
 20
907.2613477599964
 30
0.0
  0
VERTEX
  5
3CD
  8
ENGRAVE
 10
-508.0324539917602
 20
907.0800413978388
 30
0.0
  0
VERTEX
  5
3CE
  8
ENGRAVE
 10
-508.8148451212155
 20
906.9298243135773
 30
0.0
  0
VERTEX
  5
3CF
  8
ENGRAVE
 10
-509.6111085801538
 20
906.8115323478457
 30
0.0
  0
VERTEX
  5
3D0
  8
ENGRAVE
 10
-510.4202297195387
 20
906.7260019995947
 30
0.0
  0
VERTEX
  5
3D1
  8
ENGRAVE
 10
-511.2411925738647
 20
906.6740701552758
 30
0.0
  0
VERTEX
  5
3D2
  8
ENGRAVE
 10
-512.0729710440054
 20
906.6565739804599
 30
0.0
  0
VERTEX
  5
3D3
  8
ENGRAVE
 10
-512.9047495161033
 20
906.6740701552783
 30
0.0
  0
VERTEX
  5
3D4
  8
ENGRAVE
 10
-513.7257123712661
 20
906.7260019996548
 30
0.0
  0
VERTEX
  5
3D5
  8
ENGRAVE
 10
-514.534833509203
 20
906.811532347737
 30
0.0
  0
VERTEX
  5
3D6
  8
ENGRAVE
 10
-515.3310969682433
 20
906.9298243134537
 30
0.0
  0
VERTEX
  5
3D7
  8
ENGRAVE
 10
-516.1134880980478
 20
907.0800413977532
 30
0.0
  0
VERTEX
  5
3D8
  8
ENGRAVE
 10
-516.8809934026752
 20
907.2613477597927
 30
0.0
  0
VERTEX
  5
3D9
  8
ENGRAVE
 10
-517.6326003279488
 20
907.4729084602386
 30
0.0
  0
VERTEX
  5
3DA
  8
ENGRAVE
 10
-518.3672970157463
 20
907.7138896754486
 30
0.0
  0
VERTEX
  5
3DB
  8
ENGRAVE
 10
-519.0840720112237
 20
907.983458873297
 30
0.0
  0
VERTEX
  5
3DC
  8
ENGRAVE
 10
-519.7819139372436
 20
908.2807849491523
 30
0.0
  0
VERTEX
  5
3DD
  8
ENGRAVE
 10
-520.459811132492
 20
908.605038314015
 30
0.0
  0
VERTEX
  5
3DE
  8
ENGRAVE
 10
-521.1167512593171
 20
908.9553909305911
 30
0.0
  0
VERTEX
  5
3DF
  8
ENGRAVE
 10
-521.7517208687584
 20
909.3310162801495
 30
0.0
  0
VERTEX
  5
3E0
  8
ENGRAVE
 10
-522.3637049600122
 20
909.7310892683682
 30
0.0
  0
VERTEX
  5
3E1
  8
ENGRAVE
 10
-522.9516864882856
 20
910.1547860291945
 30
0.0
  0
VERTEX
  5
3E2
  8
ENGRAVE
 10
-523.51464588041
 20
910.6012836400541
 30
0.0
  0
VERTEX
  5
3E3
  8
ENGRAVE
 10
-524.0515605391365
 20
911.0697597159202
 30
0.0
  0
VERTEX
  5
3E4
  8
ENGRAVE
 10
-524.561404361006
 20
911.5593918657826
 30
0.0
  0
VERTEX
  5
3E5
  8
ENGRAVE
 10
-525.0431473013696
 20
912.0693570038045
 30
0.0
  0
VERTEX
  5
3E6
  8
ENGRAVE
 10
-525.4957550169728
 20
912.5988305004413
 30
0.0
  0
VERTEX
  5
3E7
  8
ENGRAVE
 10
-525.9181886207532
 20
913.1469851588986
 30
0.0
  0
VERTEX
  5
3E8
  8
ENGRAVE
 10
-526.3094046233059
 20
913.7129900484488
 30
0.0
  0
VERTEX
  5
3E9
  8
ENGRAVE
 10
-526.6683550910489
 20
914.2960091838709
 30
0.0
  0
VERTEX
  5
3EA
  8
ENGRAVE
 10
-526.9939881131155
 20
914.8952001354871
 30
0.0
  0
VERTEX
  5
3EB
  8
ENGRAVE
 10
-527.2852486142474
 20
915.5097126202415
 30
0.0
  0
VERTEX
  5
3EC
  8
ENGRAVE
 10
-527.5410795583934
 20
916.1386871754364
 30
0.0
  0
VERTEX
  5
3ED
  8
ENGRAVE
 10
-527.7604235649356
 20
916.7812540608024
 30
0.0
  0
VERTEX
  5
3EE
  8
ENGRAVE
 10
-527.9422249013755
 20
917.4365325140377
 30
0.0
  0
VERTEX
  5
3EF
  8
ENGRAVE
 10
-528.085431780881
 20
918.1036305242058
 30
0.0
  0
VERTEX
  5
3F0
  8
ENGRAVE
 10
-528.18899882657
 20
918.7816452431755
 30
0.0
  0
VERTEX
  5
3F1
  8
ENGRAVE
 10
-528.2518895182278
 20
919.4696641263494
 30
0.0
  0
VERTEX
  5
3F2
  8
ENGRAVE
 10
-528.2731047564525
 20
920.1676340440494
 30
0.0
  0
VERTEX
  5
3F3
  8
ENGRAVE
 10
-528.2385096148205
 20
921.0501807622181
 30
0.0
  0
VERTEX
  5
3F4
  8
ENGRAVE
 10
-528.162662366871
 20
921.6941434357377
 30
0.0
  0
VERTEX
  5
3F5
  8
ENGRAVE
 10
-542.7468963947056
 20
921.6935857237186
 30
0.0
  0
SEQEND
  5
4E2
  8
ENGRAVE
  0
POLYLINE
  5
91
  8
ENGRAVE
 66
     1
 10
0.0
 20
0.0
 30
0.0
  0
VERTEX
  5
3F6
  8
ENGRAVE
 10
-445.920646956819
 20
946.5950518605976
 30
0.0
  0
VERTEX
  5
3F7
  8
ENGRAVE
 10
-445.920542614249
 20
933.5419111356435
 30
0.0
  0
VERTEX
  5
3F8
  8
ENGRAVE
 10
-445.6213589532098
 20
933.516487601244
 30
0.0
  0
VERTEX
  5
3F9
  8
ENGRAVE
 10
-445.3238292273581
 20
933.4865115011874
 30
0.0
  0
VERTEX
  5
3FA
  8
ENGRAVE
 10
-445.0280050017896
 20
933.4520255147954
 30
0.0
  0
VERTEX
  5
3FB
  8
ENGRAVE
 10
-444.7339378415996
 20
933.4130723213897
 30
0.0
  0
VERTEX
  5
3FC
  8
ENGRAVE
 10
-444.4416793118838
 20
933.3696946002917
 30
0.0
  0
VERTEX
  5
3FD
  8
ENGRAVE
 10
-444.1512809777377
 20
933.3219350308232
 30
0.0
  0
VERTEX
  5
3FE
  8
ENGRAVE
 10
-443.8627944042568
 20
933.2698362923055
 30
0.0
  0
VERTEX
  5
3FF
  8
ENGRAVE
 10
-443.5762711565366
 20
933.2134410640606
 30
0.0
  0
VERTEX
  5
400
  8
ENGRAVE
 10
-443.2917627996728
 20
933.1527920254099
 30
0.0
  0
VERTEX
  5
401
  8
ENGRAVE
 10
-443.0093208987608
 20
933.0879318556749
 30
0.0
  0
VERTEX
  5
402
  8
ENGRAVE
 10
-442.7289970188962
 20
933.0189032341773
 30
0.0
  0
VERTEX
  5
403
  8
ENGRAVE
 10
-442.4508427251745
 20
932.9457488402388
 30
0.0
  0
VERTEX
  5
404
  8
ENGRAVE
 10
-442.1749095826912
 20
932.8685113531808
 30
0.0
  0
VERTEX
  5
405
  8
ENGRAVE
 10
-441.901249156542
 20
932.7872334523252
 30
0.0
  0
VERTEX
  5
406
  8
ENGRAVE
 10
-441.6299130118223
 20
932.7019578169932
 30
0.0
  0
VERTEX
  5
407
  8
ENGRAVE
 10
-441.3609527136276
 20
932.6127271265067
 30
0.0
  0
VERTEX
  5
408
  8
ENGRAVE
 10
-441.0944198270536
 20
932.5195840601871
 30
0.0
  0
VERTEX
  5
409
  8
ENGRAVE
 10
-440.8303659171957
 20
932.4225712973562
 30
0.0
  0
VERTEX
  5
40A
  8
ENGRAVE
 10
-440.5688425491495
 20
932.3217315173355
 30
0.0
  0
VERTEX
  5
40B
  8
ENGRAVE
 10
-440.3099012880105
 20
932.2171073994466
 30
0.0
  0
VERTEX
  5
40C
  8
ENGRAVE
 10
-440.0535936988742
 20
932.108741623011
 30
0.0
  0
VERTEX
  5
40D
  8
ENGRAVE
 10
-439.7999713468363
 20
931.9966768673505
 30
0.0
  0
VERTEX
  5
40E
  8
ENGRAVE
 10
-439.5490857969921
 20
931.8809558117866
 30
0.0
  0
VERTEX
  5
40F
  8
ENGRAVE
 10
-439.3009886144374
 20
931.7616211356408
 30
0.0
  0
VERTEX
  5
410
  8
ENGRAVE
 10
-439.0557313642676
 20
931.6387155182349
 30
0.0
  0
VERTEX
  5
411
  8
ENGRAVE
 10
-438.8133656115783
 20
931.5122816388904
 30
0.0
  0
VERTEX
  5
412
  8
ENGRAVE
 10
-438.5739429214648
 20
931.3823621769288
 30
0.0
  0
VERTEX
  5
413
  8
ENGRAVE
 10
-438.337514859023
 20
931.2489998116719
 30
0.0
  0
VERTEX
  5
414
  8
ENGRAVE
 10
-438.1041329893482
 20
931.1122372224411
 30
0.0
  0
VERTEX
  5
415
  8
ENGRAVE
 10
-437.8738488775359
 20
930.9721170885582
 30
0.0
  0
VERTEX
  5
416
  8
ENGRAVE
 10
-437.6467140886818
 20
930.8286820893445
 30
0.0
  0
VERTEX
  5
417
  8
ENGRAVE
 10
-437.4227801878815
 20
930.681974904122
 30
0.0
  0
VERTEX
  5
418
  8
ENGRAVE
 10
-437.2020987402303
 20
930.532038212212
 30
0.0
  0
VERTEX
  5
419
  8
ENGRAVE
 10
-436.9847213108238
 20
930.3789146929362
 30
0.0
  0
VERTEX
  5
41A
  8
ENGRAVE
 10
-436.7706994647577
 20
930.2226470256162
 30
0.0
  0
VERTEX
  5
41B
  8
ENGRAVE
 10
-436.5600847671274
 20
930.0632778895738
 30
0.0
  0
VERTEX
  5
41C
  8
ENGRAVE
 10
-436.3529287830285
 20
929.9008499641301
 30
0.0
  0
VERTEX
  5
41D
  8
ENGRAVE
 10
-436.1492830775563
 20
929.7354059286071
 30
0.0
  0
VERTEX
  5
41E
  8
ENGRAVE
 10
-435.9491992158067
 20
929.5669884623262
 30
0.0
  0
VERTEX
  5
41F
  8
ENGRAVE
 10
-435.7527287628751
 20
929.3956402446092
 30
0.0
  0
VERTEX
  5
420
  8
ENGRAVE
 10
-435.559923283857
 20
929.2214039547775
 30
0.0
  0
VERTEX
  5
421
  8
ENGRAVE
 10
-435.3708343438479
 20
929.0443222721531
 30
0.0
  0
VERTEX
  5
422
  8
ENGRAVE
 10
-435.1855135079435
 20
928.864437876057
 30
0.0
  0
VERTEX
  5
423
  8
ENGRAVE
 10
-435.0040123412391
 20
928.6817934458111
 30
0.0
  0
VERTEX
  5
424
  8
ENGRAVE
 10
-434.8263824088304
 20
928.496431660737
 30
0.0
  0
VERTEX
  5
425
  8
ENGRAVE
 10
-434.6526752758128
 20
928.3083952001563
 30
0.0
  0
VERTEX
  5
426
  8
ENGRAVE
 10
-434.4829425072821
 20
928.1177267433907
 30
0.0
  0
VERTEX
  5
427
  8
ENGRAVE
 10
-434.3172356683337
 20
927.9244689697615
 30
0.0
  0
VERTEX
  5
428
  8
ENGRAVE
 10
-434.155606324063
 20
927.7286645585907
 30
0.0
  0
VERTEX
  5
429
  8
ENGRAVE
 10
-433.9981060395658
 20
927.5303561891994
 30
0.0
  0
VERTEX
  5
42A
  8
ENGRAVE
 10
-433.8447863799374
 20
927.3295865409098
 30
0.0
  0
VERTEX
  5
42B
  8
ENGRAVE
 10
-433.6956989102734
 20
927.1263982930429
 30
0.0
  0
VERTEX
  5
42C
  8
ENGRAVE
 10
-433.5508951956694
 20
926.9208341249209
 30
0.0
  0
VERTEX
  5
42D
  8
ENGRAVE
 10
-433.4104268012209
 20
926.7129367158649
 30
0.0
  0
VERTEX
  5
42E
  8
ENGRAVE
 10
-433.2743452920235
 20
926.5027487451966
 30
0.0
  0
VERTEX
  5
42F
  8
ENGRAVE
 10
-433.1427022331726
 20
926.2903128922378
 30
0.0
  0
VERTEX
  5
430
  8
ENGRAVE
 10
-433.0155491897638
 20
926.07567183631
 30
0.0
  0
VERTEX
  5
431
  8
ENGRAVE
 10
-432.8929377268927
 20
925.8588682567348
 30
0.0
  0
VERTEX
  5
432
  8
ENGRAVE
 10
-432.7749194096549
 20
925.6399448328337
 30
0.0
  0
VERTEX
  5
433
  8
ENGRAVE
 10
-432.6615458031457
 20
925.4189442439285
 30
0.0
  0
VERTEX
  5
434
  8
ENGRAVE
 10
-432.5528684724608
 20
925.1959091693407
 30
0.0
  0
VERTEX
  5
435
  8
ENGRAVE
 10
-432.4489389826958
 20
924.9708822883917
 30
0.0
  0
VERTEX
  5
436
  8
ENGRAVE
 10
-432.349808898946
 20
924.7439062804034
 30
0.0
  0
VERTEX
  5
437
  8
ENGRAVE
 10
-432.2555297863072
 20
924.5150238246972
 30
0.0
  0
VERTEX
  5
438
  8
ENGRAVE
 10
-416.7467904831723
 20
924.513613192092
 30
0.0
  0
SEQEND
  5
4E3
  8
ENGRAVE
  0
POLYLINE
  5
92
  8
ENGRAVE
 66
     1
 10
0.0
 20
0.0
 30
0.0
  0
VERTEX
  5
439
  8
ENGRAVE
 10
-448.9207702731748
 20
946.5950518605976
 30
0.0
  0
VERTEX
  5
43A
  8
ENGRAVE
 10
-448.9208333474696
 20
933.541703959454
 30
0.0
  0
VERTEX
  5
43B
  8
ENGRAVE
 10
-449.2155357197536
 20
933.5165370370138
 30
0.0
  0
VERTEX
  5
43C
  8
ENGRAVE
 10
-449.5088164570927
 20
933.4869219854172
 30
0.0
  0
VERTEX
  5
43D
  8
ENGRAVE
 10
-449.8006195941891
 20
933.4528960385263
 30
0.0
  0
VERTEX
  5
43E
  8
ENGRAVE
 10
-450.0908891657444
 20
933.4144964302031
 30
0.0
  0
VERTEX
  5
43F
  8
ENGRAVE
 10
-450.3795692064608
 20
933.3717603943094
 30
0.0
  0
VERTEX
  5
440
  8
ENGRAVE
 10
-450.66660375104
 20
933.3247251647072
 30
0.0
  0
VERTEX
  5
441
  8
ENGRAVE
 10
-450.951936834184
 20
933.2734279752583
 30
0.0
  0
VERTEX
  5
442
  8
ENGRAVE
 10
-451.2355124905945
 20
933.2179060598248
 30
0.0
  0
VERTEX
  5
443
  8
ENGRAVE
 10
-451.5172747549736
 20
933.1581966522685
 30
0.0
  0
VERTEX
  5
444
  8
ENGRAVE
 10
-451.7971676620231
 20
933.0943369864515
 30
0.0
  0
VERTEX
  5
445
  8
ENGRAVE
 10
-452.0751352464448
 20
933.0263642962357
 30
0.0
  0
VERTEX
  5
446
  8
ENGRAVE
 10
-452.3511215429406
 20
932.9543158154827
 30
0.0
  0
VERTEX
  5
447
  8
ENGRAVE
 10
-452.6250705862125
 20
932.8782287780548
 30
0.0
  0
VERTEX
  5
448
  8
ENGRAVE
 10
-452.8969264109624
 20
932.7981404178138
 30
0.0
  0
VERTEX
  5
449
  8
ENGRAVE
 10
-453.1666330518919
 20
932.7140879686217
 30
0.0
  0
VERTEX
  5
44A
  8
ENGRAVE
 10
-453.4341345437035
 20
932.6261086643401
 30
0.0
  0
VERTEX
  5
44B
  8
ENGRAVE
 10
-453.6993749210983
 20
932.5342397388314
 30
0.0
  0
VERTEX
  5
44C
  8
ENGRAVE
 10
-453.9622982187787
 20
932.4385184259572
 30
0.0
  0
VERTEX
  5
44D
  8
ENGRAVE
 10
-454.2228484714465
 20
932.3389819595797
 30
0.0
  0
VERTEX
  5
44E
  8
ENGRAVE
 10
-454.4809697138036
 20
932.2356675735605
 30
0.0
  0
VERTEX
  5
44F
  8
ENGRAVE
 10
-454.7366059805516
 20
932.1286125017618
 30
0.0
  0
VERTEX
  5
450
  8
ENGRAVE
 10
-454.9897013063928
 20
932.0178539780454
 30
0.0
  0
VERTEX
  5
451
  8
ENGRAVE
 10
-455.2401997260289
 20
931.9034292362733
 30
0.0
  0
VERTEX
  5
452
  8
ENGRAVE
 10
-455.4880452741618
 20
931.7853755103072
 30
0.0
  0
VERTEX
  5
453
  8
ENGRAVE
 10
-455.7331819854932
 20
931.6637300340094
 30
0.0
  0
VERTEX
  5
454
  8
ENGRAVE
 10
-455.9755538947252
 20
931.5385300412415
 30
0.0
  0
VERTEX
  5
455
  8
ENGRAVE
 10
-456.2151050365597
 20
931.4098127658656
 30
0.0
  0
VERTEX
  5
456
  8
ENGRAVE
 10
-456.4517794456987
 20
931.2776154417436
 30
0.0
  0
VERTEX
  5
457
  8
ENGRAVE
 10
-456.6855211568437
 20
931.1419753027375
 30
0.0
  0
VERTEX
  5
458
  8
ENGRAVE
 10
-456.9162742046968
 20
931.002929582709
 30
0.0
  0
VERTEX
  5
459
  8
ENGRAVE
 10
-457.14398262396
 20
930.8605155155203
 30
0.0
  0
VERTEX
  5
45A
  8
ENGRAVE
 10
-457.3685904493351
 20
930.7147703350331
 30
0.0
  0
VERTEX
  5
45B
  8
ENGRAVE
 10
-457.5900417155239
 20
930.5657312751096
 30
0.0
  0
VERTEX
  5
45C
  8
ENGRAVE
 10
-457.8082804572283
 20
930.4134355696114
 30
0.0
  0
VERTEX
  5
45D
  8
ENGRAVE
 10
-458.0232507091502
 20
930.2579204524006
 30
0.0
  0
VERTEX
  5
45E
  8
ENGRAVE
 10
-458.2348965059916
 20
930.0992231573391
 30
0.0
  0
VERTEX
  5
45F
  8
ENGRAVE
 10
-458.4431618824543
 20
929.9373809182889
 30
0.0
  0
VERTEX
  5
460
  8
ENGRAVE
 10
-458.6479908732401
 20
929.7724309691118
 30
0.0
  0
VERTEX
  5
461
  8
ENGRAVE
 10
-458.849327513051
 20
929.6044105436699
 30
0.0
  0
VERTEX
  5
462
  8
ENGRAVE
 10
-459.0471158365889
 20
929.433356875825
 30
0.0
  0
VERTEX
  5
463
  8
ENGRAVE
 10
-459.2412998785557
 20
929.259307199439
 30
0.0
  0
VERTEX
  5
464
  8
ENGRAVE
 10
-459.4318236736532
 20
929.0822987483739
 30
0.0
  0
VERTEX
  5
465
  8
ENGRAVE
 10
-459.6186312565832
 20
928.9023687564916
 30
0.0
  0
VERTEX
  5
466
  8
ENGRAVE
 10
-459.8016666620478
 20
928.7195544576541
 30
0.0
  0
VERTEX
  5
467
  8
ENGRAVE
 10
-459.9808739247488
 20
928.5338930857232
 30
0.0
  0
VERTEX
  5
468
  8
ENGRAVE
 10
-460.1561970793881
 20
928.345421874561
 30
0.0
  0
VERTEX
  5
469
  8
ENGRAVE
 10
-460.3275801606675
 20
928.1541780580292
 30
0.0
  0
VERTEX
  5
46A
  8
ENGRAVE
 10
-460.4949672032889
 20
927.9601988699899
 30
0.0
  0
VERTEX
  5
46B
  8
ENGRAVE
 10
-460.6583022419543
 20
927.7635215443049
 30
0.0
  0
VERTEX
  5
46C
  8
ENGRAVE
 10
-460.8175293113656
 20
927.5641833148363
 30
0.0
  0
VERTEX
  5
46D
  8
ENGRAVE
 10
-460.9725924462244
 20
927.3622214154459
 30
0.0
  0
VERTEX
  5
46E
  8
ENGRAVE
 10
-461.1234356812329
 20
927.1576730799956
 30
0.0
  0
VERTEX
  5
46F
  8
ENGRAVE
 10
-461.2700030510929
 20
926.9505755423475
 30
0.0
  0
VERTEX
  5
470
  8
ENGRAVE
 10
-461.4122385905062
 20
926.7409660363634
 30
0.0
  0
VERTEX
  5
471
  8
ENGRAVE
 10
-461.5500863341748
 20
926.5288817959051
 30
0.0
  0
VERTEX
  5
472
  8
ENGRAVE
 10
-461.6834903168005
 20
926.3143600548349
 30
0.0
  0
VERTEX
  5
473
  8
ENGRAVE
 10
-461.8123945730853
 20
926.0974380470144
 30
0.0
  0
VERTEX
  5
474
  8
ENGRAVE
 10
-461.9367431377309
 20
925.8781530063056
 30
0.0
  0
VERTEX
  5
475
  8
ENGRAVE
 10
-462.0564800454393
 20
925.6565421665705
 30
0.0
  0
VERTEX
  5
476
  8
ENGRAVE
 10
-462.1715493309123
 20
925.4326427616709
 30
0.0
  0
VERTEX
  5
477
  8
ENGRAVE
 10
-462.281895028852
 20
925.2064920254688
 30
0.0
  0
VERTEX
  5
478
  8
ENGRAVE
 10
-462.3874611739601
 20
924.9781271918264
 30
0.0
  0
VERTEX
  5
479
  8
ENGRAVE
 10
-462.4881918009386
 20
924.747585494605
 30
0.0
  0
VERTEX
  5
47A
  8
ENGRAVE
 10
-462.5840309444893
 20
924.514904167667
 30
0.0
  0
VERTEX
  5
47B
  8
ENGRAVE
 10
-542.7469040428621
 20
924.513613192092
 30
0.0
  0
SEQEND
  5
4E4
  8
ENGRAVE
  0
POLYLINE
  5
93
  8
ENGRAVE
 66
     1
 10
0.0
 20
0.0
 30
0.0
  0
VERTEX
  5
47C
  8
ENGRAVE
 10
-426.1180582645512
 20
856.5949707465329
 30
0.0
  0
VERTEX
  5
47D
  8
ENGRAVE
 10
-426.1289483760077
 20
857.154985319424
 30
0.0
  0
VERTEX
  5
47E
  8
ENGRAVE
 10
-426.1814992772146
 20
858.0549694865912
 30
0.0
  0
VERTEX
  5
47F
  8
ENGRAVE
 10
-426.2685878814314
 20
858.9492472990107
 30
0.0
  0
VERTEX
  5
480
  8
ENGRAVE
 10
-426.3933770550766
 20
859.8636982089043
 30
0.0
  0
VERTEX
  5
481
  8
ENGRAVE
 10
-426.7310759273025
 20
861.5930468053081
 30
0.0
  0
VERTEX
  5
482
  8
ENGRAVE
 10
-427.2046981199299
 20
863.3188577118497
 30
0.0
  0
VERTEX
  5
483
  8
ENGRAVE
 10
-427.8049792168346
 20
865.0113195512774
 30
0.0
  0
VERTEX
  5
484
  8
ENGRAVE
 10
-428.5276678072847
 20
866.6673913751667
 30
0.0
  0
VERTEX
  5
485
  8
ENGRAVE
 10
-429.3684223069303
 20
868.2842967509495
 30
0.0
  0
VERTEX
  5
486
  8
ENGRAVE
 10
-430.3228784993182
 20
869.8595142208435
 30
0.0
  0
VERTEX
  5
487
  8
ENGRAVE
 10
-431.3867061072956
 20
871.3907549240804
 30
0.0
  0
VERTEX
  5
488
  8
ENGRAVE
 10
-432.5556522751306
 20
872.8759318678555
 30
0.0
  0
VERTEX
  5
489
  8
ENGRAVE
 10
-433.8255717064629
 20
874.3131250286473
 30
0.0
  0
VERTEX
  5
48A
  8
ENGRAVE
 10
-435.1924445727797
 20
875.7005457453995
 30
0.0
  0
VERTEX
  5
48B
  8
ENGRAVE
 10
-436.6523841176415
 20
877.0365029506225
 30
0.0
  0
VERTEX
  5
48C
  8
ENGRAVE
 10
-438.2016362007411
 20
878.3193728619706
 30
0.0
  0
VERTEX
  5
48D
  8
ENGRAVE
 10
-439.8365729900078
 20
879.5475729757354
 30
0.0
  0
VERTEX
  5
48E
  8
ENGRAVE
 10
-441.5536827738617
 20
880.7195406160638
 30
0.0
  0
VERTEX
  5
48F
  8
ENGRAVE
 10
-443.3495574942606
 20
881.8337158712968
 30
0.0
  0
VERTEX
  5
490
  8
ENGRAVE
 10
-445.2208792442505
 20
882.88852851734
 30
0.0
  0
VERTEX
  5
491
  8
ENGRAVE
 10
-447.1644065935691
 20
883.8823883879422
 30
0.0
  0
VERTEX
  5
492
  8
ENGRAVE
 10
-449.1769613553474
 20
884.8136786493207
 30
0.0
  0
VERTEX
  5
493
  8
ENGRAVE
 10
-451.2554161381219
 20
885.6807514392068
 30
0.0
  0
VERTEX
  5
494
  8
ENGRAVE
 10
-453.3966828700736
 20
886.4819253998659
 30
0.0
  0
VERTEX
  5
495
  8
ENGRAVE
 10
-455.5977023844939
 20
887.2154847134952
 30
0.0
  0
VERTEX
  5
496
  8
ENGRAVE
 10
-457.8554350389674
 20
887.8796793061807
 30
0.0
  0
VERTEX
  5
497
  8
ENGRAVE
 10
-460.1668523369969
 20
888.4727259722167
 30
0.0
  0
VERTEX
  5
498
  8
ENGRAVE
 10
-462.5289294736406
 20
888.9928102206401
 30
0.0
  0
VERTEX
  5
499
  8
ENGRAVE
 10
-464.9386387426003
 20
889.4380887017803
 30
0.0
  0
VERTEX
  5
49A
  8
ENGRAVE
 10
-467.3929437385443
 20
889.8066921070051
 30
0.0
  0
VERTEX
  5
49B
  8
ENGRAVE
 10
-469.8887943053105
 20
890.096728465348
 30
0.0
  0
VERTEX
  5
49C
  8
ENGRAVE
 10
-472.4231222167854
 20
890.3062867817173
 30
0.0
  0
VERTEX
  5
49D
  8
ENGRAVE
 10
-474.9928375579486
 20
890.4334409665289
 30
0.0
  0
VERTEX
  5
49E
  8
ENGRAVE
 10
-477.594662103874
 20
890.4762513228161
 30
0.0
  0
VERTEX
  5
49F
  8
ENGRAVE
 10
-480.1964866500687
 20
890.433440966515
 30
0.0
  0
VERTEX
  5
4A0
  8
ENGRAVE
 10
-482.7662019908972
 20
890.3062867817002
 30
0.0
  0
VERTEX
  5
4A1
  8
ENGRAVE
 10
-485.3005299023141
 20
890.0967284653414
 30
0.0
  0
VERTEX
  5
4A2
  8
ENGRAVE
 10
-487.7963804695168
 20
889.8066921069387
 30
0.0
  0
VERTEX
  5
4A3
  8
ENGRAVE
 10
-490.2506854651915
 20
889.4380887017364
 30
0.0
  0
VERTEX
  5
4A4
  8
ENGRAVE
 10
-492.6603947338383
 20
888.992810220663
 30
0.0
  0
VERTEX
  5
4A5
  8
ENGRAVE
 10
-495.0224718697108
 20
888.4727259723936
 30
0.0
  0
VERTEX
  5
4A6
  8
ENGRAVE
 10
-497.3338891674711
 20
887.8796793064727
 30
0.0
  0
VERTEX
  5
4A7
  8
ENGRAVE
 10
-499.5916218223665
 20
887.2154847136967
 30
0.0
  0
VERTEX
  5
4A8
  8
ENGRAVE
 10
-501.7926413372962
 20
886.4819253999066
 30
0.0
  0
VERTEX
  5
4A9
  8
ENGRAVE
 10
-503.9339080695244
 20
885.6807514391584
 30
0.0
  0
VERTEX
  5
4AA
  8
ENGRAVE
 10
-506.0123628518623
 20
884.8136786494705
 30
0.0
  0
VERTEX
  5
4AB
  8
ENGRAVE
 10
-508.0249176143355
 20
883.882388387771
 30
0.0
  0
VERTEX
  5
4AC
  8
ENGRAVE
 10
-509.9684449635158
 20
882.8885285172163
 30
0.0
  0
VERTEX
  5
4AD
  8
ENGRAVE
 10
-511.8397667129273
 20
881.8337158714905
 30
0.0
  0
VERTEX
  5
4AE
  8
ENGRAVE
 10
-513.6356414337517
 20
880.719540616011
 30
0.0
  0
VERTEX
  5
4AF
  8
ENGRAVE
 10
-515.3527512172127
 20
879.5475729759669
 30
0.0
  0
VERTEX
  5
4B0
  8
ENGRAVE
 10
-516.9876880065669
 20
878.3193728621386
 30
0.0
  0
VERTEX
  5
4B1
  8
ENGRAVE
 10
-518.5369400898337
 20
877.0365029506482
 30
0.0
  0
VERTEX
  5
4B2
  8
ENGRAVE
 10
-519.9968796348285
 20
875.7005457453088
 30
0.0
  0
VERTEX
  5
4B3
  8
ENGRAVE
 10
-521.3637525007778
 20
874.3131250289395
 30
0.0
  0
VERTEX
  5
4B4
  8
ENGRAVE
 10
-522.6336719321428
 20
872.8759318681688
 30
0.0
  0
VERTEX
  5
4B5
  8
ENGRAVE
 10
-523.8026181002542
 20
871.390754924026
 30
0.0
  0
VERTEX
  5
4B6
  8
ENGRAVE
 10
-524.8664457083871
 20
869.8595142205834
 30
0.0
  0
VERTEX
  5
4B7
  8
ENGRAVE
 10
-525.8209019004595
 20
868.2842967511953
 30
0.0
  0
VERTEX
  5
4B8
  8
ENGRAVE
 10
-526.6616564003588
 20
866.6673913749491
 30
0.0
  0
VERTEX
  5
4B9
  8
ENGRAVE
 10
-527.3843449907879
 20
865.0113195509773
 30
0.0
  0
VERTEX
  5
4BA
  8
ENGRAVE
 10
-527.984626087761
 20
863.3188577113297
 30
0.0
  0
VERTEX
  5
4BB
  8
ENGRAVE
 10
-528.4511329307832
 20
861.6189741115979
 30
0.0
  0
VERTEX
  5
4BC
  8
ENGRAVE
 10
-528.6446981523563
 20
860.7188161209313
 30
0.0
  0
VERTEX
  5
4BD
  8
ENGRAVE
 10
-528.7995428031663
 20
859.8373493999892
 30
0.0
  0
VERTEX
  5
4BE
  8
ENGRAVE
 10
-528.9207363260546
 20
858.9492472992081
 30
0.0
  0
VERTEX
  5
4BF
  8
ENGRAVE
 10
-529.0078249302813
 20
858.0549694867767
 30
0.0
  0
VERTEX
  5
4C0
  8
ENGRAVE
 10
-529.0603758314984
 20
857.1549853193258
 30
0.0
  0
VERTEX
  5
4C1
  8
ENGRAVE
 10
-529.0712659429557
 20
856.5949707465325
 30
0.0
  0
SEQEND
  5
4E5
  8
ENGRAVE
  0
ENDSEC
  0
EOF
