  0
SECTION
  2
HEADER
  9
$ACADVER
  1
AC1009
  9
$DWGCODEPAGE
  3
ansi_1252
  9
$INSBASE
 10
0.0
 20
0.0
 30
0.0
  9
$EXTMIN
 10
0.749653
 20
12.7413
 30
0.0
  9
$EXTMAX
 10
134.651
 20
134.342
 30
0.0
  9
$LIMMIN
 10
0.0
 20
0.0
  9
$LIMMAX
 10
12.0
 20
9.0
  9
$ORTHOMODE
 70
     0
  9
$REGENMODE
 70
     1
  9
$FILLMODE
 70
     1
  9
$QTEXTMODE
 70
     0
  9
$MIRRTEXT
 70
     1
  9
$DRAGMODE
 70
     2
  9
$LTSCALE
 40
1.0
  9
$OSMODE
 70
    37
  9
$ATTMODE
 70
     1
  9
$TEXTSIZE
 40
0.2
  9
$TRACEWID
 40
0.05
  9
$TEXTSTYLE
  7
STANDARD
  9
$CLAYER
  8
0
  9
$CELTYPE
  6
BYLAYER
  9
$CECOLOR
 62
   256
  9
$DIMSCALE
 40
1.0
  9
$DIMASZ
 40
0.18
  9
$DIMEXO
 40
0.0625
  9
$DIMDLI
 40
0.38
  9
$DIMRND
 40
0.0
  9
$DIMDLE
 40
0.0
  9
$DIMEXE
 40
0.18
  9
$DIMTP
 40
0.0
  9
$DIMTM
 40
0.0
  9
$DIMTXT
 40
0.18
  9
$DIMCEN
 40
0.09
  9
$DIMTSZ
 40
0.0
  9
$DIMTOL
 70
     0
  9
$DIMLIM
 70
     0
  9
$DIMTIH
 70
     1
  9
$DIMTOH
 70
     1
  9
$DIMSE1
 70
     0
  9
$DIMSE2
 70
     0
  9
$DIMTAD
 70
     0
  9
$DIMZIN
 70
     0
  9
$DIMBLK
  1

  9
$DIMASO
 70
     1
  9
$DIMSHO
 70
     1
  9
$DIMPOST
  1

  9
$DIMAPOST
  1

  9
$DIMALT
 70
     0
  9
$DIMALTD
 70
     2
  9
$DIMALTF
 40
25.4
  9
$DIMLFAC
 40
1.0
  9
$DIMTOFL
 70
     0
  9
$DIMTVP
 40
0.0
  9
$DIMTIX
 70
     0
  9
$DIMSOXD
 70
     0
  9
$DIMSAH
 70
     0
  9
$DIMBLK1
  1

  9
$DIMBLK2
  1

  9
$DIMSTYLE
  2
STANDARD
  9
$DIMCLRD
 70
     0
  9
$DIMCLRE
 70
     0
  9
$DIMCLRT
 70
     0
  9
$DIMTFAC
 40
1.0
  9
$DIMGAP
 40
0.09
  9
$LUNITS
 70
     2
  9
$LUPREC
 70
     4
  9
$SKETCHINC
 40
0.1
  9
$FILLETRAD
 40
0.5
  9
$AUNITS
 70
     0
  9
$AUPREC
 70
     0
  9
$MENU
  1
.
  9
$ELEVATION
 40
0.0
  9
$PELEVATION
 40
0.0
  9
$THICKNESS
 40
0.0
  9
$LIMCHECK
 70
     0
  9
$CHAMFERA
 40
0.0
  9
$CHAMFERB
 40
0.0
  9
$SKPOLY
 70
     0
  9
$TDCREATE
 40
2454910.5
  9
$TDUPDATE
 40
2458460.555451342
  9
$TDINDWG
 40
0.0000000116
  9
$TDUSRTIMER
 40
0.0000000116
  9
$USRTIMER
 70
     1
  9
$ANGBASE
 50
0.0
  9
$ANGDIR
 70
     0
  9
$PDMODE
 70
     0
  9
$PDSIZE
 40
0.0
  9
$PLINEWID
 40
0.0
  9
$COORDS
 70
     1
  9
$SPLFRAME
 70
     0
  9
$SPLINETYPE
 70
     6
  9
$SPLINESEGS
 70
     8
  9
$ATTDIA
 70
     0
  9
$ATTREQ
 70
     1
  9
$HANDLING
 70
     1
  9
$HANDSEED
  5
7AC
  9
$SURFTAB1
 70
     6
  9
$SURFTAB2
 70
     6
  9
$SURFTYPE
 70
     6
  9
$SURFU
 70
     6
  9
$SURFV
 70
     6
  9
$UCSNAME
  2

  9
$UCSORG
 10
0.0
 20
0.0
 30
0.0
  9
$UCSXDIR
 10
1.0
 20
0.0
 30
0.0
  9
$UCSYDIR
 10
0.0
 20
1.0
 30
0.0
  9
$PUCSNAME
  2

  9
$PUCSORG
 10
0.0
 20
0.0
 30
0.0
  9
$PUCSXDIR
 10
1.0
 20
0.0
 30
0.0
  9
$PUCSYDIR
 10
0.0
 20
1.0
 30
0.0
  9
$USERI1
 70
     0
  9
$USERI2
 70
     0
  9
$USERI3
 70
     0
  9
$USERI4
 70
     0
  9
$USERI5
 70
     0
  9
$USERR1
 40
0.0
  9
$USERR2
 40
0.0
  9
$USERR3
 40
0.0
  9
$USERR4
 40
0.0
  9
$USERR5
 40
0.0
  9
$WORLDVIEW
 70
     1
  9
$SHADEDGE
 70
     3
  9
$SHADEDIF
 70
    70
  9
$TILEMODE
 70
     1
  9
$MAXACTVP
 70
    64
  9
$PLIMCHECK
 70
     0
  9
$PEXTMIN
 10
1.000000000000000E+20
 20
1.000000000000000E+20
 30
1.000000000000000E+20
  9
$PEXTMAX
 10
-1.000000000000000E+20
 20
-1.000000000000000E+20
 30
-1.000000000000000E+20
  9
$PLIMMIN
 10
0.0
 20
0.0
  9
$PLIMMAX
 10
12.0
 20
9.0
  9
$UNITMODE
 70
     0
  9
$VISRETAIN
 70
     1
  9
$PLINEGEN
 70
     0
  9
$PSLTSCALE
 70
     1
  0
ENDSEC
  0
SECTION
  2
TABLES
  0
TABLE
  2
VPORT
 70
     1
  0
VPORT
  2
*ACTIVE
 70
     0
 10
0.0
 20
0.0
 11
1.0
 21
1.0
 12
10.42990654205607
 22
4.5
 13
0.0
 23
0.0
 14
0.5
 24
0.5
 15
0.5
 25
0.5
 16
0.0
 26
0.0
 36
1.0
 17
0.0
 27
0.0
 37
0.0
 40
9.0
 41
1.972972972850329
 42
50.0
 43
0.0
 44
0.0
 50
0.0
 51
0.0
 71
     0
 72
   100
 73
     1
 74
     3
 75
     0
 76
     0
 77
     0
 78
     0
  0
ENDTAB
  0
TABLE
  2
LTYPE
 70
     2
  0
LTYPE
  2
CONTINUOUS
 70
     0
  3
Solid line
 72
    65
 73
     0
 40
0.0
  0
LTYPE
  2
CONTINUOUS2
 70
     0
  3
Solid Line
 72
    65
 73
     0
 40
0.0
  0
ENDTAB
  0
TABLE
  2
LAYER
 70
     1
  0
LAYER
  2
0
 70
     0
 62
     7
  6
CONTINUOUS
  0
ENDTAB
  0
TABLE
  2
STYLE
 70
     1
  0
STYLE
  2
STANDARD
 70
     0
 40
0.0
 41
1.0
 50
0.0
 71
     0
 42
0.2
  3
txt
  4

  0
ENDTAB
  0
TABLE
  2
VIEW
 70
     0
  0
ENDTAB
  0
TABLE
  2
UCS
 70
     0
  0
ENDTAB
  0
TABLE
  2
APPID
 70
     1
  0
APPID
  2
ACAD
 70
     0
  0
ENDTAB
  0
TABLE
  2
DIMSTYLE
 70
     1
  0
DIMSTYLE
  2
STANDARD
 70
     0
  3

  4

  5

  6

  7

 40
1.0
 41
0.18
 42
0.0625
 43
0.38
 44
0.18
 45
0.0
 46
0.0
 47
0.0
 48
0.0
140
0.18
141
0.09
142
0.0
143
25.4
144
1.0
145
0.0
146
1.0
147
0.09
 71
     0
 72
     0
 73
     1
 74
     1
 75
     0
 76
     0
 77
     0
 78
     0
170
     0
171
     2
172
     0
173
     0
174
     0
175
     0
176
     0
177
     0
178
     0
  0
ENDTAB
  0
ENDSEC
  0
SECTION
  2
BLOCKS
  0
BLOCK
  8
0
  2
$MODEL_SPACE
 70
     0
 10
0.0
 20
0.0
 30
0.0
  3
$MODEL_SPACE
  1

  0
ENDBLK
  5
21
  8
0
  0
BLOCK
 67
     1
  8
0
  2
$PAPER_SPACE
 70
     0
 10
0.0
 20
0.0
 30
0.0
  3
$PAPER_SPACE
  1

  0
ENDBLK
  5
1D
 67
     1
  8
0
  0
ENDSEC
  0
SECTION
  2
ENTITIES
  0
POLYLINE
  5
6F
  8
0
 66
     1
 10
0.0
 20
0.0
 30
0.0
 70
     1
  0
VERTEX
  5
8D
  8
0
 10
3.85025
 20
12.7413
 30
0.0
  0
VERTEX
  5
8E
  8
0
 10
12.8502
 20
12.7413
 30
0.0
  0
VERTEX
  5
8F
  8
0
 10
12.8668
 20
12.7413
 30
0.0
  0
VERTEX
  5
90
  8
0
 10
12.9205
 20
12.7716
 30
0.0
  0
VERTEX
  5
91
  8
0
 10
12.9508
 20
12.8254
 30
0.0
  0
VERTEX
  5
92
  8
0
 10
12.9508
 20
12.8419
 30
0.0
  0
VERTEX
  5
93
  8
0
 10
12.9508
 20
15.8419
 30
0.0
  0
VERTEX
  5
94
  8
0
 10
12.9508
 20
15.8254
 30
0.0
  0
VERTEX
  5
95
  8
0
 10
12.9205
 20
15.7716
 30
0.0
  0
VERTEX
  5
96
  8
0
 10
12.8668
 20
15.7413
 30
0.0
  0
VERTEX
  5
97
  8
0
 10
12.8502
 20
15.7413
 30
0.0
  0
VERTEX
  5
98
  8
0
 10
18.8502
 20
15.7413
 30
0.0
  0
VERTEX
  5
99
  8
0
 10
18.8323
 20
15.7413
 30
0.0
  0
VERTEX
  5
9A
  8
0
 10
18.7785
 20
15.7716
 30
0.0
  0
VERTEX
  5
9B
  8
0
 10
18.7496
 20
15.8254
 30
0.0
  0
VERTEX
  5
9C
  8
0
 10
18.7496
 20
15.8419
 30
0.0
  0
VERTEX
  5
9D
  8
0
 10
18.7496
 20
12.8419
 30
0.0
  0
VERTEX
  5
9E
  8
0
 10
18.7496
 20
12.8254
 30
0.0
  0
VERTEX
  5
9F
  8
0
 10
18.7785
 20
12.7716
 30
0.0
  0
VERTEX
  5
A0
  8
0
 10
18.8323
 20
12.7413
 30
0.0
  0
VERTEX
  5
A1
  8
0
 10
18.8502
 20
12.7413
 30
0.0
  0
VERTEX
  5
A2
  8
0
 10
24.8502
 20
12.7413
 30
0.0
  0
VERTEX
  5
A3
  8
0
 10
24.8667
 20
12.7413
 30
0.0
  0
VERTEX
  5
A4
  8
0
 10
24.9204
 20
12.7716
 30
0.0
  0
VERTEX
  5
A5
  8
0
 10
24.9508
 20
12.8254
 30
0.0
  0
VERTEX
  5
A6
  8
0
 10
24.9508
 20
12.8419
 30
0.0
  0
VERTEX
  5
A7
  8
0
 10
24.9508
 20
15.8419
 30
0.0
  0
VERTEX
  5
A8
  8
0
 10
24.9508
 20
15.8254
 30
0.0
  0
VERTEX
  5
A9
  8
0
 10
24.9204
 20
15.7716
 30
0.0
  0
VERTEX
  5
AA
  8
0
 10
24.8667
 20
15.7413
 30
0.0
  0
VERTEX
  5
AB
  8
0
 10
24.8502
 20
15.7413
 30
0.0
  0
VERTEX
  5
AC
  8
0
 10
30.8501
 20
15.7413
 30
0.0
  0
VERTEX
  5
AD
  8
0
 10
30.8322
 20
15.7413
 30
0.0
  0
VERTEX
  5
AE
  8
0
 10
30.7785
 20
15.7716
 30
0.0
  0
VERTEX
  5
AF
  8
0
 10
30.7496
 20
15.8254
 30
0.0
  0
VERTEX
  5
B0
  8
0
 10
30.7496
 20
15.8419
 30
0.0
  0
VERTEX
  5
B1
  8
0
 10
30.7496
 20
12.8419
 30
0.0
  0
VERTEX
  5
B2
  8
0
 10
30.7496
 20
12.8254
 30
0.0
  0
VERTEX
  5
B3
  8
0
 10
30.7785
 20
12.7716
 30
0.0
  0
VERTEX
  5
B4
  8
0
 10
30.8322
 20
12.7413
 30
0.0
  0
VERTEX
  5
B5
  8
0
 10
30.8501
 20
12.7413
 30
0.0
  0
VERTEX
  5
B6
  8
0
 10
36.8501
 20
12.7413
 30
0.0
  0
VERTEX
  5
B7
  8
0
 10
36.8667
 20
12.7413
 30
0.0
  0
VERTEX
  5
B8
  8
0
 10
36.9203
 20
12.7716
 30
0.0
  0
VERTEX
  5
B9
  8
0
 10
36.9506
 20
12.8254
 30
0.0
  0
VERTEX
  5
BA
  8
0
 10
36.9506
 20
12.8419
 30
0.0
  0
VERTEX
  5
BB
  8
0
 10
36.9506
 20
15.8419
 30
0.0
  0
VERTEX
  5
BC
  8
0
 10
36.9506
 20
15.8254
 30
0.0
  0
VERTEX
  5
BD
  8
0
 10
36.9203
 20
15.7716
 30
0.0
  0
VERTEX
  5
BE
  8
0
 10
36.8667
 20
15.7413
 30
0.0
  0
VERTEX
  5
BF
  8
0
 10
36.8501
 20
15.7413
 30
0.0
  0
VERTEX
  5
C0
  8
0
 10
42.8502
 20
15.7413
 30
0.0
  0
VERTEX
  5
C1
  8
0
 10
42.8322
 20
15.7413
 30
0.0
  0
VERTEX
  5
C2
  8
0
 10
42.7785
 20
15.7716
 30
0.0
  0
VERTEX
  5
C3
  8
0
 10
42.7496
 20
15.8254
 30
0.0
  0
VERTEX
  5
C4
  8
0
 10
42.7496
 20
15.8419
 30
0.0
  0
VERTEX
  5
C5
  8
0
 10
42.7496
 20
12.8419
 30
0.0
  0
VERTEX
  5
C6
  8
0
 10
42.7496
 20
12.8254
 30
0.0
  0
VERTEX
  5
C7
  8
0
 10
42.7785
 20
12.7716
 30
0.0
  0
VERTEX
  5
C8
  8
0
 10
42.8322
 20
12.7413
 30
0.0
  0
VERTEX
  5
C9
  8
0
 10
42.8502
 20
12.7413
 30
0.0
  0
VERTEX
  5
CA
  8
0
 10
48.8502
 20
12.7413
 30
0.0
  0
VERTEX
  5
CB
  8
0
 10
48.8668
 20
12.7413
 30
0.0
  0
VERTEX
  5
CC
  8
0
 10
48.9204
 20
12.7716
 30
0.0
  0
VERTEX
  5
CD
  8
0
 10
48.9507
 20
12.8254
 30
0.0
  0
VERTEX
  5
CE
  8
0
 10
48.9507
 20
12.8419
 30
0.0
  0
VERTEX
  5
CF
  8
0
 10
48.9507
 20
15.8419
 30
0.0
  0
VERTEX
  5
D0
  8
0
 10
48.9507
 20
15.8254
 30
0.0
  0
VERTEX
  5
D1
  8
0
 10
48.9204
 20
15.7716
 30
0.0
  0
VERTEX
  5
D2
  8
0
 10
48.8668
 20
15.7413
 30
0.0
  0
VERTEX
  5
D3
  8
0
 10
48.8502
 20
15.7413
 30
0.0
  0
VERTEX
  5
D4
  8
0
 10
54.8499
 20
15.7413
 30
0.0
  0
VERTEX
  5
D5
  8
0
 10
54.8322
 20
15.7413
 30
0.0
  0
VERTEX
  5
D6
  8
0
 10
54.7783
 20
15.7716
 30
0.0
  0
VERTEX
  5
D7
  8
0
 10
54.7494
 20
15.8254
 30
0.0
  0
VERTEX
  5
D8
  8
0
 10
54.7494
 20
15.8419
 30
0.0
  0
VERTEX
  5
D9
  8
0
 10
54.7494
 20
12.8419
 30
0.0
  0
VERTEX
  5
DA
  8
0
 10
54.7494
 20
12.8254
 30
0.0
  0
VERTEX
  5
DB
  8
0
 10
54.7783
 20
12.7716
 30
0.0
  0
VERTEX
  5
DC
  8
0
 10
54.8322
 20
12.7413
 30
0.0
  0
VERTEX
  5
DD
  8
0
 10
54.8499
 20
12.7413
 30
0.0
  0
VERTEX
  5
DE
  8
0
 10
63.85
 20
12.7413
 30
0.0
  0
VERTEX
  5
DF
  8
0
 10
66.85
 20
12.7413
 30
0.0
  0
VERTEX
  5
E0
  8
0
 10
66.8666
 20
12.7413
 30
0.0
  0
VERTEX
  5
E1
  8
0
 10
66.9202
 20
12.7716
 30
0.0
  0
VERTEX
  5
E2
  8
0
 10
66.9505
 20
12.8254
 30
0.0
  0
VERTEX
  5
E3
  8
0
 10
66.9505
 20
12.8419
 30
0.0
  0
VERTEX
  5
E4
  8
0
 10
66.9505
 20
15.8419
 30
0.0
  0
VERTEX
  5
E5
  8
0
 10
66.9505
 20
21.8419
 30
0.0
  0
VERTEX
  5
E6
  8
0
 10
66.9505
 20
21.8598
 30
0.0
  0
VERTEX
  5
E7
  8
0
 10
66.9202
 20
21.9136
 30
0.0
  0
VERTEX
  5
E8
  8
0
 10
66.8666
 20
21.9425
 30
0.0
  0
VERTEX
  5
E9
  8
0
 10
66.85
 20
21.9425
 30
0.0
  0
VERTEX
  5
EA
  8
0
 10
63.85
 20
21.9425
 30
0.0
  0
VERTEX
  5
EB
  8
0
 10
63.8665
 20
21.9425
 30
0.0
  0
VERTEX
  5
EC
  8
0
 10
63.9202
 20
21.9136
 30
0.0
  0
VERTEX
  5
ED
  8
0
 10
63.9505
 20
21.8598
 30
0.0
  0
VERTEX
  5
EE
  8
0
 10
63.9505
 20
21.8419
 30
0.0
  0
VERTEX
  5
EF
  8
0
 10
63.9505
 20
27.8419
 30
0.0
  0
VERTEX
  5
F0
  8
0
 10
63.9505
 20
27.8253
 30
0.0
  0
VERTEX
  5
F1
  8
0
 10
63.9202
 20
27.7716
 30
0.0
  0
VERTEX
  5
F2
  8
0
 10
63.8665
 20
27.7413
 30
0.0
  0
VERTEX
  5
F3
  8
0
 10
63.85
 20
27.7413
 30
0.0
  0
VERTEX
  5
F4
  8
0
 10
66.85
 20
27.7413
 30
0.0
  0
VERTEX
  5
F5
  8
0
 10
66.8666
 20
27.7413
 30
0.0
  0
VERTEX
  5
F6
  8
0
 10
66.9202
 20
27.7716
 30
0.0
  0
VERTEX
  5
F7
  8
0
 10
66.9505
 20
27.8253
 30
0.0
  0
VERTEX
  5
F8
  8
0
 10
66.9505
 20
27.8419
 30
0.0
  0
VERTEX
  5
F9
  8
0
 10
66.9505
 20
33.8419
 30
0.0
  0
VERTEX
  5
FA
  8
0
 10
66.9505
 20
33.8598
 30
0.0
  0
VERTEX
  5
FB
  8
0
 10
66.9202
 20
33.9135
 30
0.0
  0
VERTEX
  5
FC
  8
0
 10
66.8666
 20
33.9424
 30
0.0
  0
VERTEX
  5
FD
  8
0
 10
66.85
 20
33.9424
 30
0.0
  0
VERTEX
  5
FE
  8
0
 10
63.85
 20
33.9424
 30
0.0
  0
VERTEX
  5
FF
  8
0
 10
63.8665
 20
33.9424
 30
0.0
  0
VERTEX
  5
100
  8
0
 10
63.9202
 20
33.9135
 30
0.0
  0
VERTEX
  5
101
  8
0
 10
63.9505
 20
33.8598
 30
0.0
  0
VERTEX
  5
102
  8
0
 10
63.9505
 20
33.8419
 30
0.0
  0
VERTEX
  5
103
  8
0
 10
63.9505
 20
39.842
 30
0.0
  0
VERTEX
  5
104
  8
0
 10
63.9505
 20
39.8254
 30
0.0
  0
VERTEX
  5
105
  8
0
 10
63.9202
 20
39.7715
 30
0.0
  0
VERTEX
  5
106
  8
0
 10
63.8665
 20
39.7411
 30
0.0
  0
VERTEX
  5
107
  8
0
 10
63.85
 20
39.7411
 30
0.0
  0
VERTEX
  5
108
  8
0
 10
66.85
 20
39.7411
 30
0.0
  0
VERTEX
  5
109
  8
0
 10
66.8666
 20
39.7411
 30
0.0
  0
VERTEX
  5
10A
  8
0
 10
66.9202
 20
39.7715
 30
0.0
  0
VERTEX
  5
10B
  8
0
 10
66.9505
 20
39.8254
 30
0.0
  0
VERTEX
  5
10C
  8
0
 10
66.9505
 20
39.842
 30
0.0
  0
VERTEX
  5
10D
  8
0
 10
66.9505
 20
45.8417
 30
0.0
  0
VERTEX
  5
10E
  8
0
 10
66.9505
 20
48.8417
 30
0.0
  0
VERTEX
  5
10F
  8
0
 10
66.9505
 20
48.8597
 30
0.0
  0
VERTEX
  5
110
  8
0
 10
66.9202
 20
48.9133
 30
0.0
  0
VERTEX
  5
111
  8
0
 10
66.8666
 20
48.9423
 30
0.0
  0
VERTEX
  5
112
  8
0
 10
66.85
 20
48.9423
 30
0.0
  0
VERTEX
  5
113
  8
0
 10
63.85
 20
48.9423
 30
0.0
  0
VERTEX
  5
114
  8
0
 10
54.8499
 20
48.9423
 30
0.0
  0
VERTEX
  5
115
  8
0
 10
54.8322
 20
48.9423
 30
0.0
  0
VERTEX
  5
116
  8
0
 10
54.7783
 20
48.9133
 30
0.0
  0
VERTEX
  5
117
  8
0
 10
54.7494
 20
48.8597
 30
0.0
  0
VERTEX
  5
118
  8
0
 10
54.7494
 20
48.8417
 30
0.0
  0
VERTEX
  5
119
  8
0
 10
54.7494
 20
45.8417
 30
0.0
  0
VERTEX
  5
11A
  8
0
 10
54.7494
 20
45.8597
 30
0.0
  0
VERTEX
  5
11B
  8
0
 10
54.7783
 20
45.9133
 30
0.0
  0
VERTEX
  5
11C
  8
0
 10
54.8322
 20
45.9422
 30
0.0
  0
VERTEX
  5
11D
  8
0
 10
54.8499
 20
45.9422
 30
0.0
  0
VERTEX
  5
11E
  8
0
 10
48.8502
 20
45.9422
 30
0.0
  0
VERTEX
  5
11F
  8
0
 10
48.8668
 20
45.9422
 30
0.0
  0
VERTEX
  5
120
  8
0
 10
48.9204
 20
45.9133
 30
0.0
  0
VERTEX
  5
121
  8
0
 10
48.9507
 20
45.8597
 30
0.0
  0
VERTEX
  5
122
  8
0
 10
48.9507
 20
45.8417
 30
0.0
  0
VERTEX
  5
123
  8
0
 10
48.9507
 20
48.8417
 30
0.0
  0
VERTEX
  5
124
  8
0
 10
48.9507
 20
48.8597
 30
0.0
  0
VERTEX
  5
125
  8
0
 10
48.9204
 20
48.9133
 30
0.0
  0
VERTEX
  5
126
  8
0
 10
48.8668
 20
48.9423
 30
0.0
  0
VERTEX
  5
127
  8
0
 10
48.8502
 20
48.9423
 30
0.0
  0
VERTEX
  5
128
  8
0
 10
42.8502
 20
48.9423
 30
0.0
  0
VERTEX
  5
129
  8
0
 10
42.8322
 20
48.9423
 30
0.0
  0
VERTEX
  5
12A
  8
0
 10
42.7785
 20
48.9133
 30
0.0
  0
VERTEX
  5
12B
  8
0
 10
42.7496
 20
48.8597
 30
0.0
  0
VERTEX
  5
12C
  8
0
 10
42.7496
 20
48.8417
 30
0.0
  0
VERTEX
  5
12D
  8
0
 10
42.7496
 20
45.8417
 30
0.0
  0
VERTEX
  5
12E
  8
0
 10
42.7496
 20
45.8597
 30
0.0
  0
VERTEX
  5
12F
  8
0
 10
42.7785
 20
45.9133
 30
0.0
  0
VERTEX
  5
130
  8
0
 10
42.8322
 20
45.9422
 30
0.0
  0
VERTEX
  5
131
  8
0
 10
42.8502
 20
45.9422
 30
0.0
  0
VERTEX
  5
132
  8
0
 10
36.8501
 20
45.9422
 30
0.0
  0
VERTEX
  5
133
  8
0
 10
36.8667
 20
45.9422
 30
0.0
  0
VERTEX
  5
134
  8
0
 10
36.9203
 20
45.9133
 30
0.0
  0
VERTEX
  5
135
  8
0
 10
36.9506
 20
45.8597
 30
0.0
  0
VERTEX
  5
136
  8
0
 10
36.9506
 20
45.8417
 30
0.0
  0
VERTEX
  5
137
  8
0
 10
36.9506
 20
48.8417
 30
0.0
  0
VERTEX
  5
138
  8
0
 10
36.9506
 20
48.8597
 30
0.0
  0
VERTEX
  5
139
  8
0
 10
36.9203
 20
48.9133
 30
0.0
  0
VERTEX
  5
13A
  8
0
 10
36.8667
 20
48.9423
 30
0.0
  0
VERTEX
  5
13B
  8
0
 10
36.8501
 20
48.9423
 30
0.0
  0
VERTEX
  5
13C
  8
0
 10
30.8501
 20
48.9423
 30
0.0
  0
VERTEX
  5
13D
  8
0
 10
30.8322
 20
48.9423
 30
0.0
  0
VERTEX
  5
13E
  8
0
 10
30.7785
 20
48.9133
 30
0.0
  0
VERTEX
  5
13F
  8
0
 10
30.7496
 20
48.8597
 30
0.0
  0
VERTEX
  5
140
  8
0
 10
30.7496
 20
48.8417
 30
0.0
  0
VERTEX
  5
141
  8
0
 10
30.7496
 20
45.8417
 30
0.0
  0
VERTEX
  5
142
  8
0
 10
30.7496
 20
45.8597
 30
0.0
  0
VERTEX
  5
143
  8
0
 10
30.7785
 20
45.9133
 30
0.0
  0
VERTEX
  5
144
  8
0
 10
30.8322
 20
45.9422
 30
0.0
  0
VERTEX
  5
145
  8
0
 10
30.8501
 20
45.9422
 30
0.0
  0
VERTEX
  5
146
  8
0
 10
24.8502
 20
45.9422
 30
0.0
  0
VERTEX
  5
147
  8
0
 10
24.8667
 20
45.9422
 30
0.0
  0
VERTEX
  5
148
  8
0
 10
24.9204
 20
45.9133
 30
0.0
  0
VERTEX
  5
149
  8
0
 10
24.9508
 20
45.8597
 30
0.0
  0
VERTEX
  5
14A
  8
0
 10
24.9508
 20
45.8417
 30
0.0
  0
VERTEX
  5
14B
  8
0
 10
24.9508
 20
48.8417
 30
0.0
  0
VERTEX
  5
14C
  8
0
 10
24.9508
 20
48.8597
 30
0.0
  0
VERTEX
  5
14D
  8
0
 10
24.9204
 20
48.9133
 30
0.0
  0
VERTEX
  5
14E
  8
0
 10
24.8667
 20
48.9423
 30
0.0
  0
VERTEX
  5
14F
  8
0
 10
24.8502
 20
48.9423
 30
0.0
  0
VERTEX
  5
150
  8
0
 10
18.8502
 20
48.9423
 30
0.0
  0
VERTEX
  5
151
  8
0
 10
18.8323
 20
48.9423
 30
0.0
  0
VERTEX
  5
152
  8
0
 10
18.7785
 20
48.9133
 30
0.0
  0
VERTEX
  5
153
  8
0
 10
18.7496
 20
48.8597
 30
0.0
  0
VERTEX
  5
154
  8
0
 10
18.7496
 20
48.8417
 30
0.0
  0
VERTEX
  5
155
  8
0
 10
18.7496
 20
45.8417
 30
0.0
  0
VERTEX
  5
156
  8
0
 10
18.7496
 20
45.8597
 30
0.0
  0
VERTEX
  5
157
  8
0
 10
18.7785
 20
45.9133
 30
0.0
  0
VERTEX
  5
158
  8
0
 10
18.8323
 20
45.9422
 30
0.0
  0
VERTEX
  5
159
  8
0
 10
18.8502
 20
45.9422
 30
0.0
  0
VERTEX
  5
15A
  8
0
 10
12.8502
 20
45.9422
 30
0.0
  0
VERTEX
  5
15B
  8
0
 10
12.8668
 20
45.9422
 30
0.0
  0
VERTEX
  5
15C
  8
0
 10
12.9205
 20
45.9133
 30
0.0
  0
VERTEX
  5
15D
  8
0
 10
12.9508
 20
45.8597
 30
0.0
  0
VERTEX
  5
15E
  8
0
 10
12.9508
 20
45.8417
 30
0.0
  0
VERTEX
  5
15F
  8
0
 10
12.9508
 20
48.8417
 30
0.0
  0
VERTEX
  5
160
  8
0
 10
12.9508
 20
48.8597
 30
0.0
  0
VERTEX
  5
161
  8
0
 10
12.9205
 20
48.9133
 30
0.0
  0
VERTEX
  5
162
  8
0
 10
12.8668
 20
48.9423
 30
0.0
  0
VERTEX
  5
163
  8
0
 10
12.8502
 20
48.9423
 30
0.0
  0
VERTEX
  5
164
  8
0
 10
3.85025
 20
48.9423
 30
0.0
  0
VERTEX
  5
165
  8
0
 10
0.850251
 20
48.9423
 30
0.0
  0
VERTEX
  5
166
  8
0
 10
0.832337
 20
48.9423
 30
0.0
  0
VERTEX
  5
167
  8
0
 10
0.778591
 20
48.9133
 30
0.0
  0
VERTEX
  5
168
  8
0
 10
0.749653
 20
48.8597
 30
0.0
  0
VERTEX
  5
169
  8
0
 10
0.749653
 20
48.8417
 30
0.0
  0
VERTEX
  5
16A
  8
0
 10
0.749653
 20
45.8417
 30
0.0
  0
VERTEX
  5
16B
  8
0
 10
0.749653
 20
39.842
 30
0.0
  0
VERTEX
  5
16C
  8
0
 10
0.749653
 20
39.8254
 30
0.0
  0
VERTEX
  5
16D
  8
0
 10
0.778591
 20
39.7715
 30
0.0
  0
VERTEX
  5
16E
  8
0
 10
0.832337
 20
39.7411
 30
0.0
  0
VERTEX
  5
16F
  8
0
 10
0.850251
 20
39.7411
 30
0.0
  0
VERTEX
  5
170
  8
0
 10
3.85025
 20
39.7411
 30
0.0
  0
VERTEX
  5
171
  8
0
 10
3.83233
 20
39.7411
 30
0.0
  0
VERTEX
  5
172
  8
0
 10
3.77857
 20
39.7715
 30
0.0
  0
VERTEX
  5
173
  8
0
 10
3.74964
 20
39.8254
 30
0.0
  0
VERTEX
  5
174
  8
0
 10
3.74964
 20
39.842
 30
0.0
  0
VERTEX
  5
175
  8
0
 10
3.74964
 20
33.8419
 30
0.0
  0
VERTEX
  5
176
  8
0
 10
3.74964
 20
33.8598
 30
0.0
  0
VERTEX
  5
177
  8
0
 10
3.77857
 20
33.9135
 30
0.0
  0
VERTEX
  5
178
  8
0
 10
3.83233
 20
33.9424
 30
0.0
  0
VERTEX
  5
179
  8
0
 10
3.85025
 20
33.9424
 30
0.0
  0
VERTEX
  5
17A
  8
0
 10
0.850251
 20
33.9424
 30
0.0
  0
VERTEX
  5
17B
  8
0
 10
0.832337
 20
33.9424
 30
0.0
  0
VERTEX
  5
17C
  8
0
 10
0.778591
 20
33.9135
 30
0.0
  0
VERTEX
  5
17D
  8
0
 10
0.749653
 20
33.8598
 30
0.0
  0
VERTEX
  5
17E
  8
0
 10
0.749653
 20
33.8419
 30
0.0
  0
VERTEX
  5
17F
  8
0
 10
0.749653
 20
27.8419
 30
0.0
  0
VERTEX
  5
180
  8
0
 10
0.749653
 20
27.8253
 30
0.0
  0
VERTEX
  5
181
  8
0
 10
0.778591
 20
27.7716
 30
0.0
  0
VERTEX
  5
182
  8
0
 10
0.832337
 20
27.7413
 30
0.0
  0
VERTEX
  5
183
  8
0
 10
0.850251
 20
27.7413
 30
0.0
  0
VERTEX
  5
184
  8
0
 10
3.85025
 20
27.7413
 30
0.0
  0
VERTEX
  5
185
  8
0
 10
3.83233
 20
27.7413
 30
0.0
  0
VERTEX
  5
186
  8
0
 10
3.77857
 20
27.7716
 30
0.0
  0
VERTEX
  5
187
  8
0
 10
3.74964
 20
27.8253
 30
0.0
  0
VERTEX
  5
188
  8
0
 10
3.74964
 20
27.8419
 30
0.0
  0
VERTEX
  5
189
  8
0
 10
3.74964
 20
21.8419
 30
0.0
  0
VERTEX
  5
18A
  8
0
 10
3.74964
 20
21.8598
 30
0.0
  0
VERTEX
  5
18B
  8
0
 10
3.77857
 20
21.9136
 30
0.0
  0
VERTEX
  5
18C
  8
0
 10
3.83233
 20
21.9425
 30
0.0
  0
VERTEX
  5
18D
  8
0
 10
3.85025
 20
21.9425
 30
0.0
  0
VERTEX
  5
18E
  8
0
 10
0.850251
 20
21.9425
 30
0.0
  0
VERTEX
  5
18F
  8
0
 10
0.832337
 20
21.9425
 30
0.0
  0
VERTEX
  5
190
  8
0
 10
0.778591
 20
21.9136
 30
0.0
  0
VERTEX
  5
191
  8
0
 10
0.749653
 20
21.8598
 30
0.0
  0
VERTEX
  5
192
  8
0
 10
0.749653
 20
21.8419
 30
0.0
  0
VERTEX
  5
193
  8
0
 10
0.749653
 20
15.8419
 30
0.0
  0
VERTEX
  5
194
  8
0
 10
0.749653
 20
12.8419
 30
0.0
  0
VERTEX
  5
195
  8
0
 10
0.749653
 20
12.8254
 30
0.0
  0
VERTEX
  5
196
  8
0
 10
0.778591
 20
12.7716
 30
0.0
  0
VERTEX
  5
197
  8
0
 10
0.832337
 20
12.7413
 30
0.0
  0
VERTEX
  5
198
  8
0
 10
0.850251
 20
12.7413
 30
0.0
  0
SEQEND
  5
795
  8
0
  0
POLYLINE
  5
70
  8
0
 66
     1
 10
0.0
 20
0.0
 30
0.0
 70
     1
  0
VERTEX
  5
199
  8
0
 10
71.5504
 20
12.7413
 30
0.0
  0
VERTEX
  5
19A
  8
0
 10
82.55
 20
12.7413
 30
0.0
  0
VERTEX
  5
19B
  8
0
 10
82.5666
 20
12.7413
 30
0.0
  0
VERTEX
  5
19C
  8
0
 10
82.6202
 20
12.7716
 30
0.0
  0
VERTEX
  5
19D
  8
0
 10
82.6505
 20
12.8254
 30
0.0
  0
VERTEX
  5
19E
  8
0
 10
82.6505
 20
12.8419
 30
0.0
  0
VERTEX
  5
19F
  8
0
 10
82.6505
 20
15.8419
 30
0.0
  0
VERTEX
  5
1A0
  8
0
 10
82.6505
 20
15.8254
 30
0.0
  0
VERTEX
  5
1A1
  8
0
 10
82.6202
 20
15.7716
 30
0.0
  0
VERTEX
  5
1A2
  8
0
 10
82.5666
 20
15.7413
 30
0.0
  0
VERTEX
  5
1A3
  8
0
 10
82.55
 20
15.7413
 30
0.0
  0
VERTEX
  5
1A4
  8
0
 10
88.55
 20
15.7413
 30
0.0
  0
VERTEX
  5
1A5
  8
0
 10
88.5321
 20
15.7413
 30
0.0
  0
VERTEX
  5
1A6
  8
0
 10
88.4784
 20
15.7716
 30
0.0
  0
VERTEX
  5
1A7
  8
0
 10
88.4495
 20
15.8254
 30
0.0
  0
VERTEX
  5
1A8
  8
0
 10
88.4495
 20
15.8419
 30
0.0
  0
VERTEX
  5
1A9
  8
0
 10
88.4495
 20
12.8419
 30
0.0
  0
VERTEX
  5
1AA
  8
0
 10
88.4495
 20
12.8254
 30
0.0
  0
VERTEX
  5
1AB
  8
0
 10
88.4784
 20
12.7716
 30
0.0
  0
VERTEX
  5
1AC
  8
0
 10
88.5321
 20
12.7413
 30
0.0
  0
VERTEX
  5
1AD
  8
0
 10
88.55
 20
12.7413
 30
0.0
  0
VERTEX
  5
1AE
  8
0
 10
94.5501
 20
12.7413
 30
0.0
  0
VERTEX
  5
1AF
  8
0
 10
94.5667
 20
12.7413
 30
0.0
  0
VERTEX
  5
1B0
  8
0
 10
94.6203
 20
12.7716
 30
0.0
  0
VERTEX
  5
1B1
  8
0
 10
94.6506
 20
12.8254
 30
0.0
  0
VERTEX
  5
1B2
  8
0
 10
94.6506
 20
12.8419
 30
0.0
  0
VERTEX
  5
1B3
  8
0
 10
94.6506
 20
15.8419
 30
0.0
  0
VERTEX
  5
1B4
  8
0
 10
94.6506
 20
15.8254
 30
0.0
  0
VERTEX
  5
1B5
  8
0
 10
94.6203
 20
15.7716
 30
0.0
  0
VERTEX
  5
1B6
  8
0
 10
94.5667
 20
15.7413
 30
0.0
  0
VERTEX
  5
1B7
  8
0
 10
94.5501
 20
15.7413
 30
0.0
  0
VERTEX
  5
1B8
  8
0
 10
100.55
 20
15.7413
 30
0.0
  0
VERTEX
  5
1B9
  8
0
 10
100.532
 20
15.7413
 30
0.0
  0
VERTEX
  5
1BA
  8
0
 10
100.478
 20
15.7716
 30
0.0
  0
VERTEX
  5
1BB
  8
0
 10
100.449
 20
15.8254
 30
0.0
  0
VERTEX
  5
1BC
  8
0
 10
100.449
 20
15.8419
 30
0.0
  0
VERTEX
  5
1BD
  8
0
 10
100.449
 20
12.8419
 30
0.0
  0
VERTEX
  5
1BE
  8
0
 10
100.449
 20
12.8254
 30
0.0
  0
VERTEX
  5
1BF
  8
0
 10
100.478
 20
12.7716
 30
0.0
  0
VERTEX
  5
1C0
  8
0
 10
100.532
 20
12.7413
 30
0.0
  0
VERTEX
  5
1C1
  8
0
 10
100.55
 20
12.7413
 30
0.0
  0
VERTEX
  5
1C2
  8
0
 10
111.549
 20
12.7413
 30
0.0
  0
VERTEX
  5
1C3
  8
0
 10
111.566
 20
12.7413
 30
0.0
  0
VERTEX
  5
1C4
  8
0
 10
111.62
 20
12.7716
 30
0.0
  0
VERTEX
  5
1C5
  8
0
 10
111.65
 20
12.8254
 30
0.0
  0
VERTEX
  5
1C6
  8
0
 10
111.65
 20
12.8419
 30
0.0
  0
VERTEX
  5
1C7
  8
0
 10
111.65
 20
15.8419
 30
0.0
  0
VERTEX
  5
1C8
  8
0
 10
111.65
 20
21.8419
 30
0.0
  0
VERTEX
  5
1C9
  8
0
 10
111.65
 20
21.8254
 30
0.0
  0
VERTEX
  5
1CA
  8
0
 10
111.62
 20
21.7716
 30
0.0
  0
VERTEX
  5
1CB
  8
0
 10
111.566
 20
21.7413
 30
0.0
  0
VERTEX
  5
1CC
  8
0
 10
111.549
 20
21.7413
 30
0.0
  0
VERTEX
  5
1CD
  8
0
 10
114.549
 20
21.7413
 30
0.0
  0
VERTEX
  5
1CE
  8
0
 10
114.566
 20
21.7413
 30
0.0
  0
VERTEX
  5
1CF
  8
0
 10
114.62
 20
21.7716
 30
0.0
  0
VERTEX
  5
1D0
  8
0
 10
114.65
 20
21.8254
 30
0.0
  0
VERTEX
  5
1D1
  8
0
 10
114.65
 20
21.8419
 30
0.0
  0
VERTEX
  5
1D2
  8
0
 10
114.65
 20
27.8419
 30
0.0
  0
VERTEX
  5
1D3
  8
0
 10
114.65
 20
27.8598
 30
0.0
  0
VERTEX
  5
1D4
  8
0
 10
114.62
 20
27.9135
 30
0.0
  0
VERTEX
  5
1D5
  8
0
 10
114.566
 20
27.9425
 30
0.0
  0
VERTEX
  5
1D6
  8
0
 10
114.549
 20
27.9425
 30
0.0
  0
VERTEX
  5
1D7
  8
0
 10
111.549
 20
27.9425
 30
0.0
  0
VERTEX
  5
1D8
  8
0
 10
111.566
 20
27.9425
 30
0.0
  0
VERTEX
  5
1D9
  8
0
 10
111.62
 20
27.9135
 30
0.0
  0
VERTEX
  5
1DA
  8
0
 10
111.65
 20
27.8598
 30
0.0
  0
VERTEX
  5
1DB
  8
0
 10
111.65
 20
27.8419
 30
0.0
  0
VERTEX
  5
1DC
  8
0
 10
111.65
 20
33.8419
 30
0.0
  0
VERTEX
  5
1DD
  8
0
 10
111.65
 20
33.8253
 30
0.0
  0
VERTEX
  5
1DE
  8
0
 10
111.62
 20
33.7716
 30
0.0
  0
VERTEX
  5
1DF
  8
0
 10
111.566
 20
33.7413
 30
0.0
  0
VERTEX
  5
1E0
  8
0
 10
111.549
 20
33.7413
 30
0.0
  0
VERTEX
  5
1E1
  8
0
 10
114.549
 20
33.7413
 30
0.0
  0
VERTEX
  5
1E2
  8
0
 10
114.566
 20
33.7413
 30
0.0
  0
VERTEX
  5
1E3
  8
0
 10
114.62
 20
33.7716
 30
0.0
  0
VERTEX
  5
1E4
  8
0
 10
114.65
 20
33.8253
 30
0.0
  0
VERTEX
  5
1E5
  8
0
 10
114.65
 20
33.8419
 30
0.0
  0
VERTEX
  5
1E6
  8
0
 10
114.65
 20
39.842
 30
0.0
  0
VERTEX
  5
1E7
  8
0
 10
114.65
 20
39.8597
 30
0.0
  0
VERTEX
  5
1E8
  8
0
 10
114.62
 20
39.9136
 30
0.0
  0
VERTEX
  5
1E9
  8
0
 10
114.566
 20
39.9426
 30
0.0
  0
VERTEX
  5
1EA
  8
0
 10
114.549
 20
39.9426
 30
0.0
  0
VERTEX
  5
1EB
  8
0
 10
111.549
 20
39.9426
 30
0.0
  0
VERTEX
  5
1EC
  8
0
 10
111.566
 20
39.9426
 30
0.0
  0
VERTEX
  5
1ED
  8
0
 10
111.62
 20
39.9136
 30
0.0
  0
VERTEX
  5
1EE
  8
0
 10
111.65
 20
39.8597
 30
0.0
  0
VERTEX
  5
1EF
  8
0
 10
111.65
 20
39.842
 30
0.0
  0
VERTEX
  5
1F0
  8
0
 10
111.65
 20
45.8417
 30
0.0
  0
VERTEX
  5
1F1
  8
0
 10
111.65
 20
48.8417
 30
0.0
  0
VERTEX
  5
1F2
  8
0
 10
111.65
 20
48.8597
 30
0.0
  0
VERTEX
  5
1F3
  8
0
 10
111.62
 20
48.9133
 30
0.0
  0
VERTEX
  5
1F4
  8
0
 10
111.566
 20
48.9423
 30
0.0
  0
VERTEX
  5
1F5
  8
0
 10
111.549
 20
48.9423
 30
0.0
  0
VERTEX
  5
1F6
  8
0
 10
100.55
 20
48.9423
 30
0.0
  0
VERTEX
  5
1F7
  8
0
 10
100.532
 20
48.9423
 30
0.0
  0
VERTEX
  5
1F8
  8
0
 10
100.478
 20
48.9133
 30
0.0
  0
VERTEX
  5
1F9
  8
0
 10
100.449
 20
48.8597
 30
0.0
  0
VERTEX
  5
1FA
  8
0
 10
100.449
 20
48.8417
 30
0.0
  0
VERTEX
  5
1FB
  8
0
 10
100.449
 20
45.8417
 30
0.0
  0
VERTEX
  5
1FC
  8
0
 10
100.449
 20
45.8597
 30
0.0
  0
VERTEX
  5
1FD
  8
0
 10
100.478
 20
45.9133
 30
0.0
  0
VERTEX
  5
1FE
  8
0
 10
100.532
 20
45.9422
 30
0.0
  0
VERTEX
  5
1FF
  8
0
 10
100.55
 20
45.9422
 30
0.0
  0
VERTEX
  5
200
  8
0
 10
94.5501
 20
45.9422
 30
0.0
  0
VERTEX
  5
201
  8
0
 10
94.5667
 20
45.9422
 30
0.0
  0
VERTEX
  5
202
  8
0
 10
94.6203
 20
45.9133
 30
0.0
  0
VERTEX
  5
203
  8
0
 10
94.6506
 20
45.8597
 30
0.0
  0
VERTEX
  5
204
  8
0
 10
94.6506
 20
45.8417
 30
0.0
  0
VERTEX
  5
205
  8
0
 10
94.6506
 20
48.8417
 30
0.0
  0
VERTEX
  5
206
  8
0
 10
94.6506
 20
48.8597
 30
0.0
  0
VERTEX
  5
207
  8
0
 10
94.6203
 20
48.9133
 30
0.0
  0
VERTEX
  5
208
  8
0
 10
94.5667
 20
48.9423
 30
0.0
  0
VERTEX
  5
209
  8
0
 10
94.5501
 20
48.9423
 30
0.0
  0
VERTEX
  5
20A
  8
0
 10
88.55
 20
48.9423
 30
0.0
  0
VERTEX
  5
20B
  8
0
 10
88.5321
 20
48.9423
 30
0.0
  0
VERTEX
  5
20C
  8
0
 10
88.4784
 20
48.9133
 30
0.0
  0
VERTEX
  5
20D
  8
0
 10
88.4495
 20
48.8597
 30
0.0
  0
VERTEX
  5
20E
  8
0
 10
88.4495
 20
48.8417
 30
0.0
  0
VERTEX
  5
20F
  8
0
 10
88.4495
 20
45.8417
 30
0.0
  0
VERTEX
  5
210
  8
0
 10
88.4495
 20
45.8597
 30
0.0
  0
VERTEX
  5
211
  8
0
 10
88.4784
 20
45.9133
 30
0.0
  0
VERTEX
  5
212
  8
0
 10
88.5321
 20
45.9422
 30
0.0
  0
VERTEX
  5
213
  8
0
 10
88.55
 20
45.9422
 30
0.0
  0
VERTEX
  5
214
  8
0
 10
82.55
 20
45.9422
 30
0.0
  0
VERTEX
  5
215
  8
0
 10
82.5666
 20
45.9422
 30
0.0
  0
VERTEX
  5
216
  8
0
 10
82.6202
 20
45.9133
 30
0.0
  0
VERTEX
  5
217
  8
0
 10
82.6505
 20
45.8597
 30
0.0
  0
VERTEX
  5
218
  8
0
 10
82.6505
 20
45.8417
 30
0.0
  0
VERTEX
  5
219
  8
0
 10
82.6505
 20
48.8417
 30
0.0
  0
VERTEX
  5
21A
  8
0
 10
82.6505
 20
48.8597
 30
0.0
  0
VERTEX
  5
21B
  8
0
 10
82.6202
 20
48.9133
 30
0.0
  0
VERTEX
  5
21C
  8
0
 10
82.5666
 20
48.9423
 30
0.0
  0
VERTEX
  5
21D
  8
0
 10
82.55
 20
48.9423
 30
0.0
  0
VERTEX
  5
21E
  8
0
 10
71.5504
 20
48.9423
 30
0.0
  0
VERTEX
  5
21F
  8
0
 10
71.5328
 20
48.9423
 30
0.0
  0
VERTEX
  5
220
  8
0
 10
71.4788
 20
48.9133
 30
0.0
  0
VERTEX
  5
221
  8
0
 10
71.4498
 20
48.8597
 30
0.0
  0
VERTEX
  5
222
  8
0
 10
71.4498
 20
48.8417
 30
0.0
  0
VERTEX
  5
223
  8
0
 10
71.4498
 20
45.8417
 30
0.0
  0
VERTEX
  5
224
  8
0
 10
71.4498
 20
39.842
 30
0.0
  0
VERTEX
  5
225
  8
0
 10
71.4498
 20
39.8597
 30
0.0
  0
VERTEX
  5
226
  8
0
 10
71.4788
 20
39.9136
 30
0.0
  0
VERTEX
  5
227
  8
0
 10
71.5328
 20
39.9426
 30
0.0
  0
VERTEX
  5
228
  8
0
 10
71.5504
 20
39.9426
 30
0.0
  0
VERTEX
  5
229
  8
0
 10
68.5504
 20
39.9426
 30
0.0
  0
VERTEX
  5
22A
  8
0
 10
68.5327
 20
39.9426
 30
0.0
  0
VERTEX
  5
22B
  8
0
 10
68.4788
 20
39.9136
 30
0.0
  0
VERTEX
  5
22C
  8
0
 10
68.4498
 20
39.8597
 30
0.0
  0
VERTEX
  5
22D
  8
0
 10
68.4498
 20
39.842
 30
0.0
  0
VERTEX
  5
22E
  8
0
 10
68.4498
 20
33.8419
 30
0.0
  0
VERTEX
  5
22F
  8
0
 10
68.4498
 20
33.8253
 30
0.0
  0
VERTEX
  5
230
  8
0
 10
68.4788
 20
33.7716
 30
0.0
  0
VERTEX
  5
231
  8
0
 10
68.5327
 20
33.7413
 30
0.0
  0
VERTEX
  5
232
  8
0
 10
68.5504
 20
33.7413
 30
0.0
  0
VERTEX
  5
233
  8
0
 10
71.5504
 20
33.7413
 30
0.0
  0
VERTEX
  5
234
  8
0
 10
71.5328
 20
33.7413
 30
0.0
  0
VERTEX
  5
235
  8
0
 10
71.4788
 20
33.7716
 30
0.0
  0
VERTEX
  5
236
  8
0
 10
71.4498
 20
33.8253
 30
0.0
  0
VERTEX
  5
237
  8
0
 10
71.4498
 20
33.8419
 30
0.0
  0
VERTEX
  5
238
  8
0
 10
71.4498
 20
27.8419
 30
0.0
  0
VERTEX
  5
239
  8
0
 10
71.4498
 20
27.8598
 30
0.0
  0
VERTEX
  5
23A
  8
0
 10
71.4788
 20
27.9135
 30
0.0
  0
VERTEX
  5
23B
  8
0
 10
71.5328
 20
27.9425
 30
0.0
  0
VERTEX
  5
23C
  8
0
 10
71.5504
 20
27.9425
 30
0.0
  0
VERTEX
  5
23D
  8
0
 10
68.5504
 20
27.9425
 30
0.0
  0
VERTEX
  5
23E
  8
0
 10
68.5327
 20
27.9425
 30
0.0
  0
VERTEX
  5
23F
  8
0
 10
68.4788
 20
27.9135
 30
0.0
  0
VERTEX
  5
240
  8
0
 10
68.4498
 20
27.8598
 30
0.0
  0
VERTEX
  5
241
  8
0
 10
68.4498
 20
27.8419
 30
0.0
  0
VERTEX
  5
242
  8
0
 10
68.4498
 20
21.8419
 30
0.0
  0
VERTEX
  5
243
  8
0
 10
68.4498
 20
21.8254
 30
0.0
  0
VERTEX
  5
244
  8
0
 10
68.4788
 20
21.7716
 30
0.0
  0
VERTEX
  5
245
  8
0
 10
68.5327
 20
21.7413
 30
0.0
  0
VERTEX
  5
246
  8
0
 10
68.5504
 20
21.7413
 30
0.0
  0
VERTEX
  5
247
  8
0
 10
71.5504
 20
21.7413
 30
0.0
  0
VERTEX
  5
248
  8
0
 10
71.5328
 20
21.7413
 30
0.0
  0
VERTEX
  5
249
  8
0
 10
71.4788
 20
21.7716
 30
0.0
  0
VERTEX
  5
24A
  8
0
 10
71.4498
 20
21.8254
 30
0.0
  0
VERTEX
  5
24B
  8
0
 10
71.4498
 20
21.8419
 30
0.0
  0
VERTEX
  5
24C
  8
0
 10
71.4498
 20
15.8419
 30
0.0
  0
VERTEX
  5
24D
  8
0
 10
71.4498
 20
12.8419
 30
0.0
  0
VERTEX
  5
24E
  8
0
 10
71.4498
 20
12.8254
 30
0.0
  0
VERTEX
  5
24F
  8
0
 10
71.4788
 20
12.7716
 30
0.0
  0
VERTEX
  5
250
  8
0
 10
71.5328
 20
12.7413
 30
0.0
  0
SEQEND
  5
796
  8
0
  0
POLYLINE
  5
71
  8
0
 66
     1
 10
0.0
 20
0.0
 30
0.0
 70
     1
  0
VERTEX
  5
251
  8
0
 10
71.5504
 20
50.4416
 30
0.0
  0
VERTEX
  5
252
  8
0
 10
82.55
 20
50.4416
 30
0.0
  0
VERTEX
  5
253
  8
0
 10
82.5666
 20
50.4416
 30
0.0
  0
VERTEX
  5
254
  8
0
 10
82.6202
 20
50.4719
 30
0.0
  0
VERTEX
  5
255
  8
0
 10
82.6505
 20
50.5259
 30
0.0
  0
VERTEX
  5
256
  8
0
 10
82.6505
 20
50.5425
 30
0.0
  0
VERTEX
  5
257
  8
0
 10
82.6505
 20
53.5421
 30
0.0
  0
VERTEX
  5
258
  8
0
 10
82.6505
 20
53.5259
 30
0.0
  0
VERTEX
  5
259
  8
0
 10
82.6202
 20
53.4719
 30
0.0
  0
VERTEX
  5
25A
  8
0
 10
82.5666
 20
53.4416
 30
0.0
  0
VERTEX
  5
25B
  8
0
 10
82.55
 20
53.4416
 30
0.0
  0
VERTEX
  5
25C
  8
0
 10
88.55
 20
53.4416
 30
0.0
  0
VERTEX
  5
25D
  8
0
 10
88.5321
 20
53.4416
 30
0.0
  0
VERTEX
  5
25E
  8
0
 10
88.4784
 20
53.4719
 30
0.0
  0
VERTEX
  5
25F
  8
0
 10
88.4495
 20
53.5259
 30
0.0
  0
VERTEX
  5
260
  8
0
 10
88.4495
 20
53.5421
 30
0.0
  0
VERTEX
  5
261
  8
0
 10
88.4495
 20
50.5425
 30
0.0
  0
VERTEX
  5
262
  8
0
 10
88.4495
 20
50.5259
 30
0.0
  0
VERTEX
  5
263
  8
0
 10
88.4784
 20
50.4719
 30
0.0
  0
VERTEX
  5
264
  8
0
 10
88.5321
 20
50.4416
 30
0.0
  0
VERTEX
  5
265
  8
0
 10
88.55
 20
50.4416
 30
0.0
  0
VERTEX
  5
266
  8
0
 10
94.5501
 20
50.4416
 30
0.0
  0
VERTEX
  5
267
  8
0
 10
94.5667
 20
50.4416
 30
0.0
  0
VERTEX
  5
268
  8
0
 10
94.6203
 20
50.4719
 30
0.0
  0
VERTEX
  5
269
  8
0
 10
94.6506
 20
50.5259
 30
0.0
  0
VERTEX
  5
26A
  8
0
 10
94.6506
 20
50.5425
 30
0.0
  0
VERTEX
  5
26B
  8
0
 10
94.6506
 20
53.5421
 30
0.0
  0
VERTEX
  5
26C
  8
0
 10
94.6506
 20
53.5259
 30
0.0
  0
VERTEX
  5
26D
  8
0
 10
94.6203
 20
53.4719
 30
0.0
  0
VERTEX
  5
26E
  8
0
 10
94.5667
 20
53.4416
 30
0.0
  0
VERTEX
  5
26F
  8
0
 10
94.5501
 20
53.4416
 30
0.0
  0
VERTEX
  5
270
  8
0
 10
100.55
 20
53.4416
 30
0.0
  0
VERTEX
  5
271
  8
0
 10
100.532
 20
53.4416
 30
0.0
  0
VERTEX
  5
272
  8
0
 10
100.478
 20
53.4719
 30
0.0
  0
VERTEX
  5
273
  8
0
 10
100.449
 20
53.5259
 30
0.0
  0
VERTEX
  5
274
  8
0
 10
100.449
 20
53.5421
 30
0.0
  0
VERTEX
  5
275
  8
0
 10
100.449
 20
50.5425
 30
0.0
  0
VERTEX
  5
276
  8
0
 10
100.449
 20
50.5259
 30
0.0
  0
VERTEX
  5
277
  8
0
 10
100.478
 20
50.4719
 30
0.0
  0
VERTEX
  5
278
  8
0
 10
100.532
 20
50.4416
 30
0.0
  0
VERTEX
  5
279
  8
0
 10
100.55
 20
50.4416
 30
0.0
  0
VERTEX
  5
27A
  8
0
 10
111.549
 20
50.4416
 30
0.0
  0
VERTEX
  5
27B
  8
0
 10
111.566
 20
50.4416
 30
0.0
  0
VERTEX
  5
27C
  8
0
 10
111.62
 20
50.4719
 30
0.0
  0
VERTEX
  5
27D
  8
0
 10
111.65
 20
50.5259
 30
0.0
  0
VERTEX
  5
27E
  8
0
 10
111.65
 20
50.5425
 30
0.0
  0
VERTEX
  5
27F
  8
0
 10
111.65
 20
53.5421
 30
0.0
  0
VERTEX
  5
280
  8
0
 10
111.65
 20
59.5422
 30
0.0
  0
VERTEX
  5
281
  8
0
 10
111.65
 20
59.5256
 30
0.0
  0
VERTEX
  5
282
  8
0
 10
111.62
 20
59.472
 30
0.0
  0
VERTEX
  5
283
  8
0
 10
111.566
 20
59.4416
 30
0.0
  0
VERTEX
  5
284
  8
0
 10
111.549
 20
59.4416
 30
0.0
  0
VERTEX
  5
285
  8
0
 10
114.549
 20
59.4416
 30
0.0
  0
VERTEX
  5
286
  8
0
 10
114.566
 20
59.4416
 30
0.0
  0
VERTEX
  5
287
  8
0
 10
114.62
 20
59.472
 30
0.0
  0
VERTEX
  5
288
  8
0
 10
114.65
 20
59.5256
 30
0.0
  0
VERTEX
  5
289
  8
0
 10
114.65
 20
59.5422
 30
0.0
  0
VERTEX
  5
28A
  8
0
 10
114.65
 20
65.5422
 30
0.0
  0
VERTEX
  5
28B
  8
0
 10
114.65
 20
65.5602
 30
0.0
  0
VERTEX
  5
28C
  8
0
 10
114.62
 20
65.6138
 30
0.0
  0
VERTEX
  5
28D
  8
0
 10
114.566
 20
65.6428
 30
0.0
  0
VERTEX
  5
28E
  8
0
 10
114.549
 20
65.6428
 30
0.0
  0
VERTEX
  5
28F
  8
0
 10
111.549
 20
65.6428
 30
0.0
  0
VERTEX
  5
290
  8
0
 10
111.566
 20
65.6428
 30
0.0
  0
VERTEX
  5
291
  8
0
 10
111.62
 20
65.6138
 30
0.0
  0
VERTEX
  5
292
  8
0
 10
111.65
 20
65.5602
 30
0.0
  0
VERTEX
  5
293
  8
0
 10
111.65
 20
65.5422
 30
0.0
  0
VERTEX
  5
294
  8
0
 10
111.65
 20
71.5423
 30
0.0
  0
VERTEX
  5
295
  8
0
 10
111.65
 20
71.5257
 30
0.0
  0
VERTEX
  5
296
  8
0
 10
111.62
 20
71.4721
 30
0.0
  0
VERTEX
  5
297
  8
0
 10
111.566
 20
71.4417
 30
0.0
  0
VERTEX
  5
298
  8
0
 10
111.549
 20
71.4417
 30
0.0
  0
VERTEX
  5
299
  8
0
 10
114.549
 20
71.4417
 30
0.0
  0
VERTEX
  5
29A
  8
0
 10
114.566
 20
71.4417
 30
0.0
  0
VERTEX
  5
29B
  8
0
 10
114.62
 20
71.4721
 30
0.0
  0
VERTEX
  5
29C
  8
0
 10
114.65
 20
71.5257
 30
0.0
  0
VERTEX
  5
29D
  8
0
 10
114.65
 20
71.5423
 30
0.0
  0
VERTEX
  5
29E
  8
0
 10
114.65
 20
77.5423
 30
0.0
  0
VERTEX
  5
29F
  8
0
 10
114.65
 20
77.56
 30
0.0
  0
VERTEX
  5
2A0
  8
0
 10
114.62
 20
77.6139
 30
0.0
  0
VERTEX
  5
2A1
  8
0
 10
114.566
 20
77.6429
 30
0.0
  0
VERTEX
  5
2A2
  8
0
 10
114.549
 20
77.6429
 30
0.0
  0
VERTEX
  5
2A3
  8
0
 10
111.549
 20
77.6429
 30
0.0
  0
VERTEX
  5
2A4
  8
0
 10
111.566
 20
77.6429
 30
0.0
  0
VERTEX
  5
2A5
  8
0
 10
111.62
 20
77.6139
 30
0.0
  0
VERTEX
  5
2A6
  8
0
 10
111.65
 20
77.56
 30
0.0
  0
VERTEX
  5
2A7
  8
0
 10
111.65
 20
77.5423
 30
0.0
  0
VERTEX
  5
2A8
  8
0
 10
111.65
 20
83.5424
 30
0.0
  0
VERTEX
  5
2A9
  8
0
 10
111.65
 20
86.542
 30
0.0
  0
VERTEX
  5
2AA
  8
0
 10
111.65
 20
86.56
 30
0.0
  0
VERTEX
  5
2AB
  8
0
 10
111.62
 20
86.614
 30
0.0
  0
VERTEX
  5
2AC
  8
0
 10
111.566
 20
86.6429
 30
0.0
  0
VERTEX
  5
2AD
  8
0
 10
111.549
 20
86.6429
 30
0.0
  0
VERTEX
  5
2AE
  8
0
 10
100.55
 20
86.6429
 30
0.0
  0
VERTEX
  5
2AF
  8
0
 10
100.532
 20
86.6429
 30
0.0
  0
VERTEX
  5
2B0
  8
0
 10
100.478
 20
86.614
 30
0.0
  0
VERTEX
  5
2B1
  8
0
 10
100.449
 20
86.56
 30
0.0
  0
VERTEX
  5
2B2
  8
0
 10
100.449
 20
86.542
 30
0.0
  0
VERTEX
  5
2B3
  8
0
 10
100.449
 20
83.5424
 30
0.0
  0
VERTEX
  5
2B4
  8
0
 10
100.449
 20
83.56
 30
0.0
  0
VERTEX
  5
2B5
  8
0
 10
100.478
 20
83.614
 30
0.0
  0
VERTEX
  5
2B6
  8
0
 10
100.532
 20
83.6429
 30
0.0
  0
VERTEX
  5
2B7
  8
0
 10
100.55
 20
83.6429
 30
0.0
  0
VERTEX
  5
2B8
  8
0
 10
94.5501
 20
83.6429
 30
0.0
  0
VERTEX
  5
2B9
  8
0
 10
94.5667
 20
83.6429
 30
0.0
  0
VERTEX
  5
2BA
  8
0
 10
94.6203
 20
83.614
 30
0.0
  0
VERTEX
  5
2BB
  8
0
 10
94.6506
 20
83.56
 30
0.0
  0
VERTEX
  5
2BC
  8
0
 10
94.6506
 20
83.5424
 30
0.0
  0
VERTEX
  5
2BD
  8
0
 10
94.6506
 20
86.542
 30
0.0
  0
VERTEX
  5
2BE
  8
0
 10
94.6506
 20
86.56
 30
0.0
  0
VERTEX
  5
2BF
  8
0
 10
94.6203
 20
86.614
 30
0.0
  0
VERTEX
  5
2C0
  8
0
 10
94.5667
 20
86.6429
 30
0.0
  0
VERTEX
  5
2C1
  8
0
 10
94.5501
 20
86.6429
 30
0.0
  0
VERTEX
  5
2C2
  8
0
 10
88.55
 20
86.6429
 30
0.0
  0
VERTEX
  5
2C3
  8
0
 10
88.5321
 20
86.6429
 30
0.0
  0
VERTEX
  5
2C4
  8
0
 10
88.4784
 20
86.614
 30
0.0
  0
VERTEX
  5
2C5
  8
0
 10
88.4495
 20
86.56
 30
0.0
  0
VERTEX
  5
2C6
  8
0
 10
88.4495
 20
86.542
 30
0.0
  0
VERTEX
  5
2C7
  8
0
 10
88.4495
 20
83.5424
 30
0.0
  0
VERTEX
  5
2C8
  8
0
 10
88.4495
 20
83.56
 30
0.0
  0
VERTEX
  5
2C9
  8
0
 10
88.4784
 20
83.614
 30
0.0
  0
VERTEX
  5
2CA
  8
0
 10
88.5321
 20
83.6429
 30
0.0
  0
VERTEX
  5
2CB
  8
0
 10
88.55
 20
83.6429
 30
0.0
  0
VERTEX
  5
2CC
  8
0
 10
82.55
 20
83.6429
 30
0.0
  0
VERTEX
  5
2CD
  8
0
 10
82.5666
 20
83.6429
 30
0.0
  0
VERTEX
  5
2CE
  8
0
 10
82.6202
 20
83.614
 30
0.0
  0
VERTEX
  5
2CF
  8
0
 10
82.6505
 20
83.56
 30
0.0
  0
VERTEX
  5
2D0
  8
0
 10
82.6505
 20
83.5424
 30
0.0
  0
VERTEX
  5
2D1
  8
0
 10
82.6505
 20
86.542
 30
0.0
  0
VERTEX
  5
2D2
  8
0
 10
82.6505
 20
86.56
 30
0.0
  0
VERTEX
  5
2D3
  8
0
 10
82.6202
 20
86.614
 30
0.0
  0
VERTEX
  5
2D4
  8
0
 10
82.5666
 20
86.6429
 30
0.0
  0
VERTEX
  5
2D5
  8
0
 10
82.55
 20
86.6429
 30
0.0
  0
VERTEX
  5
2D6
  8
0
 10
71.5504
 20
86.6429
 30
0.0
  0
VERTEX
  5
2D7
  8
0
 10
71.5328
 20
86.6429
 30
0.0
  0
VERTEX
  5
2D8
  8
0
 10
71.4788
 20
86.614
 30
0.0
  0
VERTEX
  5
2D9
  8
0
 10
71.4498
 20
86.56
 30
0.0
  0
VERTEX
  5
2DA
  8
0
 10
71.4498
 20
86.542
 30
0.0
  0
VERTEX
  5
2DB
  8
0
 10
71.4498
 20
83.5424
 30
0.0
  0
VERTEX
  5
2DC
  8
0
 10
71.4498
 20
77.5423
 30
0.0
  0
VERTEX
  5
2DD
  8
0
 10
71.4498
 20
77.56
 30
0.0
  0
VERTEX
  5
2DE
  8
0
 10
71.4788
 20
77.6139
 30
0.0
  0
VERTEX
  5
2DF
  8
0
 10
71.5328
 20
77.6429
 30
0.0
  0
VERTEX
  5
2E0
  8
0
 10
71.5504
 20
77.6429
 30
0.0
  0
VERTEX
  5
2E1
  8
0
 10
68.5504
 20
77.6429
 30
0.0
  0
VERTEX
  5
2E2
  8
0
 10
68.5327
 20
77.6429
 30
0.0
  0
VERTEX
  5
2E3
  8
0
 10
68.4788
 20
77.6139
 30
0.0
  0
VERTEX
  5
2E4
  8
0
 10
68.4498
 20
77.56
 30
0.0
  0
VERTEX
  5
2E5
  8
0
 10
68.4498
 20
77.5423
 30
0.0
  0
VERTEX
  5
2E6
  8
0
 10
68.4498
 20
71.5423
 30
0.0
  0
VERTEX
  5
2E7
  8
0
 10
68.4498
 20
71.5257
 30
0.0
  0
VERTEX
  5
2E8
  8
0
 10
68.4788
 20
71.4721
 30
0.0
  0
VERTEX
  5
2E9
  8
0
 10
68.5327
 20
71.4417
 30
0.0
  0
VERTEX
  5
2EA
  8
0
 10
68.5504
 20
71.4417
 30
0.0
  0
VERTEX
  5
2EB
  8
0
 10
71.5504
 20
71.4417
 30
0.0
  0
VERTEX
  5
2EC
  8
0
 10
71.5328
 20
71.4417
 30
0.0
  0
VERTEX
  5
2ED
  8
0
 10
71.4788
 20
71.4721
 30
0.0
  0
VERTEX
  5
2EE
  8
0
 10
71.4498
 20
71.5257
 30
0.0
  0
VERTEX
  5
2EF
  8
0
 10
71.4498
 20
71.5423
 30
0.0
  0
VERTEX
  5
2F0
  8
0
 10
71.4498
 20
65.5422
 30
0.0
  0
VERTEX
  5
2F1
  8
0
 10
71.4498
 20
65.5602
 30
0.0
  0
VERTEX
  5
2F2
  8
0
 10
71.4788
 20
65.6138
 30
0.0
  0
VERTEX
  5
2F3
  8
0
 10
71.5328
 20
65.6428
 30
0.0
  0
VERTEX
  5
2F4
  8
0
 10
71.5504
 20
65.6428
 30
0.0
  0
VERTEX
  5
2F5
  8
0
 10
68.5504
 20
65.6428
 30
0.0
  0
VERTEX
  5
2F6
  8
0
 10
68.5327
 20
65.6428
 30
0.0
  0
VERTEX
  5
2F7
  8
0
 10
68.4788
 20
65.6138
 30
0.0
  0
VERTEX
  5
2F8
  8
0
 10
68.4498
 20
65.5602
 30
0.0
  0
VERTEX
  5
2F9
  8
0
 10
68.4498
 20
65.5422
 30
0.0
  0
VERTEX
  5
2FA
  8
0
 10
68.4498
 20
59.5422
 30
0.0
  0
VERTEX
  5
2FB
  8
0
 10
68.4498
 20
59.5256
 30
0.0
  0
VERTEX
  5
2FC
  8
0
 10
68.4788
 20
59.472
 30
0.0
  0
VERTEX
  5
2FD
  8
0
 10
68.5327
 20
59.4416
 30
0.0
  0
VERTEX
  5
2FE
  8
0
 10
68.5504
 20
59.4416
 30
0.0
  0
VERTEX
  5
2FF
  8
0
 10
71.5504
 20
59.4416
 30
0.0
  0
VERTEX
  5
300
  8
0
 10
71.5328
 20
59.4416
 30
0.0
  0
VERTEX
  5
301
  8
0
 10
71.4788
 20
59.472
 30
0.0
  0
VERTEX
  5
302
  8
0
 10
71.4498
 20
59.5256
 30
0.0
  0
VERTEX
  5
303
  8
0
 10
71.4498
 20
59.5422
 30
0.0
  0
VERTEX
  5
304
  8
0
 10
71.4498
 20
53.5421
 30
0.0
  0
VERTEX
  5
305
  8
0
 10
71.4498
 20
50.5425
 30
0.0
  0
VERTEX
  5
306
  8
0
 10
71.4498
 20
50.5259
 30
0.0
  0
VERTEX
  5
307
  8
0
 10
71.4788
 20
50.4719
 30
0.0
  0
VERTEX
  5
308
  8
0
 10
71.5328
 20
50.4416
 30
0.0
  0
SEQEND
  5
797
  8
0
  0
POLYLINE
  5
72
  8
0
 66
     1
 10
0.0
 20
0.0
 30
0.0
 70
     1
  0
VERTEX
  5
309
  8
0
 10
3.85025
 20
50.4416
 30
0.0
  0
VERTEX
  5
30A
  8
0
 10
12.8502
 20
50.4416
 30
0.0
  0
VERTEX
  5
30B
  8
0
 10
12.8668
 20
50.4416
 30
0.0
  0
VERTEX
  5
30C
  8
0
 10
12.9205
 20
50.4719
 30
0.0
  0
VERTEX
  5
30D
  8
0
 10
12.9508
 20
50.5259
 30
0.0
  0
VERTEX
  5
30E
  8
0
 10
12.9508
 20
50.5425
 30
0.0
  0
VERTEX
  5
30F
  8
0
 10
12.9508
 20
53.5421
 30
0.0
  0
VERTEX
  5
310
  8
0
 10
12.9508
 20
53.5259
 30
0.0
  0
VERTEX
  5
311
  8
0
 10
12.9205
 20
53.4719
 30
0.0
  0
VERTEX
  5
312
  8
0
 10
12.8668
 20
53.4416
 30
0.0
  0
VERTEX
  5
313
  8
0
 10
12.8502
 20
53.4416
 30
0.0
  0
VERTEX
  5
314
  8
0
 10
18.8502
 20
53.4416
 30
0.0
  0
VERTEX
  5
315
  8
0
 10
18.8323
 20
53.4416
 30
0.0
  0
VERTEX
  5
316
  8
0
 10
18.7785
 20
53.4719
 30
0.0
  0
VERTEX
  5
317
  8
0
 10
18.7496
 20
53.5259
 30
0.0
  0
VERTEX
  5
318
  8
0
 10
18.7496
 20
53.5421
 30
0.0
  0
VERTEX
  5
319
  8
0
 10
18.7496
 20
50.5425
 30
0.0
  0
VERTEX
  5
31A
  8
0
 10
18.7496
 20
50.5259
 30
0.0
  0
VERTEX
  5
31B
  8
0
 10
18.7785
 20
50.4719
 30
0.0
  0
VERTEX
  5
31C
  8
0
 10
18.8323
 20
50.4416
 30
0.0
  0
VERTEX
  5
31D
  8
0
 10
18.8502
 20
50.4416
 30
0.0
  0
VERTEX
  5
31E
  8
0
 10
24.8502
 20
50.4416
 30
0.0
  0
VERTEX
  5
31F
  8
0
 10
24.8667
 20
50.4416
 30
0.0
  0
VERTEX
  5
320
  8
0
 10
24.9204
 20
50.4719
 30
0.0
  0
VERTEX
  5
321
  8
0
 10
24.9508
 20
50.5259
 30
0.0
  0
VERTEX
  5
322
  8
0
 10
24.9508
 20
50.5425
 30
0.0
  0
VERTEX
  5
323
  8
0
 10
24.9508
 20
53.5421
 30
0.0
  0
VERTEX
  5
324
  8
0
 10
24.9508
 20
53.5259
 30
0.0
  0
VERTEX
  5
325
  8
0
 10
24.9204
 20
53.4719
 30
0.0
  0
VERTEX
  5
326
  8
0
 10
24.8667
 20
53.4416
 30
0.0
  0
VERTEX
  5
327
  8
0
 10
24.8502
 20
53.4416
 30
0.0
  0
VERTEX
  5
328
  8
0
 10
30.8501
 20
53.4416
 30
0.0
  0
VERTEX
  5
329
  8
0
 10
30.8322
 20
53.4416
 30
0.0
  0
VERTEX
  5
32A
  8
0
 10
30.7785
 20
53.4719
 30
0.0
  0
VERTEX
  5
32B
  8
0
 10
30.7496
 20
53.5259
 30
0.0
  0
VERTEX
  5
32C
  8
0
 10
30.7496
 20
53.5421
 30
0.0
  0
VERTEX
  5
32D
  8
0
 10
30.7496
 20
50.5425
 30
0.0
  0
VERTEX
  5
32E
  8
0
 10
30.7496
 20
50.5259
 30
0.0
  0
VERTEX
  5
32F
  8
0
 10
30.7785
 20
50.4719
 30
0.0
  0
VERTEX
  5
330
  8
0
 10
30.8322
 20
50.4416
 30
0.0
  0
VERTEX
  5
331
  8
0
 10
30.8501
 20
50.4416
 30
0.0
  0
VERTEX
  5
332
  8
0
 10
36.8501
 20
50.4416
 30
0.0
  0
VERTEX
  5
333
  8
0
 10
36.8667
 20
50.4416
 30
0.0
  0
VERTEX
  5
334
  8
0
 10
36.9203
 20
50.4719
 30
0.0
  0
VERTEX
  5
335
  8
0
 10
36.9506
 20
50.5259
 30
0.0
  0
VERTEX
  5
336
  8
0
 10
36.9506
 20
50.5425
 30
0.0
  0
VERTEX
  5
337
  8
0
 10
36.9506
 20
53.5421
 30
0.0
  0
VERTEX
  5
338
  8
0
 10
36.9506
 20
53.5259
 30
0.0
  0
VERTEX
  5
339
  8
0
 10
36.9203
 20
53.4719
 30
0.0
  0
VERTEX
  5
33A
  8
0
 10
36.8667
 20
53.4416
 30
0.0
  0
VERTEX
  5
33B
  8
0
 10
36.8501
 20
53.4416
 30
0.0
  0
VERTEX
  5
33C
  8
0
 10
42.8502
 20
53.4416
 30
0.0
  0
VERTEX
  5
33D
  8
0
 10
42.8322
 20
53.4416
 30
0.0
  0
VERTEX
  5
33E
  8
0
 10
42.7785
 20
53.4719
 30
0.0
  0
VERTEX
  5
33F
  8
0
 10
42.7496
 20
53.5259
 30
0.0
  0
VERTEX
  5
340
  8
0
 10
42.7496
 20
53.5421
 30
0.0
  0
VERTEX
  5
341
  8
0
 10
42.7496
 20
50.5425
 30
0.0
  0
VERTEX
  5
342
  8
0
 10
42.7496
 20
50.5259
 30
0.0
  0
VERTEX
  5
343
  8
0
 10
42.7785
 20
50.4719
 30
0.0
  0
VERTEX
  5
344
  8
0
 10
42.8322
 20
50.4416
 30
0.0
  0
VERTEX
  5
345
  8
0
 10
42.8502
 20
50.4416
 30
0.0
  0
VERTEX
  5
346
  8
0
 10
48.8502
 20
50.4416
 30
0.0
  0
VERTEX
  5
347
  8
0
 10
48.8668
 20
50.4416
 30
0.0
  0
VERTEX
  5
348
  8
0
 10
48.9204
 20
50.4719
 30
0.0
  0
VERTEX
  5
349
  8
0
 10
48.9507
 20
50.5259
 30
0.0
  0
VERTEX
  5
34A
  8
0
 10
48.9507
 20
50.5425
 30
0.0
  0
VERTEX
  5
34B
  8
0
 10
48.9507
 20
53.5421
 30
0.0
  0
VERTEX
  5
34C
  8
0
 10
48.9507
 20
53.5259
 30
0.0
  0
VERTEX
  5
34D
  8
0
 10
48.9204
 20
53.4719
 30
0.0
  0
VERTEX
  5
34E
  8
0
 10
48.8668
 20
53.4416
 30
0.0
  0
VERTEX
  5
34F
  8
0
 10
48.8502
 20
53.4416
 30
0.0
  0
VERTEX
  5
350
  8
0
 10
54.8499
 20
53.4416
 30
0.0
  0
VERTEX
  5
351
  8
0
 10
54.8322
 20
53.4416
 30
0.0
  0
VERTEX
  5
352
  8
0
 10
54.7783
 20
53.4719
 30
0.0
  0
VERTEX
  5
353
  8
0
 10
54.7494
 20
53.5259
 30
0.0
  0
VERTEX
  5
354
  8
0
 10
54.7494
 20
53.5421
 30
0.0
  0
VERTEX
  5
355
  8
0
 10
54.7494
 20
50.5425
 30
0.0
  0
VERTEX
  5
356
  8
0
 10
54.7494
 20
50.5259
 30
0.0
  0
VERTEX
  5
357
  8
0
 10
54.7783
 20
50.4719
 30
0.0
  0
VERTEX
  5
358
  8
0
 10
54.8322
 20
50.4416
 30
0.0
  0
VERTEX
  5
359
  8
0
 10
54.8499
 20
50.4416
 30
0.0
  0
VERTEX
  5
35A
  8
0
 10
63.85
 20
50.4416
 30
0.0
  0
VERTEX
  5
35B
  8
0
 10
66.85
 20
50.4416
 30
0.0
  0
VERTEX
  5
35C
  8
0
 10
66.8666
 20
50.4416
 30
0.0
  0
VERTEX
  5
35D
  8
0
 10
66.9202
 20
50.4719
 30
0.0
  0
VERTEX
  5
35E
  8
0
 10
66.9505
 20
50.5259
 30
0.0
  0
VERTEX
  5
35F
  8
0
 10
66.9505
 20
50.5425
 30
0.0
  0
VERTEX
  5
360
  8
0
 10
66.9505
 20
53.5421
 30
0.0
  0
VERTEX
  5
361
  8
0
 10
66.9505
 20
59.5422
 30
0.0
  0
VERTEX
  5
362
  8
0
 10
66.9505
 20
59.5602
 30
0.0
  0
VERTEX
  5
363
  8
0
 10
66.9202
 20
59.6138
 30
0.0
  0
VERTEX
  5
364
  8
0
 10
66.8666
 20
59.6427
 30
0.0
  0
VERTEX
  5
365
  8
0
 10
66.85
 20
59.6427
 30
0.0
  0
VERTEX
  5
366
  8
0
 10
63.85
 20
59.6427
 30
0.0
  0
VERTEX
  5
367
  8
0
 10
63.8665
 20
59.6427
 30
0.0
  0
VERTEX
  5
368
  8
0
 10
63.9202
 20
59.6138
 30
0.0
  0
VERTEX
  5
369
  8
0
 10
63.9505
 20
59.5602
 30
0.0
  0
VERTEX
  5
36A
  8
0
 10
63.9505
 20
59.5422
 30
0.0
  0
VERTEX
  5
36B
  8
0
 10
63.9505
 20
65.5422
 30
0.0
  0
VERTEX
  5
36C
  8
0
 10
63.9505
 20
65.5257
 30
0.0
  0
VERTEX
  5
36D
  8
0
 10
63.9202
 20
65.472
 30
0.0
  0
VERTEX
  5
36E
  8
0
 10
63.8665
 20
65.4417
 30
0.0
  0
VERTEX
  5
36F
  8
0
 10
63.85
 20
65.4417
 30
0.0
  0
VERTEX
  5
370
  8
0
 10
66.85
 20
65.4417
 30
0.0
  0
VERTEX
  5
371
  8
0
 10
66.8666
 20
65.4417
 30
0.0
  0
VERTEX
  5
372
  8
0
 10
66.9202
 20
65.472
 30
0.0
  0
VERTEX
  5
373
  8
0
 10
66.9505
 20
65.5257
 30
0.0
  0
VERTEX
  5
374
  8
0
 10
66.9505
 20
65.5422
 30
0.0
  0
VERTEX
  5
375
  8
0
 10
66.9505
 20
71.5423
 30
0.0
  0
VERTEX
  5
376
  8
0
 10
66.9505
 20
71.5603
 30
0.0
  0
VERTEX
  5
377
  8
0
 10
66.9202
 20
71.6139
 30
0.0
  0
VERTEX
  5
378
  8
0
 10
66.8666
 20
71.6428
 30
0.0
  0
VERTEX
  5
379
  8
0
 10
66.85
 20
71.6428
 30
0.0
  0
VERTEX
  5
37A
  8
0
 10
63.85
 20
71.6428
 30
0.0
  0
VERTEX
  5
37B
  8
0
 10
63.8665
 20
71.6428
 30
0.0
  0
VERTEX
  5
37C
  8
0
 10
63.9202
 20
71.6139
 30
0.0
  0
VERTEX
  5
37D
  8
0
 10
63.9505
 20
71.5603
 30
0.0
  0
VERTEX
  5
37E
  8
0
 10
63.9505
 20
71.5423
 30
0.0
  0
VERTEX
  5
37F
  8
0
 10
63.9505
 20
77.5423
 30
0.0
  0
VERTEX
  5
380
  8
0
 10
63.9505
 20
77.5257
 30
0.0
  0
VERTEX
  5
381
  8
0
 10
63.9202
 20
77.4718
 30
0.0
  0
VERTEX
  5
382
  8
0
 10
63.8665
 20
77.4418
 30
0.0
  0
VERTEX
  5
383
  8
0
 10
63.85
 20
77.4418
 30
0.0
  0
VERTEX
  5
384
  8
0
 10
66.85
 20
77.4418
 30
0.0
  0
VERTEX
  5
385
  8
0
 10
66.8666
 20
77.4418
 30
0.0
  0
VERTEX
  5
386
  8
0
 10
66.9202
 20
77.4718
 30
0.0
  0
VERTEX
  5
387
  8
0
 10
66.9505
 20
77.5257
 30
0.0
  0
VERTEX
  5
388
  8
0
 10
66.9505
 20
77.5423
 30
0.0
  0
VERTEX
  5
389
  8
0
 10
66.9505
 20
83.5424
 30
0.0
  0
VERTEX
  5
38A
  8
0
 10
66.9505
 20
86.542
 30
0.0
  0
VERTEX
  5
38B
  8
0
 10
66.9505
 20
86.56
 30
0.0
  0
VERTEX
  5
38C
  8
0
 10
66.9202
 20
86.614
 30
0.0
  0
VERTEX
  5
38D
  8
0
 10
66.8666
 20
86.6429
 30
0.0
  0
VERTEX
  5
38E
  8
0
 10
66.85
 20
86.6429
 30
0.0
  0
VERTEX
  5
38F
  8
0
 10
63.85
 20
86.6429
 30
0.0
  0
VERTEX
  5
390
  8
0
 10
54.8499
 20
86.6429
 30
0.0
  0
VERTEX
  5
391
  8
0
 10
54.8322
 20
86.6429
 30
0.0
  0
VERTEX
  5
392
  8
0
 10
54.7783
 20
86.614
 30
0.0
  0
VERTEX
  5
393
  8
0
 10
54.7494
 20
86.56
 30
0.0
  0
VERTEX
  5
394
  8
0
 10
54.7494
 20
86.542
 30
0.0
  0
VERTEX
  5
395
  8
0
 10
54.7494
 20
83.5424
 30
0.0
  0
VERTEX
  5
396
  8
0
 10
54.7494
 20
83.56
 30
0.0
  0
VERTEX
  5
397
  8
0
 10
54.7783
 20
83.614
 30
0.0
  0
VERTEX
  5
398
  8
0
 10
54.8322
 20
83.6429
 30
0.0
  0
VERTEX
  5
399
  8
0
 10
54.8499
 20
83.6429
 30
0.0
  0
VERTEX
  5
39A
  8
0
 10
48.8502
 20
83.6429
 30
0.0
  0
VERTEX
  5
39B
  8
0
 10
48.8668
 20
83.6429
 30
0.0
  0
VERTEX
  5
39C
  8
0
 10
48.9204
 20
83.614
 30
0.0
  0
VERTEX
  5
39D
  8
0
 10
48.9507
 20
83.56
 30
0.0
  0
VERTEX
  5
39E
  8
0
 10
48.9507
 20
83.5424
 30
0.0
  0
VERTEX
  5
39F
  8
0
 10
48.9507
 20
86.542
 30
0.0
  0
VERTEX
  5
3A0
  8
0
 10
48.9507
 20
86.56
 30
0.0
  0
VERTEX
  5
3A1
  8
0
 10
48.9204
 20
86.614
 30
0.0
  0
VERTEX
  5
3A2
  8
0
 10
48.8668
 20
86.6429
 30
0.0
  0
VERTEX
  5
3A3
  8
0
 10
48.8502
 20
86.6429
 30
0.0
  0
VERTEX
  5
3A4
  8
0
 10
42.8502
 20
86.6429
 30
0.0
  0
VERTEX
  5
3A5
  8
0
 10
42.8322
 20
86.6429
 30
0.0
  0
VERTEX
  5
3A6
  8
0
 10
42.7785
 20
86.614
 30
0.0
  0
VERTEX
  5
3A7
  8
0
 10
42.7496
 20
86.56
 30
0.0
  0
VERTEX
  5
3A8
  8
0
 10
42.7496
 20
86.542
 30
0.0
  0
VERTEX
  5
3A9
  8
0
 10
42.7496
 20
83.5424
 30
0.0
  0
VERTEX
  5
3AA
  8
0
 10
42.7496
 20
83.56
 30
0.0
  0
VERTEX
  5
3AB
  8
0
 10
42.7785
 20
83.614
 30
0.0
  0
VERTEX
  5
3AC
  8
0
 10
42.8322
 20
83.6429
 30
0.0
  0
VERTEX
  5
3AD
  8
0
 10
42.8502
 20
83.6429
 30
0.0
  0
VERTEX
  5
3AE
  8
0
 10
36.8501
 20
83.6429
 30
0.0
  0
VERTEX
  5
3AF
  8
0
 10
36.8667
 20
83.6429
 30
0.0
  0
VERTEX
  5
3B0
  8
0
 10
36.9203
 20
83.614
 30
0.0
  0
VERTEX
  5
3B1
  8
0
 10
36.9506
 20
83.56
 30
0.0
  0
VERTEX
  5
3B2
  8
0
 10
36.9506
 20
83.5424
 30
0.0
  0
VERTEX
  5
3B3
  8
0
 10
36.9506
 20
86.542
 30
0.0
  0
VERTEX
  5
3B4
  8
0
 10
36.9506
 20
86.56
 30
0.0
  0
VERTEX
  5
3B5
  8
0
 10
36.9203
 20
86.614
 30
0.0
  0
VERTEX
  5
3B6
  8
0
 10
36.8667
 20
86.6429
 30
0.0
  0
VERTEX
  5
3B7
  8
0
 10
36.8501
 20
86.6429
 30
0.0
  0
VERTEX
  5
3B8
  8
0
 10
30.8501
 20
86.6429
 30
0.0
  0
VERTEX
  5
3B9
  8
0
 10
30.8322
 20
86.6429
 30
0.0
  0
VERTEX
  5
3BA
  8
0
 10
30.7785
 20
86.614
 30
0.0
  0
VERTEX
  5
3BB
  8
0
 10
30.7496
 20
86.56
 30
0.0
  0
VERTEX
  5
3BC
  8
0
 10
30.7496
 20
86.542
 30
0.0
  0
VERTEX
  5
3BD
  8
0
 10
30.7496
 20
83.5424
 30
0.0
  0
VERTEX
  5
3BE
  8
0
 10
30.7496
 20
83.56
 30
0.0
  0
VERTEX
  5
3BF
  8
0
 10
30.7785
 20
83.614
 30
0.0
  0
VERTEX
  5
3C0
  8
0
 10
30.8322
 20
83.6429
 30
0.0
  0
VERTEX
  5
3C1
  8
0
 10
30.8501
 20
83.6429
 30
0.0
  0
VERTEX
  5
3C2
  8
0
 10
24.8502
 20
83.6429
 30
0.0
  0
VERTEX
  5
3C3
  8
0
 10
24.8667
 20
83.6429
 30
0.0
  0
VERTEX
  5
3C4
  8
0
 10
24.9204
 20
83.614
 30
0.0
  0
VERTEX
  5
3C5
  8
0
 10
24.9508
 20
83.56
 30
0.0
  0
VERTEX
  5
3C6
  8
0
 10
24.9508
 20
83.5424
 30
0.0
  0
VERTEX
  5
3C7
  8
0
 10
24.9508
 20
86.542
 30
0.0
  0
VERTEX
  5
3C8
  8
0
 10
24.9508
 20
86.56
 30
0.0
  0
VERTEX
  5
3C9
  8
0
 10
24.9204
 20
86.614
 30
0.0
  0
VERTEX
  5
3CA
  8
0
 10
24.8667
 20
86.6429
 30
0.0
  0
VERTEX
  5
3CB
  8
0
 10
24.8502
 20
86.6429
 30
0.0
  0
VERTEX
  5
3CC
  8
0
 10
18.8502
 20
86.6429
 30
0.0
  0
VERTEX
  5
3CD
  8
0
 10
18.8323
 20
86.6429
 30
0.0
  0
VERTEX
  5
3CE
  8
0
 10
18.7785
 20
86.614
 30
0.0
  0
VERTEX
  5
3CF
  8
0
 10
18.7496
 20
86.56
 30
0.0
  0
VERTEX
  5
3D0
  8
0
 10
18.7496
 20
86.542
 30
0.0
  0
VERTEX
  5
3D1
  8
0
 10
18.7496
 20
83.5424
 30
0.0
  0
VERTEX
  5
3D2
  8
0
 10
18.7496
 20
83.56
 30
0.0
  0
VERTEX
  5
3D3
  8
0
 10
18.7785
 20
83.614
 30
0.0
  0
VERTEX
  5
3D4
  8
0
 10
18.8323
 20
83.6429
 30
0.0
  0
VERTEX
  5
3D5
  8
0
 10
18.8502
 20
83.6429
 30
0.0
  0
VERTEX
  5
3D6
  8
0
 10
12.8502
 20
83.6429
 30
0.0
  0
VERTEX
  5
3D7
  8
0
 10
12.8668
 20
83.6429
 30
0.0
  0
VERTEX
  5
3D8
  8
0
 10
12.9205
 20
83.614
 30
0.0
  0
VERTEX
  5
3D9
  8
0
 10
12.9508
 20
83.56
 30
0.0
  0
VERTEX
  5
3DA
  8
0
 10
12.9508
 20
83.5424
 30
0.0
  0
VERTEX
  5
3DB
  8
0
 10
12.9508
 20
86.542
 30
0.0
  0
VERTEX
  5
3DC
  8
0
 10
12.9508
 20
86.56
 30
0.0
  0
VERTEX
  5
3DD
  8
0
 10
12.9205
 20
86.614
 30
0.0
  0
VERTEX
  5
3DE
  8
0
 10
12.8668
 20
86.6429
 30
0.0
  0
VERTEX
  5
3DF
  8
0
 10
12.8502
 20
86.6429
 30
0.0
  0
VERTEX
  5
3E0
  8
0
 10
3.85025
 20
86.6429
 30
0.0
  0
VERTEX
  5
3E1
  8
0
 10
0.850251
 20
86.6429
 30
0.0
  0
VERTEX
  5
3E2
  8
0
 10
0.832337
 20
86.6429
 30
0.0
  0
VERTEX
  5
3E3
  8
0
 10
0.778591
 20
86.614
 30
0.0
  0
VERTEX
  5
3E4
  8
0
 10
0.749653
 20
86.56
 30
0.0
  0
VERTEX
  5
3E5
  8
0
 10
0.749653
 20
86.542
 30
0.0
  0
VERTEX
  5
3E6
  8
0
 10
0.749653
 20
83.5424
 30
0.0
  0
VERTEX
  5
3E7
  8
0
 10
0.749653
 20
77.5423
 30
0.0
  0
VERTEX
  5
3E8
  8
0
 10
0.749653
 20
77.5257
 30
0.0
  0
VERTEX
  5
3E9
  8
0
 10
0.778591
 20
77.4718
 30
0.0
  0
VERTEX
  5
3EA
  8
0
 10
0.832337
 20
77.4418
 30
0.0
  0
VERTEX
  5
3EB
  8
0
 10
0.850251
 20
77.4418
 30
0.0
  0
VERTEX
  5
3EC
  8
0
 10
3.85025
 20
77.4418
 30
0.0
  0
VERTEX
  5
3ED
  8
0
 10
3.83233
 20
77.4418
 30
0.0
  0
VERTEX
  5
3EE
  8
0
 10
3.77857
 20
77.4718
 30
0.0
  0
VERTEX
  5
3EF
  8
0
 10
3.74964
 20
77.5257
 30
0.0
  0
VERTEX
  5
3F0
  8
0
 10
3.74964
 20
77.5423
 30
0.0
  0
VERTEX
  5
3F1
  8
0
 10
3.74964
 20
71.5423
 30
0.0
  0
VERTEX
  5
3F2
  8
0
 10
3.74964
 20
71.5603
 30
0.0
  0
VERTEX
  5
3F3
  8
0
 10
3.77857
 20
71.6139
 30
0.0
  0
VERTEX
  5
3F4
  8
0
 10
3.83233
 20
71.6428
 30
0.0
  0
VERTEX
  5
3F5
  8
0
 10
3.85025
 20
71.6428
 30
0.0
  0
VERTEX
  5
3F6
  8
0
 10
0.850251
 20
71.6428
 30
0.0
  0
VERTEX
  5
3F7
  8
0
 10
0.832337
 20
71.6428
 30
0.0
  0
VERTEX
  5
3F8
  8
0
 10
0.778591
 20
71.6139
 30
0.0
  0
VERTEX
  5
3F9
  8
0
 10
0.749653
 20
71.5603
 30
0.0
  0
VERTEX
  5
3FA
  8
0
 10
0.749653
 20
71.5423
 30
0.0
  0
VERTEX
  5
3FB
  8
0
 10
0.749653
 20
65.5422
 30
0.0
  0
VERTEX
  5
3FC
  8
0
 10
0.749653
 20
65.5257
 30
0.0
  0
VERTEX
  5
3FD
  8
0
 10
0.778591
 20
65.472
 30
0.0
  0
VERTEX
  5
3FE
  8
0
 10
0.832337
 20
65.4417
 30
0.0
  0
VERTEX
  5
3FF
  8
0
 10
0.850251
 20
65.4417
 30
0.0
  0
VERTEX
  5
400
  8
0
 10
3.85025
 20
65.4417
 30
0.0
  0
VERTEX
  5
401
  8
0
 10
3.83233
 20
65.4417
 30
0.0
  0
VERTEX
  5
402
  8
0
 10
3.77857
 20
65.472
 30
0.0
  0
VERTEX
  5
403
  8
0
 10
3.74964
 20
65.5257
 30
0.0
  0
VERTEX
  5
404
  8
0
 10
3.74964
 20
65.5422
 30
0.0
  0
VERTEX
  5
405
  8
0
 10
3.74964
 20
59.5422
 30
0.0
  0
VERTEX
  5
406
  8
0
 10
3.74964
 20
59.5602
 30
0.0
  0
VERTEX
  5
407
  8
0
 10
3.77857
 20
59.6138
 30
0.0
  0
VERTEX
  5
408
  8
0
 10
3.83233
 20
59.6427
 30
0.0
  0
VERTEX
  5
409
  8
0
 10
3.85025
 20
59.6427
 30
0.0
  0
VERTEX
  5
40A
  8
0
 10
0.850251
 20
59.6427
 30
0.0
  0
VERTEX
  5
40B
  8
0
 10
0.832337
 20
59.6427
 30
0.0
  0
VERTEX
  5
40C
  8
0
 10
0.778591
 20
59.6138
 30
0.0
  0
VERTEX
  5
40D
  8
0
 10
0.749653
 20
59.5602
 30
0.0
  0
VERTEX
  5
40E
  8
0
 10
0.749653
 20
59.5422
 30
0.0
  0
VERTEX
  5
40F
  8
0
 10
0.749653
 20
53.5421
 30
0.0
  0
VERTEX
  5
410
  8
0
 10
0.749653
 20
50.5425
 30
0.0
  0
VERTEX
  5
411
  8
0
 10
0.749653
 20
50.5259
 30
0.0
  0
VERTEX
  5
412
  8
0
 10
0.778591
 20
50.4719
 30
0.0
  0
VERTEX
  5
413
  8
0
 10
0.832337
 20
50.4416
 30
0.0
  0
VERTEX
  5
414
  8
0
 10
0.850251
 20
50.4416
 30
0.0
  0
SEQEND
  5
798
  8
0
  0
POLYLINE
  5
73
  8
0
 66
     1
 10
0.0
 20
0.0
 30
0.0
 70
     1
  0
VERTEX
  5
415
  8
0
 10
3.85025
 20
91.1419
 30
0.0
  0
VERTEX
  5
416
  8
0
 10
12.8502
 20
91.1419
 30
0.0
  0
VERTEX
  5
417
  8
0
 10
12.8323
 20
91.1419
 30
0.0
  0
VERTEX
  5
418
  8
0
 10
12.7786
 20
91.1722
 30
0.0
  0
VERTEX
  5
419
  8
0
 10
12.7496
 20
91.2262
 30
0.0
  0
VERTEX
  5
41A
  8
0
 10
12.7496
 20
91.2428
 30
0.0
  0
VERTEX
  5
41B
  8
0
 10
12.7496
 20
88.2428
 30
0.0
  0
VERTEX
  5
41C
  8
0
 10
12.7496
 20
88.2262
 30
0.0
  0
VERTEX
  5
41D
  8
0
 10
12.7786
 20
88.1726
 30
0.0
  0
VERTEX
  5
41E
  8
0
 10
12.8323
 20
88.1422
 30
0.0
  0
VERTEX
  5
41F
  8
0
 10
12.8502
 20
88.1422
 30
0.0
  0
VERTEX
  5
420
  8
0
 10
18.8502
 20
88.1422
 30
0.0
  0
VERTEX
  5
421
  8
0
 10
18.8667
 20
88.1422
 30
0.0
  0
VERTEX
  5
422
  8
0
 10
18.9205
 20
88.1726
 30
0.0
  0
VERTEX
  5
423
  8
0
 10
18.9508
 20
88.2262
 30
0.0
  0
VERTEX
  5
424
  8
0
 10
18.9508
 20
88.2428
 30
0.0
  0
VERTEX
  5
425
  8
0
 10
18.9508
 20
91.2428
 30
0.0
  0
VERTEX
  5
426
  8
0
 10
18.9508
 20
91.2262
 30
0.0
  0
VERTEX
  5
427
  8
0
 10
18.9205
 20
91.1722
 30
0.0
  0
VERTEX
  5
428
  8
0
 10
18.8667
 20
91.1419
 30
0.0
  0
VERTEX
  5
429
  8
0
 10
18.8502
 20
91.1419
 30
0.0
  0
VERTEX
  5
42A
  8
0
 10
24.8502
 20
91.1419
 30
0.0
  0
VERTEX
  5
42B
  8
0
 10
24.8322
 20
91.1419
 30
0.0
  0
VERTEX
  5
42C
  8
0
 10
24.7785
 20
91.1722
 30
0.0
  0
VERTEX
  5
42D
  8
0
 10
24.7496
 20
91.2262
 30
0.0
  0
VERTEX
  5
42E
  8
0
 10
24.7496
 20
91.2428
 30
0.0
  0
VERTEX
  5
42F
  8
0
 10
24.7496
 20
88.2428
 30
0.0
  0
VERTEX
  5
430
  8
0
 10
24.7496
 20
88.2262
 30
0.0
  0
VERTEX
  5
431
  8
0
 10
24.7785
 20
88.1726
 30
0.0
  0
VERTEX
  5
432
  8
0
 10
24.8322
 20
88.1422
 30
0.0
  0
VERTEX
  5
433
  8
0
 10
24.8502
 20
88.1422
 30
0.0
  0
VERTEX
  5
434
  8
0
 10
30.8501
 20
88.1422
 30
0.0
  0
VERTEX
  5
435
  8
0
 10
30.8667
 20
88.1422
 30
0.0
  0
VERTEX
  5
436
  8
0
 10
30.9204
 20
88.1726
 30
0.0
  0
VERTEX
  5
437
  8
0
 10
30.9507
 20
88.2262
 30
0.0
  0
VERTEX
  5
438
  8
0
 10
30.9507
 20
88.2428
 30
0.0
  0
VERTEX
  5
439
  8
0
 10
30.9507
 20
91.2428
 30
0.0
  0
VERTEX
  5
43A
  8
0
 10
30.9507
 20
91.2262
 30
0.0
  0
VERTEX
  5
43B
  8
0
 10
30.9204
 20
91.1722
 30
0.0
  0
VERTEX
  5
43C
  8
0
 10
30.8667
 20
91.1419
 30
0.0
  0
VERTEX
  5
43D
  8
0
 10
30.8501
 20
91.1419
 30
0.0
  0
VERTEX
  5
43E
  8
0
 10
36.8501
 20
91.1419
 30
0.0
  0
VERTEX
  5
43F
  8
0
 10
36.8321
 20
91.1419
 30
0.0
  0
VERTEX
  5
440
  8
0
 10
36.7785
 20
91.1722
 30
0.0
  0
VERTEX
  5
441
  8
0
 10
36.7496
 20
91.2262
 30
0.0
  0
VERTEX
  5
442
  8
0
 10
36.7496
 20
91.2428
 30
0.0
  0
VERTEX
  5
443
  8
0
 10
36.7496
 20
88.2428
 30
0.0
  0
VERTEX
  5
444
  8
0
 10
36.7496
 20
88.2262
 30
0.0
  0
VERTEX
  5
445
  8
0
 10
36.7785
 20
88.1726
 30
0.0
  0
VERTEX
  5
446
  8
0
 10
36.8321
 20
88.1422
 30
0.0
  0
VERTEX
  5
447
  8
0
 10
36.8501
 20
88.1422
 30
0.0
  0
VERTEX
  5
448
  8
0
 10
42.8502
 20
88.1422
 30
0.0
  0
VERTEX
  5
449
  8
0
 10
42.8667
 20
88.1422
 30
0.0
  0
VERTEX
  5
44A
  8
0
 10
42.9204
 20
88.1726
 30
0.0
  0
VERTEX
  5
44B
  8
0
 10
42.9507
 20
88.2262
 30
0.0
  0
VERTEX
  5
44C
  8
0
 10
42.9507
 20
88.2428
 30
0.0
  0
VERTEX
  5
44D
  8
0
 10
42.9507
 20
91.2428
 30
0.0
  0
VERTEX
  5
44E
  8
0
 10
42.9507
 20
91.2262
 30
0.0
  0
VERTEX
  5
44F
  8
0
 10
42.9204
 20
91.1722
 30
0.0
  0
VERTEX
  5
450
  8
0
 10
42.8667
 20
91.1419
 30
0.0
  0
VERTEX
  5
451
  8
0
 10
42.8502
 20
91.1419
 30
0.0
  0
VERTEX
  5
452
  8
0
 10
48.8502
 20
91.1419
 30
0.0
  0
VERTEX
  5
453
  8
0
 10
48.8322
 20
91.1419
 30
0.0
  0
VERTEX
  5
454
  8
0
 10
48.7786
 20
91.1722
 30
0.0
  0
VERTEX
  5
455
  8
0
 10
48.7497
 20
91.2262
 30
0.0
  0
VERTEX
  5
456
  8
0
 10
48.7497
 20
91.2428
 30
0.0
  0
VERTEX
  5
457
  8
0
 10
48.7497
 20
88.2428
 30
0.0
  0
VERTEX
  5
458
  8
0
 10
48.7497
 20
88.2262
 30
0.0
  0
VERTEX
  5
459
  8
0
 10
48.7786
 20
88.1726
 30
0.0
  0
VERTEX
  5
45A
  8
0
 10
48.8322
 20
88.1422
 30
0.0
  0
VERTEX
  5
45B
  8
0
 10
48.8502
 20
88.1422
 30
0.0
  0
VERTEX
  5
45C
  8
0
 10
54.8499
 20
88.1422
 30
0.0
  0
VERTEX
  5
45D
  8
0
 10
54.8665
 20
88.1422
 30
0.0
  0
VERTEX
  5
45E
  8
0
 10
54.9204
 20
88.1726
 30
0.0
  0
VERTEX
  5
45F
  8
0
 10
54.9508
 20
88.2262
 30
0.0
  0
VERTEX
  5
460
  8
0
 10
54.9508
 20
88.2428
 30
0.0
  0
VERTEX
  5
461
  8
0
 10
54.9508
 20
91.2428
 30
0.0
  0
VERTEX
  5
462
  8
0
 10
54.9508
 20
91.2262
 30
0.0
  0
VERTEX
  5
463
  8
0
 10
54.9204
 20
91.1722
 30
0.0
  0
VERTEX
  5
464
  8
0
 10
54.8665
 20
91.1419
 30
0.0
  0
VERTEX
  5
465
  8
0
 10
54.8499
 20
91.1419
 30
0.0
  0
VERTEX
  5
466
  8
0
 10
63.85
 20
91.1419
 30
0.0
  0
VERTEX
  5
467
  8
0
 10
63.8665
 20
91.1419
 30
0.0
  0
VERTEX
  5
468
  8
0
 10
63.9202
 20
91.1722
 30
0.0
  0
VERTEX
  5
469
  8
0
 10
63.9505
 20
91.2262
 30
0.0
  0
VERTEX
  5
46A
  8
0
 10
63.9505
 20
91.2428
 30
0.0
  0
VERTEX
  5
46B
  8
0
 10
63.9505
 20
102.242
 30
0.0
  0
VERTEX
  5
46C
  8
0
 10
63.9505
 20
102.225
 30
0.0
  0
VERTEX
  5
46D
  8
0
 10
63.9202
 20
102.172
 30
0.0
  0
VERTEX
  5
46E
  8
0
 10
63.8665
 20
102.142
 30
0.0
  0
VERTEX
  5
46F
  8
0
 10
63.85
 20
102.142
 30
0.0
  0
VERTEX
  5
470
  8
0
 10
66.85
 20
102.142
 30
0.0
  0
VERTEX
  5
471
  8
0
 10
66.8666
 20
102.142
 30
0.0
  0
VERTEX
  5
472
  8
0
 10
66.9202
 20
102.172
 30
0.0
  0
VERTEX
  5
473
  8
0
 10
66.9505
 20
102.225
 30
0.0
  0
VERTEX
  5
474
  8
0
 10
66.9505
 20
102.242
 30
0.0
  0
VERTEX
  5
475
  8
0
 10
66.9505
 20
108.242
 30
0.0
  0
VERTEX
  5
476
  8
0
 10
66.9505
 20
108.26
 30
0.0
  0
VERTEX
  5
477
  8
0
 10
66.9202
 20
108.314
 30
0.0
  0
VERTEX
  5
478
  8
0
 10
66.8666
 20
108.343
 30
0.0
  0
VERTEX
  5
479
  8
0
 10
66.85
 20
108.343
 30
0.0
  0
VERTEX
  5
47A
  8
0
 10
63.85
 20
108.343
 30
0.0
  0
VERTEX
  5
47B
  8
0
 10
63.8665
 20
108.343
 30
0.0
  0
VERTEX
  5
47C
  8
0
 10
63.9202
 20
108.314
 30
0.0
  0
VERTEX
  5
47D
  8
0
 10
63.9505
 20
108.26
 30
0.0
  0
VERTEX
  5
47E
  8
0
 10
63.9505
 20
108.242
 30
0.0
  0
VERTEX
  5
47F
  8
0
 10
63.9505
 20
114.242
 30
0.0
  0
VERTEX
  5
480
  8
0
 10
63.9505
 20
114.226
 30
0.0
  0
VERTEX
  5
481
  8
0
 10
63.9202
 20
114.172
 30
0.0
  0
VERTEX
  5
482
  8
0
 10
63.8665
 20
114.142
 30
0.0
  0
VERTEX
  5
483
  8
0
 10
63.85
 20
114.142
 30
0.0
  0
VERTEX
  5
484
  8
0
 10
66.85
 20
114.142
 30
0.0
  0
VERTEX
  5
485
  8
0
 10
66.8666
 20
114.142
 30
0.0
  0
VERTEX
  5
486
  8
0
 10
66.9202
 20
114.172
 30
0.0
  0
VERTEX
  5
487
  8
0
 10
66.9505
 20
114.226
 30
0.0
  0
VERTEX
  5
488
  8
0
 10
66.9505
 20
114.242
 30
0.0
  0
VERTEX
  5
489
  8
0
 10
66.9505
 20
120.242
 30
0.0
  0
VERTEX
  5
48A
  8
0
 10
66.9505
 20
120.26
 30
0.0
  0
VERTEX
  5
48B
  8
0
 10
66.9202
 20
120.314
 30
0.0
  0
VERTEX
  5
48C
  8
0
 10
66.8666
 20
120.343
 30
0.0
  0
VERTEX
  5
48D
  8
0
 10
66.85
 20
120.343
 30
0.0
  0
VERTEX
  5
48E
  8
0
 10
63.85
 20
120.343
 30
0.0
  0
VERTEX
  5
48F
  8
0
 10
63.8665
 20
120.343
 30
0.0
  0
VERTEX
  5
490
  8
0
 10
63.9202
 20
120.314
 30
0.0
  0
VERTEX
  5
491
  8
0
 10
63.9505
 20
120.26
 30
0.0
  0
VERTEX
  5
492
  8
0
 10
63.9505
 20
120.242
 30
0.0
  0
VERTEX
  5
493
  8
0
 10
63.9505
 20
131.241
 30
0.0
  0
VERTEX
  5
494
  8
0
 10
63.9505
 20
131.259
 30
0.0
  0
VERTEX
  5
495
  8
0
 10
63.9202
 20
131.313
 30
0.0
  0
VERTEX
  5
496
  8
0
 10
63.8665
 20
131.342
 30
0.0
  0
VERTEX
  5
497
  8
0
 10
63.85
 20
131.342
 30
0.0
  0
VERTEX
  5
498
  8
0
 10
54.8499
 20
131.342
 30
0.0
  0
VERTEX
  5
499
  8
0
 10
54.8665
 20
131.342
 30
0.0
  0
VERTEX
  5
49A
  8
0
 10
54.9204
 20
131.313
 30
0.0
  0
VERTEX
  5
49B
  8
0
 10
54.9508
 20
131.259
 30
0.0
  0
VERTEX
  5
49C
  8
0
 10
54.9508
 20
131.241
 30
0.0
  0
VERTEX
  5
49D
  8
0
 10
54.9508
 20
134.241
 30
0.0
  0
VERTEX
  5
49E
  8
0
 10
54.9508
 20
134.259
 30
0.0
  0
VERTEX
  5
49F
  8
0
 10
54.9204
 20
134.313
 30
0.0
  0
VERTEX
  5
4A0
  8
0
 10
54.8665
 20
134.342
 30
0.0
  0
VERTEX
  5
4A1
  8
0
 10
54.8499
 20
134.342
 30
0.0
  0
VERTEX
  5
4A2
  8
0
 10
48.8502
 20
134.342
 30
0.0
  0
VERTEX
  5
4A3
  8
0
 10
48.8322
 20
134.342
 30
0.0
  0
VERTEX
  5
4A4
  8
0
 10
48.7786
 20
134.313
 30
0.0
  0
VERTEX
  5
4A5
  8
0
 10
48.7497
 20
134.259
 30
0.0
  0
VERTEX
  5
4A6
  8
0
 10
48.7497
 20
134.241
 30
0.0
  0
VERTEX
  5
4A7
  8
0
 10
48.7497
 20
131.241
 30
0.0
  0
VERTEX
  5
4A8
  8
0
 10
48.7497
 20
131.259
 30
0.0
  0
VERTEX
  5
4A9
  8
0
 10
48.7786
 20
131.313
 30
0.0
  0
VERTEX
  5
4AA
  8
0
 10
48.8322
 20
131.342
 30
0.0
  0
VERTEX
  5
4AB
  8
0
 10
48.8502
 20
131.342
 30
0.0
  0
VERTEX
  5
4AC
  8
0
 10
42.8502
 20
131.342
 30
0.0
  0
VERTEX
  5
4AD
  8
0
 10
42.8667
 20
131.342
 30
0.0
  0
VERTEX
  5
4AE
  8
0
 10
42.9204
 20
131.313
 30
0.0
  0
VERTEX
  5
4AF
  8
0
 10
42.9507
 20
131.259
 30
0.0
  0
VERTEX
  5
4B0
  8
0
 10
42.9507
 20
131.241
 30
0.0
  0
VERTEX
  5
4B1
  8
0
 10
42.9507
 20
134.241
 30
0.0
  0
VERTEX
  5
4B2
  8
0
 10
42.9507
 20
134.259
 30
0.0
  0
VERTEX
  5
4B3
  8
0
 10
42.9204
 20
134.313
 30
0.0
  0
VERTEX
  5
4B4
  8
0
 10
42.8667
 20
134.342
 30
0.0
  0
VERTEX
  5
4B5
  8
0
 10
42.8502
 20
134.342
 30
0.0
  0
VERTEX
  5
4B6
  8
0
 10
36.8501
 20
134.342
 30
0.0
  0
VERTEX
  5
4B7
  8
0
 10
36.8321
 20
134.342
 30
0.0
  0
VERTEX
  5
4B8
  8
0
 10
36.7785
 20
134.313
 30
0.0
  0
VERTEX
  5
4B9
  8
0
 10
36.7496
 20
134.259
 30
0.0
  0
VERTEX
  5
4BA
  8
0
 10
36.7496
 20
134.241
 30
0.0
  0
VERTEX
  5
4BB
  8
0
 10
36.7496
 20
131.241
 30
0.0
  0
VERTEX
  5
4BC
  8
0
 10
36.7496
 20
131.259
 30
0.0
  0
VERTEX
  5
4BD
  8
0
 10
36.7785
 20
131.313
 30
0.0
  0
VERTEX
  5
4BE
  8
0
 10
36.8321
 20
131.342
 30
0.0
  0
VERTEX
  5
4BF
  8
0
 10
36.8501
 20
131.342
 30
0.0
  0
VERTEX
  5
4C0
  8
0
 10
30.8501
 20
131.342
 30
0.0
  0
VERTEX
  5
4C1
  8
0
 10
30.8667
 20
131.342
 30
0.0
  0
VERTEX
  5
4C2
  8
0
 10
30.9204
 20
131.313
 30
0.0
  0
VERTEX
  5
4C3
  8
0
 10
30.9507
 20
131.259
 30
0.0
  0
VERTEX
  5
4C4
  8
0
 10
30.9507
 20
131.241
 30
0.0
  0
VERTEX
  5
4C5
  8
0
 10
30.9507
 20
134.241
 30
0.0
  0
VERTEX
  5
4C6
  8
0
 10
30.9507
 20
134.259
 30
0.0
  0
VERTEX
  5
4C7
  8
0
 10
30.9204
 20
134.313
 30
0.0
  0
VERTEX
  5
4C8
  8
0
 10
30.8667
 20
134.342
 30
0.0
  0
VERTEX
  5
4C9
  8
0
 10
30.8501
 20
134.342
 30
0.0
  0
VERTEX
  5
4CA
  8
0
 10
24.8502
 20
134.342
 30
0.0
  0
VERTEX
  5
4CB
  8
0
 10
24.8322
 20
134.342
 30
0.0
  0
VERTEX
  5
4CC
  8
0
 10
24.7785
 20
134.313
 30
0.0
  0
VERTEX
  5
4CD
  8
0
 10
24.7496
 20
134.259
 30
0.0
  0
VERTEX
  5
4CE
  8
0
 10
24.7496
 20
134.241
 30
0.0
  0
VERTEX
  5
4CF
  8
0
 10
24.7496
 20
131.241
 30
0.0
  0
VERTEX
  5
4D0
  8
0
 10
24.7496
 20
131.259
 30
0.0
  0
VERTEX
  5
4D1
  8
0
 10
24.7785
 20
131.313
 30
0.0
  0
VERTEX
  5
4D2
  8
0
 10
24.8322
 20
131.342
 30
0.0
  0
VERTEX
  5
4D3
  8
0
 10
24.8502
 20
131.342
 30
0.0
  0
VERTEX
  5
4D4
  8
0
 10
18.8502
 20
131.342
 30
0.0
  0
VERTEX
  5
4D5
  8
0
 10
18.8667
 20
131.342
 30
0.0
  0
VERTEX
  5
4D6
  8
0
 10
18.9205
 20
131.313
 30
0.0
  0
VERTEX
  5
4D7
  8
0
 10
18.9508
 20
131.259
 30
0.0
  0
VERTEX
  5
4D8
  8
0
 10
18.9508
 20
131.241
 30
0.0
  0
VERTEX
  5
4D9
  8
0
 10
18.9508
 20
134.241
 30
0.0
  0
VERTEX
  5
4DA
  8
0
 10
18.9508
 20
134.259
 30
0.0
  0
VERTEX
  5
4DB
  8
0
 10
18.9205
 20
134.313
 30
0.0
  0
VERTEX
  5
4DC
  8
0
 10
18.8667
 20
134.342
 30
0.0
  0
VERTEX
  5
4DD
  8
0
 10
18.8502
 20
134.342
 30
0.0
  0
VERTEX
  5
4DE
  8
0
 10
12.8502
 20
134.342
 30
0.0
  0
VERTEX
  5
4DF
  8
0
 10
12.8323
 20
134.342
 30
0.0
  0
VERTEX
  5
4E0
  8
0
 10
12.7786
 20
134.313
 30
0.0
  0
VERTEX
  5
4E1
  8
0
 10
12.7496
 20
134.259
 30
0.0
  0
VERTEX
  5
4E2
  8
0
 10
12.7496
 20
134.241
 30
0.0
  0
VERTEX
  5
4E3
  8
0
 10
12.7496
 20
131.241
 30
0.0
  0
VERTEX
  5
4E4
  8
0
 10
12.7496
 20
131.259
 30
0.0
  0
VERTEX
  5
4E5
  8
0
 10
12.7786
 20
131.313
 30
0.0
  0
VERTEX
  5
4E6
  8
0
 10
12.8323
 20
131.342
 30
0.0
  0
VERTEX
  5
4E7
  8
0
 10
12.8502
 20
131.342
 30
0.0
  0
VERTEX
  5
4E8
  8
0
 10
3.85025
 20
131.342
 30
0.0
  0
VERTEX
  5
4E9
  8
0
 10
3.83233
 20
131.342
 30
0.0
  0
VERTEX
  5
4EA
  8
0
 10
3.77857
 20
131.313
 30
0.0
  0
VERTEX
  5
4EB
  8
0
 10
3.74964
 20
131.259
 30
0.0
  0
VERTEX
  5
4EC
  8
0
 10
3.74964
 20
131.241
 30
0.0
  0
VERTEX
  5
4ED
  8
0
 10
3.74964
 20
120.242
 30
0.0
  0
VERTEX
  5
4EE
  8
0
 10
3.74964
 20
120.26
 30
0.0
  0
VERTEX
  5
4EF
  8
0
 10
3.77857
 20
120.314
 30
0.0
  0
VERTEX
  5
4F0
  8
0
 10
3.83233
 20
120.343
 30
0.0
  0
VERTEX
  5
4F1
  8
0
 10
3.85025
 20
120.343
 30
0.0
  0
VERTEX
  5
4F2
  8
0
 10
0.850251
 20
120.343
 30
0.0
  0
VERTEX
  5
4F3
  8
0
 10
0.832337
 20
120.343
 30
0.0
  0
VERTEX
  5
4F4
  8
0
 10
0.778591
 20
120.314
 30
0.0
  0
VERTEX
  5
4F5
  8
0
 10
0.749653
 20
120.26
 30
0.0
  0
VERTEX
  5
4F6
  8
0
 10
0.749653
 20
120.242
 30
0.0
  0
VERTEX
  5
4F7
  8
0
 10
0.749653
 20
114.242
 30
0.0
  0
VERTEX
  5
4F8
  8
0
 10
0.749653
 20
114.226
 30
0.0
  0
VERTEX
  5
4F9
  8
0
 10
0.778591
 20
114.172
 30
0.0
  0
VERTEX
  5
4FA
  8
0
 10
0.832337
 20
114.142
 30
0.0
  0
VERTEX
  5
4FB
  8
0
 10
0.850251
 20
114.142
 30
0.0
  0
VERTEX
  5
4FC
  8
0
 10
3.85025
 20
114.142
 30
0.0
  0
VERTEX
  5
4FD
  8
0
 10
3.83233
 20
114.142
 30
0.0
  0
VERTEX
  5
4FE
  8
0
 10
3.77857
 20
114.172
 30
0.0
  0
VERTEX
  5
4FF
  8
0
 10
3.74964
 20
114.226
 30
0.0
  0
VERTEX
  5
500
  8
0
 10
3.74964
 20
114.242
 30
0.0
  0
VERTEX
  5
501
  8
0
 10
3.74964
 20
108.242
 30
0.0
  0
VERTEX
  5
502
  8
0
 10
3.74964
 20
108.26
 30
0.0
  0
VERTEX
  5
503
  8
0
 10
3.77857
 20
108.314
 30
0.0
  0
VERTEX
  5
504
  8
0
 10
3.83233
 20
108.343
 30
0.0
  0
VERTEX
  5
505
  8
0
 10
3.85025
 20
108.343
 30
0.0
  0
VERTEX
  5
506
  8
0
 10
0.850251
 20
108.343
 30
0.0
  0
VERTEX
  5
507
  8
0
 10
0.832337
 20
108.343
 30
0.0
  0
VERTEX
  5
508
  8
0
 10
0.778591
 20
108.314
 30
0.0
  0
VERTEX
  5
509
  8
0
 10
0.749653
 20
108.26
 30
0.0
  0
VERTEX
  5
50A
  8
0
 10
0.749653
 20
108.242
 30
0.0
  0
VERTEX
  5
50B
  8
0
 10
0.749653
 20
102.242
 30
0.0
  0
VERTEX
  5
50C
  8
0
 10
0.749653
 20
102.225
 30
0.0
  0
VERTEX
  5
50D
  8
0
 10
0.778591
 20
102.172
 30
0.0
  0
VERTEX
  5
50E
  8
0
 10
0.832337
 20
102.142
 30
0.0
  0
VERTEX
  5
50F
  8
0
 10
0.850251
 20
102.142
 30
0.0
  0
VERTEX
  5
510
  8
0
 10
3.85025
 20
102.142
 30
0.0
  0
VERTEX
  5
511
  8
0
 10
3.83233
 20
102.142
 30
0.0
  0
VERTEX
  5
512
  8
0
 10
3.77857
 20
102.172
 30
0.0
  0
VERTEX
  5
513
  8
0
 10
3.74964
 20
102.225
 30
0.0
  0
VERTEX
  5
514
  8
0
 10
3.74964
 20
102.242
 30
0.0
  0
VERTEX
  5
515
  8
0
 10
3.74964
 20
91.2428
 30
0.0
  0
VERTEX
  5
516
  8
0
 10
3.74964
 20
91.2262
 30
0.0
  0
VERTEX
  5
517
  8
0
 10
3.77857
 20
91.1722
 30
0.0
  0
VERTEX
  5
518
  8
0
 10
3.83233
 20
91.1419
 30
0.0
  0
SEQEND
  5
799
  8
0
  0
POLYLINE
  5
74
  8
0
 66
     1
 10
0.0
 20
0.0
 30
0.0
 70
     1
  0
VERTEX
  5
519
  8
0
 10
71.5504
 20
91.1419
 30
0.0
  0
VERTEX
  5
51A
  8
0
 10
80.5505
 20
91.1419
 30
0.0
  0
VERTEX
  5
51B
  8
0
 10
80.5325
 20
91.1419
 30
0.0
  0
VERTEX
  5
51C
  8
0
 10
80.4788
 20
91.1722
 30
0.0
  0
VERTEX
  5
51D
  8
0
 10
80.4499
 20
91.2262
 30
0.0
  0
VERTEX
  5
51E
  8
0
 10
80.4499
 20
91.2428
 30
0.0
  0
VERTEX
  5
51F
  8
0
 10
80.4499
 20
88.2428
 30
0.0
  0
VERTEX
  5
520
  8
0
 10
80.4499
 20
88.2262
 30
0.0
  0
VERTEX
  5
521
  8
0
 10
80.4788
 20
88.1726
 30
0.0
  0
VERTEX
  5
522
  8
0
 10
80.5325
 20
88.1422
 30
0.0
  0
VERTEX
  5
523
  8
0
 10
80.5505
 20
88.1422
 30
0.0
  0
VERTEX
  5
524
  8
0
 10
86.5505
 20
88.1422
 30
0.0
  0
VERTEX
  5
525
  8
0
 10
86.5671
 20
88.1422
 30
0.0
  0
VERTEX
  5
526
  8
0
 10
86.6207
 20
88.1726
 30
0.0
  0
VERTEX
  5
527
  8
0
 10
86.651
 20
88.2262
 30
0.0
  0
VERTEX
  5
528
  8
0
 10
86.651
 20
88.2428
 30
0.0
  0
VERTEX
  5
529
  8
0
 10
86.651
 20
91.2428
 30
0.0
  0
VERTEX
  5
52A
  8
0
 10
86.651
 20
91.2262
 30
0.0
  0
VERTEX
  5
52B
  8
0
 10
86.6207
 20
91.1722
 30
0.0
  0
VERTEX
  5
52C
  8
0
 10
86.5671
 20
91.1419
 30
0.0
  0
VERTEX
  5
52D
  8
0
 10
86.5505
 20
91.1419
 30
0.0
  0
VERTEX
  5
52E
  8
0
 10
92.5505
 20
91.1419
 30
0.0
  0
VERTEX
  5
52F
  8
0
 10
92.5326
 20
91.1419
 30
0.0
  0
VERTEX
  5
530
  8
0
 10
92.4789
 20
91.1722
 30
0.0
  0
VERTEX
  5
531
  8
0
 10
92.45
 20
91.2262
 30
0.0
  0
VERTEX
  5
532
  8
0
 10
92.45
 20
91.2428
 30
0.0
  0
VERTEX
  5
533
  8
0
 10
92.45
 20
88.2428
 30
0.0
  0
VERTEX
  5
534
  8
0
 10
92.45
 20
88.2262
 30
0.0
  0
VERTEX
  5
535
  8
0
 10
92.4789
 20
88.1726
 30
0.0
  0
VERTEX
  5
536
  8
0
 10
92.5326
 20
88.1422
 30
0.0
  0
VERTEX
  5
537
  8
0
 10
92.5505
 20
88.1422
 30
0.0
  0
VERTEX
  5
538
  8
0
 10
98.5502
 20
88.1422
 30
0.0
  0
VERTEX
  5
539
  8
0
 10
98.5668
 20
88.1422
 30
0.0
  0
VERTEX
  5
53A
  8
0
 10
98.6208
 20
88.1726
 30
0.0
  0
VERTEX
  5
53B
  8
0
 10
98.6511
 20
88.2262
 30
0.0
  0
VERTEX
  5
53C
  8
0
 10
98.6511
 20
88.2428
 30
0.0
  0
VERTEX
  5
53D
  8
0
 10
98.6511
 20
91.2428
 30
0.0
  0
VERTEX
  5
53E
  8
0
 10
98.6511
 20
91.2262
 30
0.0
  0
VERTEX
  5
53F
  8
0
 10
98.6208
 20
91.1722
 30
0.0
  0
VERTEX
  5
540
  8
0
 10
98.5668
 20
91.1419
 30
0.0
  0
VERTEX
  5
541
  8
0
 10
98.5502
 20
91.1419
 30
0.0
  0
VERTEX
  5
542
  8
0
 10
104.55
 20
91.1419
 30
0.0
  0
VERTEX
  5
543
  8
0
 10
104.533
 20
91.1419
 30
0.0
  0
VERTEX
  5
544
  8
0
 10
104.479
 20
91.1722
 30
0.0
  0
VERTEX
  5
545
  8
0
 10
104.45
 20
91.2262
 30
0.0
  0
VERTEX
  5
546
  8
0
 10
104.45
 20
91.2428
 30
0.0
  0
VERTEX
  5
547
  8
0
 10
104.45
 20
88.2428
 30
0.0
  0
VERTEX
  5
548
  8
0
 10
104.45
 20
88.2262
 30
0.0
  0
VERTEX
  5
549
  8
0
 10
104.479
 20
88.1726
 30
0.0
  0
VERTEX
  5
54A
  8
0
 10
104.533
 20
88.1422
 30
0.0
  0
VERTEX
  5
54B
  8
0
 10
104.55
 20
88.1422
 30
0.0
  0
VERTEX
  5
54C
  8
0
 10
110.55
 20
88.1422
 30
0.0
  0
VERTEX
  5
54D
  8
0
 10
110.567
 20
88.1422
 30
0.0
  0
VERTEX
  5
54E
  8
0
 10
110.621
 20
88.1726
 30
0.0
  0
VERTEX
  5
54F
  8
0
 10
110.651
 20
88.2262
 30
0.0
  0
VERTEX
  5
550
  8
0
 10
110.651
 20
88.2428
 30
0.0
  0
VERTEX
  5
551
  8
0
 10
110.651
 20
91.2428
 30
0.0
  0
VERTEX
  5
552
  8
0
 10
110.651
 20
91.2262
 30
0.0
  0
VERTEX
  5
553
  8
0
 10
110.621
 20
91.1722
 30
0.0
  0
VERTEX
  5
554
  8
0
 10
110.567
 20
91.1419
 30
0.0
  0
VERTEX
  5
555
  8
0
 10
110.55
 20
91.1419
 30
0.0
  0
VERTEX
  5
556
  8
0
 10
116.55
 20
91.1419
 30
0.0
  0
VERTEX
  5
557
  8
0
 10
116.532
 20
91.1419
 30
0.0
  0
VERTEX
  5
558
  8
0
 10
116.479
 20
91.1722
 30
0.0
  0
VERTEX
  5
559
  8
0
 10
116.45
 20
91.2262
 30
0.0
  0
VERTEX
  5
55A
  8
0
 10
116.45
 20
91.2428
 30
0.0
  0
VERTEX
  5
55B
  8
0
 10
116.45
 20
88.2428
 30
0.0
  0
VERTEX
  5
55C
  8
0
 10
116.45
 20
88.2262
 30
0.0
  0
VERTEX
  5
55D
  8
0
 10
116.479
 20
88.1726
 30
0.0
  0
VERTEX
  5
55E
  8
0
 10
116.532
 20
88.1422
 30
0.0
  0
VERTEX
  5
55F
  8
0
 10
116.55
 20
88.1422
 30
0.0
  0
VERTEX
  5
560
  8
0
 10
122.55
 20
88.1422
 30
0.0
  0
VERTEX
  5
561
  8
0
 10
122.567
 20
88.1422
 30
0.0
  0
VERTEX
  5
562
  8
0
 10
122.621
 20
88.1726
 30
0.0
  0
VERTEX
  5
563
  8
0
 10
122.651
 20
88.2262
 30
0.0
  0
VERTEX
  5
564
  8
0
 10
122.651
 20
88.2428
 30
0.0
  0
VERTEX
  5
565
  8
0
 10
122.651
 20
91.2428
 30
0.0
  0
VERTEX
  5
566
  8
0
 10
122.651
 20
91.2262
 30
0.0
  0
VERTEX
  5
567
  8
0
 10
122.621
 20
91.1722
 30
0.0
  0
VERTEX
  5
568
  8
0
 10
122.567
 20
91.1419
 30
0.0
  0
VERTEX
  5
569
  8
0
 10
122.55
 20
91.1419
 30
0.0
  0
VERTEX
  5
56A
  8
0
 10
131.55
 20
91.1419
 30
0.0
  0
VERTEX
  5
56B
  8
0
 10
131.567
 20
91.1419
 30
0.0
  0
VERTEX
  5
56C
  8
0
 10
131.621
 20
91.1722
 30
0.0
  0
VERTEX
  5
56D
  8
0
 10
131.651
 20
91.2262
 30
0.0
  0
VERTEX
  5
56E
  8
0
 10
131.651
 20
91.2428
 30
0.0
  0
VERTEX
  5
56F
  8
0
 10
131.651
 20
102.242
 30
0.0
  0
VERTEX
  5
570
  8
0
 10
131.651
 20
102.225
 30
0.0
  0
VERTEX
  5
571
  8
0
 10
131.621
 20
102.172
 30
0.0
  0
VERTEX
  5
572
  8
0
 10
131.567
 20
102.142
 30
0.0
  0
VERTEX
  5
573
  8
0
 10
131.55
 20
102.142
 30
0.0
  0
VERTEX
  5
574
  8
0
 10
134.55
 20
102.142
 30
0.0
  0
VERTEX
  5
575
  8
0
 10
134.567
 20
102.142
 30
0.0
  0
VERTEX
  5
576
  8
0
 10
134.621
 20
102.172
 30
0.0
  0
VERTEX
  5
577
  8
0
 10
134.651
 20
102.225
 30
0.0
  0
VERTEX
  5
578
  8
0
 10
134.651
 20
102.242
 30
0.0
  0
VERTEX
  5
579
  8
0
 10
134.651
 20
108.242
 30
0.0
  0
VERTEX
  5
57A
  8
0
 10
134.651
 20
108.26
 30
0.0
  0
VERTEX
  5
57B
  8
0
 10
134.621
 20
108.314
 30
0.0
  0
VERTEX
  5
57C
  8
0
 10
134.567
 20
108.343
 30
0.0
  0
VERTEX
  5
57D
  8
0
 10
134.55
 20
108.343
 30
0.0
  0
VERTEX
  5
57E
  8
0
 10
131.55
 20
108.343
 30
0.0
  0
VERTEX
  5
57F
  8
0
 10
131.567
 20
108.343
 30
0.0
  0
VERTEX
  5
580
  8
0
 10
131.621
 20
108.314
 30
0.0
  0
VERTEX
  5
581
  8
0
 10
131.651
 20
108.26
 30
0.0
  0
VERTEX
  5
582
  8
0
 10
131.651
 20
108.242
 30
0.0
  0
VERTEX
  5
583
  8
0
 10
131.651
 20
114.242
 30
0.0
  0
VERTEX
  5
584
  8
0
 10
131.651
 20
114.226
 30
0.0
  0
VERTEX
  5
585
  8
0
 10
131.621
 20
114.172
 30
0.0
  0
VERTEX
  5
586
  8
0
 10
131.567
 20
114.142
 30
0.0
  0
VERTEX
  5
587
  8
0
 10
131.55
 20
114.142
 30
0.0
  0
VERTEX
  5
588
  8
0
 10
134.55
 20
114.142
 30
0.0
  0
VERTEX
  5
589
  8
0
 10
134.567
 20
114.142
 30
0.0
  0
VERTEX
  5
58A
  8
0
 10
134.621
 20
114.172
 30
0.0
  0
VERTEX
  5
58B
  8
0
 10
134.651
 20
114.226
 30
0.0
  0
VERTEX
  5
58C
  8
0
 10
134.651
 20
114.242
 30
0.0
  0
VERTEX
  5
58D
  8
0
 10
134.651
 20
120.242
 30
0.0
  0
VERTEX
  5
58E
  8
0
 10
134.651
 20
120.26
 30
0.0
  0
VERTEX
  5
58F
  8
0
 10
134.621
 20
120.314
 30
0.0
  0
VERTEX
  5
590
  8
0
 10
134.567
 20
120.343
 30
0.0
  0
VERTEX
  5
591
  8
0
 10
134.55
 20
120.343
 30
0.0
  0
VERTEX
  5
592
  8
0
 10
131.55
 20
120.343
 30
0.0
  0
VERTEX
  5
593
  8
0
 10
131.567
 20
120.343
 30
0.0
  0
VERTEX
  5
594
  8
0
 10
131.621
 20
120.314
 30
0.0
  0
VERTEX
  5
595
  8
0
 10
131.651
 20
120.26
 30
0.0
  0
VERTEX
  5
596
  8
0
 10
131.651
 20
120.242
 30
0.0
  0
VERTEX
  5
597
  8
0
 10
131.651
 20
131.241
 30
0.0
  0
VERTEX
  5
598
  8
0
 10
131.651
 20
131.259
 30
0.0
  0
VERTEX
  5
599
  8
0
 10
131.621
 20
131.313
 30
0.0
  0
VERTEX
  5
59A
  8
0
 10
131.567
 20
131.342
 30
0.0
  0
VERTEX
  5
59B
  8
0
 10
131.55
 20
131.342
 30
0.0
  0
VERTEX
  5
59C
  8
0
 10
122.55
 20
131.342
 30
0.0
  0
VERTEX
  5
59D
  8
0
 10
122.567
 20
131.342
 30
0.0
  0
VERTEX
  5
59E
  8
0
 10
122.621
 20
131.313
 30
0.0
  0
VERTEX
  5
59F
  8
0
 10
122.651
 20
131.259
 30
0.0
  0
VERTEX
  5
5A0
  8
0
 10
122.651
 20
131.241
 30
0.0
  0
VERTEX
  5
5A1
  8
0
 10
122.651
 20
134.241
 30
0.0
  0
VERTEX
  5
5A2
  8
0
 10
122.651
 20
134.259
 30
0.0
  0
VERTEX
  5
5A3
  8
0
 10
122.621
 20
134.313
 30
0.0
  0
VERTEX
  5
5A4
  8
0
 10
122.567
 20
134.342
 30
0.0
  0
VERTEX
  5
5A5
  8
0
 10
122.55
 20
134.342
 30
0.0
  0
VERTEX
  5
5A6
  8
0
 10
116.55
 20
134.342
 30
0.0
  0
VERTEX
  5
5A7
  8
0
 10
116.532
 20
134.342
 30
0.0
  0
VERTEX
  5
5A8
  8
0
 10
116.479
 20
134.313
 30
0.0
  0
VERTEX
  5
5A9
  8
0
 10
116.45
 20
134.259
 30
0.0
  0
VERTEX
  5
5AA
  8
0
 10
116.45
 20
134.241
 30
0.0
  0
VERTEX
  5
5AB
  8
0
 10
116.45
 20
131.241
 30
0.0
  0
VERTEX
  5
5AC
  8
0
 10
116.45
 20
131.259
 30
0.0
  0
VERTEX
  5
5AD
  8
0
 10
116.479
 20
131.313
 30
0.0
  0
VERTEX
  5
5AE
  8
0
 10
116.532
 20
131.342
 30
0.0
  0
VERTEX
  5
5AF
  8
0
 10
116.55
 20
131.342
 30
0.0
  0
VERTEX
  5
5B0
  8
0
 10
110.55
 20
131.342
 30
0.0
  0
VERTEX
  5
5B1
  8
0
 10
110.567
 20
131.342
 30
0.0
  0
VERTEX
  5
5B2
  8
0
 10
110.621
 20
131.313
 30
0.0
  0
VERTEX
  5
5B3
  8
0
 10
110.651
 20
131.259
 30
0.0
  0
VERTEX
  5
5B4
  8
0
 10
110.651
 20
131.241
 30
0.0
  0
VERTEX
  5
5B5
  8
0
 10
110.651
 20
134.241
 30
0.0
  0
VERTEX
  5
5B6
  8
0
 10
110.651
 20
134.259
 30
0.0
  0
VERTEX
  5
5B7
  8
0
 10
110.621
 20
134.313
 30
0.0
  0
VERTEX
  5
5B8
  8
0
 10
110.567
 20
134.342
 30
0.0
  0
VERTEX
  5
5B9
  8
0
 10
110.55
 20
134.342
 30
0.0
  0
VERTEX
  5
5BA
  8
0
 10
104.55
 20
134.342
 30
0.0
  0
VERTEX
  5
5BB
  8
0
 10
104.533
 20
134.342
 30
0.0
  0
VERTEX
  5
5BC
  8
0
 10
104.479
 20
134.313
 30
0.0
  0
VERTEX
  5
5BD
  8
0
 10
104.45
 20
134.259
 30
0.0
  0
VERTEX
  5
5BE
  8
0
 10
104.45
 20
134.241
 30
0.0
  0
VERTEX
  5
5BF
  8
0
 10
104.45
 20
131.241
 30
0.0
  0
VERTEX
  5
5C0
  8
0
 10
104.45
 20
131.259
 30
0.0
  0
VERTEX
  5
5C1
  8
0
 10
104.479
 20
131.313
 30
0.0
  0
VERTEX
  5
5C2
  8
0
 10
104.533
 20
131.342
 30
0.0
  0
VERTEX
  5
5C3
  8
0
 10
104.55
 20
131.342
 30
0.0
  0
VERTEX
  5
5C4
  8
0
 10
98.5502
 20
131.342
 30
0.0
  0
VERTEX
  5
5C5
  8
0
 10
98.5668
 20
131.342
 30
0.0
  0
VERTEX
  5
5C6
  8
0
 10
98.6208
 20
131.313
 30
0.0
  0
VERTEX
  5
5C7
  8
0
 10
98.6511
 20
131.259
 30
0.0
  0
VERTEX
  5
5C8
  8
0
 10
98.6511
 20
131.241
 30
0.0
  0
VERTEX
  5
5C9
  8
0
 10
98.6511
 20
134.241
 30
0.0
  0
VERTEX
  5
5CA
  8
0
 10
98.6511
 20
134.259
 30
0.0
  0
VERTEX
  5
5CB
  8
0
 10
98.6208
 20
134.313
 30
0.0
  0
VERTEX
  5
5CC
  8
0
 10
98.5668
 20
134.342
 30
0.0
  0
VERTEX
  5
5CD
  8
0
 10
98.5502
 20
134.342
 30
0.0
  0
VERTEX
  5
5CE
  8
0
 10
92.5505
 20
134.342
 30
0.0
  0
VERTEX
  5
5CF
  8
0
 10
92.5326
 20
134.342
 30
0.0
  0
VERTEX
  5
5D0
  8
0
 10
92.4789
 20
134.313
 30
0.0
  0
VERTEX
  5
5D1
  8
0
 10
92.45
 20
134.259
 30
0.0
  0
VERTEX
  5
5D2
  8
0
 10
92.45
 20
134.241
 30
0.0
  0
VERTEX
  5
5D3
  8
0
 10
92.45
 20
131.241
 30
0.0
  0
VERTEX
  5
5D4
  8
0
 10
92.45
 20
131.259
 30
0.0
  0
VERTEX
  5
5D5
  8
0
 10
92.4789
 20
131.313
 30
0.0
  0
VERTEX
  5
5D6
  8
0
 10
92.5326
 20
131.342
 30
0.0
  0
VERTEX
  5
5D7
  8
0
 10
92.5505
 20
131.342
 30
0.0
  0
VERTEX
  5
5D8
  8
0
 10
86.5505
 20
131.342
 30
0.0
  0
VERTEX
  5
5D9
  8
0
 10
86.5671
 20
131.342
 30
0.0
  0
VERTEX
  5
5DA
  8
0
 10
86.6207
 20
131.313
 30
0.0
  0
VERTEX
  5
5DB
  8
0
 10
86.651
 20
131.259
 30
0.0
  0
VERTEX
  5
5DC
  8
0
 10
86.651
 20
131.241
 30
0.0
  0
VERTEX
  5
5DD
  8
0
 10
86.651
 20
134.241
 30
0.0
  0
VERTEX
  5
5DE
  8
0
 10
86.651
 20
134.259
 30
0.0
  0
VERTEX
  5
5DF
  8
0
 10
86.6207
 20
134.313
 30
0.0
  0
VERTEX
  5
5E0
  8
0
 10
86.5671
 20
134.342
 30
0.0
  0
VERTEX
  5
5E1
  8
0
 10
86.5505
 20
134.342
 30
0.0
  0
VERTEX
  5
5E2
  8
0
 10
80.5505
 20
134.342
 30
0.0
  0
VERTEX
  5
5E3
  8
0
 10
80.5325
 20
134.342
 30
0.0
  0
VERTEX
  5
5E4
  8
0
 10
80.4788
 20
134.313
 30
0.0
  0
VERTEX
  5
5E5
  8
0
 10
80.4499
 20
134.259
 30
0.0
  0
VERTEX
  5
5E6
  8
0
 10
80.4499
 20
134.241
 30
0.0
  0
VERTEX
  5
5E7
  8
0
 10
80.4499
 20
131.241
 30
0.0
  0
VERTEX
  5
5E8
  8
0
 10
80.4499
 20
131.259
 30
0.0
  0
VERTEX
  5
5E9
  8
0
 10
80.4788
 20
131.313
 30
0.0
  0
VERTEX
  5
5EA
  8
0
 10
80.5325
 20
131.342
 30
0.0
  0
VERTEX
  5
5EB
  8
0
 10
80.5505
 20
131.342
 30
0.0
  0
VERTEX
  5
5EC
  8
0
 10
71.5504
 20
131.342
 30
0.0
  0
VERTEX
  5
5ED
  8
0
 10
71.5328
 20
131.342
 30
0.0
  0
VERTEX
  5
5EE
  8
0
 10
71.4788
 20
131.313
 30
0.0
  0
VERTEX
  5
5EF
  8
0
 10
71.4498
 20
131.259
 30
0.0
  0
VERTEX
  5
5F0
  8
0
 10
71.4498
 20
131.241
 30
0.0
  0
VERTEX
  5
5F1
  8
0
 10
71.4498
 20
120.242
 30
0.0
  0
VERTEX
  5
5F2
  8
0
 10
71.4498
 20
120.26
 30
0.0
  0
VERTEX
  5
5F3
  8
0
 10
71.4788
 20
120.314
 30
0.0
  0
VERTEX
  5
5F4
  8
0
 10
71.5328
 20
120.343
 30
0.0
  0
VERTEX
  5
5F5
  8
0
 10
71.5504
 20
120.343
 30
0.0
  0
VERTEX
  5
5F6
  8
0
 10
68.5504
 20
120.343
 30
0.0
  0
VERTEX
  5
5F7
  8
0
 10
68.5327
 20
120.343
 30
0.0
  0
VERTEX
  5
5F8
  8
0
 10
68.4788
 20
120.314
 30
0.0
  0
VERTEX
  5
5F9
  8
0
 10
68.4498
 20
120.26
 30
0.0
  0
VERTEX
  5
5FA
  8
0
 10
68.4498
 20
120.242
 30
0.0
  0
VERTEX
  5
5FB
  8
0
 10
68.4498
 20
114.242
 30
0.0
  0
VERTEX
  5
5FC
  8
0
 10
68.4498
 20
114.226
 30
0.0
  0
VERTEX
  5
5FD
  8
0
 10
68.4788
 20
114.172
 30
0.0
  0
VERTEX
  5
5FE
  8
0
 10
68.5327
 20
114.142
 30
0.0
  0
VERTEX
  5
5FF
  8
0
 10
68.5504
 20
114.142
 30
0.0
  0
VERTEX
  5
600
  8
0
 10
71.5504
 20
114.142
 30
0.0
  0
VERTEX
  5
601
  8
0
 10
71.5328
 20
114.142
 30
0.0
  0
VERTEX
  5
602
  8
0
 10
71.4788
 20
114.172
 30
0.0
  0
VERTEX
  5
603
  8
0
 10
71.4498
 20
114.226
 30
0.0
  0
VERTEX
  5
604
  8
0
 10
71.4498
 20
114.242
 30
0.0
  0
VERTEX
  5
605
  8
0
 10
71.4498
 20
108.242
 30
0.0
  0
VERTEX
  5
606
  8
0
 10
71.4498
 20
108.26
 30
0.0
  0
VERTEX
  5
607
  8
0
 10
71.4788
 20
108.314
 30
0.0
  0
VERTEX
  5
608
  8
0
 10
71.5328
 20
108.343
 30
0.0
  0
VERTEX
  5
609
  8
0
 10
71.5504
 20
108.343
 30
0.0
  0
VERTEX
  5
60A
  8
0
 10
68.5504
 20
108.343
 30
0.0
  0
VERTEX
  5
60B
  8
0
 10
68.5327
 20
108.343
 30
0.0
  0
VERTEX
  5
60C
  8
0
 10
68.4788
 20
108.314
 30
0.0
  0
VERTEX
  5
60D
  8
0
 10
68.4498
 20
108.26
 30
0.0
  0
VERTEX
  5
60E
  8
0
 10
68.4498
 20
108.242
 30
0.0
  0
VERTEX
  5
60F
  8
0
 10
68.4498
 20
102.242
 30
0.0
  0
VERTEX
  5
610
  8
0
 10
68.4498
 20
102.225
 30
0.0
  0
VERTEX
  5
611
  8
0
 10
68.4788
 20
102.172
 30
0.0
  0
VERTEX
  5
612
  8
0
 10
68.5327
 20
102.142
 30
0.0
  0
VERTEX
  5
613
  8
0
 10
68.5504
 20
102.142
 30
0.0
  0
VERTEX
  5
614
  8
0
 10
71.5504
 20
102.142
 30
0.0
  0
VERTEX
  5
615
  8
0
 10
71.5328
 20
102.142
 30
0.0
  0
VERTEX
  5
616
  8
0
 10
71.4788
 20
102.172
 30
0.0
  0
VERTEX
  5
617
  8
0
 10
71.4498
 20
102.225
 30
0.0
  0
VERTEX
  5
618
  8
0
 10
71.4498
 20
102.242
 30
0.0
  0
VERTEX
  5
619
  8
0
 10
71.4498
 20
91.2428
 30
0.0
  0
VERTEX
  5
61A
  8
0
 10
71.4498
 20
91.2262
 30
0.0
  0
VERTEX
  5
61B
  8
0
 10
71.4788
 20
91.1722
 30
0.0
  0
VERTEX
  5
61C
  8
0
 10
71.5328
 20
91.1419
 30
0.0
  0
SEQEND
  5
79A
  8
0
  0
POLYLINE
  5
75
  8
0
 66
     1
 10
0.0
 20
0.0
 30
0.0
 70
     1
  0
VERTEX
  5
61D
  8
0
 10
16.19174843159066
 20
114.6489603559511
 30
0.0
 42
0.4142135623730951
  0
VERTEX
  5
61E
  8
0
 10
13.01674843159066
 20
111.4739603559511
 30
0.0
 42
0.4142135623730951
  0
VERTEX
  5
61F
  8
0
 10
16.19174843159066
 20
108.2989603559511
 30
0.0
 42
0.4142135623730951
  0
VERTEX
  5
620
  8
0
 10
19.36674843159066
 20
111.4739603559511
 30
0.0
 42
0.4142135623730951
  0
SEQEND
  5
79B
  8
0
  0
POLYLINE
  5
76
  8
0
 66
     1
 10
0.0
 20
0.0
 30
0.0
 70
     1
  0
VERTEX
  5
621
  8
0
 10
35.05071021134594
 20
114.6489603559511
 30
0.0
 42
0.4142135623730951
  0
VERTEX
  5
622
  8
0
 10
31.87571021134595
 20
111.4739603559511
 30
0.0
 42
0.4142135623730951
  0
VERTEX
  5
623
  8
0
 10
35.05071021134594
 20
108.2989603559511
 30
0.0
 42
0.4142135623730951
  0
VERTEX
  5
624
  8
0
 10
38.22571021134595
 20
111.4739603559511
 30
0.0
 42
0.4142135623730951
  0
SEQEND
  5
79C
  8
0
  0
POLYLINE
  5
77
  8
0
 66
     1
 10
0.0
 20
0.0
 30
0.0
 70
     1
  0
VERTEX
  5
625
  8
0
 10
53.90967199110123
 20
114.6489603559511
 30
0.0
 42
0.4142135623730951
  0
VERTEX
  5
626
  8
0
 10
50.73467199110123
 20
111.4739603559511
 30
0.0
 42
0.4142135623730951
  0
VERTEX
  5
627
  8
0
 10
53.90967199110123
 20
108.2989603559511
 30
0.0
 42
0.4142135623730951
  0
VERTEX
  5
628
  8
0
 10
57.08467199110123
 20
111.4739603559511
 30
0.0
 42
0.4142135623730951
  0
SEQEND
  5
79D
  8
0
  0
POLYLINE
  5
78
  8
0
 66
     1
 10
0.0
 20
0.0
 30
0.0
  0
VERTEX
  5
629
  8
0
 10
22.55011466073415
 20
128.9914044493882
 30
0.0
  0
VERTEX
  5
62A
  8
0
 10
24.91011466073415
 20
118.9914044493882
 30
0.0
  0
VERTEX
  5
62B
  8
0
 10
25.19011466073415
 20
118.9914044493882
 30
0.0
  0
VERTEX
  5
62C
  8
0
 10
27.55011466073415
 20
128.9914044493882
 30
0.0
  0
VERTEX
  5
62D
  8
0
 10
27.83011466073415
 20
128.9914044493882
 30
0.0
  0
VERTEX
  5
62E
  8
0
 10
30.19011466073415
 20
118.9914044493882
 30
0.0
  0
VERTEX
  5
62F
  8
0
 10
30.47011466073415
 20
118.9914044493882
 30
0.0
  0
VERTEX
  5
630
  8
0
 10
32.83011466073415
 20
128.9914044493882
 30
0.0
  0
SEQEND
  5
79E
  8
0
  0
POLYLINE
  5
79
  8
0
 66
     1
 10
0.0
 20
0.0
 30
0.0
  0
VERTEX
  5
631
  8
0
 10
35.03011466073415
 20
118.9914044493882
 30
0.0
  0
VERTEX
  5
632
  8
0
 10
35.03011466073415
 20
128.9914044493882
 30
0.0
  0
SEQEND
  5
79F
  8
0
  0
POLYLINE
  5
7A
  8
0
 66
     1
 10
0.0
 20
0.0
 30
0.0
  0
VERTEX
  5
633
  8
0
 10
37.23011466073415
 20
118.9914044493882
 30
0.0
  0
VERTEX
  5
634
  8
0
 10
37.23011466073415
 20
128.9914044493882
 30
0.0
  0
VERTEX
  5
635
  8
0
 10
43.43011466073416
 20
128.9914044493882
 30
0.0
  0
SEQEND
  5
7A0
  8
0
  0
POLYLINE
  5
7B
  8
0
 66
     1
 10
0.0
 20
0.0
 30
0.0
  0
VERTEX
  5
636
  8
0
 10
41.67011466073415
 20
124.1914044493882
 30
0.0
  0
VERTEX
  5
637
  8
0
 10
37.23011466073415
 20
124.1914044493882
 30
0.0
  0
SEQEND
  5
7A1
  8
0
  0
POLYLINE
  5
7C
  8
0
 66
     1
 10
0.0
 20
0.0
 30
0.0
  0
VERTEX
  5
638
  8
0
 10
45.63011466073415
 20
118.9914044493882
 30
0.0
  0
VERTEX
  5
639
  8
0
 10
45.63011466073415
 20
128.9914044493882
 30
0.0
  0
SEQEND
  5
7A2
  8
0
  0
POLYLINE
  5
7D
  8
0
 66
     1
 10
0.0
 20
0.0
 30
0.0
 70
     1
  0
VERTEX
  5
63A
  8
0
 10
18.19068311457175
 20
94.704
 30
0.0
  0
VERTEX
  5
63B
  8
0
 10
18.19068311457175
 20
104.704
 30
0.0
  0
VERTEX
  5
63C
  8
0
 10
21.03068311457175
 20
104.704
 30
0.0
  0
VERTEX
  5
63D
  8
0
 10
21.23098603101666
 20
104.6974333849599
 30
0.0
  0
VERTEX
  5
63E
  8
0
 10
21.42867996439787
 20
104.6779508046834
 30
0.0
  0
VERTEX
  5
63F
  8
0
 10
21.62352385872212
 20
104.6458781564364
 30
0.0
  0
VERTEX
  5
640
  8
0
 10
21.81527665799613
 20
104.6015413374847
 30
0.0
  0
VERTEX
  5
641
  8
0
 10
22.00369730622662
 20
104.5452662450941
 30
0.0
  0
VERTEX
  5
642
  8
0
 10
22.18854474742032
 20
104.4773787765305
 30
0.0
  0
VERTEX
  5
643
  8
0
 10
22.36957792558396
 20
104.3982048290597
 30
0.0
  0
VERTEX
  5
644
  8
0
 10
22.54655578472425
 20
104.3080702999475
 30
0.0
  0
VERTEX
  5
645
  8
0
 10
22.71923726884792
 20
104.2073010864597
 30
0.0
  0
VERTEX
  5
646
  8
0
 10
22.88738132196169
 20
104.0962230858623
 30
0.0
  0
VERTEX
  5
647
  8
0
 10
23.0507468880723
 20
103.9751621954209
 30
0.0
  0
VERTEX
  5
648
  8
0
 10
23.20909291118646
 20
103.8444443124015
 30
0.0
  0
VERTEX
  5
649
  8
0
 10
23.3621783353109
 20
103.7043953340699
 30
0.0
  0
VERTEX
  5
64A
  8
0
 10
23.50976210445234
 20
103.5553411576919
 30
0.0
  0
VERTEX
  5
64B
  8
0
 10
23.65160316261751
 20
103.3976076805333
 30
0.0
  0
VERTEX
  5
64C
  8
0
 10
23.78746045381314
 20
103.23152079986
 30
0.0
  0
VERTEX
  5
64D
  8
0
 10
23.91709292204594
 20
103.0574064129377
 30
0.0
  0
VERTEX
  5
64E
  8
0
 10
24.04025951132264
 20
102.8755904170324
 30
0.0
  0
VERTEX
  5
64F
  8
0
 10
24.15671916564996
 20
102.6863987094099
 30
0.0
  0
VERTEX
  5
650
  8
0
 10
24.26623082903464
 20
102.4901571873359
 30
0.0
  0
VERTEX
  5
651
  8
0
 10
24.36855344548339
 20
102.2871917480763
 30
0.0
  0
VERTEX
  5
652
  8
0
 10
24.46344595900294
 20
102.077828288897
 30
0.0
  0
VERTEX
  5
653
  8
0
 10
24.55066731360001
 20
101.8623927070638
 30
0.0
  0
VERTEX
  5
654
  8
0
 10
24.62997645328133
 20
101.6412108998424
 30
0.0
  0
VERTEX
  5
655
  8
0
 10
24.70113232205362
 20
101.4146087644989
 30
0.0
  0
VERTEX
  5
656
  8
0
 10
24.76389386392361
 20
101.1829121982988
 30
0.0
  0
VERTEX
  5
657
  8
0
 10
24.81802002289802
 20
100.9464470985082
 30
0.0
  0
VERTEX
  5
658
  8
0
 10
24.86326974298358
 20
100.7055393623928
 30
0.0
  0
VERTEX
  5
659
  8
0
 10
24.899401968187
 20
100.4605148872184
 30
0.0
  0
VERTEX
  5
65A
  8
0
 10
24.92617564251503
 20
100.211699570251
 30
0.0
  0
VERTEX
  5
65B
  8
0
 10
24.94334970997436
 20
99.9594193087562
 30
0.0
  0
VERTEX
  5
65C
  8
0
 10
24.95068311457175
 20
99.704
 30
0.0
  0
VERTEX
  5
65D
  8
0
 10
24.9433496778864
 20
99.44858065050771
 30
0.0
  0
VERTEX
  5
65E
  8
0
 10
24.92617558116407
 20
99.19630035344836
 30
0.0
  0
VERTEX
  5
65F
  8
0
 10
24.89940188032258
 20
98.94748500583347
 30
0.0
  0
VERTEX
  5
660
  8
0
 10
24.8632696312797
 20
98.7024605046745
 30
0.0
  0
VERTEX
  5
661
  8
0
 10
24.81801988995324
 20
98.46155274698296
 30
0.0
  0
VERTEX
  5
662
  8
0
 10
24.76389371226099
 20
98.22508762977034
 30
0.0
  0
VERTEX
  5
663
  8
0
 10
24.70113215412075
 20
97.99339105004815
 30
0.0
  0
VERTEX
  5
664
  8
0
 10
24.62997627145032
 20
97.76678890482785
 30
0.0
  0
VERTEX
  5
665
  8
0
 10
24.55066712016748
 20
97.54560709112096
 30
0.0
  0
VERTEX
  5
666
  8
0
 10
24.46344575619005
 20
97.33017150593898
 30
0.0
  0
VERTEX
  5
667
  8
0
 10
24.36855323543581
 20
97.12080804629339
 30
0.0
  0
VERTEX
  5
668
  8
0
 10
24.26623061382256
 20
96.91784260919569
 30
0.0
  0
VERTEX
  5
669
  8
0
 10
24.15671894726809
 20
96.72160109165736
 30
0.0
  0
VERTEX
  5
66A
  8
0
 10
24.04025929169021
 20
96.53240939068993
 30
0.0
  0
VERTEX
  5
66B
  8
0
 10
23.91709270300671
 20
96.35059340330486
 30
0.0
  0
VERTEX
  5
66C
  8
0
 10
23.78746023713538
 20
96.17647902651365
 30
0.0
  0
VERTEX
  5
66D
  8
0
 10
23.65160294999403
 20
96.0103921573278
 30
0.0
  0
VERTEX
  5
66E
  8
0
 10
23.50976189750044
 20
95.85265869275882
 30
0.0
  0
VERTEX
  5
66F
  8
0
 10
23.36217813557242
 20
95.7036045298182
 30
0.0
  0
VERTEX
  5
670
  8
0
 10
23.20909272012775
 20
95.56355556551742
 30
0.0
  0
VERTEX
  5
671
  8
0
 10
23.05074670708425
 20
95.43283769686798
 30
0.0
  0
VERTEX
  5
672
  8
0
 10
22.88738115235969
 20
95.31177682088136
 30
0.0
  0
VERTEX
  5
673
  8
0
 10
22.71923711187189
 20
95.20069883456907
 30
0.0
  0
VERTEX
  5
674
  8
0
 10
22.54655564153863
 20
95.09992963494261
 30
0.0
  0
VERTEX
  5
675
  8
0
 10
22.36957779727771
 20
95.00979511901348
 30
0.0
  0
VERTEX
  5
676
  8
0
 10
22.18854463500693
 20
94.93062118379315
 30
0.0
  0
VERTEX
  5
677
  8
0
 10
22.00369721064409
 20
94.86273372629313
 30
0.0
  0
VERTEX
  5
678
  8
0
 10
21.81527658010697
 20
94.80645864352492
 30
0.0
  0
VERTEX
  5
679
  8
0
 10
21.62352379931339
 20
94.76212183250001
 30
0.0
  0
VERTEX
  5
67A
  8
0
 10
21.42867992418113
 20
94.73004919022989
 30
0.0
  0
VERTEX
  5
67B
  8
0
 10
21.23098601062798
 20
94.71056661372604
 30
0.0
  0
VERTEX
  5
67C
  8
0
 10
21.03068311457175
 20
94.704
 30
0.0
  0
SEQEND
  5
7A3
  8
0
  0
POLYLINE
  5
7E
  8
0
 66
     1
 10
0.0
 20
0.0
 30
0.0
  0
VERTEX
  5
67D
  8
0
 10
33.51068311457175
 20
94.704
 30
0.0
  0
VERTEX
  5
67E
  8
0
 10
27.15068311457174
 20
94.704
 30
0.0
  0
VERTEX
  5
67F
  8
0
 10
27.15068311457174
 20
99.904
 30
0.0
  0
VERTEX
  5
680
  8
0
 10
31.43068311457175
 20
99.904
 30
0.0
  0
VERTEX
  5
681
  8
0
 10
27.15068311457174
 20
99.904
 30
0.0
  0
VERTEX
  5
682
  8
0
 10
27.15068311457174
 20
104.704
 30
0.0
  0
VERTEX
  5
683
  8
0
 10
33.27068311457175
 20
104.704
 30
0.0
  0
SEQEND
  5
7A4
  8
0
  0
POLYLINE
  5
7F
  8
0
 66
     1
 10
0.0
 20
0.0
 30
0.0
  0
VERTEX
  5
684
  8
0
 10
35.71068311457174
 20
94.704
 30
0.0
  0
VERTEX
  5
685
  8
0
 10
35.71068311457174
 20
104.704
 30
0.0
  0
VERTEX
  5
686
  8
0
 10
36.47068311457175
 20
104.704
 30
0.0
  0
VERTEX
  5
687
  8
0
 10
39.95068311457175
 20
94.704
 30
0.0
  0
VERTEX
  5
688
  8
0
 10
40.23068311457175
 20
94.704
 30
0.0
  0
VERTEX
  5
689
  8
0
 10
43.43068311457175
 20
103.904
 30
0.0
  0
VERTEX
  5
68A
  8
0
 10
43.71068311457174
 20
104.704
 30
0.0
  0
VERTEX
  5
68B
  8
0
 10
44.47068311457174
 20
104.704
 30
0.0
  0
VERTEX
  5
68C
  8
0
 10
44.47068311457174
 20
94.704
 30
0.0
  0
SEQEND
  5
7A5
  8
0
  0
POLYLINE
  5
80
  8
0
 66
     1
 10
0.0
 20
0.0
 30
0.0
 70
     1
  0
VERTEX
  5
68D
  8
0
 10
50.47068311457174
 20
94.58399999999999
 30
0.0
  0
VERTEX
  5
68E
  8
0
 10
50.66623061055246
 20
94.590662112229
 30
0.0
  0
VERTEX
  5
68F
  8
0
 10
50.859211040186
 20
94.610433982822
 30
0.0
  0
VERTEX
  5
690
  8
0
 10
51.04938564239105
 20
94.64299391263788
 30
0.0
  0
VERTEX
  5
691
  8
0
 10
51.23651565608635
 20
94.68802020253551
 30
0.0
  0
VERTEX
  5
692
  8
0
 10
51.42036232019061
 20
94.74519115337384
 30
0.0
  0
VERTEX
  5
693
  8
0
 10
51.60068687362253
 20
94.81418506601173
 30
0.0
  0
VERTEX
  5
694
  8
0
 10
51.77725055530083
 20
94.8946802413081
 30
0.0
  0
VERTEX
  5
695
  8
0
 10
51.94981460414424
 20
94.98635498012182
 30
0.0
  0
VERTEX
  5
696
  8
0
 10
52.11814025907145
 20
95.08888758331182
 30
0.0
  0
VERTEX
  5
697
  8
0
 10
52.28198875900119
 20
95.20195635173698
 30
0.0
  0
VERTEX
  5
698
  8
0
 10
52.44112134285216
 20
95.3252395862562
 30
0.0
  0
VERTEX
  5
699
  8
0
 10
52.5952992495431
 20
95.45841558772841
 30
0.0
  0
VERTEX
  5
69A
  8
0
 10
52.74428371799269
 20
95.60116265701248
 30
0.0
  0
VERTEX
  5
69B
  8
0
 10
52.88783598711967
 20
95.7531590949673
 30
0.0
  0
VERTEX
  5
69C
  8
0
 10
53.02571729584274
 20
95.91408320245179
 30
0.0
  0
VERTEX
  5
69D
  8
0
 10
53.15768888308062
 20
96.08361328032485
 30
0.0
  0
VERTEX
  5
69E
  8
0
 10
53.28351198775204
 20
96.26142762944536
 30
0.0
  0
VERTEX
  5
69F
  8
0
 10
53.40294784877568
 20
96.44720455067224
 30
0.0
  0
VERTEX
  5
6A0
  8
0
 10
53.51575770507029
 20
96.64062234486438
 30
0.0
  0
VERTEX
  5
6A1
  8
0
 10
53.62170279555455
 20
96.84135931288068
 30
0.0
  0
VERTEX
  5
6A2
  8
0
 10
53.7205443591472
 20
97.04909375558005
 30
0.0
  0
VERTEX
  5
6A3
  8
0
 10
53.81204363476694
 20
97.26350397382137
 30
0.0
  0
VERTEX
  5
6A4
  8
0
 10
53.89596186133249
 20
97.48426826846355
 30
0.0
  0
VERTEX
  5
6A5
  8
0
 10
53.97206027776257
 20
97.71106494036546
 30
0.0
  0
VERTEX
  5
6A6
  8
0
 10
54.04010012297589
 20
97.94357229038604
 30
0.0
  0
VERTEX
  5
6A7
  8
0
 10
54.09984263589115
 20
98.18146861938416
 30
0.0
  0
VERTEX
  5
6A8
  8
0
 10
54.15104905542708
 20
98.42443222821876
 30
0.0
  0
VERTEX
  5
6A9
  8
0
 10
54.1934806205024
 20
98.6721414177487
 30
0.0
  0
VERTEX
  5
6AA
  8
0
 10
54.22689857003581
 20
98.9242744888329
 30
0.0
  0
VERTEX
  5
6AB
  8
0
 10
54.25106414294602
 20
99.18050974233026
 30
0.0
  0
VERTEX
  5
6AC
  8
0
 10
54.26573857815176
 20
99.44052547909965
 30
0.0
  0
VERTEX
  5
6AD
  8
0
 10
54.27068311457174
 20
99.704
 30
0.0
  0
VERTEX
  5
6AE
  8
0
 10
54.26573857815176
 20
99.96747452090034
 30
0.0
  0
VERTEX
  5
6AF
  8
0
 10
54.25106414294602
 20
100.2274902576697
 30
0.0
  0
VERTEX
  5
6B0
  8
0
 10
54.22689857003581
 20
100.4837255111671
 30
0.0
  0
VERTEX
  5
6B1
  8
0
 10
54.1934806205024
 20
100.7358585822513
 30
0.0
  0
VERTEX
  5
6B2
  8
0
 10
54.15104905542708
 20
100.9835677717812
 30
0.0
  0
VERTEX
  5
6B3
  8
0
 10
54.09984263589115
 20
101.2265313806158
 30
0.0
  0
VERTEX
  5
6B4
  8
0
 10
54.04010012297589
 20
101.4644277096139
 30
0.0
  0
VERTEX
  5
6B5
  8
0
 10
53.97206027776257
 20
101.6969350596345
 30
0.0
  0
VERTEX
  5
6B6
  8
0
 10
53.89596186133249
 20
101.9237317315364
 30
0.0
  0
VERTEX
  5
6B7
  8
0
 10
53.81204363476694
 20
102.1444960261786
 30
0.0
  0
VERTEX
  5
6B8
  8
0
 10
53.7205443591472
 20
102.3589062444199
 30
0.0
  0
VERTEX
  5
6B9
  8
0
 10
53.62170279555455
 20
102.5666406871193
 30
0.0
  0
VERTEX
  5
6BA
  8
0
 10
53.51575770507029
 20
102.7673776551356
 30
0.0
  0
VERTEX
  5
6BB
  8
0
 10
53.40294784877568
 20
102.9607954493277
 30
0.0
  0
VERTEX
  5
6BC
  8
0
 10
53.28351198775204
 20
103.1465723705546
 30
0.0
  0
VERTEX
  5
6BD
  8
0
 10
53.15768888308062
 20
103.3243867196751
 30
0.0
  0
VERTEX
  5
6BE
  8
0
 10
53.02571729584274
 20
103.4939167975482
 30
0.0
  0
VERTEX
  5
6BF
  8
0
 10
52.88783598711967
 20
103.6548409050327
 30
0.0
  0
VERTEX
  5
6C0
  8
0
 10
52.74428371799269
 20
103.8068373429875
 30
0.0
  0
VERTEX
  5
6C1
  8
0
 10
52.5952992495431
 20
103.9495844122716
 30
0.0
  0
VERTEX
  5
6C2
  8
0
 10
52.44112134285216
 20
104.0827604137438
 30
0.0
  0
VERTEX
  5
6C3
  8
0
 10
52.28198875900119
 20
104.206043648263
 30
0.0
  0
VERTEX
  5
6C4
  8
0
 10
52.11814025907145
 20
104.3191124166882
 30
0.0
  0
VERTEX
  5
6C5
  8
0
 10
51.94981460414424
 20
104.4216450198782
 30
0.0
  0
VERTEX
  5
6C6
  8
0
 10
51.77725055530083
 20
104.5133197586919
 30
0.0
  0
VERTEX
  5
6C7
  8
0
 10
51.60068687362253
 20
104.5938149339883
 30
0.0
  0
VERTEX
  5
6C8
  8
0
 10
51.42036232019061
 20
104.6628088466261
 30
0.0
  0
VERTEX
  5
6C9
  8
0
 10
51.23651565608635
 20
104.7199797974645
 30
0.0
  0
VERTEX
  5
6CA
  8
0
 10
51.04938564239105
 20
104.7650060873621
 30
0.0
  0
VERTEX
  5
6CB
  8
0
 10
50.859211040186
 20
104.797566017178
 30
0.0
  0
VERTEX
  5
6CC
  8
0
 10
50.66623061055246
 20
104.817337887771
 30
0.0
  0
VERTEX
  5
6CD
  8
0
 10
50.47068311457174
 20
104.824
 30
0.0
  0
VERTEX
  5
6CE
  8
0
 10
50.27513561859102
 20
104.817337887771
 30
0.0
  0
VERTEX
  5
6CF
  8
0
 10
50.08215518895749
 20
104.797566017178
 30
0.0
  0
VERTEX
  5
6D0
  8
0
 10
49.89198058675243
 20
104.7650060873621
 30
0.0
  0
VERTEX
  5
6D1
  8
0
 10
49.70485057305713
 20
104.7199797974645
 30
0.0
  0
VERTEX
  5
6D2
  8
0
 10
49.52100390895288
 20
104.6628088466261
 30
0.0
  0
VERTEX
  5
6D3
  8
0
 10
49.34067935552095
 20
104.5938149339883
 30
0.0
  0
VERTEX
  5
6D4
  8
0
 10
49.16411567384265
 20
104.5133197586919
 30
0.0
  0
VERTEX
  5
6D5
  8
0
 10
48.99155162499925
 20
104.4216450198782
 30
0.0
  0
VERTEX
  5
6D6
  8
0
 10
48.82322597007203
 20
104.3191124166882
 30
0.0
  0
VERTEX
  5
6D7
  8
0
 10
48.6593774701423
 20
104.206043648263
 30
0.0
  0
VERTEX
  5
6D8
  8
0
 10
48.50024488629132
 20
104.0827604137438
 30
0.0
  0
VERTEX
  5
6D9
  8
0
 10
48.34606697960039
 20
103.9495844122716
 30
0.0
  0
VERTEX
  5
6DA
  8
0
 10
48.19708251115079
 20
103.8068373429875
 30
0.0
  0
VERTEX
  5
6DB
  8
0
 10
48.05353024202381
 20
103.6548409050327
 30
0.0
  0
VERTEX
  5
6DC
  8
0
 10
47.91564893330074
 20
103.4939167975482
 30
0.0
  0
VERTEX
  5
6DD
  8
0
 10
47.78367734606286
 20
103.3243867196751
 30
0.0
  0
VERTEX
  5
6DE
  8
0
 10
47.65785424139145
 20
103.1465723705546
 30
0.0
  0
VERTEX
  5
6DF
  8
0
 10
47.5384183803678
 20
102.9607954493277
 30
0.0
  0
VERTEX
  5
6E0
  8
0
 10
47.4256085240732
 20
102.7673776551356
 30
0.0
  0
VERTEX
  5
6E1
  8
0
 10
47.31966343358893
 20
102.5666406871193
 30
0.0
  0
VERTEX
  5
6E2
  8
0
 10
47.22082186999628
 20
102.3589062444199
 30
0.0
  0
VERTEX
  5
6E3
  8
0
 10
47.12932259437654
 20
102.1444960261786
 30
0.0
  0
VERTEX
  5
6E4
  8
0
 10
47.04540436781099
 20
101.9237317315364
 30
0.0
  0
VERTEX
  5
6E5
  8
0
 10
46.96930595138092
 20
101.6969350596345
 30
0.0
  0
VERTEX
  5
6E6
  8
0
 10
46.9012661061676
 20
101.4644277096139
 30
0.0
  0
VERTEX
  5
6E7
  8
0
 10
46.84152359325233
 20
101.2265313806158
 30
0.0
  0
VERTEX
  5
6E8
  8
0
 10
46.7903171737164
 20
100.9835677717812
 30
0.0
  0
VERTEX
  5
6E9
  8
0
 10
46.74788560864108
 20
100.7358585822513
 30
0.0
  0
VERTEX
  5
6EA
  8
0
 10
46.71446765910768
 20
100.4837255111671
 30
0.0
  0
VERTEX
  5
6EB
  8
0
 10
46.69030208619746
 20
100.2274902576697
 30
0.0
  0
VERTEX
  5
6EC
  8
0
 10
46.67562765099172
 20
99.96747452090034
 30
0.0
  0
VERTEX
  5
6ED
  8
0
 10
46.67068311457174
 20
99.704
 30
0.0
  0
VERTEX
  5
6EE
  8
0
 10
46.67562765099172
 20
99.44052547909965
 30
0.0
  0
VERTEX
  5
6EF
  8
0
 10
46.69030208619746
 20
99.18050974233026
 30
0.0
  0
VERTEX
  5
6F0
  8
0
 10
46.71446765910768
 20
98.9242744888329
 30
0.0
  0
VERTEX
  5
6F1
  8
0
 10
46.74788560864108
 20
98.6721414177487
 30
0.0
  0
VERTEX
  5
6F2
  8
0
 10
46.7903171737164
 20
98.42443222821876
 30
0.0
  0
VERTEX
  5
6F3
  8
0
 10
46.84152359325233
 20
98.18146861938416
 30
0.0
  0
VERTEX
  5
6F4
  8
0
 10
46.9012661061676
 20
97.94357229038604
 30
0.0
  0
VERTEX
  5
6F5
  8
0
 10
46.96930595138092
 20
97.71106494036546
 30
0.0
  0
VERTEX
  5
6F6
  8
0
 10
47.04540436781099
 20
97.48426826846355
 30
0.0
  0
VERTEX
  5
6F7
  8
0
 10
47.12932259437654
 20
97.26350397382137
 30
0.0
  0
VERTEX
  5
6F8
  8
0
 10
47.22082186999628
 20
97.04909375558005
 30
0.0
  0
VERTEX
  5
6F9
  8
0
 10
47.31966343358893
 20
96.84135931288068
 30
0.0
  0
VERTEX
  5
6FA
  8
0
 10
47.4256085240732
 20
96.64062234486438
 30
0.0
  0
VERTEX
  5
6FB
  8
0
 10
47.5384183803678
 20
96.44720455067224
 30
0.0
  0
VERTEX
  5
6FC
  8
0
 10
47.65785424139145
 20
96.26142762944536
 30
0.0
  0
VERTEX
  5
6FD
  8
0
 10
47.78367734606286
 20
96.08361328032485
 30
0.0
  0
VERTEX
  5
6FE
  8
0
 10
47.91564893330074
 20
95.91408320245179
 30
0.0
  0
VERTEX
  5
6FF
  8
0
 10
48.05353024202381
 20
95.7531590949673
 30
0.0
  0
VERTEX
  5
700
  8
0
 10
48.19708251115079
 20
95.60116265701248
 30
0.0
  0
VERTEX
  5
701
  8
0
 10
48.34606697960039
 20
95.45841558772841
 30
0.0
  0
VERTEX
  5
702
  8
0
 10
48.50024488629132
 20
95.3252395862562
 30
0.0
  0
VERTEX
  5
703
  8
0
 10
48.6593774701423
 20
95.20195635173698
 30
0.0
  0
VERTEX
  5
704
  8
0
 10
48.82322597007203
 20
95.08888758331182
 30
0.0
  0
VERTEX
  5
705
  8
0
 10
48.99155162499925
 20
94.98635498012182
 30
0.0
  0
VERTEX
  5
706
  8
0
 10
49.16411567384265
 20
94.8946802413081
 30
0.0
  0
VERTEX
  5
707
  8
0
 10
49.34067935552095
 20
94.81418506601173
 30
0.0
  0
VERTEX
  5
708
  8
0
 10
49.52100390895288
 20
94.74519115337384
 30
0.0
  0
VERTEX
  5
709
  8
0
 10
49.70485057305713
 20
94.68802020253551
 30
0.0
  0
VERTEX
  5
70A
  8
0
 10
49.89198058675243
 20
94.64299391263788
 30
0.0
  0
VERTEX
  5
70B
  8
0
 10
50.08215518895749
 20
94.610433982822
 30
0.0
  0
VERTEX
  5
70C
  8
0
 10
50.27513561859102
 20
94.590662112229
 30
0.0
  0
SEQEND
  5
7A6
  8
0
  0
POLYLINE
  5
81
  8
0
 66
     1
 10
0.0
 20
0.0
 30
0.0
  0
VERTEX
  5
70D
  8
0
 10
39.05375955506118
 20
113.6924808898776
 30
0.0
  0
VERTEX
  5
70E
  8
0
 10
39.07710330506117
 20
113.5527621398776
 30
0.0
  0
VERTEX
  5
70F
  8
0
 10
39.12500955506117
 20
113.4207308898776
 30
0.0
  0
VERTEX
  5
710
  8
0
 10
39.19579080506116
 20
113.2995746398776
 30
0.0
  0
VERTEX
  5
711
  8
0
 10
39.28775955506117
 20
113.1924808898776
 30
0.0
  0
VERTEX
  5
712
  8
0
 10
39.38118924256118
 20
113.1161332336276
 30
0.0
  0
VERTEX
  5
713
  8
0
 10
39.48094705506118
 20
113.0493246398777
 30
0.0
  0
VERTEX
  5
714
  8
0
 10
39.58623611756117
 20
112.9924066711276
 30
0.0
  0
VERTEX
  5
715
  8
0
 10
39.69625955506118
 20
112.9457308898776
 30
0.0
  0
VERTEX
  5
716
  8
0
 10
39.81022049256117
 20
112.9096488586276
 30
0.0
  0
VERTEX
  5
717
  8
0
 10
39.92732205506118
 20
112.8845121398776
 30
0.0
  0
VERTEX
  5
718
  8
0
 10
40.04676736756117
 20
112.8706722961276
 30
0.0
  0
VERTEX
  5
719
  8
0
 10
40.16775955506117
 20
112.8684808898776
 30
0.0
  0
VERTEX
  5
71A
  8
0
 10
40.27395877381118
 20
112.8704105773776
 30
0.0
  0
VERTEX
  5
71B
  8
0
 10
40.37910330506118
 20
112.8820433898776
 30
0.0
  0
VERTEX
  5
71C
  8
0
 10
40.48251346131117
 20
112.9031449523776
 30
0.0
  0
VERTEX
  5
71D
  8
0
 10
40.58350955506117
 20
112.9334808898776
 30
0.0
  0
VERTEX
  5
71E
  8
0
 10
40.68141189881118
 20
112.9728168273776
 30
0.0
  0
VERTEX
  5
71F
  8
0
 10
40.77554080506118
 20
113.0209183898776
 30
0.0
  0
VERTEX
  5
720
  8
0
 10
40.86521658631118
 20
113.0775512023776
 30
0.0
  0
VERTEX
  5
721
  8
0
 10
40.94975955506118
 20
113.1424808898776
 30
0.0
  0
VERTEX
  5
722
  8
0
 10
41.04247830506117
 20
113.2606683898776
 30
0.0
  0
VERTEX
  5
723
  8
0
 10
41.10950955506117
 20
113.3934808898776
 30
0.0
  0
VERTEX
  5
724
  8
0
 10
41.14916580506117
 20
113.5367933898776
 30
0.0
  0
VERTEX
  5
725
  8
0
 10
41.15820096131117
 20
113.6110980773776
 30
0.0
  0
VERTEX
  5
726
  8
0
 10
41.15975955506117
 20
113.6864808898776
 30
0.0
  0
VERTEX
  5
727
  8
0
 10
41.14729080506117
 20
113.8260121398776
 30
0.0
  0
VERTEX
  5
728
  8
0
 10
41.10800955506117
 20
113.9597308898776
 30
0.0
  0
VERTEX
  5
729
  8
0
 10
41.04360330506117
 20
114.0833246398776
 30
0.0
  0
VERTEX
  5
72A
  8
0
 10
40.95575955506117
 20
114.1924808898776
 30
0.0
  0
VERTEX
  5
72B
  8
0
 10
40.89247049256117
 20
114.2501918273776
 30
0.0
  0
VERTEX
  5
72C
  8
0
 10
40.82444705506117
 20
114.3016683898776
 30
0.0
  0
VERTEX
  5
72D
  8
0
 10
40.75220486756118
 20
114.3466762023776
 30
0.0
  0
VERTEX
  5
72E
  8
0
 10
40.67625955506118
 20
114.3849808898776
 30
0.0
  0
VERTEX
  5
72F
  8
0
 10
40.59712674256117
 20
114.4163480773776
 30
0.0
  0
VERTEX
  5
730
  8
0
 10
40.51532205506118
 20
114.4405433898776
 30
0.0
  0
VERTEX
  5
731
  8
0
 10
40.43136111756117
 20
114.4573324523776
 30
0.0
  0
VERTEX
  5
732
  8
0
 10
40.34575955506117
 20
114.4664808898776
 30
0.0
  0
VERTEX
  5
733
  8
0
 10
40.07775955506117
 20
114.4624808898776
 30
0.0
  0
VERTEX
  5
734
  8
0
 10
39.96727127381116
 20
114.4638246398776
 30
0.0
  0
VERTEX
  5
735
  8
0
 10
39.85835330506117
 20
114.4766058898776
 30
0.0
  0
VERTEX
  5
736
  8
0
 10
39.75182596131117
 20
114.5004496398776
 30
0.0
  0
VERTEX
  5
737
  8
0
 10
39.64850955506117
 20
114.5349808898776
 30
0.0
  0
VERTEX
  5
738
  8
0
 10
39.54922439881117
 20
114.5798246398776
 30
0.0
  0
VERTEX
  5
739
  8
0
 10
39.45479080506117
 20
114.6346058898776
 30
0.0
  0
VERTEX
  5
73A
  8
0
 10
39.36602908631117
 20
114.6989496398776
 30
0.0
  0
VERTEX
  5
73B
  8
0
 10
39.28375955506117
 20
114.7724808898776
 30
0.0
  0
VERTEX
  5
73C
  8
0
 10
39.20710330506117
 20
114.8674183898776
 30
0.0
  0
VERTEX
  5
73D
  8
0
 10
39.15200955506118
 20
114.9754808898776
 30
0.0
  0
VERTEX
  5
73E
  8
0
 10
39.11979080506117
 20
115.0925433898776
 30
0.0
  0
VERTEX
  5
73F
  8
0
 10
39.11175955506118
 20
115.2144808898776
 30
0.0
  0
VERTEX
  5
740
  8
0
 10
39.12457205506118
 20
115.3518246398776
 30
0.0
  0
VERTEX
  5
741
  8
0
 10
39.16475955506117
 20
115.4822308898776
 30
0.0
  0
VERTEX
  5
742
  8
0
 10
39.23044705506118
 20
115.6017621398776
 30
0.0
  0
VERTEX
  5
743
  8
0
 10
39.31975955506118
 20
115.7064808898776
 30
0.0
  0
VERTEX
  5
744
  8
0
 10
39.39905643006118
 20
115.7693441711276
 30
0.0
  0
VERTEX
  5
745
  8
0
 10
39.48350955506118
 20
115.8242621398776
 30
0.0
  0
VERTEX
  5
746
  8
0
 10
39.57246268006116
 20
115.8709769836277
 30
0.0
  0
VERTEX
  5
747
  8
0
 10
39.66525955506117
 20
115.9092308898776
 30
0.0
  0
VERTEX
  5
748
  8
0
 10
39.76124393006117
 20
115.9387660461276
 30
0.0
  0
VERTEX
  5
749
  8
0
 10
39.85975955506117
 20
115.9593246398776
 30
0.0
  0
VERTEX
  5
74A
  8
0
 10
39.96015018006118
 20
115.9706488586276
 30
0.0
  0
VERTEX
  5
74B
  8
0
 10
40.06175955506117
 20
115.9724808898776
 30
0.0
  0
VERTEX
  5
74C
  8
0
 10
40.16260721131117
 20
115.9704652648776
 30
0.0
  0
VERTEX
  5
74D
  8
0
 10
40.26216580506117
 20
115.9586058898776
 30
0.0
  0
VERTEX
  5
74E
  8
0
 10
40.35970877381118
 20
115.9371840148776
 30
0.0
  0
VERTEX
  5
74F
  8
0
 10
40.45450955506118
 20
115.9064808898776
 30
0.0
  0
VERTEX
  5
750
  8
0
 10
40.54584158631117
 20
115.8667777648776
 30
0.0
  0
VERTEX
  5
751
  8
0
 10
40.63297830506117
 20
115.8183558898776
 30
0.0
  0
VERTEX
  5
752
  8
0
 10
40.71519314881117
 20
115.7614965148776
 30
0.0
  0
VERTEX
  5
753
  8
0
 10
40.79175955506118
 20
115.6964808898776
 30
0.0
  0
VERTEX
  5
754
  8
0
 10
40.86922830506117
 20
115.6019808898776
 30
0.0
  0
VERTEX
  5
755
  8
0
 10
40.93000955506118
 20
115.4969808898776
 30
0.0
  0
VERTEX
  5
756
  8
0
 10
40.97316580506117
 20
115.3837308898776
 30
0.0
  0
VERTEX
  5
757
  8
0
 10
40.99775955506117
 20
115.2644808898776
 30
0.0
  0
SEQEND
  5
7A7
  8
0
  0
POLYLINE
  5
82
  8
0
 66
     1
 10
0.0
 20
0.0
 30
0.0
  0
VERTEX
  5
758
  8
0
 10
41.81975955506118
 20
115.9204808898776
 30
0.0
  0
VERTEX
  5
759
  8
0
 10
44.02775955506117
 20
115.9204808898776
 30
0.0
  0
VERTEX
  5
75A
  8
0
 10
42.92375955506117
 20
115.9204808898776
 30
0.0
  0
VERTEX
  5
75B
  8
0
 10
42.92375955506117
 20
112.9204808898776
 30
0.0
  0
SEQEND
  5
7A8
  8
0
  0
POLYLINE
  5
83
  8
0
 66
     1
 10
0.0
 20
0.0
 30
0.0
  0
VERTEX
  5
75C
  8
0
 10
44.68775955506118
 20
112.9204808898776
 30
0.0
  0
VERTEX
  5
75D
  8
0
 10
44.68775955506118
 20
115.9204808898776
 30
0.0
  0
VERTEX
  5
75E
  8
0
 10
45.95975955506118
 20
115.9204808898776
 30
0.0
  0
VERTEX
  5
75F
  8
0
 10
46.03678250427993
 20
115.9162313781589
 30
0.0
  0
VERTEX
  5
760
  8
0
 10
46.11159939881117
 20
115.9044847961276
 30
0.0
  0
VERTEX
  5
761
  8
0
 10
46.25310330506117
 20
115.8600121398777
 30
0.0
  0
VERTEX
  5
762
  8
0
 10
46.38124783631118
 20
115.7900863586276
 30
0.0
  0
VERTEX
  5
763
  8
0
 10
46.49300955506118
 20
115.6977308898776
 30
0.0
  0
VERTEX
  5
764
  8
0
 10
46.58536502381118
 20
115.5859691711276
 30
0.0
  0
VERTEX
  5
765
  8
0
 10
46.65529080506118
 20
115.4578246398776
 30
0.0
  0
VERTEX
  5
766
  8
0
 10
46.69976346131118
 20
115.3163207336276
 30
0.0
  0
VERTEX
  5
767
  8
0
 10
46.71151004334243
 20
115.2415038390964
 30
0.0
  0
VERTEX
  5
768
  8
0
 10
46.71575955506118
 20
115.1644808898776
 30
0.0
  0
VERTEX
  5
769
  8
0
 10
46.70160330506117
 20
115.0243246398776
 30
0.0
  0
VERTEX
  5
76A
  8
0
 10
46.66100955506118
 20
114.8937308898776
 30
0.0
  0
VERTEX
  5
76B
  8
0
 10
46.59679080506118
 20
114.7755121398776
 30
0.0
  0
VERTEX
  5
76C
  8
0
 10
46.51175955506118
 20
114.6724808898776
 30
0.0
  0
VERTEX
  5
76D
  8
0
 10
46.40872830506117
 20
114.5874496398776
 30
0.0
  0
VERTEX
  5
76E
  8
0
 10
46.29050955506117
 20
114.5232308898776
 30
0.0
  0
VERTEX
  5
76F
  8
0
 10
46.15991580506117
 20
114.4826371398776
 30
0.0
  0
VERTEX
  5
770
  8
0
 10
46.01975955506117
 20
114.4684808898776
 30
0.0
  0
VERTEX
  5
771
  8
0
 10
44.68775955506118
 20
114.4684808898776
 30
0.0
  0
VERTEX
  5
772
  8
0
 10
46.04375955506117
 20
114.4684808898776
 30
0.0
  0
VERTEX
  5
773
  8
0
 10
46.76375955506117
 20
112.9204808898776
 30
0.0
  0
SEQEND
  5
7A9
  8
0
  0
POLYLINE
  5
84
  8
0
 66
     1
 10
0.0
 20
0.0
 30
0.0
  0
VERTEX
  5
774
  8
0
 10
47.42375955506118
 20
112.9204808898776
 30
0.0
  0
VERTEX
  5
775
  8
0
 10
47.42375955506118
 20
115.9204808898776
 30
0.0
  0
SEQEND
  5
7AA
  8
0
  0
POLYLINE
  5
85
  8
0
 66
     1
 10
0.0
 20
0.0
 30
0.0
  0
VERTEX
  5
776
  8
0
 10
48.08375955506117
 20
112.9204808898776
 30
0.0
  0
VERTEX
  5
777
  8
0
 10
48.08375955506117
 20
115.9204808898776
 30
0.0
  0
VERTEX
  5
778
  8
0
 10
49.17575955506118
 20
115.9204808898776
 30
0.0
  0
VERTEX
  5
779
  8
0
 10
49.26233328552992
 20
115.9159193664401
 30
0.0
  0
VERTEX
  5
77A
  8
0
 10
49.34625564881117
 20
115.9025512023777
 30
0.0
  0
VERTEX
  5
77B
  8
0
 10
49.42707840271742
 20
115.8808510070651
 30
0.0
  0
VERTEX
  5
77C
  8
0
 10
49.50435330506117
 20
115.8512933898776
 30
0.0
  0
VERTEX
  5
77D
  8
0
 10
49.57763211365493
 20
115.8143529601901
 30
0.0
  0
VERTEX
  5
77E
  8
0
 10
49.64646658631118
 20
115.7705043273776
 30
0.0
  0
VERTEX
  5
77F
  8
0
 10
49.71040848084242
 20
115.7202221008151
 30
0.0
  0
VERTEX
  5
780
  8
0
 10
49.76900955506117
 20
115.6639808898776
 30
0.0
  0
VERTEX
  5
781
  8
0
 10
49.82182156677992
 20
115.6022553039401
 30
0.0
  0
VERTEX
  5
782
  8
0
 10
49.86839627381117
 20
115.5355199523776
 30
0.0
  0
VERTEX
  5
783
  8
0
 10
49.90828543396743
 20
115.4642494445651
 30
0.0
  0
VERTEX
  5
784
  8
0
 10
49.94104080506118
 20
115.3889183898776
 30
0.0
  0
VERTEX
  5
785
  8
0
 10
49.96621414490492
 20
115.3100013976901
 30
0.0
  0
VERTEX
  5
786
  8
0
 10
49.98335721131117
 20
115.2279730773776
 30
0.0
  0
VERTEX
  5
787
  8
0
 10
49.99202176209242
 20
115.1433080383151
 30
0.0
  0
VERTEX
  5
788
  8
0
 10
49.99175955506117
 20
115.0564808898776
 30
0.0
  0
VERTEX
  5
789
  8
0
 10
49.97772049256117
 20
114.9111918273776
 30
0.0
  0
VERTEX
  5
78A
  8
0
 10
49.93607205506117
 20
114.7757933898776
 30
0.0
  0
VERTEX
  5
78B
  8
0
 10
49.86976736756117
 20
114.6532387023776
 30
0.0
  0
VERTEX
  5
78C
  8
0
 10
49.78175955506117
 20
114.5464808898776
 30
0.0
  0
VERTEX
  5
78D
  8
0
 10
49.67500174256118
 20
114.4584730773776
 30
0.0
  0
VERTEX
  5
78E
  8
0
 10
49.55244705506117
 20
114.3921683898776
 30
0.0
  0
VERTEX
  5
78F
  8
0
 10
49.41704861756117
 20
114.3505199523776
 30
0.0
  0
VERTEX
  5
790
  8
0
 10
49.34545584412368
 20
114.3398646789401
 30
0.0
  0
VERTEX
  5
791
  8
0
 10
49.27175955506117
 20
114.3364808898776
 30
0.0
  0
VERTEX
  5
792
  8
0
 10
48.08375955506117
 20
114.3364808898776
 30
0.0
  0
SEQEND
  5
7AB
  8
0
  0
ENDSEC
  0
EOF
