  0
SECTION
  2
HEADER
  9
$ACADVER
  1
AC1009
  9
$EXTMIN
 10
0.0
 20
0.0
 30
0.0
  9
$EXTMAX
 10
1000.0
 20
1000.0
 30
0.0
  9
$FILLMODE
 70
 0
  9
$SPLFRAME
 70
 1
  0
ENDSEC
  0
SECTION
  2
TABLES
  0
TABLE
  2
LAYER
 70
1
  0
LAYER
  2
0
 70
     0
 62
     7
  6
CONTINUOUS
  0
ENDTAB
  0
ENDSEC
  0
SECTION
  2
ENTITIES
  0
POLYLINE
  8
0
 62
     0
 66
     1
 10
0
 20
0
 30
0.0
 70
     1
 40
0.566929
 41
0.566929
  0
VERTEX
  8
0
 10
0.850251
 20
11.0422
 30
0.0
 40
0.2
 41
0.2
  0
VERTEX
  8
0
 10
100.85
 20
11.0422
 30
0.0
 40
0.2
 41
0.2
  0
VERTEX
  8
0
 10
100.85
 20
1.0418
 30
0.0
 40
0.2
 41
0.2
  0
VERTEX
  8
0
 10
0.850251
 20
1.0418
 30
0.0
 40
0.2
 41
0.2
  0
VERTEX
  8
0
 10
0.850251
 20
11.0422
 30
0.0
 40
0.2
 41
0.2
  0
SEQEND
 8
0
  0
POLYLINE
  8
0
 62
     7
 66
     1
 10
0
 20
0
 30
0.0
 70
     1
 40
0.566929
 41
0.566929
  0
VERTEX
  8
0
 10
35.0449
 20
9.77166
 30
0.0
 40
0.2
 41
0.2
  0
VERTEX
  8
0
 10
66.6542
 20
9.77166
 30
0.0
 40
0.2
 41
0.2
  0
VERTEX
  8
0
 10
66.6542
 20
2.31235
 30
0.0
 40
0.2
 41
0.2
  0
VERTEX
  8
0
 10
35.0449
 20
2.31235
 30
0.0
 40
0.2
 41
0.2
  0
VERTEX
  8
0
 10
35.0449
 20
9.77166
 30
0.0
 40
0.2
 41
0.2
  0
SEQEND
 8
0
  0
TEXT
  8
0
 62
     0
 10
35.045
 20
2.31166
 30
0
 40
10
  1
100mm
 50
0
  7
f-0-0
  0
POLYLINE
  8
0
 62
     0
 66
     1
 10
0
 20
0
 30
0.0
 40
0.566929
 41
0.566929
  0
VERTEX
  8
0
 10
3.85025
 20
16.7418
 30
0.0
 40
0.2
 41
0.2
  0
VERTEX
  8
0
 10
11.8497
 20
16.7418
 30
0.0
 40
0.2
 41
0.2
  0
SEQEND
 8
0
  0
POLYLINE
  8
0
 62
     0
 66
     1
 10
0
 20
0
 30
0.0
 40
0.566929
 41
0.566929
  0
VERTEX
  8
0
 10
11.8497
 20
16.7418
 30
0.0
 40
0.2
 41
0.2
  0
VERTEX
  8
0
 10
11.8663
 20
16.7418
 30
0.0
 40
0.2
 41
0.2
  0
VERTEX
  8
0
 10
11.92
 20
16.7721
 30
0.0
 40
0.2
 41
0.2
  0
VERTEX
  8
0
 10
11.9503
 20
16.8258
 30
0.0
 40
0.2
 41
0.2
  0
VERTEX
  8
0
 10
11.9503
 20
16.8424
 30
0.0
 40
0.2
 41
0.2
  0
SEQEND
 8
0
  0
POLYLINE
  8
0
 62
     0
 66
     1
 10
0
 20
0
 30
0.0
 40
0.566929
 41
0.566929
  0
VERTEX
  8
0
 10
11.9503
 20
16.8424
 30
0.0
 40
0.2
 41
0.2
  0
VERTEX
  8
0
 10
11.9503
 20
19.8424
 30
0.0
 40
0.2
 41
0.2
  0
VERTEX
  8
0
 10
11.9503
 20
19.8258
 30
0.0
 40
0.2
 41
0.2
  0
VERTEX
  8
0
 10
11.92
 20
19.7721
 30
0.0
 40
0.2
 41
0.2
  0
VERTEX
  8
0
 10
11.8663
 20
19.7418
 30
0.0
 40
0.2
 41
0.2
  0
VERTEX
  8
0
 10
11.8497
 20
19.7418
 30
0.0
 40
0.2
 41
0.2
  0
SEQEND
 8
0
  0
POLYLINE
  8
0
 62
     0
 66
     1
 10
0
 20
0
 30
0.0
 40
0.566929
 41
0.566929
  0
VERTEX
  8
0
 10
11.8497
 20
19.7418
 30
0.0
 40
0.2
 41
0.2
  0
VERTEX
  8
0
 10
17.8497
 20
19.7418
 30
0.0
 40
0.2
 41
0.2
  0
VERTEX
  8
0
 10
17.8318
 20
19.7418
 30
0.0
 40
0.2
 41
0.2
  0
VERTEX
  8
0
 10
17.7781
 20
19.7721
 30
0.0
 40
0.2
 41
0.2
  0
VERTEX
  8
0
 10
17.7491
 20
19.8258
 30
0.0
 40
0.2
 41
0.2
  0
VERTEX
  8
0
 10
17.7491
 20
19.8424
 30
0.0
 40
0.2
 41
0.2
  0
SEQEND
 8
0
  0
POLYLINE
  8
0
 62
     0
 66
     1
 10
0
 20
0
 30
0.0
 40
0.566929
 41
0.566929
  0
VERTEX
  8
0
 10
17.7491
 20
19.8424
 30
0.0
 40
0.2
 41
0.2
  0
VERTEX
  8
0
 10
17.7491
 20
16.8424
 30
0.0
 40
0.2
 41
0.2
  0
VERTEX
  8
0
 10
17.7491
 20
16.8258
 30
0.0
 40
0.2
 41
0.2
  0
VERTEX
  8
0
 10
17.7781
 20
16.7721
 30
0.0
 40
0.2
 41
0.2
  0
VERTEX
  8
0
 10
17.8318
 20
16.7418
 30
0.0
 40
0.2
 41
0.2
  0
VERTEX
  8
0
 10
17.8497
 20
16.7418
 30
0.0
 40
0.2
 41
0.2
  0
SEQEND
 8
0
  0
POLYLINE
  8
0
 62
     0
 66
     1
 10
0
 20
0
 30
0.0
 40
0.566929
 41
0.566929
  0
VERTEX
  8
0
 10
17.8497
 20
16.7418
 30
0.0
 40
0.2
 41
0.2
  0
VERTEX
  8
0
 10
23.8497
 20
16.7418
 30
0.0
 40
0.2
 41
0.2
  0
SEQEND
 8
0
  0
POLYLINE
  8
0
 62
     0
 66
     1
 10
0
 20
0
 30
0.0
 40
0.566929
 41
0.566929
  0
VERTEX
  8
0
 10
23.8497
 20
16.7418
 30
0.0
 40
0.2
 41
0.2
  0
VERTEX
  8
0
 10
23.8662
 20
16.7418
 30
0.0
 40
0.2
 41
0.2
  0
VERTEX
  8
0
 10
23.92
 20
16.7721
 30
0.0
 40
0.2
 41
0.2
  0
VERTEX
  8
0
 10
23.9503
 20
16.8258
 30
0.0
 40
0.2
 41
0.2
  0
VERTEX
  8
0
 10
23.9503
 20
16.8424
 30
0.0
 40
0.2
 41
0.2
  0
SEQEND
 8
0
  0
POLYLINE
  8
0
 62
     0
 66
     1
 10
0
 20
0
 30
0.0
 40
0.566929
 41
0.566929
  0
VERTEX
  8
0
 10
23.9503
 20
16.8424
 30
0.0
 40
0.2
 41
0.2
  0
VERTEX
  8
0
 10
23.9503
 20
19.8424
 30
0.0
 40
0.2
 41
0.2
  0
VERTEX
  8
0
 10
23.9503
 20
19.8258
 30
0.0
 40
0.2
 41
0.2
  0
VERTEX
  8
0
 10
23.92
 20
19.7721
 30
0.0
 40
0.2
 41
0.2
  0
VERTEX
  8
0
 10
23.8662
 20
19.7418
 30
0.0
 40
0.2
 41
0.2
  0
VERTEX
  8
0
 10
23.8497
 20
19.7418
 30
0.0
 40
0.2
 41
0.2
  0
SEQEND
 8
0
  0
POLYLINE
  8
0
 62
     0
 66
     1
 10
0
 20
0
 30
0.0
 40
0.566929
 41
0.566929
  0
VERTEX
  8
0
 10
23.8497
 20
19.7418
 30
0.0
 40
0.2
 41
0.2
  0
VERTEX
  8
0
 10
29.8497
 20
19.7418
 30
0.0
 40
0.2
 41
0.2
  0
VERTEX
  8
0
 10
29.8318
 20
19.7418
 30
0.0
 40
0.2
 41
0.2
  0
VERTEX
  8
0
 10
29.778
 20
19.7721
 30
0.0
 40
0.2
 41
0.2
  0
VERTEX
  8
0
 10
29.7491
 20
19.8258
 30
0.0
 40
0.2
 41
0.2
  0
VERTEX
  8
0
 10
29.7491
 20
19.8424
 30
0.0
 40
0.2
 41
0.2
  0
SEQEND
 8
0
  0
POLYLINE
  8
0
 62
     0
 66
     1
 10
0
 20
0
 30
0.0
 40
0.566929
 41
0.566929
  0
VERTEX
  8
0
 10
29.7491
 20
19.8424
 30
0.0
 40
0.2
 41
0.2
  0
VERTEX
  8
0
 10
29.7491
 20
16.8424
 30
0.0
 40
0.2
 41
0.2
  0
VERTEX
  8
0
 10
29.7491
 20
16.8258
 30
0.0
 40
0.2
 41
0.2
  0
VERTEX
  8
0
 10
29.778
 20
16.7721
 30
0.0
 40
0.2
 41
0.2
  0
VERTEX
  8
0
 10
29.8318
 20
16.7418
 30
0.0
 40
0.2
 41
0.2
  0
VERTEX
  8
0
 10
29.8497
 20
16.7418
 30
0.0
 40
0.2
 41
0.2
  0
SEQEND
 8
0
  0
POLYLINE
  8
0
 62
     0
 66
     1
 10
0
 20
0
 30
0.0
 40
0.566929
 41
0.566929
  0
VERTEX
  8
0
 10
29.8497
 20
16.7418
 30
0.0
 40
0.2
 41
0.2
  0
VERTEX
  8
0
 10
37.8492
 20
16.7418
 30
0.0
 40
0.2
 41
0.2
  0
SEQEND
 8
0
  0
POLYLINE
  8
0
 62
     0
 66
     1
 10
0
 20
0
 30
0.0
 40
0.566929
 41
0.566929
  0
VERTEX
  8
0
 10
40.0611
 20
16.7418
 30
0.0
 40
0.2
 41
0.2
  0
VERTEX
  8
0
 10
40.0611
 20
35.3413
 30
0.0
 40
0.2
 41
0.2
  0
SEQEND
 8
0
  0
POLYLINE
  8
0
 62
     0
 66
     1
 10
0
 20
0
 30
0.0
 40
0.566929
 41
0.566929
  0
VERTEX
  8
0
 10
40.0611
 20
38.3413
 30
0.0
 40
0.2
 41
0.2
  0
VERTEX
  8
0
 10
40.0611
 20
56.9419
 30
0.0
 40
0.2
 41
0.2
  0
SEQEND
 8
0
  0
POLYLINE
  8
0
 62
     0
 66
     1
 10
0
 20
0
 30
0.0
 40
0.566929
 41
0.566929
  0
VERTEX
  8
0
 10
41.5604
 20
53.9418
 30
0.0
 40
0.2
 41
0.2
  0
VERTEX
  8
0
 10
41.5604
 20
19.7418
 30
0.0
 40
0.2
 41
0.2
  0
SEQEND
 8
0
  0
POLYLINE
  8
0
 62
     0
 66
     1
 10
0
 20
0
 30
0.0
 40
0.566929
 41
0.566929
  0
VERTEX
  8
0
 10
43.0611
 20
16.7418
 30
0.0
 40
0.2
 41
0.2
  0
VERTEX
  8
0
 10
43.0611
 20
35.3413
 30
0.0
 40
0.2
 41
0.2
  0
SEQEND
 8
0
  0
POLYLINE
  8
0
 62
     0
 66
     1
 10
0
 20
0
 30
0.0
 40
0.566929
 41
0.566929
  0
VERTEX
  8
0
 10
43.0611
 20
38.3413
 30
0.0
 40
0.2
 41
0.2
  0
VERTEX
  8
0
 10
43.0611
 20
56.9419
 30
0.0
 40
0.2
 41
0.2
  0
SEQEND
 8
0
  0
POLYLINE
  8
0
 62
     0
 66
     1
 10
0
 20
0
 30
0.0
 40
0.566929
 41
0.566929
  0
VERTEX
  8
0
 10
44.5604
 20
53.9418
 30
0.0
 40
0.2
 41
0.2
  0
VERTEX
  8
0
 10
44.5604
 20
19.7418
 30
0.0
 40
0.2
 41
0.2
  0
SEQEND
 8
0
  0
POLYLINE
  8
0
 62
     0
 66
     1
 10
0
 20
0
 30
0.0
 40
0.566929
 41
0.566929
  0
VERTEX
  8
0
 10
46.0608
 20
16.7418
 30
0.0
 40
0.2
 41
0.2
  0
VERTEX
  8
0
 10
46.0608
 20
35.3413
 30
0.0
 40
0.2
 41
0.2
  0
SEQEND
 8
0
  0
POLYLINE
  8
0
 62
     0
 66
     1
 10
0
 20
0
 30
0.0
 40
0.566929
 41
0.566929
  0
VERTEX
  8
0
 10
46.0608
 20
38.3413
 30
0.0
 40
0.2
 41
0.2
  0
VERTEX
  8
0
 10
46.0608
 20
56.9419
 30
0.0
 40
0.2
 41
0.2
  0
SEQEND
 8
0
  0
POLYLINE
  8
0
 62
     0
 66
     1
 10
0
 20
0
 30
0.0
 40
0.566929
 41
0.566929
  0
VERTEX
  8
0
 10
47.5601
 20
53.9418
 30
0.0
 40
0.2
 41
0.2
  0
VERTEX
  8
0
 10
47.5601
 20
19.7418
 30
0.0
 40
0.2
 41
0.2
  0
SEQEND
 8
0
  0
POLYLINE
  8
0
 62
     0
 66
     1
 10
0
 20
0
 30
0.0
 40
0.566929
 41
0.566929
  0
VERTEX
  8
0
 10
49.0608
 20
16.7418
 30
0.0
 40
0.2
 41
0.2
  0
VERTEX
  8
0
 10
49.0608
 20
35.3413
 30
0.0
 40
0.2
 41
0.2
  0
SEQEND
 8
0
  0
POLYLINE
  8
0
 62
     0
 66
     1
 10
0
 20
0
 30
0.0
 40
0.566929
 41
0.566929
  0
VERTEX
  8
0
 10
49.0608
 20
38.3413
 30
0.0
 40
0.2
 41
0.2
  0
VERTEX
  8
0
 10
49.0608
 20
56.9419
 30
0.0
 40
0.2
 41
0.2
  0
SEQEND
 8
0
  0
POLYLINE
  8
0
 62
     0
 66
     1
 10
0
 20
0
 30
0.0
 40
0.566929
 41
0.566929
  0
VERTEX
  8
0
 10
50.5601
 20
53.9418
 30
0.0
 40
0.2
 41
0.2
  0
VERTEX
  8
0
 10
50.5601
 20
19.7418
 30
0.0
 40
0.2
 41
0.2
  0
SEQEND
 8
0
  0
POLYLINE
  8
0
 62
     0
 66
     1
 10
0
 20
0
 30
0.0
 40
0.566929
 41
0.566929
  0
VERTEX
  8
0
 10
37.8492
 20
16.7418
 30
0.0
 40
0.2
 41
0.2
  0
VERTEX
  8
0
 10
52.772
 20
16.7418
 30
0.0
 40
0.2
 41
0.2
  0
VERTEX
  8
0
 10
52.754
 20
16.7418
 30
0.0
 40
0.2
 41
0.2
  0
VERTEX
  8
0
 10
52.7004
 20
16.7721
 30
0.0
 40
0.2
 41
0.2
  0
VERTEX
  8
0
 10
52.6715
 20
16.8258
 30
0.0
 40
0.2
 41
0.2
  0
VERTEX
  8
0
 10
52.6715
 20
16.8424
 30
0.0
 40
0.2
 41
0.2
  0
SEQEND
 8
0
  0
POLYLINE
  8
0
 62
     0
 66
     1
 10
0
 20
0
 30
0.0
 40
0.566929
 41
0.566929
  0
VERTEX
  8
0
 10
52.6715
 20
16.8424
 30
0.0
 40
0.2
 41
0.2
  0
VERTEX
  8
0
 10
52.6715
 20
15.8419
 30
0.0
 40
0.2
 41
0.2
  0
VERTEX
  8
0
 10
52.6715
 20
15.8254
 30
0.0
 40
0.2
 41
0.2
  0
VERTEX
  8
0
 10
52.7004
 20
15.7716
 30
0.0
 40
0.2
 41
0.2
  0
VERTEX
  8
0
 10
52.754
 20
15.7413
 30
0.0
 40
0.2
 41
0.2
  0
VERTEX
  8
0
 10
52.772
 20
15.7413
 30
0.0
 40
0.2
 41
0.2
  0
SEQEND
 8
0
  0
POLYLINE
  8
0
 62
     0
 66
     1
 10
0
 20
0
 30
0.0
 40
0.566929
 41
0.566929
  0
VERTEX
  8
0
 10
52.772
 20
15.7413
 30
0.0
 40
0.2
 41
0.2
  0
VERTEX
  8
0
 10
61.2719
 20
15.7413
 30
0.0
 40
0.2
 41
0.2
  0
SEQEND
 8
0
  0
POLYLINE
  8
0
 62
     0
 66
     1
 10
0
 20
0
 30
0.0
 40
0.566929
 41
0.566929
  0
VERTEX
  8
0
 10
61.2719
 20
15.7413
 30
0.0
 40
0.2
 41
0.2
  0
VERTEX
  8
0
 10
61.2539
 20
15.7413
 30
0.0
 40
0.2
 41
0.2
  0
VERTEX
  8
0
 10
61.1999
 20
15.7716
 30
0.0
 40
0.2
 41
0.2
  0
VERTEX
  8
0
 10
61.171
 20
15.8254
 30
0.0
 40
0.2
 41
0.2
  0
VERTEX
  8
0
 10
61.171
 20
15.8419
 30
0.0
 40
0.2
 41
0.2
  0
SEQEND
 8
0
  0
POLYLINE
  8
0
 62
     0
 66
     1
 10
0
 20
0
 30
0.0
 40
0.566929
 41
0.566929
  0
VERTEX
  8
0
 10
61.171
 20
15.8419
 30
0.0
 40
0.2
 41
0.2
  0
VERTEX
  8
0
 10
61.171
 20
12.8419
 30
0.0
 40
0.2
 41
0.2
  0
VERTEX
  8
0
 10
61.171
 20
12.8254
 30
0.0
 40
0.2
 41
0.2
  0
VERTEX
  8
0
 10
61.1999
 20
12.7716
 30
0.0
 40
0.2
 41
0.2
  0
VERTEX
  8
0
 10
61.2539
 20
12.7413
 30
0.0
 40
0.2
 41
0.2
  0
VERTEX
  8
0
 10
61.2719
 20
12.7413
 30
0.0
 40
0.2
 41
0.2
  0
SEQEND
 8
0
  0
POLYLINE
  8
0
 62
     0
 66
     1
 10
0
 20
0
 30
0.0
 40
0.566929
 41
0.566929
  0
VERTEX
  8
0
 10
61.2719
 20
12.7413
 30
0.0
 40
0.2
 41
0.2
  0
VERTEX
  8
0
 10
67.2715
 20
12.7413
 30
0.0
 40
0.2
 41
0.2
  0
VERTEX
  8
0
 10
67.2881
 20
12.7413
 30
0.0
 40
0.2
 41
0.2
  0
VERTEX
  8
0
 10
67.3421
 20
12.7716
 30
0.0
 40
0.2
 41
0.2
  0
VERTEX
  8
0
 10
67.3724
 20
12.8254
 30
0.0
 40
0.2
 41
0.2
  0
VERTEX
  8
0
 10
67.3724
 20
12.8419
 30
0.0
 40
0.2
 41
0.2
  0
SEQEND
 8
0
  0
POLYLINE
  8
0
 62
     0
 66
     1
 10
0
 20
0
 30
0.0
 40
0.566929
 41
0.566929
  0
VERTEX
  8
0
 10
67.3724
 20
12.8419
 30
0.0
 40
0.2
 41
0.2
  0
VERTEX
  8
0
 10
67.3724
 20
15.8419
 30
0.0
 40
0.2
 41
0.2
  0
VERTEX
  8
0
 10
67.3724
 20
15.8254
 30
0.0
 40
0.2
 41
0.2
  0
VERTEX
  8
0
 10
67.3421
 20
15.7716
 30
0.0
 40
0.2
 41
0.2
  0
VERTEX
  8
0
 10
67.2881
 20
15.7413
 30
0.0
 40
0.2
 41
0.2
  0
VERTEX
  8
0
 10
67.2715
 20
15.7413
 30
0.0
 40
0.2
 41
0.2
  0
SEQEND
 8
0
  0
POLYLINE
  8
0
 62
     0
 66
     1
 10
0
 20
0
 30
0.0
 40
0.566929
 41
0.566929
  0
VERTEX
  8
0
 10
67.2715
 20
15.7413
 30
0.0
 40
0.2
 41
0.2
  0
VERTEX
  8
0
 10
73.2716
 20
15.7413
 30
0.0
 40
0.2
 41
0.2
  0
SEQEND
 8
0
  0
POLYLINE
  8
0
 62
     0
 66
     1
 10
0
 20
0
 30
0.0
 40
0.566929
 41
0.566929
  0
VERTEX
  8
0
 10
73.2716
 20
15.7413
 30
0.0
 40
0.2
 41
0.2
  0
VERTEX
  8
0
 10
73.2536
 20
15.7413
 30
0.0
 40
0.2
 41
0.2
  0
VERTEX
  8
0
 10
73.2
 20
15.7716
 30
0.0
 40
0.2
 41
0.2
  0
VERTEX
  8
0
 10
73.1711
 20
15.8254
 30
0.0
 40
0.2
 41
0.2
  0
VERTEX
  8
0
 10
73.1711
 20
15.8419
 30
0.0
 40
0.2
 41
0.2
  0
SEQEND
 8
0
  0
POLYLINE
  8
0
 62
     0
 66
     1
 10
0
 20
0
 30
0.0
 40
0.566929
 41
0.566929
  0
VERTEX
  8
0
 10
73.1711
 20
15.8419
 30
0.0
 40
0.2
 41
0.2
  0
VERTEX
  8
0
 10
73.1711
 20
12.8419
 30
0.0
 40
0.2
 41
0.2
  0
VERTEX
  8
0
 10
73.1711
 20
12.8254
 30
0.0
 40
0.2
 41
0.2
  0
VERTEX
  8
0
 10
73.2
 20
12.7716
 30
0.0
 40
0.2
 41
0.2
  0
VERTEX
  8
0
 10
73.2536
 20
12.7413
 30
0.0
 40
0.2
 41
0.2
  0
VERTEX
  8
0
 10
73.2716
 20
12.7413
 30
0.0
 40
0.2
 41
0.2
  0
SEQEND
 8
0
  0
POLYLINE
  8
0
 62
     0
 66
     1
 10
0
 20
0
 30
0.0
 40
0.566929
 41
0.566929
  0
VERTEX
  8
0
 10
73.2716
 20
12.7413
 30
0.0
 40
0.2
 41
0.2
  0
VERTEX
  8
0
 10
79.2716
 20
12.7413
 30
0.0
 40
0.2
 41
0.2
  0
VERTEX
  8
0
 10
79.2882
 20
12.7413
 30
0.0
 40
0.2
 41
0.2
  0
VERTEX
  8
0
 10
79.3418
 20
12.7716
 30
0.0
 40
0.2
 41
0.2
  0
VERTEX
  8
0
 10
79.3722
 20
12.8254
 30
0.0
 40
0.2
 41
0.2
  0
VERTEX
  8
0
 10
79.3722
 20
12.8419
 30
0.0
 40
0.2
 41
0.2
  0
SEQEND
 8
0
  0
POLYLINE
  8
0
 62
     0
 66
     1
 10
0
 20
0
 30
0.0
 40
0.566929
 41
0.566929
  0
VERTEX
  8
0
 10
79.3722
 20
12.8419
 30
0.0
 40
0.2
 41
0.2
  0
VERTEX
  8
0
 10
79.3722
 20
15.8419
 30
0.0
 40
0.2
 41
0.2
  0
VERTEX
  8
0
 10
79.3722
 20
15.8254
 30
0.0
 40
0.2
 41
0.2
  0
VERTEX
  8
0
 10
79.3418
 20
15.7716
 30
0.0
 40
0.2
 41
0.2
  0
VERTEX
  8
0
 10
79.2882
 20
15.7413
 30
0.0
 40
0.2
 41
0.2
  0
VERTEX
  8
0
 10
79.2716
 20
15.7413
 30
0.0
 40
0.2
 41
0.2
  0
SEQEND
 8
0
  0
POLYLINE
  8
0
 62
     0
 66
     1
 10
0
 20
0
 30
0.0
 40
0.566929
 41
0.566929
  0
VERTEX
  8
0
 10
79.2716
 20
15.7413
 30
0.0
 40
0.2
 41
0.2
  0
VERTEX
  8
0
 10
87.7715
 20
15.7413
 30
0.0
 40
0.2
 41
0.2
  0
VERTEX
  8
0
 10
87.788
 20
15.7413
 30
0.0
 40
0.2
 41
0.2
  0
VERTEX
  8
0
 10
87.8417
 20
15.7716
 30
0.0
 40
0.2
 41
0.2
  0
VERTEX
  8
0
 10
87.872
 20
15.8254
 30
0.0
 40
0.2
 41
0.2
  0
VERTEX
  8
0
 10
87.872
 20
15.8419
 30
0.0
 40
0.2
 41
0.2
  0
SEQEND
 8
0
  0
POLYLINE
  8
0
 62
     0
 66
     1
 10
0
 20
0
 30
0.0
 40
0.566929
 41
0.566929
  0
VERTEX
  8
0
 10
87.872
 20
15.8419
 30
0.0
 40
0.2
 41
0.2
  0
VERTEX
  8
0
 10
87.872
 20
21.8419
 30
0.0
 40
0.2
 41
0.2
  0
SEQEND
 8
0
  0
POLYLINE
  8
0
 62
     0
 66
     1
 10
0
 20
0
 30
0.0
 40
0.566929
 41
0.566929
  0
VERTEX
  8
0
 10
87.872
 20
21.8419
 30
0.0
 40
0.2
 41
0.2
  0
VERTEX
  8
0
 10
87.872
 20
21.8254
 30
0.0
 40
0.2
 41
0.2
  0
VERTEX
  8
0
 10
87.8417
 20
21.7716
 30
0.0
 40
0.2
 41
0.2
  0
VERTEX
  8
0
 10
87.788
 20
21.7413
 30
0.0
 40
0.2
 41
0.2
  0
VERTEX
  8
0
 10
87.7715
 20
21.7413
 30
0.0
 40
0.2
 41
0.2
  0
SEQEND
 8
0
  0
POLYLINE
  8
0
 62
     0
 66
     1
 10
0
 20
0
 30
0.0
 40
0.566929
 41
0.566929
  0
VERTEX
  8
0
 10
87.7715
 20
21.7413
 30
0.0
 40
0.2
 41
0.2
  0
VERTEX
  8
0
 10
90.7715
 20
21.7413
 30
0.0
 40
0.2
 41
0.2
  0
VERTEX
  8
0
 10
90.7881
 20
21.7413
 30
0.0
 40
0.2
 41
0.2
  0
VERTEX
  8
0
 10
90.8417
 20
21.7716
 30
0.0
 40
0.2
 41
0.2
  0
VERTEX
  8
0
 10
90.872
 20
21.8254
 30
0.0
 40
0.2
 41
0.2
  0
VERTEX
  8
0
 10
90.872
 20
21.8419
 30
0.0
 40
0.2
 41
0.2
  0
SEQEND
 8
0
  0
POLYLINE
  8
0
 62
     0
 66
     1
 10
0
 20
0
 30
0.0
 40
0.566929
 41
0.566929
  0
VERTEX
  8
0
 10
90.872
 20
21.8419
 30
0.0
 40
0.2
 41
0.2
  0
VERTEX
  8
0
 10
90.872
 20
27.8419
 30
0.0
 40
0.2
 41
0.2
  0
VERTEX
  8
0
 10
90.872
 20
27.8598
 30
0.0
 40
0.2
 41
0.2
  0
VERTEX
  8
0
 10
90.8417
 20
27.9135
 30
0.0
 40
0.2
 41
0.2
  0
VERTEX
  8
0
 10
90.7881
 20
27.9425
 30
0.0
 40
0.2
 41
0.2
  0
VERTEX
  8
0
 10
90.7715
 20
27.9425
 30
0.0
 40
0.2
 41
0.2
  0
SEQEND
 8
0
  0
POLYLINE
  8
0
 62
     0
 66
     1
 10
0
 20
0
 30
0.0
 40
0.566929
 41
0.566929
  0
VERTEX
  8
0
 10
90.7715
 20
27.9425
 30
0.0
 40
0.2
 41
0.2
  0
VERTEX
  8
0
 10
87.7715
 20
27.9425
 30
0.0
 40
0.2
 41
0.2
  0
VERTEX
  8
0
 10
87.788
 20
27.9425
 30
0.0
 40
0.2
 41
0.2
  0
VERTEX
  8
0
 10
87.8417
 20
27.9135
 30
0.0
 40
0.2
 41
0.2
  0
VERTEX
  8
0
 10
87.872
 20
27.8598
 30
0.0
 40
0.2
 41
0.2
  0
VERTEX
  8
0
 10
87.872
 20
27.8419
 30
0.0
 40
0.2
 41
0.2
  0
SEQEND
 8
0
  0
POLYLINE
  8
0
 62
     0
 66
     1
 10
0
 20
0
 30
0.0
 40
0.566929
 41
0.566929
  0
VERTEX
  8
0
 10
87.872
 20
27.8419
 30
0.0
 40
0.2
 41
0.2
  0
VERTEX
  8
0
 10
87.872
 20
33.8419
 30
0.0
 40
0.2
 41
0.2
  0
SEQEND
 8
0
  0
POLYLINE
  8
0
 62
     0
 66
     1
 10
0
 20
0
 30
0.0
 40
0.566929
 41
0.566929
  0
VERTEX
  8
0
 10
87.872
 20
33.8419
 30
0.0
 40
0.2
 41
0.2
  0
VERTEX
  8
0
 10
87.872
 20
33.8253
 30
0.0
 40
0.2
 41
0.2
  0
VERTEX
  8
0
 10
87.8417
 20
33.7716
 30
0.0
 40
0.2
 41
0.2
  0
VERTEX
  8
0
 10
87.788
 20
33.7413
 30
0.0
 40
0.2
 41
0.2
  0
VERTEX
  8
0
 10
87.7715
 20
33.7413
 30
0.0
 40
0.2
 41
0.2
  0
SEQEND
 8
0
  0
POLYLINE
  8
0
 62
     0
 66
     1
 10
0
 20
0
 30
0.0
 40
0.566929
 41
0.566929
  0
VERTEX
  8
0
 10
87.7715
 20
33.7413
 30
0.0
 40
0.2
 41
0.2
  0
VERTEX
  8
0
 10
90.7715
 20
33.7413
 30
0.0
 40
0.2
 41
0.2
  0
VERTEX
  8
0
 10
90.7881
 20
33.7413
 30
0.0
 40
0.2
 41
0.2
  0
VERTEX
  8
0
 10
90.8417
 20
33.7716
 30
0.0
 40
0.2
 41
0.2
  0
VERTEX
  8
0
 10
90.872
 20
33.8253
 30
0.0
 40
0.2
 41
0.2
  0
VERTEX
  8
0
 10
90.872
 20
33.8419
 30
0.0
 40
0.2
 41
0.2
  0
SEQEND
 8
0
  0
POLYLINE
  8
0
 62
     0
 66
     1
 10
0
 20
0
 30
0.0
 40
0.566929
 41
0.566929
  0
VERTEX
  8
0
 10
90.872
 20
33.8419
 30
0.0
 40
0.2
 41
0.2
  0
VERTEX
  8
0
 10
90.872
 20
39.842
 30
0.0
 40
0.2
 41
0.2
  0
VERTEX
  8
0
 10
90.872
 20
39.8597
 30
0.0
 40
0.2
 41
0.2
  0
VERTEX
  8
0
 10
90.8417
 20
39.9136
 30
0.0
 40
0.2
 41
0.2
  0
VERTEX
  8
0
 10
90.7881
 20
39.9426
 30
0.0
 40
0.2
 41
0.2
  0
VERTEX
  8
0
 10
90.7715
 20
39.9426
 30
0.0
 40
0.2
 41
0.2
  0
SEQEND
 8
0
  0
POLYLINE
  8
0
 62
     0
 66
     1
 10
0
 20
0
 30
0.0
 40
0.566929
 41
0.566929
  0
VERTEX
  8
0
 10
90.7715
 20
39.9426
 30
0.0
 40
0.2
 41
0.2
  0
VERTEX
  8
0
 10
87.7715
 20
39.9426
 30
0.0
 40
0.2
 41
0.2
  0
VERTEX
  8
0
 10
87.788
 20
39.9426
 30
0.0
 40
0.2
 41
0.2
  0
VERTEX
  8
0
 10
87.8417
 20
39.9136
 30
0.0
 40
0.2
 41
0.2
  0
VERTEX
  8
0
 10
87.872
 20
39.8597
 30
0.0
 40
0.2
 41
0.2
  0
VERTEX
  8
0
 10
87.872
 20
39.842
 30
0.0
 40
0.2
 41
0.2
  0
SEQEND
 8
0
  0
POLYLINE
  8
0
 62
     0
 66
     1
 10
0
 20
0
 30
0.0
 40
0.566929
 41
0.566929
  0
VERTEX
  8
0
 10
87.872
 20
39.842
 30
0.0
 40
0.2
 41
0.2
  0
VERTEX
  8
0
 10
87.872
 20
45.8417
 30
0.0
 40
0.2
 41
0.2
  0
SEQEND
 8
0
  0
POLYLINE
  8
0
 62
     0
 66
     1
 10
0
 20
0
 30
0.0
 40
0.566929
 41
0.566929
  0
VERTEX
  8
0
 10
87.872
 20
45.8417
 30
0.0
 40
0.2
 41
0.2
  0
VERTEX
  8
0
 10
87.872
 20
45.8251
 30
0.0
 40
0.2
 41
0.2
  0
VERTEX
  8
0
 10
87.8417
 20
45.7715
 30
0.0
 40
0.2
 41
0.2
  0
VERTEX
  8
0
 10
87.788
 20
45.7412
 30
0.0
 40
0.2
 41
0.2
  0
VERTEX
  8
0
 10
87.7715
 20
45.7412
 30
0.0
 40
0.2
 41
0.2
  0
SEQEND
 8
0
  0
POLYLINE
  8
0
 62
     0
 66
     1
 10
0
 20
0
 30
0.0
 40
0.566929
 41
0.566929
  0
VERTEX
  8
0
 10
87.7715
 20
45.7412
 30
0.0
 40
0.2
 41
0.2
  0
VERTEX
  8
0
 10
90.7715
 20
45.7412
 30
0.0
 40
0.2
 41
0.2
  0
VERTEX
  8
0
 10
90.7881
 20
45.7412
 30
0.0
 40
0.2
 41
0.2
  0
VERTEX
  8
0
 10
90.8417
 20
45.7715
 30
0.0
 40
0.2
 41
0.2
  0
VERTEX
  8
0
 10
90.872
 20
45.8251
 30
0.0
 40
0.2
 41
0.2
  0
VERTEX
  8
0
 10
90.872
 20
45.8417
 30
0.0
 40
0.2
 41
0.2
  0
SEQEND
 8
0
  0
POLYLINE
  8
0
 62
     0
 66
     1
 10
0
 20
0
 30
0.0
 40
0.566929
 41
0.566929
  0
VERTEX
  8
0
 10
90.872
 20
45.8417
 30
0.0
 40
0.2
 41
0.2
  0
VERTEX
  8
0
 10
90.872
 20
51.8418
 30
0.0
 40
0.2
 41
0.2
  0
VERTEX
  8
0
 10
90.872
 20
51.8597
 30
0.0
 40
0.2
 41
0.2
  0
VERTEX
  8
0
 10
90.8417
 20
51.9134
 30
0.0
 40
0.2
 41
0.2
  0
VERTEX
  8
0
 10
90.7881
 20
51.9423
 30
0.0
 40
0.2
 41
0.2
  0
VERTEX
  8
0
 10
90.7715
 20
51.9423
 30
0.0
 40
0.2
 41
0.2
  0
SEQEND
 8
0
  0
POLYLINE
  8
0
 62
     0
 66
     1
 10
0
 20
0
 30
0.0
 40
0.566929
 41
0.566929
  0
VERTEX
  8
0
 10
90.7715
 20
51.9423
 30
0.0
 40
0.2
 41
0.2
  0
VERTEX
  8
0
 10
87.7715
 20
51.9423
 30
0.0
 40
0.2
 41
0.2
  0
VERTEX
  8
0
 10
87.788
 20
51.9423
 30
0.0
 40
0.2
 41
0.2
  0
VERTEX
  8
0
 10
87.8417
 20
51.9134
 30
0.0
 40
0.2
 41
0.2
  0
VERTEX
  8
0
 10
87.872
 20
51.8597
 30
0.0
 40
0.2
 41
0.2
  0
VERTEX
  8
0
 10
87.872
 20
51.8418
 30
0.0
 40
0.2
 41
0.2
  0
SEQEND
 8
0
  0
POLYLINE
  8
0
 62
     0
 66
     1
 10
0
 20
0
 30
0.0
 40
0.566929
 41
0.566929
  0
VERTEX
  8
0
 10
87.872
 20
51.8418
 30
0.0
 40
0.2
 41
0.2
  0
VERTEX
  8
0
 10
87.872
 20
57.8418
 30
0.0
 40
0.2
 41
0.2
  0
VERTEX
  8
0
 10
87.872
 20
57.8598
 30
0.0
 40
0.2
 41
0.2
  0
VERTEX
  8
0
 10
87.8417
 20
57.9134
 30
0.0
 40
0.2
 41
0.2
  0
VERTEX
  8
0
 10
87.788
 20
57.9423
 30
0.0
 40
0.2
 41
0.2
  0
VERTEX
  8
0
 10
87.7715
 20
57.9423
 30
0.0
 40
0.2
 41
0.2
  0
SEQEND
 8
0
  0
POLYLINE
  8
0
 62
     0
 66
     1
 10
0
 20
0
 30
0.0
 40
0.566929
 41
0.566929
  0
VERTEX
  8
0
 10
87.7715
 20
57.9423
 30
0.0
 40
0.2
 41
0.2
  0
VERTEX
  8
0
 10
79.2716
 20
57.9423
 30
0.0
 40
0.2
 41
0.2
  0
SEQEND
 8
0
  0
POLYLINE
  8
0
 62
     0
 66
     1
 10
0
 20
0
 30
0.0
 40
0.566929
 41
0.566929
  0
VERTEX
  8
0
 10
79.2716
 20
57.9423
 30
0.0
 40
0.2
 41
0.2
  0
VERTEX
  8
0
 10
79.2882
 20
57.9423
 30
0.0
 40
0.2
 41
0.2
  0
VERTEX
  8
0
 10
79.3418
 20
57.9134
 30
0.0
 40
0.2
 41
0.2
  0
VERTEX
  8
0
 10
79.3722
 20
57.8598
 30
0.0
 40
0.2
 41
0.2
  0
VERTEX
  8
0
 10
79.3722
 20
57.8418
 30
0.0
 40
0.2
 41
0.2
  0
SEQEND
 8
0
  0
POLYLINE
  8
0
 62
     0
 66
     1
 10
0
 20
0
 30
0.0
 40
0.566929
 41
0.566929
  0
VERTEX
  8
0
 10
79.3722
 20
57.8418
 30
0.0
 40
0.2
 41
0.2
  0
VERTEX
  8
0
 10
79.3722
 20
60.8418
 30
0.0
 40
0.2
 41
0.2
  0
VERTEX
  8
0
 10
79.3722
 20
60.8598
 30
0.0
 40
0.2
 41
0.2
  0
VERTEX
  8
0
 10
79.3418
 20
60.9134
 30
0.0
 40
0.2
 41
0.2
  0
VERTEX
  8
0
 10
79.2882
 20
60.9424
 30
0.0
 40
0.2
 41
0.2
  0
VERTEX
  8
0
 10
79.2716
 20
60.9424
 30
0.0
 40
0.2
 41
0.2
  0
SEQEND
 8
0
  0
POLYLINE
  8
0
 62
     0
 66
     1
 10
0
 20
0
 30
0.0
 40
0.566929
 41
0.566929
  0
VERTEX
  8
0
 10
79.2716
 20
60.9424
 30
0.0
 40
0.2
 41
0.2
  0
VERTEX
  8
0
 10
73.2716
 20
60.9424
 30
0.0
 40
0.2
 41
0.2
  0
VERTEX
  8
0
 10
73.2536
 20
60.9424
 30
0.0
 40
0.2
 41
0.2
  0
VERTEX
  8
0
 10
73.2
 20
60.9134
 30
0.0
 40
0.2
 41
0.2
  0
VERTEX
  8
0
 10
73.1711
 20
60.8598
 30
0.0
 40
0.2
 41
0.2
  0
VERTEX
  8
0
 10
73.1711
 20
60.8418
 30
0.0
 40
0.2
 41
0.2
  0
SEQEND
 8
0
  0
POLYLINE
  8
0
 62
     0
 66
     1
 10
0
 20
0
 30
0.0
 40
0.566929
 41
0.566929
  0
VERTEX
  8
0
 10
73.1711
 20
60.8418
 30
0.0
 40
0.2
 41
0.2
  0
VERTEX
  8
0
 10
73.1711
 20
57.8418
 30
0.0
 40
0.2
 41
0.2
  0
VERTEX
  8
0
 10
73.1711
 20
57.8598
 30
0.0
 40
0.2
 41
0.2
  0
VERTEX
  8
0
 10
73.2
 20
57.9134
 30
0.0
 40
0.2
 41
0.2
  0
VERTEX
  8
0
 10
73.2536
 20
57.9423
 30
0.0
 40
0.2
 41
0.2
  0
VERTEX
  8
0
 10
73.2716
 20
57.9423
 30
0.0
 40
0.2
 41
0.2
  0
SEQEND
 8
0
  0
POLYLINE
  8
0
 62
     0
 66
     1
 10
0
 20
0
 30
0.0
 40
0.566929
 41
0.566929
  0
VERTEX
  8
0
 10
73.2716
 20
57.9423
 30
0.0
 40
0.2
 41
0.2
  0
VERTEX
  8
0
 10
67.2715
 20
57.9423
 30
0.0
 40
0.2
 41
0.2
  0
SEQEND
 8
0
  0
POLYLINE
  8
0
 62
     0
 66
     1
 10
0
 20
0
 30
0.0
 40
0.566929
 41
0.566929
  0
VERTEX
  8
0
 10
67.2715
 20
57.9423
 30
0.0
 40
0.2
 41
0.2
  0
VERTEX
  8
0
 10
67.2881
 20
57.9423
 30
0.0
 40
0.2
 41
0.2
  0
VERTEX
  8
0
 10
67.3421
 20
57.9134
 30
0.0
 40
0.2
 41
0.2
  0
VERTEX
  8
0
 10
67.3724
 20
57.8598
 30
0.0
 40
0.2
 41
0.2
  0
VERTEX
  8
0
 10
67.3724
 20
57.8418
 30
0.0
 40
0.2
 41
0.2
  0
SEQEND
 8
0
  0
POLYLINE
  8
0
 62
     0
 66
     1
 10
0
 20
0
 30
0.0
 40
0.566929
 41
0.566929
  0
VERTEX
  8
0
 10
67.3724
 20
57.8418
 30
0.0
 40
0.2
 41
0.2
  0
VERTEX
  8
0
 10
67.3724
 20
60.8418
 30
0.0
 40
0.2
 41
0.2
  0
VERTEX
  8
0
 10
67.3724
 20
60.8598
 30
0.0
 40
0.2
 41
0.2
  0
VERTEX
  8
0
 10
67.3421
 20
60.9134
 30
0.0
 40
0.2
 41
0.2
  0
VERTEX
  8
0
 10
67.2881
 20
60.9424
 30
0.0
 40
0.2
 41
0.2
  0
VERTEX
  8
0
 10
67.2715
 20
60.9424
 30
0.0
 40
0.2
 41
0.2
  0
SEQEND
 8
0
  0
POLYLINE
  8
0
 62
     0
 66
     1
 10
0
 20
0
 30
0.0
 40
0.566929
 41
0.566929
  0
VERTEX
  8
0
 10
67.2715
 20
60.9424
 30
0.0
 40
0.2
 41
0.2
  0
VERTEX
  8
0
 10
61.2719
 20
60.9424
 30
0.0
 40
0.2
 41
0.2
  0
VERTEX
  8
0
 10
61.2539
 20
60.9424
 30
0.0
 40
0.2
 41
0.2
  0
VERTEX
  8
0
 10
61.1999
 20
60.9134
 30
0.0
 40
0.2
 41
0.2
  0
VERTEX
  8
0
 10
61.171
 20
60.8598
 30
0.0
 40
0.2
 41
0.2
  0
VERTEX
  8
0
 10
61.171
 20
60.8418
 30
0.0
 40
0.2
 41
0.2
  0
SEQEND
 8
0
  0
POLYLINE
  8
0
 62
     0
 66
     1
 10
0
 20
0
 30
0.0
 40
0.566929
 41
0.566929
  0
VERTEX
  8
0
 10
61.171
 20
60.8418
 30
0.0
 40
0.2
 41
0.2
  0
VERTEX
  8
0
 10
61.171
 20
57.8418
 30
0.0
 40
0.2
 41
0.2
  0
VERTEX
  8
0
 10
61.171
 20
57.8598
 30
0.0
 40
0.2
 41
0.2
  0
VERTEX
  8
0
 10
61.1999
 20
57.9134
 30
0.0
 40
0.2
 41
0.2
  0
VERTEX
  8
0
 10
61.2539
 20
57.9423
 30
0.0
 40
0.2
 41
0.2
  0
VERTEX
  8
0
 10
61.2719
 20
57.9423
 30
0.0
 40
0.2
 41
0.2
  0
SEQEND
 8
0
  0
POLYLINE
  8
0
 62
     0
 66
     1
 10
0
 20
0
 30
0.0
 40
0.566929
 41
0.566929
  0
VERTEX
  8
0
 10
61.2719
 20
57.9423
 30
0.0
 40
0.2
 41
0.2
  0
VERTEX
  8
0
 10
52.772
 20
57.9423
 30
0.0
 40
0.2
 41
0.2
  0
VERTEX
  8
0
 10
52.754
 20
57.9423
 30
0.0
 40
0.2
 41
0.2
  0
VERTEX
  8
0
 10
52.7004
 20
57.9134
 30
0.0
 40
0.2
 41
0.2
  0
VERTEX
  8
0
 10
52.6715
 20
57.8598
 30
0.0
 40
0.2
 41
0.2
  0
VERTEX
  8
0
 10
52.6715
 20
57.8418
 30
0.0
 40
0.2
 41
0.2
  0
SEQEND
 8
0
  0
POLYLINE
  8
0
 62
     0
 66
     1
 10
0
 20
0
 30
0.0
 40
0.566929
 41
0.566929
  0
VERTEX
  8
0
 10
52.6715
 20
57.8418
 30
0.0
 40
0.2
 41
0.2
  0
VERTEX
  8
0
 10
52.6715
 20
56.8413
 30
0.0
 40
0.2
 41
0.2
  0
VERTEX
  8
0
 10
52.6715
 20
56.8593
 30
0.0
 40
0.2
 41
0.2
  0
VERTEX
  8
0
 10
52.7004
 20
56.9129
 30
0.0
 40
0.2
 41
0.2
  0
VERTEX
  8
0
 10
52.754
 20
56.9419
 30
0.0
 40
0.2
 41
0.2
  0
VERTEX
  8
0
 10
52.772
 20
56.9419
 30
0.0
 40
0.2
 41
0.2
  0
SEQEND
 8
0
  0
POLYLINE
  8
0
 62
     0
 66
     1
 10
0
 20
0
 30
0.0
 40
0.566929
 41
0.566929
  0
VERTEX
  8
0
 10
52.772
 20
56.9419
 30
0.0
 40
0.2
 41
0.2
  0
VERTEX
  8
0
 10
37.8492
 20
56.9419
 30
0.0
 40
0.2
 41
0.2
  0
SEQEND
 8
0
  0
POLYLINE
  8
0
 62
     0
 66
     1
 10
0
 20
0
 30
0.0
 40
0.566929
 41
0.566929
  0
VERTEX
  8
0
 10
37.8492
 20
56.9419
 30
0.0
 40
0.2
 41
0.2
  0
VERTEX
  8
0
 10
29.8497
 20
56.9419
 30
0.0
 40
0.2
 41
0.2
  0
SEQEND
 8
0
  0
POLYLINE
  8
0
 62
     0
 66
     1
 10
0
 20
0
 30
0.0
 40
0.566929
 41
0.566929
  0
VERTEX
  8
0
 10
29.8497
 20
56.9419
 30
0.0
 40
0.2
 41
0.2
  0
VERTEX
  8
0
 10
29.8318
 20
56.9419
 30
0.0
 40
0.2
 41
0.2
  0
VERTEX
  8
0
 10
29.778
 20
56.9129
 30
0.0
 40
0.2
 41
0.2
  0
VERTEX
  8
0
 10
29.7491
 20
56.8593
 30
0.0
 40
0.2
 41
0.2
  0
VERTEX
  8
0
 10
29.7491
 20
56.8413
 30
0.0
 40
0.2
 41
0.2
  0
SEQEND
 8
0
  0
POLYLINE
  8
0
 62
     0
 66
     1
 10
0
 20
0
 30
0.0
 40
0.566929
 41
0.566929
  0
VERTEX
  8
0
 10
29.7491
 20
56.8413
 30
0.0
 40
0.2
 41
0.2
  0
VERTEX
  8
0
 10
29.7491
 20
53.8413
 30
0.0
 40
0.2
 41
0.2
  0
VERTEX
  8
0
 10
29.7491
 20
53.8593
 30
0.0
 40
0.2
 41
0.2
  0
VERTEX
  8
0
 10
29.778
 20
53.9129
 30
0.0
 40
0.2
 41
0.2
  0
VERTEX
  8
0
 10
29.8318
 20
53.9418
 30
0.0
 40
0.2
 41
0.2
  0
VERTEX
  8
0
 10
29.8497
 20
53.9418
 30
0.0
 40
0.2
 41
0.2
  0
SEQEND
 8
0
  0
POLYLINE
  8
0
 62
     0
 66
     1
 10
0
 20
0
 30
0.0
 40
0.566929
 41
0.566929
  0
VERTEX
  8
0
 10
29.8497
 20
53.9418
 30
0.0
 40
0.2
 41
0.2
  0
VERTEX
  8
0
 10
23.8497
 20
53.9418
 30
0.0
 40
0.2
 41
0.2
  0
VERTEX
  8
0
 10
23.8662
 20
53.9418
 30
0.0
 40
0.2
 41
0.2
  0
VERTEX
  8
0
 10
23.92
 20
53.9129
 30
0.0
 40
0.2
 41
0.2
  0
VERTEX
  8
0
 10
23.9503
 20
53.8593
 30
0.0
 40
0.2
 41
0.2
  0
VERTEX
  8
0
 10
23.9503
 20
53.8413
 30
0.0
 40
0.2
 41
0.2
  0
SEQEND
 8
0
  0
POLYLINE
  8
0
 62
     0
 66
     1
 10
0
 20
0
 30
0.0
 40
0.566929
 41
0.566929
  0
VERTEX
  8
0
 10
23.9503
 20
53.8413
 30
0.0
 40
0.2
 41
0.2
  0
VERTEX
  8
0
 10
23.9503
 20
56.8413
 30
0.0
 40
0.2
 41
0.2
  0
VERTEX
  8
0
 10
23.9503
 20
56.8593
 30
0.0
 40
0.2
 41
0.2
  0
VERTEX
  8
0
 10
23.92
 20
56.9129
 30
0.0
 40
0.2
 41
0.2
  0
VERTEX
  8
0
 10
23.8662
 20
56.9419
 30
0.0
 40
0.2
 41
0.2
  0
VERTEX
  8
0
 10
23.8497
 20
56.9419
 30
0.0
 40
0.2
 41
0.2
  0
SEQEND
 8
0
  0
POLYLINE
  8
0
 62
     0
 66
     1
 10
0
 20
0
 30
0.0
 40
0.566929
 41
0.566929
  0
VERTEX
  8
0
 10
23.8497
 20
56.9419
 30
0.0
 40
0.2
 41
0.2
  0
VERTEX
  8
0
 10
17.8497
 20
56.9419
 30
0.0
 40
0.2
 41
0.2
  0
SEQEND
 8
0
  0
POLYLINE
  8
0
 62
     0
 66
     1
 10
0
 20
0
 30
0.0
 40
0.566929
 41
0.566929
  0
VERTEX
  8
0
 10
17.8497
 20
56.9419
 30
0.0
 40
0.2
 41
0.2
  0
VERTEX
  8
0
 10
17.8318
 20
56.9419
 30
0.0
 40
0.2
 41
0.2
  0
VERTEX
  8
0
 10
17.7781
 20
56.9129
 30
0.0
 40
0.2
 41
0.2
  0
VERTEX
  8
0
 10
17.7491
 20
56.8593
 30
0.0
 40
0.2
 41
0.2
  0
VERTEX
  8
0
 10
17.7491
 20
56.8413
 30
0.0
 40
0.2
 41
0.2
  0
SEQEND
 8
0
  0
POLYLINE
  8
0
 62
     0
 66
     1
 10
0
 20
0
 30
0.0
 40
0.566929
 41
0.566929
  0
VERTEX
  8
0
 10
17.7491
 20
56.8413
 30
0.0
 40
0.2
 41
0.2
  0
VERTEX
  8
0
 10
17.7491
 20
53.8413
 30
0.0
 40
0.2
 41
0.2
  0
VERTEX
  8
0
 10
17.7491
 20
53.8593
 30
0.0
 40
0.2
 41
0.2
  0
VERTEX
  8
0
 10
17.7781
 20
53.9129
 30
0.0
 40
0.2
 41
0.2
  0
VERTEX
  8
0
 10
17.8318
 20
53.9418
 30
0.0
 40
0.2
 41
0.2
  0
VERTEX
  8
0
 10
17.8497
 20
53.9418
 30
0.0
 40
0.2
 41
0.2
  0
SEQEND
 8
0
  0
POLYLINE
  8
0
 62
     0
 66
     1
 10
0
 20
0
 30
0.0
 40
0.566929
 41
0.566929
  0
VERTEX
  8
0
 10
17.8497
 20
53.9418
 30
0.0
 40
0.2
 41
0.2
  0
VERTEX
  8
0
 10
11.8497
 20
53.9418
 30
0.0
 40
0.2
 41
0.2
  0
VERTEX
  8
0
 10
11.8663
 20
53.9418
 30
0.0
 40
0.2
 41
0.2
  0
VERTEX
  8
0
 10
11.92
 20
53.9129
 30
0.0
 40
0.2
 41
0.2
  0
VERTEX
  8
0
 10
11.9503
 20
53.8593
 30
0.0
 40
0.2
 41
0.2
  0
VERTEX
  8
0
 10
11.9503
 20
53.8413
 30
0.0
 40
0.2
 41
0.2
  0
SEQEND
 8
0
  0
POLYLINE
  8
0
 62
     0
 66
     1
 10
0
 20
0
 30
0.0
 40
0.566929
 41
0.566929
  0
VERTEX
  8
0
 10
11.9503
 20
53.8413
 30
0.0
 40
0.2
 41
0.2
  0
VERTEX
  8
0
 10
11.9503
 20
56.8413
 30
0.0
 40
0.2
 41
0.2
  0
VERTEX
  8
0
 10
11.9503
 20
56.8593
 30
0.0
 40
0.2
 41
0.2
  0
VERTEX
  8
0
 10
11.92
 20
56.9129
 30
0.0
 40
0.2
 41
0.2
  0
VERTEX
  8
0
 10
11.8663
 20
56.9419
 30
0.0
 40
0.2
 41
0.2
  0
VERTEX
  8
0
 10
11.8497
 20
56.9419
 30
0.0
 40
0.2
 41
0.2
  0
SEQEND
 8
0
  0
POLYLINE
  8
0
 62
     0
 66
     1
 10
0
 20
0
 30
0.0
 40
0.566929
 41
0.566929
  0
VERTEX
  8
0
 10
11.8497
 20
56.9419
 30
0.0
 40
0.2
 41
0.2
  0
VERTEX
  8
0
 10
3.85025
 20
56.9419
 30
0.0
 40
0.2
 41
0.2
  0
VERTEX
  8
0
 10
3.83233
 20
56.9419
 30
0.0
 40
0.2
 41
0.2
  0
VERTEX
  8
0
 10
3.77857
 20
56.9129
 30
0.0
 40
0.2
 41
0.2
  0
VERTEX
  8
0
 10
3.74964
 20
56.8593
 30
0.0
 40
0.2
 41
0.2
  0
VERTEX
  8
0
 10
3.74964
 20
56.8413
 30
0.0
 40
0.2
 41
0.2
  0
SEQEND
 8
0
  0
POLYLINE
  8
0
 62
     0
 66
     1
 10
0
 20
0
 30
0.0
 40
0.566929
 41
0.566929
  0
VERTEX
  8
0
 10
3.74964
 20
56.8413
 30
0.0
 40
0.2
 41
0.2
  0
VERTEX
  8
0
 10
3.74964
 20
53.8413
 30
0.0
 40
0.2
 41
0.2
  0
SEQEND
 8
0
  0
POLYLINE
  8
0
 62
     0
 66
     1
 10
0
 20
0
 30
0.0
 40
0.566929
 41
0.566929
  0
VERTEX
  8
0
 10
3.74964
 20
53.8413
 30
0.0
 40
0.2
 41
0.2
  0
VERTEX
  8
0
 10
3.74964
 20
45.8417
 30
0.0
 40
0.2
 41
0.2
  0
SEQEND
 8
0
  0
POLYLINE
  8
0
 62
     0
 66
     1
 10
0
 20
0
 30
0.0
 40
0.566929
 41
0.566929
  0
VERTEX
  8
0
 10
3.74964
 20
45.8417
 30
0.0
 40
0.2
 41
0.2
  0
VERTEX
  8
0
 10
3.74964
 20
45.8597
 30
0.0
 40
0.2
 41
0.2
  0
VERTEX
  8
0
 10
3.77857
 20
45.9133
 30
0.0
 40
0.2
 41
0.2
  0
VERTEX
  8
0
 10
3.83233
 20
45.9422
 30
0.0
 40
0.2
 41
0.2
  0
VERTEX
  8
0
 10
3.85025
 20
45.9422
 30
0.0
 40
0.2
 41
0.2
  0
SEQEND
 8
0
  0
POLYLINE
  8
0
 62
     0
 66
     1
 10
0
 20
0
 30
0.0
 40
0.566929
 41
0.566929
  0
VERTEX
  8
0
 10
3.85025
 20
45.9422
 30
0.0
 40
0.2
 41
0.2
  0
VERTEX
  8
0
 10
0.850251
 20
45.9422
 30
0.0
 40
0.2
 41
0.2
  0
VERTEX
  8
0
 10
0.832337
 20
45.9422
 30
0.0
 40
0.2
 41
0.2
  0
VERTEX
  8
0
 10
0.778591
 20
45.9133
 30
0.0
 40
0.2
 41
0.2
  0
VERTEX
  8
0
 10
0.749653
 20
45.8597
 30
0.0
 40
0.2
 41
0.2
  0
VERTEX
  8
0
 10
0.749653
 20
45.8417
 30
0.0
 40
0.2
 41
0.2
  0
SEQEND
 8
0
  0
POLYLINE
  8
0
 62
     0
 66
     1
 10
0
 20
0
 30
0.0
 40
0.566929
 41
0.566929
  0
VERTEX
  8
0
 10
0.749653
 20
45.8417
 30
0.0
 40
0.2
 41
0.2
  0
VERTEX
  8
0
 10
0.749653
 20
39.842
 30
0.0
 40
0.2
 41
0.2
  0
VERTEX
  8
0
 10
0.749653
 20
39.8254
 30
0.0
 40
0.2
 41
0.2
  0
VERTEX
  8
0
 10
0.778591
 20
39.7715
 30
0.0
 40
0.2
 41
0.2
  0
VERTEX
  8
0
 10
0.832337
 20
39.7411
 30
0.0
 40
0.2
 41
0.2
  0
VERTEX
  8
0
 10
0.850251
 20
39.7411
 30
0.0
 40
0.2
 41
0.2
  0
SEQEND
 8
0
  0
POLYLINE
  8
0
 62
     0
 66
     1
 10
0
 20
0
 30
0.0
 40
0.566929
 41
0.566929
  0
VERTEX
  8
0
 10
0.850251
 20
39.7411
 30
0.0
 40
0.2
 41
0.2
  0
VERTEX
  8
0
 10
3.85025
 20
39.7411
 30
0.0
 40
0.2
 41
0.2
  0
VERTEX
  8
0
 10
3.83233
 20
39.7411
 30
0.0
 40
0.2
 41
0.2
  0
VERTEX
  8
0
 10
3.77857
 20
39.7715
 30
0.0
 40
0.2
 41
0.2
  0
VERTEX
  8
0
 10
3.74964
 20
39.8254
 30
0.0
 40
0.2
 41
0.2
  0
VERTEX
  8
0
 10
3.74964
 20
39.842
 30
0.0
 40
0.2
 41
0.2
  0
SEQEND
 8
0
  0
POLYLINE
  8
0
 62
     0
 66
     1
 10
0
 20
0
 30
0.0
 40
0.566929
 41
0.566929
  0
VERTEX
  8
0
 10
3.74964
 20
39.842
 30
0.0
 40
0.2
 41
0.2
  0
VERTEX
  8
0
 10
3.74964
 20
33.8419
 30
0.0
 40
0.2
 41
0.2
  0
SEQEND
 8
0
  0
POLYLINE
  8
0
 62
     0
 66
     1
 10
0
 20
0
 30
0.0
 40
0.566929
 41
0.566929
  0
VERTEX
  8
0
 10
3.74964
 20
33.8419
 30
0.0
 40
0.2
 41
0.2
  0
VERTEX
  8
0
 10
3.74964
 20
33.8598
 30
0.0
 40
0.2
 41
0.2
  0
VERTEX
  8
0
 10
3.77857
 20
33.9135
 30
0.0
 40
0.2
 41
0.2
  0
VERTEX
  8
0
 10
3.83233
 20
33.9424
 30
0.0
 40
0.2
 41
0.2
  0
VERTEX
  8
0
 10
3.85025
 20
33.9424
 30
0.0
 40
0.2
 41
0.2
  0
SEQEND
 8
0
  0
POLYLINE
  8
0
 62
     0
 66
     1
 10
0
 20
0
 30
0.0
 40
0.566929
 41
0.566929
  0
VERTEX
  8
0
 10
3.85025
 20
33.9424
 30
0.0
 40
0.2
 41
0.2
  0
VERTEX
  8
0
 10
0.850251
 20
33.9424
 30
0.0
 40
0.2
 41
0.2
  0
VERTEX
  8
0
 10
0.832337
 20
33.9424
 30
0.0
 40
0.2
 41
0.2
  0
VERTEX
  8
0
 10
0.778591
 20
33.9135
 30
0.0
 40
0.2
 41
0.2
  0
VERTEX
  8
0
 10
0.749653
 20
33.8598
 30
0.0
 40
0.2
 41
0.2
  0
VERTEX
  8
0
 10
0.749653
 20
33.8419
 30
0.0
 40
0.2
 41
0.2
  0
SEQEND
 8
0
  0
POLYLINE
  8
0
 62
     0
 66
     1
 10
0
 20
0
 30
0.0
 40
0.566929
 41
0.566929
  0
VERTEX
  8
0
 10
0.749653
 20
33.8419
 30
0.0
 40
0.2
 41
0.2
  0
VERTEX
  8
0
 10
0.749653
 20
27.8419
 30
0.0
 40
0.2
 41
0.2
  0
VERTEX
  8
0
 10
0.749653
 20
27.8253
 30
0.0
 40
0.2
 41
0.2
  0
VERTEX
  8
0
 10
0.778591
 20
27.7716
 30
0.0
 40
0.2
 41
0.2
  0
VERTEX
  8
0
 10
0.832337
 20
27.7413
 30
0.0
 40
0.2
 41
0.2
  0
VERTEX
  8
0
 10
0.850251
 20
27.7413
 30
0.0
 40
0.2
 41
0.2
  0
SEQEND
 8
0
  0
POLYLINE
  8
0
 62
     0
 66
     1
 10
0
 20
0
 30
0.0
 40
0.566929
 41
0.566929
  0
VERTEX
  8
0
 10
0.850251
 20
27.7413
 30
0.0
 40
0.2
 41
0.2
  0
VERTEX
  8
0
 10
3.85025
 20
27.7413
 30
0.0
 40
0.2
 41
0.2
  0
VERTEX
  8
0
 10
3.83233
 20
27.7413
 30
0.0
 40
0.2
 41
0.2
  0
VERTEX
  8
0
 10
3.77857
 20
27.7716
 30
0.0
 40
0.2
 41
0.2
  0
VERTEX
  8
0
 10
3.74964
 20
27.8253
 30
0.0
 40
0.2
 41
0.2
  0
VERTEX
  8
0
 10
3.74964
 20
27.8419
 30
0.0
 40
0.2
 41
0.2
  0
SEQEND
 8
0
  0
POLYLINE
  8
0
 62
     0
 66
     1
 10
0
 20
0
 30
0.0
 40
0.566929
 41
0.566929
  0
VERTEX
  8
0
 10
3.74964
 20
27.8419
 30
0.0
 40
0.2
 41
0.2
  0
VERTEX
  8
0
 10
3.74964
 20
19.8424
 30
0.0
 40
0.2
 41
0.2
  0
SEQEND
 8
0
  0
POLYLINE
  8
0
 62
     0
 66
     1
 10
0
 20
0
 30
0.0
 40
0.566929
 41
0.566929
  0
VERTEX
  8
0
 10
3.74964
 20
19.8424
 30
0.0
 40
0.2
 41
0.2
  0
VERTEX
  8
0
 10
3.74964
 20
16.8424
 30
0.0
 40
0.2
 41
0.2
  0
VERTEX
  8
0
 10
3.74964
 20
16.8258
 30
0.0
 40
0.2
 41
0.2
  0
VERTEX
  8
0
 10
3.77857
 20
16.7721
 30
0.0
 40
0.2
 41
0.2
  0
VERTEX
  8
0
 10
3.83233
 20
16.7418
 30
0.0
 40
0.2
 41
0.2
  0
VERTEX
  8
0
 10
3.85025
 20
16.7418
 30
0.0
 40
0.2
 41
0.2
  0
SEQEND
 8
0
  0
POLYLINE
  8
0
 62
     0
 66
     1
 10
0
 20
0
 30
0.0
 40
0.566929
 41
0.566929
  0
VERTEX
  8
0
 10
95.4733
 20
12.7413
 30
0.0
 40
0.2
 41
0.2
  0
VERTEX
  8
0
 10
102.472
 20
12.7413
 30
0.0
 40
0.2
 41
0.2
  0
SEQEND
 8
0
  0
POLYLINE
  8
0
 62
     0
 66
     1
 10
0
 20
0
 30
0.0
 40
0.566929
 41
0.566929
  0
VERTEX
  8
0
 10
102.472
 20
12.7413
 30
0.0
 40
0.2
 41
0.2
  0
VERTEX
  8
0
 10
102.489
 20
12.7413
 30
0.0
 40
0.2
 41
0.2
  0
VERTEX
  8
0
 10
102.543
 20
12.7716
 30
0.0
 40
0.2
 41
0.2
  0
VERTEX
  8
0
 10
102.573
 20
12.8254
 30
0.0
 40
0.2
 41
0.2
  0
VERTEX
  8
0
 10
102.573
 20
12.8419
 30
0.0
 40
0.2
 41
0.2
  0
SEQEND
 8
0
  0
POLYLINE
  8
0
 62
     0
 66
     1
 10
0
 20
0
 30
0.0
 40
0.566929
 41
0.566929
  0
VERTEX
  8
0
 10
102.573
 20
12.8419
 30
0.0
 40
0.2
 41
0.2
  0
VERTEX
  8
0
 10
102.573
 20
15.8419
 30
0.0
 40
0.2
 41
0.2
  0
VERTEX
  8
0
 10
102.573
 20
15.8254
 30
0.0
 40
0.2
 41
0.2
  0
VERTEX
  8
0
 10
102.543
 20
15.7716
 30
0.0
 40
0.2
 41
0.2
  0
VERTEX
  8
0
 10
102.489
 20
15.7413
 30
0.0
 40
0.2
 41
0.2
  0
VERTEX
  8
0
 10
102.472
 20
15.7413
 30
0.0
 40
0.2
 41
0.2
  0
SEQEND
 8
0
  0
POLYLINE
  8
0
 62
     0
 66
     1
 10
0
 20
0
 30
0.0
 40
0.566929
 41
0.566929
  0
VERTEX
  8
0
 10
102.472
 20
15.7413
 30
0.0
 40
0.2
 41
0.2
  0
VERTEX
  8
0
 10
108.472
 20
15.7413
 30
0.0
 40
0.2
 41
0.2
  0
VERTEX
  8
0
 10
108.454
 20
15.7413
 30
0.0
 40
0.2
 41
0.2
  0
VERTEX
  8
0
 10
108.401
 20
15.7716
 30
0.0
 40
0.2
 41
0.2
  0
VERTEX
  8
0
 10
108.372
 20
15.8254
 30
0.0
 40
0.2
 41
0.2
  0
VERTEX
  8
0
 10
108.372
 20
15.8419
 30
0.0
 40
0.2
 41
0.2
  0
SEQEND
 8
0
  0
POLYLINE
  8
0
 62
     0
 66
     1
 10
0
 20
0
 30
0.0
 40
0.566929
 41
0.566929
  0
VERTEX
  8
0
 10
108.372
 20
15.8419
 30
0.0
 40
0.2
 41
0.2
  0
VERTEX
  8
0
 10
108.372
 20
12.8419
 30
0.0
 40
0.2
 41
0.2
  0
VERTEX
  8
0
 10
108.372
 20
12.8254
 30
0.0
 40
0.2
 41
0.2
  0
VERTEX
  8
0
 10
108.401
 20
12.7716
 30
0.0
 40
0.2
 41
0.2
  0
VERTEX
  8
0
 10
108.454
 20
12.7413
 30
0.0
 40
0.2
 41
0.2
  0
VERTEX
  8
0
 10
108.472
 20
12.7413
 30
0.0
 40
0.2
 41
0.2
  0
SEQEND
 8
0
  0
POLYLINE
  8
0
 62
     0
 66
     1
 10
0
 20
0
 30
0.0
 40
0.566929
 41
0.566929
  0
VERTEX
  8
0
 10
108.472
 20
12.7413
 30
0.0
 40
0.2
 41
0.2
  0
VERTEX
  8
0
 10
114.472
 20
12.7413
 30
0.0
 40
0.2
 41
0.2
  0
SEQEND
 8
0
  0
POLYLINE
  8
0
 62
     0
 66
     1
 10
0
 20
0
 30
0.0
 40
0.566929
 41
0.566929
  0
VERTEX
  8
0
 10
114.472
 20
12.7413
 30
0.0
 40
0.2
 41
0.2
  0
VERTEX
  8
0
 10
114.489
 20
12.7413
 30
0.0
 40
0.2
 41
0.2
  0
VERTEX
  8
0
 10
114.543
 20
12.7716
 30
0.0
 40
0.2
 41
0.2
  0
VERTEX
  8
0
 10
114.573
 20
12.8254
 30
0.0
 40
0.2
 41
0.2
  0
VERTEX
  8
0
 10
114.573
 20
12.8419
 30
0.0
 40
0.2
 41
0.2
  0
SEQEND
 8
0
  0
POLYLINE
  8
0
 62
     0
 66
     1
 10
0
 20
0
 30
0.0
 40
0.566929
 41
0.566929
  0
VERTEX
  8
0
 10
114.573
 20
12.8419
 30
0.0
 40
0.2
 41
0.2
  0
VERTEX
  8
0
 10
114.573
 20
15.8419
 30
0.0
 40
0.2
 41
0.2
  0
VERTEX
  8
0
 10
114.573
 20
15.8254
 30
0.0
 40
0.2
 41
0.2
  0
VERTEX
  8
0
 10
114.543
 20
15.7716
 30
0.0
 40
0.2
 41
0.2
  0
VERTEX
  8
0
 10
114.489
 20
15.7413
 30
0.0
 40
0.2
 41
0.2
  0
VERTEX
  8
0
 10
114.472
 20
15.7413
 30
0.0
 40
0.2
 41
0.2
  0
SEQEND
 8
0
  0
POLYLINE
  8
0
 62
     0
 66
     1
 10
0
 20
0
 30
0.0
 40
0.566929
 41
0.566929
  0
VERTEX
  8
0
 10
114.472
 20
15.7413
 30
0.0
 40
0.2
 41
0.2
  0
VERTEX
  8
0
 10
120.472
 20
15.7413
 30
0.0
 40
0.2
 41
0.2
  0
VERTEX
  8
0
 10
120.454
 20
15.7413
 30
0.0
 40
0.2
 41
0.2
  0
VERTEX
  8
0
 10
120.401
 20
15.7716
 30
0.0
 40
0.2
 41
0.2
  0
VERTEX
  8
0
 10
120.372
 20
15.8254
 30
0.0
 40
0.2
 41
0.2
  0
VERTEX
  8
0
 10
120.372
 20
15.8419
 30
0.0
 40
0.2
 41
0.2
  0
SEQEND
 8
0
  0
POLYLINE
  8
0
 62
     0
 66
     1
 10
0
 20
0
 30
0.0
 40
0.566929
 41
0.566929
  0
VERTEX
  8
0
 10
120.372
 20
15.8419
 30
0.0
 40
0.2
 41
0.2
  0
VERTEX
  8
0
 10
120.372
 20
12.8419
 30
0.0
 40
0.2
 41
0.2
  0
VERTEX
  8
0
 10
120.372
 20
12.8254
 30
0.0
 40
0.2
 41
0.2
  0
VERTEX
  8
0
 10
120.401
 20
12.7716
 30
0.0
 40
0.2
 41
0.2
  0
VERTEX
  8
0
 10
120.454
 20
12.7413
 30
0.0
 40
0.2
 41
0.2
  0
VERTEX
  8
0
 10
120.472
 20
12.7413
 30
0.0
 40
0.2
 41
0.2
  0
SEQEND
 8
0
  0
POLYLINE
  8
0
 62
     0
 66
     1
 10
0
 20
0
 30
0.0
 40
0.566929
 41
0.566929
  0
VERTEX
  8
0
 10
120.472
 20
12.7413
 30
0.0
 40
0.2
 41
0.2
  0
VERTEX
  8
0
 10
126.472
 20
12.7413
 30
0.0
 40
0.2
 41
0.2
  0
SEQEND
 8
0
  0
POLYLINE
  8
0
 62
     0
 66
     1
 10
0
 20
0
 30
0.0
 40
0.566929
 41
0.566929
  0
VERTEX
  8
0
 10
126.472
 20
12.7413
 30
0.0
 40
0.2
 41
0.2
  0
VERTEX
  8
0
 10
126.489
 20
12.7413
 30
0.0
 40
0.2
 41
0.2
  0
VERTEX
  8
0
 10
126.542
 20
12.7716
 30
0.0
 40
0.2
 41
0.2
  0
VERTEX
  8
0
 10
126.573
 20
12.8254
 30
0.0
 40
0.2
 41
0.2
  0
VERTEX
  8
0
 10
126.573
 20
12.8419
 30
0.0
 40
0.2
 41
0.2
  0
SEQEND
 8
0
  0
POLYLINE
  8
0
 62
     0
 66
     1
 10
0
 20
0
 30
0.0
 40
0.566929
 41
0.566929
  0
VERTEX
  8
0
 10
126.573
 20
12.8419
 30
0.0
 40
0.2
 41
0.2
  0
VERTEX
  8
0
 10
126.573
 20
15.8419
 30
0.0
 40
0.2
 41
0.2
  0
VERTEX
  8
0
 10
126.573
 20
15.8254
 30
0.0
 40
0.2
 41
0.2
  0
VERTEX
  8
0
 10
126.542
 20
15.7716
 30
0.0
 40
0.2
 41
0.2
  0
VERTEX
  8
0
 10
126.489
 20
15.7413
 30
0.0
 40
0.2
 41
0.2
  0
VERTEX
  8
0
 10
126.472
 20
15.7413
 30
0.0
 40
0.2
 41
0.2
  0
SEQEND
 8
0
  0
POLYLINE
  8
0
 62
     0
 66
     1
 10
0
 20
0
 30
0.0
 40
0.566929
 41
0.566929
  0
VERTEX
  8
0
 10
126.472
 20
15.7413
 30
0.0
 40
0.2
 41
0.2
  0
VERTEX
  8
0
 10
132.472
 20
15.7413
 30
0.0
 40
0.2
 41
0.2
  0
VERTEX
  8
0
 10
132.454
 20
15.7413
 30
0.0
 40
0.2
 41
0.2
  0
VERTEX
  8
0
 10
132.401
 20
15.7716
 30
0.0
 40
0.2
 41
0.2
  0
VERTEX
  8
0
 10
132.372
 20
15.8254
 30
0.0
 40
0.2
 41
0.2
  0
VERTEX
  8
0
 10
132.372
 20
15.8419
 30
0.0
 40
0.2
 41
0.2
  0
SEQEND
 8
0
  0
POLYLINE
  8
0
 62
     0
 66
     1
 10
0
 20
0
 30
0.0
 40
0.566929
 41
0.566929
  0
VERTEX
  8
0
 10
132.372
 20
15.8419
 30
0.0
 40
0.2
 41
0.2
  0
VERTEX
  8
0
 10
132.372
 20
12.8419
 30
0.0
 40
0.2
 41
0.2
  0
VERTEX
  8
0
 10
132.372
 20
12.8254
 30
0.0
 40
0.2
 41
0.2
  0
VERTEX
  8
0
 10
132.401
 20
12.7716
 30
0.0
 40
0.2
 41
0.2
  0
VERTEX
  8
0
 10
132.454
 20
12.7413
 30
0.0
 40
0.2
 41
0.2
  0
VERTEX
  8
0
 10
132.472
 20
12.7413
 30
0.0
 40
0.2
 41
0.2
  0
SEQEND
 8
0
  0
POLYLINE
  8
0
 62
     0
 66
     1
 10
0
 20
0
 30
0.0
 40
0.566929
 41
0.566929
  0
VERTEX
  8
0
 10
132.472
 20
12.7413
 30
0.0
 40
0.2
 41
0.2
  0
VERTEX
  8
0
 10
139.472
 20
12.7413
 30
0.0
 40
0.2
 41
0.2
  0
SEQEND
 8
0
  0
POLYLINE
  8
0
 62
     0
 66
     1
 10
0
 20
0
 30
0.0
 40
0.566929
 41
0.566929
  0
VERTEX
  8
0
 10
139.472
 20
12.7413
 30
0.0
 40
0.2
 41
0.2
  0
VERTEX
  8
0
 10
142.472
 20
12.7413
 30
0.0
 40
0.2
 41
0.2
  0
VERTEX
  8
0
 10
142.489
 20
12.7413
 30
0.0
 40
0.2
 41
0.2
  0
VERTEX
  8
0
 10
142.543
 20
12.7716
 30
0.0
 40
0.2
 41
0.2
  0
VERTEX
  8
0
 10
142.573
 20
12.8254
 30
0.0
 40
0.2
 41
0.2
  0
VERTEX
  8
0
 10
142.573
 20
12.8419
 30
0.0
 40
0.2
 41
0.2
  0
SEQEND
 8
0
  0
POLYLINE
  8
0
 62
     0
 66
     1
 10
0
 20
0
 30
0.0
 40
0.566929
 41
0.566929
  0
VERTEX
  8
0
 10
142.573
 20
12.8419
 30
0.0
 40
0.2
 41
0.2
  0
VERTEX
  8
0
 10
142.573
 20
15.8419
 30
0.0
 40
0.2
 41
0.2
  0
SEQEND
 8
0
  0
POLYLINE
  8
0
 62
     0
 66
     1
 10
0
 20
0
 30
0.0
 40
0.566929
 41
0.566929
  0
VERTEX
  8
0
 10
142.573
 20
15.8419
 30
0.0
 40
0.2
 41
0.2
  0
VERTEX
  8
0
 10
142.573
 20
23.8414
 30
0.0
 40
0.2
 41
0.2
  0
SEQEND
 8
0
  0
POLYLINE
  8
0
 62
     0
 66
     1
 10
0
 20
0
 30
0.0
 40
0.566929
 41
0.566929
  0
VERTEX
  8
0
 10
142.573
 20
23.8414
 30
0.0
 40
0.2
 41
0.2
  0
VERTEX
  8
0
 10
142.573
 20
23.8593
 30
0.0
 40
0.2
 41
0.2
  0
VERTEX
  8
0
 10
142.543
 20
23.9131
 30
0.0
 40
0.2
 41
0.2
  0
VERTEX
  8
0
 10
142.489
 20
23.942
 30
0.0
 40
0.2
 41
0.2
  0
VERTEX
  8
0
 10
142.472
 20
23.942
 30
0.0
 40
0.2
 41
0.2
  0
SEQEND
 8
0
  0
POLYLINE
  8
0
 62
     0
 66
     1
 10
0
 20
0
 30
0.0
 40
0.566929
 41
0.566929
  0
VERTEX
  8
0
 10
142.472
 20
23.942
 30
0.0
 40
0.2
 41
0.2
  0
VERTEX
  8
0
 10
139.472
 20
23.942
 30
0.0
 40
0.2
 41
0.2
  0
VERTEX
  8
0
 10
139.489
 20
23.942
 30
0.0
 40
0.2
 41
0.2
  0
VERTEX
  8
0
 10
139.543
 20
23.9131
 30
0.0
 40
0.2
 41
0.2
  0
VERTEX
  8
0
 10
139.573
 20
23.8593
 30
0.0
 40
0.2
 41
0.2
  0
VERTEX
  8
0
 10
139.573
 20
23.8414
 30
0.0
 40
0.2
 41
0.2
  0
SEQEND
 8
0
  0
POLYLINE
  8
0
 62
     0
 66
     1
 10
0
 20
0
 30
0.0
 40
0.566929
 41
0.566929
  0
VERTEX
  8
0
 10
139.573
 20
23.8414
 30
0.0
 40
0.2
 41
0.2
  0
VERTEX
  8
0
 10
139.573
 20
29.8414
 30
0.0
 40
0.2
 41
0.2
  0
VERTEX
  8
0
 10
139.573
 20
29.8249
 30
0.0
 40
0.2
 41
0.2
  0
VERTEX
  8
0
 10
139.543
 20
29.7711
 30
0.0
 40
0.2
 41
0.2
  0
VERTEX
  8
0
 10
139.489
 20
29.7408
 30
0.0
 40
0.2
 41
0.2
  0
VERTEX
  8
0
 10
139.472
 20
29.7408
 30
0.0
 40
0.2
 41
0.2
  0
SEQEND
 8
0
  0
POLYLINE
  8
0
 62
     0
 66
     1
 10
0
 20
0
 30
0.0
 40
0.566929
 41
0.566929
  0
VERTEX
  8
0
 10
139.472
 20
29.7408
 30
0.0
 40
0.2
 41
0.2
  0
VERTEX
  8
0
 10
142.472
 20
29.7408
 30
0.0
 40
0.2
 41
0.2
  0
VERTEX
  8
0
 10
142.489
 20
29.7408
 30
0.0
 40
0.2
 41
0.2
  0
VERTEX
  8
0
 10
142.543
 20
29.7711
 30
0.0
 40
0.2
 41
0.2
  0
VERTEX
  8
0
 10
142.573
 20
29.8249
 30
0.0
 40
0.2
 41
0.2
  0
VERTEX
  8
0
 10
142.573
 20
29.8414
 30
0.0
 40
0.2
 41
0.2
  0
SEQEND
 8
0
  0
POLYLINE
  8
0
 62
     0
 66
     1
 10
0
 20
0
 30
0.0
 40
0.566929
 41
0.566929
  0
VERTEX
  8
0
 10
142.573
 20
29.8414
 30
0.0
 40
0.2
 41
0.2
  0
VERTEX
  8
0
 10
142.573
 20
35.8415
 30
0.0
 40
0.2
 41
0.2
  0
SEQEND
 8
0
  0
POLYLINE
  8
0
 62
     0
 66
     1
 10
0
 20
0
 30
0.0
 40
0.566929
 41
0.566929
  0
VERTEX
  8
0
 10
142.573
 20
35.8415
 30
0.0
 40
0.2
 41
0.2
  0
VERTEX
  8
0
 10
142.573
 20
35.8592
 30
0.0
 40
0.2
 41
0.2
  0
VERTEX
  8
0
 10
142.543
 20
35.9131
 30
0.0
 40
0.2
 41
0.2
  0
VERTEX
  8
0
 10
142.489
 20
35.9421
 30
0.0
 40
0.2
 41
0.2
  0
VERTEX
  8
0
 10
142.472
 20
35.9421
 30
0.0
 40
0.2
 41
0.2
  0
SEQEND
 8
0
  0
POLYLINE
  8
0
 62
     0
 66
     1
 10
0
 20
0
 30
0.0
 40
0.566929
 41
0.566929
  0
VERTEX
  8
0
 10
142.472
 20
35.9421
 30
0.0
 40
0.2
 41
0.2
  0
VERTEX
  8
0
 10
139.472
 20
35.9421
 30
0.0
 40
0.2
 41
0.2
  0
VERTEX
  8
0
 10
139.489
 20
35.9421
 30
0.0
 40
0.2
 41
0.2
  0
VERTEX
  8
0
 10
139.543
 20
35.9131
 30
0.0
 40
0.2
 41
0.2
  0
VERTEX
  8
0
 10
139.573
 20
35.8592
 30
0.0
 40
0.2
 41
0.2
  0
VERTEX
  8
0
 10
139.573
 20
35.8415
 30
0.0
 40
0.2
 41
0.2
  0
SEQEND
 8
0
  0
POLYLINE
  8
0
 62
     0
 66
     1
 10
0
 20
0
 30
0.0
 40
0.566929
 41
0.566929
  0
VERTEX
  8
0
 10
139.573
 20
35.8415
 30
0.0
 40
0.2
 41
0.2
  0
VERTEX
  8
0
 10
139.573
 20
41.8412
 30
0.0
 40
0.2
 41
0.2
  0
VERTEX
  8
0
 10
139.573
 20
41.825
 30
0.0
 40
0.2
 41
0.2
  0
VERTEX
  8
0
 10
139.543
 20
41.771
 30
0.0
 40
0.2
 41
0.2
  0
VERTEX
  8
0
 10
139.489
 20
41.7407
 30
0.0
 40
0.2
 41
0.2
  0
VERTEX
  8
0
 10
139.472
 20
41.7407
 30
0.0
 40
0.2
 41
0.2
  0
SEQEND
 8
0
  0
POLYLINE
  8
0
 62
     0
 66
     1
 10
0
 20
0
 30
0.0
 40
0.566929
 41
0.566929
  0
VERTEX
  8
0
 10
139.472
 20
41.7407
 30
0.0
 40
0.2
 41
0.2
  0
VERTEX
  8
0
 10
142.472
 20
41.7407
 30
0.0
 40
0.2
 41
0.2
  0
VERTEX
  8
0
 10
142.489
 20
41.7407
 30
0.0
 40
0.2
 41
0.2
  0
VERTEX
  8
0
 10
142.543
 20
41.771
 30
0.0
 40
0.2
 41
0.2
  0
VERTEX
  8
0
 10
142.573
 20
41.825
 30
0.0
 40
0.2
 41
0.2
  0
VERTEX
  8
0
 10
142.573
 20
41.8412
 30
0.0
 40
0.2
 41
0.2
  0
SEQEND
 8
0
  0
POLYLINE
  8
0
 62
     0
 66
     1
 10
0
 20
0
 30
0.0
 40
0.566929
 41
0.566929
  0
VERTEX
  8
0
 10
142.573
 20
41.8412
 30
0.0
 40
0.2
 41
0.2
  0
VERTEX
  8
0
 10
142.573
 20
49.8408
 30
0.0
 40
0.2
 41
0.2
  0
SEQEND
 8
0
  0
POLYLINE
  8
0
 62
     0
 66
     1
 10
0
 20
0
 30
0.0
 40
0.566929
 41
0.566929
  0
VERTEX
  8
0
 10
142.573
 20
49.8408
 30
0.0
 40
0.2
 41
0.2
  0
VERTEX
  8
0
 10
142.573
 20
52.8408
 30
0.0
 40
0.2
 41
0.2
  0
VERTEX
  8
0
 10
142.573
 20
52.8588
 30
0.0
 40
0.2
 41
0.2
  0
VERTEX
  8
0
 10
142.543
 20
52.9124
 30
0.0
 40
0.2
 41
0.2
  0
VERTEX
  8
0
 10
142.489
 20
52.9414
 30
0.0
 40
0.2
 41
0.2
  0
VERTEX
  8
0
 10
142.472
 20
52.9414
 30
0.0
 40
0.2
 41
0.2
  0
SEQEND
 8
0
  0
POLYLINE
  8
0
 62
     0
 66
     1
 10
0
 20
0
 30
0.0
 40
0.566929
 41
0.566929
  0
VERTEX
  8
0
 10
142.472
 20
52.9414
 30
0.0
 40
0.2
 41
0.2
  0
VERTEX
  8
0
 10
139.472
 20
52.9414
 30
0.0
 40
0.2
 41
0.2
  0
SEQEND
 8
0
  0
POLYLINE
  8
0
 62
     0
 66
     1
 10
0
 20
0
 30
0.0
 40
0.566929
 41
0.566929
  0
VERTEX
  8
0
 10
139.472
 20
52.9414
 30
0.0
 40
0.2
 41
0.2
  0
VERTEX
  8
0
 10
132.472
 20
52.9414
 30
0.0
 40
0.2
 41
0.2
  0
SEQEND
 8
0
  0
POLYLINE
  8
0
 62
     0
 66
     1
 10
0
 20
0
 30
0.0
 40
0.566929
 41
0.566929
  0
VERTEX
  8
0
 10
132.472
 20
52.9414
 30
0.0
 40
0.2
 41
0.2
  0
VERTEX
  8
0
 10
132.454
 20
52.9414
 30
0.0
 40
0.2
 41
0.2
  0
VERTEX
  8
0
 10
132.401
 20
52.9124
 30
0.0
 40
0.2
 41
0.2
  0
VERTEX
  8
0
 10
132.372
 20
52.8588
 30
0.0
 40
0.2
 41
0.2
  0
VERTEX
  8
0
 10
132.372
 20
52.8408
 30
0.0
 40
0.2
 41
0.2
  0
SEQEND
 8
0
  0
POLYLINE
  8
0
 62
     0
 66
     1
 10
0
 20
0
 30
0.0
 40
0.566929
 41
0.566929
  0
VERTEX
  8
0
 10
132.372
 20
52.8408
 30
0.0
 40
0.2
 41
0.2
  0
VERTEX
  8
0
 10
132.372
 20
49.8408
 30
0.0
 40
0.2
 41
0.2
  0
VERTEX
  8
0
 10
132.372
 20
49.8588
 30
0.0
 40
0.2
 41
0.2
  0
VERTEX
  8
0
 10
132.401
 20
49.9124
 30
0.0
 40
0.2
 41
0.2
  0
VERTEX
  8
0
 10
132.454
 20
49.9413
 30
0.0
 40
0.2
 41
0.2
  0
VERTEX
  8
0
 10
132.472
 20
49.9413
 30
0.0
 40
0.2
 41
0.2
  0
SEQEND
 8
0
  0
POLYLINE
  8
0
 62
     0
 66
     1
 10
0
 20
0
 30
0.0
 40
0.566929
 41
0.566929
  0
VERTEX
  8
0
 10
132.472
 20
49.9413
 30
0.0
 40
0.2
 41
0.2
  0
VERTEX
  8
0
 10
126.472
 20
49.9413
 30
0.0
 40
0.2
 41
0.2
  0
VERTEX
  8
0
 10
126.489
 20
49.9413
 30
0.0
 40
0.2
 41
0.2
  0
VERTEX
  8
0
 10
126.542
 20
49.9124
 30
0.0
 40
0.2
 41
0.2
  0
VERTEX
  8
0
 10
126.573
 20
49.8588
 30
0.0
 40
0.2
 41
0.2
  0
VERTEX
  8
0
 10
126.573
 20
49.8408
 30
0.0
 40
0.2
 41
0.2
  0
SEQEND
 8
0
  0
POLYLINE
  8
0
 62
     0
 66
     1
 10
0
 20
0
 30
0.0
 40
0.566929
 41
0.566929
  0
VERTEX
  8
0
 10
126.573
 20
49.8408
 30
0.0
 40
0.2
 41
0.2
  0
VERTEX
  8
0
 10
126.573
 20
52.8408
 30
0.0
 40
0.2
 41
0.2
  0
VERTEX
  8
0
 10
126.573
 20
52.8588
 30
0.0
 40
0.2
 41
0.2
  0
VERTEX
  8
0
 10
126.542
 20
52.9124
 30
0.0
 40
0.2
 41
0.2
  0
VERTEX
  8
0
 10
126.489
 20
52.9414
 30
0.0
 40
0.2
 41
0.2
  0
VERTEX
  8
0
 10
126.472
 20
52.9414
 30
0.0
 40
0.2
 41
0.2
  0
SEQEND
 8
0
  0
POLYLINE
  8
0
 62
     0
 66
     1
 10
0
 20
0
 30
0.0
 40
0.566929
 41
0.566929
  0
VERTEX
  8
0
 10
126.472
 20
52.9414
 30
0.0
 40
0.2
 41
0.2
  0
VERTEX
  8
0
 10
120.472
 20
52.9414
 30
0.0
 40
0.2
 41
0.2
  0
SEQEND
 8
0
  0
POLYLINE
  8
0
 62
     0
 66
     1
 10
0
 20
0
 30
0.0
 40
0.566929
 41
0.566929
  0
VERTEX
  8
0
 10
120.472
 20
52.9414
 30
0.0
 40
0.2
 41
0.2
  0
VERTEX
  8
0
 10
120.454
 20
52.9414
 30
0.0
 40
0.2
 41
0.2
  0
VERTEX
  8
0
 10
120.401
 20
52.9124
 30
0.0
 40
0.2
 41
0.2
  0
VERTEX
  8
0
 10
120.372
 20
52.8588
 30
0.0
 40
0.2
 41
0.2
  0
VERTEX
  8
0
 10
120.372
 20
52.8408
 30
0.0
 40
0.2
 41
0.2
  0
SEQEND
 8
0
  0
POLYLINE
  8
0
 62
     0
 66
     1
 10
0
 20
0
 30
0.0
 40
0.566929
 41
0.566929
  0
VERTEX
  8
0
 10
120.372
 20
52.8408
 30
0.0
 40
0.2
 41
0.2
  0
VERTEX
  8
0
 10
120.372
 20
49.8408
 30
0.0
 40
0.2
 41
0.2
  0
VERTEX
  8
0
 10
120.372
 20
49.8588
 30
0.0
 40
0.2
 41
0.2
  0
VERTEX
  8
0
 10
120.401
 20
49.9124
 30
0.0
 40
0.2
 41
0.2
  0
VERTEX
  8
0
 10
120.454
 20
49.9413
 30
0.0
 40
0.2
 41
0.2
  0
VERTEX
  8
0
 10
120.472
 20
49.9413
 30
0.0
 40
0.2
 41
0.2
  0
SEQEND
 8
0
  0
POLYLINE
  8
0
 62
     0
 66
     1
 10
0
 20
0
 30
0.0
 40
0.566929
 41
0.566929
  0
VERTEX
  8
0
 10
120.472
 20
49.9413
 30
0.0
 40
0.2
 41
0.2
  0
VERTEX
  8
0
 10
114.472
 20
49.9413
 30
0.0
 40
0.2
 41
0.2
  0
VERTEX
  8
0
 10
114.489
 20
49.9413
 30
0.0
 40
0.2
 41
0.2
  0
VERTEX
  8
0
 10
114.543
 20
49.9124
 30
0.0
 40
0.2
 41
0.2
  0
VERTEX
  8
0
 10
114.573
 20
49.8588
 30
0.0
 40
0.2
 41
0.2
  0
VERTEX
  8
0
 10
114.573
 20
49.8408
 30
0.0
 40
0.2
 41
0.2
  0
SEQEND
 8
0
  0
POLYLINE
  8
0
 62
     0
 66
     1
 10
0
 20
0
 30
0.0
 40
0.566929
 41
0.566929
  0
VERTEX
  8
0
 10
114.573
 20
49.8408
 30
0.0
 40
0.2
 41
0.2
  0
VERTEX
  8
0
 10
114.573
 20
52.8408
 30
0.0
 40
0.2
 41
0.2
  0
VERTEX
  8
0
 10
114.573
 20
52.8588
 30
0.0
 40
0.2
 41
0.2
  0
VERTEX
  8
0
 10
114.543
 20
52.9124
 30
0.0
 40
0.2
 41
0.2
  0
VERTEX
  8
0
 10
114.489
 20
52.9414
 30
0.0
 40
0.2
 41
0.2
  0
VERTEX
  8
0
 10
114.472
 20
52.9414
 30
0.0
 40
0.2
 41
0.2
  0
SEQEND
 8
0
  0
POLYLINE
  8
0
 62
     0
 66
     1
 10
0
 20
0
 30
0.0
 40
0.566929
 41
0.566929
  0
VERTEX
  8
0
 10
114.472
 20
52.9414
 30
0.0
 40
0.2
 41
0.2
  0
VERTEX
  8
0
 10
108.472
 20
52.9414
 30
0.0
 40
0.2
 41
0.2
  0
SEQEND
 8
0
  0
POLYLINE
  8
0
 62
     0
 66
     1
 10
0
 20
0
 30
0.0
 40
0.566929
 41
0.566929
  0
VERTEX
  8
0
 10
108.472
 20
52.9414
 30
0.0
 40
0.2
 41
0.2
  0
VERTEX
  8
0
 10
108.454
 20
52.9414
 30
0.0
 40
0.2
 41
0.2
  0
VERTEX
  8
0
 10
108.401
 20
52.9124
 30
0.0
 40
0.2
 41
0.2
  0
VERTEX
  8
0
 10
108.372
 20
52.8588
 30
0.0
 40
0.2
 41
0.2
  0
VERTEX
  8
0
 10
108.372
 20
52.8408
 30
0.0
 40
0.2
 41
0.2
  0
SEQEND
 8
0
  0
POLYLINE
  8
0
 62
     0
 66
     1
 10
0
 20
0
 30
0.0
 40
0.566929
 41
0.566929
  0
VERTEX
  8
0
 10
108.372
 20
52.8408
 30
0.0
 40
0.2
 41
0.2
  0
VERTEX
  8
0
 10
108.372
 20
49.8408
 30
0.0
 40
0.2
 41
0.2
  0
VERTEX
  8
0
 10
108.372
 20
49.8588
 30
0.0
 40
0.2
 41
0.2
  0
VERTEX
  8
0
 10
108.401
 20
49.9124
 30
0.0
 40
0.2
 41
0.2
  0
VERTEX
  8
0
 10
108.454
 20
49.9413
 30
0.0
 40
0.2
 41
0.2
  0
VERTEX
  8
0
 10
108.472
 20
49.9413
 30
0.0
 40
0.2
 41
0.2
  0
SEQEND
 8
0
  0
POLYLINE
  8
0
 62
     0
 66
     1
 10
0
 20
0
 30
0.0
 40
0.566929
 41
0.566929
  0
VERTEX
  8
0
 10
108.472
 20
49.9413
 30
0.0
 40
0.2
 41
0.2
  0
VERTEX
  8
0
 10
102.472
 20
49.9413
 30
0.0
 40
0.2
 41
0.2
  0
VERTEX
  8
0
 10
102.489
 20
49.9413
 30
0.0
 40
0.2
 41
0.2
  0
VERTEX
  8
0
 10
102.543
 20
49.9124
 30
0.0
 40
0.2
 41
0.2
  0
VERTEX
  8
0
 10
102.573
 20
49.8588
 30
0.0
 40
0.2
 41
0.2
  0
VERTEX
  8
0
 10
102.573
 20
49.8408
 30
0.0
 40
0.2
 41
0.2
  0
SEQEND
 8
0
  0
POLYLINE
  8
0
 62
     0
 66
     1
 10
0
 20
0
 30
0.0
 40
0.566929
 41
0.566929
  0
VERTEX
  8
0
 10
102.573
 20
49.8408
 30
0.0
 40
0.2
 41
0.2
  0
VERTEX
  8
0
 10
102.573
 20
52.8408
 30
0.0
 40
0.2
 41
0.2
  0
VERTEX
  8
0
 10
102.573
 20
52.8588
 30
0.0
 40
0.2
 41
0.2
  0
VERTEX
  8
0
 10
102.543
 20
52.9124
 30
0.0
 40
0.2
 41
0.2
  0
VERTEX
  8
0
 10
102.489
 20
52.9414
 30
0.0
 40
0.2
 41
0.2
  0
VERTEX
  8
0
 10
102.472
 20
52.9414
 30
0.0
 40
0.2
 41
0.2
  0
SEQEND
 8
0
  0
POLYLINE
  8
0
 62
     0
 66
     1
 10
0
 20
0
 30
0.0
 40
0.566929
 41
0.566929
  0
VERTEX
  8
0
 10
102.472
 20
52.9414
 30
0.0
 40
0.2
 41
0.2
  0
VERTEX
  8
0
 10
95.4719
 20
52.9414
 30
0.0
 40
0.2
 41
0.2
  0
SEQEND
 8
0
  0
POLYLINE
  8
0
 62
     0
 66
     1
 10
0
 20
0
 30
0.0
 40
0.566929
 41
0.566929
  0
VERTEX
  8
0
 10
95.4719
 20
52.9414
 30
0.0
 40
0.2
 41
0.2
  0
VERTEX
  8
0
 10
92.4719
 20
52.9414
 30
0.0
 40
0.2
 41
0.2
  0
VERTEX
  8
0
 10
92.4539
 20
52.9414
 30
0.0
 40
0.2
 41
0.2
  0
VERTEX
  8
0
 10
92.4003
 20
52.9124
 30
0.0
 40
0.2
 41
0.2
  0
VERTEX
  8
0
 10
92.3713
 20
52.8588
 30
0.0
 40
0.2
 41
0.2
  0
VERTEX
  8
0
 10
92.3713
 20
52.8408
 30
0.0
 40
0.2
 41
0.2
  0
SEQEND
 8
0
  0
POLYLINE
  8
0
 62
     0
 66
     1
 10
0
 20
0
 30
0.0
 40
0.566929
 41
0.566929
  0
VERTEX
  8
0
 10
92.3713
 20
52.8408
 30
0.0
 40
0.2
 41
0.2
  0
VERTEX
  8
0
 10
92.3713
 20
49.8408
 30
0.0
 40
0.2
 41
0.2
  0
SEQEND
 8
0
  0
POLYLINE
  8
0
 62
     0
 66
     1
 10
0
 20
0
 30
0.0
 40
0.566929
 41
0.566929
  0
VERTEX
  8
0
 10
92.3713
 20
49.8408
 30
0.0
 40
0.2
 41
0.2
  0
VERTEX
  8
0
 10
92.3713
 20
41.8412
 30
0.0
 40
0.2
 41
0.2
  0
SEQEND
 8
0
  0
POLYLINE
  8
0
 62
     0
 66
     1
 10
0
 20
0
 30
0.0
 40
0.566929
 41
0.566929
  0
VERTEX
  8
0
 10
92.3713
 20
41.8412
 30
0.0
 40
0.2
 41
0.2
  0
VERTEX
  8
0
 10
92.3713
 20
41.825
 30
0.0
 40
0.2
 41
0.2
  0
VERTEX
  8
0
 10
92.4003
 20
41.771
 30
0.0
 40
0.2
 41
0.2
  0
VERTEX
  8
0
 10
92.4539
 20
41.7407
 30
0.0
 40
0.2
 41
0.2
  0
VERTEX
  8
0
 10
92.4719
 20
41.7407
 30
0.0
 40
0.2
 41
0.2
  0
SEQEND
 8
0
  0
POLYLINE
  8
0
 62
     0
 66
     1
 10
0
 20
0
 30
0.0
 40
0.566929
 41
0.566929
  0
VERTEX
  8
0
 10
92.4719
 20
41.7407
 30
0.0
 40
0.2
 41
0.2
  0
VERTEX
  8
0
 10
95.4719
 20
41.7407
 30
0.0
 40
0.2
 41
0.2
  0
VERTEX
  8
0
 10
95.4539
 20
41.7407
 30
0.0
 40
0.2
 41
0.2
  0
VERTEX
  8
0
 10
95.4003
 20
41.771
 30
0.0
 40
0.2
 41
0.2
  0
VERTEX
  8
0
 10
95.3714
 20
41.825
 30
0.0
 40
0.2
 41
0.2
  0
VERTEX
  8
0
 10
95.3714
 20
41.8412
 30
0.0
 40
0.2
 41
0.2
  0
SEQEND
 8
0
  0
POLYLINE
  8
0
 62
     0
 66
     1
 10
0
 20
0
 30
0.0
 40
0.566929
 41
0.566929
  0
VERTEX
  8
0
 10
95.3714
 20
41.8412
 30
0.0
 40
0.2
 41
0.2
  0
VERTEX
  8
0
 10
95.3714
 20
35.8415
 30
0.0
 40
0.2
 41
0.2
  0
VERTEX
  8
0
 10
95.3714
 20
35.8592
 30
0.0
 40
0.2
 41
0.2
  0
VERTEX
  8
0
 10
95.4003
 20
35.9131
 30
0.0
 40
0.2
 41
0.2
  0
VERTEX
  8
0
 10
95.4539
 20
35.9421
 30
0.0
 40
0.2
 41
0.2
  0
VERTEX
  8
0
 10
95.4719
 20
35.9421
 30
0.0
 40
0.2
 41
0.2
  0
SEQEND
 8
0
  0
POLYLINE
  8
0
 62
     0
 66
     1
 10
0
 20
0
 30
0.0
 40
0.566929
 41
0.566929
  0
VERTEX
  8
0
 10
95.4719
 20
35.9421
 30
0.0
 40
0.2
 41
0.2
  0
VERTEX
  8
0
 10
92.4719
 20
35.9421
 30
0.0
 40
0.2
 41
0.2
  0
VERTEX
  8
0
 10
92.4539
 20
35.9421
 30
0.0
 40
0.2
 41
0.2
  0
VERTEX
  8
0
 10
92.4003
 20
35.9131
 30
0.0
 40
0.2
 41
0.2
  0
VERTEX
  8
0
 10
92.3713
 20
35.8592
 30
0.0
 40
0.2
 41
0.2
  0
VERTEX
  8
0
 10
92.3713
 20
35.8415
 30
0.0
 40
0.2
 41
0.2
  0
SEQEND
 8
0
  0
POLYLINE
  8
0
 62
     0
 66
     1
 10
0
 20
0
 30
0.0
 40
0.566929
 41
0.566929
  0
VERTEX
  8
0
 10
92.3713
 20
35.8415
 30
0.0
 40
0.2
 41
0.2
  0
VERTEX
  8
0
 10
92.3713
 20
29.8414
 30
0.0
 40
0.2
 41
0.2
  0
SEQEND
 8
0
  0
POLYLINE
  8
0
 62
     0
 66
     1
 10
0
 20
0
 30
0.0
 40
0.566929
 41
0.566929
  0
VERTEX
  8
0
 10
92.3713
 20
29.8414
 30
0.0
 40
0.2
 41
0.2
  0
VERTEX
  8
0
 10
92.3713
 20
29.8249
 30
0.0
 40
0.2
 41
0.2
  0
VERTEX
  8
0
 10
92.4003
 20
29.7711
 30
0.0
 40
0.2
 41
0.2
  0
VERTEX
  8
0
 10
92.4539
 20
29.7408
 30
0.0
 40
0.2
 41
0.2
  0
VERTEX
  8
0
 10
92.4719
 20
29.7408
 30
0.0
 40
0.2
 41
0.2
  0
SEQEND
 8
0
  0
POLYLINE
  8
0
 62
     0
 66
     1
 10
0
 20
0
 30
0.0
 40
0.566929
 41
0.566929
  0
VERTEX
  8
0
 10
92.4719
 20
29.7408
 30
0.0
 40
0.2
 41
0.2
  0
VERTEX
  8
0
 10
95.4719
 20
29.7408
 30
0.0
 40
0.2
 41
0.2
  0
VERTEX
  8
0
 10
95.4539
 20
29.7408
 30
0.0
 40
0.2
 41
0.2
  0
VERTEX
  8
0
 10
95.4003
 20
29.7711
 30
0.0
 40
0.2
 41
0.2
  0
VERTEX
  8
0
 10
95.3714
 20
29.8249
 30
0.0
 40
0.2
 41
0.2
  0
VERTEX
  8
0
 10
95.3714
 20
29.8414
 30
0.0
 40
0.2
 41
0.2
  0
SEQEND
 8
0
  0
POLYLINE
  8
0
 62
     0
 66
     1
 10
0
 20
0
 30
0.0
 40
0.566929
 41
0.566929
  0
VERTEX
  8
0
 10
95.3714
 20
29.8414
 30
0.0
 40
0.2
 41
0.2
  0
VERTEX
  8
0
 10
95.3714
 20
23.8414
 30
0.0
 40
0.2
 41
0.2
  0
VERTEX
  8
0
 10
95.3714
 20
23.8593
 30
0.0
 40
0.2
 41
0.2
  0
VERTEX
  8
0
 10
95.4003
 20
23.9131
 30
0.0
 40
0.2
 41
0.2
  0
VERTEX
  8
0
 10
95.4539
 20
23.942
 30
0.0
 40
0.2
 41
0.2
  0
VERTEX
  8
0
 10
95.4719
 20
23.942
 30
0.0
 40
0.2
 41
0.2
  0
SEQEND
 8
0
  0
POLYLINE
  8
0
 62
     0
 66
     1
 10
0
 20
0
 30
0.0
 40
0.566929
 41
0.566929
  0
VERTEX
  8
0
 10
95.4719
 20
23.942
 30
0.0
 40
0.2
 41
0.2
  0
VERTEX
  8
0
 10
92.4719
 20
23.942
 30
0.0
 40
0.2
 41
0.2
  0
VERTEX
  8
0
 10
92.4539
 20
23.942
 30
0.0
 40
0.2
 41
0.2
  0
VERTEX
  8
0
 10
92.4003
 20
23.9131
 30
0.0
 40
0.2
 41
0.2
  0
VERTEX
  8
0
 10
92.3713
 20
23.8593
 30
0.0
 40
0.2
 41
0.2
  0
VERTEX
  8
0
 10
92.3713
 20
23.8414
 30
0.0
 40
0.2
 41
0.2
  0
SEQEND
 8
0
  0
POLYLINE
  8
0
 62
     0
 66
     1
 10
0
 20
0
 30
0.0
 40
0.566929
 41
0.566929
  0
VERTEX
  8
0
 10
92.3713
 20
23.8414
 30
0.0
 40
0.2
 41
0.2
  0
VERTEX
  8
0
 10
92.3713
 20
15.8419
 30
0.0
 40
0.2
 41
0.2
  0
SEQEND
 8
0
  0
POLYLINE
  8
0
 62
     0
 66
     1
 10
0
 20
0
 30
0.0
 40
0.566929
 41
0.566929
  0
VERTEX
  8
0
 10
92.3713
 20
15.8419
 30
0.0
 40
0.2
 41
0.2
  0
VERTEX
  8
0
 10
92.3713
 20
12.8419
 30
0.0
 40
0.2
 41
0.2
  0
VERTEX
  8
0
 10
92.3713
 20
12.8254
 30
0.0
 40
0.2
 41
0.2
  0
VERTEX
  8
0
 10
92.4003
 20
12.7716
 30
0.0
 40
0.2
 41
0.2
  0
VERTEX
  8
0
 10
92.4539
 20
12.7413
 30
0.0
 40
0.2
 41
0.2
  0
VERTEX
  8
0
 10
92.4719
 20
12.7413
 30
0.0
 40
0.2
 41
0.2
  0
SEQEND
 8
0
  0
POLYLINE
  8
0
 62
     0
 66
     1
 10
0
 20
0
 30
0.0
 40
0.566929
 41
0.566929
  0
VERTEX
  8
0
 10
92.4719
 20
12.7413
 30
0.0
 40
0.2
 41
0.2
  0
VERTEX
  8
0
 10
95.4719
 20
12.7413
 30
0.0
 40
0.2
 41
0.2
  0
SEQEND
 8
0
  0
POLYLINE
  8
0
 62
     0
 66
     1
 10
0
 20
0
 30
0.0
 40
0.566929
 41
0.566929
  0
VERTEX
  8
0
 10
147.173
 20
12.7413
 30
0.0
 40
0.2
 41
0.2
  0
VERTEX
  8
0
 10
150.672
 20
12.7413
 30
0.0
 40
0.2
 41
0.2
  0
SEQEND
 8
0
  0
POLYLINE
  8
0
 62
     0
 66
     1
 10
0
 20
0
 30
0.0
 40
0.566929
 41
0.566929
  0
VERTEX
  8
0
 10
150.672
 20
12.7413
 30
0.0
 40
0.2
 41
0.2
  0
VERTEX
  8
0
 10
150.688
 20
12.7413
 30
0.0
 40
0.2
 41
0.2
  0
VERTEX
  8
0
 10
150.742
 20
12.7716
 30
0.0
 40
0.2
 41
0.2
  0
VERTEX
  8
0
 10
150.773
 20
12.8254
 30
0.0
 40
0.2
 41
0.2
  0
VERTEX
  8
0
 10
150.773
 20
12.8419
 30
0.0
 40
0.2
 41
0.2
  0
SEQEND
 8
0
  0
POLYLINE
  8
0
 62
     0
 66
     1
 10
0
 20
0
 30
0.0
 40
0.566929
 41
0.566929
  0
VERTEX
  8
0
 10
150.773
 20
12.8419
 30
0.0
 40
0.2
 41
0.2
  0
VERTEX
  8
0
 10
150.773
 20
15.8419
 30
0.0
 40
0.2
 41
0.2
  0
VERTEX
  8
0
 10
150.773
 20
15.8254
 30
0.0
 40
0.2
 41
0.2
  0
VERTEX
  8
0
 10
150.742
 20
15.7716
 30
0.0
 40
0.2
 41
0.2
  0
VERTEX
  8
0
 10
150.688
 20
15.7413
 30
0.0
 40
0.2
 41
0.2
  0
VERTEX
  8
0
 10
150.672
 20
15.7413
 30
0.0
 40
0.2
 41
0.2
  0
SEQEND
 8
0
  0
POLYLINE
  8
0
 62
     0
 66
     1
 10
0
 20
0
 30
0.0
 40
0.566929
 41
0.566929
  0
VERTEX
  8
0
 10
150.672
 20
15.7413
 30
0.0
 40
0.2
 41
0.2
  0
VERTEX
  8
0
 10
153.672
 20
15.7413
 30
0.0
 40
0.2
 41
0.2
  0
VERTEX
  8
0
 10
153.654
 20
15.7413
 30
0.0
 40
0.2
 41
0.2
  0
VERTEX
  8
0
 10
153.6
 20
15.7716
 30
0.0
 40
0.2
 41
0.2
  0
VERTEX
  8
0
 10
153.571
 20
15.8254
 30
0.0
 40
0.2
 41
0.2
  0
VERTEX
  8
0
 10
153.571
 20
15.8419
 30
0.0
 40
0.2
 41
0.2
  0
SEQEND
 8
0
  0
POLYLINE
  8
0
 62
     0
 66
     1
 10
0
 20
0
 30
0.0
 40
0.566929
 41
0.566929
  0
VERTEX
  8
0
 10
153.571
 20
15.8419
 30
0.0
 40
0.2
 41
0.2
  0
VERTEX
  8
0
 10
153.571
 20
12.8419
 30
0.0
 40
0.2
 41
0.2
  0
VERTEX
  8
0
 10
153.571
 20
12.8254
 30
0.0
 40
0.2
 41
0.2
  0
VERTEX
  8
0
 10
153.6
 20
12.7716
 30
0.0
 40
0.2
 41
0.2
  0
VERTEX
  8
0
 10
153.654
 20
12.7413
 30
0.0
 40
0.2
 41
0.2
  0
VERTEX
  8
0
 10
153.672
 20
12.7413
 30
0.0
 40
0.2
 41
0.2
  0
SEQEND
 8
0
  0
POLYLINE
  8
0
 62
     0
 66
     1
 10
0
 20
0
 30
0.0
 40
0.566929
 41
0.566929
  0
VERTEX
  8
0
 10
153.672
 20
12.7413
 30
0.0
 40
0.2
 41
0.2
  0
VERTEX
  8
0
 10
157.172
 20
12.7413
 30
0.0
 40
0.2
 41
0.2
  0
SEQEND
 8
0
  0
POLYLINE
  8
0
 62
     0
 66
     1
 10
0
 20
0
 30
0.0
 40
0.566929
 41
0.566929
  0
VERTEX
  8
0
 10
157.172
 20
12.7413
 30
0.0
 40
0.2
 41
0.2
  0
VERTEX
  8
0
 10
157.189
 20
12.7413
 30
0.0
 40
0.2
 41
0.2
  0
VERTEX
  8
0
 10
157.243
 20
12.7716
 30
0.0
 40
0.2
 41
0.2
  0
VERTEX
  8
0
 10
157.273
 20
12.8254
 30
0.0
 40
0.2
 41
0.2
  0
VERTEX
  8
0
 10
157.273
 20
12.8419
 30
0.0
 40
0.2
 41
0.2
  0
SEQEND
 8
0
  0
POLYLINE
  8
0
 62
     0
 66
     1
 10
0
 20
0
 30
0.0
 40
0.566929
 41
0.566929
  0
VERTEX
  8
0
 10
157.273
 20
12.8419
 30
0.0
 40
0.2
 41
0.2
  0
VERTEX
  8
0
 10
157.273
 20
15.8419
 30
0.0
 40
0.2
 41
0.2
  0
SEQEND
 8
0
  0
POLYLINE
  8
0
 62
     0
 66
     1
 10
0
 20
0
 30
0.0
 40
0.566929
 41
0.566929
  0
VERTEX
  8
0
 10
157.273
 20
15.8419
 30
0.0
 40
0.2
 41
0.2
  0
VERTEX
  8
0
 10
157.273
 20
57.8418
 30
0.0
 40
0.2
 41
0.2
  0
SEQEND
 8
0
  0
POLYLINE
  8
0
 62
     0
 66
     1
 10
0
 20
0
 30
0.0
 40
0.566929
 41
0.566929
  0
VERTEX
  8
0
 10
157.273
 20
57.8418
 30
0.0
 40
0.2
 41
0.2
  0
VERTEX
  8
0
 10
157.273
 20
60.8418
 30
0.0
 40
0.2
 41
0.2
  0
VERTEX
  8
0
 10
157.273
 20
60.8598
 30
0.0
 40
0.2
 41
0.2
  0
VERTEX
  8
0
 10
157.243
 20
60.9134
 30
0.0
 40
0.2
 41
0.2
  0
VERTEX
  8
0
 10
157.189
 20
60.9424
 30
0.0
 40
0.2
 41
0.2
  0
VERTEX
  8
0
 10
157.172
 20
60.9424
 30
0.0
 40
0.2
 41
0.2
  0
SEQEND
 8
0
  0
POLYLINE
  8
0
 62
     0
 66
     1
 10
0
 20
0
 30
0.0
 40
0.566929
 41
0.566929
  0
VERTEX
  8
0
 10
157.172
 20
60.9424
 30
0.0
 40
0.2
 41
0.2
  0
VERTEX
  8
0
 10
153.672
 20
60.9424
 30
0.0
 40
0.2
 41
0.2
  0
SEQEND
 8
0
  0
POLYLINE
  8
0
 62
     0
 66
     1
 10
0
 20
0
 30
0.0
 40
0.566929
 41
0.566929
  0
VERTEX
  8
0
 10
153.672
 20
60.9424
 30
0.0
 40
0.2
 41
0.2
  0
VERTEX
  8
0
 10
153.654
 20
60.9424
 30
0.0
 40
0.2
 41
0.2
  0
VERTEX
  8
0
 10
153.6
 20
60.9134
 30
0.0
 40
0.2
 41
0.2
  0
VERTEX
  8
0
 10
153.571
 20
60.8598
 30
0.0
 40
0.2
 41
0.2
  0
VERTEX
  8
0
 10
153.571
 20
60.8418
 30
0.0
 40
0.2
 41
0.2
  0
SEQEND
 8
0
  0
POLYLINE
  8
0
 62
     0
 66
     1
 10
0
 20
0
 30
0.0
 40
0.566929
 41
0.566929
  0
VERTEX
  8
0
 10
153.571
 20
60.8418
 30
0.0
 40
0.2
 41
0.2
  0
VERTEX
  8
0
 10
153.571
 20
57.8418
 30
0.0
 40
0.2
 41
0.2
  0
VERTEX
  8
0
 10
153.571
 20
57.8598
 30
0.0
 40
0.2
 41
0.2
  0
VERTEX
  8
0
 10
153.6
 20
57.9134
 30
0.0
 40
0.2
 41
0.2
  0
VERTEX
  8
0
 10
153.654
 20
57.9423
 30
0.0
 40
0.2
 41
0.2
  0
VERTEX
  8
0
 10
153.672
 20
57.9423
 30
0.0
 40
0.2
 41
0.2
  0
SEQEND
 8
0
  0
POLYLINE
  8
0
 62
     0
 66
     1
 10
0
 20
0
 30
0.0
 40
0.566929
 41
0.566929
  0
VERTEX
  8
0
 10
153.672
 20
57.9423
 30
0.0
 40
0.2
 41
0.2
  0
VERTEX
  8
0
 10
150.672
 20
57.9423
 30
0.0
 40
0.2
 41
0.2
  0
VERTEX
  8
0
 10
150.688
 20
57.9423
 30
0.0
 40
0.2
 41
0.2
  0
VERTEX
  8
0
 10
150.742
 20
57.9134
 30
0.0
 40
0.2
 41
0.2
  0
VERTEX
  8
0
 10
150.773
 20
57.8598
 30
0.0
 40
0.2
 41
0.2
  0
VERTEX
  8
0
 10
150.773
 20
57.8418
 30
0.0
 40
0.2
 41
0.2
  0
SEQEND
 8
0
  0
POLYLINE
  8
0
 62
     0
 66
     1
 10
0
 20
0
 30
0.0
 40
0.566929
 41
0.566929
  0
VERTEX
  8
0
 10
150.773
 20
57.8418
 30
0.0
 40
0.2
 41
0.2
  0
VERTEX
  8
0
 10
150.773
 20
60.8418
 30
0.0
 40
0.2
 41
0.2
  0
VERTEX
  8
0
 10
150.773
 20
60.8598
 30
0.0
 40
0.2
 41
0.2
  0
VERTEX
  8
0
 10
150.742
 20
60.9134
 30
0.0
 40
0.2
 41
0.2
  0
VERTEX
  8
0
 10
150.688
 20
60.9424
 30
0.0
 40
0.2
 41
0.2
  0
VERTEX
  8
0
 10
150.672
 20
60.9424
 30
0.0
 40
0.2
 41
0.2
  0
SEQEND
 8
0
  0
POLYLINE
  8
0
 62
     0
 66
     1
 10
0
 20
0
 30
0.0
 40
0.566929
 41
0.566929
  0
VERTEX
  8
0
 10
150.672
 20
60.9424
 30
0.0
 40
0.2
 41
0.2
  0
VERTEX
  8
0
 10
147.172
 20
60.9424
 30
0.0
 40
0.2
 41
0.2
  0
SEQEND
 8
0
  0
POLYLINE
  8
0
 62
     0
 66
     1
 10
0
 20
0
 30
0.0
 40
0.566929
 41
0.566929
  0
VERTEX
  8
0
 10
147.172
 20
60.9424
 30
0.0
 40
0.2
 41
0.2
  0
VERTEX
  8
0
 10
144.172
 20
60.9424
 30
0.0
 40
0.2
 41
0.2
  0
VERTEX
  8
0
 10
144.154
 20
60.9424
 30
0.0
 40
0.2
 41
0.2
  0
VERTEX
  8
0
 10
144.1
 20
60.9134
 30
0.0
 40
0.2
 41
0.2
  0
VERTEX
  8
0
 10
144.071
 20
60.8598
 30
0.0
 40
0.2
 41
0.2
  0
VERTEX
  8
0
 10
144.071
 20
60.8418
 30
0.0
 40
0.2
 41
0.2
  0
SEQEND
 8
0
  0
POLYLINE
  8
0
 62
     0
 66
     1
 10
0
 20
0
 30
0.0
 40
0.566929
 41
0.566929
  0
VERTEX
  8
0
 10
144.071
 20
60.8418
 30
0.0
 40
0.2
 41
0.2
  0
VERTEX
  8
0
 10
144.071
 20
57.8418
 30
0.0
 40
0.2
 41
0.2
  0
SEQEND
 8
0
  0
POLYLINE
  8
0
 62
     0
 66
     1
 10
0
 20
0
 30
0.0
 40
0.566929
 41
0.566929
  0
VERTEX
  8
0
 10
144.071
 20
57.8418
 30
0.0
 40
0.2
 41
0.2
  0
VERTEX
  8
0
 10
144.071
 20
51.8418
 30
0.0
 40
0.2
 41
0.2
  0
SEQEND
 8
0
  0
POLYLINE
  8
0
 62
     0
 66
     1
 10
0
 20
0
 30
0.0
 40
0.566929
 41
0.566929
  0
VERTEX
  8
0
 10
144.071
 20
51.8418
 30
0.0
 40
0.2
 41
0.2
  0
VERTEX
  8
0
 10
144.071
 20
51.8252
 30
0.0
 40
0.2
 41
0.2
  0
VERTEX
  8
0
 10
144.1
 20
51.7715
 30
0.0
 40
0.2
 41
0.2
  0
VERTEX
  8
0
 10
144.154
 20
51.7412
 30
0.0
 40
0.2
 41
0.2
  0
VERTEX
  8
0
 10
144.172
 20
51.7412
 30
0.0
 40
0.2
 41
0.2
  0
SEQEND
 8
0
  0
POLYLINE
  8
0
 62
     0
 66
     1
 10
0
 20
0
 30
0.0
 40
0.566929
 41
0.566929
  0
VERTEX
  8
0
 10
144.172
 20
51.7412
 30
0.0
 40
0.2
 41
0.2
  0
VERTEX
  8
0
 10
147.172
 20
51.7412
 30
0.0
 40
0.2
 41
0.2
  0
VERTEX
  8
0
 10
147.154
 20
51.7412
 30
0.0
 40
0.2
 41
0.2
  0
VERTEX
  8
0
 10
147.1
 20
51.7715
 30
0.0
 40
0.2
 41
0.2
  0
VERTEX
  8
0
 10
147.071
 20
51.8252
 30
0.0
 40
0.2
 41
0.2
  0
VERTEX
  8
0
 10
147.071
 20
51.8418
 30
0.0
 40
0.2
 41
0.2
  0
SEQEND
 8
0
  0
POLYLINE
  8
0
 62
     0
 66
     1
 10
0
 20
0
 30
0.0
 40
0.566929
 41
0.566929
  0
VERTEX
  8
0
 10
147.071
 20
51.8418
 30
0.0
 40
0.2
 41
0.2
  0
VERTEX
  8
0
 10
147.071
 20
45.8417
 30
0.0
 40
0.2
 41
0.2
  0
VERTEX
  8
0
 10
147.071
 20
45.8597
 30
0.0
 40
0.2
 41
0.2
  0
VERTEX
  8
0
 10
147.1
 20
45.9133
 30
0.0
 40
0.2
 41
0.2
  0
VERTEX
  8
0
 10
147.154
 20
45.9422
 30
0.0
 40
0.2
 41
0.2
  0
VERTEX
  8
0
 10
147.172
 20
45.9422
 30
0.0
 40
0.2
 41
0.2
  0
SEQEND
 8
0
  0
POLYLINE
  8
0
 62
     0
 66
     1
 10
0
 20
0
 30
0.0
 40
0.566929
 41
0.566929
  0
VERTEX
  8
0
 10
147.172
 20
45.9422
 30
0.0
 40
0.2
 41
0.2
  0
VERTEX
  8
0
 10
144.172
 20
45.9422
 30
0.0
 40
0.2
 41
0.2
  0
VERTEX
  8
0
 10
144.154
 20
45.9422
 30
0.0
 40
0.2
 41
0.2
  0
VERTEX
  8
0
 10
144.1
 20
45.9133
 30
0.0
 40
0.2
 41
0.2
  0
VERTEX
  8
0
 10
144.071
 20
45.8597
 30
0.0
 40
0.2
 41
0.2
  0
VERTEX
  8
0
 10
144.071
 20
45.8417
 30
0.0
 40
0.2
 41
0.2
  0
SEQEND
 8
0
  0
POLYLINE
  8
0
 62
     0
 66
     1
 10
0
 20
0
 30
0.0
 40
0.566929
 41
0.566929
  0
VERTEX
  8
0
 10
144.071
 20
45.8417
 30
0.0
 40
0.2
 41
0.2
  0
VERTEX
  8
0
 10
144.071
 20
39.842
 30
0.0
 40
0.2
 41
0.2
  0
SEQEND
 8
0
  0
POLYLINE
  8
0
 62
     0
 66
     1
 10
0
 20
0
 30
0.0
 40
0.566929
 41
0.566929
  0
VERTEX
  8
0
 10
144.071
 20
39.842
 30
0.0
 40
0.2
 41
0.2
  0
VERTEX
  8
0
 10
144.071
 20
39.8254
 30
0.0
 40
0.2
 41
0.2
  0
VERTEX
  8
0
 10
144.1
 20
39.7715
 30
0.0
 40
0.2
 41
0.2
  0
VERTEX
  8
0
 10
144.154
 20
39.7411
 30
0.0
 40
0.2
 41
0.2
  0
VERTEX
  8
0
 10
144.172
 20
39.7411
 30
0.0
 40
0.2
 41
0.2
  0
SEQEND
 8
0
  0
POLYLINE
  8
0
 62
     0
 66
     1
 10
0
 20
0
 30
0.0
 40
0.566929
 41
0.566929
  0
VERTEX
  8
0
 10
144.172
 20
39.7411
 30
0.0
 40
0.2
 41
0.2
  0
VERTEX
  8
0
 10
147.172
 20
39.7411
 30
0.0
 40
0.2
 41
0.2
  0
VERTEX
  8
0
 10
147.154
 20
39.7411
 30
0.0
 40
0.2
 41
0.2
  0
VERTEX
  8
0
 10
147.1
 20
39.7715
 30
0.0
 40
0.2
 41
0.2
  0
VERTEX
  8
0
 10
147.071
 20
39.8254
 30
0.0
 40
0.2
 41
0.2
  0
VERTEX
  8
0
 10
147.071
 20
39.842
 30
0.0
 40
0.2
 41
0.2
  0
SEQEND
 8
0
  0
POLYLINE
  8
0
 62
     0
 66
     1
 10
0
 20
0
 30
0.0
 40
0.566929
 41
0.566929
  0
VERTEX
  8
0
 10
147.071
 20
39.842
 30
0.0
 40
0.2
 41
0.2
  0
VERTEX
  8
0
 10
147.071
 20
33.8419
 30
0.0
 40
0.2
 41
0.2
  0
VERTEX
  8
0
 10
147.071
 20
33.8598
 30
0.0
 40
0.2
 41
0.2
  0
VERTEX
  8
0
 10
147.1
 20
33.9135
 30
0.0
 40
0.2
 41
0.2
  0
VERTEX
  8
0
 10
147.154
 20
33.9424
 30
0.0
 40
0.2
 41
0.2
  0
VERTEX
  8
0
 10
147.172
 20
33.9424
 30
0.0
 40
0.2
 41
0.2
  0
SEQEND
 8
0
  0
POLYLINE
  8
0
 62
     0
 66
     1
 10
0
 20
0
 30
0.0
 40
0.566929
 41
0.566929
  0
VERTEX
  8
0
 10
147.172
 20
33.9424
 30
0.0
 40
0.2
 41
0.2
  0
VERTEX
  8
0
 10
144.172
 20
33.9424
 30
0.0
 40
0.2
 41
0.2
  0
VERTEX
  8
0
 10
144.154
 20
33.9424
 30
0.0
 40
0.2
 41
0.2
  0
VERTEX
  8
0
 10
144.1
 20
33.9135
 30
0.0
 40
0.2
 41
0.2
  0
VERTEX
  8
0
 10
144.071
 20
33.8598
 30
0.0
 40
0.2
 41
0.2
  0
VERTEX
  8
0
 10
144.071
 20
33.8419
 30
0.0
 40
0.2
 41
0.2
  0
SEQEND
 8
0
  0
POLYLINE
  8
0
 62
     0
 66
     1
 10
0
 20
0
 30
0.0
 40
0.566929
 41
0.566929
  0
VERTEX
  8
0
 10
144.071
 20
33.8419
 30
0.0
 40
0.2
 41
0.2
  0
VERTEX
  8
0
 10
144.071
 20
27.8419
 30
0.0
 40
0.2
 41
0.2
  0
SEQEND
 8
0
  0
POLYLINE
  8
0
 62
     0
 66
     1
 10
0
 20
0
 30
0.0
 40
0.566929
 41
0.566929
  0
VERTEX
  8
0
 10
144.071
 20
27.8419
 30
0.0
 40
0.2
 41
0.2
  0
VERTEX
  8
0
 10
144.071
 20
27.8253
 30
0.0
 40
0.2
 41
0.2
  0
VERTEX
  8
0
 10
144.1
 20
27.7716
 30
0.0
 40
0.2
 41
0.2
  0
VERTEX
  8
0
 10
144.154
 20
27.7413
 30
0.0
 40
0.2
 41
0.2
  0
VERTEX
  8
0
 10
144.172
 20
27.7413
 30
0.0
 40
0.2
 41
0.2
  0
SEQEND
 8
0
  0
POLYLINE
  8
0
 62
     0
 66
     1
 10
0
 20
0
 30
0.0
 40
0.566929
 41
0.566929
  0
VERTEX
  8
0
 10
144.172
 20
27.7413
 30
0.0
 40
0.2
 41
0.2
  0
VERTEX
  8
0
 10
147.172
 20
27.7413
 30
0.0
 40
0.2
 41
0.2
  0
VERTEX
  8
0
 10
147.154
 20
27.7413
 30
0.0
 40
0.2
 41
0.2
  0
VERTEX
  8
0
 10
147.1
 20
27.7716
 30
0.0
 40
0.2
 41
0.2
  0
VERTEX
  8
0
 10
147.071
 20
27.8253
 30
0.0
 40
0.2
 41
0.2
  0
VERTEX
  8
0
 10
147.071
 20
27.8419
 30
0.0
 40
0.2
 41
0.2
  0
SEQEND
 8
0
  0
POLYLINE
  8
0
 62
     0
 66
     1
 10
0
 20
0
 30
0.0
 40
0.566929
 41
0.566929
  0
VERTEX
  8
0
 10
147.071
 20
27.8419
 30
0.0
 40
0.2
 41
0.2
  0
VERTEX
  8
0
 10
147.071
 20
21.8419
 30
0.0
 40
0.2
 41
0.2
  0
VERTEX
  8
0
 10
147.071
 20
21.8598
 30
0.0
 40
0.2
 41
0.2
  0
VERTEX
  8
0
 10
147.1
 20
21.9136
 30
0.0
 40
0.2
 41
0.2
  0
VERTEX
  8
0
 10
147.154
 20
21.9425
 30
0.0
 40
0.2
 41
0.2
  0
VERTEX
  8
0
 10
147.172
 20
21.9425
 30
0.0
 40
0.2
 41
0.2
  0
SEQEND
 8
0
  0
POLYLINE
  8
0
 62
     0
 66
     1
 10
0
 20
0
 30
0.0
 40
0.566929
 41
0.566929
  0
VERTEX
  8
0
 10
147.172
 20
21.9425
 30
0.0
 40
0.2
 41
0.2
  0
VERTEX
  8
0
 10
144.172
 20
21.9425
 30
0.0
 40
0.2
 41
0.2
  0
VERTEX
  8
0
 10
144.154
 20
21.9425
 30
0.0
 40
0.2
 41
0.2
  0
VERTEX
  8
0
 10
144.1
 20
21.9136
 30
0.0
 40
0.2
 41
0.2
  0
VERTEX
  8
0
 10
144.071
 20
21.8598
 30
0.0
 40
0.2
 41
0.2
  0
VERTEX
  8
0
 10
144.071
 20
21.8419
 30
0.0
 40
0.2
 41
0.2
  0
SEQEND
 8
0
  0
POLYLINE
  8
0
 62
     0
 66
     1
 10
0
 20
0
 30
0.0
 40
0.566929
 41
0.566929
  0
VERTEX
  8
0
 10
144.071
 20
21.8419
 30
0.0
 40
0.2
 41
0.2
  0
VERTEX
  8
0
 10
144.071
 20
15.8419
 30
0.0
 40
0.2
 41
0.2
  0
SEQEND
 8
0
  0
POLYLINE
  8
0
 62
     0
 66
     1
 10
0
 20
0
 30
0.0
 40
0.566929
 41
0.566929
  0
VERTEX
  8
0
 10
144.071
 20
15.8419
 30
0.0
 40
0.2
 41
0.2
  0
VERTEX
  8
0
 10
144.071
 20
12.8419
 30
0.0
 40
0.2
 41
0.2
  0
VERTEX
  8
0
 10
144.071
 20
12.8254
 30
0.0
 40
0.2
 41
0.2
  0
VERTEX
  8
0
 10
144.1
 20
12.7716
 30
0.0
 40
0.2
 41
0.2
  0
VERTEX
  8
0
 10
144.154
 20
12.7413
 30
0.0
 40
0.2
 41
0.2
  0
VERTEX
  8
0
 10
144.172
 20
12.7413
 30
0.0
 40
0.2
 41
0.2
  0
SEQEND
 8
0
  0
POLYLINE
  8
0
 62
     0
 66
     1
 10
0
 20
0
 30
0.0
 40
0.566929
 41
0.566929
  0
VERTEX
  8
0
 10
144.172
 20
12.7413
 30
0.0
 40
0.2
 41
0.2
  0
VERTEX
  8
0
 10
147.172
 20
12.7413
 30
0.0
 40
0.2
 41
0.2
  0
SEQEND
 8
0
  0
POLYLINE
  8
0
 62
     0
 66
     1
 10
0
 20
0
 30
0.0
 40
0.566929
 41
0.566929
  0
VERTEX
  8
0
 10
158.873
 20
12.7413
 30
0.0
 40
0.2
 41
0.2
  0
VERTEX
  8
0
 10
159.3
 20
12.7413
 30
0.0
 40
0.2
 41
0.2
  0
VERTEX
  8
0
 10
160.586
 20
12.8543
 30
0.0
 40
0.2
 41
0.2
  0
VERTEX
  8
0
 10
162.263
 20
13.1878
 30
0.0
 40
0.2
 41
0.2
  0
VERTEX
  8
0
 10
163.882
 20
13.7377
 30
0.0
 40
0.2
 41
0.2
  0
VERTEX
  8
0
 10
165.052
 20
14.2834
 30
0.0
 40
0.2
 41
0.2
  0
VERTEX
  8
0
 10
165.422
 20
14.497
 30
0.0
 40
0.2
 41
0.2
  0
VERTEX
  8
0
 10
165.608
 20
14.6044
 30
0.0
 40
0.2
 41
0.2
  0
VERTEX
  8
0
 10
166.153
 20
14.9517
 30
0.0
 40
0.2
 41
0.2
  0
VERTEX
  8
0
 10
166.849
 20
15.4519
 30
0.0
 40
0.2
 41
0.2
  0
VERTEX
  8
0
 10
167.51
 20
15.9949
 30
0.0
 40
0.2
 41
0.2
  0
VERTEX
  8
0
 10
168.135
 20
16.5792
 30
0.0
 40
0.2
 41
0.2
  0
VERTEX
  8
0
 10
168.719
 20
17.2034
 30
0.0
 40
0.2
 41
0.2
  0
VERTEX
  8
0
 10
169.263
 20
17.8649
 30
0.0
 40
0.2
 41
0.2
  0
VERTEX
  8
0
 10
169.763
 20
18.5622
 30
0.0
 40
0.2
 41
0.2
  0
VERTEX
  8
0
 10
170.111
 20
19.1065
 30
0.0
 40
0.2
 41
0.2
  0
VERTEX
  8
0
 10
170.218
 20
19.2925
 30
0.0
 40
0.2
 41
0.2
  0
VERTEX
  8
0
 10
170.432
 20
19.6632
 30
0.0
 40
0.2
 41
0.2
  0
VERTEX
  8
0
 10
170.976
 20
20.8332
 30
0.0
 40
0.2
 41
0.2
  0
VERTEX
  8
0
 10
171.526
 20
22.4524
 30
0.0
 40
0.2
 41
0.2
  0
VERTEX
  8
0
 10
171.861
 20
24.1294
 30
0.0
 40
0.2
 41
0.2
  0
VERTEX
  8
0
 10
171.974
 20
25.4152
 30
0.0
 40
0.2
 41
0.2
  0
VERTEX
  8
0
 10
171.974
 20
25.8423
 30
0.0
 40
0.2
 41
0.2
  0
SEQEND
 8
0
  0
POLYLINE
  8
0
 62
     0
 66
     1
 10
0
 20
0
 30
0.0
 40
0.566929
 41
0.566929
  0
VERTEX
  8
0
 10
171.974
 20
25.8423
 30
0.0
 40
0.2
 41
0.2
  0
VERTEX
  8
0
 10
171.974
 20
33.8419
 30
0.0
 40
0.2
 41
0.2
  0
SEQEND
 8
0
  0
POLYLINE
  8
0
 62
     0
 66
     1
 10
0
 20
0
 30
0.0
 40
0.566929
 41
0.566929
  0
VERTEX
  8
0
 10
171.974
 20
33.8419
 30
0.0
 40
0.2
 41
0.2
  0
VERTEX
  8
0
 10
171.974
 20
33.8598
 30
0.0
 40
0.2
 41
0.2
  0
VERTEX
  8
0
 10
171.943
 20
33.9135
 30
0.0
 40
0.2
 41
0.2
  0
VERTEX
  8
0
 10
171.89
 20
33.9424
 30
0.0
 40
0.2
 41
0.2
  0
VERTEX
  8
0
 10
171.873
 20
33.9424
 30
0.0
 40
0.2
 41
0.2
  0
SEQEND
 8
0
  0
POLYLINE
  8
0
 62
     0
 66
     1
 10
0
 20
0
 30
0.0
 40
0.566929
 41
0.566929
  0
VERTEX
  8
0
 10
171.873
 20
33.9424
 30
0.0
 40
0.2
 41
0.2
  0
VERTEX
  8
0
 10
168.873
 20
33.9424
 30
0.0
 40
0.2
 41
0.2
  0
VERTEX
  8
0
 10
168.89
 20
33.9424
 30
0.0
 40
0.2
 41
0.2
  0
VERTEX
  8
0
 10
168.944
 20
33.9135
 30
0.0
 40
0.2
 41
0.2
  0
VERTEX
  8
0
 10
168.974
 20
33.8598
 30
0.0
 40
0.2
 41
0.2
  0
VERTEX
  8
0
 10
168.974
 20
33.8419
 30
0.0
 40
0.2
 41
0.2
  0
SEQEND
 8
0
  0
POLYLINE
  8
0
 62
     0
 66
     1
 10
0
 20
0
 30
0.0
 40
0.566929
 41
0.566929
  0
VERTEX
  8
0
 10
168.974
 20
33.8419
 30
0.0
 40
0.2
 41
0.2
  0
VERTEX
  8
0
 10
168.974
 20
39.842
 30
0.0
 40
0.2
 41
0.2
  0
VERTEX
  8
0
 10
168.974
 20
39.8254
 30
0.0
 40
0.2
 41
0.2
  0
VERTEX
  8
0
 10
168.944
 20
39.7715
 30
0.0
 40
0.2
 41
0.2
  0
VERTEX
  8
0
 10
168.89
 20
39.7411
 30
0.0
 40
0.2
 41
0.2
  0
VERTEX
  8
0
 10
168.873
 20
39.7411
 30
0.0
 40
0.2
 41
0.2
  0
SEQEND
 8
0
  0
POLYLINE
  8
0
 62
     0
 66
     1
 10
0
 20
0
 30
0.0
 40
0.566929
 41
0.566929
  0
VERTEX
  8
0
 10
168.873
 20
39.7411
 30
0.0
 40
0.2
 41
0.2
  0
VERTEX
  8
0
 10
171.873
 20
39.7411
 30
0.0
 40
0.2
 41
0.2
  0
VERTEX
  8
0
 10
171.89
 20
39.7411
 30
0.0
 40
0.2
 41
0.2
  0
VERTEX
  8
0
 10
171.943
 20
39.7715
 30
0.0
 40
0.2
 41
0.2
  0
VERTEX
  8
0
 10
171.974
 20
39.8254
 30
0.0
 40
0.2
 41
0.2
  0
VERTEX
  8
0
 10
171.974
 20
39.842
 30
0.0
 40
0.2
 41
0.2
  0
SEQEND
 8
0
  0
POLYLINE
  8
0
 62
     0
 66
     1
 10
0
 20
0
 30
0.0
 40
0.566929
 41
0.566929
  0
VERTEX
  8
0
 10
171.974
 20
39.842
 30
0.0
 40
0.2
 41
0.2
  0
VERTEX
  8
0
 10
171.974
 20
45.8417
 30
0.0
 40
0.2
 41
0.2
  0
SEQEND
 8
0
  0
POLYLINE
  8
0
 62
     0
 66
     1
 10
0
 20
0
 30
0.0
 40
0.566929
 41
0.566929
  0
VERTEX
  8
0
 10
171.974
 20
45.8417
 30
0.0
 40
0.2
 41
0.2
  0
VERTEX
  8
0
 10
171.974
 20
45.8597
 30
0.0
 40
0.2
 41
0.2
  0
VERTEX
  8
0
 10
171.943
 20
45.9133
 30
0.0
 40
0.2
 41
0.2
  0
VERTEX
  8
0
 10
171.89
 20
45.9422
 30
0.0
 40
0.2
 41
0.2
  0
VERTEX
  8
0
 10
171.873
 20
45.9422
 30
0.0
 40
0.2
 41
0.2
  0
SEQEND
 8
0
  0
POLYLINE
  8
0
 62
     0
 66
     1
 10
0
 20
0
 30
0.0
 40
0.566929
 41
0.566929
  0
VERTEX
  8
0
 10
171.873
 20
45.9422
 30
0.0
 40
0.2
 41
0.2
  0
VERTEX
  8
0
 10
168.873
 20
45.9422
 30
0.0
 40
0.2
 41
0.2
  0
VERTEX
  8
0
 10
168.89
 20
45.9422
 30
0.0
 40
0.2
 41
0.2
  0
VERTEX
  8
0
 10
168.944
 20
45.9133
 30
0.0
 40
0.2
 41
0.2
  0
VERTEX
  8
0
 10
168.974
 20
45.8597
 30
0.0
 40
0.2
 41
0.2
  0
VERTEX
  8
0
 10
168.974
 20
45.8417
 30
0.0
 40
0.2
 41
0.2
  0
SEQEND
 8
0
  0
POLYLINE
  8
0
 62
     0
 66
     1
 10
0
 20
0
 30
0.0
 40
0.566929
 41
0.566929
  0
VERTEX
  8
0
 10
168.974
 20
45.8417
 30
0.0
 40
0.2
 41
0.2
  0
VERTEX
  8
0
 10
168.974
 20
51.8418
 30
0.0
 40
0.2
 41
0.2
  0
VERTEX
  8
0
 10
168.974
 20
51.8252
 30
0.0
 40
0.2
 41
0.2
  0
VERTEX
  8
0
 10
168.944
 20
51.7715
 30
0.0
 40
0.2
 41
0.2
  0
VERTEX
  8
0
 10
168.89
 20
51.7412
 30
0.0
 40
0.2
 41
0.2
  0
VERTEX
  8
0
 10
168.873
 20
51.7412
 30
0.0
 40
0.2
 41
0.2
  0
SEQEND
 8
0
  0
POLYLINE
  8
0
 62
     0
 66
     1
 10
0
 20
0
 30
0.0
 40
0.566929
 41
0.566929
  0
VERTEX
  8
0
 10
168.873
 20
51.7412
 30
0.0
 40
0.2
 41
0.2
  0
VERTEX
  8
0
 10
171.873
 20
51.7412
 30
0.0
 40
0.2
 41
0.2
  0
VERTEX
  8
0
 10
171.89
 20
51.7412
 30
0.0
 40
0.2
 41
0.2
  0
VERTEX
  8
0
 10
171.943
 20
51.7715
 30
0.0
 40
0.2
 41
0.2
  0
VERTEX
  8
0
 10
171.974
 20
51.8252
 30
0.0
 40
0.2
 41
0.2
  0
VERTEX
  8
0
 10
171.974
 20
51.8418
 30
0.0
 40
0.2
 41
0.2
  0
SEQEND
 8
0
  0
POLYLINE
  8
0
 62
     0
 66
     1
 10
0
 20
0
 30
0.0
 40
0.566929
 41
0.566929
  0
VERTEX
  8
0
 10
171.974
 20
51.8418
 30
0.0
 40
0.2
 41
0.2
  0
VERTEX
  8
0
 10
171.974
 20
59.8413
 30
0.0
 40
0.2
 41
0.2
  0
SEQEND
 8
0
  0
POLYLINE
  8
0
 62
     0
 66
     1
 10
0
 20
0
 30
0.0
 40
0.566929
 41
0.566929
  0
VERTEX
  8
0
 10
171.974
 20
59.8413
 30
0.0
 40
0.2
 41
0.2
  0
VERTEX
  8
0
 10
171.974
 20
59.8593
 30
0.0
 40
0.2
 41
0.2
  0
VERTEX
  8
0
 10
171.943
 20
59.913
 30
0.0
 40
0.2
 41
0.2
  0
VERTEX
  8
0
 10
171.89
 20
59.9419
 30
0.0
 40
0.2
 41
0.2
  0
VERTEX
  8
0
 10
171.873
 20
59.9419
 30
0.0
 40
0.2
 41
0.2
  0
SEQEND
 8
0
  0
POLYLINE
  8
0
 62
     0
 66
     1
 10
0
 20
0
 30
0.0
 40
0.566929
 41
0.566929
  0
VERTEX
  8
0
 10
171.873
 20
59.9419
 30
0.0
 40
0.2
 41
0.2
  0
VERTEX
  8
0
 10
168.873
 20
59.9419
 30
0.0
 40
0.2
 41
0.2
  0
SEQEND
 8
0
  0
POLYLINE
  8
0
 62
     0
 66
     1
 10
0
 20
0
 30
0.0
 40
0.566929
 41
0.566929
  0
VERTEX
  8
0
 10
168.873
 20
59.9419
 30
0.0
 40
0.2
 41
0.2
  0
VERTEX
  8
0
 10
165.373
 20
59.9419
 30
0.0
 40
0.2
 41
0.2
  0
SEQEND
 8
0
  0
POLYLINE
  8
0
 62
     0
 66
     1
 10
0
 20
0
 30
0.0
 40
0.566929
 41
0.566929
  0
VERTEX
  8
0
 10
165.373
 20
59.9419
 30
0.0
 40
0.2
 41
0.2
  0
VERTEX
  8
0
 10
165.389
 20
59.9419
 30
0.0
 40
0.2
 41
0.2
  0
VERTEX
  8
0
 10
165.443
 20
59.913
 30
0.0
 40
0.2
 41
0.2
  0
VERTEX
  8
0
 10
165.474
 20
59.8593
 30
0.0
 40
0.2
 41
0.2
  0
VERTEX
  8
0
 10
165.474
 20
59.8413
 30
0.0
 40
0.2
 41
0.2
  0
SEQEND
 8
0
  0
POLYLINE
  8
0
 62
     0
 66
     1
 10
0
 20
0
 30
0.0
 40
0.566929
 41
0.566929
  0
VERTEX
  8
0
 10
165.474
 20
59.8413
 30
0.0
 40
0.2
 41
0.2
  0
VERTEX
  8
0
 10
165.474
 20
62.8414
 30
0.0
 40
0.2
 41
0.2
  0
VERTEX
  8
0
 10
165.474
 20
62.8594
 30
0.0
 40
0.2
 41
0.2
  0
VERTEX
  8
0
 10
165.443
 20
62.913
 30
0.0
 40
0.2
 41
0.2
  0
VERTEX
  8
0
 10
165.389
 20
62.9419
 30
0.0
 40
0.2
 41
0.2
  0
VERTEX
  8
0
 10
165.373
 20
62.9419
 30
0.0
 40
0.2
 41
0.2
  0
SEQEND
 8
0
  0
POLYLINE
  8
0
 62
     0
 66
     1
 10
0
 20
0
 30
0.0
 40
0.566929
 41
0.566929
  0
VERTEX
  8
0
 10
165.373
 20
62.9419
 30
0.0
 40
0.2
 41
0.2
  0
VERTEX
  8
0
 10
162.373
 20
62.9419
 30
0.0
 40
0.2
 41
0.2
  0
VERTEX
  8
0
 10
162.355
 20
62.9419
 30
0.0
 40
0.2
 41
0.2
  0
VERTEX
  8
0
 10
162.301
 20
62.913
 30
0.0
 40
0.2
 41
0.2
  0
VERTEX
  8
0
 10
162.272
 20
62.8594
 30
0.0
 40
0.2
 41
0.2
  0
VERTEX
  8
0
 10
162.272
 20
62.8414
 30
0.0
 40
0.2
 41
0.2
  0
SEQEND
 8
0
  0
POLYLINE
  8
0
 62
     0
 66
     1
 10
0
 20
0
 30
0.0
 40
0.566929
 41
0.566929
  0
VERTEX
  8
0
 10
162.272
 20
62.8414
 30
0.0
 40
0.2
 41
0.2
  0
VERTEX
  8
0
 10
162.272
 20
59.8413
 30
0.0
 40
0.2
 41
0.2
  0
VERTEX
  8
0
 10
162.272
 20
59.8593
 30
0.0
 40
0.2
 41
0.2
  0
VERTEX
  8
0
 10
162.301
 20
59.913
 30
0.0
 40
0.2
 41
0.2
  0
VERTEX
  8
0
 10
162.355
 20
59.9419
 30
0.0
 40
0.2
 41
0.2
  0
VERTEX
  8
0
 10
162.373
 20
59.9419
 30
0.0
 40
0.2
 41
0.2
  0
SEQEND
 8
0
  0
POLYLINE
  8
0
 62
     0
 66
     1
 10
0
 20
0
 30
0.0
 40
0.566929
 41
0.566929
  0
VERTEX
  8
0
 10
162.373
 20
59.9419
 30
0.0
 40
0.2
 41
0.2
  0
VERTEX
  8
0
 10
158.873
 20
59.9419
 30
0.0
 40
0.2
 41
0.2
  0
SEQEND
 8
0
  0
POLYLINE
  8
0
 62
     0
 66
     1
 10
0
 20
0
 30
0.0
 40
0.566929
 41
0.566929
  0
VERTEX
  8
0
 10
158.873
 20
59.9419
 30
0.0
 40
0.2
 41
0.2
  0
VERTEX
  8
0
 10
158.855
 20
59.9419
 30
0.0
 40
0.2
 41
0.2
  0
VERTEX
  8
0
 10
158.801
 20
59.913
 30
0.0
 40
0.2
 41
0.2
  0
VERTEX
  8
0
 10
158.772
 20
59.8593
 30
0.0
 40
0.2
 41
0.2
  0
VERTEX
  8
0
 10
158.772
 20
59.8413
 30
0.0
 40
0.2
 41
0.2
  0
SEQEND
 8
0
  0
POLYLINE
  8
0
 62
     0
 66
     1
 10
0
 20
0
 30
0.0
 40
0.566929
 41
0.566929
  0
VERTEX
  8
0
 10
158.772
 20
59.8413
 30
0.0
 40
0.2
 41
0.2
  0
VERTEX
  8
0
 10
158.772
 20
12.8419
 30
0.0
 40
0.2
 41
0.2
  0
VERTEX
  8
0
 10
158.772
 20
12.8254
 30
0.0
 40
0.2
 41
0.2
  0
VERTEX
  8
0
 10
158.801
 20
12.7716
 30
0.0
 40
0.2
 41
0.2
  0
VERTEX
  8
0
 10
158.855
 20
12.7413
 30
0.0
 40
0.2
 41
0.2
  0
VERTEX
  8
0
 10
158.873
 20
12.7413
 30
0.0
 40
0.2
 41
0.2
  0
SEQEND
 8
0
  0
POLYLINE
  8
0
 62
     0
 66
     1
 10
0
 20
0
 30
0.0
 40
0.566929
 41
0.566929
  0
VERTEX
  8
0
 10
186.573
 20
12.7413
 30
0.0
 40
0.2
 41
0.2
  0
VERTEX
  8
0
 10
186.144
 20
12.7413
 30
0.0
 40
0.2
 41
0.2
  0
VERTEX
  8
0
 10
184.858
 20
12.8543
 30
0.0
 40
0.2
 41
0.2
  0
VERTEX
  8
0
 10
183.181
 20
13.1878
 30
0.0
 40
0.2
 41
0.2
  0
VERTEX
  8
0
 10
181.562
 20
13.7377
 30
0.0
 40
0.2
 41
0.2
  0
VERTEX
  8
0
 10
180.394
 20
14.2834
 30
0.0
 40
0.2
 41
0.2
  0
VERTEX
  8
0
 10
180.023
 20
14.497
 30
0.0
 40
0.2
 41
0.2
  0
VERTEX
  8
0
 10
179.836
 20
14.6044
 30
0.0
 40
0.2
 41
0.2
  0
VERTEX
  8
0
 10
179.291
 20
14.9517
 30
0.0
 40
0.2
 41
0.2
  0
VERTEX
  8
0
 10
178.595
 20
15.4519
 30
0.0
 40
0.2
 41
0.2
  0
VERTEX
  8
0
 10
177.934
 20
15.9949
 30
0.0
 40
0.2
 41
0.2
  0
VERTEX
  8
0
 10
177.309
 20
16.5792
 30
0.0
 40
0.2
 41
0.2
  0
VERTEX
  8
0
 10
176.725
 20
17.2034
 30
0.0
 40
0.2
 41
0.2
  0
VERTEX
  8
0
 10
176.181
 20
17.8649
 30
0.0
 40
0.2
 41
0.2
  0
VERTEX
  8
0
 10
175.682
 20
18.5622
 30
0.0
 40
0.2
 41
0.2
  0
VERTEX
  8
0
 10
175.335
 20
19.1065
 30
0.0
 40
0.2
 41
0.2
  0
VERTEX
  8
0
 10
175.227
 20
19.2925
 30
0.0
 40
0.2
 41
0.2
  0
VERTEX
  8
0
 10
175.012
 20
19.6646
 30
0.0
 40
0.2
 41
0.2
  0
VERTEX
  8
0
 10
174.468
 20
20.8332
 30
0.0
 40
0.2
 41
0.2
  0
VERTEX
  8
0
 10
173.918
 20
22.4524
 30
0.0
 40
0.2
 41
0.2
  0
VERTEX
  8
0
 10
173.583
 20
24.1294
 30
0.0
 40
0.2
 41
0.2
  0
VERTEX
  8
0
 10
173.471
 20
25.4152
 30
0.0
 40
0.2
 41
0.2
  0
VERTEX
  8
0
 10
173.471
 20
25.8423
 30
0.0
 40
0.2
 41
0.2
  0
SEQEND
 8
0
  0
POLYLINE
  8
0
 62
     0
 66
     1
 10
0
 20
0
 30
0.0
 40
0.566929
 41
0.566929
  0
VERTEX
  8
0
 10
173.471
 20
25.8423
 30
0.0
 40
0.2
 41
0.2
  0
VERTEX
  8
0
 10
173.471
 20
33.8419
 30
0.0
 40
0.2
 41
0.2
  0
SEQEND
 8
0
  0
POLYLINE
  8
0
 62
     0
 66
     1
 10
0
 20
0
 30
0.0
 40
0.566929
 41
0.566929
  0
VERTEX
  8
0
 10
173.471
 20
33.8419
 30
0.0
 40
0.2
 41
0.2
  0
VERTEX
  8
0
 10
173.471
 20
33.8598
 30
0.0
 40
0.2
 41
0.2
  0
VERTEX
  8
0
 10
173.501
 20
33.9135
 30
0.0
 40
0.2
 41
0.2
  0
VERTEX
  8
0
 10
173.554
 20
33.9424
 30
0.0
 40
0.2
 41
0.2
  0
VERTEX
  8
0
 10
173.572
 20
33.9424
 30
0.0
 40
0.2
 41
0.2
  0
SEQEND
 8
0
  0
POLYLINE
  8
0
 62
     0
 66
     1
 10
0
 20
0
 30
0.0
 40
0.566929
 41
0.566929
  0
VERTEX
  8
0
 10
173.572
 20
33.9424
 30
0.0
 40
0.2
 41
0.2
  0
VERTEX
  8
0
 10
176.572
 20
33.9424
 30
0.0
 40
0.2
 41
0.2
  0
VERTEX
  8
0
 10
176.554
 20
33.9424
 30
0.0
 40
0.2
 41
0.2
  0
VERTEX
  8
0
 10
176.5
 20
33.9135
 30
0.0
 40
0.2
 41
0.2
  0
VERTEX
  8
0
 10
176.471
 20
33.8598
 30
0.0
 40
0.2
 41
0.2
  0
VERTEX
  8
0
 10
176.471
 20
33.8419
 30
0.0
 40
0.2
 41
0.2
  0
SEQEND
 8
0
  0
POLYLINE
  8
0
 62
     0
 66
     1
 10
0
 20
0
 30
0.0
 40
0.566929
 41
0.566929
  0
VERTEX
  8
0
 10
176.471
 20
33.8419
 30
0.0
 40
0.2
 41
0.2
  0
VERTEX
  8
0
 10
176.471
 20
39.842
 30
0.0
 40
0.2
 41
0.2
  0
VERTEX
  8
0
 10
176.471
 20
39.8254
 30
0.0
 40
0.2
 41
0.2
  0
VERTEX
  8
0
 10
176.5
 20
39.7715
 30
0.0
 40
0.2
 41
0.2
  0
VERTEX
  8
0
 10
176.554
 20
39.7411
 30
0.0
 40
0.2
 41
0.2
  0
VERTEX
  8
0
 10
176.572
 20
39.7411
 30
0.0
 40
0.2
 41
0.2
  0
SEQEND
 8
0
  0
POLYLINE
  8
0
 62
     0
 66
     1
 10
0
 20
0
 30
0.0
 40
0.566929
 41
0.566929
  0
VERTEX
  8
0
 10
176.572
 20
39.7411
 30
0.0
 40
0.2
 41
0.2
  0
VERTEX
  8
0
 10
173.572
 20
39.7411
 30
0.0
 40
0.2
 41
0.2
  0
VERTEX
  8
0
 10
173.554
 20
39.7411
 30
0.0
 40
0.2
 41
0.2
  0
VERTEX
  8
0
 10
173.501
 20
39.7715
 30
0.0
 40
0.2
 41
0.2
  0
VERTEX
  8
0
 10
173.471
 20
39.8254
 30
0.0
 40
0.2
 41
0.2
  0
VERTEX
  8
0
 10
173.471
 20
39.842
 30
0.0
 40
0.2
 41
0.2
  0
SEQEND
 8
0
  0
POLYLINE
  8
0
 62
     0
 66
     1
 10
0
 20
0
 30
0.0
 40
0.566929
 41
0.566929
  0
VERTEX
  8
0
 10
173.471
 20
39.842
 30
0.0
 40
0.2
 41
0.2
  0
VERTEX
  8
0
 10
173.471
 20
45.8417
 30
0.0
 40
0.2
 41
0.2
  0
SEQEND
 8
0
  0
POLYLINE
  8
0
 62
     0
 66
     1
 10
0
 20
0
 30
0.0
 40
0.566929
 41
0.566929
  0
VERTEX
  8
0
 10
173.471
 20
45.8417
 30
0.0
 40
0.2
 41
0.2
  0
VERTEX
  8
0
 10
173.471
 20
45.8597
 30
0.0
 40
0.2
 41
0.2
  0
VERTEX
  8
0
 10
173.501
 20
45.9133
 30
0.0
 40
0.2
 41
0.2
  0
VERTEX
  8
0
 10
173.554
 20
45.9422
 30
0.0
 40
0.2
 41
0.2
  0
VERTEX
  8
0
 10
173.572
 20
45.9422
 30
0.0
 40
0.2
 41
0.2
  0
SEQEND
 8
0
  0
POLYLINE
  8
0
 62
     0
 66
     1
 10
0
 20
0
 30
0.0
 40
0.566929
 41
0.566929
  0
VERTEX
  8
0
 10
173.572
 20
45.9422
 30
0.0
 40
0.2
 41
0.2
  0
VERTEX
  8
0
 10
176.572
 20
45.9422
 30
0.0
 40
0.2
 41
0.2
  0
VERTEX
  8
0
 10
176.554
 20
45.9422
 30
0.0
 40
0.2
 41
0.2
  0
VERTEX
  8
0
 10
176.5
 20
45.9133
 30
0.0
 40
0.2
 41
0.2
  0
VERTEX
  8
0
 10
176.471
 20
45.8597
 30
0.0
 40
0.2
 41
0.2
  0
VERTEX
  8
0
 10
176.471
 20
45.8417
 30
0.0
 40
0.2
 41
0.2
  0
SEQEND
 8
0
  0
POLYLINE
  8
0
 62
     0
 66
     1
 10
0
 20
0
 30
0.0
 40
0.566929
 41
0.566929
  0
VERTEX
  8
0
 10
176.471
 20
45.8417
 30
0.0
 40
0.2
 41
0.2
  0
VERTEX
  8
0
 10
176.471
 20
51.8418
 30
0.0
 40
0.2
 41
0.2
  0
VERTEX
  8
0
 10
176.471
 20
51.8252
 30
0.0
 40
0.2
 41
0.2
  0
VERTEX
  8
0
 10
176.5
 20
51.7715
 30
0.0
 40
0.2
 41
0.2
  0
VERTEX
  8
0
 10
176.554
 20
51.7412
 30
0.0
 40
0.2
 41
0.2
  0
VERTEX
  8
0
 10
176.572
 20
51.7412
 30
0.0
 40
0.2
 41
0.2
  0
SEQEND
 8
0
  0
POLYLINE
  8
0
 62
     0
 66
     1
 10
0
 20
0
 30
0.0
 40
0.566929
 41
0.566929
  0
VERTEX
  8
0
 10
176.572
 20
51.7412
 30
0.0
 40
0.2
 41
0.2
  0
VERTEX
  8
0
 10
173.572
 20
51.7412
 30
0.0
 40
0.2
 41
0.2
  0
VERTEX
  8
0
 10
173.554
 20
51.7412
 30
0.0
 40
0.2
 41
0.2
  0
VERTEX
  8
0
 10
173.501
 20
51.7715
 30
0.0
 40
0.2
 41
0.2
  0
VERTEX
  8
0
 10
173.471
 20
51.8252
 30
0.0
 40
0.2
 41
0.2
  0
VERTEX
  8
0
 10
173.471
 20
51.8418
 30
0.0
 40
0.2
 41
0.2
  0
SEQEND
 8
0
  0
POLYLINE
  8
0
 62
     0
 66
     1
 10
0
 20
0
 30
0.0
 40
0.566929
 41
0.566929
  0
VERTEX
  8
0
 10
173.471
 20
51.8418
 30
0.0
 40
0.2
 41
0.2
  0
VERTEX
  8
0
 10
173.471
 20
59.8413
 30
0.0
 40
0.2
 41
0.2
  0
SEQEND
 8
0
  0
POLYLINE
  8
0
 62
     0
 66
     1
 10
0
 20
0
 30
0.0
 40
0.566929
 41
0.566929
  0
VERTEX
  8
0
 10
173.471
 20
59.8413
 30
0.0
 40
0.2
 41
0.2
  0
VERTEX
  8
0
 10
173.471
 20
59.8593
 30
0.0
 40
0.2
 41
0.2
  0
VERTEX
  8
0
 10
173.501
 20
59.913
 30
0.0
 40
0.2
 41
0.2
  0
VERTEX
  8
0
 10
173.554
 20
59.9419
 30
0.0
 40
0.2
 41
0.2
  0
VERTEX
  8
0
 10
173.572
 20
59.9419
 30
0.0
 40
0.2
 41
0.2
  0
SEQEND
 8
0
  0
POLYLINE
  8
0
 62
     0
 66
     1
 10
0
 20
0
 30
0.0
 40
0.566929
 41
0.566929
  0
VERTEX
  8
0
 10
173.572
 20
59.9419
 30
0.0
 40
0.2
 41
0.2
  0
VERTEX
  8
0
 10
176.572
 20
59.9419
 30
0.0
 40
0.2
 41
0.2
  0
SEQEND
 8
0
  0
POLYLINE
  8
0
 62
     0
 66
     1
 10
0
 20
0
 30
0.0
 40
0.566929
 41
0.566929
  0
VERTEX
  8
0
 10
176.572
 20
59.9419
 30
0.0
 40
0.2
 41
0.2
  0
VERTEX
  8
0
 10
180.072
 20
59.9419
 30
0.0
 40
0.2
 41
0.2
  0
SEQEND
 8
0
  0
POLYLINE
  8
0
 62
     0
 66
     1
 10
0
 20
0
 30
0.0
 40
0.566929
 41
0.566929
  0
VERTEX
  8
0
 10
180.072
 20
59.9419
 30
0.0
 40
0.2
 41
0.2
  0
VERTEX
  8
0
 10
180.055
 20
59.9419
 30
0.0
 40
0.2
 41
0.2
  0
VERTEX
  8
0
 10
180.001
 20
59.913
 30
0.0
 40
0.2
 41
0.2
  0
VERTEX
  8
0
 10
179.972
 20
59.8593
 30
0.0
 40
0.2
 41
0.2
  0
VERTEX
  8
0
 10
179.972
 20
59.8413
 30
0.0
 40
0.2
 41
0.2
  0
SEQEND
 8
0
  0
POLYLINE
  8
0
 62
     0
 66
     1
 10
0
 20
0
 30
0.0
 40
0.566929
 41
0.566929
  0
VERTEX
  8
0
 10
179.972
 20
59.8413
 30
0.0
 40
0.2
 41
0.2
  0
VERTEX
  8
0
 10
179.972
 20
62.8414
 30
0.0
 40
0.2
 41
0.2
  0
VERTEX
  8
0
 10
179.972
 20
62.8594
 30
0.0
 40
0.2
 41
0.2
  0
VERTEX
  8
0
 10
180.001
 20
62.913
 30
0.0
 40
0.2
 41
0.2
  0
VERTEX
  8
0
 10
180.055
 20
62.9419
 30
0.0
 40
0.2
 41
0.2
  0
VERTEX
  8
0
 10
180.072
 20
62.9419
 30
0.0
 40
0.2
 41
0.2
  0
SEQEND
 8
0
  0
POLYLINE
  8
0
 62
     0
 66
     1
 10
0
 20
0
 30
0.0
 40
0.566929
 41
0.566929
  0
VERTEX
  8
0
 10
180.072
 20
62.9419
 30
0.0
 40
0.2
 41
0.2
  0
VERTEX
  8
0
 10
183.072
 20
62.9419
 30
0.0
 40
0.2
 41
0.2
  0
VERTEX
  8
0
 10
183.089
 20
62.9419
 30
0.0
 40
0.2
 41
0.2
  0
VERTEX
  8
0
 10
183.143
 20
62.913
 30
0.0
 40
0.2
 41
0.2
  0
VERTEX
  8
0
 10
183.173
 20
62.8594
 30
0.0
 40
0.2
 41
0.2
  0
VERTEX
  8
0
 10
183.173
 20
62.8414
 30
0.0
 40
0.2
 41
0.2
  0
SEQEND
 8
0
  0
POLYLINE
  8
0
 62
     0
 66
     1
 10
0
 20
0
 30
0.0
 40
0.566929
 41
0.566929
  0
VERTEX
  8
0
 10
183.173
 20
62.8414
 30
0.0
 40
0.2
 41
0.2
  0
VERTEX
  8
0
 10
183.173
 20
59.8413
 30
0.0
 40
0.2
 41
0.2
  0
VERTEX
  8
0
 10
183.173
 20
59.8593
 30
0.0
 40
0.2
 41
0.2
  0
VERTEX
  8
0
 10
183.143
 20
59.913
 30
0.0
 40
0.2
 41
0.2
  0
VERTEX
  8
0
 10
183.089
 20
59.9419
 30
0.0
 40
0.2
 41
0.2
  0
VERTEX
  8
0
 10
183.072
 20
59.9419
 30
0.0
 40
0.2
 41
0.2
  0
SEQEND
 8
0
  0
POLYLINE
  8
0
 62
     0
 66
     1
 10
0
 20
0
 30
0.0
 40
0.566929
 41
0.566929
  0
VERTEX
  8
0
 10
183.072
 20
59.9419
 30
0.0
 40
0.2
 41
0.2
  0
VERTEX
  8
0
 10
186.573
 20
59.9419
 30
0.0
 40
0.2
 41
0.2
  0
SEQEND
 8
0
  0
POLYLINE
  8
0
 62
     0
 66
     1
 10
0
 20
0
 30
0.0
 40
0.566929
 41
0.566929
  0
VERTEX
  8
0
 10
186.573
 20
59.9419
 30
0.0
 40
0.2
 41
0.2
  0
VERTEX
  8
0
 10
186.589
 20
59.9419
 30
0.0
 40
0.2
 41
0.2
  0
VERTEX
  8
0
 10
186.643
 20
59.913
 30
0.0
 40
0.2
 41
0.2
  0
VERTEX
  8
0
 10
186.673
 20
59.8593
 30
0.0
 40
0.2
 41
0.2
  0
VERTEX
  8
0
 10
186.673
 20
59.8413
 30
0.0
 40
0.2
 41
0.2
  0
SEQEND
 8
0
  0
POLYLINE
  8
0
 62
     0
 66
     1
 10
0
 20
0
 30
0.0
 40
0.566929
 41
0.566929
  0
VERTEX
  8
0
 10
186.673
 20
59.8413
 30
0.0
 40
0.2
 41
0.2
  0
VERTEX
  8
0
 10
186.673
 20
12.8419
 30
0.0
 40
0.2
 41
0.2
  0
VERTEX
  8
0
 10
186.673
 20
12.8254
 30
0.0
 40
0.2
 41
0.2
  0
VERTEX
  8
0
 10
186.643
 20
12.7716
 30
0.0
 40
0.2
 41
0.2
  0
VERTEX
  8
0
 10
186.589
 20
12.7413
 30
0.0
 40
0.2
 41
0.2
  0
VERTEX
  8
0
 10
186.573
 20
12.7413
 30
0.0
 40
0.2
 41
0.2
  0
SEQEND
 8
0
  0
POLYLINE
  8
0
 62
     0
 66
     1
 10
0
 20
0
 30
0.0
 40
0.566929
 41
0.566929
  0
VERTEX
  8
0
 10
3.85025
 20
65.4417
 30
0.0
 40
0.2
 41
0.2
  0
VERTEX
  8
0
 10
10.8507
 20
65.4417
 30
0.0
 40
0.2
 41
0.2
  0
SEQEND
 8
0
  0
POLYLINE
  8
0
 62
     0
 66
     1
 10
0
 20
0
 30
0.0
 40
0.566929
 41
0.566929
  0
VERTEX
  8
0
 10
10.8507
 20
65.4417
 30
0.0
 40
0.2
 41
0.2
  0
VERTEX
  8
0
 10
10.8327
 20
65.4417
 30
0.0
 40
0.2
 41
0.2
  0
VERTEX
  8
0
 10
10.779
 20
65.472
 30
0.0
 40
0.2
 41
0.2
  0
VERTEX
  8
0
 10
10.7501
 20
65.5257
 30
0.0
 40
0.2
 41
0.2
  0
VERTEX
  8
0
 10
10.7501
 20
65.5422
 30
0.0
 40
0.2
 41
0.2
  0
SEQEND
 8
0
  0
POLYLINE
  8
0
 62
     0
 66
     1
 10
0
 20
0
 30
0.0
 40
0.566929
 41
0.566929
  0
VERTEX
  8
0
 10
10.7501
 20
65.5422
 30
0.0
 40
0.2
 41
0.2
  0
VERTEX
  8
0
 10
10.7501
 20
62.5422
 30
0.0
 40
0.2
 41
0.2
  0
VERTEX
  8
0
 10
10.7501
 20
62.5256
 30
0.0
 40
0.2
 41
0.2
  0
VERTEX
  8
0
 10
10.779
 20
62.472
 30
0.0
 40
0.2
 41
0.2
  0
VERTEX
  8
0
 10
10.8327
 20
62.4417
 30
0.0
 40
0.2
 41
0.2
  0
VERTEX
  8
0
 10
10.8507
 20
62.4417
 30
0.0
 40
0.2
 41
0.2
  0
SEQEND
 8
0
  0
POLYLINE
  8
0
 62
     0
 66
     1
 10
0
 20
0
 30
0.0
 40
0.566929
 41
0.566929
  0
VERTEX
  8
0
 10
10.8507
 20
62.4417
 30
0.0
 40
0.2
 41
0.2
  0
VERTEX
  8
0
 10
16.8506
 20
62.4417
 30
0.0
 40
0.2
 41
0.2
  0
VERTEX
  8
0
 10
16.8672
 20
62.4417
 30
0.0
 40
0.2
 41
0.2
  0
VERTEX
  8
0
 10
16.9209
 20
62.472
 30
0.0
 40
0.2
 41
0.2
  0
VERTEX
  8
0
 10
16.9513
 20
62.5256
 30
0.0
 40
0.2
 41
0.2
  0
VERTEX
  8
0
 10
16.9513
 20
62.5422
 30
0.0
 40
0.2
 41
0.2
  0
SEQEND
 8
0
  0
POLYLINE
  8
0
 62
     0
 66
     1
 10
0
 20
0
 30
0.0
 40
0.566929
 41
0.566929
  0
VERTEX
  8
0
 10
16.9513
 20
62.5422
 30
0.0
 40
0.2
 41
0.2
  0
VERTEX
  8
0
 10
16.9513
 20
65.5422
 30
0.0
 40
0.2
 41
0.2
  0
VERTEX
  8
0
 10
16.9513
 20
65.5257
 30
0.0
 40
0.2
 41
0.2
  0
VERTEX
  8
0
 10
16.9209
 20
65.472
 30
0.0
 40
0.2
 41
0.2
  0
VERTEX
  8
0
 10
16.8672
 20
65.4417
 30
0.0
 40
0.2
 41
0.2
  0
VERTEX
  8
0
 10
16.8506
 20
65.4417
 30
0.0
 40
0.2
 41
0.2
  0
SEQEND
 8
0
  0
POLYLINE
  8
0
 62
     0
 66
     1
 10
0
 20
0
 30
0.0
 40
0.566929
 41
0.566929
  0
VERTEX
  8
0
 10
16.8506
 20
65.4417
 30
0.0
 40
0.2
 41
0.2
  0
VERTEX
  8
0
 10
22.8506
 20
65.4417
 30
0.0
 40
0.2
 41
0.2
  0
SEQEND
 8
0
  0
POLYLINE
  8
0
 62
     0
 66
     1
 10
0
 20
0
 30
0.0
 40
0.566929
 41
0.566929
  0
VERTEX
  8
0
 10
22.8506
 20
65.4417
 30
0.0
 40
0.2
 41
0.2
  0
VERTEX
  8
0
 10
22.8327
 20
65.4417
 30
0.0
 40
0.2
 41
0.2
  0
VERTEX
  8
0
 10
22.779
 20
65.472
 30
0.0
 40
0.2
 41
0.2
  0
VERTEX
  8
0
 10
22.75
 20
65.5257
 30
0.0
 40
0.2
 41
0.2
  0
VERTEX
  8
0
 10
22.75
 20
65.5422
 30
0.0
 40
0.2
 41
0.2
  0
SEQEND
 8
0
  0
POLYLINE
  8
0
 62
     0
 66
     1
 10
0
 20
0
 30
0.0
 40
0.566929
 41
0.566929
  0
VERTEX
  8
0
 10
22.75
 20
65.5422
 30
0.0
 40
0.2
 41
0.2
  0
VERTEX
  8
0
 10
22.75
 20
62.5422
 30
0.0
 40
0.2
 41
0.2
  0
VERTEX
  8
0
 10
22.75
 20
62.5256
 30
0.0
 40
0.2
 41
0.2
  0
VERTEX
  8
0
 10
22.779
 20
62.472
 30
0.0
 40
0.2
 41
0.2
  0
VERTEX
  8
0
 10
22.8327
 20
62.4417
 30
0.0
 40
0.2
 41
0.2
  0
VERTEX
  8
0
 10
22.8506
 20
62.4417
 30
0.0
 40
0.2
 41
0.2
  0
SEQEND
 8
0
  0
POLYLINE
  8
0
 62
     0
 66
     1
 10
0
 20
0
 30
0.0
 40
0.566929
 41
0.566929
  0
VERTEX
  8
0
 10
22.8506
 20
62.4417
 30
0.0
 40
0.2
 41
0.2
  0
VERTEX
  8
0
 10
28.8506
 20
62.4417
 30
0.0
 40
0.2
 41
0.2
  0
VERTEX
  8
0
 10
28.8671
 20
62.4417
 30
0.0
 40
0.2
 41
0.2
  0
VERTEX
  8
0
 10
28.9209
 20
62.472
 30
0.0
 40
0.2
 41
0.2
  0
VERTEX
  8
0
 10
28.9512
 20
62.5256
 30
0.0
 40
0.2
 41
0.2
  0
VERTEX
  8
0
 10
28.9512
 20
62.5422
 30
0.0
 40
0.2
 41
0.2
  0
SEQEND
 8
0
  0
POLYLINE
  8
0
 62
     0
 66
     1
 10
0
 20
0
 30
0.0
 40
0.566929
 41
0.566929
  0
VERTEX
  8
0
 10
28.9512
 20
62.5422
 30
0.0
 40
0.2
 41
0.2
  0
VERTEX
  8
0
 10
28.9512
 20
65.5422
 30
0.0
 40
0.2
 41
0.2
  0
VERTEX
  8
0
 10
28.9512
 20
65.5257
 30
0.0
 40
0.2
 41
0.2
  0
VERTEX
  8
0
 10
28.9209
 20
65.472
 30
0.0
 40
0.2
 41
0.2
  0
VERTEX
  8
0
 10
28.8671
 20
65.4417
 30
0.0
 40
0.2
 41
0.2
  0
VERTEX
  8
0
 10
28.8506
 20
65.4417
 30
0.0
 40
0.2
 41
0.2
  0
SEQEND
 8
0
  0
POLYLINE
  8
0
 62
     0
 66
     1
 10
0
 20
0
 30
0.0
 40
0.566929
 41
0.566929
  0
VERTEX
  8
0
 10
28.8506
 20
65.4417
 30
0.0
 40
0.2
 41
0.2
  0
VERTEX
  8
0
 10
34.8506
 20
65.4417
 30
0.0
 40
0.2
 41
0.2
  0
SEQEND
 8
0
  0
POLYLINE
  8
0
 62
     0
 66
     1
 10
0
 20
0
 30
0.0
 40
0.566929
 41
0.566929
  0
VERTEX
  8
0
 10
34.8506
 20
65.4417
 30
0.0
 40
0.2
 41
0.2
  0
VERTEX
  8
0
 10
34.8327
 20
65.4417
 30
0.0
 40
0.2
 41
0.2
  0
VERTEX
  8
0
 10
34.7789
 20
65.472
 30
0.0
 40
0.2
 41
0.2
  0
VERTEX
  8
0
 10
34.75
 20
65.5257
 30
0.0
 40
0.2
 41
0.2
  0
VERTEX
  8
0
 10
34.75
 20
65.5422
 30
0.0
 40
0.2
 41
0.2
  0
SEQEND
 8
0
  0
POLYLINE
  8
0
 62
     0
 66
     1
 10
0
 20
0
 30
0.0
 40
0.566929
 41
0.566929
  0
VERTEX
  8
0
 10
34.75
 20
65.5422
 30
0.0
 40
0.2
 41
0.2
  0
VERTEX
  8
0
 10
34.75
 20
62.5422
 30
0.0
 40
0.2
 41
0.2
  0
VERTEX
  8
0
 10
34.75
 20
62.5256
 30
0.0
 40
0.2
 41
0.2
  0
VERTEX
  8
0
 10
34.7789
 20
62.472
 30
0.0
 40
0.2
 41
0.2
  0
VERTEX
  8
0
 10
34.8327
 20
62.4417
 30
0.0
 40
0.2
 41
0.2
  0
VERTEX
  8
0
 10
34.8506
 20
62.4417
 30
0.0
 40
0.2
 41
0.2
  0
SEQEND
 8
0
  0
POLYLINE
  8
0
 62
     0
 66
     1
 10
0
 20
0
 30
0.0
 40
0.566929
 41
0.566929
  0
VERTEX
  8
0
 10
34.8506
 20
62.4417
 30
0.0
 40
0.2
 41
0.2
  0
VERTEX
  8
0
 10
40.8506
 20
62.4417
 30
0.0
 40
0.2
 41
0.2
  0
VERTEX
  8
0
 10
40.8672
 20
62.4417
 30
0.0
 40
0.2
 41
0.2
  0
VERTEX
  8
0
 10
40.9208
 20
62.472
 30
0.0
 40
0.2
 41
0.2
  0
VERTEX
  8
0
 10
40.9512
 20
62.5256
 30
0.0
 40
0.2
 41
0.2
  0
VERTEX
  8
0
 10
40.9512
 20
62.5422
 30
0.0
 40
0.2
 41
0.2
  0
SEQEND
 8
0
  0
POLYLINE
  8
0
 62
     0
 66
     1
 10
0
 20
0
 30
0.0
 40
0.566929
 41
0.566929
  0
VERTEX
  8
0
 10
40.9512
 20
62.5422
 30
0.0
 40
0.2
 41
0.2
  0
VERTEX
  8
0
 10
40.9512
 20
65.5422
 30
0.0
 40
0.2
 41
0.2
  0
VERTEX
  8
0
 10
40.9512
 20
65.5257
 30
0.0
 40
0.2
 41
0.2
  0
VERTEX
  8
0
 10
40.9208
 20
65.472
 30
0.0
 40
0.2
 41
0.2
  0
VERTEX
  8
0
 10
40.8672
 20
65.4417
 30
0.0
 40
0.2
 41
0.2
  0
VERTEX
  8
0
 10
40.8506
 20
65.4417
 30
0.0
 40
0.2
 41
0.2
  0
SEQEND
 8
0
  0
POLYLINE
  8
0
 62
     0
 66
     1
 10
0
 20
0
 30
0.0
 40
0.566929
 41
0.566929
  0
VERTEX
  8
0
 10
40.8506
 20
65.4417
 30
0.0
 40
0.2
 41
0.2
  0
VERTEX
  8
0
 10
47.8511
 20
65.4417
 30
0.0
 40
0.2
 41
0.2
  0
VERTEX
  8
0
 10
47.8677
 20
65.4417
 30
0.0
 40
0.2
 41
0.2
  0
VERTEX
  8
0
 10
47.9213
 20
65.472
 30
0.0
 40
0.2
 41
0.2
  0
VERTEX
  8
0
 10
47.9517
 20
65.5257
 30
0.0
 40
0.2
 41
0.2
  0
VERTEX
  8
0
 10
47.9517
 20
65.5422
 30
0.0
 40
0.2
 41
0.2
  0
SEQEND
 8
0
  0
POLYLINE
  8
0
 62
     0
 66
     1
 10
0
 20
0
 30
0.0
 40
0.566929
 41
0.566929
  0
VERTEX
  8
0
 10
47.9517
 20
65.5422
 30
0.0
 40
0.2
 41
0.2
  0
VERTEX
  8
0
 10
47.9517
 20
73.5418
 30
0.0
 40
0.2
 41
0.2
  0
SEQEND
 8
0
  0
POLYLINE
  8
0
 62
     0
 66
     1
 10
0
 20
0
 30
0.0
 40
0.566929
 41
0.566929
  0
VERTEX
  8
0
 10
47.9517
 20
73.5418
 30
0.0
 40
0.2
 41
0.2
  0
VERTEX
  8
0
 10
47.9517
 20
73.5252
 30
0.0
 40
0.2
 41
0.2
  0
VERTEX
  8
0
 10
47.9213
 20
73.4716
 30
0.0
 40
0.2
 41
0.2
  0
VERTEX
  8
0
 10
47.8677
 20
73.4413
 30
0.0
 40
0.2
 41
0.2
  0
VERTEX
  8
0
 10
47.8511
 20
73.4413
 30
0.0
 40
0.2
 41
0.2
  0
SEQEND
 8
0
  0
POLYLINE
  8
0
 62
     0
 66
     1
 10
0
 20
0
 30
0.0
 40
0.566929
 41
0.566929
  0
VERTEX
  8
0
 10
47.8511
 20
73.4413
 30
0.0
 40
0.2
 41
0.2
  0
VERTEX
  8
0
 10
50.8512
 20
73.4413
 30
0.0
 40
0.2
 41
0.2
  0
VERTEX
  8
0
 10
50.8674
 20
73.4413
 30
0.0
 40
0.2
 41
0.2
  0
VERTEX
  8
0
 10
50.9214
 20
73.4716
 30
0.0
 40
0.2
 41
0.2
  0
VERTEX
  8
0
 10
50.9517
 20
73.5252
 30
0.0
 40
0.2
 41
0.2
  0
VERTEX
  8
0
 10
50.9517
 20
73.5418
 30
0.0
 40
0.2
 41
0.2
  0
SEQEND
 8
0
  0
POLYLINE
  8
0
 62
     0
 66
     1
 10
0
 20
0
 30
0.0
 40
0.566929
 41
0.566929
  0
VERTEX
  8
0
 10
50.9517
 20
73.5418
 30
0.0
 40
0.2
 41
0.2
  0
VERTEX
  8
0
 10
50.9517
 20
79.5419
 30
0.0
 40
0.2
 41
0.2
  0
VERTEX
  8
0
 10
50.9517
 20
79.5595
 30
0.0
 40
0.2
 41
0.2
  0
VERTEX
  8
0
 10
50.9214
 20
79.6135
 30
0.0
 40
0.2
 41
0.2
  0
VERTEX
  8
0
 10
50.8674
 20
79.6424
 30
0.0
 40
0.2
 41
0.2
  0
VERTEX
  8
0
 10
50.8512
 20
79.6424
 30
0.0
 40
0.2
 41
0.2
  0
SEQEND
 8
0
  0
POLYLINE
  8
0
 62
     0
 66
     1
 10
0
 20
0
 30
0.0
 40
0.566929
 41
0.566929
  0
VERTEX
  8
0
 10
50.8512
 20
79.6424
 30
0.0
 40
0.2
 41
0.2
  0
VERTEX
  8
0
 10
47.8511
 20
79.6424
 30
0.0
 40
0.2
 41
0.2
  0
VERTEX
  8
0
 10
47.8677
 20
79.6424
 30
0.0
 40
0.2
 41
0.2
  0
VERTEX
  8
0
 10
47.9213
 20
79.6135
 30
0.0
 40
0.2
 41
0.2
  0
VERTEX
  8
0
 10
47.9517
 20
79.5595
 30
0.0
 40
0.2
 41
0.2
  0
VERTEX
  8
0
 10
47.9517
 20
79.5419
 30
0.0
 40
0.2
 41
0.2
  0
SEQEND
 8
0
  0
POLYLINE
  8
0
 62
     0
 66
     1
 10
0
 20
0
 30
0.0
 40
0.566929
 41
0.566929
  0
VERTEX
  8
0
 10
47.9517
 20
79.5419
 30
0.0
 40
0.2
 41
0.2
  0
VERTEX
  8
0
 10
47.9517
 20
85.5416
 30
0.0
 40
0.2
 41
0.2
  0
SEQEND
 8
0
  0
POLYLINE
  8
0
 62
     0
 66
     1
 10
0
 20
0
 30
0.0
 40
0.566929
 41
0.566929
  0
VERTEX
  8
0
 10
47.9517
 20
85.5416
 30
0.0
 40
0.2
 41
0.2
  0
VERTEX
  8
0
 10
47.9517
 20
85.5253
 30
0.0
 40
0.2
 41
0.2
  0
VERTEX
  8
0
 10
47.9213
 20
85.4714
 30
0.0
 40
0.2
 41
0.2
  0
VERTEX
  8
0
 10
47.8677
 20
85.441
 30
0.0
 40
0.2
 41
0.2
  0
VERTEX
  8
0
 10
47.8511
 20
85.441
 30
0.0
 40
0.2
 41
0.2
  0
SEQEND
 8
0
  0
POLYLINE
  8
0
 62
     0
 66
     1
 10
0
 20
0
 30
0.0
 40
0.566929
 41
0.566929
  0
VERTEX
  8
0
 10
47.8511
 20
85.441
 30
0.0
 40
0.2
 41
0.2
  0
VERTEX
  8
0
 10
50.8512
 20
85.441
 30
0.0
 40
0.2
 41
0.2
  0
VERTEX
  8
0
 10
50.8674
 20
85.441
 30
0.0
 40
0.2
 41
0.2
  0
VERTEX
  8
0
 10
50.9214
 20
85.4714
 30
0.0
 40
0.2
 41
0.2
  0
VERTEX
  8
0
 10
50.9517
 20
85.5253
 30
0.0
 40
0.2
 41
0.2
  0
VERTEX
  8
0
 10
50.9517
 20
85.5416
 30
0.0
 40
0.2
 41
0.2
  0
SEQEND
 8
0
  0
POLYLINE
  8
0
 62
     0
 66
     1
 10
0
 20
0
 30
0.0
 40
0.566929
 41
0.566929
  0
VERTEX
  8
0
 10
50.9517
 20
85.5416
 30
0.0
 40
0.2
 41
0.2
  0
VERTEX
  8
0
 10
50.9517
 20
91.5416
 30
0.0
 40
0.2
 41
0.2
  0
VERTEX
  8
0
 10
50.9517
 20
91.5596
 30
0.0
 40
0.2
 41
0.2
  0
VERTEX
  8
0
 10
50.9214
 20
91.6132
 30
0.0
 40
0.2
 41
0.2
  0
VERTEX
  8
0
 10
50.8674
 20
91.6421
 30
0.0
 40
0.2
 41
0.2
  0
VERTEX
  8
0
 10
50.8512
 20
91.6421
 30
0.0
 40
0.2
 41
0.2
  0
SEQEND
 8
0
  0
POLYLINE
  8
0
 62
     0
 66
     1
 10
0
 20
0
 30
0.0
 40
0.566929
 41
0.566929
  0
VERTEX
  8
0
 10
50.8512
 20
91.6421
 30
0.0
 40
0.2
 41
0.2
  0
VERTEX
  8
0
 10
47.8511
 20
91.6421
 30
0.0
 40
0.2
 41
0.2
  0
VERTEX
  8
0
 10
47.8677
 20
91.6421
 30
0.0
 40
0.2
 41
0.2
  0
VERTEX
  8
0
 10
47.9213
 20
91.6132
 30
0.0
 40
0.2
 41
0.2
  0
VERTEX
  8
0
 10
47.9517
 20
91.5596
 30
0.0
 40
0.2
 41
0.2
  0
VERTEX
  8
0
 10
47.9517
 20
91.5416
 30
0.0
 40
0.2
 41
0.2
  0
SEQEND
 8
0
  0
POLYLINE
  8
0
 62
     0
 66
     1
 10
0
 20
0
 30
0.0
 40
0.566929
 41
0.566929
  0
VERTEX
  8
0
 10
47.9517
 20
91.5416
 30
0.0
 40
0.2
 41
0.2
  0
VERTEX
  8
0
 10
47.9517
 20
99.5412
 30
0.0
 40
0.2
 41
0.2
  0
VERTEX
  8
0
 10
47.9517
 20
99.8721
 30
0.0
 40
0.2
 41
0.2
  0
VERTEX
  8
0
 10
47.8635
 20
100.863
 30
0.0
 40
0.2
 41
0.2
  0
VERTEX
  8
0
 10
47.607
 20
102.155
 30
0.0
 40
0.2
 41
0.2
  0
VERTEX
  8
0
 10
47.1826
 20
103.404
 30
0.0
 40
0.2
 41
0.2
  0
VERTEX
  8
0
 10
46.7625
 20
104.307
 30
0.0
 40
0.2
 41
0.2
  0
VERTEX
  8
0
 10
46.5984
 20
104.592
 30
0.0
 40
0.2
 41
0.2
  0
VERTEX
  8
0
 10
46.5155
 20
104.737
 30
0.0
 40
0.2
 41
0.2
  0
VERTEX
  8
0
 10
46.247
 20
105.155
 30
0.0
 40
0.2
 41
0.2
  0
VERTEX
  8
0
 10
45.8625
 20
105.693
 30
0.0
 40
0.2
 41
0.2
  0
VERTEX
  8
0
 10
45.4434
 20
106.203
 30
0.0
 40
0.2
 41
0.2
  0
VERTEX
  8
0
 10
44.9929
 20
106.684
 30
0.0
 40
0.2
 41
0.2
  0
VERTEX
  8
0
 10
44.5107
 20
107.134
 30
0.0
 40
0.2
 41
0.2
  0
VERTEX
  8
0
 10
44.0009
 20
107.553
 30
0.0
 40
0.2
 41
0.2
  0
VERTEX
  8
0
 10
43.4633
 20
107.939
 30
0.0
 40
0.2
 41
0.2
  0
VERTEX
  8
0
 10
43.0431
 20
108.206
 30
0.0
 40
0.2
 41
0.2
  0
VERTEX
  8
0
 10
42.901
 20
108.289
 30
0.0
 40
0.2
 41
0.2
  0
VERTEX
  8
0
 10
42.6145
 20
108.454
 30
0.0
 40
0.2
 41
0.2
  0
VERTEX
  8
0
 10
41.7131
 20
108.875
 30
0.0
 40
0.2
 41
0.2
  0
VERTEX
  8
0
 10
40.4647
 20
109.299
 30
0.0
 40
0.2
 41
0.2
  0
VERTEX
  8
0
 10
39.1707
 20
109.555
 30
0.0
 40
0.2
 41
0.2
  0
VERTEX
  8
0
 10
38.1801
 20
109.642
 30
0.0
 40
0.2
 41
0.2
  0
VERTEX
  8
0
 10
37.8506
 20
109.642
 30
0.0
 40
0.2
 41
0.2
  0
SEQEND
 8
0
  0
POLYLINE
  8
0
 62
     0
 66
     1
 10
0
 20
0
 30
0.0
 40
0.566929
 41
0.566929
  0
VERTEX
  8
0
 10
37.8506
 20
109.642
 30
0.0
 40
0.2
 41
0.2
  0
VERTEX
  8
0
 10
3.85025
 20
109.642
 30
0.0
 40
0.2
 41
0.2
  0
VERTEX
  8
0
 10
3.83233
 20
109.642
 30
0.0
 40
0.2
 41
0.2
  0
VERTEX
  8
0
 10
3.77857
 20
109.613
 30
0.0
 40
0.2
 41
0.2
  0
VERTEX
  8
0
 10
3.74964
 20
109.56
 30
0.0
 40
0.2
 41
0.2
  0
VERTEX
  8
0
 10
3.74964
 20
109.542
 30
0.0
 40
0.2
 41
0.2
  0
SEQEND
 8
0
  0
POLYLINE
  8
0
 62
     0
 66
     1
 10
0
 20
0
 30
0.0
 40
0.566929
 41
0.566929
  0
VERTEX
  8
0
 10
3.74964
 20
109.542
 30
0.0
 40
0.2
 41
0.2
  0
VERTEX
  8
0
 10
3.74964
 20
102.541
 30
0.0
 40
0.2
 41
0.2
  0
SEQEND
 8
0
  0
POLYLINE
  8
0
 62
     0
 66
     1
 10
0
 20
0
 30
0.0
 40
0.566929
 41
0.566929
  0
VERTEX
  8
0
 10
3.74964
 20
102.541
 30
0.0
 40
0.2
 41
0.2
  0
VERTEX
  8
0
 10
3.74964
 20
102.559
 30
0.0
 40
0.2
 41
0.2
  0
VERTEX
  8
0
 10
3.77857
 20
102.613
 30
0.0
 40
0.2
 41
0.2
  0
VERTEX
  8
0
 10
3.83233
 20
102.642
 30
0.0
 40
0.2
 41
0.2
  0
VERTEX
  8
0
 10
3.85025
 20
102.642
 30
0.0
 40
0.2
 41
0.2
  0
SEQEND
 8
0
  0
POLYLINE
  8
0
 62
     0
 66
     1
 10
0
 20
0
 30
0.0
 40
0.566929
 41
0.566929
  0
VERTEX
  8
0
 10
3.85025
 20
102.642
 30
0.0
 40
0.2
 41
0.2
  0
VERTEX
  8
0
 10
0.850251
 20
102.642
 30
0.0
 40
0.2
 41
0.2
  0
VERTEX
  8
0
 10
0.832337
 20
102.642
 30
0.0
 40
0.2
 41
0.2
  0
VERTEX
  8
0
 10
0.778591
 20
102.613
 30
0.0
 40
0.2
 41
0.2
  0
VERTEX
  8
0
 10
0.749653
 20
102.559
 30
0.0
 40
0.2
 41
0.2
  0
VERTEX
  8
0
 10
0.749653
 20
102.541
 30
0.0
 40
0.2
 41
0.2
  0
SEQEND
 8
0
  0
POLYLINE
  8
0
 62
     0
 66
     1
 10
0
 20
0
 30
0.0
 40
0.566929
 41
0.566929
  0
VERTEX
  8
0
 10
0.749653
 20
102.541
 30
0.0
 40
0.2
 41
0.2
  0
VERTEX
  8
0
 10
0.749653
 20
96.5412
 30
0.0
 40
0.2
 41
0.2
  0
VERTEX
  8
0
 10
0.749653
 20
96.5246
 30
0.0
 40
0.2
 41
0.2
  0
VERTEX
  8
0
 10
0.778591
 20
96.471
 30
0.0
 40
0.2
 41
0.2
  0
VERTEX
  8
0
 10
0.832337
 20
96.4406
 30
0.0
 40
0.2
 41
0.2
  0
VERTEX
  8
0
 10
0.850251
 20
96.4406
 30
0.0
 40
0.2
 41
0.2
  0
SEQEND
 8
0
  0
POLYLINE
  8
0
 62
     0
 66
     1
 10
0
 20
0
 30
0.0
 40
0.566929
 41
0.566929
  0
VERTEX
  8
0
 10
0.850251
 20
96.4406
 30
0.0
 40
0.2
 41
0.2
  0
VERTEX
  8
0
 10
3.85025
 20
96.4406
 30
0.0
 40
0.2
 41
0.2
  0
VERTEX
  8
0
 10
3.83233
 20
96.4406
 30
0.0
 40
0.2
 41
0.2
  0
VERTEX
  8
0
 10
3.77857
 20
96.471
 30
0.0
 40
0.2
 41
0.2
  0
VERTEX
  8
0
 10
3.74964
 20
96.5246
 30
0.0
 40
0.2
 41
0.2
  0
VERTEX
  8
0
 10
3.74964
 20
96.5412
 30
0.0
 40
0.2
 41
0.2
  0
SEQEND
 8
0
  0
POLYLINE
  8
0
 62
     0
 66
     1
 10
0
 20
0
 30
0.0
 40
0.566929
 41
0.566929
  0
VERTEX
  8
0
 10
3.74964
 20
96.5412
 30
0.0
 40
0.2
 41
0.2
  0
VERTEX
  8
0
 10
3.74964
 20
90.5411
 30
0.0
 40
0.2
 41
0.2
  0
SEQEND
 8
0
  0
POLYLINE
  8
0
 62
     0
 66
     1
 10
0
 20
0
 30
0.0
 40
0.566929
 41
0.566929
  0
VERTEX
  8
0
 10
3.74964
 20
90.5411
 30
0.0
 40
0.2
 41
0.2
  0
VERTEX
  8
0
 10
3.74964
 20
90.5591
 30
0.0
 40
0.2
 41
0.2
  0
VERTEX
  8
0
 10
3.77857
 20
90.6127
 30
0.0
 40
0.2
 41
0.2
  0
VERTEX
  8
0
 10
3.83233
 20
90.642
 30
0.0
 40
0.2
 41
0.2
  0
VERTEX
  8
0
 10
3.85025
 20
90.642
 30
0.0
 40
0.2
 41
0.2
  0
SEQEND
 8
0
  0
POLYLINE
  8
0
 62
     0
 66
     1
 10
0
 20
0
 30
0.0
 40
0.566929
 41
0.566929
  0
VERTEX
  8
0
 10
3.85025
 20
90.642
 30
0.0
 40
0.2
 41
0.2
  0
VERTEX
  8
0
 10
0.850251
 20
90.642
 30
0.0
 40
0.2
 41
0.2
  0
VERTEX
  8
0
 10
0.832337
 20
90.642
 30
0.0
 40
0.2
 41
0.2
  0
VERTEX
  8
0
 10
0.778591
 20
90.6127
 30
0.0
 40
0.2
 41
0.2
  0
VERTEX
  8
0
 10
0.749653
 20
90.5591
 30
0.0
 40
0.2
 41
0.2
  0
VERTEX
  8
0
 10
0.749653
 20
90.5411
 30
0.0
 40
0.2
 41
0.2
  0
SEQEND
 8
0
  0
POLYLINE
  8
0
 62
     0
 66
     1
 10
0
 20
0
 30
0.0
 40
0.566929
 41
0.566929
  0
VERTEX
  8
0
 10
0.749653
 20
90.5411
 30
0.0
 40
0.2
 41
0.2
  0
VERTEX
  8
0
 10
0.749653
 20
84.5414
 30
0.0
 40
0.2
 41
0.2
  0
VERTEX
  8
0
 10
0.749653
 20
84.5249
 30
0.0
 40
0.2
 41
0.2
  0
VERTEX
  8
0
 10
0.778591
 20
84.4709
 30
0.0
 40
0.2
 41
0.2
  0
VERTEX
  8
0
 10
0.832337
 20
84.4405
 30
0.0
 40
0.2
 41
0.2
  0
VERTEX
  8
0
 10
0.850251
 20
84.4405
 30
0.0
 40
0.2
 41
0.2
  0
SEQEND
 8
0
  0
POLYLINE
  8
0
 62
     0
 66
     1
 10
0
 20
0
 30
0.0
 40
0.566929
 41
0.566929
  0
VERTEX
  8
0
 10
0.850251
 20
84.4405
 30
0.0
 40
0.2
 41
0.2
  0
VERTEX
  8
0
 10
3.85025
 20
84.4405
 30
0.0
 40
0.2
 41
0.2
  0
VERTEX
  8
0
 10
3.83233
 20
84.4405
 30
0.0
 40
0.2
 41
0.2
  0
VERTEX
  8
0
 10
3.77857
 20
84.4709
 30
0.0
 40
0.2
 41
0.2
  0
VERTEX
  8
0
 10
3.74964
 20
84.5249
 30
0.0
 40
0.2
 41
0.2
  0
VERTEX
  8
0
 10
3.74964
 20
84.5414
 30
0.0
 40
0.2
 41
0.2
  0
SEQEND
 8
0
  0
POLYLINE
  8
0
 62
     0
 66
     1
 10
0
 20
0
 30
0.0
 40
0.566929
 41
0.566929
  0
VERTEX
  8
0
 10
3.74964
 20
84.5414
 30
0.0
 40
0.2
 41
0.2
  0
VERTEX
  8
0
 10
3.74964
 20
78.5414
 30
0.0
 40
0.2
 41
0.2
  0
SEQEND
 8
0
  0
POLYLINE
  8
0
 62
     0
 66
     1
 10
0
 20
0
 30
0.0
 40
0.566929
 41
0.566929
  0
VERTEX
  8
0
 10
3.74964
 20
78.5414
 30
0.0
 40
0.2
 41
0.2
  0
VERTEX
  8
0
 10
3.74964
 20
78.5594
 30
0.0
 40
0.2
 41
0.2
  0
VERTEX
  8
0
 10
3.77857
 20
78.613
 30
0.0
 40
0.2
 41
0.2
  0
VERTEX
  8
0
 10
3.83233
 20
78.6419
 30
0.0
 40
0.2
 41
0.2
  0
VERTEX
  8
0
 10
3.85025
 20
78.6419
 30
0.0
 40
0.2
 41
0.2
  0
SEQEND
 8
0
  0
POLYLINE
  8
0
 62
     0
 66
     1
 10
0
 20
0
 30
0.0
 40
0.566929
 41
0.566929
  0
VERTEX
  8
0
 10
3.85025
 20
78.6419
 30
0.0
 40
0.2
 41
0.2
  0
VERTEX
  8
0
 10
0.850251
 20
78.6419
 30
0.0
 40
0.2
 41
0.2
  0
VERTEX
  8
0
 10
0.832337
 20
78.6419
 30
0.0
 40
0.2
 41
0.2
  0
VERTEX
  8
0
 10
0.778591
 20
78.613
 30
0.0
 40
0.2
 41
0.2
  0
VERTEX
  8
0
 10
0.749653
 20
78.5594
 30
0.0
 40
0.2
 41
0.2
  0
VERTEX
  8
0
 10
0.749653
 20
78.5414
 30
0.0
 40
0.2
 41
0.2
  0
SEQEND
 8
0
  0
POLYLINE
  8
0
 62
     0
 66
     1
 10
0
 20
0
 30
0.0
 40
0.566929
 41
0.566929
  0
VERTEX
  8
0
 10
0.749653
 20
78.5414
 30
0.0
 40
0.2
 41
0.2
  0
VERTEX
  8
0
 10
0.749653
 20
72.5413
 30
0.0
 40
0.2
 41
0.2
  0
VERTEX
  8
0
 10
0.749653
 20
72.5248
 30
0.0
 40
0.2
 41
0.2
  0
VERTEX
  8
0
 10
0.778591
 20
72.4711
 30
0.0
 40
0.2
 41
0.2
  0
VERTEX
  8
0
 10
0.832337
 20
72.4408
 30
0.0
 40
0.2
 41
0.2
  0
VERTEX
  8
0
 10
0.850251
 20
72.4408
 30
0.0
 40
0.2
 41
0.2
  0
SEQEND
 8
0
  0
POLYLINE
  8
0
 62
     0
 66
     1
 10
0
 20
0
 30
0.0
 40
0.566929
 41
0.566929
  0
VERTEX
  8
0
 10
0.850251
 20
72.4408
 30
0.0
 40
0.2
 41
0.2
  0
VERTEX
  8
0
 10
3.85025
 20
72.4408
 30
0.0
 40
0.2
 41
0.2
  0
VERTEX
  8
0
 10
3.83233
 20
72.4408
 30
0.0
 40
0.2
 41
0.2
  0
VERTEX
  8
0
 10
3.77857
 20
72.4711
 30
0.0
 40
0.2
 41
0.2
  0
VERTEX
  8
0
 10
3.74964
 20
72.5248
 30
0.0
 40
0.2
 41
0.2
  0
VERTEX
  8
0
 10
3.74964
 20
72.5413
 30
0.0
 40
0.2
 41
0.2
  0
SEQEND
 8
0
  0
POLYLINE
  8
0
 62
     0
 66
     1
 10
0
 20
0
 30
0.0
 40
0.566929
 41
0.566929
  0
VERTEX
  8
0
 10
3.74964
 20
72.5413
 30
0.0
 40
0.2
 41
0.2
  0
VERTEX
  8
0
 10
3.74964
 20
65.5408
 30
0.0
 40
0.2
 41
0.2
  0
VERTEX
  8
0
 10
3.74964
 20
65.5242
 30
0.0
 40
0.2
 41
0.2
  0
VERTEX
  8
0
 10
3.77857
 20
65.4706
 30
0.0
 40
0.2
 41
0.2
  0
VERTEX
  8
0
 10
3.83233
 20
65.4403
 30
0.0
 40
0.2
 41
0.2
  0
VERTEX
  8
0
 10
3.85025
 20
65.4403
 30
0.0
 40
0.2
 41
0.2
  0
SEQEND
 8
0
  0
POLYLINE
  8
0
 62
     0
 66
     1
 10
0
 20
0
 30
0.0
 40
0.566929
 41
0.566929
  0
VERTEX
  8
0
 10
99.5497
 20
65.4417
 30
0.0
 40
0.2
 41
0.2
  0
VERTEX
  8
0
 10
92.5505
 20
65.4417
 30
0.0
 40
0.2
 41
0.2
  0
SEQEND
 8
0
  0
POLYLINE
  8
0
 62
     0
 66
     1
 10
0
 20
0
 30
0.0
 40
0.566929
 41
0.566929
  0
VERTEX
  8
0
 10
92.5505
 20
65.4417
 30
0.0
 40
0.2
 41
0.2
  0
VERTEX
  8
0
 10
92.5671
 20
65.4417
 30
0.0
 40
0.2
 41
0.2
  0
VERTEX
  8
0
 10
92.6207
 20
65.472
 30
0.0
 40
0.2
 41
0.2
  0
VERTEX
  8
0
 10
92.6511
 20
65.5257
 30
0.0
 40
0.2
 41
0.2
  0
VERTEX
  8
0
 10
92.6511
 20
65.5422
 30
0.0
 40
0.2
 41
0.2
  0
SEQEND
 8
0
  0
POLYLINE
  8
0
 62
     0
 66
     1
 10
0
 20
0
 30
0.0
 40
0.566929
 41
0.566929
  0
VERTEX
  8
0
 10
92.6511
 20
65.5422
 30
0.0
 40
0.2
 41
0.2
  0
VERTEX
  8
0
 10
92.6511
 20
62.5422
 30
0.0
 40
0.2
 41
0.2
  0
VERTEX
  8
0
 10
92.6511
 20
62.5256
 30
0.0
 40
0.2
 41
0.2
  0
VERTEX
  8
0
 10
92.6207
 20
62.472
 30
0.0
 40
0.2
 41
0.2
  0
VERTEX
  8
0
 10
92.5671
 20
62.4417
 30
0.0
 40
0.2
 41
0.2
  0
VERTEX
  8
0
 10
92.5505
 20
62.4417
 30
0.0
 40
0.2
 41
0.2
  0
SEQEND
 8
0
  0
POLYLINE
  8
0
 62
     0
 66
     1
 10
0
 20
0
 30
0.0
 40
0.566929
 41
0.566929
  0
VERTEX
  8
0
 10
92.5505
 20
62.4417
 30
0.0
 40
0.2
 41
0.2
  0
VERTEX
  8
0
 10
86.5505
 20
62.4417
 30
0.0
 40
0.2
 41
0.2
  0
VERTEX
  8
0
 10
86.5325
 20
62.4417
 30
0.0
 40
0.2
 41
0.2
  0
VERTEX
  8
0
 10
86.4789
 20
62.472
 30
0.0
 40
0.2
 41
0.2
  0
VERTEX
  8
0
 10
86.45
 20
62.5256
 30
0.0
 40
0.2
 41
0.2
  0
VERTEX
  8
0
 10
86.45
 20
62.5422
 30
0.0
 40
0.2
 41
0.2
  0
SEQEND
 8
0
  0
POLYLINE
  8
0
 62
     0
 66
     1
 10
0
 20
0
 30
0.0
 40
0.566929
 41
0.566929
  0
VERTEX
  8
0
 10
86.45
 20
62.5422
 30
0.0
 40
0.2
 41
0.2
  0
VERTEX
  8
0
 10
86.45
 20
65.5422
 30
0.0
 40
0.2
 41
0.2
  0
VERTEX
  8
0
 10
86.45
 20
65.5257
 30
0.0
 40
0.2
 41
0.2
  0
VERTEX
  8
0
 10
86.4789
 20
65.472
 30
0.0
 40
0.2
 41
0.2
  0
VERTEX
  8
0
 10
86.5325
 20
65.4417
 30
0.0
 40
0.2
 41
0.2
  0
VERTEX
  8
0
 10
86.5505
 20
65.4417
 30
0.0
 40
0.2
 41
0.2
  0
SEQEND
 8
0
  0
POLYLINE
  8
0
 62
     0
 66
     1
 10
0
 20
0
 30
0.0
 40
0.566929
 41
0.566929
  0
VERTEX
  8
0
 10
86.5505
 20
65.4417
 30
0.0
 40
0.2
 41
0.2
  0
VERTEX
  8
0
 10
80.5505
 20
65.4417
 30
0.0
 40
0.2
 41
0.2
  0
SEQEND
 8
0
  0
POLYLINE
  8
0
 62
     0
 66
     1
 10
0
 20
0
 30
0.0
 40
0.566929
 41
0.566929
  0
VERTEX
  8
0
 10
80.5505
 20
65.4417
 30
0.0
 40
0.2
 41
0.2
  0
VERTEX
  8
0
 10
80.567
 20
65.4417
 30
0.0
 40
0.2
 41
0.2
  0
VERTEX
  8
0
 10
80.6207
 20
65.472
 30
0.0
 40
0.2
 41
0.2
  0
VERTEX
  8
0
 10
80.651
 20
65.5257
 30
0.0
 40
0.2
 41
0.2
  0
VERTEX
  8
0
 10
80.651
 20
65.5422
 30
0.0
 40
0.2
 41
0.2
  0
SEQEND
 8
0
  0
POLYLINE
  8
0
 62
     0
 66
     1
 10
0
 20
0
 30
0.0
 40
0.566929
 41
0.566929
  0
VERTEX
  8
0
 10
80.651
 20
65.5422
 30
0.0
 40
0.2
 41
0.2
  0
VERTEX
  8
0
 10
80.651
 20
62.5422
 30
0.0
 40
0.2
 41
0.2
  0
VERTEX
  8
0
 10
80.651
 20
62.5256
 30
0.0
 40
0.2
 41
0.2
  0
VERTEX
  8
0
 10
80.6207
 20
62.472
 30
0.0
 40
0.2
 41
0.2
  0
VERTEX
  8
0
 10
80.567
 20
62.4417
 30
0.0
 40
0.2
 41
0.2
  0
VERTEX
  8
0
 10
80.5505
 20
62.4417
 30
0.0
 40
0.2
 41
0.2
  0
SEQEND
 8
0
  0
POLYLINE
  8
0
 62
     0
 66
     1
 10
0
 20
0
 30
0.0
 40
0.566929
 41
0.566929
  0
VERTEX
  8
0
 10
80.5505
 20
62.4417
 30
0.0
 40
0.2
 41
0.2
  0
VERTEX
  8
0
 10
74.5504
 20
62.4417
 30
0.0
 40
0.2
 41
0.2
  0
VERTEX
  8
0
 10
74.5324
 20
62.4417
 30
0.0
 40
0.2
 41
0.2
  0
VERTEX
  8
0
 10
74.4788
 20
62.472
 30
0.0
 40
0.2
 41
0.2
  0
VERTEX
  8
0
 10
74.4499
 20
62.5256
 30
0.0
 40
0.2
 41
0.2
  0
VERTEX
  8
0
 10
74.4499
 20
62.5422
 30
0.0
 40
0.2
 41
0.2
  0
SEQEND
 8
0
  0
POLYLINE
  8
0
 62
     0
 66
     1
 10
0
 20
0
 30
0.0
 40
0.566929
 41
0.566929
  0
VERTEX
  8
0
 10
74.4499
 20
62.5422
 30
0.0
 40
0.2
 41
0.2
  0
VERTEX
  8
0
 10
74.4499
 20
65.5422
 30
0.0
 40
0.2
 41
0.2
  0
VERTEX
  8
0
 10
74.4499
 20
65.5257
 30
0.0
 40
0.2
 41
0.2
  0
VERTEX
  8
0
 10
74.4788
 20
65.472
 30
0.0
 40
0.2
 41
0.2
  0
VERTEX
  8
0
 10
74.5324
 20
65.4417
 30
0.0
 40
0.2
 41
0.2
  0
VERTEX
  8
0
 10
74.5504
 20
65.4417
 30
0.0
 40
0.2
 41
0.2
  0
SEQEND
 8
0
  0
POLYLINE
  8
0
 62
     0
 66
     1
 10
0
 20
0
 30
0.0
 40
0.566929
 41
0.566929
  0
VERTEX
  8
0
 10
74.5504
 20
65.4417
 30
0.0
 40
0.2
 41
0.2
  0
VERTEX
  8
0
 10
68.5504
 20
65.4417
 30
0.0
 40
0.2
 41
0.2
  0
SEQEND
 8
0
  0
POLYLINE
  8
0
 62
     0
 66
     1
 10
0
 20
0
 30
0.0
 40
0.566929
 41
0.566929
  0
VERTEX
  8
0
 10
68.5504
 20
65.4417
 30
0.0
 40
0.2
 41
0.2
  0
VERTEX
  8
0
 10
68.5669
 20
65.4417
 30
0.0
 40
0.2
 41
0.2
  0
VERTEX
  8
0
 10
68.6209
 20
65.472
 30
0.0
 40
0.2
 41
0.2
  0
VERTEX
  8
0
 10
68.6513
 20
65.5257
 30
0.0
 40
0.2
 41
0.2
  0
VERTEX
  8
0
 10
68.6513
 20
65.5422
 30
0.0
 40
0.2
 41
0.2
  0
SEQEND
 8
0
  0
POLYLINE
  8
0
 62
     0
 66
     1
 10
0
 20
0
 30
0.0
 40
0.566929
 41
0.566929
  0
VERTEX
  8
0
 10
68.6513
 20
65.5422
 30
0.0
 40
0.2
 41
0.2
  0
VERTEX
  8
0
 10
68.6513
 20
62.5422
 30
0.0
 40
0.2
 41
0.2
  0
VERTEX
  8
0
 10
68.6513
 20
62.5256
 30
0.0
 40
0.2
 41
0.2
  0
VERTEX
  8
0
 10
68.6209
 20
62.472
 30
0.0
 40
0.2
 41
0.2
  0
VERTEX
  8
0
 10
68.5669
 20
62.4417
 30
0.0
 40
0.2
 41
0.2
  0
VERTEX
  8
0
 10
68.5504
 20
62.4417
 30
0.0
 40
0.2
 41
0.2
  0
SEQEND
 8
0
  0
POLYLINE
  8
0
 62
     0
 66
     1
 10
0
 20
0
 30
0.0
 40
0.566929
 41
0.566929
  0
VERTEX
  8
0
 10
68.5504
 20
62.4417
 30
0.0
 40
0.2
 41
0.2
  0
VERTEX
  8
0
 10
62.5507
 20
62.4417
 30
0.0
 40
0.2
 41
0.2
  0
VERTEX
  8
0
 10
62.5327
 20
62.4417
 30
0.0
 40
0.2
 41
0.2
  0
VERTEX
  8
0
 10
62.4787
 20
62.472
 30
0.0
 40
0.2
 41
0.2
  0
VERTEX
  8
0
 10
62.4498
 20
62.5256
 30
0.0
 40
0.2
 41
0.2
  0
VERTEX
  8
0
 10
62.4498
 20
62.5422
 30
0.0
 40
0.2
 41
0.2
  0
SEQEND
 8
0
  0
POLYLINE
  8
0
 62
     0
 66
     1
 10
0
 20
0
 30
0.0
 40
0.566929
 41
0.566929
  0
VERTEX
  8
0
 10
62.4498
 20
62.5422
 30
0.0
 40
0.2
 41
0.2
  0
VERTEX
  8
0
 10
62.4498
 20
65.5422
 30
0.0
 40
0.2
 41
0.2
  0
VERTEX
  8
0
 10
62.4498
 20
65.5257
 30
0.0
 40
0.2
 41
0.2
  0
VERTEX
  8
0
 10
62.4787
 20
65.472
 30
0.0
 40
0.2
 41
0.2
  0
VERTEX
  8
0
 10
62.5327
 20
65.4417
 30
0.0
 40
0.2
 41
0.2
  0
VERTEX
  8
0
 10
62.5507
 20
65.4417
 30
0.0
 40
0.2
 41
0.2
  0
SEQEND
 8
0
  0
POLYLINE
  8
0
 62
     0
 66
     1
 10
0
 20
0
 30
0.0
 40
0.566929
 41
0.566929
  0
VERTEX
  8
0
 10
62.5507
 20
65.4417
 30
0.0
 40
0.2
 41
0.2
  0
VERTEX
  8
0
 10
55.5502
 20
65.4417
 30
0.0
 40
0.2
 41
0.2
  0
VERTEX
  8
0
 10
55.5322
 20
65.4417
 30
0.0
 40
0.2
 41
0.2
  0
VERTEX
  8
0
 10
55.4785
 20
65.472
 30
0.0
 40
0.2
 41
0.2
  0
VERTEX
  8
0
 10
55.4496
 20
65.5257
 30
0.0
 40
0.2
 41
0.2
  0
VERTEX
  8
0
 10
55.4496
 20
65.5422
 30
0.0
 40
0.2
 41
0.2
  0
SEQEND
 8
0
  0
POLYLINE
  8
0
 62
     0
 66
     1
 10
0
 20
0
 30
0.0
 40
0.566929
 41
0.566929
  0
VERTEX
  8
0
 10
55.4496
 20
65.5422
 30
0.0
 40
0.2
 41
0.2
  0
VERTEX
  8
0
 10
55.4496
 20
73.5418
 30
0.0
 40
0.2
 41
0.2
  0
SEQEND
 8
0
  0
POLYLINE
  8
0
 62
     0
 66
     1
 10
0
 20
0
 30
0.0
 40
0.566929
 41
0.566929
  0
VERTEX
  8
0
 10
55.4496
 20
73.5418
 30
0.0
 40
0.2
 41
0.2
  0
VERTEX
  8
0
 10
55.4496
 20
73.5252
 30
0.0
 40
0.2
 41
0.2
  0
VERTEX
  8
0
 10
55.4785
 20
73.4716
 30
0.0
 40
0.2
 41
0.2
  0
VERTEX
  8
0
 10
55.5322
 20
73.4413
 30
0.0
 40
0.2
 41
0.2
  0
VERTEX
  8
0
 10
55.5502
 20
73.4413
 30
0.0
 40
0.2
 41
0.2
  0
SEQEND
 8
0
  0
POLYLINE
  8
0
 62
     0
 66
     1
 10
0
 20
0
 30
0.0
 40
0.566929
 41
0.566929
  0
VERTEX
  8
0
 10
55.5502
 20
73.4413
 30
0.0
 40
0.2
 41
0.2
  0
VERTEX
  8
0
 10
52.5501
 20
73.4413
 30
0.0
 40
0.2
 41
0.2
  0
VERTEX
  8
0
 10
52.5321
 20
73.4413
 30
0.0
 40
0.2
 41
0.2
  0
VERTEX
  8
0
 10
52.4785
 20
73.4716
 30
0.0
 40
0.2
 41
0.2
  0
VERTEX
  8
0
 10
52.4496
 20
73.5252
 30
0.0
 40
0.2
 41
0.2
  0
VERTEX
  8
0
 10
52.4496
 20
73.5418
 30
0.0
 40
0.2
 41
0.2
  0
SEQEND
 8
0
  0
POLYLINE
  8
0
 62
     0
 66
     1
 10
0
 20
0
 30
0.0
 40
0.566929
 41
0.566929
  0
VERTEX
  8
0
 10
52.4496
 20
73.5418
 30
0.0
 40
0.2
 41
0.2
  0
VERTEX
  8
0
 10
52.4496
 20
79.5419
 30
0.0
 40
0.2
 41
0.2
  0
VERTEX
  8
0
 10
52.4496
 20
79.5595
 30
0.0
 40
0.2
 41
0.2
  0
VERTEX
  8
0
 10
52.4785
 20
79.6135
 30
0.0
 40
0.2
 41
0.2
  0
VERTEX
  8
0
 10
52.5321
 20
79.6424
 30
0.0
 40
0.2
 41
0.2
  0
VERTEX
  8
0
 10
52.5501
 20
79.6424
 30
0.0
 40
0.2
 41
0.2
  0
SEQEND
 8
0
  0
POLYLINE
  8
0
 62
     0
 66
     1
 10
0
 20
0
 30
0.0
 40
0.566929
 41
0.566929
  0
VERTEX
  8
0
 10
52.5501
 20
79.6424
 30
0.0
 40
0.2
 41
0.2
  0
VERTEX
  8
0
 10
55.5502
 20
79.6424
 30
0.0
 40
0.2
 41
0.2
  0
VERTEX
  8
0
 10
55.5322
 20
79.6424
 30
0.0
 40
0.2
 41
0.2
  0
VERTEX
  8
0
 10
55.4785
 20
79.6135
 30
0.0
 40
0.2
 41
0.2
  0
VERTEX
  8
0
 10
55.4496
 20
79.5595
 30
0.0
 40
0.2
 41
0.2
  0
VERTEX
  8
0
 10
55.4496
 20
79.5419
 30
0.0
 40
0.2
 41
0.2
  0
SEQEND
 8
0
  0
POLYLINE
  8
0
 62
     0
 66
     1
 10
0
 20
0
 30
0.0
 40
0.566929
 41
0.566929
  0
VERTEX
  8
0
 10
55.4496
 20
79.5419
 30
0.0
 40
0.2
 41
0.2
  0
VERTEX
  8
0
 10
55.4496
 20
85.5416
 30
0.0
 40
0.2
 41
0.2
  0
SEQEND
 8
0
  0
POLYLINE
  8
0
 62
     0
 66
     1
 10
0
 20
0
 30
0.0
 40
0.566929
 41
0.566929
  0
VERTEX
  8
0
 10
55.4496
 20
85.5416
 30
0.0
 40
0.2
 41
0.2
  0
VERTEX
  8
0
 10
55.4496
 20
85.5253
 30
0.0
 40
0.2
 41
0.2
  0
VERTEX
  8
0
 10
55.4785
 20
85.4714
 30
0.0
 40
0.2
 41
0.2
  0
VERTEX
  8
0
 10
55.5322
 20
85.441
 30
0.0
 40
0.2
 41
0.2
  0
VERTEX
  8
0
 10
55.5502
 20
85.441
 30
0.0
 40
0.2
 41
0.2
  0
SEQEND
 8
0
  0
POLYLINE
  8
0
 62
     0
 66
     1
 10
0
 20
0
 30
0.0
 40
0.566929
 41
0.566929
  0
VERTEX
  8
0
 10
55.5502
 20
85.441
 30
0.0
 40
0.2
 41
0.2
  0
VERTEX
  8
0
 10
52.5501
 20
85.441
 30
0.0
 40
0.2
 41
0.2
  0
VERTEX
  8
0
 10
52.5321
 20
85.441
 30
0.0
 40
0.2
 41
0.2
  0
VERTEX
  8
0
 10
52.4785
 20
85.4714
 30
0.0
 40
0.2
 41
0.2
  0
VERTEX
  8
0
 10
52.4496
 20
85.5253
 30
0.0
 40
0.2
 41
0.2
  0
VERTEX
  8
0
 10
52.4496
 20
85.5416
 30
0.0
 40
0.2
 41
0.2
  0
SEQEND
 8
0
  0
POLYLINE
  8
0
 62
     0
 66
     1
 10
0
 20
0
 30
0.0
 40
0.566929
 41
0.566929
  0
VERTEX
  8
0
 10
52.4496
 20
85.5416
 30
0.0
 40
0.2
 41
0.2
  0
VERTEX
  8
0
 10
52.4496
 20
91.5416
 30
0.0
 40
0.2
 41
0.2
  0
VERTEX
  8
0
 10
52.4496
 20
91.5596
 30
0.0
 40
0.2
 41
0.2
  0
VERTEX
  8
0
 10
52.4785
 20
91.6132
 30
0.0
 40
0.2
 41
0.2
  0
VERTEX
  8
0
 10
52.5321
 20
91.6421
 30
0.0
 40
0.2
 41
0.2
  0
VERTEX
  8
0
 10
52.5501
 20
91.6421
 30
0.0
 40
0.2
 41
0.2
  0
SEQEND
 8
0
  0
POLYLINE
  8
0
 62
     0
 66
     1
 10
0
 20
0
 30
0.0
 40
0.566929
 41
0.566929
  0
VERTEX
  8
0
 10
52.5501
 20
91.6421
 30
0.0
 40
0.2
 41
0.2
  0
VERTEX
  8
0
 10
55.5502
 20
91.6421
 30
0.0
 40
0.2
 41
0.2
  0
VERTEX
  8
0
 10
55.5322
 20
91.6421
 30
0.0
 40
0.2
 41
0.2
  0
VERTEX
  8
0
 10
55.4785
 20
91.6132
 30
0.0
 40
0.2
 41
0.2
  0
VERTEX
  8
0
 10
55.4496
 20
91.5596
 30
0.0
 40
0.2
 41
0.2
  0
VERTEX
  8
0
 10
55.4496
 20
91.5416
 30
0.0
 40
0.2
 41
0.2
  0
SEQEND
 8
0
  0
POLYLINE
  8
0
 62
     0
 66
     1
 10
0
 20
0
 30
0.0
 40
0.566929
 41
0.566929
  0
VERTEX
  8
0
 10
55.4496
 20
91.5416
 30
0.0
 40
0.2
 41
0.2
  0
VERTEX
  8
0
 10
55.4496
 20
99.5412
 30
0.0
 40
0.2
 41
0.2
  0
VERTEX
  8
0
 10
55.4496
 20
99.8721
 30
0.0
 40
0.2
 41
0.2
  0
VERTEX
  8
0
 10
55.5364
 20
100.863
 30
0.0
 40
0.2
 41
0.2
  0
VERTEX
  8
0
 10
55.7925
 20
102.155
 30
0.0
 40
0.2
 41
0.2
  0
VERTEX
  8
0
 10
56.2169
 20
103.404
 30
0.0
 40
0.2
 41
0.2
  0
VERTEX
  8
0
 10
56.6374
 20
104.307
 30
0.0
 40
0.2
 41
0.2
  0
VERTEX
  8
0
 10
56.8029
 20
104.592
 30
0.0
 40
0.2
 41
0.2
  0
VERTEX
  8
0
 10
56.8854
 20
104.735
 30
0.0
 40
0.2
 41
0.2
  0
VERTEX
  8
0
 10
57.1528
 20
105.155
 30
0.0
 40
0.2
 41
0.2
  0
VERTEX
  8
0
 10
57.5374
 20
105.693
 30
0.0
 40
0.2
 41
0.2
  0
VERTEX
  8
0
 10
57.9561
 20
106.203
 30
0.0
 40
0.2
 41
0.2
  0
VERTEX
  8
0
 10
58.4069
 20
106.684
 30
0.0
 40
0.2
 41
0.2
  0
VERTEX
  8
0
 10
58.8892
 20
107.134
 30
0.0
 40
0.2
 41
0.2
  0
VERTEX
  8
0
 10
59.399
 20
107.553
 30
0.0
 40
0.2
 41
0.2
  0
VERTEX
  8
0
 10
59.9362
 20
107.939
 30
0.0
 40
0.2
 41
0.2
  0
VERTEX
  8
0
 10
60.3567
 20
108.206
 30
0.0
 40
0.2
 41
0.2
  0
VERTEX
  8
0
 10
60.5
 20
108.289
 30
0.0
 40
0.2
 41
0.2
  0
VERTEX
  8
0
 10
60.7854
 20
108.454
 30
0.0
 40
0.2
 41
0.2
  0
VERTEX
  8
0
 10
61.6864
 20
108.875
 30
0.0
 40
0.2
 41
0.2
  0
VERTEX
  8
0
 10
62.9348
 20
109.299
 30
0.0
 40
0.2
 41
0.2
  0
VERTEX
  8
0
 10
64.2288
 20
109.555
 30
0.0
 40
0.2
 41
0.2
  0
VERTEX
  8
0
 10
65.2198
 20
109.642
 30
0.0
 40
0.2
 41
0.2
  0
VERTEX
  8
0
 10
65.5507
 20
109.642
 30
0.0
 40
0.2
 41
0.2
  0
SEQEND
 8
0
  0
POLYLINE
  8
0
 62
     0
 66
     1
 10
0
 20
0
 30
0.0
 40
0.566929
 41
0.566929
  0
VERTEX
  8
0
 10
65.5507
 20
109.642
 30
0.0
 40
0.2
 41
0.2
  0
VERTEX
  8
0
 10
99.5507
 20
109.642
 30
0.0
 40
0.2
 41
0.2
  0
VERTEX
  8
0
 10
99.5673
 20
109.642
 30
0.0
 40
0.2
 41
0.2
  0
VERTEX
  8
0
 10
99.6213
 20
109.613
 30
0.0
 40
0.2
 41
0.2
  0
VERTEX
  8
0
 10
99.6516
 20
109.56
 30
0.0
 40
0.2
 41
0.2
  0
VERTEX
  8
0
 10
99.6516
 20
109.542
 30
0.0
 40
0.2
 41
0.2
  0
SEQEND
 8
0
  0
POLYLINE
  8
0
 62
     0
 66
     1
 10
0
 20
0
 30
0.0
 40
0.566929
 41
0.566929
  0
VERTEX
  8
0
 10
99.6516
 20
109.542
 30
0.0
 40
0.2
 41
0.2
  0
VERTEX
  8
0
 10
99.6516
 20
102.541
 30
0.0
 40
0.2
 41
0.2
  0
SEQEND
 8
0
  0
POLYLINE
  8
0
 62
     0
 66
     1
 10
0
 20
0
 30
0.0
 40
0.566929
 41
0.566929
  0
VERTEX
  8
0
 10
99.6516
 20
102.541
 30
0.0
 40
0.2
 41
0.2
  0
VERTEX
  8
0
 10
99.6516
 20
102.559
 30
0.0
 40
0.2
 41
0.2
  0
VERTEX
  8
0
 10
99.6213
 20
102.613
 30
0.0
 40
0.2
 41
0.2
  0
VERTEX
  8
0
 10
99.5673
 20
102.642
 30
0.0
 40
0.2
 41
0.2
  0
VERTEX
  8
0
 10
99.5507
 20
102.642
 30
0.0
 40
0.2
 41
0.2
  0
SEQEND
 8
0
  0
POLYLINE
  8
0
 62
     0
 66
     1
 10
0
 20
0
 30
0.0
 40
0.566929
 41
0.566929
  0
VERTEX
  8
0
 10
99.5507
 20
102.642
 30
0.0
 40
0.2
 41
0.2
  0
VERTEX
  8
0
 10
102.551
 20
102.642
 30
0.0
 40
0.2
 41
0.2
  0
VERTEX
  8
0
 10
102.567
 20
102.642
 30
0.0
 40
0.2
 41
0.2
  0
VERTEX
  8
0
 10
102.621
 20
102.613
 30
0.0
 40
0.2
 41
0.2
  0
VERTEX
  8
0
 10
102.651
 20
102.559
 30
0.0
 40
0.2
 41
0.2
  0
VERTEX
  8
0
 10
102.651
 20
102.541
 30
0.0
 40
0.2
 41
0.2
  0
SEQEND
 8
0
  0
POLYLINE
  8
0
 62
     0
 66
     1
 10
0
 20
0
 30
0.0
 40
0.566929
 41
0.566929
  0
VERTEX
  8
0
 10
102.651
 20
102.541
 30
0.0
 40
0.2
 41
0.2
  0
VERTEX
  8
0
 10
102.651
 20
96.5412
 30
0.0
 40
0.2
 41
0.2
  0
VERTEX
  8
0
 10
102.651
 20
96.5246
 30
0.0
 40
0.2
 41
0.2
  0
VERTEX
  8
0
 10
102.621
 20
96.471
 30
0.0
 40
0.2
 41
0.2
  0
VERTEX
  8
0
 10
102.567
 20
96.4406
 30
0.0
 40
0.2
 41
0.2
  0
VERTEX
  8
0
 10
102.551
 20
96.4406
 30
0.0
 40
0.2
 41
0.2
  0
SEQEND
 8
0
  0
POLYLINE
  8
0
 62
     0
 66
     1
 10
0
 20
0
 30
0.0
 40
0.566929
 41
0.566929
  0
VERTEX
  8
0
 10
102.551
 20
96.4406
 30
0.0
 40
0.2
 41
0.2
  0
VERTEX
  8
0
 10
99.5507
 20
96.4406
 30
0.0
 40
0.2
 41
0.2
  0
VERTEX
  8
0
 10
99.5673
 20
96.4406
 30
0.0
 40
0.2
 41
0.2
  0
VERTEX
  8
0
 10
99.6213
 20
96.471
 30
0.0
 40
0.2
 41
0.2
  0
VERTEX
  8
0
 10
99.6516
 20
96.5246
 30
0.0
 40
0.2
 41
0.2
  0
VERTEX
  8
0
 10
99.6516
 20
96.5412
 30
0.0
 40
0.2
 41
0.2
  0
SEQEND
 8
0
  0
POLYLINE
  8
0
 62
     0
 66
     1
 10
0
 20
0
 30
0.0
 40
0.566929
 41
0.566929
  0
VERTEX
  8
0
 10
99.6516
 20
96.5412
 30
0.0
 40
0.2
 41
0.2
  0
VERTEX
  8
0
 10
99.6516
 20
90.5411
 30
0.0
 40
0.2
 41
0.2
  0
SEQEND
 8
0
  0
POLYLINE
  8
0
 62
     0
 66
     1
 10
0
 20
0
 30
0.0
 40
0.566929
 41
0.566929
  0
VERTEX
  8
0
 10
99.6516
 20
90.5411
 30
0.0
 40
0.2
 41
0.2
  0
VERTEX
  8
0
 10
99.6516
 20
90.5591
 30
0.0
 40
0.2
 41
0.2
  0
VERTEX
  8
0
 10
99.6213
 20
90.6127
 30
0.0
 40
0.2
 41
0.2
  0
VERTEX
  8
0
 10
99.5673
 20
90.642
 30
0.0
 40
0.2
 41
0.2
  0
VERTEX
  8
0
 10
99.5507
 20
90.642
 30
0.0
 40
0.2
 41
0.2
  0
SEQEND
 8
0
  0
POLYLINE
  8
0
 62
     0
 66
     1
 10
0
 20
0
 30
0.0
 40
0.566929
 41
0.566929
  0
VERTEX
  8
0
 10
99.5507
 20
90.642
 30
0.0
 40
0.2
 41
0.2
  0
VERTEX
  8
0
 10
102.551
 20
90.642
 30
0.0
 40
0.2
 41
0.2
  0
VERTEX
  8
0
 10
102.567
 20
90.642
 30
0.0
 40
0.2
 41
0.2
  0
VERTEX
  8
0
 10
102.621
 20
90.6127
 30
0.0
 40
0.2
 41
0.2
  0
VERTEX
  8
0
 10
102.651
 20
90.5591
 30
0.0
 40
0.2
 41
0.2
  0
VERTEX
  8
0
 10
102.651
 20
90.5411
 30
0.0
 40
0.2
 41
0.2
  0
SEQEND
 8
0
  0
POLYLINE
  8
0
 62
     0
 66
     1
 10
0
 20
0
 30
0.0
 40
0.566929
 41
0.566929
  0
VERTEX
  8
0
 10
102.651
 20
90.5411
 30
0.0
 40
0.2
 41
0.2
  0
VERTEX
  8
0
 10
102.651
 20
84.5414
 30
0.0
 40
0.2
 41
0.2
  0
VERTEX
  8
0
 10
102.651
 20
84.5249
 30
0.0
 40
0.2
 41
0.2
  0
VERTEX
  8
0
 10
102.621
 20
84.4709
 30
0.0
 40
0.2
 41
0.2
  0
VERTEX
  8
0
 10
102.567
 20
84.4405
 30
0.0
 40
0.2
 41
0.2
  0
VERTEX
  8
0
 10
102.551
 20
84.4405
 30
0.0
 40
0.2
 41
0.2
  0
SEQEND
 8
0
  0
POLYLINE
  8
0
 62
     0
 66
     1
 10
0
 20
0
 30
0.0
 40
0.566929
 41
0.566929
  0
VERTEX
  8
0
 10
102.551
 20
84.4405
 30
0.0
 40
0.2
 41
0.2
  0
VERTEX
  8
0
 10
99.5507
 20
84.4405
 30
0.0
 40
0.2
 41
0.2
  0
VERTEX
  8
0
 10
99.5673
 20
84.4405
 30
0.0
 40
0.2
 41
0.2
  0
VERTEX
  8
0
 10
99.6213
 20
84.4709
 30
0.0
 40
0.2
 41
0.2
  0
VERTEX
  8
0
 10
99.6516
 20
84.5249
 30
0.0
 40
0.2
 41
0.2
  0
VERTEX
  8
0
 10
99.6516
 20
84.5414
 30
0.0
 40
0.2
 41
0.2
  0
SEQEND
 8
0
  0
POLYLINE
  8
0
 62
     0
 66
     1
 10
0
 20
0
 30
0.0
 40
0.566929
 41
0.566929
  0
VERTEX
  8
0
 10
99.6516
 20
84.5414
 30
0.0
 40
0.2
 41
0.2
  0
VERTEX
  8
0
 10
99.6516
 20
78.5414
 30
0.0
 40
0.2
 41
0.2
  0
SEQEND
 8
0
  0
POLYLINE
  8
0
 62
     0
 66
     1
 10
0
 20
0
 30
0.0
 40
0.566929
 41
0.566929
  0
VERTEX
  8
0
 10
99.6516
 20
78.5414
 30
0.0
 40
0.2
 41
0.2
  0
VERTEX
  8
0
 10
99.6516
 20
78.5594
 30
0.0
 40
0.2
 41
0.2
  0
VERTEX
  8
0
 10
99.6213
 20
78.613
 30
0.0
 40
0.2
 41
0.2
  0
VERTEX
  8
0
 10
99.5673
 20
78.6419
 30
0.0
 40
0.2
 41
0.2
  0
VERTEX
  8
0
 10
99.5507
 20
78.6419
 30
0.0
 40
0.2
 41
0.2
  0
SEQEND
 8
0
  0
POLYLINE
  8
0
 62
     0
 66
     1
 10
0
 20
0
 30
0.0
 40
0.566929
 41
0.566929
  0
VERTEX
  8
0
 10
99.5507
 20
78.6419
 30
0.0
 40
0.2
 41
0.2
  0
VERTEX
  8
0
 10
102.551
 20
78.6419
 30
0.0
 40
0.2
 41
0.2
  0
VERTEX
  8
0
 10
102.567
 20
78.6419
 30
0.0
 40
0.2
 41
0.2
  0
VERTEX
  8
0
 10
102.621
 20
78.613
 30
0.0
 40
0.2
 41
0.2
  0
VERTEX
  8
0
 10
102.651
 20
78.5594
 30
0.0
 40
0.2
 41
0.2
  0
VERTEX
  8
0
 10
102.651
 20
78.5414
 30
0.0
 40
0.2
 41
0.2
  0
SEQEND
 8
0
  0
POLYLINE
  8
0
 62
     0
 66
     1
 10
0
 20
0
 30
0.0
 40
0.566929
 41
0.566929
  0
VERTEX
  8
0
 10
102.651
 20
78.5414
 30
0.0
 40
0.2
 41
0.2
  0
VERTEX
  8
0
 10
102.651
 20
72.5413
 30
0.0
 40
0.2
 41
0.2
  0
VERTEX
  8
0
 10
102.651
 20
72.5248
 30
0.0
 40
0.2
 41
0.2
  0
VERTEX
  8
0
 10
102.621
 20
72.4711
 30
0.0
 40
0.2
 41
0.2
  0
VERTEX
  8
0
 10
102.567
 20
72.4408
 30
0.0
 40
0.2
 41
0.2
  0
VERTEX
  8
0
 10
102.551
 20
72.4408
 30
0.0
 40
0.2
 41
0.2
  0
SEQEND
 8
0
  0
POLYLINE
  8
0
 62
     0
 66
     1
 10
0
 20
0
 30
0.0
 40
0.566929
 41
0.566929
  0
VERTEX
  8
0
 10
102.551
 20
72.4408
 30
0.0
 40
0.2
 41
0.2
  0
VERTEX
  8
0
 10
99.5507
 20
72.4408
 30
0.0
 40
0.2
 41
0.2
  0
VERTEX
  8
0
 10
99.5673
 20
72.4408
 30
0.0
 40
0.2
 41
0.2
  0
VERTEX
  8
0
 10
99.6213
 20
72.4711
 30
0.0
 40
0.2
 41
0.2
  0
VERTEX
  8
0
 10
99.6516
 20
72.5248
 30
0.0
 40
0.2
 41
0.2
  0
VERTEX
  8
0
 10
99.6516
 20
72.5413
 30
0.0
 40
0.2
 41
0.2
  0
SEQEND
 8
0
  0
POLYLINE
  8
0
 62
     0
 66
     1
 10
0
 20
0
 30
0.0
 40
0.566929
 41
0.566929
  0
VERTEX
  8
0
 10
99.6516
 20
72.5413
 30
0.0
 40
0.2
 41
0.2
  0
VERTEX
  8
0
 10
99.6516
 20
65.5408
 30
0.0
 40
0.2
 41
0.2
  0
VERTEX
  8
0
 10
99.6516
 20
65.5242
 30
0.0
 40
0.2
 41
0.2
  0
VERTEX
  8
0
 10
99.6213
 20
65.4706
 30
0.0
 40
0.2
 41
0.2
  0
VERTEX
  8
0
 10
99.5673
 20
65.4403
 30
0.0
 40
0.2
 41
0.2
  0
VERTEX
  8
0
 10
99.5507
 20
65.4403
 30
0.0
 40
0.2
 41
0.2
  0
SEQEND
 8
0
  0
POLYLINE
  8
0
 62
     0
 66
     1
 10
0
 20
0
 30
0.0
 40
0.566929
 41
0.566929
  0
VERTEX
  8
0
 10
107.25
 20
65.4417
 30
0.0
 40
0.2
 41
0.2
  0
VERTEX
  8
0
 10
115.249
 20
65.4417
 30
0.0
 40
0.2
 41
0.2
  0
SEQEND
 8
0
  0
POLYLINE
  8
0
 62
     0
 66
     1
 10
0
 20
0
 30
0.0
 40
0.566929
 41
0.566929
  0
VERTEX
  8
0
 10
115.249
 20
65.4417
 30
0.0
 40
0.2
 41
0.2
  0
VERTEX
  8
0
 10
115.232
 20
65.4417
 30
0.0
 40
0.2
 41
0.2
  0
VERTEX
  8
0
 10
115.178
 20
65.472
 30
0.0
 40
0.2
 41
0.2
  0
VERTEX
  8
0
 10
115.149
 20
65.5257
 30
0.0
 40
0.2
 41
0.2
  0
VERTEX
  8
0
 10
115.149
 20
65.5422
 30
0.0
 40
0.2
 41
0.2
  0
SEQEND
 8
0
  0
POLYLINE
  8
0
 62
     0
 66
     1
 10
0
 20
0
 30
0.0
 40
0.566929
 41
0.566929
  0
VERTEX
  8
0
 10
115.149
 20
65.5422
 30
0.0
 40
0.2
 41
0.2
  0
VERTEX
  8
0
 10
115.149
 20
62.5422
 30
0.0
 40
0.2
 41
0.2
  0
VERTEX
  8
0
 10
115.149
 20
62.5256
 30
0.0
 40
0.2
 41
0.2
  0
VERTEX
  8
0
 10
115.178
 20
62.472
 30
0.0
 40
0.2
 41
0.2
  0
VERTEX
  8
0
 10
115.232
 20
62.4417
 30
0.0
 40
0.2
 41
0.2
  0
VERTEX
  8
0
 10
115.249
 20
62.4417
 30
0.0
 40
0.2
 41
0.2
  0
SEQEND
 8
0
  0
POLYLINE
  8
0
 62
     0
 66
     1
 10
0
 20
0
 30
0.0
 40
0.566929
 41
0.566929
  0
VERTEX
  8
0
 10
115.249
 20
62.4417
 30
0.0
 40
0.2
 41
0.2
  0
VERTEX
  8
0
 10
121.249
 20
62.4417
 30
0.0
 40
0.2
 41
0.2
  0
VERTEX
  8
0
 10
121.266
 20
62.4417
 30
0.0
 40
0.2
 41
0.2
  0
VERTEX
  8
0
 10
121.32
 20
62.472
 30
0.0
 40
0.2
 41
0.2
  0
VERTEX
  8
0
 10
121.35
 20
62.5256
 30
0.0
 40
0.2
 41
0.2
  0
VERTEX
  8
0
 10
121.35
 20
62.5422
 30
0.0
 40
0.2
 41
0.2
  0
SEQEND
 8
0
  0
POLYLINE
  8
0
 62
     0
 66
     1
 10
0
 20
0
 30
0.0
 40
0.566929
 41
0.566929
  0
VERTEX
  8
0
 10
121.35
 20
62.5422
 30
0.0
 40
0.2
 41
0.2
  0
VERTEX
  8
0
 10
121.35
 20
65.5422
 30
0.0
 40
0.2
 41
0.2
  0
VERTEX
  8
0
 10
121.35
 20
65.5257
 30
0.0
 40
0.2
 41
0.2
  0
VERTEX
  8
0
 10
121.32
 20
65.472
 30
0.0
 40
0.2
 41
0.2
  0
VERTEX
  8
0
 10
121.266
 20
65.4417
 30
0.0
 40
0.2
 41
0.2
  0
VERTEX
  8
0
 10
121.249
 20
65.4417
 30
0.0
 40
0.2
 41
0.2
  0
SEQEND
 8
0
  0
POLYLINE
  8
0
 62
     0
 66
     1
 10
0
 20
0
 30
0.0
 40
0.566929
 41
0.566929
  0
VERTEX
  8
0
 10
121.249
 20
65.4417
 30
0.0
 40
0.2
 41
0.2
  0
VERTEX
  8
0
 10
127.249
 20
65.4417
 30
0.0
 40
0.2
 41
0.2
  0
SEQEND
 8
0
  0
POLYLINE
  8
0
 62
     0
 66
     1
 10
0
 20
0
 30
0.0
 40
0.566929
 41
0.566929
  0
VERTEX
  8
0
 10
127.249
 20
65.4417
 30
0.0
 40
0.2
 41
0.2
  0
VERTEX
  8
0
 10
127.231
 20
65.4417
 30
0.0
 40
0.2
 41
0.2
  0
VERTEX
  8
0
 10
127.178
 20
65.472
 30
0.0
 40
0.2
 41
0.2
  0
VERTEX
  8
0
 10
127.149
 20
65.5257
 30
0.0
 40
0.2
 41
0.2
  0
VERTEX
  8
0
 10
127.149
 20
65.5422
 30
0.0
 40
0.2
 41
0.2
  0
SEQEND
 8
0
  0
POLYLINE
  8
0
 62
     0
 66
     1
 10
0
 20
0
 30
0.0
 40
0.566929
 41
0.566929
  0
VERTEX
  8
0
 10
127.149
 20
65.5422
 30
0.0
 40
0.2
 41
0.2
  0
VERTEX
  8
0
 10
127.149
 20
62.5422
 30
0.0
 40
0.2
 41
0.2
  0
VERTEX
  8
0
 10
127.149
 20
62.5256
 30
0.0
 40
0.2
 41
0.2
  0
VERTEX
  8
0
 10
127.178
 20
62.472
 30
0.0
 40
0.2
 41
0.2
  0
VERTEX
  8
0
 10
127.231
 20
62.4417
 30
0.0
 40
0.2
 41
0.2
  0
VERTEX
  8
0
 10
127.249
 20
62.4417
 30
0.0
 40
0.2
 41
0.2
  0
SEQEND
 8
0
  0
POLYLINE
  8
0
 62
     0
 66
     1
 10
0
 20
0
 30
0.0
 40
0.566929
 41
0.566929
  0
VERTEX
  8
0
 10
127.249
 20
62.4417
 30
0.0
 40
0.2
 41
0.2
  0
VERTEX
  8
0
 10
133.249
 20
62.4417
 30
0.0
 40
0.2
 41
0.2
  0
VERTEX
  8
0
 10
133.266
 20
62.4417
 30
0.0
 40
0.2
 41
0.2
  0
VERTEX
  8
0
 10
133.32
 20
62.472
 30
0.0
 40
0.2
 41
0.2
  0
VERTEX
  8
0
 10
133.35
 20
62.5256
 30
0.0
 40
0.2
 41
0.2
  0
VERTEX
  8
0
 10
133.35
 20
62.5422
 30
0.0
 40
0.2
 41
0.2
  0
SEQEND
 8
0
  0
POLYLINE
  8
0
 62
     0
 66
     1
 10
0
 20
0
 30
0.0
 40
0.566929
 41
0.566929
  0
VERTEX
  8
0
 10
133.35
 20
62.5422
 30
0.0
 40
0.2
 41
0.2
  0
VERTEX
  8
0
 10
133.35
 20
65.5422
 30
0.0
 40
0.2
 41
0.2
  0
VERTEX
  8
0
 10
133.35
 20
65.5257
 30
0.0
 40
0.2
 41
0.2
  0
VERTEX
  8
0
 10
133.32
 20
65.472
 30
0.0
 40
0.2
 41
0.2
  0
VERTEX
  8
0
 10
133.266
 20
65.4417
 30
0.0
 40
0.2
 41
0.2
  0
VERTEX
  8
0
 10
133.249
 20
65.4417
 30
0.0
 40
0.2
 41
0.2
  0
SEQEND
 8
0
  0
POLYLINE
  8
0
 62
     0
 66
     1
 10
0
 20
0
 30
0.0
 40
0.566929
 41
0.566929
  0
VERTEX
  8
0
 10
133.249
 20
65.4417
 30
0.0
 40
0.2
 41
0.2
  0
VERTEX
  8
0
 10
141.249
 20
65.4417
 30
0.0
 40
0.2
 41
0.2
  0
SEQEND
 8
0
  0
POLYLINE
  8
0
 62
     0
 66
     1
 10
0
 20
0
 30
0.0
 40
0.566929
 41
0.566929
  0
VERTEX
  8
0
 10
141.249
 20
65.4417
 30
0.0
 40
0.2
 41
0.2
  0
VERTEX
  8
0
 10
144.249
 20
65.4417
 30
0.0
 40
0.2
 41
0.2
  0
VERTEX
  8
0
 10
144.265
 20
65.4417
 30
0.0
 40
0.2
 41
0.2
  0
VERTEX
  8
0
 10
144.319
 20
65.472
 30
0.0
 40
0.2
 41
0.2
  0
VERTEX
  8
0
 10
144.35
 20
65.5257
 30
0.0
 40
0.2
 41
0.2
  0
VERTEX
  8
0
 10
144.35
 20
65.5422
 30
0.0
 40
0.2
 41
0.2
  0
SEQEND
 8
0
  0
POLYLINE
  8
0
 62
     0
 66
     1
 10
0
 20
0
 30
0.0
 40
0.566929
 41
0.566929
  0
VERTEX
  8
0
 10
144.35
 20
65.5422
 30
0.0
 40
0.2
 41
0.2
  0
VERTEX
  8
0
 10
144.35
 20
72.5428
 30
0.0
 40
0.2
 41
0.2
  0
SEQEND
 8
0
  0
POLYLINE
  8
0
 62
     0
 66
     1
 10
0
 20
0
 30
0.0
 40
0.566929
 41
0.566929
  0
VERTEX
  8
0
 10
144.35
 20
72.5428
 30
0.0
 40
0.2
 41
0.2
  0
VERTEX
  8
0
 10
144.35
 20
72.5607
 30
0.0
 40
0.2
 41
0.2
  0
VERTEX
  8
0
 10
144.319
 20
72.6144
 30
0.0
 40
0.2
 41
0.2
  0
VERTEX
  8
0
 10
144.265
 20
72.6433
 30
0.0
 40
0.2
 41
0.2
  0
VERTEX
  8
0
 10
144.249
 20
72.6433
 30
0.0
 40
0.2
 41
0.2
  0
SEQEND
 8
0
  0
POLYLINE
  8
0
 62
     0
 66
     1
 10
0
 20
0
 30
0.0
 40
0.566929
 41
0.566929
  0
VERTEX
  8
0
 10
144.249
 20
72.6433
 30
0.0
 40
0.2
 41
0.2
  0
VERTEX
  8
0
 10
141.249
 20
72.6433
 30
0.0
 40
0.2
 41
0.2
  0
VERTEX
  8
0
 10
141.266
 20
72.6433
 30
0.0
 40
0.2
 41
0.2
  0
VERTEX
  8
0
 10
141.319
 20
72.6144
 30
0.0
 40
0.2
 41
0.2
  0
VERTEX
  8
0
 10
141.35
 20
72.5607
 30
0.0
 40
0.2
 41
0.2
  0
VERTEX
  8
0
 10
141.35
 20
72.5428
 30
0.0
 40
0.2
 41
0.2
  0
SEQEND
 8
0
  0
POLYLINE
  8
0
 62
     0
 66
     1
 10
0
 20
0
 30
0.0
 40
0.566929
 41
0.566929
  0
VERTEX
  8
0
 10
141.35
 20
72.5428
 30
0.0
 40
0.2
 41
0.2
  0
VERTEX
  8
0
 10
141.35
 20
78.5428
 30
0.0
 40
0.2
 41
0.2
  0
VERTEX
  8
0
 10
141.35
 20
78.5262
 30
0.0
 40
0.2
 41
0.2
  0
VERTEX
  8
0
 10
141.319
 20
78.4722
 30
0.0
 40
0.2
 41
0.2
  0
VERTEX
  8
0
 10
141.266
 20
78.4419
 30
0.0
 40
0.2
 41
0.2
  0
VERTEX
  8
0
 10
141.249
 20
78.4419
 30
0.0
 40
0.2
 41
0.2
  0
SEQEND
 8
0
  0
POLYLINE
  8
0
 62
     0
 66
     1
 10
0
 20
0
 30
0.0
 40
0.566929
 41
0.566929
  0
VERTEX
  8
0
 10
141.249
 20
78.4419
 30
0.0
 40
0.2
 41
0.2
  0
VERTEX
  8
0
 10
144.249
 20
78.4419
 30
0.0
 40
0.2
 41
0.2
  0
VERTEX
  8
0
 10
144.265
 20
78.4419
 30
0.0
 40
0.2
 41
0.2
  0
VERTEX
  8
0
 10
144.319
 20
78.4722
 30
0.0
 40
0.2
 41
0.2
  0
VERTEX
  8
0
 10
144.35
 20
78.5262
 30
0.0
 40
0.2
 41
0.2
  0
VERTEX
  8
0
 10
144.35
 20
78.5428
 30
0.0
 40
0.2
 41
0.2
  0
SEQEND
 8
0
  0
POLYLINE
  8
0
 62
     0
 66
     1
 10
0
 20
0
 30
0.0
 40
0.566929
 41
0.566929
  0
VERTEX
  8
0
 10
144.35
 20
78.5428
 30
0.0
 40
0.2
 41
0.2
  0
VERTEX
  8
0
 10
144.35
 20
84.5425
 30
0.0
 40
0.2
 41
0.2
  0
SEQEND
 8
0
  0
POLYLINE
  8
0
 62
     0
 66
     1
 10
0
 20
0
 30
0.0
 40
0.566929
 41
0.566929
  0
VERTEX
  8
0
 10
144.35
 20
84.5425
 30
0.0
 40
0.2
 41
0.2
  0
VERTEX
  8
0
 10
144.35
 20
84.5605
 30
0.0
 40
0.2
 41
0.2
  0
VERTEX
  8
0
 10
144.319
 20
84.6145
 30
0.0
 40
0.2
 41
0.2
  0
VERTEX
  8
0
 10
144.265
 20
84.6434
 30
0.0
 40
0.2
 41
0.2
  0
VERTEX
  8
0
 10
144.249
 20
84.6434
 30
0.0
 40
0.2
 41
0.2
  0
SEQEND
 8
0
  0
POLYLINE
  8
0
 62
     0
 66
     1
 10
0
 20
0
 30
0.0
 40
0.566929
 41
0.566929
  0
VERTEX
  8
0
 10
144.249
 20
84.6434
 30
0.0
 40
0.2
 41
0.2
  0
VERTEX
  8
0
 10
141.249
 20
84.6434
 30
0.0
 40
0.2
 41
0.2
  0
VERTEX
  8
0
 10
141.266
 20
84.6434
 30
0.0
 40
0.2
 41
0.2
  0
VERTEX
  8
0
 10
141.319
 20
84.6145
 30
0.0
 40
0.2
 41
0.2
  0
VERTEX
  8
0
 10
141.35
 20
84.5605
 30
0.0
 40
0.2
 41
0.2
  0
VERTEX
  8
0
 10
141.35
 20
84.5425
 30
0.0
 40
0.2
 41
0.2
  0
SEQEND
 8
0
  0
POLYLINE
  8
0
 62
     0
 66
     1
 10
0
 20
0
 30
0.0
 40
0.566929
 41
0.566929
  0
VERTEX
  8
0
 10
141.35
 20
84.5425
 30
0.0
 40
0.2
 41
0.2
  0
VERTEX
  8
0
 10
141.35
 20
90.5425
 30
0.0
 40
0.2
 41
0.2
  0
VERTEX
  8
0
 10
141.35
 20
90.526
 30
0.0
 40
0.2
 41
0.2
  0
VERTEX
  8
0
 10
141.319
 20
90.4723
 30
0.0
 40
0.2
 41
0.2
  0
VERTEX
  8
0
 10
141.266
 20
90.442
 30
0.0
 40
0.2
 41
0.2
  0
VERTEX
  8
0
 10
141.249
 20
90.442
 30
0.0
 40
0.2
 41
0.2
  0
SEQEND
 8
0
  0
POLYLINE
  8
0
 62
     0
 66
     1
 10
0
 20
0
 30
0.0
 40
0.566929
 41
0.566929
  0
VERTEX
  8
0
 10
141.249
 20
90.442
 30
0.0
 40
0.2
 41
0.2
  0
VERTEX
  8
0
 10
144.249
 20
90.442
 30
0.0
 40
0.2
 41
0.2
  0
VERTEX
  8
0
 10
144.265
 20
90.442
 30
0.0
 40
0.2
 41
0.2
  0
VERTEX
  8
0
 10
144.319
 20
90.4723
 30
0.0
 40
0.2
 41
0.2
  0
VERTEX
  8
0
 10
144.35
 20
90.526
 30
0.0
 40
0.2
 41
0.2
  0
VERTEX
  8
0
 10
144.35
 20
90.5425
 30
0.0
 40
0.2
 41
0.2
  0
SEQEND
 8
0
  0
POLYLINE
  8
0
 62
     0
 66
     1
 10
0
 20
0
 30
0.0
 40
0.566929
 41
0.566929
  0
VERTEX
  8
0
 10
144.35
 20
90.5425
 30
0.0
 40
0.2
 41
0.2
  0
VERTEX
  8
0
 10
144.35
 20
96.5426
 30
0.0
 40
0.2
 41
0.2
  0
SEQEND
 8
0
  0
POLYLINE
  8
0
 62
     0
 66
     1
 10
0
 20
0
 30
0.0
 40
0.566929
 41
0.566929
  0
VERTEX
  8
0
 10
144.35
 20
96.5426
 30
0.0
 40
0.2
 41
0.2
  0
VERTEX
  8
0
 10
144.35
 20
96.5606
 30
0.0
 40
0.2
 41
0.2
  0
VERTEX
  8
0
 10
144.319
 20
96.6142
 30
0.0
 40
0.2
 41
0.2
  0
VERTEX
  8
0
 10
144.265
 20
96.6431
 30
0.0
 40
0.2
 41
0.2
  0
VERTEX
  8
0
 10
144.249
 20
96.6431
 30
0.0
 40
0.2
 41
0.2
  0
SEQEND
 8
0
  0
POLYLINE
  8
0
 62
     0
 66
     1
 10
0
 20
0
 30
0.0
 40
0.566929
 41
0.566929
  0
VERTEX
  8
0
 10
144.249
 20
96.6431
 30
0.0
 40
0.2
 41
0.2
  0
VERTEX
  8
0
 10
141.249
 20
96.6431
 30
0.0
 40
0.2
 41
0.2
  0
VERTEX
  8
0
 10
141.266
 20
96.6431
 30
0.0
 40
0.2
 41
0.2
  0
VERTEX
  8
0
 10
141.319
 20
96.6142
 30
0.0
 40
0.2
 41
0.2
  0
VERTEX
  8
0
 10
141.35
 20
96.5606
 30
0.0
 40
0.2
 41
0.2
  0
VERTEX
  8
0
 10
141.35
 20
96.5426
 30
0.0
 40
0.2
 41
0.2
  0
SEQEND
 8
0
  0
POLYLINE
  8
0
 62
     0
 66
     1
 10
0
 20
0
 30
0.0
 40
0.566929
 41
0.566929
  0
VERTEX
  8
0
 10
141.35
 20
96.5426
 30
0.0
 40
0.2
 41
0.2
  0
VERTEX
  8
0
 10
141.35
 20
102.543
 30
0.0
 40
0.2
 41
0.2
  0
VERTEX
  8
0
 10
141.35
 20
102.526
 30
0.0
 40
0.2
 41
0.2
  0
VERTEX
  8
0
 10
141.319
 20
102.472
 30
0.0
 40
0.2
 41
0.2
  0
VERTEX
  8
0
 10
141.266
 20
102.442
 30
0.0
 40
0.2
 41
0.2
  0
VERTEX
  8
0
 10
141.249
 20
102.442
 30
0.0
 40
0.2
 41
0.2
  0
SEQEND
 8
0
  0
POLYLINE
  8
0
 62
     0
 66
     1
 10
0
 20
0
 30
0.0
 40
0.566929
 41
0.566929
  0
VERTEX
  8
0
 10
141.249
 20
102.442
 30
0.0
 40
0.2
 41
0.2
  0
VERTEX
  8
0
 10
144.249
 20
102.442
 30
0.0
 40
0.2
 41
0.2
  0
VERTEX
  8
0
 10
144.265
 20
102.442
 30
0.0
 40
0.2
 41
0.2
  0
VERTEX
  8
0
 10
144.319
 20
102.472
 30
0.0
 40
0.2
 41
0.2
  0
VERTEX
  8
0
 10
144.35
 20
102.526
 30
0.0
 40
0.2
 41
0.2
  0
VERTEX
  8
0
 10
144.35
 20
102.543
 30
0.0
 40
0.2
 41
0.2
  0
SEQEND
 8
0
  0
POLYLINE
  8
0
 62
     0
 66
     1
 10
0
 20
0
 30
0.0
 40
0.566929
 41
0.566929
  0
VERTEX
  8
0
 10
144.35
 20
102.543
 30
0.0
 40
0.2
 41
0.2
  0
VERTEX
  8
0
 10
144.35
 20
109.543
 30
0.0
 40
0.2
 41
0.2
  0
SEQEND
 8
0
  0
POLYLINE
  8
0
 62
     0
 66
     1
 10
0
 20
0
 30
0.0
 40
0.566929
 41
0.566929
  0
VERTEX
  8
0
 10
144.35
 20
109.543
 30
0.0
 40
0.2
 41
0.2
  0
VERTEX
  8
0
 10
144.35
 20
109.561
 30
0.0
 40
0.2
 41
0.2
  0
VERTEX
  8
0
 10
144.319
 20
109.615
 30
0.0
 40
0.2
 41
0.2
  0
VERTEX
  8
0
 10
144.265
 20
109.644
 30
0.0
 40
0.2
 41
0.2
  0
VERTEX
  8
0
 10
144.249
 20
109.644
 30
0.0
 40
0.2
 41
0.2
  0
SEQEND
 8
0
  0
POLYLINE
  8
0
 62
     0
 66
     1
 10
0
 20
0
 30
0.0
 40
0.566929
 41
0.566929
  0
VERTEX
  8
0
 10
144.249
 20
109.644
 30
0.0
 40
0.2
 41
0.2
  0
VERTEX
  8
0
 10
141.249
 20
109.644
 30
0.0
 40
0.2
 41
0.2
  0
SEQEND
 8
0
  0
POLYLINE
  8
0
 62
     0
 66
     1
 10
0
 20
0
 30
0.0
 40
0.566929
 41
0.566929
  0
VERTEX
  8
0
 10
141.249
 20
109.644
 30
0.0
 40
0.2
 41
0.2
  0
VERTEX
  8
0
 10
107.249
 20
109.644
 30
0.0
 40
0.2
 41
0.2
  0
SEQEND
 8
0
  0
POLYLINE
  8
0
 62
     0
 66
     1
 10
0
 20
0
 30
0.0
 40
0.566929
 41
0.566929
  0
VERTEX
  8
0
 10
107.249
 20
109.644
 30
0.0
 40
0.2
 41
0.2
  0
VERTEX
  8
0
 10
104.249
 20
109.644
 30
0.0
 40
0.2
 41
0.2
  0
VERTEX
  8
0
 10
104.231
 20
109.644
 30
0.0
 40
0.2
 41
0.2
  0
VERTEX
  8
0
 10
104.177
 20
109.615
 30
0.0
 40
0.2
 41
0.2
  0
VERTEX
  8
0
 10
104.148
 20
109.561
 30
0.0
 40
0.2
 41
0.2
  0
VERTEX
  8
0
 10
104.148
 20
109.543
 30
0.0
 40
0.2
 41
0.2
  0
SEQEND
 8
0
  0
POLYLINE
  8
0
 62
     0
 66
     1
 10
0
 20
0
 30
0.0
 40
0.566929
 41
0.566929
  0
VERTEX
  8
0
 10
104.148
 20
109.543
 30
0.0
 40
0.2
 41
0.2
  0
VERTEX
  8
0
 10
104.148
 20
102.543
 30
0.0
 40
0.2
 41
0.2
  0
SEQEND
 8
0
  0
POLYLINE
  8
0
 62
     0
 66
     1
 10
0
 20
0
 30
0.0
 40
0.566929
 41
0.566929
  0
VERTEX
  8
0
 10
104.148
 20
102.543
 30
0.0
 40
0.2
 41
0.2
  0
VERTEX
  8
0
 10
104.148
 20
102.526
 30
0.0
 40
0.2
 41
0.2
  0
VERTEX
  8
0
 10
104.177
 20
102.472
 30
0.0
 40
0.2
 41
0.2
  0
VERTEX
  8
0
 10
104.231
 20
102.442
 30
0.0
 40
0.2
 41
0.2
  0
VERTEX
  8
0
 10
104.249
 20
102.442
 30
0.0
 40
0.2
 41
0.2
  0
SEQEND
 8
0
  0
POLYLINE
  8
0
 62
     0
 66
     1
 10
0
 20
0
 30
0.0
 40
0.566929
 41
0.566929
  0
VERTEX
  8
0
 10
104.249
 20
102.442
 30
0.0
 40
0.2
 41
0.2
  0
VERTEX
  8
0
 10
107.249
 20
102.442
 30
0.0
 40
0.2
 41
0.2
  0
VERTEX
  8
0
 10
107.231
 20
102.442
 30
0.0
 40
0.2
 41
0.2
  0
VERTEX
  8
0
 10
107.177
 20
102.472
 30
0.0
 40
0.2
 41
0.2
  0
VERTEX
  8
0
 10
107.148
 20
102.526
 30
0.0
 40
0.2
 41
0.2
  0
VERTEX
  8
0
 10
107.148
 20
102.543
 30
0.0
 40
0.2
 41
0.2
  0
SEQEND
 8
0
  0
POLYLINE
  8
0
 62
     0
 66
     1
 10
0
 20
0
 30
0.0
 40
0.566929
 41
0.566929
  0
VERTEX
  8
0
 10
107.148
 20
102.543
 30
0.0
 40
0.2
 41
0.2
  0
VERTEX
  8
0
 10
107.148
 20
96.5426
 30
0.0
 40
0.2
 41
0.2
  0
VERTEX
  8
0
 10
107.148
 20
96.5606
 30
0.0
 40
0.2
 41
0.2
  0
VERTEX
  8
0
 10
107.177
 20
96.6142
 30
0.0
 40
0.2
 41
0.2
  0
VERTEX
  8
0
 10
107.231
 20
96.6431
 30
0.0
 40
0.2
 41
0.2
  0
VERTEX
  8
0
 10
107.249
 20
96.6431
 30
0.0
 40
0.2
 41
0.2
  0
SEQEND
 8
0
  0
POLYLINE
  8
0
 62
     0
 66
     1
 10
0
 20
0
 30
0.0
 40
0.566929
 41
0.566929
  0
VERTEX
  8
0
 10
107.249
 20
96.6431
 30
0.0
 40
0.2
 41
0.2
  0
VERTEX
  8
0
 10
104.249
 20
96.6431
 30
0.0
 40
0.2
 41
0.2
  0
VERTEX
  8
0
 10
104.231
 20
96.6431
 30
0.0
 40
0.2
 41
0.2
  0
VERTEX
  8
0
 10
104.177
 20
96.6142
 30
0.0
 40
0.2
 41
0.2
  0
VERTEX
  8
0
 10
104.148
 20
96.5606
 30
0.0
 40
0.2
 41
0.2
  0
VERTEX
  8
0
 10
104.148
 20
96.5426
 30
0.0
 40
0.2
 41
0.2
  0
SEQEND
 8
0
  0
POLYLINE
  8
0
 62
     0
 66
     1
 10
0
 20
0
 30
0.0
 40
0.566929
 41
0.566929
  0
VERTEX
  8
0
 10
104.148
 20
96.5426
 30
0.0
 40
0.2
 41
0.2
  0
VERTEX
  8
0
 10
104.148
 20
90.5425
 30
0.0
 40
0.2
 41
0.2
  0
SEQEND
 8
0
  0
POLYLINE
  8
0
 62
     0
 66
     1
 10
0
 20
0
 30
0.0
 40
0.566929
 41
0.566929
  0
VERTEX
  8
0
 10
104.148
 20
90.5425
 30
0.0
 40
0.2
 41
0.2
  0
VERTEX
  8
0
 10
104.148
 20
90.526
 30
0.0
 40
0.2
 41
0.2
  0
VERTEX
  8
0
 10
104.177
 20
90.4723
 30
0.0
 40
0.2
 41
0.2
  0
VERTEX
  8
0
 10
104.231
 20
90.442
 30
0.0
 40
0.2
 41
0.2
  0
VERTEX
  8
0
 10
104.249
 20
90.442
 30
0.0
 40
0.2
 41
0.2
  0
SEQEND
 8
0
  0
POLYLINE
  8
0
 62
     0
 66
     1
 10
0
 20
0
 30
0.0
 40
0.566929
 41
0.566929
  0
VERTEX
  8
0
 10
104.249
 20
90.442
 30
0.0
 40
0.2
 41
0.2
  0
VERTEX
  8
0
 10
107.249
 20
90.442
 30
0.0
 40
0.2
 41
0.2
  0
VERTEX
  8
0
 10
107.231
 20
90.442
 30
0.0
 40
0.2
 41
0.2
  0
VERTEX
  8
0
 10
107.177
 20
90.4723
 30
0.0
 40
0.2
 41
0.2
  0
VERTEX
  8
0
 10
107.148
 20
90.526
 30
0.0
 40
0.2
 41
0.2
  0
VERTEX
  8
0
 10
107.148
 20
90.5425
 30
0.0
 40
0.2
 41
0.2
  0
SEQEND
 8
0
  0
POLYLINE
  8
0
 62
     0
 66
     1
 10
0
 20
0
 30
0.0
 40
0.566929
 41
0.566929
  0
VERTEX
  8
0
 10
107.148
 20
90.5425
 30
0.0
 40
0.2
 41
0.2
  0
VERTEX
  8
0
 10
107.148
 20
84.5425
 30
0.0
 40
0.2
 41
0.2
  0
VERTEX
  8
0
 10
107.148
 20
84.5605
 30
0.0
 40
0.2
 41
0.2
  0
VERTEX
  8
0
 10
107.177
 20
84.6145
 30
0.0
 40
0.2
 41
0.2
  0
VERTEX
  8
0
 10
107.231
 20
84.6434
 30
0.0
 40
0.2
 41
0.2
  0
VERTEX
  8
0
 10
107.249
 20
84.6434
 30
0.0
 40
0.2
 41
0.2
  0
SEQEND
 8
0
  0
POLYLINE
  8
0
 62
     0
 66
     1
 10
0
 20
0
 30
0.0
 40
0.566929
 41
0.566929
  0
VERTEX
  8
0
 10
107.249
 20
84.6434
 30
0.0
 40
0.2
 41
0.2
  0
VERTEX
  8
0
 10
104.249
 20
84.6434
 30
0.0
 40
0.2
 41
0.2
  0
VERTEX
  8
0
 10
104.231
 20
84.6434
 30
0.0
 40
0.2
 41
0.2
  0
VERTEX
  8
0
 10
104.177
 20
84.6145
 30
0.0
 40
0.2
 41
0.2
  0
VERTEX
  8
0
 10
104.148
 20
84.5605
 30
0.0
 40
0.2
 41
0.2
  0
VERTEX
  8
0
 10
104.148
 20
84.5425
 30
0.0
 40
0.2
 41
0.2
  0
SEQEND
 8
0
  0
POLYLINE
  8
0
 62
     0
 66
     1
 10
0
 20
0
 30
0.0
 40
0.566929
 41
0.566929
  0
VERTEX
  8
0
 10
104.148
 20
84.5425
 30
0.0
 40
0.2
 41
0.2
  0
VERTEX
  8
0
 10
104.148
 20
78.5428
 30
0.0
 40
0.2
 41
0.2
  0
SEQEND
 8
0
  0
POLYLINE
  8
0
 62
     0
 66
     1
 10
0
 20
0
 30
0.0
 40
0.566929
 41
0.566929
  0
VERTEX
  8
0
 10
104.148
 20
78.5428
 30
0.0
 40
0.2
 41
0.2
  0
VERTEX
  8
0
 10
104.148
 20
78.5262
 30
0.0
 40
0.2
 41
0.2
  0
VERTEX
  8
0
 10
104.177
 20
78.4722
 30
0.0
 40
0.2
 41
0.2
  0
VERTEX
  8
0
 10
104.231
 20
78.4419
 30
0.0
 40
0.2
 41
0.2
  0
VERTEX
  8
0
 10
104.249
 20
78.4419
 30
0.0
 40
0.2
 41
0.2
  0
SEQEND
 8
0
  0
POLYLINE
  8
0
 62
     0
 66
     1
 10
0
 20
0
 30
0.0
 40
0.566929
 41
0.566929
  0
VERTEX
  8
0
 10
104.249
 20
78.4419
 30
0.0
 40
0.2
 41
0.2
  0
VERTEX
  8
0
 10
107.249
 20
78.4419
 30
0.0
 40
0.2
 41
0.2
  0
VERTEX
  8
0
 10
107.231
 20
78.4419
 30
0.0
 40
0.2
 41
0.2
  0
VERTEX
  8
0
 10
107.177
 20
78.4722
 30
0.0
 40
0.2
 41
0.2
  0
VERTEX
  8
0
 10
107.148
 20
78.5262
 30
0.0
 40
0.2
 41
0.2
  0
VERTEX
  8
0
 10
107.148
 20
78.5428
 30
0.0
 40
0.2
 41
0.2
  0
SEQEND
 8
0
  0
POLYLINE
  8
0
 62
     0
 66
     1
 10
0
 20
0
 30
0.0
 40
0.566929
 41
0.566929
  0
VERTEX
  8
0
 10
107.148
 20
78.5428
 30
0.0
 40
0.2
 41
0.2
  0
VERTEX
  8
0
 10
107.148
 20
72.5428
 30
0.0
 40
0.2
 41
0.2
  0
VERTEX
  8
0
 10
107.148
 20
72.5607
 30
0.0
 40
0.2
 41
0.2
  0
VERTEX
  8
0
 10
107.177
 20
72.6144
 30
0.0
 40
0.2
 41
0.2
  0
VERTEX
  8
0
 10
107.231
 20
72.6433
 30
0.0
 40
0.2
 41
0.2
  0
VERTEX
  8
0
 10
107.249
 20
72.6433
 30
0.0
 40
0.2
 41
0.2
  0
SEQEND
 8
0
  0
POLYLINE
  8
0
 62
     0
 66
     1
 10
0
 20
0
 30
0.0
 40
0.566929
 41
0.566929
  0
VERTEX
  8
0
 10
107.249
 20
72.6433
 30
0.0
 40
0.2
 41
0.2
  0
VERTEX
  8
0
 10
104.249
 20
72.6433
 30
0.0
 40
0.2
 41
0.2
  0
VERTEX
  8
0
 10
104.231
 20
72.6433
 30
0.0
 40
0.2
 41
0.2
  0
VERTEX
  8
0
 10
104.177
 20
72.6144
 30
0.0
 40
0.2
 41
0.2
  0
VERTEX
  8
0
 10
104.148
 20
72.5607
 30
0.0
 40
0.2
 41
0.2
  0
VERTEX
  8
0
 10
104.148
 20
72.5428
 30
0.0
 40
0.2
 41
0.2
  0
SEQEND
 8
0
  0
POLYLINE
  8
0
 62
     0
 66
     1
 10
0
 20
0
 30
0.0
 40
0.566929
 41
0.566929
  0
VERTEX
  8
0
 10
104.148
 20
72.5428
 30
0.0
 40
0.2
 41
0.2
  0
VERTEX
  8
0
 10
104.148
 20
65.5422
 30
0.0
 40
0.2
 41
0.2
  0
SEQEND
 8
0
  0
POLYLINE
  8
0
 62
     0
 66
     1
 10
0
 20
0
 30
0.0
 40
0.566929
 41
0.566929
  0
VERTEX
  8
0
 10
104.148
 20
65.5422
 30
0.0
 40
0.2
 41
0.2
  0
VERTEX
  8
0
 10
104.148
 20
65.5257
 30
0.0
 40
0.2
 41
0.2
  0
VERTEX
  8
0
 10
104.177
 20
65.472
 30
0.0
 40
0.2
 41
0.2
  0
VERTEX
  8
0
 10
104.231
 20
65.4417
 30
0.0
 40
0.2
 41
0.2
  0
VERTEX
  8
0
 10
104.249
 20
65.4417
 30
0.0
 40
0.2
 41
0.2
  0
SEQEND
 8
0
  0
POLYLINE
  8
0
 62
     0
 66
     1
 10
0
 20
0
 30
0.0
 40
0.566929
 41
0.566929
  0
VERTEX
  8
0
 10
104.249
 20
65.4417
 30
0.0
 40
0.2
 41
0.2
  0
VERTEX
  8
0
 10
107.249
 20
65.4417
 30
0.0
 40
0.2
 41
0.2
  0
SEQEND
 8
0
  0
ENDSEC
  0
EOF
