  0
SECTION
  2
HEADER
  9
$ACADVER
  1
AC1009
  9
$DWGCODEPAGE
  3
ansi_1252
  9
$INSBASE
 10
0.0
 20
0.0
 30
0.0
  9
$EXTMIN
 10
0.749653
 20
12.7413
 30
0.0
  9
$EXTMAX
 10
134.651
 20
174.341
 30
0.0
  9
$LIMMIN
 10
0.0
 20
0.0
  9
$LIMMAX
 10
12.0
 20
9.0
  9
$ORTHOMODE
 70
     0
  9
$REGENMODE
 70
     1
  9
$FILLMODE
 70
     1
  9
$QTEXTMODE
 70
     0
  9
$MIRRTEXT
 70
     1
  9
$DRAGMODE
 70
     2
  9
$LTSCALE
 40
1.0
  9
$OSMODE
 70
    37
  9
$ATTMODE
 70
     1
  9
$TEXTSIZE
 40
0.2
  9
$TRACEWID
 40
0.05
  9
$TEXTSTYLE
  7
STANDARD
  9
$CLAYER
  8
0
  9
$CELTYPE
  6
BYLAYER
  9
$CECOLOR
 62
   256
  9
$DIMSCALE
 40
1.0
  9
$DIMASZ
 40
0.18
  9
$DIMEXO
 40
0.0625
  9
$DIMDLI
 40
0.38
  9
$DIMRND
 40
0.0
  9
$DIMDLE
 40
0.0
  9
$DIMEXE
 40
0.18
  9
$DIMTP
 40
0.0
  9
$DIMTM
 40
0.0
  9
$DIMTXT
 40
0.18
  9
$DIMCEN
 40
0.09
  9
$DIMTSZ
 40
0.0
  9
$DIMTOL
 70
     0
  9
$DIMLIM
 70
     0
  9
$DIMTIH
 70
     1
  9
$DIMTOH
 70
     1
  9
$DIMSE1
 70
     0
  9
$DIMSE2
 70
     0
  9
$DIMTAD
 70
     0
  9
$DIMZIN
 70
     0
  9
$DIMBLK
  1

  9
$DIMASO
 70
     1
  9
$DIMSHO
 70
     1
  9
$DIMPOST
  1

  9
$DIMAPOST
  1

  9
$DIMALT
 70
     0
  9
$DIMALTD
 70
     2
  9
$DIMALTF
 40
25.4
  9
$DIMLFAC
 40
1.0
  9
$DIMTOFL
 70
     0
  9
$DIMTVP
 40
0.0
  9
$DIMTIX
 70
     0
  9
$DIMSOXD
 70
     0
  9
$DIMSAH
 70
     0
  9
$DIMBLK1
  1

  9
$DIMBLK2
  1

  9
$DIMSTYLE
  2
STANDARD
  9
$DIMCLRD
 70
     0
  9
$DIMCLRE
 70
     0
  9
$DIMCLRT
 70
     0
  9
$DIMTFAC
 40
1.0
  9
$DIMGAP
 40
0.09
  9
$LUNITS
 70
     2
  9
$LUPREC
 70
     4
  9
$SKETCHINC
 40
0.1
  9
$FILLETRAD
 40
0.5
  9
$AUNITS
 70
     0
  9
$AUPREC
 70
     0
  9
$MENU
  1
.
  9
$ELEVATION
 40
0.0
  9
$PELEVATION
 40
0.0
  9
$THICKNESS
 40
0.0
  9
$LIMCHECK
 70
     0
  9
$CHAMFERA
 40
0.0
  9
$CHAMFERB
 40
0.0
  9
$SKPOLY
 70
     0
  9
$TDCREATE
 40
2454910.5
  9
$TDUPDATE
 40
2458460.641179248
  9
$TDINDWG
 40
0.0000000116
  9
$TDUSRTIMER
 40
0.0000000116
  9
$USRTIMER
 70
     1
  9
$ANGBASE
 50
0.0
  9
$ANGDIR
 70
     0
  9
$PDMODE
 70
     0
  9
$PDSIZE
 40
0.0
  9
$PLINEWID
 40
0.0
  9
$COORDS
 70
     1
  9
$SPLFRAME
 70
     0
  9
$SPLINETYPE
 70
     6
  9
$SPLINESEGS
 70
     8
  9
$ATTDIA
 70
     0
  9
$ATTREQ
 70
     1
  9
$HANDLING
 70
     1
  9
$HANDSEED
  5
5C0
  9
$SURFTAB1
 70
     6
  9
$SURFTAB2
 70
     6
  9
$SURFTYPE
 70
     6
  9
$SURFU
 70
     6
  9
$SURFV
 70
     6
  9
$UCSNAME
  2

  9
$UCSORG
 10
0.0
 20
0.0
 30
0.0
  9
$UCSXDIR
 10
1.0
 20
0.0
 30
0.0
  9
$UCSYDIR
 10
0.0
 20
1.0
 30
0.0
  9
$PUCSNAME
  2

  9
$PUCSORG
 10
0.0
 20
0.0
 30
0.0
  9
$PUCSXDIR
 10
1.0
 20
0.0
 30
0.0
  9
$PUCSYDIR
 10
0.0
 20
1.0
 30
0.0
  9
$USERI1
 70
     0
  9
$USERI2
 70
     0
  9
$USERI3
 70
     0
  9
$USERI4
 70
     0
  9
$USERI5
 70
     0
  9
$USERR1
 40
0.0
  9
$USERR2
 40
0.0
  9
$USERR3
 40
0.0
  9
$USERR4
 40
0.0
  9
$USERR5
 40
0.0
  9
$WORLDVIEW
 70
     1
  9
$SHADEDGE
 70
     3
  9
$SHADEDIF
 70
    70
  9
$TILEMODE
 70
     1
  9
$MAXACTVP
 70
    64
  9
$PLIMCHECK
 70
     0
  9
$PEXTMIN
 10
1.000000000000000E+20
 20
1.000000000000000E+20
 30
1.000000000000000E+20
  9
$PEXTMAX
 10
-1.000000000000000E+20
 20
-1.000000000000000E+20
 30
-1.000000000000000E+20
  9
$PLIMMIN
 10
0.0
 20
0.0
  9
$PLIMMAX
 10
12.0
 20
9.0
  9
$UNITMODE
 70
     0
  9
$VISRETAIN
 70
     1
  9
$PLINEGEN
 70
     0
  9
$PSLTSCALE
 70
     1
  0
ENDSEC
  0
SECTION
  2
TABLES
  0
TABLE
  2
VPORT
 70
     1
  0
VPORT
  2
*ACTIVE
 70
     0
 10
0.0
 20
0.0
 11
1.0
 21
1.0
 12
10.42990654205607
 22
4.5
 13
0.0
 23
0.0
 14
0.5
 24
0.5
 15
0.5
 25
0.5
 16
0.0
 26
0.0
 36
1.0
 17
0.0
 27
0.0
 37
0.0
 40
9.0
 41
1.972972972850329
 42
50.0
 43
0.0
 44
0.0
 50
0.0
 51
0.0
 71
     0
 72
   100
 73
     1
 74
     3
 75
     0
 76
     0
 77
     0
 78
     0
  0
ENDTAB
  0
TABLE
  2
LTYPE
 70
     2
  0
LTYPE
  2
CONTINUOUS
 70
     0
  3
Solid line
 72
    65
 73
     0
 40
0.0
  0
LTYPE
  2
CONTINUOUS2
 70
     0
  3
Solid Line
 72
    65
 73
     0
 40
0.0
  0
ENDTAB
  0
TABLE
  2
LAYER
 70
     1
  0
LAYER
  2
0
 70
     0
 62
     7
  6
CONTINUOUS
  0
ENDTAB
  0
TABLE
  2
STYLE
 70
     1
  0
STYLE
  2
STANDARD
 70
     0
 40
0.0
 41
1.0
 50
0.0
 71
     0
 42
0.2
  3
txt
  4

  0
ENDTAB
  0
TABLE
  2
VIEW
 70
     0
  0
ENDTAB
  0
TABLE
  2
UCS
 70
     0
  0
ENDTAB
  0
TABLE
  2
APPID
 70
     1
  0
APPID
  2
ACAD
 70
     0
  0
ENDTAB
  0
TABLE
  2
DIMSTYLE
 70
     1
  0
DIMSTYLE
  2
STANDARD
 70
     0
  3

  4

  5

  6

  7

 40
1.0
 41
0.18
 42
0.0625
 43
0.38
 44
0.18
 45
0.0
 46
0.0
 47
0.0
 48
0.0
140
0.18
141
0.09
142
0.0
143
25.4
144
1.0
145
0.0
146
1.0
147
0.09
 71
     0
 72
     0
 73
     1
 74
     1
 75
     0
 76
     0
 77
     0
 78
     0
170
     0
171
     2
172
     0
173
     0
174
     0
175
     0
176
     0
177
     0
178
     0
  0
ENDTAB
  0
ENDSEC
  0
SECTION
  2
BLOCKS
  0
BLOCK
  8
0
  2
$MODEL_SPACE
 70
     0
 10
0.0
 20
0.0
 30
0.0
  3
$MODEL_SPACE
  1

  0
ENDBLK
  5
21
  8
0
  0
BLOCK
 67
     1
  8
0
  2
$PAPER_SPACE
 70
     0
 10
0.0
 20
0.0
 30
0.0
  3
$PAPER_SPACE
  1

  0
ENDBLK
  5
1D
 67
     1
  8
0
  0
ENDSEC
  0
SECTION
  2
ENTITIES
  0
POLYLINE
  5
6F
  8
0
 66
     1
 10
0.0
 20
0.0
 30
0.0
 70
     1
  0
VERTEX
  5
7E
  8
0
 10
3.85025
 20
12.7413
 30
0.0
  0
VERTEX
  5
7F
  8
0
 10
12.8502
 20
12.7413
 30
0.0
  0
VERTEX
  5
80
  8
0
 10
12.8668
 20
12.7413
 30
0.0
  0
VERTEX
  5
81
  8
0
 10
12.9205
 20
12.7716
 30
0.0
  0
VERTEX
  5
82
  8
0
 10
12.9508
 20
12.8254
 30
0.0
  0
VERTEX
  5
83
  8
0
 10
12.9508
 20
12.8419
 30
0.0
  0
VERTEX
  5
84
  8
0
 10
12.9508
 20
15.8419
 30
0.0
  0
VERTEX
  5
85
  8
0
 10
12.9508
 20
15.8254
 30
0.0
  0
VERTEX
  5
86
  8
0
 10
12.9205
 20
15.7716
 30
0.0
  0
VERTEX
  5
87
  8
0
 10
12.8668
 20
15.7413
 30
0.0
  0
VERTEX
  5
88
  8
0
 10
12.8502
 20
15.7413
 30
0.0
  0
VERTEX
  5
89
  8
0
 10
18.8502
 20
15.7413
 30
0.0
  0
VERTEX
  5
8A
  8
0
 10
18.8323
 20
15.7413
 30
0.0
  0
VERTEX
  5
8B
  8
0
 10
18.7785
 20
15.7716
 30
0.0
  0
VERTEX
  5
8C
  8
0
 10
18.7496
 20
15.8254
 30
0.0
  0
VERTEX
  5
8D
  8
0
 10
18.7496
 20
15.8419
 30
0.0
  0
VERTEX
  5
8E
  8
0
 10
18.7496
 20
12.8419
 30
0.0
  0
VERTEX
  5
8F
  8
0
 10
18.7496
 20
12.8254
 30
0.0
  0
VERTEX
  5
90
  8
0
 10
18.7785
 20
12.7716
 30
0.0
  0
VERTEX
  5
91
  8
0
 10
18.8323
 20
12.7413
 30
0.0
  0
VERTEX
  5
92
  8
0
 10
18.8502
 20
12.7413
 30
0.0
  0
VERTEX
  5
93
  8
0
 10
24.8502
 20
12.7413
 30
0.0
  0
VERTEX
  5
94
  8
0
 10
24.8667
 20
12.7413
 30
0.0
  0
VERTEX
  5
95
  8
0
 10
24.9204
 20
12.7716
 30
0.0
  0
VERTEX
  5
96
  8
0
 10
24.9508
 20
12.8254
 30
0.0
  0
VERTEX
  5
97
  8
0
 10
24.9508
 20
12.8419
 30
0.0
  0
VERTEX
  5
98
  8
0
 10
24.9508
 20
15.8419
 30
0.0
  0
VERTEX
  5
99
  8
0
 10
24.9508
 20
15.8254
 30
0.0
  0
VERTEX
  5
9A
  8
0
 10
24.9204
 20
15.7716
 30
0.0
  0
VERTEX
  5
9B
  8
0
 10
24.8667
 20
15.7413
 30
0.0
  0
VERTEX
  5
9C
  8
0
 10
24.8502
 20
15.7413
 30
0.0
  0
VERTEX
  5
9D
  8
0
 10
30.8501
 20
15.7413
 30
0.0
  0
VERTEX
  5
9E
  8
0
 10
30.8322
 20
15.7413
 30
0.0
  0
VERTEX
  5
9F
  8
0
 10
30.7785
 20
15.7716
 30
0.0
  0
VERTEX
  5
A0
  8
0
 10
30.7496
 20
15.8254
 30
0.0
  0
VERTEX
  5
A1
  8
0
 10
30.7496
 20
15.8419
 30
0.0
  0
VERTEX
  5
A2
  8
0
 10
30.7496
 20
12.8419
 30
0.0
  0
VERTEX
  5
A3
  8
0
 10
30.7496
 20
12.8254
 30
0.0
  0
VERTEX
  5
A4
  8
0
 10
30.7785
 20
12.7716
 30
0.0
  0
VERTEX
  5
A5
  8
0
 10
30.8322
 20
12.7413
 30
0.0
  0
VERTEX
  5
A6
  8
0
 10
30.8501
 20
12.7413
 30
0.0
  0
VERTEX
  5
A7
  8
0
 10
36.8501
 20
12.7413
 30
0.0
  0
VERTEX
  5
A8
  8
0
 10
36.8667
 20
12.7413
 30
0.0
  0
VERTEX
  5
A9
  8
0
 10
36.9203
 20
12.7716
 30
0.0
  0
VERTEX
  5
AA
  8
0
 10
36.9506
 20
12.8254
 30
0.0
  0
VERTEX
  5
AB
  8
0
 10
36.9506
 20
12.8419
 30
0.0
  0
VERTEX
  5
AC
  8
0
 10
36.9506
 20
15.8419
 30
0.0
  0
VERTEX
  5
AD
  8
0
 10
36.9506
 20
15.8254
 30
0.0
  0
VERTEX
  5
AE
  8
0
 10
36.9203
 20
15.7716
 30
0.0
  0
VERTEX
  5
AF
  8
0
 10
36.8667
 20
15.7413
 30
0.0
  0
VERTEX
  5
B0
  8
0
 10
36.8501
 20
15.7413
 30
0.0
  0
VERTEX
  5
B1
  8
0
 10
42.8502
 20
15.7413
 30
0.0
  0
VERTEX
  5
B2
  8
0
 10
42.8322
 20
15.7413
 30
0.0
  0
VERTEX
  5
B3
  8
0
 10
42.7785
 20
15.7716
 30
0.0
  0
VERTEX
  5
B4
  8
0
 10
42.7496
 20
15.8254
 30
0.0
  0
VERTEX
  5
B5
  8
0
 10
42.7496
 20
15.8419
 30
0.0
  0
VERTEX
  5
B6
  8
0
 10
42.7496
 20
12.8419
 30
0.0
  0
VERTEX
  5
B7
  8
0
 10
42.7496
 20
12.8254
 30
0.0
  0
VERTEX
  5
B8
  8
0
 10
42.7785
 20
12.7716
 30
0.0
  0
VERTEX
  5
B9
  8
0
 10
42.8322
 20
12.7413
 30
0.0
  0
VERTEX
  5
BA
  8
0
 10
42.8502
 20
12.7413
 30
0.0
  0
VERTEX
  5
BB
  8
0
 10
48.8502
 20
12.7413
 30
0.0
  0
VERTEX
  5
BC
  8
0
 10
48.8668
 20
12.7413
 30
0.0
  0
VERTEX
  5
BD
  8
0
 10
48.9204
 20
12.7716
 30
0.0
  0
VERTEX
  5
BE
  8
0
 10
48.9507
 20
12.8254
 30
0.0
  0
VERTEX
  5
BF
  8
0
 10
48.9507
 20
12.8419
 30
0.0
  0
VERTEX
  5
C0
  8
0
 10
48.9507
 20
15.8419
 30
0.0
  0
VERTEX
  5
C1
  8
0
 10
48.9507
 20
15.8254
 30
0.0
  0
VERTEX
  5
C2
  8
0
 10
48.9204
 20
15.7716
 30
0.0
  0
VERTEX
  5
C3
  8
0
 10
48.8668
 20
15.7413
 30
0.0
  0
VERTEX
  5
C4
  8
0
 10
48.8502
 20
15.7413
 30
0.0
  0
VERTEX
  5
C5
  8
0
 10
54.8499
 20
15.7413
 30
0.0
  0
VERTEX
  5
C6
  8
0
 10
54.8322
 20
15.7413
 30
0.0
  0
VERTEX
  5
C7
  8
0
 10
54.7783
 20
15.7716
 30
0.0
  0
VERTEX
  5
C8
  8
0
 10
54.7494
 20
15.8254
 30
0.0
  0
VERTEX
  5
C9
  8
0
 10
54.7494
 20
15.8419
 30
0.0
  0
VERTEX
  5
CA
  8
0
 10
54.7494
 20
12.8419
 30
0.0
  0
VERTEX
  5
CB
  8
0
 10
54.7494
 20
12.8254
 30
0.0
  0
VERTEX
  5
CC
  8
0
 10
54.7783
 20
12.7716
 30
0.0
  0
VERTEX
  5
CD
  8
0
 10
54.8322
 20
12.7413
 30
0.0
  0
VERTEX
  5
CE
  8
0
 10
54.8499
 20
12.7413
 30
0.0
  0
VERTEX
  5
CF
  8
0
 10
63.85
 20
12.7413
 30
0.0
  0
VERTEX
  5
D0
  8
0
 10
66.85
 20
12.7413
 30
0.0
  0
VERTEX
  5
D1
  8
0
 10
66.8666
 20
12.7413
 30
0.0
  0
VERTEX
  5
D2
  8
0
 10
66.9202
 20
12.7716
 30
0.0
  0
VERTEX
  5
D3
  8
0
 10
66.9505
 20
12.8254
 30
0.0
  0
VERTEX
  5
D4
  8
0
 10
66.9505
 20
12.8419
 30
0.0
  0
VERTEX
  5
D5
  8
0
 10
66.9505
 20
15.8419
 30
0.0
  0
VERTEX
  5
D6
  8
0
 10
66.9505
 20
25.8423
 30
0.0
  0
VERTEX
  5
D7
  8
0
 10
66.9505
 20
25.8603
 30
0.0
  0
VERTEX
  5
D8
  8
0
 10
66.9202
 20
25.914
 30
0.0
  0
VERTEX
  5
D9
  8
0
 10
66.8666
 20
25.943
 30
0.0
  0
VERTEX
  5
DA
  8
0
 10
66.85
 20
25.943
 30
0.0
  0
VERTEX
  5
DB
  8
0
 10
63.85
 20
25.943
 30
0.0
  0
VERTEX
  5
DC
  8
0
 10
63.8665
 20
25.943
 30
0.0
  0
VERTEX
  5
DD
  8
0
 10
63.9202
 20
25.914
 30
0.0
  0
VERTEX
  5
DE
  8
0
 10
63.9505
 20
25.8603
 30
0.0
  0
VERTEX
  5
DF
  8
0
 10
63.9505
 20
25.8423
 30
0.0
  0
VERTEX
  5
E0
  8
0
 10
63.9505
 20
31.8423
 30
0.0
  0
VERTEX
  5
E1
  8
0
 10
63.9505
 20
31.8258
 30
0.0
  0
VERTEX
  5
E2
  8
0
 10
63.9202
 20
31.772
 30
0.0
  0
VERTEX
  5
E3
  8
0
 10
63.8665
 20
31.7417
 30
0.0
  0
VERTEX
  5
E4
  8
0
 10
63.85
 20
31.7417
 30
0.0
  0
VERTEX
  5
E5
  8
0
 10
66.85
 20
31.7417
 30
0.0
  0
VERTEX
  5
E6
  8
0
 10
66.8666
 20
31.7417
 30
0.0
  0
VERTEX
  5
E7
  8
0
 10
66.9202
 20
31.772
 30
0.0
  0
VERTEX
  5
E8
  8
0
 10
66.9505
 20
31.8258
 30
0.0
  0
VERTEX
  5
E9
  8
0
 10
66.9505
 20
31.8423
 30
0.0
  0
VERTEX
  5
EA
  8
0
 10
66.9505
 20
37.8425
 30
0.0
  0
VERTEX
  5
EB
  8
0
 10
66.9505
 20
37.8601
 30
0.0
  0
VERTEX
  5
EC
  8
0
 10
66.9202
 20
37.9141
 30
0.0
  0
VERTEX
  5
ED
  8
0
 10
66.8666
 20
37.943
 30
0.0
  0
VERTEX
  5
EE
  8
0
 10
66.85
 20
37.943
 30
0.0
  0
VERTEX
  5
EF
  8
0
 10
63.85
 20
37.943
 30
0.0
  0
VERTEX
  5
F0
  8
0
 10
63.8665
 20
37.943
 30
0.0
  0
VERTEX
  5
F1
  8
0
 10
63.9202
 20
37.9141
 30
0.0
  0
VERTEX
  5
F2
  8
0
 10
63.9505
 20
37.8601
 30
0.0
  0
VERTEX
  5
F3
  8
0
 10
63.9505
 20
37.8425
 30
0.0
  0
VERTEX
  5
F4
  8
0
 10
63.9505
 20
43.8422
 30
0.0
  0
VERTEX
  5
F5
  8
0
 10
63.9505
 20
43.8256
 30
0.0
  0
VERTEX
  5
F6
  8
0
 10
63.9202
 20
43.772
 30
0.0
  0
VERTEX
  5
F7
  8
0
 10
63.8665
 20
43.7416
 30
0.0
  0
VERTEX
  5
F8
  8
0
 10
63.85
 20
43.7416
 30
0.0
  0
VERTEX
  5
F9
  8
0
 10
66.85
 20
43.7416
 30
0.0
  0
VERTEX
  5
FA
  8
0
 10
66.8666
 20
43.7416
 30
0.0
  0
VERTEX
  5
FB
  8
0
 10
66.9202
 20
43.772
 30
0.0
  0
VERTEX
  5
FC
  8
0
 10
66.9505
 20
43.8256
 30
0.0
  0
VERTEX
  5
FD
  8
0
 10
66.9505
 20
43.8422
 30
0.0
  0
VERTEX
  5
FE
  8
0
 10
66.9505
 20
49.8422
 30
0.0
  0
VERTEX
  5
FF
  8
0
 10
66.9505
 20
49.8602
 30
0.0
  0
VERTEX
  5
100
  8
0
 10
66.9202
 20
49.9138
 30
0.0
  0
VERTEX
  5
101
  8
0
 10
66.8666
 20
49.9428
 30
0.0
  0
VERTEX
  5
102
  8
0
 10
66.85
 20
49.9428
 30
0.0
  0
VERTEX
  5
103
  8
0
 10
63.85
 20
49.9428
 30
0.0
  0
VERTEX
  5
104
  8
0
 10
63.8665
 20
49.9428
 30
0.0
  0
VERTEX
  5
105
  8
0
 10
63.9202
 20
49.9138
 30
0.0
  0
VERTEX
  5
106
  8
0
 10
63.9505
 20
49.8602
 30
0.0
  0
VERTEX
  5
107
  8
0
 10
63.9505
 20
49.8422
 30
0.0
  0
VERTEX
  5
108
  8
0
 10
63.9505
 20
55.8423
 30
0.0
  0
VERTEX
  5
109
  8
0
 10
63.9505
 20
55.8257
 30
0.0
  0
VERTEX
  5
10A
  8
0
 10
63.9202
 20
55.772
 30
0.0
  0
VERTEX
  5
10B
  8
0
 10
63.8665
 20
55.7417
 30
0.0
  0
VERTEX
  5
10C
  8
0
 10
63.85
 20
55.7417
 30
0.0
  0
VERTEX
  5
10D
  8
0
 10
66.85
 20
55.7417
 30
0.0
  0
VERTEX
  5
10E
  8
0
 10
66.8666
 20
55.7417
 30
0.0
  0
VERTEX
  5
10F
  8
0
 10
66.9202
 20
55.772
 30
0.0
  0
VERTEX
  5
110
  8
0
 10
66.9505
 20
55.8257
 30
0.0
  0
VERTEX
  5
111
  8
0
 10
66.9505
 20
55.8423
 30
0.0
  0
VERTEX
  5
112
  8
0
 10
66.9505
 20
65.8428
 30
0.0
  0
VERTEX
  5
113
  8
0
 10
66.9505
 20
68.8428
 30
0.0
  0
VERTEX
  5
114
  8
0
 10
66.9505
 20
68.8605
 30
0.0
  0
VERTEX
  5
115
  8
0
 10
66.9202
 20
68.9144
 30
0.0
  0
VERTEX
  5
116
  8
0
 10
66.8666
 20
68.9434
 30
0.0
  0
VERTEX
  5
117
  8
0
 10
66.85
 20
68.9434
 30
0.0
  0
VERTEX
  5
118
  8
0
 10
63.85
 20
68.9434
 30
0.0
  0
VERTEX
  5
119
  8
0
 10
54.8499
 20
68.9434
 30
0.0
  0
VERTEX
  5
11A
  8
0
 10
54.8322
 20
68.9434
 30
0.0
  0
VERTEX
  5
11B
  8
0
 10
54.7783
 20
68.9144
 30
0.0
  0
VERTEX
  5
11C
  8
0
 10
54.7494
 20
68.8605
 30
0.0
  0
VERTEX
  5
11D
  8
0
 10
54.7494
 20
68.8428
 30
0.0
  0
VERTEX
  5
11E
  8
0
 10
54.7494
 20
65.8428
 30
0.0
  0
VERTEX
  5
11F
  8
0
 10
54.7494
 20
65.8604
 30
0.0
  0
VERTEX
  5
120
  8
0
 10
54.7783
 20
65.9144
 30
0.0
  0
VERTEX
  5
121
  8
0
 10
54.8322
 20
65.9433
 30
0.0
  0
VERTEX
  5
122
  8
0
 10
54.8499
 20
65.9433
 30
0.0
  0
VERTEX
  5
123
  8
0
 10
48.8502
 20
65.9433
 30
0.0
  0
VERTEX
  5
124
  8
0
 10
48.8668
 20
65.9433
 30
0.0
  0
VERTEX
  5
125
  8
0
 10
48.9204
 20
65.9144
 30
0.0
  0
VERTEX
  5
126
  8
0
 10
48.9507
 20
65.8604
 30
0.0
  0
VERTEX
  5
127
  8
0
 10
48.9507
 20
65.8428
 30
0.0
  0
VERTEX
  5
128
  8
0
 10
48.9507
 20
68.8428
 30
0.0
  0
VERTEX
  5
129
  8
0
 10
48.9507
 20
68.8605
 30
0.0
  0
VERTEX
  5
12A
  8
0
 10
48.9204
 20
68.9144
 30
0.0
  0
VERTEX
  5
12B
  8
0
 10
48.8668
 20
68.9434
 30
0.0
  0
VERTEX
  5
12C
  8
0
 10
48.8502
 20
68.9434
 30
0.0
  0
VERTEX
  5
12D
  8
0
 10
42.8502
 20
68.9434
 30
0.0
  0
VERTEX
  5
12E
  8
0
 10
42.8322
 20
68.9434
 30
0.0
  0
VERTEX
  5
12F
  8
0
 10
42.7785
 20
68.9144
 30
0.0
  0
VERTEX
  5
130
  8
0
 10
42.7496
 20
68.8605
 30
0.0
  0
VERTEX
  5
131
  8
0
 10
42.7496
 20
68.8428
 30
0.0
  0
VERTEX
  5
132
  8
0
 10
42.7496
 20
65.8428
 30
0.0
  0
VERTEX
  5
133
  8
0
 10
42.7496
 20
65.8604
 30
0.0
  0
VERTEX
  5
134
  8
0
 10
42.7785
 20
65.9144
 30
0.0
  0
VERTEX
  5
135
  8
0
 10
42.8322
 20
65.9433
 30
0.0
  0
VERTEX
  5
136
  8
0
 10
42.8502
 20
65.9433
 30
0.0
  0
VERTEX
  5
137
  8
0
 10
36.8501
 20
65.9433
 30
0.0
  0
VERTEX
  5
138
  8
0
 10
36.8667
 20
65.9433
 30
0.0
  0
VERTEX
  5
139
  8
0
 10
36.9203
 20
65.9144
 30
0.0
  0
VERTEX
  5
13A
  8
0
 10
36.9506
 20
65.8604
 30
0.0
  0
VERTEX
  5
13B
  8
0
 10
36.9506
 20
65.8428
 30
0.0
  0
VERTEX
  5
13C
  8
0
 10
36.9506
 20
68.8428
 30
0.0
  0
VERTEX
  5
13D
  8
0
 10
36.9506
 20
68.8605
 30
0.0
  0
VERTEX
  5
13E
  8
0
 10
36.9203
 20
68.9144
 30
0.0
  0
VERTEX
  5
13F
  8
0
 10
36.8667
 20
68.9434
 30
0.0
  0
VERTEX
  5
140
  8
0
 10
36.8501
 20
68.9434
 30
0.0
  0
VERTEX
  5
141
  8
0
 10
30.8501
 20
68.9434
 30
0.0
  0
VERTEX
  5
142
  8
0
 10
30.8322
 20
68.9434
 30
0.0
  0
VERTEX
  5
143
  8
0
 10
30.7785
 20
68.9144
 30
0.0
  0
VERTEX
  5
144
  8
0
 10
30.7496
 20
68.8605
 30
0.0
  0
VERTEX
  5
145
  8
0
 10
30.7496
 20
68.8428
 30
0.0
  0
VERTEX
  5
146
  8
0
 10
30.7496
 20
65.8428
 30
0.0
  0
VERTEX
  5
147
  8
0
 10
30.7496
 20
65.8604
 30
0.0
  0
VERTEX
  5
148
  8
0
 10
30.7785
 20
65.9144
 30
0.0
  0
VERTEX
  5
149
  8
0
 10
30.8322
 20
65.9433
 30
0.0
  0
VERTEX
  5
14A
  8
0
 10
30.8501
 20
65.9433
 30
0.0
  0
VERTEX
  5
14B
  8
0
 10
24.8502
 20
65.9433
 30
0.0
  0
VERTEX
  5
14C
  8
0
 10
24.8667
 20
65.9433
 30
0.0
  0
VERTEX
  5
14D
  8
0
 10
24.9204
 20
65.9144
 30
0.0
  0
VERTEX
  5
14E
  8
0
 10
24.9508
 20
65.8604
 30
0.0
  0
VERTEX
  5
14F
  8
0
 10
24.9508
 20
65.8428
 30
0.0
  0
VERTEX
  5
150
  8
0
 10
24.9508
 20
68.8428
 30
0.0
  0
VERTEX
  5
151
  8
0
 10
24.9508
 20
68.8605
 30
0.0
  0
VERTEX
  5
152
  8
0
 10
24.9204
 20
68.9144
 30
0.0
  0
VERTEX
  5
153
  8
0
 10
24.8667
 20
68.9434
 30
0.0
  0
VERTEX
  5
154
  8
0
 10
24.8502
 20
68.9434
 30
0.0
  0
VERTEX
  5
155
  8
0
 10
18.8502
 20
68.9434
 30
0.0
  0
VERTEX
  5
156
  8
0
 10
18.8323
 20
68.9434
 30
0.0
  0
VERTEX
  5
157
  8
0
 10
18.7785
 20
68.9144
 30
0.0
  0
VERTEX
  5
158
  8
0
 10
18.7496
 20
68.8605
 30
0.0
  0
VERTEX
  5
159
  8
0
 10
18.7496
 20
68.8428
 30
0.0
  0
VERTEX
  5
15A
  8
0
 10
18.7496
 20
65.8428
 30
0.0
  0
VERTEX
  5
15B
  8
0
 10
18.7496
 20
65.8604
 30
0.0
  0
VERTEX
  5
15C
  8
0
 10
18.7785
 20
65.9144
 30
0.0
  0
VERTEX
  5
15D
  8
0
 10
18.8323
 20
65.9433
 30
0.0
  0
VERTEX
  5
15E
  8
0
 10
18.8502
 20
65.9433
 30
0.0
  0
VERTEX
  5
15F
  8
0
 10
12.8502
 20
65.9433
 30
0.0
  0
VERTEX
  5
160
  8
0
 10
12.8668
 20
65.9433
 30
0.0
  0
VERTEX
  5
161
  8
0
 10
12.9205
 20
65.9144
 30
0.0
  0
VERTEX
  5
162
  8
0
 10
12.9508
 20
65.8604
 30
0.0
  0
VERTEX
  5
163
  8
0
 10
12.9508
 20
65.8428
 30
0.0
  0
VERTEX
  5
164
  8
0
 10
12.9508
 20
68.8428
 30
0.0
  0
VERTEX
  5
165
  8
0
 10
12.9508
 20
68.8605
 30
0.0
  0
VERTEX
  5
166
  8
0
 10
12.9205
 20
68.9144
 30
0.0
  0
VERTEX
  5
167
  8
0
 10
12.8668
 20
68.9434
 30
0.0
  0
VERTEX
  5
168
  8
0
 10
12.8502
 20
68.9434
 30
0.0
  0
VERTEX
  5
169
  8
0
 10
3.85025
 20
68.9434
 30
0.0
  0
VERTEX
  5
16A
  8
0
 10
0.850251
 20
68.9434
 30
0.0
  0
VERTEX
  5
16B
  8
0
 10
0.832337
 20
68.9434
 30
0.0
  0
VERTEX
  5
16C
  8
0
 10
0.778591
 20
68.9144
 30
0.0
  0
VERTEX
  5
16D
  8
0
 10
0.749653
 20
68.8605
 30
0.0
  0
VERTEX
  5
16E
  8
0
 10
0.749653
 20
68.8428
 30
0.0
  0
VERTEX
  5
16F
  8
0
 10
0.749653
 20
65.8428
 30
0.0
  0
VERTEX
  5
170
  8
0
 10
0.749653
 20
55.8423
 30
0.0
  0
VERTEX
  5
171
  8
0
 10
0.749653
 20
55.8257
 30
0.0
  0
VERTEX
  5
172
  8
0
 10
0.778591
 20
55.772
 30
0.0
  0
VERTEX
  5
173
  8
0
 10
0.832337
 20
55.7417
 30
0.0
  0
VERTEX
  5
174
  8
0
 10
0.850251
 20
55.7417
 30
0.0
  0
VERTEX
  5
175
  8
0
 10
3.85025
 20
55.7417
 30
0.0
  0
VERTEX
  5
176
  8
0
 10
3.83233
 20
55.7417
 30
0.0
  0
VERTEX
  5
177
  8
0
 10
3.77857
 20
55.772
 30
0.0
  0
VERTEX
  5
178
  8
0
 10
3.74964
 20
55.8257
 30
0.0
  0
VERTEX
  5
179
  8
0
 10
3.74964
 20
55.8423
 30
0.0
  0
VERTEX
  5
17A
  8
0
 10
3.74964
 20
49.8422
 30
0.0
  0
VERTEX
  5
17B
  8
0
 10
3.74964
 20
49.8602
 30
0.0
  0
VERTEX
  5
17C
  8
0
 10
3.77857
 20
49.9138
 30
0.0
  0
VERTEX
  5
17D
  8
0
 10
3.83233
 20
49.9428
 30
0.0
  0
VERTEX
  5
17E
  8
0
 10
3.85025
 20
49.9428
 30
0.0
  0
VERTEX
  5
17F
  8
0
 10
0.850251
 20
49.9428
 30
0.0
  0
VERTEX
  5
180
  8
0
 10
0.832337
 20
49.9428
 30
0.0
  0
VERTEX
  5
181
  8
0
 10
0.778591
 20
49.9138
 30
0.0
  0
VERTEX
  5
182
  8
0
 10
0.749653
 20
49.8602
 30
0.0
  0
VERTEX
  5
183
  8
0
 10
0.749653
 20
49.8422
 30
0.0
  0
VERTEX
  5
184
  8
0
 10
0.749653
 20
43.8422
 30
0.0
  0
VERTEX
  5
185
  8
0
 10
0.749653
 20
43.8256
 30
0.0
  0
VERTEX
  5
186
  8
0
 10
0.778591
 20
43.772
 30
0.0
  0
VERTEX
  5
187
  8
0
 10
0.832337
 20
43.7416
 30
0.0
  0
VERTEX
  5
188
  8
0
 10
0.850251
 20
43.7416
 30
0.0
  0
VERTEX
  5
189
  8
0
 10
3.85025
 20
43.7416
 30
0.0
  0
VERTEX
  5
18A
  8
0
 10
3.83233
 20
43.7416
 30
0.0
  0
VERTEX
  5
18B
  8
0
 10
3.77857
 20
43.772
 30
0.0
  0
VERTEX
  5
18C
  8
0
 10
3.74964
 20
43.8256
 30
0.0
  0
VERTEX
  5
18D
  8
0
 10
3.74964
 20
43.8422
 30
0.0
  0
VERTEX
  5
18E
  8
0
 10
3.74964
 20
37.8425
 30
0.0
  0
VERTEX
  5
18F
  8
0
 10
3.74964
 20
37.8601
 30
0.0
  0
VERTEX
  5
190
  8
0
 10
3.77857
 20
37.9141
 30
0.0
  0
VERTEX
  5
191
  8
0
 10
3.83233
 20
37.943
 30
0.0
  0
VERTEX
  5
192
  8
0
 10
3.85025
 20
37.943
 30
0.0
  0
VERTEX
  5
193
  8
0
 10
0.850251
 20
37.943
 30
0.0
  0
VERTEX
  5
194
  8
0
 10
0.832337
 20
37.943
 30
0.0
  0
VERTEX
  5
195
  8
0
 10
0.778591
 20
37.9141
 30
0.0
  0
VERTEX
  5
196
  8
0
 10
0.749653
 20
37.8601
 30
0.0
  0
VERTEX
  5
197
  8
0
 10
0.749653
 20
37.8425
 30
0.0
  0
VERTEX
  5
198
  8
0
 10
0.749653
 20
31.8423
 30
0.0
  0
VERTEX
  5
199
  8
0
 10
0.749653
 20
31.8258
 30
0.0
  0
VERTEX
  5
19A
  8
0
 10
0.778591
 20
31.772
 30
0.0
  0
VERTEX
  5
19B
  8
0
 10
0.832337
 20
31.7417
 30
0.0
  0
VERTEX
  5
19C
  8
0
 10
0.850251
 20
31.7417
 30
0.0
  0
VERTEX
  5
19D
  8
0
 10
3.85025
 20
31.7417
 30
0.0
  0
VERTEX
  5
19E
  8
0
 10
3.83233
 20
31.7417
 30
0.0
  0
VERTEX
  5
19F
  8
0
 10
3.77857
 20
31.772
 30
0.0
  0
VERTEX
  5
1A0
  8
0
 10
3.74964
 20
31.8258
 30
0.0
  0
VERTEX
  5
1A1
  8
0
 10
3.74964
 20
31.8423
 30
0.0
  0
VERTEX
  5
1A2
  8
0
 10
3.74964
 20
25.8423
 30
0.0
  0
VERTEX
  5
1A3
  8
0
 10
3.74964
 20
25.8603
 30
0.0
  0
VERTEX
  5
1A4
  8
0
 10
3.77857
 20
25.914
 30
0.0
  0
VERTEX
  5
1A5
  8
0
 10
3.83233
 20
25.943
 30
0.0
  0
VERTEX
  5
1A6
  8
0
 10
3.85025
 20
25.943
 30
0.0
  0
VERTEX
  5
1A7
  8
0
 10
0.850251
 20
25.943
 30
0.0
  0
VERTEX
  5
1A8
  8
0
 10
0.832337
 20
25.943
 30
0.0
  0
VERTEX
  5
1A9
  8
0
 10
0.778591
 20
25.914
 30
0.0
  0
VERTEX
  5
1AA
  8
0
 10
0.749653
 20
25.8603
 30
0.0
  0
VERTEX
  5
1AB
  8
0
 10
0.749653
 20
25.8423
 30
0.0
  0
VERTEX
  5
1AC
  8
0
 10
0.749653
 20
15.8419
 30
0.0
  0
VERTEX
  5
1AD
  8
0
 10
0.749653
 20
12.8419
 30
0.0
  0
VERTEX
  5
1AE
  8
0
 10
0.749653
 20
12.8254
 30
0.0
  0
VERTEX
  5
1AF
  8
0
 10
0.778591
 20
12.7716
 30
0.0
  0
VERTEX
  5
1B0
  8
0
 10
0.832337
 20
12.7413
 30
0.0
  0
VERTEX
  5
1B1
  8
0
 10
0.850251
 20
12.7413
 30
0.0
  0
SEQEND
  5
5B8
  8
0
  0
POLYLINE
  5
70
  8
0
 66
     1
 10
0.0
 20
0.0
 30
0.0
 70
     1
  0
VERTEX
  5
1B2
  8
0
 10
71.5504
 20
12.7413
 30
0.0
  0
VERTEX
  5
1B3
  8
0
 10
82.55
 20
12.7413
 30
0.0
  0
VERTEX
  5
1B4
  8
0
 10
82.5666
 20
12.7413
 30
0.0
  0
VERTEX
  5
1B5
  8
0
 10
82.6202
 20
12.7716
 30
0.0
  0
VERTEX
  5
1B6
  8
0
 10
82.6505
 20
12.8254
 30
0.0
  0
VERTEX
  5
1B7
  8
0
 10
82.6505
 20
12.8419
 30
0.0
  0
VERTEX
  5
1B8
  8
0
 10
82.6505
 20
15.8419
 30
0.0
  0
VERTEX
  5
1B9
  8
0
 10
82.6505
 20
15.8254
 30
0.0
  0
VERTEX
  5
1BA
  8
0
 10
82.6202
 20
15.7716
 30
0.0
  0
VERTEX
  5
1BB
  8
0
 10
82.5666
 20
15.7413
 30
0.0
  0
VERTEX
  5
1BC
  8
0
 10
82.55
 20
15.7413
 30
0.0
  0
VERTEX
  5
1BD
  8
0
 10
88.55
 20
15.7413
 30
0.0
  0
VERTEX
  5
1BE
  8
0
 10
88.5321
 20
15.7413
 30
0.0
  0
VERTEX
  5
1BF
  8
0
 10
88.4784
 20
15.7716
 30
0.0
  0
VERTEX
  5
1C0
  8
0
 10
88.4495
 20
15.8254
 30
0.0
  0
VERTEX
  5
1C1
  8
0
 10
88.4495
 20
15.8419
 30
0.0
  0
VERTEX
  5
1C2
  8
0
 10
88.4495
 20
12.8419
 30
0.0
  0
VERTEX
  5
1C3
  8
0
 10
88.4495
 20
12.8254
 30
0.0
  0
VERTEX
  5
1C4
  8
0
 10
88.4784
 20
12.7716
 30
0.0
  0
VERTEX
  5
1C5
  8
0
 10
88.5321
 20
12.7413
 30
0.0
  0
VERTEX
  5
1C6
  8
0
 10
88.55
 20
12.7413
 30
0.0
  0
VERTEX
  5
1C7
  8
0
 10
94.5501
 20
12.7413
 30
0.0
  0
VERTEX
  5
1C8
  8
0
 10
94.5667
 20
12.7413
 30
0.0
  0
VERTEX
  5
1C9
  8
0
 10
94.6203
 20
12.7716
 30
0.0
  0
VERTEX
  5
1CA
  8
0
 10
94.6506
 20
12.8254
 30
0.0
  0
VERTEX
  5
1CB
  8
0
 10
94.6506
 20
12.8419
 30
0.0
  0
VERTEX
  5
1CC
  8
0
 10
94.6506
 20
15.8419
 30
0.0
  0
VERTEX
  5
1CD
  8
0
 10
94.6506
 20
15.8254
 30
0.0
  0
VERTEX
  5
1CE
  8
0
 10
94.6203
 20
15.7716
 30
0.0
  0
VERTEX
  5
1CF
  8
0
 10
94.5667
 20
15.7413
 30
0.0
  0
VERTEX
  5
1D0
  8
0
 10
94.5501
 20
15.7413
 30
0.0
  0
VERTEX
  5
1D1
  8
0
 10
100.55
 20
15.7413
 30
0.0
  0
VERTEX
  5
1D2
  8
0
 10
100.532
 20
15.7413
 30
0.0
  0
VERTEX
  5
1D3
  8
0
 10
100.478
 20
15.7716
 30
0.0
  0
VERTEX
  5
1D4
  8
0
 10
100.449
 20
15.8254
 30
0.0
  0
VERTEX
  5
1D5
  8
0
 10
100.449
 20
15.8419
 30
0.0
  0
VERTEX
  5
1D6
  8
0
 10
100.449
 20
12.8419
 30
0.0
  0
VERTEX
  5
1D7
  8
0
 10
100.449
 20
12.8254
 30
0.0
  0
VERTEX
  5
1D8
  8
0
 10
100.478
 20
12.7716
 30
0.0
  0
VERTEX
  5
1D9
  8
0
 10
100.532
 20
12.7413
 30
0.0
  0
VERTEX
  5
1DA
  8
0
 10
100.55
 20
12.7413
 30
0.0
  0
VERTEX
  5
1DB
  8
0
 10
111.549
 20
12.7413
 30
0.0
  0
VERTEX
  5
1DC
  8
0
 10
111.566
 20
12.7413
 30
0.0
  0
VERTEX
  5
1DD
  8
0
 10
111.62
 20
12.7716
 30
0.0
  0
VERTEX
  5
1DE
  8
0
 10
111.65
 20
12.8254
 30
0.0
  0
VERTEX
  5
1DF
  8
0
 10
111.65
 20
12.8419
 30
0.0
  0
VERTEX
  5
1E0
  8
0
 10
111.65
 20
15.8419
 30
0.0
  0
VERTEX
  5
1E1
  8
0
 10
111.65
 20
25.8423
 30
0.0
  0
VERTEX
  5
1E2
  8
0
 10
111.65
 20
25.8258
 30
0.0
  0
VERTEX
  5
1E3
  8
0
 10
111.62
 20
25.7721
 30
0.0
  0
VERTEX
  5
1E4
  8
0
 10
111.566
 20
25.7418
 30
0.0
  0
VERTEX
  5
1E5
  8
0
 10
111.549
 20
25.7418
 30
0.0
  0
VERTEX
  5
1E6
  8
0
 10
114.549
 20
25.7418
 30
0.0
  0
VERTEX
  5
1E7
  8
0
 10
114.566
 20
25.7418
 30
0.0
  0
VERTEX
  5
1E8
  8
0
 10
114.62
 20
25.7721
 30
0.0
  0
VERTEX
  5
1E9
  8
0
 10
114.65
 20
25.8258
 30
0.0
  0
VERTEX
  5
1EA
  8
0
 10
114.65
 20
25.8423
 30
0.0
  0
VERTEX
  5
1EB
  8
0
 10
114.65
 20
31.8423
 30
0.0
  0
VERTEX
  5
1EC
  8
0
 10
114.65
 20
31.8602
 30
0.0
  0
VERTEX
  5
1ED
  8
0
 10
114.62
 20
31.914
 30
0.0
  0
VERTEX
  5
1EE
  8
0
 10
114.566
 20
31.9429
 30
0.0
  0
VERTEX
  5
1EF
  8
0
 10
114.549
 20
31.9429
 30
0.0
  0
VERTEX
  5
1F0
  8
0
 10
111.549
 20
31.9429
 30
0.0
  0
VERTEX
  5
1F1
  8
0
 10
111.566
 20
31.9429
 30
0.0
  0
VERTEX
  5
1F2
  8
0
 10
111.62
 20
31.914
 30
0.0
  0
VERTEX
  5
1F3
  8
0
 10
111.65
 20
31.8602
 30
0.0
  0
VERTEX
  5
1F4
  8
0
 10
111.65
 20
31.8423
 30
0.0
  0
VERTEX
  5
1F5
  8
0
 10
111.65
 20
37.8425
 30
0.0
  0
VERTEX
  5
1F6
  8
0
 10
111.65
 20
37.8259
 30
0.0
  0
VERTEX
  5
1F7
  8
0
 10
111.62
 20
37.7719
 30
0.0
  0
VERTEX
  5
1F8
  8
0
 10
111.566
 20
37.7416
 30
0.0
  0
VERTEX
  5
1F9
  8
0
 10
111.549
 20
37.7416
 30
0.0
  0
VERTEX
  5
1FA
  8
0
 10
114.549
 20
37.7416
 30
0.0
  0
VERTEX
  5
1FB
  8
0
 10
114.566
 20
37.7416
 30
0.0
  0
VERTEX
  5
1FC
  8
0
 10
114.62
 20
37.7719
 30
0.0
  0
VERTEX
  5
1FD
  8
0
 10
114.65
 20
37.8259
 30
0.0
  0
VERTEX
  5
1FE
  8
0
 10
114.65
 20
37.8425
 30
0.0
  0
VERTEX
  5
1FF
  8
0
 10
114.65
 20
43.8422
 30
0.0
  0
VERTEX
  5
200
  8
0
 10
114.65
 20
43.8602
 30
0.0
  0
VERTEX
  5
201
  8
0
 10
114.62
 20
43.9138
 30
0.0
  0
VERTEX
  5
202
  8
0
 10
114.566
 20
43.9431
 30
0.0
  0
VERTEX
  5
203
  8
0
 10
114.549
 20
43.9431
 30
0.0
  0
VERTEX
  5
204
  8
0
 10
111.549
 20
43.9431
 30
0.0
  0
VERTEX
  5
205
  8
0
 10
111.566
 20
43.9431
 30
0.0
  0
VERTEX
  5
206
  8
0
 10
111.62
 20
43.9138
 30
0.0
  0
VERTEX
  5
207
  8
0
 10
111.65
 20
43.8602
 30
0.0
  0
VERTEX
  5
208
  8
0
 10
111.65
 20
43.8422
 30
0.0
  0
VERTEX
  5
209
  8
0
 10
111.65
 20
49.8422
 30
0.0
  0
VERTEX
  5
20A
  8
0
 10
111.65
 20
49.8256
 30
0.0
  0
VERTEX
  5
20B
  8
0
 10
111.62
 20
49.772
 30
0.0
  0
VERTEX
  5
20C
  8
0
 10
111.566
 20
49.7417
 30
0.0
  0
VERTEX
  5
20D
  8
0
 10
111.549
 20
49.7417
 30
0.0
  0
VERTEX
  5
20E
  8
0
 10
114.549
 20
49.7417
 30
0.0
  0
VERTEX
  5
20F
  8
0
 10
114.566
 20
49.7417
 30
0.0
  0
VERTEX
  5
210
  8
0
 10
114.62
 20
49.772
 30
0.0
  0
VERTEX
  5
211
  8
0
 10
114.65
 20
49.8256
 30
0.0
  0
VERTEX
  5
212
  8
0
 10
114.65
 20
49.8422
 30
0.0
  0
VERTEX
  5
213
  8
0
 10
114.65
 20
55.8423
 30
0.0
  0
VERTEX
  5
214
  8
0
 10
114.65
 20
55.8602
 30
0.0
  0
VERTEX
  5
215
  8
0
 10
114.62
 20
55.9139
 30
0.0
  0
VERTEX
  5
216
  8
0
 10
114.566
 20
55.9428
 30
0.0
  0
VERTEX
  5
217
  8
0
 10
114.549
 20
55.9428
 30
0.0
  0
VERTEX
  5
218
  8
0
 10
111.549
 20
55.9428
 30
0.0
  0
VERTEX
  5
219
  8
0
 10
111.566
 20
55.9428
 30
0.0
  0
VERTEX
  5
21A
  8
0
 10
111.62
 20
55.9139
 30
0.0
  0
VERTEX
  5
21B
  8
0
 10
111.65
 20
55.8602
 30
0.0
  0
VERTEX
  5
21C
  8
0
 10
111.65
 20
55.8423
 30
0.0
  0
VERTEX
  5
21D
  8
0
 10
111.65
 20
65.8428
 30
0.0
  0
VERTEX
  5
21E
  8
0
 10
111.65
 20
68.8428
 30
0.0
  0
VERTEX
  5
21F
  8
0
 10
111.65
 20
68.8605
 30
0.0
  0
VERTEX
  5
220
  8
0
 10
111.62
 20
68.9144
 30
0.0
  0
VERTEX
  5
221
  8
0
 10
111.566
 20
68.9434
 30
0.0
  0
VERTEX
  5
222
  8
0
 10
111.549
 20
68.9434
 30
0.0
  0
VERTEX
  5
223
  8
0
 10
100.55
 20
68.9434
 30
0.0
  0
VERTEX
  5
224
  8
0
 10
100.532
 20
68.9434
 30
0.0
  0
VERTEX
  5
225
  8
0
 10
100.478
 20
68.9144
 30
0.0
  0
VERTEX
  5
226
  8
0
 10
100.449
 20
68.8605
 30
0.0
  0
VERTEX
  5
227
  8
0
 10
100.449
 20
68.8428
 30
0.0
  0
VERTEX
  5
228
  8
0
 10
100.449
 20
65.8428
 30
0.0
  0
VERTEX
  5
229
  8
0
 10
100.449
 20
65.8604
 30
0.0
  0
VERTEX
  5
22A
  8
0
 10
100.478
 20
65.9144
 30
0.0
  0
VERTEX
  5
22B
  8
0
 10
100.532
 20
65.9433
 30
0.0
  0
VERTEX
  5
22C
  8
0
 10
100.55
 20
65.9433
 30
0.0
  0
VERTEX
  5
22D
  8
0
 10
94.5501
 20
65.9433
 30
0.0
  0
VERTEX
  5
22E
  8
0
 10
94.5667
 20
65.9433
 30
0.0
  0
VERTEX
  5
22F
  8
0
 10
94.6203
 20
65.9144
 30
0.0
  0
VERTEX
  5
230
  8
0
 10
94.6506
 20
65.8604
 30
0.0
  0
VERTEX
  5
231
  8
0
 10
94.6506
 20
65.8428
 30
0.0
  0
VERTEX
  5
232
  8
0
 10
94.6506
 20
68.8428
 30
0.0
  0
VERTEX
  5
233
  8
0
 10
94.6506
 20
68.8605
 30
0.0
  0
VERTEX
  5
234
  8
0
 10
94.6203
 20
68.9144
 30
0.0
  0
VERTEX
  5
235
  8
0
 10
94.5667
 20
68.9434
 30
0.0
  0
VERTEX
  5
236
  8
0
 10
94.5501
 20
68.9434
 30
0.0
  0
VERTEX
  5
237
  8
0
 10
88.55
 20
68.9434
 30
0.0
  0
VERTEX
  5
238
  8
0
 10
88.5321
 20
68.9434
 30
0.0
  0
VERTEX
  5
239
  8
0
 10
88.4784
 20
68.9144
 30
0.0
  0
VERTEX
  5
23A
  8
0
 10
88.4495
 20
68.8605
 30
0.0
  0
VERTEX
  5
23B
  8
0
 10
88.4495
 20
68.8428
 30
0.0
  0
VERTEX
  5
23C
  8
0
 10
88.4495
 20
65.8428
 30
0.0
  0
VERTEX
  5
23D
  8
0
 10
88.4495
 20
65.8604
 30
0.0
  0
VERTEX
  5
23E
  8
0
 10
88.4784
 20
65.9144
 30
0.0
  0
VERTEX
  5
23F
  8
0
 10
88.5321
 20
65.9433
 30
0.0
  0
VERTEX
  5
240
  8
0
 10
88.55
 20
65.9433
 30
0.0
  0
VERTEX
  5
241
  8
0
 10
82.55
 20
65.9433
 30
0.0
  0
VERTEX
  5
242
  8
0
 10
82.5666
 20
65.9433
 30
0.0
  0
VERTEX
  5
243
  8
0
 10
82.6202
 20
65.9144
 30
0.0
  0
VERTEX
  5
244
  8
0
 10
82.6505
 20
65.8604
 30
0.0
  0
VERTEX
  5
245
  8
0
 10
82.6505
 20
65.8428
 30
0.0
  0
VERTEX
  5
246
  8
0
 10
82.6505
 20
68.8428
 30
0.0
  0
VERTEX
  5
247
  8
0
 10
82.6505
 20
68.8605
 30
0.0
  0
VERTEX
  5
248
  8
0
 10
82.6202
 20
68.9144
 30
0.0
  0
VERTEX
  5
249
  8
0
 10
82.5666
 20
68.9434
 30
0.0
  0
VERTEX
  5
24A
  8
0
 10
82.55
 20
68.9434
 30
0.0
  0
VERTEX
  5
24B
  8
0
 10
71.5504
 20
68.9434
 30
0.0
  0
VERTEX
  5
24C
  8
0
 10
71.5328
 20
68.9434
 30
0.0
  0
VERTEX
  5
24D
  8
0
 10
71.4788
 20
68.9144
 30
0.0
  0
VERTEX
  5
24E
  8
0
 10
71.4498
 20
68.8605
 30
0.0
  0
VERTEX
  5
24F
  8
0
 10
71.4498
 20
68.8428
 30
0.0
  0
VERTEX
  5
250
  8
0
 10
71.4498
 20
65.8428
 30
0.0
  0
VERTEX
  5
251
  8
0
 10
71.4498
 20
55.8423
 30
0.0
  0
VERTEX
  5
252
  8
0
 10
71.4498
 20
55.8602
 30
0.0
  0
VERTEX
  5
253
  8
0
 10
71.4788
 20
55.9139
 30
0.0
  0
VERTEX
  5
254
  8
0
 10
71.5328
 20
55.9428
 30
0.0
  0
VERTEX
  5
255
  8
0
 10
71.5504
 20
55.9428
 30
0.0
  0
VERTEX
  5
256
  8
0
 10
68.5504
 20
55.9428
 30
0.0
  0
VERTEX
  5
257
  8
0
 10
68.5327
 20
55.9428
 30
0.0
  0
VERTEX
  5
258
  8
0
 10
68.4788
 20
55.9139
 30
0.0
  0
VERTEX
  5
259
  8
0
 10
68.4498
 20
55.8602
 30
0.0
  0
VERTEX
  5
25A
  8
0
 10
68.4498
 20
55.8423
 30
0.0
  0
VERTEX
  5
25B
  8
0
 10
68.4498
 20
49.8422
 30
0.0
  0
VERTEX
  5
25C
  8
0
 10
68.4498
 20
49.8256
 30
0.0
  0
VERTEX
  5
25D
  8
0
 10
68.4788
 20
49.772
 30
0.0
  0
VERTEX
  5
25E
  8
0
 10
68.5327
 20
49.7417
 30
0.0
  0
VERTEX
  5
25F
  8
0
 10
68.5504
 20
49.7417
 30
0.0
  0
VERTEX
  5
260
  8
0
 10
71.5504
 20
49.7417
 30
0.0
  0
VERTEX
  5
261
  8
0
 10
71.5328
 20
49.7417
 30
0.0
  0
VERTEX
  5
262
  8
0
 10
71.4788
 20
49.772
 30
0.0
  0
VERTEX
  5
263
  8
0
 10
71.4498
 20
49.8256
 30
0.0
  0
VERTEX
  5
264
  8
0
 10
71.4498
 20
49.8422
 30
0.0
  0
VERTEX
  5
265
  8
0
 10
71.4498
 20
43.8422
 30
0.0
  0
VERTEX
  5
266
  8
0
 10
71.4498
 20
43.8602
 30
0.0
  0
VERTEX
  5
267
  8
0
 10
71.4788
 20
43.9138
 30
0.0
  0
VERTEX
  5
268
  8
0
 10
71.5328
 20
43.9431
 30
0.0
  0
VERTEX
  5
269
  8
0
 10
71.5504
 20
43.9431
 30
0.0
  0
VERTEX
  5
26A
  8
0
 10
68.5504
 20
43.9431
 30
0.0
  0
VERTEX
  5
26B
  8
0
 10
68.5327
 20
43.9431
 30
0.0
  0
VERTEX
  5
26C
  8
0
 10
68.4788
 20
43.9138
 30
0.0
  0
VERTEX
  5
26D
  8
0
 10
68.4498
 20
43.8602
 30
0.0
  0
VERTEX
  5
26E
  8
0
 10
68.4498
 20
43.8422
 30
0.0
  0
VERTEX
  5
26F
  8
0
 10
68.4498
 20
37.8425
 30
0.0
  0
VERTEX
  5
270
  8
0
 10
68.4498
 20
37.8259
 30
0.0
  0
VERTEX
  5
271
  8
0
 10
68.4788
 20
37.7719
 30
0.0
  0
VERTEX
  5
272
  8
0
 10
68.5327
 20
37.7416
 30
0.0
  0
VERTEX
  5
273
  8
0
 10
68.5504
 20
37.7416
 30
0.0
  0
VERTEX
  5
274
  8
0
 10
71.5504
 20
37.7416
 30
0.0
  0
VERTEX
  5
275
  8
0
 10
71.5328
 20
37.7416
 30
0.0
  0
VERTEX
  5
276
  8
0
 10
71.4788
 20
37.7719
 30
0.0
  0
VERTEX
  5
277
  8
0
 10
71.4498
 20
37.8259
 30
0.0
  0
VERTEX
  5
278
  8
0
 10
71.4498
 20
37.8425
 30
0.0
  0
VERTEX
  5
279
  8
0
 10
71.4498
 20
31.8423
 30
0.0
  0
VERTEX
  5
27A
  8
0
 10
71.4498
 20
31.8602
 30
0.0
  0
VERTEX
  5
27B
  8
0
 10
71.4788
 20
31.914
 30
0.0
  0
VERTEX
  5
27C
  8
0
 10
71.5328
 20
31.9429
 30
0.0
  0
VERTEX
  5
27D
  8
0
 10
71.5504
 20
31.9429
 30
0.0
  0
VERTEX
  5
27E
  8
0
 10
68.5504
 20
31.9429
 30
0.0
  0
VERTEX
  5
27F
  8
0
 10
68.5327
 20
31.9429
 30
0.0
  0
VERTEX
  5
280
  8
0
 10
68.4788
 20
31.914
 30
0.0
  0
VERTEX
  5
281
  8
0
 10
68.4498
 20
31.8602
 30
0.0
  0
VERTEX
  5
282
  8
0
 10
68.4498
 20
31.8423
 30
0.0
  0
VERTEX
  5
283
  8
0
 10
68.4498
 20
25.8423
 30
0.0
  0
VERTEX
  5
284
  8
0
 10
68.4498
 20
25.8258
 30
0.0
  0
VERTEX
  5
285
  8
0
 10
68.4788
 20
25.7721
 30
0.0
  0
VERTEX
  5
286
  8
0
 10
68.5327
 20
25.7418
 30
0.0
  0
VERTEX
  5
287
  8
0
 10
68.5504
 20
25.7418
 30
0.0
  0
VERTEX
  5
288
  8
0
 10
71.5504
 20
25.7418
 30
0.0
  0
VERTEX
  5
289
  8
0
 10
71.5328
 20
25.7418
 30
0.0
  0
VERTEX
  5
28A
  8
0
 10
71.4788
 20
25.7721
 30
0.0
  0
VERTEX
  5
28B
  8
0
 10
71.4498
 20
25.8258
 30
0.0
  0
VERTEX
  5
28C
  8
0
 10
71.4498
 20
25.8423
 30
0.0
  0
VERTEX
  5
28D
  8
0
 10
71.4498
 20
15.8419
 30
0.0
  0
VERTEX
  5
28E
  8
0
 10
71.4498
 20
12.8419
 30
0.0
  0
VERTEX
  5
28F
  8
0
 10
71.4498
 20
12.8254
 30
0.0
  0
VERTEX
  5
290
  8
0
 10
71.4788
 20
12.7716
 30
0.0
  0
VERTEX
  5
291
  8
0
 10
71.5328
 20
12.7413
 30
0.0
  0
SEQEND
  5
5B9
  8
0
  0
POLYLINE
  5
71
  8
0
 66
     1
 10
0.0
 20
0.0
 30
0.0
 70
     1
  0
VERTEX
  5
292
  8
0
 10
71.5504
 20
70.4413
 30
0.0
  0
VERTEX
  5
293
  8
0
 10
82.55
 20
70.4413
 30
0.0
  0
VERTEX
  5
294
  8
0
 10
82.5666
 20
70.4413
 30
0.0
  0
VERTEX
  5
295
  8
0
 10
82.6202
 20
70.4716
 30
0.0
  0
VERTEX
  5
296
  8
0
 10
82.6505
 20
70.5252
 30
0.0
  0
VERTEX
  5
297
  8
0
 10
82.6505
 20
70.5418
 30
0.0
  0
VERTEX
  5
298
  8
0
 10
82.6505
 20
73.5418
 30
0.0
  0
VERTEX
  5
299
  8
0
 10
82.6505
 20
73.5252
 30
0.0
  0
VERTEX
  5
29A
  8
0
 10
82.6202
 20
73.4716
 30
0.0
  0
VERTEX
  5
29B
  8
0
 10
82.5666
 20
73.4413
 30
0.0
  0
VERTEX
  5
29C
  8
0
 10
82.55
 20
73.4413
 30
0.0
  0
VERTEX
  5
29D
  8
0
 10
88.55
 20
73.4413
 30
0.0
  0
VERTEX
  5
29E
  8
0
 10
88.5321
 20
73.4413
 30
0.0
  0
VERTEX
  5
29F
  8
0
 10
88.4784
 20
73.4716
 30
0.0
  0
VERTEX
  5
2A0
  8
0
 10
88.4495
 20
73.5252
 30
0.0
  0
VERTEX
  5
2A1
  8
0
 10
88.4495
 20
73.5418
 30
0.0
  0
VERTEX
  5
2A2
  8
0
 10
88.4495
 20
70.5418
 30
0.0
  0
VERTEX
  5
2A3
  8
0
 10
88.4495
 20
70.5252
 30
0.0
  0
VERTEX
  5
2A4
  8
0
 10
88.4784
 20
70.4716
 30
0.0
  0
VERTEX
  5
2A5
  8
0
 10
88.5321
 20
70.4413
 30
0.0
  0
VERTEX
  5
2A6
  8
0
 10
88.55
 20
70.4413
 30
0.0
  0
VERTEX
  5
2A7
  8
0
 10
94.5501
 20
70.4413
 30
0.0
  0
VERTEX
  5
2A8
  8
0
 10
94.5667
 20
70.4413
 30
0.0
  0
VERTEX
  5
2A9
  8
0
 10
94.6203
 20
70.4716
 30
0.0
  0
VERTEX
  5
2AA
  8
0
 10
94.6506
 20
70.5252
 30
0.0
  0
VERTEX
  5
2AB
  8
0
 10
94.6506
 20
70.5418
 30
0.0
  0
VERTEX
  5
2AC
  8
0
 10
94.6506
 20
73.5418
 30
0.0
  0
VERTEX
  5
2AD
  8
0
 10
94.6506
 20
73.5252
 30
0.0
  0
VERTEX
  5
2AE
  8
0
 10
94.6203
 20
73.4716
 30
0.0
  0
VERTEX
  5
2AF
  8
0
 10
94.5667
 20
73.4413
 30
0.0
  0
VERTEX
  5
2B0
  8
0
 10
94.5501
 20
73.4413
 30
0.0
  0
VERTEX
  5
2B1
  8
0
 10
100.55
 20
73.4413
 30
0.0
  0
VERTEX
  5
2B2
  8
0
 10
100.532
 20
73.4413
 30
0.0
  0
VERTEX
  5
2B3
  8
0
 10
100.478
 20
73.4716
 30
0.0
  0
VERTEX
  5
2B4
  8
0
 10
100.449
 20
73.5252
 30
0.0
  0
VERTEX
  5
2B5
  8
0
 10
100.449
 20
73.5418
 30
0.0
  0
VERTEX
  5
2B6
  8
0
 10
100.449
 20
70.5418
 30
0.0
  0
VERTEX
  5
2B7
  8
0
 10
100.449
 20
70.5252
 30
0.0
  0
VERTEX
  5
2B8
  8
0
 10
100.478
 20
70.4716
 30
0.0
  0
VERTEX
  5
2B9
  8
0
 10
100.532
 20
70.4413
 30
0.0
  0
VERTEX
  5
2BA
  8
0
 10
100.55
 20
70.4413
 30
0.0
  0
VERTEX
  5
2BB
  8
0
 10
111.549
 20
70.4413
 30
0.0
  0
VERTEX
  5
2BC
  8
0
 10
111.566
 20
70.4413
 30
0.0
  0
VERTEX
  5
2BD
  8
0
 10
111.62
 20
70.4716
 30
0.0
  0
VERTEX
  5
2BE
  8
0
 10
111.65
 20
70.5252
 30
0.0
  0
VERTEX
  5
2BF
  8
0
 10
111.65
 20
70.5418
 30
0.0
  0
VERTEX
  5
2C0
  8
0
 10
111.65
 20
73.5418
 30
0.0
  0
VERTEX
  5
2C1
  8
0
 10
111.65
 20
83.5424
 30
0.0
  0
VERTEX
  5
2C2
  8
0
 10
111.65
 20
83.5258
 30
0.0
  0
VERTEX
  5
2C3
  8
0
 10
111.62
 20
83.4718
 30
0.0
  0
VERTEX
  5
2C4
  8
0
 10
111.566
 20
83.4415
 30
0.0
  0
VERTEX
  5
2C5
  8
0
 10
111.549
 20
83.4415
 30
0.0
  0
VERTEX
  5
2C6
  8
0
 10
114.549
 20
83.4415
 30
0.0
  0
VERTEX
  5
2C7
  8
0
 10
114.566
 20
83.4415
 30
0.0
  0
VERTEX
  5
2C8
  8
0
 10
114.62
 20
83.4718
 30
0.0
  0
VERTEX
  5
2C9
  8
0
 10
114.65
 20
83.5258
 30
0.0
  0
VERTEX
  5
2CA
  8
0
 10
114.65
 20
83.5424
 30
0.0
  0
VERTEX
  5
2CB
  8
0
 10
114.65
 20
89.5421
 30
0.0
  0
VERTEX
  5
2CC
  8
0
 10
114.65
 20
89.56
 30
0.0
  0
VERTEX
  5
2CD
  8
0
 10
114.62
 20
89.6137
 30
0.0
  0
VERTEX
  5
2CE
  8
0
 10
114.566
 20
89.6426
 30
0.0
  0
VERTEX
  5
2CF
  8
0
 10
114.549
 20
89.6426
 30
0.0
  0
VERTEX
  5
2D0
  8
0
 10
111.549
 20
89.6426
 30
0.0
  0
VERTEX
  5
2D1
  8
0
 10
111.566
 20
89.6426
 30
0.0
  0
VERTEX
  5
2D2
  8
0
 10
111.62
 20
89.6137
 30
0.0
  0
VERTEX
  5
2D3
  8
0
 10
111.65
 20
89.56
 30
0.0
  0
VERTEX
  5
2D4
  8
0
 10
111.65
 20
89.5421
 30
0.0
  0
VERTEX
  5
2D5
  8
0
 10
111.65
 20
95.5421
 30
0.0
  0
VERTEX
  5
2D6
  8
0
 10
111.65
 20
95.5255
 30
0.0
  0
VERTEX
  5
2D7
  8
0
 10
111.62
 20
95.4719
 30
0.0
  0
VERTEX
  5
2D8
  8
0
 10
111.566
 20
95.4416
 30
0.0
  0
VERTEX
  5
2D9
  8
0
 10
111.549
 20
95.4416
 30
0.0
  0
VERTEX
  5
2DA
  8
0
 10
114.549
 20
95.4416
 30
0.0
  0
VERTEX
  5
2DB
  8
0
 10
114.566
 20
95.4416
 30
0.0
  0
VERTEX
  5
2DC
  8
0
 10
114.62
 20
95.4719
 30
0.0
  0
VERTEX
  5
2DD
  8
0
 10
114.65
 20
95.5255
 30
0.0
  0
VERTEX
  5
2DE
  8
0
 10
114.65
 20
95.5421
 30
0.0
  0
VERTEX
  5
2DF
  8
0
 10
114.65
 20
101.542
 30
0.0
  0
VERTEX
  5
2E0
  8
0
 10
114.65
 20
101.56
 30
0.0
  0
VERTEX
  5
2E1
  8
0
 10
114.62
 20
101.614
 30
0.0
  0
VERTEX
  5
2E2
  8
0
 10
114.566
 20
101.643
 30
0.0
  0
VERTEX
  5
2E3
  8
0
 10
114.549
 20
101.643
 30
0.0
  0
VERTEX
  5
2E4
  8
0
 10
111.549
 20
101.643
 30
0.0
  0
VERTEX
  5
2E5
  8
0
 10
111.566
 20
101.643
 30
0.0
  0
VERTEX
  5
2E6
  8
0
 10
111.62
 20
101.614
 30
0.0
  0
VERTEX
  5
2E7
  8
0
 10
111.65
 20
101.56
 30
0.0
  0
VERTEX
  5
2E8
  8
0
 10
111.65
 20
101.542
 30
0.0
  0
VERTEX
  5
2E9
  8
0
 10
111.65
 20
107.542
 30
0.0
  0
VERTEX
  5
2EA
  8
0
 10
111.65
 20
107.526
 30
0.0
  0
VERTEX
  5
2EB
  8
0
 10
111.62
 20
107.472
 30
0.0
  0
VERTEX
  5
2EC
  8
0
 10
111.566
 20
107.442
 30
0.0
  0
VERTEX
  5
2ED
  8
0
 10
111.549
 20
107.442
 30
0.0
  0
VERTEX
  5
2EE
  8
0
 10
114.549
 20
107.442
 30
0.0
  0
VERTEX
  5
2EF
  8
0
 10
114.566
 20
107.442
 30
0.0
  0
VERTEX
  5
2F0
  8
0
 10
114.62
 20
107.472
 30
0.0
  0
VERTEX
  5
2F1
  8
0
 10
114.65
 20
107.526
 30
0.0
  0
VERTEX
  5
2F2
  8
0
 10
114.65
 20
107.542
 30
0.0
  0
VERTEX
  5
2F3
  8
0
 10
114.65
 20
113.542
 30
0.0
  0
VERTEX
  5
2F4
  8
0
 10
114.65
 20
113.56
 30
0.0
  0
VERTEX
  5
2F5
  8
0
 10
114.62
 20
113.614
 30
0.0
  0
VERTEX
  5
2F6
  8
0
 10
114.566
 20
113.643
 30
0.0
  0
VERTEX
  5
2F7
  8
0
 10
114.549
 20
113.643
 30
0.0
  0
VERTEX
  5
2F8
  8
0
 10
111.549
 20
113.643
 30
0.0
  0
VERTEX
  5
2F9
  8
0
 10
111.566
 20
113.643
 30
0.0
  0
VERTEX
  5
2FA
  8
0
 10
111.62
 20
113.614
 30
0.0
  0
VERTEX
  5
2FB
  8
0
 10
111.65
 20
113.56
 30
0.0
  0
VERTEX
  5
2FC
  8
0
 10
111.65
 20
113.542
 30
0.0
  0
VERTEX
  5
2FD
  8
0
 10
111.65
 20
123.542
 30
0.0
  0
VERTEX
  5
2FE
  8
0
 10
111.65
 20
126.542
 30
0.0
  0
VERTEX
  5
2FF
  8
0
 10
111.65
 20
126.56
 30
0.0
  0
VERTEX
  5
300
  8
0
 10
111.62
 20
126.614
 30
0.0
  0
VERTEX
  5
301
  8
0
 10
111.566
 20
126.643
 30
0.0
  0
VERTEX
  5
302
  8
0
 10
111.549
 20
126.643
 30
0.0
  0
VERTEX
  5
303
  8
0
 10
100.55
 20
126.643
 30
0.0
  0
VERTEX
  5
304
  8
0
 10
100.532
 20
126.643
 30
0.0
  0
VERTEX
  5
305
  8
0
 10
100.478
 20
126.614
 30
0.0
  0
VERTEX
  5
306
  8
0
 10
100.449
 20
126.56
 30
0.0
  0
VERTEX
  5
307
  8
0
 10
100.449
 20
126.542
 30
0.0
  0
VERTEX
  5
308
  8
0
 10
100.449
 20
123.542
 30
0.0
  0
VERTEX
  5
309
  8
0
 10
100.449
 20
123.56
 30
0.0
  0
VERTEX
  5
30A
  8
0
 10
100.478
 20
123.614
 30
0.0
  0
VERTEX
  5
30B
  8
0
 10
100.532
 20
123.643
 30
0.0
  0
VERTEX
  5
30C
  8
0
 10
100.55
 20
123.643
 30
0.0
  0
VERTEX
  5
30D
  8
0
 10
94.5501
 20
123.643
 30
0.0
  0
VERTEX
  5
30E
  8
0
 10
94.5667
 20
123.643
 30
0.0
  0
VERTEX
  5
30F
  8
0
 10
94.6203
 20
123.614
 30
0.0
  0
VERTEX
  5
310
  8
0
 10
94.6506
 20
123.56
 30
0.0
  0
VERTEX
  5
311
  8
0
 10
94.6506
 20
123.542
 30
0.0
  0
VERTEX
  5
312
  8
0
 10
94.6506
 20
126.542
 30
0.0
  0
VERTEX
  5
313
  8
0
 10
94.6506
 20
126.56
 30
0.0
  0
VERTEX
  5
314
  8
0
 10
94.6203
 20
126.614
 30
0.0
  0
VERTEX
  5
315
  8
0
 10
94.5667
 20
126.643
 30
0.0
  0
VERTEX
  5
316
  8
0
 10
94.5501
 20
126.643
 30
0.0
  0
VERTEX
  5
317
  8
0
 10
88.55
 20
126.643
 30
0.0
  0
VERTEX
  5
318
  8
0
 10
88.5321
 20
126.643
 30
0.0
  0
VERTEX
  5
319
  8
0
 10
88.4784
 20
126.614
 30
0.0
  0
VERTEX
  5
31A
  8
0
 10
88.4495
 20
126.56
 30
0.0
  0
VERTEX
  5
31B
  8
0
 10
88.4495
 20
126.542
 30
0.0
  0
VERTEX
  5
31C
  8
0
 10
88.4495
 20
123.542
 30
0.0
  0
VERTEX
  5
31D
  8
0
 10
88.4495
 20
123.56
 30
0.0
  0
VERTEX
  5
31E
  8
0
 10
88.4784
 20
123.614
 30
0.0
  0
VERTEX
  5
31F
  8
0
 10
88.5321
 20
123.643
 30
0.0
  0
VERTEX
  5
320
  8
0
 10
88.55
 20
123.643
 30
0.0
  0
VERTEX
  5
321
  8
0
 10
82.55
 20
123.643
 30
0.0
  0
VERTEX
  5
322
  8
0
 10
82.5666
 20
123.643
 30
0.0
  0
VERTEX
  5
323
  8
0
 10
82.6202
 20
123.614
 30
0.0
  0
VERTEX
  5
324
  8
0
 10
82.6505
 20
123.56
 30
0.0
  0
VERTEX
  5
325
  8
0
 10
82.6505
 20
123.542
 30
0.0
  0
VERTEX
  5
326
  8
0
 10
82.6505
 20
126.542
 30
0.0
  0
VERTEX
  5
327
  8
0
 10
82.6505
 20
126.56
 30
0.0
  0
VERTEX
  5
328
  8
0
 10
82.6202
 20
126.614
 30
0.0
  0
VERTEX
  5
329
  8
0
 10
82.5666
 20
126.643
 30
0.0
  0
VERTEX
  5
32A
  8
0
 10
82.55
 20
126.643
 30
0.0
  0
VERTEX
  5
32B
  8
0
 10
71.5504
 20
126.643
 30
0.0
  0
VERTEX
  5
32C
  8
0
 10
71.5328
 20
126.643
 30
0.0
  0
VERTEX
  5
32D
  8
0
 10
71.4788
 20
126.614
 30
0.0
  0
VERTEX
  5
32E
  8
0
 10
71.4498
 20
126.56
 30
0.0
  0
VERTEX
  5
32F
  8
0
 10
71.4498
 20
126.542
 30
0.0
  0
VERTEX
  5
330
  8
0
 10
71.4498
 20
123.542
 30
0.0
  0
VERTEX
  5
331
  8
0
 10
71.4498
 20
113.542
 30
0.0
  0
VERTEX
  5
332
  8
0
 10
71.4498
 20
113.56
 30
0.0
  0
VERTEX
  5
333
  8
0
 10
71.4788
 20
113.614
 30
0.0
  0
VERTEX
  5
334
  8
0
 10
71.5328
 20
113.643
 30
0.0
  0
VERTEX
  5
335
  8
0
 10
71.5504
 20
113.643
 30
0.0
  0
VERTEX
  5
336
  8
0
 10
68.5504
 20
113.643
 30
0.0
  0
VERTEX
  5
337
  8
0
 10
68.5327
 20
113.643
 30
0.0
  0
VERTEX
  5
338
  8
0
 10
68.4788
 20
113.614
 30
0.0
  0
VERTEX
  5
339
  8
0
 10
68.4498
 20
113.56
 30
0.0
  0
VERTEX
  5
33A
  8
0
 10
68.4498
 20
113.542
 30
0.0
  0
VERTEX
  5
33B
  8
0
 10
68.4498
 20
107.542
 30
0.0
  0
VERTEX
  5
33C
  8
0
 10
68.4498
 20
107.526
 30
0.0
  0
VERTEX
  5
33D
  8
0
 10
68.4788
 20
107.472
 30
0.0
  0
VERTEX
  5
33E
  8
0
 10
68.5327
 20
107.442
 30
0.0
  0
VERTEX
  5
33F
  8
0
 10
68.5504
 20
107.442
 30
0.0
  0
VERTEX
  5
340
  8
0
 10
71.5504
 20
107.442
 30
0.0
  0
VERTEX
  5
341
  8
0
 10
71.5328
 20
107.442
 30
0.0
  0
VERTEX
  5
342
  8
0
 10
71.4788
 20
107.472
 30
0.0
  0
VERTEX
  5
343
  8
0
 10
71.4498
 20
107.526
 30
0.0
  0
VERTEX
  5
344
  8
0
 10
71.4498
 20
107.542
 30
0.0
  0
VERTEX
  5
345
  8
0
 10
71.4498
 20
101.542
 30
0.0
  0
VERTEX
  5
346
  8
0
 10
71.4498
 20
101.56
 30
0.0
  0
VERTEX
  5
347
  8
0
 10
71.4788
 20
101.614
 30
0.0
  0
VERTEX
  5
348
  8
0
 10
71.5328
 20
101.643
 30
0.0
  0
VERTEX
  5
349
  8
0
 10
71.5504
 20
101.643
 30
0.0
  0
VERTEX
  5
34A
  8
0
 10
68.5504
 20
101.643
 30
0.0
  0
VERTEX
  5
34B
  8
0
 10
68.5327
 20
101.643
 30
0.0
  0
VERTEX
  5
34C
  8
0
 10
68.4788
 20
101.614
 30
0.0
  0
VERTEX
  5
34D
  8
0
 10
68.4498
 20
101.56
 30
0.0
  0
VERTEX
  5
34E
  8
0
 10
68.4498
 20
101.542
 30
0.0
  0
VERTEX
  5
34F
  8
0
 10
68.4498
 20
95.5421
 30
0.0
  0
VERTEX
  5
350
  8
0
 10
68.4498
 20
95.5255
 30
0.0
  0
VERTEX
  5
351
  8
0
 10
68.4788
 20
95.4719
 30
0.0
  0
VERTEX
  5
352
  8
0
 10
68.5327
 20
95.4416
 30
0.0
  0
VERTEX
  5
353
  8
0
 10
68.5504
 20
95.4416
 30
0.0
  0
VERTEX
  5
354
  8
0
 10
71.5504
 20
95.4416
 30
0.0
  0
VERTEX
  5
355
  8
0
 10
71.5328
 20
95.4416
 30
0.0
  0
VERTEX
  5
356
  8
0
 10
71.4788
 20
95.4719
 30
0.0
  0
VERTEX
  5
357
  8
0
 10
71.4498
 20
95.5255
 30
0.0
  0
VERTEX
  5
358
  8
0
 10
71.4498
 20
95.5421
 30
0.0
  0
VERTEX
  5
359
  8
0
 10
71.4498
 20
89.5421
 30
0.0
  0
VERTEX
  5
35A
  8
0
 10
71.4498
 20
89.56
 30
0.0
  0
VERTEX
  5
35B
  8
0
 10
71.4788
 20
89.6137
 30
0.0
  0
VERTEX
  5
35C
  8
0
 10
71.5328
 20
89.6426
 30
0.0
  0
VERTEX
  5
35D
  8
0
 10
71.5504
 20
89.6426
 30
0.0
  0
VERTEX
  5
35E
  8
0
 10
68.5504
 20
89.6426
 30
0.0
  0
VERTEX
  5
35F
  8
0
 10
68.5327
 20
89.6426
 30
0.0
  0
VERTEX
  5
360
  8
0
 10
68.4788
 20
89.6137
 30
0.0
  0
VERTEX
  5
361
  8
0
 10
68.4498
 20
89.56
 30
0.0
  0
VERTEX
  5
362
  8
0
 10
68.4498
 20
89.5421
 30
0.0
  0
VERTEX
  5
363
  8
0
 10
68.4498
 20
83.5424
 30
0.0
  0
VERTEX
  5
364
  8
0
 10
68.4498
 20
83.5258
 30
0.0
  0
VERTEX
  5
365
  8
0
 10
68.4788
 20
83.4718
 30
0.0
  0
VERTEX
  5
366
  8
0
 10
68.5327
 20
83.4415
 30
0.0
  0
VERTEX
  5
367
  8
0
 10
68.5504
 20
83.4415
 30
0.0
  0
VERTEX
  5
368
  8
0
 10
71.5504
 20
83.4415
 30
0.0
  0
VERTEX
  5
369
  8
0
 10
71.5328
 20
83.4415
 30
0.0
  0
VERTEX
  5
36A
  8
0
 10
71.4788
 20
83.4718
 30
0.0
  0
VERTEX
  5
36B
  8
0
 10
71.4498
 20
83.5258
 30
0.0
  0
VERTEX
  5
36C
  8
0
 10
71.4498
 20
83.5424
 30
0.0
  0
VERTEX
  5
36D
  8
0
 10
71.4498
 20
73.5418
 30
0.0
  0
VERTEX
  5
36E
  8
0
 10
71.4498
 20
70.5418
 30
0.0
  0
VERTEX
  5
36F
  8
0
 10
71.4498
 20
70.5252
 30
0.0
  0
VERTEX
  5
370
  8
0
 10
71.4788
 20
70.4716
 30
0.0
  0
VERTEX
  5
371
  8
0
 10
71.5328
 20
70.4413
 30
0.0
  0
SEQEND
  5
5BA
  8
0
  0
POLYLINE
  5
72
  8
0
 66
     1
 10
0.0
 20
0.0
 30
0.0
 70
     1
  0
VERTEX
  5
372
  8
0
 10
3.85025
 20
70.4413
 30
0.0
  0
VERTEX
  5
373
  8
0
 10
12.8502
 20
70.4413
 30
0.0
  0
VERTEX
  5
374
  8
0
 10
12.8668
 20
70.4413
 30
0.0
  0
VERTEX
  5
375
  8
0
 10
12.9205
 20
70.4716
 30
0.0
  0
VERTEX
  5
376
  8
0
 10
12.9508
 20
70.5252
 30
0.0
  0
VERTEX
  5
377
  8
0
 10
12.9508
 20
70.5418
 30
0.0
  0
VERTEX
  5
378
  8
0
 10
12.9508
 20
73.5418
 30
0.0
  0
VERTEX
  5
379
  8
0
 10
12.9508
 20
73.5252
 30
0.0
  0
VERTEX
  5
37A
  8
0
 10
12.9205
 20
73.4716
 30
0.0
  0
VERTEX
  5
37B
  8
0
 10
12.8668
 20
73.4413
 30
0.0
  0
VERTEX
  5
37C
  8
0
 10
12.8502
 20
73.4413
 30
0.0
  0
VERTEX
  5
37D
  8
0
 10
18.8502
 20
73.4413
 30
0.0
  0
VERTEX
  5
37E
  8
0
 10
18.8323
 20
73.4413
 30
0.0
  0
VERTEX
  5
37F
  8
0
 10
18.7785
 20
73.4716
 30
0.0
  0
VERTEX
  5
380
  8
0
 10
18.7496
 20
73.5252
 30
0.0
  0
VERTEX
  5
381
  8
0
 10
18.7496
 20
73.5418
 30
0.0
  0
VERTEX
  5
382
  8
0
 10
18.7496
 20
70.5418
 30
0.0
  0
VERTEX
  5
383
  8
0
 10
18.7496
 20
70.5252
 30
0.0
  0
VERTEX
  5
384
  8
0
 10
18.7785
 20
70.4716
 30
0.0
  0
VERTEX
  5
385
  8
0
 10
18.8323
 20
70.4413
 30
0.0
  0
VERTEX
  5
386
  8
0
 10
18.8502
 20
70.4413
 30
0.0
  0
VERTEX
  5
387
  8
0
 10
24.8502
 20
70.4413
 30
0.0
  0
VERTEX
  5
388
  8
0
 10
24.8667
 20
70.4413
 30
0.0
  0
VERTEX
  5
389
  8
0
 10
24.9204
 20
70.4716
 30
0.0
  0
VERTEX
  5
38A
  8
0
 10
24.9508
 20
70.5252
 30
0.0
  0
VERTEX
  5
38B
  8
0
 10
24.9508
 20
70.5418
 30
0.0
  0
VERTEX
  5
38C
  8
0
 10
24.9508
 20
73.5418
 30
0.0
  0
VERTEX
  5
38D
  8
0
 10
24.9508
 20
73.5252
 30
0.0
  0
VERTEX
  5
38E
  8
0
 10
24.9204
 20
73.4716
 30
0.0
  0
VERTEX
  5
38F
  8
0
 10
24.8667
 20
73.4413
 30
0.0
  0
VERTEX
  5
390
  8
0
 10
24.8502
 20
73.4413
 30
0.0
  0
VERTEX
  5
391
  8
0
 10
30.8501
 20
73.4413
 30
0.0
  0
VERTEX
  5
392
  8
0
 10
30.8322
 20
73.4413
 30
0.0
  0
VERTEX
  5
393
  8
0
 10
30.7785
 20
73.4716
 30
0.0
  0
VERTEX
  5
394
  8
0
 10
30.7496
 20
73.5252
 30
0.0
  0
VERTEX
  5
395
  8
0
 10
30.7496
 20
73.5418
 30
0.0
  0
VERTEX
  5
396
  8
0
 10
30.7496
 20
70.5418
 30
0.0
  0
VERTEX
  5
397
  8
0
 10
30.7496
 20
70.5252
 30
0.0
  0
VERTEX
  5
398
  8
0
 10
30.7785
 20
70.4716
 30
0.0
  0
VERTEX
  5
399
  8
0
 10
30.8322
 20
70.4413
 30
0.0
  0
VERTEX
  5
39A
  8
0
 10
30.8501
 20
70.4413
 30
0.0
  0
VERTEX
  5
39B
  8
0
 10
36.8501
 20
70.4413
 30
0.0
  0
VERTEX
  5
39C
  8
0
 10
36.8667
 20
70.4413
 30
0.0
  0
VERTEX
  5
39D
  8
0
 10
36.9203
 20
70.4716
 30
0.0
  0
VERTEX
  5
39E
  8
0
 10
36.9506
 20
70.5252
 30
0.0
  0
VERTEX
  5
39F
  8
0
 10
36.9506
 20
70.5418
 30
0.0
  0
VERTEX
  5
3A0
  8
0
 10
36.9506
 20
73.5418
 30
0.0
  0
VERTEX
  5
3A1
  8
0
 10
36.9506
 20
73.5252
 30
0.0
  0
VERTEX
  5
3A2
  8
0
 10
36.9203
 20
73.4716
 30
0.0
  0
VERTEX
  5
3A3
  8
0
 10
36.8667
 20
73.4413
 30
0.0
  0
VERTEX
  5
3A4
  8
0
 10
36.8501
 20
73.4413
 30
0.0
  0
VERTEX
  5
3A5
  8
0
 10
42.8502
 20
73.4413
 30
0.0
  0
VERTEX
  5
3A6
  8
0
 10
42.8322
 20
73.4413
 30
0.0
  0
VERTEX
  5
3A7
  8
0
 10
42.7785
 20
73.4716
 30
0.0
  0
VERTEX
  5
3A8
  8
0
 10
42.7496
 20
73.5252
 30
0.0
  0
VERTEX
  5
3A9
  8
0
 10
42.7496
 20
73.5418
 30
0.0
  0
VERTEX
  5
3AA
  8
0
 10
42.7496
 20
70.5418
 30
0.0
  0
VERTEX
  5
3AB
  8
0
 10
42.7496
 20
70.5252
 30
0.0
  0
VERTEX
  5
3AC
  8
0
 10
42.7785
 20
70.4716
 30
0.0
  0
VERTEX
  5
3AD
  8
0
 10
42.8322
 20
70.4413
 30
0.0
  0
VERTEX
  5
3AE
  8
0
 10
42.8502
 20
70.4413
 30
0.0
  0
VERTEX
  5
3AF
  8
0
 10
48.8502
 20
70.4413
 30
0.0
  0
VERTEX
  5
3B0
  8
0
 10
48.8668
 20
70.4413
 30
0.0
  0
VERTEX
  5
3B1
  8
0
 10
48.9204
 20
70.4716
 30
0.0
  0
VERTEX
  5
3B2
  8
0
 10
48.9507
 20
70.5252
 30
0.0
  0
VERTEX
  5
3B3
  8
0
 10
48.9507
 20
70.5418
 30
0.0
  0
VERTEX
  5
3B4
  8
0
 10
48.9507
 20
73.5418
 30
0.0
  0
VERTEX
  5
3B5
  8
0
 10
48.9507
 20
73.5252
 30
0.0
  0
VERTEX
  5
3B6
  8
0
 10
48.9204
 20
73.4716
 30
0.0
  0
VERTEX
  5
3B7
  8
0
 10
48.8668
 20
73.4413
 30
0.0
  0
VERTEX
  5
3B8
  8
0
 10
48.8502
 20
73.4413
 30
0.0
  0
VERTEX
  5
3B9
  8
0
 10
54.8499
 20
73.4413
 30
0.0
  0
VERTEX
  5
3BA
  8
0
 10
54.8322
 20
73.4413
 30
0.0
  0
VERTEX
  5
3BB
  8
0
 10
54.7783
 20
73.4716
 30
0.0
  0
VERTEX
  5
3BC
  8
0
 10
54.7494
 20
73.5252
 30
0.0
  0
VERTEX
  5
3BD
  8
0
 10
54.7494
 20
73.5418
 30
0.0
  0
VERTEX
  5
3BE
  8
0
 10
54.7494
 20
70.5418
 30
0.0
  0
VERTEX
  5
3BF
  8
0
 10
54.7494
 20
70.5252
 30
0.0
  0
VERTEX
  5
3C0
  8
0
 10
54.7783
 20
70.4716
 30
0.0
  0
VERTEX
  5
3C1
  8
0
 10
54.8322
 20
70.4413
 30
0.0
  0
VERTEX
  5
3C2
  8
0
 10
54.8499
 20
70.4413
 30
0.0
  0
VERTEX
  5
3C3
  8
0
 10
63.85
 20
70.4413
 30
0.0
  0
VERTEX
  5
3C4
  8
0
 10
66.85
 20
70.4413
 30
0.0
  0
VERTEX
  5
3C5
  8
0
 10
66.8666
 20
70.4413
 30
0.0
  0
VERTEX
  5
3C6
  8
0
 10
66.9202
 20
70.4716
 30
0.0
  0
VERTEX
  5
3C7
  8
0
 10
66.9505
 20
70.5252
 30
0.0
  0
VERTEX
  5
3C8
  8
0
 10
66.9505
 20
70.5418
 30
0.0
  0
VERTEX
  5
3C9
  8
0
 10
66.9505
 20
73.5418
 30
0.0
  0
VERTEX
  5
3CA
  8
0
 10
66.9505
 20
83.5424
 30
0.0
  0
VERTEX
  5
3CB
  8
0
 10
66.9505
 20
83.56
 30
0.0
  0
VERTEX
  5
3CC
  8
0
 10
66.9202
 20
83.614
 30
0.0
  0
VERTEX
  5
3CD
  8
0
 10
66.8666
 20
83.6429
 30
0.0
  0
VERTEX
  5
3CE
  8
0
 10
66.85
 20
83.6429
 30
0.0
  0
VERTEX
  5
3CF
  8
0
 10
63.85
 20
83.6429
 30
0.0
  0
VERTEX
  5
3D0
  8
0
 10
63.8665
 20
83.6429
 30
0.0
  0
VERTEX
  5
3D1
  8
0
 10
63.9202
 20
83.614
 30
0.0
  0
VERTEX
  5
3D2
  8
0
 10
63.9505
 20
83.56
 30
0.0
  0
VERTEX
  5
3D3
  8
0
 10
63.9505
 20
83.5424
 30
0.0
  0
VERTEX
  5
3D4
  8
0
 10
63.9505
 20
89.5421
 30
0.0
  0
VERTEX
  5
3D5
  8
0
 10
63.9505
 20
89.5255
 30
0.0
  0
VERTEX
  5
3D6
  8
0
 10
63.9202
 20
89.4719
 30
0.0
  0
VERTEX
  5
3D7
  8
0
 10
63.8665
 20
89.4415
 30
0.0
  0
VERTEX
  5
3D8
  8
0
 10
63.85
 20
89.4415
 30
0.0
  0
VERTEX
  5
3D9
  8
0
 10
66.85
 20
89.4415
 30
0.0
  0
VERTEX
  5
3DA
  8
0
 10
66.8666
 20
89.4415
 30
0.0
  0
VERTEX
  5
3DB
  8
0
 10
66.9202
 20
89.4719
 30
0.0
  0
VERTEX
  5
3DC
  8
0
 10
66.9505
 20
89.5255
 30
0.0
  0
VERTEX
  5
3DD
  8
0
 10
66.9505
 20
89.5421
 30
0.0
  0
VERTEX
  5
3DE
  8
0
 10
66.9505
 20
95.5421
 30
0.0
  0
VERTEX
  5
3DF
  8
0
 10
66.9505
 20
95.5601
 30
0.0
  0
VERTEX
  5
3E0
  8
0
 10
66.9202
 20
95.6137
 30
0.0
  0
VERTEX
  5
3E1
  8
0
 10
66.8666
 20
95.6426
 30
0.0
  0
VERTEX
  5
3E2
  8
0
 10
66.85
 20
95.6426
 30
0.0
  0
VERTEX
  5
3E3
  8
0
 10
63.85
 20
95.6426
 30
0.0
  0
VERTEX
  5
3E4
  8
0
 10
63.8665
 20
95.6426
 30
0.0
  0
VERTEX
  5
3E5
  8
0
 10
63.9202
 20
95.6137
 30
0.0
  0
VERTEX
  5
3E6
  8
0
 10
63.9505
 20
95.5601
 30
0.0
  0
VERTEX
  5
3E7
  8
0
 10
63.9505
 20
95.5421
 30
0.0
  0
VERTEX
  5
3E8
  8
0
 10
63.9505
 20
101.542
 30
0.0
  0
VERTEX
  5
3E9
  8
0
 10
63.9505
 20
101.526
 30
0.0
  0
VERTEX
  5
3EA
  8
0
 10
63.9202
 20
101.472
 30
0.0
  0
VERTEX
  5
3EB
  8
0
 10
63.8665
 20
101.442
 30
0.0
  0
VERTEX
  5
3EC
  8
0
 10
63.85
 20
101.442
 30
0.0
  0
VERTEX
  5
3ED
  8
0
 10
66.85
 20
101.442
 30
0.0
  0
VERTEX
  5
3EE
  8
0
 10
66.8666
 20
101.442
 30
0.0
  0
VERTEX
  5
3EF
  8
0
 10
66.9202
 20
101.472
 30
0.0
  0
VERTEX
  5
3F0
  8
0
 10
66.9505
 20
101.526
 30
0.0
  0
VERTEX
  5
3F1
  8
0
 10
66.9505
 20
101.542
 30
0.0
  0
VERTEX
  5
3F2
  8
0
 10
66.9505
 20
107.542
 30
0.0
  0
VERTEX
  5
3F3
  8
0
 10
66.9505
 20
107.56
 30
0.0
  0
VERTEX
  5
3F4
  8
0
 10
66.9202
 20
107.614
 30
0.0
  0
VERTEX
  5
3F5
  8
0
 10
66.8666
 20
107.643
 30
0.0
  0
VERTEX
  5
3F6
  8
0
 10
66.85
 20
107.643
 30
0.0
  0
VERTEX
  5
3F7
  8
0
 10
63.85
 20
107.643
 30
0.0
  0
VERTEX
  5
3F8
  8
0
 10
63.8665
 20
107.643
 30
0.0
  0
VERTEX
  5
3F9
  8
0
 10
63.9202
 20
107.614
 30
0.0
  0
VERTEX
  5
3FA
  8
0
 10
63.9505
 20
107.56
 30
0.0
  0
VERTEX
  5
3FB
  8
0
 10
63.9505
 20
107.542
 30
0.0
  0
VERTEX
  5
3FC
  8
0
 10
63.9505
 20
113.542
 30
0.0
  0
VERTEX
  5
3FD
  8
0
 10
63.9505
 20
113.526
 30
0.0
  0
VERTEX
  5
3FE
  8
0
 10
63.9202
 20
113.472
 30
0.0
  0
VERTEX
  5
3FF
  8
0
 10
63.8665
 20
113.441
 30
0.0
  0
VERTEX
  5
400
  8
0
 10
63.85
 20
113.441
 30
0.0
  0
VERTEX
  5
401
  8
0
 10
66.85
 20
113.441
 30
0.0
  0
VERTEX
  5
402
  8
0
 10
66.8666
 20
113.441
 30
0.0
  0
VERTEX
  5
403
  8
0
 10
66.9202
 20
113.472
 30
0.0
  0
VERTEX
  5
404
  8
0
 10
66.9505
 20
113.526
 30
0.0
  0
VERTEX
  5
405
  8
0
 10
66.9505
 20
113.542
 30
0.0
  0
VERTEX
  5
406
  8
0
 10
66.9505
 20
123.542
 30
0.0
  0
VERTEX
  5
407
  8
0
 10
66.9505
 20
126.542
 30
0.0
  0
VERTEX
  5
408
  8
0
 10
66.9505
 20
126.56
 30
0.0
  0
VERTEX
  5
409
  8
0
 10
66.9202
 20
126.614
 30
0.0
  0
VERTEX
  5
40A
  8
0
 10
66.8666
 20
126.643
 30
0.0
  0
VERTEX
  5
40B
  8
0
 10
66.85
 20
126.643
 30
0.0
  0
VERTEX
  5
40C
  8
0
 10
63.85
 20
126.643
 30
0.0
  0
VERTEX
  5
40D
  8
0
 10
54.8499
 20
126.643
 30
0.0
  0
VERTEX
  5
40E
  8
0
 10
54.8322
 20
126.643
 30
0.0
  0
VERTEX
  5
40F
  8
0
 10
54.7783
 20
126.614
 30
0.0
  0
VERTEX
  5
410
  8
0
 10
54.7494
 20
126.56
 30
0.0
  0
VERTEX
  5
411
  8
0
 10
54.7494
 20
126.542
 30
0.0
  0
VERTEX
  5
412
  8
0
 10
54.7494
 20
123.542
 30
0.0
  0
VERTEX
  5
413
  8
0
 10
54.7494
 20
123.56
 30
0.0
  0
VERTEX
  5
414
  8
0
 10
54.7783
 20
123.614
 30
0.0
  0
VERTEX
  5
415
  8
0
 10
54.8322
 20
123.643
 30
0.0
  0
VERTEX
  5
416
  8
0
 10
54.8499
 20
123.643
 30
0.0
  0
VERTEX
  5
417
  8
0
 10
48.8502
 20
123.643
 30
0.0
  0
VERTEX
  5
418
  8
0
 10
48.8668
 20
123.643
 30
0.0
  0
VERTEX
  5
419
  8
0
 10
48.9204
 20
123.614
 30
0.0
  0
VERTEX
  5
41A
  8
0
 10
48.9507
 20
123.56
 30
0.0
  0
VERTEX
  5
41B
  8
0
 10
48.9507
 20
123.542
 30
0.0
  0
VERTEX
  5
41C
  8
0
 10
48.9507
 20
126.542
 30
0.0
  0
VERTEX
  5
41D
  8
0
 10
48.9507
 20
126.56
 30
0.0
  0
VERTEX
  5
41E
  8
0
 10
48.9204
 20
126.614
 30
0.0
  0
VERTEX
  5
41F
  8
0
 10
48.8668
 20
126.643
 30
0.0
  0
VERTEX
  5
420
  8
0
 10
48.8502
 20
126.643
 30
0.0
  0
VERTEX
  5
421
  8
0
 10
42.8502
 20
126.643
 30
0.0
  0
VERTEX
  5
422
  8
0
 10
42.8322
 20
126.643
 30
0.0
  0
VERTEX
  5
423
  8
0
 10
42.7785
 20
126.614
 30
0.0
  0
VERTEX
  5
424
  8
0
 10
42.7496
 20
126.56
 30
0.0
  0
VERTEX
  5
425
  8
0
 10
42.7496
 20
126.542
 30
0.0
  0
VERTEX
  5
426
  8
0
 10
42.7496
 20
123.542
 30
0.0
  0
VERTEX
  5
427
  8
0
 10
42.7496
 20
123.56
 30
0.0
  0
VERTEX
  5
428
  8
0
 10
42.7785
 20
123.614
 30
0.0
  0
VERTEX
  5
429
  8
0
 10
42.8322
 20
123.643
 30
0.0
  0
VERTEX
  5
42A
  8
0
 10
42.8502
 20
123.643
 30
0.0
  0
VERTEX
  5
42B
  8
0
 10
36.8501
 20
123.643
 30
0.0
  0
VERTEX
  5
42C
  8
0
 10
36.8667
 20
123.643
 30
0.0
  0
VERTEX
  5
42D
  8
0
 10
36.9203
 20
123.614
 30
0.0
  0
VERTEX
  5
42E
  8
0
 10
36.9506
 20
123.56
 30
0.0
  0
VERTEX
  5
42F
  8
0
 10
36.9506
 20
123.542
 30
0.0
  0
VERTEX
  5
430
  8
0
 10
36.9506
 20
126.542
 30
0.0
  0
VERTEX
  5
431
  8
0
 10
36.9506
 20
126.56
 30
0.0
  0
VERTEX
  5
432
  8
0
 10
36.9203
 20
126.614
 30
0.0
  0
VERTEX
  5
433
  8
0
 10
36.8667
 20
126.643
 30
0.0
  0
VERTEX
  5
434
  8
0
 10
36.8501
 20
126.643
 30
0.0
  0
VERTEX
  5
435
  8
0
 10
30.8501
 20
126.643
 30
0.0
  0
VERTEX
  5
436
  8
0
 10
30.8322
 20
126.643
 30
0.0
  0
VERTEX
  5
437
  8
0
 10
30.7785
 20
126.614
 30
0.0
  0
VERTEX
  5
438
  8
0
 10
30.7496
 20
126.56
 30
0.0
  0
VERTEX
  5
439
  8
0
 10
30.7496
 20
126.542
 30
0.0
  0
VERTEX
  5
43A
  8
0
 10
30.7496
 20
123.542
 30
0.0
  0
VERTEX
  5
43B
  8
0
 10
30.7496
 20
123.56
 30
0.0
  0
VERTEX
  5
43C
  8
0
 10
30.7785
 20
123.614
 30
0.0
  0
VERTEX
  5
43D
  8
0
 10
30.8322
 20
123.643
 30
0.0
  0
VERTEX
  5
43E
  8
0
 10
30.8501
 20
123.643
 30
0.0
  0
VERTEX
  5
43F
  8
0
 10
24.8502
 20
123.643
 30
0.0
  0
VERTEX
  5
440
  8
0
 10
24.8667
 20
123.643
 30
0.0
  0
VERTEX
  5
441
  8
0
 10
24.9204
 20
123.614
 30
0.0
  0
VERTEX
  5
442
  8
0
 10
24.9508
 20
123.56
 30
0.0
  0
VERTEX
  5
443
  8
0
 10
24.9508
 20
123.542
 30
0.0
  0
VERTEX
  5
444
  8
0
 10
24.9508
 20
126.542
 30
0.0
  0
VERTEX
  5
445
  8
0
 10
24.9508
 20
126.56
 30
0.0
  0
VERTEX
  5
446
  8
0
 10
24.9204
 20
126.614
 30
0.0
  0
VERTEX
  5
447
  8
0
 10
24.8667
 20
126.643
 30
0.0
  0
VERTEX
  5
448
  8
0
 10
24.8502
 20
126.643
 30
0.0
  0
VERTEX
  5
449
  8
0
 10
18.8502
 20
126.643
 30
0.0
  0
VERTEX
  5
44A
  8
0
 10
18.8323
 20
126.643
 30
0.0
  0
VERTEX
  5
44B
  8
0
 10
18.7785
 20
126.614
 30
0.0
  0
VERTEX
  5
44C
  8
0
 10
18.7496
 20
126.56
 30
0.0
  0
VERTEX
  5
44D
  8
0
 10
18.7496
 20
126.542
 30
0.0
  0
VERTEX
  5
44E
  8
0
 10
18.7496
 20
123.542
 30
0.0
  0
VERTEX
  5
44F
  8
0
 10
18.7496
 20
123.56
 30
0.0
  0
VERTEX
  5
450
  8
0
 10
18.7785
 20
123.614
 30
0.0
  0
VERTEX
  5
451
  8
0
 10
18.8323
 20
123.643
 30
0.0
  0
VERTEX
  5
452
  8
0
 10
18.8502
 20
123.643
 30
0.0
  0
VERTEX
  5
453
  8
0
 10
12.8502
 20
123.643
 30
0.0
  0
VERTEX
  5
454
  8
0
 10
12.8668
 20
123.643
 30
0.0
  0
VERTEX
  5
455
  8
0
 10
12.9205
 20
123.614
 30
0.0
  0
VERTEX
  5
456
  8
0
 10
12.9508
 20
123.56
 30
0.0
  0
VERTEX
  5
457
  8
0
 10
12.9508
 20
123.542
 30
0.0
  0
VERTEX
  5
458
  8
0
 10
12.9508
 20
126.542
 30
0.0
  0
VERTEX
  5
459
  8
0
 10
12.9508
 20
126.56
 30
0.0
  0
VERTEX
  5
45A
  8
0
 10
12.9205
 20
126.614
 30
0.0
  0
VERTEX
  5
45B
  8
0
 10
12.8668
 20
126.643
 30
0.0
  0
VERTEX
  5
45C
  8
0
 10
12.8502
 20
126.643
 30
0.0
  0
VERTEX
  5
45D
  8
0
 10
3.85025
 20
126.643
 30
0.0
  0
VERTEX
  5
45E
  8
0
 10
0.850251
 20
126.643
 30
0.0
  0
VERTEX
  5
45F
  8
0
 10
0.832337
 20
126.643
 30
0.0
  0
VERTEX
  5
460
  8
0
 10
0.778591
 20
126.614
 30
0.0
  0
VERTEX
  5
461
  8
0
 10
0.749653
 20
126.56
 30
0.0
  0
VERTEX
  5
462
  8
0
 10
0.749653
 20
126.542
 30
0.0
  0
VERTEX
  5
463
  8
0
 10
0.749653
 20
123.542
 30
0.0
  0
VERTEX
  5
464
  8
0
 10
0.749653
 20
113.542
 30
0.0
  0
VERTEX
  5
465
  8
0
 10
0.749653
 20
113.526
 30
0.0
  0
VERTEX
  5
466
  8
0
 10
0.778591
 20
113.472
 30
0.0
  0
VERTEX
  5
467
  8
0
 10
0.832337
 20
113.441
 30
0.0
  0
VERTEX
  5
468
  8
0
 10
0.850251
 20
113.441
 30
0.0
  0
VERTEX
  5
469
  8
0
 10
3.85025
 20
113.441
 30
0.0
  0
VERTEX
  5
46A
  8
0
 10
3.83233
 20
113.441
 30
0.0
  0
VERTEX
  5
46B
  8
0
 10
3.77857
 20
113.472
 30
0.0
  0
VERTEX
  5
46C
  8
0
 10
3.74964
 20
113.526
 30
0.0
  0
VERTEX
  5
46D
  8
0
 10
3.74964
 20
113.542
 30
0.0
  0
VERTEX
  5
46E
  8
0
 10
3.74964
 20
107.542
 30
0.0
  0
VERTEX
  5
46F
  8
0
 10
3.74964
 20
107.56
 30
0.0
  0
VERTEX
  5
470
  8
0
 10
3.77857
 20
107.614
 30
0.0
  0
VERTEX
  5
471
  8
0
 10
3.83233
 20
107.643
 30
0.0
  0
VERTEX
  5
472
  8
0
 10
3.85025
 20
107.643
 30
0.0
  0
VERTEX
  5
473
  8
0
 10
0.850251
 20
107.643
 30
0.0
  0
VERTEX
  5
474
  8
0
 10
0.832337
 20
107.643
 30
0.0
  0
VERTEX
  5
475
  8
0
 10
0.778591
 20
107.614
 30
0.0
  0
VERTEX
  5
476
  8
0
 10
0.749653
 20
107.56
 30
0.0
  0
VERTEX
  5
477
  8
0
 10
0.749653
 20
107.542
 30
0.0
  0
VERTEX
  5
478
  8
0
 10
0.749653
 20
101.542
 30
0.0
  0
VERTEX
  5
479
  8
0
 10
0.749653
 20
101.526
 30
0.0
  0
VERTEX
  5
47A
  8
0
 10
0.778591
 20
101.472
 30
0.0
  0
VERTEX
  5
47B
  8
0
 10
0.832337
 20
101.442
 30
0.0
  0
VERTEX
  5
47C
  8
0
 10
0.850251
 20
101.442
 30
0.0
  0
VERTEX
  5
47D
  8
0
 10
3.85025
 20
101.442
 30
0.0
  0
VERTEX
  5
47E
  8
0
 10
3.83233
 20
101.442
 30
0.0
  0
VERTEX
  5
47F
  8
0
 10
3.77857
 20
101.472
 30
0.0
  0
VERTEX
  5
480
  8
0
 10
3.74964
 20
101.526
 30
0.0
  0
VERTEX
  5
481
  8
0
 10
3.74964
 20
101.542
 30
0.0
  0
VERTEX
  5
482
  8
0
 10
3.74964
 20
95.5421
 30
0.0
  0
VERTEX
  5
483
  8
0
 10
3.74964
 20
95.5601
 30
0.0
  0
VERTEX
  5
484
  8
0
 10
3.77857
 20
95.6137
 30
0.0
  0
VERTEX
  5
485
  8
0
 10
3.83233
 20
95.6426
 30
0.0
  0
VERTEX
  5
486
  8
0
 10
3.85025
 20
95.6426
 30
0.0
  0
VERTEX
  5
487
  8
0
 10
0.850251
 20
95.6426
 30
0.0
  0
VERTEX
  5
488
  8
0
 10
0.832337
 20
95.6426
 30
0.0
  0
VERTEX
  5
489
  8
0
 10
0.778591
 20
95.6137
 30
0.0
  0
VERTEX
  5
48A
  8
0
 10
0.749653
 20
95.5601
 30
0.0
  0
VERTEX
  5
48B
  8
0
 10
0.749653
 20
95.5421
 30
0.0
  0
VERTEX
  5
48C
  8
0
 10
0.749653
 20
89.5421
 30
0.0
  0
VERTEX
  5
48D
  8
0
 10
0.749653
 20
89.5255
 30
0.0
  0
VERTEX
  5
48E
  8
0
 10
0.778591
 20
89.4719
 30
0.0
  0
VERTEX
  5
48F
  8
0
 10
0.832337
 20
89.4415
 30
0.0
  0
VERTEX
  5
490
  8
0
 10
0.850251
 20
89.4415
 30
0.0
  0
VERTEX
  5
491
  8
0
 10
3.85025
 20
89.4415
 30
0.0
  0
VERTEX
  5
492
  8
0
 10
3.83233
 20
89.4415
 30
0.0
  0
VERTEX
  5
493
  8
0
 10
3.77857
 20
89.4719
 30
0.0
  0
VERTEX
  5
494
  8
0
 10
3.74964
 20
89.5255
 30
0.0
  0
VERTEX
  5
495
  8
0
 10
3.74964
 20
89.5421
 30
0.0
  0
VERTEX
  5
496
  8
0
 10
3.74964
 20
83.5424
 30
0.0
  0
VERTEX
  5
497
  8
0
 10
3.74964
 20
83.56
 30
0.0
  0
VERTEX
  5
498
  8
0
 10
3.77857
 20
83.614
 30
0.0
  0
VERTEX
  5
499
  8
0
 10
3.83233
 20
83.6429
 30
0.0
  0
VERTEX
  5
49A
  8
0
 10
3.85025
 20
83.6429
 30
0.0
  0
VERTEX
  5
49B
  8
0
 10
0.850251
 20
83.6429
 30
0.0
  0
VERTEX
  5
49C
  8
0
 10
0.832337
 20
83.6429
 30
0.0
  0
VERTEX
  5
49D
  8
0
 10
0.778591
 20
83.614
 30
0.0
  0
VERTEX
  5
49E
  8
0
 10
0.749653
 20
83.56
 30
0.0
  0
VERTEX
  5
49F
  8
0
 10
0.749653
 20
83.5424
 30
0.0
  0
VERTEX
  5
4A0
  8
0
 10
0.749653
 20
73.5418
 30
0.0
  0
VERTEX
  5
4A1
  8
0
 10
0.749653
 20
70.5418
 30
0.0
  0
VERTEX
  5
4A2
  8
0
 10
0.749653
 20
70.5252
 30
0.0
  0
VERTEX
  5
4A3
  8
0
 10
0.778591
 20
70.4716
 30
0.0
  0
VERTEX
  5
4A4
  8
0
 10
0.832337
 20
70.4413
 30
0.0
  0
VERTEX
  5
4A5
  8
0
 10
0.850251
 20
70.4413
 30
0.0
  0
SEQEND
  5
5BB
  8
0
  0
POLYLINE
  5
73
  8
0
 66
     1
 10
0.0
 20
0.0
 30
0.0
 70
     1
  0
VERTEX
  5
4A6
  8
0
 10
71.5504
 20
131.141
 30
0.0
  0
VERTEX
  5
4A7
  8
0
 10
80.5505
 20
131.141
 30
0.0
  0
VERTEX
  5
4A8
  8
0
 10
80.5325
 20
131.141
 30
0.0
  0
VERTEX
  5
4A9
  8
0
 10
80.4788
 20
131.171
 30
0.0
  0
VERTEX
  5
4AA
  8
0
 10
80.4499
 20
131.225
 30
0.0
  0
VERTEX
  5
4AB
  8
0
 10
80.4499
 20
131.241
 30
0.0
  0
VERTEX
  5
4AC
  8
0
 10
80.4499
 20
128.242
 30
0.0
  0
VERTEX
  5
4AD
  8
0
 10
80.4499
 20
128.225
 30
0.0
  0
VERTEX
  5
4AE
  8
0
 10
80.4788
 20
128.171
 30
0.0
  0
VERTEX
  5
4AF
  8
0
 10
80.5325
 20
128.141
 30
0.0
  0
VERTEX
  5
4B0
  8
0
 10
80.5505
 20
128.141
 30
0.0
  0
VERTEX
  5
4B1
  8
0
 10
86.5505
 20
128.141
 30
0.0
  0
VERTEX
  5
4B2
  8
0
 10
86.5671
 20
128.141
 30
0.0
  0
VERTEX
  5
4B3
  8
0
 10
86.6207
 20
128.171
 30
0.0
  0
VERTEX
  5
4B4
  8
0
 10
86.651
 20
128.225
 30
0.0
  0
VERTEX
  5
4B5
  8
0
 10
86.651
 20
128.242
 30
0.0
  0
VERTEX
  5
4B6
  8
0
 10
86.651
 20
131.241
 30
0.0
  0
VERTEX
  5
4B7
  8
0
 10
86.651
 20
131.225
 30
0.0
  0
VERTEX
  5
4B8
  8
0
 10
86.6207
 20
131.171
 30
0.0
  0
VERTEX
  5
4B9
  8
0
 10
86.5671
 20
131.141
 30
0.0
  0
VERTEX
  5
4BA
  8
0
 10
86.5505
 20
131.141
 30
0.0
  0
VERTEX
  5
4BB
  8
0
 10
92.5505
 20
131.141
 30
0.0
  0
VERTEX
  5
4BC
  8
0
 10
92.5326
 20
131.141
 30
0.0
  0
VERTEX
  5
4BD
  8
0
 10
92.4789
 20
131.171
 30
0.0
  0
VERTEX
  5
4BE
  8
0
 10
92.45
 20
131.225
 30
0.0
  0
VERTEX
  5
4BF
  8
0
 10
92.45
 20
131.241
 30
0.0
  0
VERTEX
  5
4C0
  8
0
 10
92.45
 20
128.242
 30
0.0
  0
VERTEX
  5
4C1
  8
0
 10
92.45
 20
128.225
 30
0.0
  0
VERTEX
  5
4C2
  8
0
 10
92.4789
 20
128.171
 30
0.0
  0
VERTEX
  5
4C3
  8
0
 10
92.5326
 20
128.141
 30
0.0
  0
VERTEX
  5
4C4
  8
0
 10
92.5505
 20
128.141
 30
0.0
  0
VERTEX
  5
4C5
  8
0
 10
98.5502
 20
128.141
 30
0.0
  0
VERTEX
  5
4C6
  8
0
 10
98.5668
 20
128.141
 30
0.0
  0
VERTEX
  5
4C7
  8
0
 10
98.6208
 20
128.171
 30
0.0
  0
VERTEX
  5
4C8
  8
0
 10
98.6511
 20
128.225
 30
0.0
  0
VERTEX
  5
4C9
  8
0
 10
98.6511
 20
128.242
 30
0.0
  0
VERTEX
  5
4CA
  8
0
 10
98.6511
 20
131.241
 30
0.0
  0
VERTEX
  5
4CB
  8
0
 10
98.6511
 20
131.225
 30
0.0
  0
VERTEX
  5
4CC
  8
0
 10
98.6208
 20
131.171
 30
0.0
  0
VERTEX
  5
4CD
  8
0
 10
98.5668
 20
131.141
 30
0.0
  0
VERTEX
  5
4CE
  8
0
 10
98.5502
 20
131.141
 30
0.0
  0
VERTEX
  5
4CF
  8
0
 10
104.55
 20
131.141
 30
0.0
  0
VERTEX
  5
4D0
  8
0
 10
104.533
 20
131.141
 30
0.0
  0
VERTEX
  5
4D1
  8
0
 10
104.479
 20
131.171
 30
0.0
  0
VERTEX
  5
4D2
  8
0
 10
104.45
 20
131.225
 30
0.0
  0
VERTEX
  5
4D3
  8
0
 10
104.45
 20
131.241
 30
0.0
  0
VERTEX
  5
4D4
  8
0
 10
104.45
 20
128.242
 30
0.0
  0
VERTEX
  5
4D5
  8
0
 10
104.45
 20
128.225
 30
0.0
  0
VERTEX
  5
4D6
  8
0
 10
104.479
 20
128.171
 30
0.0
  0
VERTEX
  5
4D7
  8
0
 10
104.533
 20
128.141
 30
0.0
  0
VERTEX
  5
4D8
  8
0
 10
104.55
 20
128.141
 30
0.0
  0
VERTEX
  5
4D9
  8
0
 10
110.55
 20
128.141
 30
0.0
  0
VERTEX
  5
4DA
  8
0
 10
110.567
 20
128.141
 30
0.0
  0
VERTEX
  5
4DB
  8
0
 10
110.621
 20
128.171
 30
0.0
  0
VERTEX
  5
4DC
  8
0
 10
110.651
 20
128.225
 30
0.0
  0
VERTEX
  5
4DD
  8
0
 10
110.651
 20
128.242
 30
0.0
  0
VERTEX
  5
4DE
  8
0
 10
110.651
 20
131.241
 30
0.0
  0
VERTEX
  5
4DF
  8
0
 10
110.651
 20
131.225
 30
0.0
  0
VERTEX
  5
4E0
  8
0
 10
110.621
 20
131.171
 30
0.0
  0
VERTEX
  5
4E1
  8
0
 10
110.567
 20
131.141
 30
0.0
  0
VERTEX
  5
4E2
  8
0
 10
110.55
 20
131.141
 30
0.0
  0
VERTEX
  5
4E3
  8
0
 10
116.55
 20
131.141
 30
0.0
  0
VERTEX
  5
4E4
  8
0
 10
116.532
 20
131.141
 30
0.0
  0
VERTEX
  5
4E5
  8
0
 10
116.479
 20
131.171
 30
0.0
  0
VERTEX
  5
4E6
  8
0
 10
116.45
 20
131.225
 30
0.0
  0
VERTEX
  5
4E7
  8
0
 10
116.45
 20
131.241
 30
0.0
  0
VERTEX
  5
4E8
  8
0
 10
116.45
 20
128.242
 30
0.0
  0
VERTEX
  5
4E9
  8
0
 10
116.45
 20
128.225
 30
0.0
  0
VERTEX
  5
4EA
  8
0
 10
116.479
 20
128.171
 30
0.0
  0
VERTEX
  5
4EB
  8
0
 10
116.532
 20
128.141
 30
0.0
  0
VERTEX
  5
4EC
  8
0
 10
116.55
 20
128.141
 30
0.0
  0
VERTEX
  5
4ED
  8
0
 10
122.55
 20
128.141
 30
0.0
  0
VERTEX
  5
4EE
  8
0
 10
122.567
 20
128.141
 30
0.0
  0
VERTEX
  5
4EF
  8
0
 10
122.621
 20
128.171
 30
0.0
  0
VERTEX
  5
4F0
  8
0
 10
122.651
 20
128.225
 30
0.0
  0
VERTEX
  5
4F1
  8
0
 10
122.651
 20
128.242
 30
0.0
  0
VERTEX
  5
4F2
  8
0
 10
122.651
 20
131.241
 30
0.0
  0
VERTEX
  5
4F3
  8
0
 10
122.651
 20
131.225
 30
0.0
  0
VERTEX
  5
4F4
  8
0
 10
122.621
 20
131.171
 30
0.0
  0
VERTEX
  5
4F5
  8
0
 10
122.567
 20
131.141
 30
0.0
  0
VERTEX
  5
4F6
  8
0
 10
122.55
 20
131.141
 30
0.0
  0
VERTEX
  5
4F7
  8
0
 10
131.55
 20
131.141
 30
0.0
  0
VERTEX
  5
4F8
  8
0
 10
131.567
 20
131.141
 30
0.0
  0
VERTEX
  5
4F9
  8
0
 10
131.621
 20
131.171
 30
0.0
  0
VERTEX
  5
4FA
  8
0
 10
131.651
 20
131.225
 30
0.0
  0
VERTEX
  5
4FB
  8
0
 10
131.651
 20
131.241
 30
0.0
  0
VERTEX
  5
4FC
  8
0
 10
131.651
 20
142.241
 30
0.0
  0
VERTEX
  5
4FD
  8
0
 10
131.651
 20
142.224
 30
0.0
  0
VERTEX
  5
4FE
  8
0
 10
131.621
 20
142.171
 30
0.0
  0
VERTEX
  5
4FF
  8
0
 10
131.567
 20
142.141
 30
0.0
  0
VERTEX
  5
500
  8
0
 10
131.55
 20
142.141
 30
0.0
  0
VERTEX
  5
501
  8
0
 10
134.55
 20
142.141
 30
0.0
  0
VERTEX
  5
502
  8
0
 10
134.567
 20
142.141
 30
0.0
  0
VERTEX
  5
503
  8
0
 10
134.621
 20
142.171
 30
0.0
  0
VERTEX
  5
504
  8
0
 10
134.651
 20
142.224
 30
0.0
  0
VERTEX
  5
505
  8
0
 10
134.651
 20
142.241
 30
0.0
  0
VERTEX
  5
506
  8
0
 10
134.651
 20
148.241
 30
0.0
  0
VERTEX
  5
507
  8
0
 10
134.651
 20
148.259
 30
0.0
  0
VERTEX
  5
508
  8
0
 10
134.621
 20
148.313
 30
0.0
  0
VERTEX
  5
509
  8
0
 10
134.567
 20
148.342
 30
0.0
  0
VERTEX
  5
50A
  8
0
 10
134.55
 20
148.342
 30
0.0
  0
VERTEX
  5
50B
  8
0
 10
131.55
 20
148.342
 30
0.0
  0
VERTEX
  5
50C
  8
0
 10
131.567
 20
148.342
 30
0.0
  0
VERTEX
  5
50D
  8
0
 10
131.621
 20
148.313
 30
0.0
  0
VERTEX
  5
50E
  8
0
 10
131.651
 20
148.259
 30
0.0
  0
VERTEX
  5
50F
  8
0
 10
131.651
 20
148.241
 30
0.0
  0
VERTEX
  5
510
  8
0
 10
131.651
 20
154.241
 30
0.0
  0
VERTEX
  5
511
  8
0
 10
131.651
 20
154.225
 30
0.0
  0
VERTEX
  5
512
  8
0
 10
131.621
 20
154.171
 30
0.0
  0
VERTEX
  5
513
  8
0
 10
131.567
 20
154.141
 30
0.0
  0
VERTEX
  5
514
  8
0
 10
131.55
 20
154.141
 30
0.0
  0
VERTEX
  5
515
  8
0
 10
134.55
 20
154.141
 30
0.0
  0
VERTEX
  5
516
  8
0
 10
134.567
 20
154.141
 30
0.0
  0
VERTEX
  5
517
  8
0
 10
134.621
 20
154.171
 30
0.0
  0
VERTEX
  5
518
  8
0
 10
134.651
 20
154.225
 30
0.0
  0
VERTEX
  5
519
  8
0
 10
134.651
 20
154.241
 30
0.0
  0
VERTEX
  5
51A
  8
0
 10
134.651
 20
160.241
 30
0.0
  0
VERTEX
  5
51B
  8
0
 10
134.651
 20
160.259
 30
0.0
  0
VERTEX
  5
51C
  8
0
 10
134.621
 20
160.313
 30
0.0
  0
VERTEX
  5
51D
  8
0
 10
134.567
 20
160.342
 30
0.0
  0
VERTEX
  5
51E
  8
0
 10
134.55
 20
160.342
 30
0.0
  0
VERTEX
  5
51F
  8
0
 10
131.55
 20
160.342
 30
0.0
  0
VERTEX
  5
520
  8
0
 10
131.567
 20
160.342
 30
0.0
  0
VERTEX
  5
521
  8
0
 10
131.621
 20
160.313
 30
0.0
  0
VERTEX
  5
522
  8
0
 10
131.651
 20
160.259
 30
0.0
  0
VERTEX
  5
523
  8
0
 10
131.651
 20
160.241
 30
0.0
  0
VERTEX
  5
524
  8
0
 10
131.651
 20
171.24
 30
0.0
  0
VERTEX
  5
525
  8
0
 10
131.651
 20
171.258
 30
0.0
  0
VERTEX
  5
526
  8
0
 10
131.621
 20
171.312
 30
0.0
  0
VERTEX
  5
527
  8
0
 10
131.567
 20
171.341
 30
0.0
  0
VERTEX
  5
528
  8
0
 10
131.55
 20
171.341
 30
0.0
  0
VERTEX
  5
529
  8
0
 10
122.55
 20
171.341
 30
0.0
  0
VERTEX
  5
52A
  8
0
 10
122.567
 20
171.341
 30
0.0
  0
VERTEX
  5
52B
  8
0
 10
122.621
 20
171.312
 30
0.0
  0
VERTEX
  5
52C
  8
0
 10
122.651
 20
171.258
 30
0.0
  0
VERTEX
  5
52D
  8
0
 10
122.651
 20
171.24
 30
0.0
  0
VERTEX
  5
52E
  8
0
 10
122.651
 20
174.24
 30
0.0
  0
VERTEX
  5
52F
  8
0
 10
122.651
 20
174.258
 30
0.0
  0
VERTEX
  5
530
  8
0
 10
122.621
 20
174.312
 30
0.0
  0
VERTEX
  5
531
  8
0
 10
122.567
 20
174.341
 30
0.0
  0
VERTEX
  5
532
  8
0
 10
122.55
 20
174.341
 30
0.0
  0
VERTEX
  5
533
  8
0
 10
116.55
 20
174.341
 30
0.0
  0
VERTEX
  5
534
  8
0
 10
116.532
 20
174.341
 30
0.0
  0
VERTEX
  5
535
  8
0
 10
116.479
 20
174.312
 30
0.0
  0
VERTEX
  5
536
  8
0
 10
116.45
 20
174.258
 30
0.0
  0
VERTEX
  5
537
  8
0
 10
116.45
 20
174.24
 30
0.0
  0
VERTEX
  5
538
  8
0
 10
116.45
 20
171.24
 30
0.0
  0
VERTEX
  5
539
  8
0
 10
116.45
 20
171.258
 30
0.0
  0
VERTEX
  5
53A
  8
0
 10
116.479
 20
171.312
 30
0.0
  0
VERTEX
  5
53B
  8
0
 10
116.532
 20
171.341
 30
0.0
  0
VERTEX
  5
53C
  8
0
 10
116.55
 20
171.341
 30
0.0
  0
VERTEX
  5
53D
  8
0
 10
110.55
 20
171.341
 30
0.0
  0
VERTEX
  5
53E
  8
0
 10
110.567
 20
171.341
 30
0.0
  0
VERTEX
  5
53F
  8
0
 10
110.621
 20
171.312
 30
0.0
  0
VERTEX
  5
540
  8
0
 10
110.651
 20
171.258
 30
0.0
  0
VERTEX
  5
541
  8
0
 10
110.651
 20
171.24
 30
0.0
  0
VERTEX
  5
542
  8
0
 10
110.651
 20
174.24
 30
0.0
  0
VERTEX
  5
543
  8
0
 10
110.651
 20
174.258
 30
0.0
  0
VERTEX
  5
544
  8
0
 10
110.621
 20
174.312
 30
0.0
  0
VERTEX
  5
545
  8
0
 10
110.567
 20
174.341
 30
0.0
  0
VERTEX
  5
546
  8
0
 10
110.55
 20
174.341
 30
0.0
  0
VERTEX
  5
547
  8
0
 10
104.55
 20
174.341
 30
0.0
  0
VERTEX
  5
548
  8
0
 10
104.533
 20
174.341
 30
0.0
  0
VERTEX
  5
549
  8
0
 10
104.479
 20
174.312
 30
0.0
  0
VERTEX
  5
54A
  8
0
 10
104.45
 20
174.258
 30
0.0
  0
VERTEX
  5
54B
  8
0
 10
104.45
 20
174.24
 30
0.0
  0
VERTEX
  5
54C
  8
0
 10
104.45
 20
171.24
 30
0.0
  0
VERTEX
  5
54D
  8
0
 10
104.45
 20
171.258
 30
0.0
  0
VERTEX
  5
54E
  8
0
 10
104.479
 20
171.312
 30
0.0
  0
VERTEX
  5
54F
  8
0
 10
104.533
 20
171.341
 30
0.0
  0
VERTEX
  5
550
  8
0
 10
104.55
 20
171.341
 30
0.0
  0
VERTEX
  5
551
  8
0
 10
98.5502
 20
171.341
 30
0.0
  0
VERTEX
  5
552
  8
0
 10
98.5668
 20
171.341
 30
0.0
  0
VERTEX
  5
553
  8
0
 10
98.6208
 20
171.312
 30
0.0
  0
VERTEX
  5
554
  8
0
 10
98.6511
 20
171.258
 30
0.0
  0
VERTEX
  5
555
  8
0
 10
98.6511
 20
171.24
 30
0.0
  0
VERTEX
  5
556
  8
0
 10
98.6511
 20
174.24
 30
0.0
  0
VERTEX
  5
557
  8
0
 10
98.6511
 20
174.258
 30
0.0
  0
VERTEX
  5
558
  8
0
 10
98.6208
 20
174.312
 30
0.0
  0
VERTEX
  5
559
  8
0
 10
98.5668
 20
174.341
 30
0.0
  0
VERTEX
  5
55A
  8
0
 10
98.5502
 20
174.341
 30
0.0
  0
VERTEX
  5
55B
  8
0
 10
92.5505
 20
174.341
 30
0.0
  0
VERTEX
  5
55C
  8
0
 10
92.5326
 20
174.341
 30
0.0
  0
VERTEX
  5
55D
  8
0
 10
92.4789
 20
174.312
 30
0.0
  0
VERTEX
  5
55E
  8
0
 10
92.45
 20
174.258
 30
0.0
  0
VERTEX
  5
55F
  8
0
 10
92.45
 20
174.24
 30
0.0
  0
VERTEX
  5
560
  8
0
 10
92.45
 20
171.24
 30
0.0
  0
VERTEX
  5
561
  8
0
 10
92.45
 20
171.258
 30
0.0
  0
VERTEX
  5
562
  8
0
 10
92.4789
 20
171.312
 30
0.0
  0
VERTEX
  5
563
  8
0
 10
92.5326
 20
171.341
 30
0.0
  0
VERTEX
  5
564
  8
0
 10
92.5505
 20
171.341
 30
0.0
  0
VERTEX
  5
565
  8
0
 10
86.5505
 20
171.341
 30
0.0
  0
VERTEX
  5
566
  8
0
 10
86.5671
 20
171.341
 30
0.0
  0
VERTEX
  5
567
  8
0
 10
86.6207
 20
171.312
 30
0.0
  0
VERTEX
  5
568
  8
0
 10
86.651
 20
171.258
 30
0.0
  0
VERTEX
  5
569
  8
0
 10
86.651
 20
171.24
 30
0.0
  0
VERTEX
  5
56A
  8
0
 10
86.651
 20
174.24
 30
0.0
  0
VERTEX
  5
56B
  8
0
 10
86.651
 20
174.258
 30
0.0
  0
VERTEX
  5
56C
  8
0
 10
86.6207
 20
174.312
 30
0.0
  0
VERTEX
  5
56D
  8
0
 10
86.5671
 20
174.341
 30
0.0
  0
VERTEX
  5
56E
  8
0
 10
86.5505
 20
174.341
 30
0.0
  0
VERTEX
  5
56F
  8
0
 10
80.5505
 20
174.341
 30
0.0
  0
VERTEX
  5
570
  8
0
 10
80.5325
 20
174.341
 30
0.0
  0
VERTEX
  5
571
  8
0
 10
80.4788
 20
174.312
 30
0.0
  0
VERTEX
  5
572
  8
0
 10
80.4499
 20
174.258
 30
0.0
  0
VERTEX
  5
573
  8
0
 10
80.4499
 20
174.24
 30
0.0
  0
VERTEX
  5
574
  8
0
 10
80.4499
 20
171.24
 30
0.0
  0
VERTEX
  5
575
  8
0
 10
80.4499
 20
171.258
 30
0.0
  0
VERTEX
  5
576
  8
0
 10
80.4788
 20
171.312
 30
0.0
  0
VERTEX
  5
577
  8
0
 10
80.5325
 20
171.341
 30
0.0
  0
VERTEX
  5
578
  8
0
 10
80.5505
 20
171.341
 30
0.0
  0
VERTEX
  5
579
  8
0
 10
71.5504
 20
171.341
 30
0.0
  0
VERTEX
  5
57A
  8
0
 10
71.5328
 20
171.341
 30
0.0
  0
VERTEX
  5
57B
  8
0
 10
71.4788
 20
171.312
 30
0.0
  0
VERTEX
  5
57C
  8
0
 10
71.4498
 20
171.258
 30
0.0
  0
VERTEX
  5
57D
  8
0
 10
71.4498
 20
171.24
 30
0.0
  0
VERTEX
  5
57E
  8
0
 10
71.4498
 20
160.241
 30
0.0
  0
VERTEX
  5
57F
  8
0
 10
71.4498
 20
160.259
 30
0.0
  0
VERTEX
  5
580
  8
0
 10
71.4788
 20
160.313
 30
0.0
  0
VERTEX
  5
581
  8
0
 10
71.5328
 20
160.342
 30
0.0
  0
VERTEX
  5
582
  8
0
 10
71.5504
 20
160.342
 30
0.0
  0
VERTEX
  5
583
  8
0
 10
68.5504
 20
160.342
 30
0.0
  0
VERTEX
  5
584
  8
0
 10
68.5327
 20
160.342
 30
0.0
  0
VERTEX
  5
585
  8
0
 10
68.4788
 20
160.313
 30
0.0
  0
VERTEX
  5
586
  8
0
 10
68.4498
 20
160.259
 30
0.0
  0
VERTEX
  5
587
  8
0
 10
68.4498
 20
160.241
 30
0.0
  0
VERTEX
  5
588
  8
0
 10
68.4498
 20
154.241
 30
0.0
  0
VERTEX
  5
589
  8
0
 10
68.4498
 20
154.225
 30
0.0
  0
VERTEX
  5
58A
  8
0
 10
68.4788
 20
154.171
 30
0.0
  0
VERTEX
  5
58B
  8
0
 10
68.5327
 20
154.141
 30
0.0
  0
VERTEX
  5
58C
  8
0
 10
68.5504
 20
154.141
 30
0.0
  0
VERTEX
  5
58D
  8
0
 10
71.5504
 20
154.141
 30
0.0
  0
VERTEX
  5
58E
  8
0
 10
71.5328
 20
154.141
 30
0.0
  0
VERTEX
  5
58F
  8
0
 10
71.4788
 20
154.171
 30
0.0
  0
VERTEX
  5
590
  8
0
 10
71.4498
 20
154.225
 30
0.0
  0
VERTEX
  5
591
  8
0
 10
71.4498
 20
154.241
 30
0.0
  0
VERTEX
  5
592
  8
0
 10
71.4498
 20
148.241
 30
0.0
  0
VERTEX
  5
593
  8
0
 10
71.4498
 20
148.259
 30
0.0
  0
VERTEX
  5
594
  8
0
 10
71.4788
 20
148.313
 30
0.0
  0
VERTEX
  5
595
  8
0
 10
71.5328
 20
148.342
 30
0.0
  0
VERTEX
  5
596
  8
0
 10
71.5504
 20
148.342
 30
0.0
  0
VERTEX
  5
597
  8
0
 10
68.5504
 20
148.342
 30
0.0
  0
VERTEX
  5
598
  8
0
 10
68.5327
 20
148.342
 30
0.0
  0
VERTEX
  5
599
  8
0
 10
68.4788
 20
148.313
 30
0.0
  0
VERTEX
  5
59A
  8
0
 10
68.4498
 20
148.259
 30
0.0
  0
VERTEX
  5
59B
  8
0
 10
68.4498
 20
148.241
 30
0.0
  0
VERTEX
  5
59C
  8
0
 10
68.4498
 20
142.241
 30
0.0
  0
VERTEX
  5
59D
  8
0
 10
68.4498
 20
142.224
 30
0.0
  0
VERTEX
  5
59E
  8
0
 10
68.4788
 20
142.171
 30
0.0
  0
VERTEX
  5
59F
  8
0
 10
68.5327
 20
142.141
 30
0.0
  0
VERTEX
  5
5A0
  8
0
 10
68.5504
 20
142.141
 30
0.0
  0
VERTEX
  5
5A1
  8
0
 10
71.5504
 20
142.141
 30
0.0
  0
VERTEX
  5
5A2
  8
0
 10
71.5328
 20
142.141
 30
0.0
  0
VERTEX
  5
5A3
  8
0
 10
71.4788
 20
142.171
 30
0.0
  0
VERTEX
  5
5A4
  8
0
 10
71.4498
 20
142.224
 30
0.0
  0
VERTEX
  5
5A5
  8
0
 10
71.4498
 20
142.241
 30
0.0
  0
VERTEX
  5
5A6
  8
0
 10
71.4498
 20
131.241
 30
0.0
  0
VERTEX
  5
5A7
  8
0
 10
71.4498
 20
131.225
 30
0.0
  0
VERTEX
  5
5A8
  8
0
 10
71.4788
 20
131.171
 30
0.0
  0
VERTEX
  5
5A9
  8
0
 10
71.5328
 20
131.141
 30
0.0
  0
SEQEND
  5
5BC
  8
0
  0
POLYLINE
  5
74
  8
0
 66
     1
 10
0.0
 20
0.0
 30
0.0
 70
     1
  0
VERTEX
  5
5AA
  8
0
 10
14.69607589598971
 20
101.7858504158616
 30
0.0
 42
0.4142135623730951
  0
VERTEX
  5
5AB
  8
0
 10
10.94607589598971
 20
98.03585041586162
 30
0.0
 42
0.4142135623730951
  0
VERTEX
  5
5AC
  8
0
 10
14.69607589598971
 20
94.28585041586162
 30
0.0
 42
0.4142135623730951
  0
VERTEX
  5
5AD
  8
0
 10
18.44607589598971
 20
98.03585041586162
 30
0.0
 42
0.4142135623730951
  0
SEQEND
  5
5BD
  8
0
  0
POLYLINE
  5
75
  8
0
 66
     1
 10
0.0
 20
0.0
 30
0.0
 70
     1
  0
VERTEX
  5
5AE
  8
0
 10
35.05071021134594
 20
101.7858504158616
 30
0.0
 42
0.4142135623730951
  0
VERTEX
  5
5AF
  8
0
 10
31.30071021134594
 20
98.03585041586162
 30
0.0
 42
0.4142135623730951
  0
VERTEX
  5
5B0
  8
0
 10
35.05071021134594
 20
94.28585041586162
 30
0.0
 42
0.4142135623730951
  0
VERTEX
  5
5B1
  8
0
 10
38.80071021134595
 20
98.03585041586162
 30
0.0
 42
0.4142135623730951
  0
SEQEND
  5
5BE
  8
0
  0
POLYLINE
  5
76
  8
0
 66
     1
 10
0.0
 20
0.0
 30
0.0
 70
     1
  0
VERTEX
  5
5B2
  8
0
 10
55.40534452670219
 20
101.7858504158616
 30
0.0
 42
0.4142135623730951
  0
VERTEX
  5
5B3
  8
0
 10
51.65534452670218
 20
98.03585041586162
 30
0.0
 42
0.4142135623730951
  0
VERTEX
  5
5B4
  8
0
 10
55.40534452670219
 20
94.28585041586162
 30
0.0
 42
0.4142135623730951
  0
VERTEX
  5
5B5
  8
0
 10
59.15534452670219
 20
98.03585041586162
 30
0.0
 42
0.4142135623730951
  0
SEQEND
  5
5BF
  8
0
  0
ENDSEC
  0
EOF
