  0
SECTION
  2
HEADER
  9
$ACADVER
  1
AC1009
  9
$DWGCODEPAGE
  3
ansi_1252
  9
$INSBASE
 10
0.0
 20
0.0
 30
0.0
  9
$EXTMIN
 10
1705.884915655178
 20
-541.9894703039519
 30
0.0
  9
$EXTMAX
 10
1804.860119865992
 20
-400.8881083995299
 30
0.0
  9
$LIMMIN
 10
0.0
 20
0.0
  9
$LIMMAX
 10
12.0
 20
9.0
  9
$ORTHOMODE
 70
     0
  9
$REGENMODE
 70
     1
  9
$FILLMODE
 70
     1
  9
$QTEXTMODE
 70
     0
  9
$MIRRTEXT
 70
     1
  9
$DRAGMODE
 70
     2
  9
$LTSCALE
 40
1.0
  9
$OSMODE
 70
    37
  9
$ATTMODE
 70
     1
  9
$TEXTSIZE
 40
0.2
  9
$TRACEWID
 40
0.05
  9
$TEXTSTYLE
  7
STANDARD
  9
$CLAYER
  8
0
  9
$CELTYPE
  6
BYLAYER
  9
$CECOLOR
 62
   256
  9
$DIMSCALE
 40
1.0
  9
$DIMASZ
 40
0.18
  9
$DIMEXO
 40
0.0625
  9
$DIMDLI
 40
0.38
  9
$DIMRND
 40
0.0
  9
$DIMDLE
 40
0.0
  9
$DIMEXE
 40
0.18
  9
$DIMTP
 40
0.0
  9
$DIMTM
 40
0.0
  9
$DIMTXT
 40
0.18
  9
$DIMCEN
 40
0.09
  9
$DIMTSZ
 40
0.0
  9
$DIMTOL
 70
     0
  9
$DIMLIM
 70
     0
  9
$DIMTIH
 70
     1
  9
$DIMTOH
 70
     1
  9
$DIMSE1
 70
     0
  9
$DIMSE2
 70
     0
  9
$DIMTAD
 70
     0
  9
$DIMZIN
 70
     0
  9
$DIMBLK
  1

  9
$DIMASO
 70
     1
  9
$DIMSHO
 70
     1
  9
$DIMPOST
  1

  9
$DIMAPOST
  1

  9
$DIMALT
 70
     0
  9
$DIMALTD
 70
     2
  9
$DIMALTF
 40
25.4
  9
$DIMLFAC
 40
1.0
  9
$DIMTOFL
 70
     0
  9
$DIMTVP
 40
0.0
  9
$DIMTIX
 70
     0
  9
$DIMSOXD
 70
     0
  9
$DIMSAH
 70
     0
  9
$DIMBLK1
  1

  9
$DIMBLK2
  1

  9
$DIMSTYLE
  2
STANDARD
  9
$DIMCLRD
 70
     0
  9
$DIMCLRE
 70
     0
  9
$DIMCLRT
 70
     0
  9
$DIMTFAC
 40
1.0
  9
$DIMGAP
 40
0.09
  9
$LUNITS
 70
     2
  9
$LUPREC
 70
     4
  9
$SKETCHINC
 40
0.1
  9
$FILLETRAD
 40
0.5
  9
$AUNITS
 70
     0
  9
$AUPREC
 70
     0
  9
$MENU
  1
.
  9
$ELEVATION
 40
0.0
  9
$PELEVATION
 40
0.0
  9
$THICKNESS
 40
0.0
  9
$LIMCHECK
 70
     0
  9
$CHAMFERA
 40
0.5
  9
$CHAMFERB
 40
0.5
  9
$SKPOLY
 70
     0
  9
$TDCREATE
 40
2454910.5
  9
$TDUPDATE
 40
2458443.746957107
  9
$TDINDWG
 40
0.0000000116
  9
$TDUSRTIMER
 40
0.0000000116
  9
$USRTIMER
 70
     1
  9
$ANGBASE
 50
0.0
  9
$ANGDIR
 70
     0
  9
$PDMODE
 70
     0
  9
$PDSIZE
 40
0.0
  9
$PLINEWID
 40
0.0
  9
$COORDS
 70
     1
  9
$SPLFRAME
 70
     0
  9
$SPLINETYPE
 70
     6
  9
$SPLINESEGS
 70
     8
  9
$ATTDIA
 70
     0
  9
$ATTREQ
 70
     1
  9
$HANDLING
 70
     1
  9
$HANDSEED
  5
256
  9
$SURFTAB1
 70
     6
  9
$SURFTAB2
 70
     6
  9
$SURFTYPE
 70
     6
  9
$SURFU
 70
     6
  9
$SURFV
 70
     6
  9
$UCSNAME
  2

  9
$UCSORG
 10
0.0
 20
0.0
 30
0.0
  9
$UCSXDIR
 10
1.0
 20
0.0
 30
0.0
  9
$UCSYDIR
 10
0.0
 20
1.0
 30
0.0
  9
$PUCSNAME
  2

  9
$PUCSORG
 10
0.0
 20
0.0
 30
0.0
  9
$PUCSXDIR
 10
1.0
 20
0.0
 30
0.0
  9
$PUCSYDIR
 10
0.0
 20
1.0
 30
0.0
  9
$USERI1
 70
     0
  9
$USERI2
 70
     0
  9
$USERI3
 70
     0
  9
$USERI4
 70
     0
  9
$USERI5
 70
     0
  9
$USERR1
 40
0.0
  9
$USERR2
 40
0.0
  9
$USERR3
 40
0.0
  9
$USERR4
 40
0.0
  9
$USERR5
 40
0.0
  9
$WORLDVIEW
 70
     1
  9
$SHADEDGE
 70
     3
  9
$SHADEDIF
 70
    70
  9
$TILEMODE
 70
     1
  9
$MAXACTVP
 70
    64
  9
$PLIMCHECK
 70
     0
  9
$PEXTMIN
 10
1.000000000000000E+20
 20
1.000000000000000E+20
 30
1.000000000000000E+20
  9
$PEXTMAX
 10
-1.000000000000000E+20
 20
-1.000000000000000E+20
 30
-1.000000000000000E+20
  9
$PLIMMIN
 10
0.0
 20
0.0
  9
$PLIMMAX
 10
12.0
 20
9.0
  9
$UNITMODE
 70
     0
  9
$VISRETAIN
 70
     1
  9
$PLINEGEN
 70
     0
  9
$PSLTSCALE
 70
     1
  0
ENDSEC
  0
SECTION
  2
TABLES
  0
TABLE
  2
VPORT
 70
     1
  0
VPORT
  2
*ACTIVE
 70
     0
 10
0.0
 20
0.0
 11
1.0
 21
1.0
 12
10.42990654205607
 22
4.5
 13
0.0
 23
0.0
 14
0.5
 24
0.5
 15
0.5
 25
0.5
 16
0.0
 26
0.0
 36
1.0
 17
0.0
 27
0.0
 37
0.0
 40
9.0
 41
1.972972972850329
 42
50.0
 43
0.0
 44
0.0
 50
0.0
 51
0.0
 71
     0
 72
   100
 73
     1
 74
     3
 75
     0
 76
     0
 77
     0
 78
     0
  0
ENDTAB
  0
TABLE
  2
LTYPE
 70
     2
  0
LTYPE
  2
CONTINUOUS
 70
     0
  3
Solid line
 72
    65
 73
     0
 40
0.0
  0
LTYPE
  2
CONTINUOUS2
 70
     0
  3
Solid Line
 72
    65
 73
     0
 40
0.0
  0
ENDTAB
  0
TABLE
  2
LAYER
 70
     2
  0
LAYER
  2
0
 70
     0
 62
     7
  6
CONTINUOUS
  0
LAYER
  2
6MM_ENGRAVE
 70
     0
 62
   245
  6
CONTINUOUS
  0
ENDTAB
  0
TABLE
  2
STYLE
 70
     1
  0
STYLE
  2
STANDARD
 70
     0
 40
0.0
 41
1.0
 50
0.0
 71
     0
 42
0.2
  3
txt
  4

  0
ENDTAB
  0
TABLE
  2
VIEW
 70
     0
  0
ENDTAB
  0
TABLE
  2
UCS
 70
     0
  0
ENDTAB
  0
TABLE
  2
APPID
 70
     1
  0
APPID
  2
ACAD
 70
     0
  0
ENDTAB
  0
TABLE
  2
DIMSTYLE
 70
     1
  0
DIMSTYLE
  2
STANDARD
 70
     0
  3

  4

  5

  6

  7

 40
1.0
 41
0.18
 42
0.0625
 43
0.38
 44
0.18
 45
0.0
 46
0.0
 47
0.0
 48
0.0
140
0.18
141
0.09
142
0.0
143
25.4
144
1.0
145
0.0
146
1.0
147
0.09
 71
     0
 72
     0
 73
     1
 74
     1
 75
     0
 76
     0
 77
     0
 78
     0
170
     0
171
     2
172
     0
173
     0
174
     0
175
     0
176
     0
177
     0
178
     0
  0
ENDTAB
  0
ENDSEC
  0
SECTION
  2
BLOCKS
  0
BLOCK
  8
0
  2
$MODEL_SPACE
 70
     0
 10
0.0
 20
0.0
 30
0.0
  3
$MODEL_SPACE
  1

  0
ENDBLK
  5
21
  8
0
  0
BLOCK
 67
     1
  8
0
  2
$PAPER_SPACE
 70
     0
 10
0.0
 20
0.0
 30
0.0
  3
$PAPER_SPACE
  1

  0
ENDBLK
  5
1D
 67
     1
  8
0
  0
ENDSEC
  0
SECTION
  2
ENTITIES
  0
POLYLINE
  5
41
  8
6MM_ENGRAVE
 66
     1
 10
0.0
 20
0.0
 30
0.0
 70
     1
  0
VERTEX
  5
51
  8
6MM_ENGRAVE
 10
1752.964087712526
 20
-519.0504026076869
 30
0.0
  0
VERTEX
  5
52
  8
6MM_ENGRAVE
 10
1752.964079909827
 20
-521.8970062626508
 30
0.0
  0
VERTEX
  5
53
  8
6MM_ENGRAVE
 10
1752.964079909821
 20
-521.8970062626508
 30
0.0
  0
VERTEX
  5
54
  8
6MM_ENGRAVE
 10
1753.017062001111
 20
-522.4257625673322
 30
0.0
  0
VERTEX
  5
55
  8
6MM_ENGRAVE
 10
1753.085026206139
 20
-522.9506433453225
 30
0.0
  0
VERTEX
  5
56
  8
6MM_ENGRAVE
 10
1753.167788662478
 20
-523.4715061504418
 30
0.0
  0
VERTEX
  5
57
  8
6MM_ENGRAVE
 10
1753.265165507698
 20
-523.9882085365095
 30
0.0
  0
VERTEX
  5
58
  8
6MM_ENGRAVE
 10
1753.376972879372
 20
-524.500608057346
 30
0.0
  0
VERTEX
  5
59
  8
6MM_ENGRAVE
 10
1753.503026915073
 20
-525.0085622667708
 30
0.0
  0
VERTEX
  5
5A
  8
6MM_ENGRAVE
 10
1753.643143752371
 20
-525.5119287186037
 30
0.0
  0
VERTEX
  5
5B
  8
6MM_ENGRAVE
 10
1753.797139528839
 20
-526.010564966665
 30
0.0
  0
VERTEX
  5
5C
  8
6MM_ENGRAVE
 10
1753.964830382048
 20
-526.5043285647743
 30
0.0
  0
VERTEX
  5
5D
  8
6MM_ENGRAVE
 10
1754.146032449571
 20
-526.9930770667513
 30
0.0
  0
VERTEX
  5
5E
  8
6MM_ENGRAVE
 10
1754.340561868979
 20
-527.4766680264161
 30
0.0
  0
VERTEX
  5
5F
  8
6MM_ENGRAVE
 10
1754.548234777845
 20
-527.9549589975885
 30
0.0
  0
VERTEX
  5
60
  8
6MM_ENGRAVE
 10
1754.76886731374
 20
-528.4278075340883
 30
0.0
  0
VERTEX
  5
61
  8
6MM_ENGRAVE
 10
1755.002275614236
 20
-528.8950711897355
 30
0.0
  0
VERTEX
  5
62
  8
6MM_ENGRAVE
 10
1755.248275816906
 20
-529.3566075183498
 30
0.0
  0
VERTEX
  5
63
  8
6MM_ENGRAVE
 10
1755.50668405932
 20
-529.8122740737513
 30
0.0
  0
VERTEX
  5
64
  8
6MM_ENGRAVE
 10
1755.777316479051
 20
-530.2619284097595
 30
0.0
  0
VERTEX
  5
65
  8
6MM_ENGRAVE
 10
1756.059989213671
 20
-530.7054280801947
 30
0.0
  0
VERTEX
  5
66
  8
6MM_ENGRAVE
 10
1756.354518400752
 20
-531.1426306388764
 30
0.0
  0
VERTEX
  5
67
  8
6MM_ENGRAVE
 10
1756.660720177865
 20
-531.5733936396248
 30
0.0
  0
VERTEX
  5
68
  8
6MM_ENGRAVE
 10
1756.978410682583
 20
-531.9975746362595
 30
0.0
  0
VERTEX
  5
69
  8
6MM_ENGRAVE
 10
1757.307406052477
 20
-532.4150311826004
 30
0.0
  0
VERTEX
  5
6A
  8
6MM_ENGRAVE
 10
1757.647522425119
 20
-532.8256208324674
 30
0.0
  0
VERTEX
  5
6B
  8
6MM_ENGRAVE
 10
1757.998575938082
 20
-533.2292011396805
 30
0.0
  0
VERTEX
  5
6C
  8
6MM_ENGRAVE
 10
1758.360382728937
 20
-533.6256296580593
 30
0.0
  0
VERTEX
  5
6D
  8
6MM_ENGRAVE
 10
1758.732758935256
 20
-534.0147639414239
 30
0.0
  0
VERTEX
  5
6E
  8
6MM_ENGRAVE
 10
1759.115520694611
 20
-534.396461543594
 30
0.0
  0
VERTEX
  5
6F
  8
6MM_ENGRAVE
 10
1759.508484144574
 20
-534.7705800183895
 30
0.0
  0
VERTEX
  5
70
  8
6MM_ENGRAVE
 10
1759.911465422717
 20
-535.1369769196303
 30
0.0
  0
VERTEX
  5
71
  8
6MM_ENGRAVE
 10
1760.324280666611
 20
-535.4955098011364
 30
0.0
  0
VERTEX
  5
72
  8
6MM_ENGRAVE
 10
1760.746746013829
 20
-535.8460362167275
 30
0.0
  0
VERTEX
  5
73
  8
6MM_ENGRAVE
 10
1761.178677601943
 20
-536.1884137202235
 30
0.0
  0
VERTEX
  5
74
  8
6MM_ENGRAVE
 10
1761.619891568524
 20
-536.5224998654442
 30
0.0
  0
VERTEX
  5
75
  8
6MM_ENGRAVE
 10
1762.070204051144
 20
-536.8481522062095
 30
0.0
  0
VERTEX
  5
76
  8
6MM_ENGRAVE
 10
1762.529431187376
 20
-537.1652282963394
 30
0.0
  0
VERTEX
  5
77
  8
6MM_ENGRAVE
 10
1762.997389114791
 20
-537.4735856896536
 30
0.0
  0
VERTEX
  5
78
  8
6MM_ENGRAVE
 10
1763.47389397096
 20
-537.7730819399721
 30
0.0
  0
VERTEX
  5
79
  8
6MM_ENGRAVE
 10
1763.958761893457
 20
-538.0635746011145
 30
0.0
  0
VERTEX
  5
7A
  8
6MM_ENGRAVE
 10
1764.451809019853
 20
-538.344921226901
 30
0.0
  0
VERTEX
  5
7B
  8
6MM_ENGRAVE
 10
1764.952851487719
 20
-538.6169793711513
 30
0.0
  0
VERTEX
  5
7C
  8
6MM_ENGRAVE
 10
1765.461705434629
 20
-538.8796065876852
 30
0.0
  0
VERTEX
  5
7D
  8
6MM_ENGRAVE
 10
1765.978186998153
 20
-539.1326604303227
 30
0.0
  0
VERTEX
  5
7E
  8
6MM_ENGRAVE
 10
1766.502112315863
 20
-539.3759984528837
 30
0.0
  0
VERTEX
  5
7F
  8
6MM_ENGRAVE
 10
1767.033297525332
 20
-539.6094782091878
 30
0.0
  0
VERTEX
  5
80
  8
6MM_ENGRAVE
 10
1767.571558764131
 20
-539.8329572530552
 30
0.0
  0
VERTEX
  5
81
  8
6MM_ENGRAVE
 10
1768.116712169833
 20
-540.0462931383055
 30
0.0
  0
VERTEX
  5
82
  8
6MM_ENGRAVE
 10
1768.668573880008
 20
-540.2493434187587
 30
0.0
  0
VERTEX
  5
83
  8
6MM_ENGRAVE
 10
1769.22696003223
 20
-540.4419656482346
 30
0.0
  0
VERTEX
  5
84
  8
6MM_ENGRAVE
 10
1769.79168676407
 20
-540.6240173805531
 30
0.0
  0
VERTEX
  5
85
  8
6MM_ENGRAVE
 10
1770.362570213099
 20
-540.7953561695342
 30
0.0
  0
VERTEX
  5
86
  8
6MM_ENGRAVE
 10
1770.939426516891
 20
-540.9558395689976
 30
0.0
  0
VERTEX
  5
87
  8
6MM_ENGRAVE
 10
1771.522071813016
 20
-541.1053251327631
 30
0.0
  0
VERTEX
  5
88
  8
6MM_ENGRAVE
 10
1772.110322239047
 20
-541.2436704146508
 30
0.0
  0
VERTEX
  5
89
  8
6MM_ENGRAVE
 10
1772.703993932555
 20
-541.3707329684803
 30
0.0
  0
VERTEX
  5
8A
  8
6MM_ENGRAVE
 10
1773.302903031113
 20
-541.4863703480717
 30
0.0
  0
VERTEX
  5
8B
  8
6MM_ENGRAVE
 10
1773.906865672292
 20
-541.5904401072446
 30
0.0
  0
VERTEX
  5
8C
  8
6MM_ENGRAVE
 10
1774.515697993664
 20
-541.6827997998191
 30
0.0
  0
VERTEX
  5
8D
  8
6MM_ENGRAVE
 10
1775.129216132802
 20
-541.763306979615
 30
0.0
  0
VERTEX
  5
8E
  8
6MM_ENGRAVE
 10
1775.747236227277
 20
-541.8318192004521
 30
0.0
  0
VERTEX
  5
8F
  8
6MM_ENGRAVE
 10
1776.36957441466
 20
-541.8881940161504
 30
0.0
  0
VERTEX
  5
90
  8
6MM_ENGRAVE
 10
1776.996046832525
 20
-541.9322889805296
 30
0.0
  0
VERTEX
  5
91
  8
6MM_ENGRAVE
 10
1777.626469618442
 20
-541.9639616474096
 30
0.0
  0
VERTEX
  5
92
  8
6MM_ENGRAVE
 10
1778.260658909984
 20
-541.9830695706105
 30
0.0
  0
VERTEX
  5
93
  8
6MM_ENGRAVE
 10
1778.898430844723
 20
-541.9894703039519
 30
0.0
  0
VERTEX
  5
94
  8
6MM_ENGRAVE
 10
1779.536550206031
 20
-541.9830915186553
 30
0.0
  0
VERTEX
  5
95
  8
6MM_ENGRAVE
 10
1780.171762930117
 20
-541.96404898122
 30
0.0
  0
VERTEX
  5
96
  8
6MM_ENGRAVE
 10
1780.803851910767
 20
-541.9324830038636
 30
0.0
  0
VERTEX
  5
97
  8
6MM_ENGRAVE
 10
1781.432600041769
 20
-541.8885338988039
 30
0.0
  0
VERTEX
  5
98
  8
6MM_ENGRAVE
 10
1782.057790216911
 20
-541.8323419782588
 30
0.0
  0
VERTEX
  5
99
  8
6MM_ENGRAVE
 10
1782.67920532998
 20
-541.7640475544462
 30
0.0
  0
VERTEX
  5
9A
  8
6MM_ENGRAVE
 10
1783.296628274762
 20
-541.6837909395838
 30
0.0
  0
VERTEX
  5
9B
  8
6MM_ENGRAVE
 10
1783.909841945047
 20
-541.5917124458892
 30
0.0
  0
VERTEX
  5
9C
  8
6MM_ENGRAVE
 10
1784.51862923462
 20
-541.4879523855806
 30
0.0
  0
VERTEX
  5
9D
  8
6MM_ENGRAVE
 10
1785.12277303727
 20
-541.3726510708755
 30
0.0
  0
VERTEX
  5
9E
  8
6MM_ENGRAVE
 10
1785.722056246784
 20
-541.2459488139916
 30
0.0
  0
VERTEX
  5
9F
  8
6MM_ENGRAVE
 10
1786.31626175695
 20
-541.1079859271472
 30
0.0
  0
VERTEX
  5
A0
  8
6MM_ENGRAVE
 10
1786.905172461554
 20
-540.9589027225596
 30
0.0
  0
VERTEX
  5
A1
  8
6MM_ENGRAVE
 10
1787.488571254384
 20
-540.7988395124469
 30
0.0
  0
VERTEX
  5
A2
  8
6MM_ENGRAVE
 10
1788.066241029228
 20
-540.6279366090268
 30
0.0
  0
VERTEX
  5
A3
  8
6MM_ENGRAVE
 10
1788.637964679874
 20
-540.4463343245174
 30
0.0
  0
VERTEX
  5
A4
  8
6MM_ENGRAVE
 10
1789.203525100108
 20
-540.2541729711361
 30
0.0
  0
VERTEX
  5
A5
  8
6MM_ENGRAVE
 10
1789.762705183718
 20
-540.0515928611007
 30
0.0
  0
VERTEX
  5
A6
  8
6MM_ENGRAVE
 10
1790.315287824491
 20
-539.8387343066292
 30
0.0
  0
VERTEX
  5
A7
  8
6MM_ENGRAVE
 10
1790.861055916215
 20
-539.6157376199394
 30
0.0
  0
VERTEX
  5
A8
  8
6MM_ENGRAVE
 10
1791.399792352678
 20
-539.3827431132491
 30
0.0
  0
VERTEX
  5
A9
  8
6MM_ENGRAVE
 10
1791.931280027666
 20
-539.1398910987762
 30
0.0
  0
VERTEX
  5
AA
  8
6MM_ENGRAVE
 10
1792.455301834967
 20
-538.8873218887381
 30
0.0
  0
VERTEX
  5
AB
  8
6MM_ENGRAVE
 10
1792.97164066837
 20
-538.6251757953532
 30
0.0
  0
VERTEX
  5
AC
  8
6MM_ENGRAVE
 10
1793.48007942166
 20
-538.3535931308389
 30
0.0
  0
VERTEX
  5
AD
  8
6MM_ENGRAVE
 10
1793.980400988625
 20
-538.0727142074131
 30
0.0
  0
VERTEX
  5
AE
  8
6MM_ENGRAVE
 10
1794.472388263054
 20
-537.7826793372938
 30
0.0
  0
VERTEX
  5
AF
  8
6MM_ENGRAVE
 10
1794.955824138732
 20
-537.4836288326984
 30
0.0
  0
VERTEX
  5
B0
  8
6MM_ENGRAVE
 10
1795.430491509449
 20
-537.175703005845
 30
0.0
  0
VERTEX
  5
B1
  8
6MM_ENGRAVE
 10
1795.89617326899
 20
-536.8590421689513
 30
0.0
  0
VERTEX
  5
B2
  8
6MM_ENGRAVE
 10
1796.352652311144
 20
-536.5337866342352
 30
0.0
  0
VERTEX
  5
B3
  8
6MM_ENGRAVE
 10
1796.799711529698
 20
-536.2000767139143
 30
0.0
  0
VERTEX
  5
B4
  8
6MM_ENGRAVE
 10
1797.23713381844
 20
-535.8580527202066
 30
0.0
  0
VERTEX
  5
B5
  8
6MM_ENGRAVE
 10
1797.664702071157
 20
-535.5078549653299
 30
0.0
  0
VERTEX
  5
B6
  8
6MM_ENGRAVE
 10
1798.082199181636
 20
-535.149623761502
 30
0.0
  0
VERTEX
  5
B7
  8
6MM_ENGRAVE
 10
1798.489408043665
 20
-534.7834994209406
 30
0.0
  0
VERTEX
  5
B8
  8
6MM_ENGRAVE
 10
1798.88611155103
 20
-534.4096222558637
 30
0.0
  0
VERTEX
  5
B9
  8
6MM_ENGRAVE
 10
1799.272092597521
 20
-534.028132578489
 30
0.0
  0
VERTEX
  5
BA
  8
6MM_ENGRAVE
 10
1799.647134076924
 20
-533.6391707010342
 30
0.0
  0
VERTEX
  5
BB
  8
6MM_ENGRAVE
 10
1800.011018883026
 20
-533.2428769357173
 30
0.0
  0
VERTEX
  5
BC
  8
6MM_ENGRAVE
 10
1800.363529909614
 20
-532.8393915947559
 30
0.0
  0
VERTEX
  5
BD
  8
6MM_ENGRAVE
 10
1800.704450050478
 20
-532.428854990368
 30
0.0
  0
VERTEX
  5
BE
  8
6MM_ENGRAVE
 10
1801.033562199403
 20
-532.0114074347714
 30
0.0
  0
VERTEX
  5
BF
  8
6MM_ENGRAVE
 10
1801.350649250177
 20
-531.5871892401836
 30
0.0
  0
VERTEX
  5
C0
  8
6MM_ENGRAVE
 10
1801.655494096588
 20
-531.1563407188228
 30
0.0
  0
VERTEX
  5
C1
  8
6MM_ENGRAVE
 10
1801.947879632423
 20
-530.7190021829067
 30
0.0
  0
VERTEX
  5
C2
  8
6MM_ENGRAVE
 10
1802.22758875147
 20
-530.275313944653
 30
0.0
  0
VERTEX
  5
C3
  8
6MM_ENGRAVE
 10
1802.494404347515
 20
-529.8254163162795
 30
0.0
  0
VERTEX
  5
C4
  8
6MM_ENGRAVE
 10
1802.748109314347
 20
-529.369449610004
 30
0.0
  0
VERTEX
  5
C5
  8
6MM_ENGRAVE
 10
1802.988486545752
 20
-528.9075541380446
 30
0.0
  0
VERTEX
  5
C6
  8
6MM_ENGRAVE
 10
1803.215318935519
 20
-528.4398702126189
 30
0.0
  0
VERTEX
  5
C7
  8
6MM_ENGRAVE
 10
1803.428389377435
 20
-527.9665381459445
 30
0.0
  0
VERTEX
  5
C8
  8
6MM_ENGRAVE
 10
1803.627480765287
 20
-527.4876982502394
 30
0.0
  0
VERTEX
  5
C9
  8
6MM_ENGRAVE
 10
1803.812375992862
 20
-527.0034908377213
 30
0.0
  0
VERTEX
  5
CA
  8
6MM_ENGRAVE
 10
1803.982857953948
 20
-526.5140562206083
 30
0.0
  0
VERTEX
  5
CB
  8
6MM_ENGRAVE
 10
1804.138709542332
 20
-526.019534711118
 30
0.0
  0
VERTEX
  5
CC
  8
6MM_ENGRAVE
 10
1804.279713651802
 20
-525.5200666214682
 30
0.0
  0
VERTEX
  5
CD
  8
6MM_ENGRAVE
 10
1804.405653176146
 20
-525.0157922638767
 30
0.0
  0
VERTEX
  5
CE
  8
6MM_ENGRAVE
 10
1804.51631100915
 20
-524.5068519505614
 30
0.0
  0
VERTEX
  5
CF
  8
6MM_ENGRAVE
 10
1804.611470044602
 20
-523.9933859937399
 30
0.0
  0
VERTEX
  5
D0
  8
6MM_ENGRAVE
 10
1804.69091317629
 20
-523.4755347056303
 30
0.0
  0
VERTEX
  5
D1
  8
6MM_ENGRAVE
 10
1804.754423298001
 20
-522.9534383984502
 30
0.0
  0
VERTEX
  5
D2
  8
6MM_ENGRAVE
 10
1804.801783303522
 20
-522.4272373844175
 30
0.0
  0
VERTEX
  5
D3
  8
6MM_ENGRAVE
 10
1804.832776086641
 20
-521.8970719757499
 30
0.0
  0
VERTEX
  5
D4
  8
6MM_ENGRAVE
 10
1804.853283921155
 20
-521.2123116794673
 30
0.0
  0
VERTEX
  5
D5
  8
6MM_ENGRAVE
 10
1804.860119865992
 20
-520.473738422274
 30
0.0
  0
VERTEX
  5
D6
  8
6MM_ENGRAVE
 10
1804.853283921154
 20
-519.7351651650806
 30
0.0
  0
VERTEX
  5
D7
  8
6MM_ENGRAVE
 10
1804.832776086641
 20
-519.0504048687981
 30
0.0
  0
VERTEX
  5
D8
  8
6MM_ENGRAVE
 10
1804.801783303522
 20
-518.520239460119
 30
0.0
  0
VERTEX
  5
D9
  8
6MM_ENGRAVE
 10
1804.754423298001
 20
-517.9940384460751
 30
0.0
  0
VERTEX
  5
DA
  8
6MM_ENGRAVE
 10
1804.69091317629
 20
-517.4719421388843
 30
0.0
  0
VERTEX
  5
DB
  8
6MM_ENGRAVE
 10
1804.611470044602
 20
-516.9540908507641
 30
0.0
  0
VERTEX
  5
DC
  8
6MM_ENGRAVE
 10
1804.51631100915
 20
-516.4406248939326
 30
0.0
  0
VERTEX
  5
DD
  8
6MM_ENGRAVE
 10
1804.405653176146
 20
-515.9316845806075
 30
0.0
  0
VERTEX
  5
DE
  8
6MM_ENGRAVE
 10
1804.279713651802
 20
-515.4274102230065
 30
0.0
  0
VERTEX
  5
DF
  8
6MM_ENGRAVE
 10
1804.138709542332
 20
-514.9279421333476
 30
0.0
  0
VERTEX
  5
E0
  8
6MM_ENGRAVE
 10
1803.982857953948
 20
-514.4334206238485
 30
0.0
  0
VERTEX
  5
E1
  8
6MM_ENGRAVE
 10
1803.812375992862
 20
-513.943986006727
 30
0.0
  0
VERTEX
  5
E2
  8
6MM_ENGRAVE
 10
1803.627480765287
 20
-513.4597785942008
 30
0.0
  0
VERTEX
  5
E3
  8
6MM_ENGRAVE
 10
1803.428389377435
 20
-512.9809386984879
 30
0.0
  0
VERTEX
  5
E4
  8
6MM_ENGRAVE
 10
1803.215318935519
 20
-512.507606631806
 30
0.0
  0
VERTEX
  5
E5
  8
6MM_ENGRAVE
 10
1802.988486545752
 20
-512.0399227063729
 30
0.0
  0
VERTEX
  5
E6
  8
6MM_ENGRAVE
 10
1802.748109314347
 20
-511.5780272344063
 30
0.0
  0
VERTEX
  5
E7
  8
6MM_ENGRAVE
 10
1802.494404347515
 20
-511.1220605281242
 30
0.0
  0
VERTEX
  5
E8
  8
6MM_ENGRAVE
 10
1802.22758875147
 20
-510.6721628997443
 30
0.0
  0
VERTEX
  5
E9
  8
6MM_ENGRAVE
 10
1801.947879632423
 20
-510.2284746614844
 30
0.0
  0
VERTEX
  5
EA
  8
6MM_ENGRAVE
 10
1801.655494096588
 20
-509.7911361255623
 30
0.0
  0
VERTEX
  5
EB
  8
6MM_ENGRAVE
 10
1801.350649250177
 20
-509.3602876041958
 30
0.0
  0
VERTEX
  5
EC
  8
6MM_ENGRAVE
 10
1801.033562199403
 20
-508.9360694096027
 30
0.0
  0
VERTEX
  5
ED
  8
6MM_ENGRAVE
 10
1800.704450050478
 20
-508.5186218540009
 30
0.0
  0
VERTEX
  5
EE
  8
6MM_ENGRAVE
 10
1800.363529909614
 20
-508.1080852496081
 30
0.0
  0
VERTEX
  5
EF
  8
6MM_ENGRAVE
 10
1800.011018883026
 20
-507.704599908642
 30
0.0
  0
VERTEX
  5
F0
  8
6MM_ENGRAVE
 10
1799.647134076924
 20
-507.3083061433205
 30
0.0
  0
VERTEX
  5
F1
  8
6MM_ENGRAVE
 10
1799.272092597521
 20
-506.9193442658615
 30
0.0
  0
VERTEX
  5
F2
  8
6MM_ENGRAVE
 10
1798.88611155103
 20
-506.5378545884828
 30
0.0
  0
VERTEX
  5
F3
  8
6MM_ENGRAVE
 10
1798.489408043665
 20
-506.163977423402
 30
0.0
  0
VERTEX
  5
F4
  8
6MM_ENGRAVE
 10
1798.082199181636
 20
-505.797853082837
 30
0.0
  0
VERTEX
  5
F5
  8
6MM_ENGRAVE
 10
1797.664702071157
 20
-505.4396218790057
 30
0.0
  0
VERTEX
  5
F6
  8
6MM_ENGRAVE
 10
1797.23713381844
 20
-505.0894241241258
 30
0.0
  0
VERTEX
  5
F7
  8
6MM_ENGRAVE
 10
1796.799711529698
 20
-504.7474001304152
 30
0.0
  0
VERTEX
  5
F8
  8
6MM_ENGRAVE
 10
1796.352652311144
 20
-504.4136902100916
 30
0.0
  0
VERTEX
  5
F9
  8
6MM_ENGRAVE
 10
1795.89617326899
 20
-504.0884346753728
 30
0.0
  0
VERTEX
  5
FA
  8
6MM_ENGRAVE
 10
1795.430491509449
 20
-503.7717738384765
 30
0.0
  0
VERTEX
  5
FB
  8
6MM_ENGRAVE
 10
1794.955824138732
 20
-503.4638480116208
 30
0.0
  0
VERTEX
  5
FC
  8
6MM_ENGRAVE
 10
1794.472388263054
 20
-503.1647975070233
 30
0.0
  0
VERTEX
  5
FD
  8
6MM_ENGRAVE
 10
1793.980400988625
 20
-502.8747626369018
 30
0.0
  0
VERTEX
  5
FE
  8
6MM_ENGRAVE
 10
1793.48007942166
 20
-502.593883713474
 30
0.0
  0
VERTEX
  5
FF
  8
6MM_ENGRAVE
 10
1792.97164066837
 20
-502.322301048958
 30
0.0
  0
VERTEX
  5
100
  8
6MM_ENGRAVE
 10
1792.455301834967
 20
-502.0601549555714
 30
0.0
  0
VERTEX
  5
101
  8
6MM_ENGRAVE
 10
1791.931280027666
 20
-501.807585745532
 30
0.0
  0
VERTEX
  5
102
  8
6MM_ENGRAVE
 10
1791.399792352678
 20
-501.5647337310577
 30
0.0
  0
VERTEX
  5
103
  8
6MM_ENGRAVE
 10
1790.861055916215
 20
-501.3317392243663
 30
0.0
  0
VERTEX
  5
104
  8
6MM_ENGRAVE
 10
1790.315287824491
 20
-501.1087425376754
 30
0.0
  0
VERTEX
  5
105
  8
6MM_ENGRAVE
 10
1789.762705183718
 20
-500.895883983203
 30
0.0
  0
VERTEX
  5
106
  8
6MM_ENGRAVE
 10
1789.203525100108
 20
-500.6933038731669
 30
0.0
  0
VERTEX
  5
107
  8
6MM_ENGRAVE
 10
1788.637964679874
 20
-500.5011425197847
 30
0.0
  0
VERTEX
  5
108
  8
6MM_ENGRAVE
 10
1788.066241029228
 20
-500.3195402352744
 30
0.0
  0
VERTEX
  5
109
  8
6MM_ENGRAVE
 10
1787.488571254384
 20
-500.1486373318538
 30
0.0
  0
VERTEX
  5
10A
  8
6MM_ENGRAVE
 10
1786.905172461554
 20
-499.9885741217407
 30
0.0
  0
VERTEX
  5
10B
  8
6MM_ENGRAVE
 10
1786.31626175695
 20
-499.8394909171527
 30
0.0
  0
VERTEX
  5
10C
  8
6MM_ENGRAVE
 10
1785.722056246784
 20
-499.7015280303078
 30
0.0
  0
VERTEX
  5
10D
  8
6MM_ENGRAVE
 10
1785.12277303727
 20
-499.5748257734238
 30
0.0
  0
VERTEX
  5
10E
  8
6MM_ENGRAVE
 10
1784.51862923462
 20
-499.4595244587184
 30
0.0
  0
VERTEX
  5
10F
  8
6MM_ENGRAVE
 10
1783.909841945047
 20
-499.3557643984095
 30
0.0
  0
VERTEX
  5
110
  8
6MM_ENGRAVE
 10
1783.296628274762
 20
-499.2636859047147
 30
0.0
  0
VERTEX
  5
111
  8
6MM_ENGRAVE
 10
1782.67920532998
 20
-499.1834292898521
 30
0.0
  0
VERTEX
  5
112
  8
6MM_ENGRAVE
 10
1782.057790216911
 20
-499.1151348660394
 30
0.0
  0
VERTEX
  5
113
  8
6MM_ENGRAVE
 10
1781.432600041769
 20
-499.0589429454943
 30
0.0
  0
VERTEX
  5
114
  8
6MM_ENGRAVE
 10
1780.803851910767
 20
-499.0149938404347
 30
0.0
  0
VERTEX
  5
115
  8
6MM_ENGRAVE
 10
1780.171762930117
 20
-498.9834278630783
 30
0.0
  0
VERTEX
  5
116
  8
6MM_ENGRAVE
 10
1779.536550206031
 20
-498.9643853256429
 30
0.0
  0
VERTEX
  5
117
  8
6MM_ENGRAVE
 10
1778.898430844723
 20
-498.9580065403464
 30
0.0
  0
VERTEX
  5
118
  8
6MM_ENGRAVE
 10
1778.260658909984
 20
-498.9644072736878
 30
0.0
  0
VERTEX
  5
119
  8
6MM_ENGRAVE
 10
1777.626469618442
 20
-498.9835151968886
 30
0.0
  0
VERTEX
  5
11A
  8
6MM_ENGRAVE
 10
1776.996046832525
 20
-499.0151878637687
 30
0.0
  0
VERTEX
  5
11B
  8
6MM_ENGRAVE
 10
1776.36957441466
 20
-499.059282828148
 30
0.0
  0
VERTEX
  5
11C
  8
6MM_ENGRAVE
 10
1775.747236227277
 20
-499.1156576438462
 30
0.0
  0
VERTEX
  5
11D
  8
6MM_ENGRAVE
 10
1775.129216132802
 20
-499.1841698646833
 30
0.0
  0
VERTEX
  5
11E
  8
6MM_ENGRAVE
 10
1774.515697993664
 20
-499.2646770444792
 30
0.0
  0
VERTEX
  5
11F
  8
6MM_ENGRAVE
 10
1773.906865672292
 20
-499.3570367370538
 30
0.0
  0
VERTEX
  5
120
  8
6MM_ENGRAVE
 10
1773.302903031113
 20
-499.4611064962268
 30
0.0
  0
VERTEX
  5
121
  8
6MM_ENGRAVE
 10
1772.703993932555
 20
-499.5767438758181
 30
0.0
  0
VERTEX
  5
122
  8
6MM_ENGRAVE
 10
1772.110322239047
 20
-499.7038064296476
 30
0.0
  0
VERTEX
  5
123
  8
6MM_ENGRAVE
 10
1771.522071813016
 20
-499.8421517115352
 30
0.0
  0
VERTEX
  5
124
  8
6MM_ENGRAVE
 10
1770.939426516891
 20
-499.9916372753008
 30
0.0
  0
VERTEX
  5
125
  8
6MM_ENGRAVE
 10
1770.362570213099
 20
-500.1521206747641
 30
0.0
  0
VERTEX
  5
126
  8
6MM_ENGRAVE
 10
1769.79168676407
 20
-500.3234594637451
 30
0.0
  0
VERTEX
  5
127
  8
6MM_ENGRAVE
 10
1769.22696003223
 20
-500.5055111960637
 30
0.0
  0
VERTEX
  5
128
  8
6MM_ENGRAVE
 10
1768.668573880008
 20
-500.6981334255396
 30
0.0
  0
VERTEX
  5
129
  8
6MM_ENGRAVE
 10
1768.116712169833
 20
-500.9011837059928
 30
0.0
  0
VERTEX
  5
12A
  8
6MM_ENGRAVE
 10
1767.571558764131
 20
-501.1145195912432
 30
0.0
  0
VERTEX
  5
12B
  8
6MM_ENGRAVE
 10
1767.033297525332
 20
-501.3379986351105
 30
0.0
  0
VERTEX
  5
12C
  8
6MM_ENGRAVE
 10
1766.502112315863
 20
-501.5714783914146
 30
0.0
  0
VERTEX
  5
12D
  8
6MM_ENGRAVE
 10
1765.978186998153
 20
-501.8148164139756
 30
0.0
  0
VERTEX
  5
12E
  8
6MM_ENGRAVE
 10
1765.461705434629
 20
-502.0678702566131
 30
0.0
  0
VERTEX
  5
12F
  8
6MM_ENGRAVE
 10
1764.952851487719
 20
-502.330497473147
 30
0.0
  0
VERTEX
  5
130
  8
6MM_ENGRAVE
 10
1764.451809019853
 20
-502.6025556173973
 30
0.0
  0
VERTEX
  5
131
  8
6MM_ENGRAVE
 10
1763.958761893457
 20
-502.8839022431837
 30
0.0
  0
VERTEX
  5
132
  8
6MM_ENGRAVE
 10
1763.47389397096
 20
-503.1743949043263
 30
0.0
  0
VERTEX
  5
133
  8
6MM_ENGRAVE
 10
1762.997389114791
 20
-503.4738911546447
 30
0.0
  0
VERTEX
  5
134
  8
6MM_ENGRAVE
 10
1762.529431187376
 20
-503.7822485479588
 30
0.0
  0
VERTEX
  5
135
  8
6MM_ENGRAVE
 10
1762.070204051144
 20
-504.0993246380887
 30
0.0
  0
VERTEX
  5
136
  8
6MM_ENGRAVE
 10
1761.619891568524
 20
-504.424976978854
 30
0.0
  0
VERTEX
  5
137
  8
6MM_ENGRAVE
 10
1761.178677601943
 20
-504.7590631240748
 30
0.0
  0
VERTEX
  5
138
  8
6MM_ENGRAVE
 10
1760.746746013829
 20
-505.1014406275707
 30
0.0
  0
VERTEX
  5
139
  8
6MM_ENGRAVE
 10
1760.324280666611
 20
-505.4519670431617
 30
0.0
  0
VERTEX
  5
13A
  8
6MM_ENGRAVE
 10
1759.911465422717
 20
-505.8104999246678
 30
0.0
  0
VERTEX
  5
13B
  8
6MM_ENGRAVE
 10
1759.508484144574
 20
-506.1768968259087
 30
0.0
  0
VERTEX
  5
13C
  8
6MM_ENGRAVE
 10
1759.115520694611
 20
-506.5510153007043
 30
0.0
  0
VERTEX
  5
13D
  8
6MM_ENGRAVE
 10
1758.732758935256
 20
-506.9327129028744
 30
0.0
  0
VERTEX
  5
13E
  8
6MM_ENGRAVE
 10
1758.360382728937
 20
-507.3218471862389
 30
0.0
  0
VERTEX
  5
13F
  8
6MM_ENGRAVE
 10
1757.998575938082
 20
-507.7182757046178
 30
0.0
  0
VERTEX
  5
140
  8
6MM_ENGRAVE
 10
1757.647522425119
 20
-508.1218560118308
 30
0.0
  0
VERTEX
  5
141
  8
6MM_ENGRAVE
 10
1757.307406052477
 20
-508.5324456616978
 30
0.0
  0
VERTEX
  5
142
  8
6MM_ENGRAVE
 10
1756.978410682583
 20
-508.9499022080387
 30
0.0
  0
VERTEX
  5
143
  8
6MM_ENGRAVE
 10
1756.660720177865
 20
-509.3740832046734
 30
0.0
  0
VERTEX
  5
144
  8
6MM_ENGRAVE
 10
1756.354518400752
 20
-509.8048462054217
 30
0.0
  0
VERTEX
  5
145
  8
6MM_ENGRAVE
 10
1756.059989213671
 20
-510.2420487641035
 30
0.0
  0
VERTEX
  5
146
  8
6MM_ENGRAVE
 10
1755.777316479051
 20
-510.6855484345386
 30
0.0
  0
VERTEX
  5
147
  8
6MM_ENGRAVE
 10
1755.50668405932
 20
-511.135202770547
 30
0.0
  0
VERTEX
  5
148
  8
6MM_ENGRAVE
 10
1755.248275816906
 20
-511.5908693259484
 30
0.0
  0
VERTEX
  5
149
  8
6MM_ENGRAVE
 10
1755.002275614236
 20
-512.0524056545628
 30
0.0
  0
VERTEX
  5
14A
  8
6MM_ENGRAVE
 10
1754.76886731374
 20
-512.51966931021
 30
0.0
  0
VERTEX
  5
14B
  8
6MM_ENGRAVE
 10
1754.548234777845
 20
-512.9925178467098
 30
0.0
  0
VERTEX
  5
14C
  8
6MM_ENGRAVE
 10
1754.340561868979
 20
-513.4708088178822
 30
0.0
  0
VERTEX
  5
14D
  8
6MM_ENGRAVE
 10
1754.146032449571
 20
-513.954399777547
 30
0.0
  0
VERTEX
  5
14E
  8
6MM_ENGRAVE
 10
1753.964830382048
 20
-514.443148279524
 30
0.0
  0
VERTEX
  5
14F
  8
6MM_ENGRAVE
 10
1753.797139528839
 20
-514.9369118776333
 30
0.0
  0
VERTEX
  5
150
  8
6MM_ENGRAVE
 10
1753.643143752371
 20
-515.4355481256946
 30
0.0
  0
VERTEX
  5
151
  8
6MM_ENGRAVE
 10
1753.503026915073
 20
-515.9389145775275
 30
0.0
  0
VERTEX
  5
152
  8
6MM_ENGRAVE
 10
1753.376972879372
 20
-516.4468687869523
 30
0.0
  0
VERTEX
  5
153
  8
6MM_ENGRAVE
 10
1753.265165507698
 20
-516.9592683077888
 30
0.0
  0
VERTEX
  5
154
  8
6MM_ENGRAVE
 10
1753.167788662478
 20
-517.4759706938565
 30
0.0
  0
VERTEX
  5
155
  8
6MM_ENGRAVE
 10
1753.085026206139
 20
-517.9968334989758
 30
0.0
  0
VERTEX
  5
156
  8
6MM_ENGRAVE
 10
1753.017062001111
 20
-518.5217142769661
 30
0.0
  0
VERTEX
  5
157
  8
6MM_ENGRAVE
 10
1752.964079909821
 20
-519.0504705816475
 30
0.0
  0
SEQEND
  5
158
  8
6MM_ENGRAVE
  0
POLYLINE
  5
42
  8
6MM_ENGRAVE
 66
     1
 10
0.0
 20
0.0
 30
0.0
 70
     1
  0
VERTEX
  5
159
  8
6MM_ENGRAVE
 10
1763.602171198548
 20
-400.8881390947769
 30
0.0
  0
VERTEX
  5
15A
  8
6MM_ENGRAVE
 10
1739.373783629393
 20
-400.8881083995313
 30
0.0
  0
VERTEX
  5
15B
  8
6MM_ENGRAVE
 10
1739.373756267172
 20
-405.879410729078
 30
0.0
  0
VERTEX
  5
15C
  8
6MM_ENGRAVE
 10
1739.373756267166
 20
-405.879410729078
 30
0.0
  0
VERTEX
  5
15D
  8
6MM_ENGRAVE
 10
1739.426738358456
 20
-406.4081670337594
 30
0.0
  0
VERTEX
  5
15E
  8
6MM_ENGRAVE
 10
1739.494702563484
 20
-406.9330478117498
 30
0.0
  0
VERTEX
  5
15F
  8
6MM_ENGRAVE
 10
1739.577465019823
 20
-407.4539106168689
 30
0.0
  0
VERTEX
  5
160
  8
6MM_ENGRAVE
 10
1739.674841865043
 20
-407.9706130029368
 30
0.0
  0
VERTEX
  5
161
  8
6MM_ENGRAVE
 10
1739.786649236718
 20
-408.4830125237731
 30
0.0
  0
VERTEX
  5
162
  8
6MM_ENGRAVE
 10
1739.912703272418
 20
-408.9909667331979
 30
0.0
  0
VERTEX
  5
163
  8
6MM_ENGRAVE
 10
1740.052820109716
 20
-409.494333185031
 30
0.0
  0
VERTEX
  5
164
  8
6MM_ENGRAVE
 10
1740.206815886184
 20
-409.9929694330922
 30
0.0
  0
VERTEX
  5
165
  8
6MM_ENGRAVE
 10
1740.374506739393
 20
-410.4867330312014
 30
0.0
  0
VERTEX
  5
166
  8
6MM_ENGRAVE
 10
1740.555708806916
 20
-410.9754815331785
 30
0.0
  0
VERTEX
  5
167
  8
6MM_ENGRAVE
 10
1740.750238226325
 20
-411.4590724928433
 30
0.0
  0
VERTEX
  5
168
  8
6MM_ENGRAVE
 10
1740.95791113519
 20
-411.9373634640157
 30
0.0
  0
VERTEX
  5
169
  8
6MM_ENGRAVE
 10
1741.178543671085
 20
-412.4102120005155
 30
0.0
  0
VERTEX
  5
16A
  8
6MM_ENGRAVE
 10
1741.411951971582
 20
-412.8774756561627
 30
0.0
  0
VERTEX
  5
16B
  8
6MM_ENGRAVE
 10
1741.657952174251
 20
-413.339011984777
 30
0.0
  0
VERTEX
  5
16C
  8
6MM_ENGRAVE
 10
1741.916360416665
 20
-413.7946785401785
 30
0.0
  0
VERTEX
  5
16D
  8
6MM_ENGRAVE
 10
1742.186992836396
 20
-414.2443328761868
 30
0.0
  0
VERTEX
  5
16E
  8
6MM_ENGRAVE
 10
1742.469665571016
 20
-414.687832546622
 30
0.0
  0
VERTEX
  5
16F
  8
6MM_ENGRAVE
 10
1742.764194758097
 20
-415.1250351053038
 30
0.0
  0
VERTEX
  5
170
  8
6MM_ENGRAVE
 10
1743.07039653521
 20
-415.5557981060521
 30
0.0
  0
VERTEX
  5
171
  8
6MM_ENGRAVE
 10
1743.388087039928
 20
-415.9799791026867
 30
0.0
  0
VERTEX
  5
172
  8
6MM_ENGRAVE
 10
1743.717082409822
 20
-416.3974356490277
 30
0.0
  0
VERTEX
  5
173
  8
6MM_ENGRAVE
 10
1744.057198782465
 20
-416.8080252988947
 30
0.0
  0
VERTEX
  5
174
  8
6MM_ENGRAVE
 10
1744.408252295427
 20
-417.2116056061077
 30
0.0
  0
VERTEX
  5
175
  8
6MM_ENGRAVE
 10
1744.770059086282
 20
-417.6080341244866
 30
0.0
  0
VERTEX
  5
176
  8
6MM_ENGRAVE
 10
1745.142435292601
 20
-417.9971684078511
 30
0.0
  0
VERTEX
  5
177
  8
6MM_ENGRAVE
 10
1745.525197051956
 20
-418.3788660100212
 30
0.0
  0
VERTEX
  5
178
  8
6MM_ENGRAVE
 10
1745.918160501919
 20
-418.7529844848167
 30
0.0
  0
VERTEX
  5
179
  8
6MM_ENGRAVE
 10
1746.321141780062
 20
-419.1193813860576
 30
0.0
  0
VERTEX
  5
17A
  8
6MM_ENGRAVE
 10
1746.733957023956
 20
-419.4779142675636
 30
0.0
  0
VERTEX
  5
17B
  8
6MM_ENGRAVE
 10
1747.156422371174
 20
-419.8284406831547
 30
0.0
  0
VERTEX
  5
17C
  8
6MM_ENGRAVE
 10
1747.588353959288
 20
-420.1708181866506
 30
0.0
  0
VERTEX
  5
17D
  8
6MM_ENGRAVE
 10
1748.029567925869
 20
-420.5049043318713
 30
0.0
  0
VERTEX
  5
17E
  8
6MM_ENGRAVE
 10
1748.479880408489
 20
-420.8305566726368
 30
0.0
  0
VERTEX
  5
17F
  8
6MM_ENGRAVE
 10
1748.939107544721
 20
-421.1476327627666
 30
0.0
  0
VERTEX
  5
180
  8
6MM_ENGRAVE
 10
1749.407065472136
 20
-421.4559901560808
 30
0.0
  0
VERTEX
  5
181
  8
6MM_ENGRAVE
 10
1749.883570328306
 20
-421.7554864063991
 30
0.0
  0
VERTEX
  5
182
  8
6MM_ENGRAVE
 10
1750.368438250803
 20
-422.0459790675416
 30
0.0
  0
VERTEX
  5
183
  8
6MM_ENGRAVE
 10
1750.861485377198
 20
-422.327325693328
 30
0.0
  0
VERTEX
  5
184
  8
6MM_ENGRAVE
 10
1751.362527845065
 20
-422.5993838375783
 30
0.0
  0
VERTEX
  5
185
  8
6MM_ENGRAVE
 10
1751.871381791974
 20
-422.8620110541123
 30
0.0
  0
VERTEX
  5
186
  8
6MM_ENGRAVE
 10
1752.387863355498
 20
-423.1150648967498
 30
0.0
  0
VERTEX
  5
187
  8
6MM_ENGRAVE
 10
1752.911788673208
 20
-423.3584029193107
 30
0.0
  0
VERTEX
  5
188
  8
6MM_ENGRAVE
 10
1753.442973882677
 20
-423.5918826756149
 30
0.0
  0
VERTEX
  5
189
  8
6MM_ENGRAVE
 10
1753.981235121476
 20
-423.8153617194823
 30
0.0
  0
VERTEX
  5
18A
  8
6MM_ENGRAVE
 10
1754.526388527177
 20
-424.0286976047327
 30
0.0
  0
VERTEX
  5
18B
  8
6MM_ENGRAVE
 10
1755.078250237353
 20
-424.2317478851859
 30
0.0
  0
VERTEX
  5
18C
  8
6MM_ENGRAVE
 10
1755.636636389575
 20
-424.4243701146618
 30
0.0
  0
VERTEX
  5
18D
  8
6MM_ENGRAVE
 10
1756.201363121414
 20
-424.6064218469803
 30
0.0
  0
VERTEX
  5
18E
  8
6MM_ENGRAVE
 10
1756.772246570444
 20
-424.7777606359613
 30
0.0
  0
VERTEX
  5
18F
  8
6MM_ENGRAVE
 10
1757.349102874236
 20
-424.9382440354246
 30
0.0
  0
VERTEX
  5
190
  8
6MM_ENGRAVE
 10
1757.931748170361
 20
-425.0877295991903
 30
0.0
  0
VERTEX
  5
191
  8
6MM_ENGRAVE
 10
1758.519998596391
 20
-425.2260748810779
 30
0.0
  0
VERTEX
  5
192
  8
6MM_ENGRAVE
 10
1759.1136702899
 20
-425.3531374349074
 30
0.0
  0
VERTEX
  5
193
  8
6MM_ENGRAVE
 10
1759.712579388457
 20
-425.4687748144987
 30
0.0
  0
VERTEX
  5
194
  8
6MM_ENGRAVE
 10
1760.316542029637
 20
-425.5728445736717
 30
0.0
  0
VERTEX
  5
195
  8
6MM_ENGRAVE
 10
1760.925374351009
 20
-425.6652042662461
 30
0.0
  0
VERTEX
  5
196
  8
6MM_ENGRAVE
 10
1761.538892490147
 20
-425.745711446042
 30
0.0
  0
VERTEX
  5
197
  8
6MM_ENGRAVE
 10
1762.156912584621
 20
-425.8142236668792
 30
0.0
  0
VERTEX
  5
198
  8
6MM_ENGRAVE
 10
1762.779250772005
 20
-425.8705984825774
 30
0.0
  0
VERTEX
  5
199
  8
6MM_ENGRAVE
 10
1763.405723189869
 20
-425.9146934469567
 30
0.0
  0
VERTEX
  5
19A
  8
6MM_ENGRAVE
 10
1764.036145975786
 20
-425.9463661138368
 30
0.0
  0
VERTEX
  5
19B
  8
6MM_ENGRAVE
 10
1764.670335267328
 20
-425.9654740370376
 30
0.0
  0
VERTEX
  5
19C
  8
6MM_ENGRAVE
 10
1765.308107202067
 20
-425.971874770379
 30
0.0
  0
VERTEX
  5
19D
  8
6MM_ENGRAVE
 10
1765.94587748946
 20
-425.9654735940264
 30
0.0
  0
VERTEX
  5
19E
  8
6MM_ENGRAVE
 10
1766.580065155221
 20
-425.9463653050773
 30
0.0
  0
VERTEX
  5
19F
  8
6MM_ENGRAVE
 10
1767.210486338272
 20
-425.9146923482309
 30
0.0
  0
VERTEX
  5
1A0
  8
6MM_ENGRAVE
 10
1767.836957177537
 20
-425.8705971681865
 30
0.0
  0
VERTEX
  5
1A1
  8
6MM_ENGRAVE
 10
1768.459293811937
 20
-425.8142222096435
 30
0.0
  0
VERTEX
  5
1A2
  8
6MM_ENGRAVE
 10
1769.077312380394
 20
-425.7457099173013
 30
0.0
  0
VERTEX
  5
1A3
  8
6MM_ENGRAVE
 10
1769.690829021831
 20
-425.6652027358591
 30
0.0
  0
VERTEX
  5
1A4
  8
6MM_ENGRAVE
 10
1770.29965987517
 20
-425.5728431100164
 30
0.0
  0
VERTEX
  5
1A5
  8
6MM_ENGRAVE
 10
1770.903621079334
 20
-425.4687734844724
 30
0.0
  0
VERTEX
  5
1A6
  8
6MM_ENGRAVE
 10
1771.502528773244
 20
-425.3531363039265
 30
0.0
  0
VERTEX
  5
1A7
  8
6MM_ENGRAVE
 10
1772.096199095823
 20
-425.2260740130779
 30
0.0
  0
VERTEX
  5
1A8
  8
6MM_ENGRAVE
 10
1772.684448185993
 20
-425.0877290566261
 30
0.0
  0
VERTEX
  5
1A9
  8
6MM_ENGRAVE
 10
1773.267092182677
 20
-424.9382438792704
 30
0.0
  0
VERTEX
  5
1AA
  8
6MM_ENGRAVE
 10
1773.843947224797
 20
-424.7777609257101
 30
0.0
  0
VERTEX
  5
1AB
  8
6MM_ENGRAVE
 10
1774.414829451275
 20
-424.6064226406446
 30
0.0
  0
VERTEX
  5
1AC
  8
6MM_ENGRAVE
 10
1774.979555001033
 20
-424.4243714687732
 30
0.0
  0
VERTEX
  5
1AD
  8
6MM_ENGRAVE
 10
1775.537940012994
 20
-424.2317498547952
 30
0.0
  0
VERTEX
  5
1AE
  8
6MM_ENGRAVE
 10
1776.089800626079
 20
-424.02870024341
 30
0.0
  0
VERTEX
  5
1AF
  8
6MM_ENGRAVE
 10
1776.634952979212
 20
-423.8153650793168
 30
0.0
  0
VERTEX
  5
1B0
  8
6MM_ENGRAVE
 10
1777.173213211315
 20
-423.5918868072151
 30
0.0
  0
VERTEX
  5
1B1
  8
6MM_ENGRAVE
 10
1777.70439746131
 20
-423.3584078718041
 30
0.0
  0
VERTEX
  5
1B2
  8
6MM_ENGRAVE
 10
1778.228321868118
 20
-423.1150707177833
 30
0.0
  0
VERTEX
  5
1B3
  8
6MM_ENGRAVE
 10
1778.744802570663
 20
-422.8620177898519
 30
0.0
  0
VERTEX
  5
1B4
  8
6MM_ENGRAVE
 10
1779.253655707866
 20
-422.5993915327093
 30
0.0
  0
VERTEX
  5
1B5
  8
6MM_ENGRAVE
 10
1779.754697418651
 20
-422.3273343910548
 30
0.0
  0
VERTEX
  5
1B6
  8
6MM_ENGRAVE
 10
1780.247743841939
 20
-422.0459888095877
 30
0.0
  0
VERTEX
  5
1B7
  8
6MM_ENGRAVE
 10
1780.732611116652
 20
-421.7554972330074
 30
0.0
  0
VERTEX
  5
1B8
  8
6MM_ENGRAVE
 10
1781.209115381713
 20
-421.4560021060133
 30
0.0
  0
VERTEX
  5
1B9
  8
6MM_ENGRAVE
 10
1781.677072776044
 20
-421.1476458733046
 30
0.0
  0
VERTEX
  5
1BA
  8
6MM_ENGRAVE
 10
1782.136299438568
 20
-420.8305709795807
 30
0.0
  0
VERTEX
  5
1BB
  8
6MM_ENGRAVE
 10
1782.586611508206
 20
-420.5049198695409
 30
0.0
  0
VERTEX
  5
1BC
  8
6MM_ENGRAVE
 10
1783.027825123882
 20
-420.1708349878846
 30
0.0
  0
VERTEX
  5
1BD
  8
6MM_ENGRAVE
 10
1783.459756424516
 20
-419.8284587793112
 30
0.0
  0
VERTEX
  5
1BE
  8
6MM_ENGRAVE
 10
1783.882221549032
 20
-419.4779336885198
 30
0.0
  0
VERTEX
  5
1BF
  8
6MM_ENGRAVE
 10
1784.295036636353
 20
-419.1194021602099
 30
0.0
  0
VERTEX
  5
1C0
  8
6MM_ENGRAVE
 10
1784.698017825399
 20
-418.7530066390808
 30
0.0
  0
VERTEX
  5
1C1
  8
6MM_ENGRAVE
 10
1785.090981255094
 20
-418.3788895698319
 30
0.0
  0
VERTEX
  5
1C2
  8
6MM_ENGRAVE
 10
1785.473743064359
 20
-417.9971933971624
 30
0.0
  0
VERTEX
  5
1C3
  8
6MM_ENGRAVE
 10
1785.846119392117
 20
-417.6080605657717
 30
0.0
  0
VERTEX
  5
1C4
  8
6MM_ENGRAVE
 10
1786.20792637729
 20
-417.2116335203592
 30
0.0
  0
VERTEX
  5
1C5
  8
6MM_ENGRAVE
 10
1786.558980158801
 20
-416.8080547056242
 30
0.0
  0
VERTEX
  5
1C6
  8
6MM_ENGRAVE
 10
1786.899096875572
 20
-416.397466566266
 30
0.0
  0
VERTEX
  5
1C7
  8
6MM_ENGRAVE
 10
1787.228092666525
 20
-415.980011546984
 30
0.0
  0
VERTEX
  5
1C8
  8
6MM_ENGRAVE
 10
1787.545783670583
 20
-415.5558320924774
 30
0.0
  0
VERTEX
  5
1C9
  8
6MM_ENGRAVE
 10
1787.851986026667
 20
-415.1250706474457
 30
0.0
  0
VERTEX
  5
1CA
  8
6MM_ENGRAVE
 10
1788.1465158737
 20
-414.6878696565881
 30
0.0
  0
VERTEX
  5
1CB
  8
6MM_ENGRAVE
 10
1788.429189350605
 20
-414.244371564604
 30
0.0
  0
VERTEX
  5
1CC
  8
6MM_ENGRAVE
 10
1788.699822596303
 20
-413.7947188161928
 30
0.0
  0
VERTEX
  5
1CD
  8
6MM_ENGRAVE
 10
1788.958231749717
 20
-413.3390538560537
 30
0.0
  0
VERTEX
  5
1CE
  8
6MM_ENGRAVE
 10
1789.204232949769
 20
-412.8775191288862
 30
0.0
  0
VERTEX
  5
1CF
  8
6MM_ENGRAVE
 10
1789.437642335382
 20
-412.4102570793896
 30
0.0
  0
VERTEX
  5
1D0
  8
6MM_ENGRAVE
 10
1789.658276045477
 20
-411.9374101522631
 30
0.0
  0
VERTEX
  5
1D1
  8
6MM_ENGRAVE
 10
1789.865950218977
 20
-411.459120792206
 30
0.0
  0
VERTEX
  5
1D2
  8
6MM_ENGRAVE
 10
1790.060480994805
 20
-410.9755314439179
 30
0.0
  0
VERTEX
  5
1D3
  8
6MM_ENGRAVE
 10
1790.241684511882
 20
-410.486784552098
 30
0.0
  0
VERTEX
  5
1D4
  8
6MM_ENGRAVE
 10
1790.409376909131
 20
-409.9930225614455
 30
0.0
  0
VERTEX
  5
1D5
  8
6MM_ENGRAVE
 10
1790.563374325474
 20
-409.4943879166599
 30
0.0
  0
VERTEX
  5
1D6
  8
6MM_ENGRAVE
 10
1790.703492899834
 20
-408.9910230624405
 30
0.0
  0
VERTEX
  5
1D7
  8
6MM_ENGRAVE
 10
1790.829548771132
 20
-408.4830704434867
 30
0.0
  0
VERTEX
  5
1D8
  8
6MM_ENGRAVE
 10
1790.941358078292
 20
-407.9706725044977
 30
0.0
  0
VERTEX
  5
1D9
  8
6MM_ENGRAVE
 10
1791.038736960234
 20
-407.4539716901729
 30
0.0
  0
VERTEX
  5
1DA
  8
6MM_ENGRAVE
 10
1791.121501555883
 20
-406.9331104452116
 30
0.0
  0
VERTEX
  5
1DB
  8
6MM_ENGRAVE
 10
1791.189468004159
 20
-406.4082312143132
 30
0.0
  0
VERTEX
  5
1DC
  8
6MM_ENGRAVE
 10
1791.242452443985
 20
-405.879476442177
 30
0.0
  0
VERTEX
  5
1DD
  8
6MM_ENGRAVE
 10
1791.242452443985
 20
-400.8881741125944
 30
0.0
  0
VERTEX
  5
1DE
  8
6MM_ENGRAVE
 10
1770.419461532728
 20
-400.888147731687
 30
0.0
  0
VERTEX
  5
1DF
  8
6MM_ENGRAVE
 10
1770.419935009913
 20
-400.88939616755
 30
0.0
  0
VERTEX
  5
1E0
  8
6MM_ENGRAVE
 10
1781.223379110792
 20
-403.7395305014895
 30
0.0
  0
VERTEX
  5
1E1
  8
6MM_ENGRAVE
 10
1770.445754098904
 20
-406.5681863809543
 30
0.0
  0
VERTEX
  5
1E2
  8
6MM_ENGRAVE
 10
1767.019628997973
 20
-415.5553850528075
 30
0.0
  0
VERTEX
  5
1E3
  8
6MM_ENGRAVE
 10
1763.619322986042
 20
-406.5896648354312
 30
0.0
  0
VERTEX
  5
1E4
  8
6MM_ENGRAVE
 10
1752.815878885153
 20
-403.7395305014895
 30
0.0
  0
VERTEX
  5
1E5
  8
6MM_ENGRAVE
 10
1763.593503897038
 20
-400.9108746220347
 30
0.0
  0
SEQEND
  5
1E6
  8
6MM_ENGRAVE
  0
POLYLINE
  5
43
  8
6MM_ENGRAVE
 66
     1
 10
0.0
 20
0.0
 30
0.0
 70
     1
  0
VERTEX
  5
1E7
  8
6MM_ENGRAVE
 10
1705.884915655179
 20
-419.6611621582467
 30
0.0
  0
VERTEX
  5
1E8
  8
6MM_ENGRAVE
 10
1740.719987402819
 20
-419.6611621582522
 30
0.0
  0
VERTEX
  5
1E9
  8
6MM_ENGRAVE
 10
1739.868690571843
 20
-418.6330973661454
 30
0.0
  0
VERTEX
  5
1EA
  8
6MM_ENGRAVE
 10
1737.57041733606
 20
-416.1215348933945
 30
0.0
  0
VERTEX
  5
1EB
  8
6MM_ENGRAVE
 10
1735.196922250402
 20
-413.7831915259428
 30
0.0
  0
VERTEX
  5
1EC
  8
6MM_ENGRAVE
 10
1732.752338431044
 20
-411.6231308058334
 30
0.0
  0
VERTEX
  5
1ED
  8
6MM_ENGRAVE
 10
1730.240701400477
 20
-409.6462832024984
 30
0.0
  0
VERTEX
  5
1EE
  8
6MM_ENGRAVE
 10
1727.665915317031
 20
-407.8574537164116
 30
0.0
  0
VERTEX
  5
1EF
  8
6MM_ENGRAVE
 10
1725.03171737069
 20
-406.261339789373
 30
0.0
  0
VERTEX
  5
1F0
  8
6MM_ENGRAVE
 10
1722.341642884684
 20
-404.862561442542
 30
0.0
  0
VERTEX
  5
1F1
  8
6MM_ENGRAVE
 10
1719.598994583249
 20
-403.6657047565124
 30
0.0
  0
VERTEX
  5
1F2
  8
6MM_ENGRAVE
 10
1716.806820216635
 20
-402.6753784446084
 30
0.0
  0
VERTEX
  5
1F3
  8
6MM_ENGRAVE
 10
1713.967903018336
 20
-401.896281393476
 30
0.0
  0
VERTEX
  5
1F4
  8
6MM_ENGRAVE
 10
1711.058255786758
 20
-401.3280994834001
 30
0.0
  0
VERTEX
  5
1F5
  8
6MM_ENGRAVE
 10
1709.627178457903
 20
-401.1328096593285
 30
0.0
  0
VERTEX
  5
1F6
  8
6MM_ENGRAVE
 10
1708.159545163641
 20
-400.9898852421667
 30
0.0
  0
VERTEX
  5
1F7
  8
6MM_ENGRAVE
 10
1706.681963386736
 20
-400.9036078865949
 30
0.0
  0
VERTEX
  5
1F8
  8
6MM_ENGRAVE
 10
1705.88491565518
 20
-400.8881083995299
 30
0.0
  0
SEQEND
  5
1F9
  8
6MM_ENGRAVE
  0
POLYLINE
  5
44
  8
6MM_ENGRAVE
 66
     1
 10
0.0
 20
0.0
 30
0.0
 70
     1
  0
VERTEX
  5
1FA
  8
6MM_ENGRAVE
 10
1705.88491565518
 20
-436.3691657249456
 30
0.0
  0
VERTEX
  5
1FB
  8
6MM_ENGRAVE
 10
1705.88491565518
 20
-421.8323226641539
 30
0.0
  0
VERTEX
  5
1FC
  8
6MM_ENGRAVE
 10
1705.884915655179
 20
-421.8323226641541
 30
0.0
  0
VERTEX
  5
1FD
  8
6MM_ENGRAVE
 10
1746.584323179537
 20
-421.8323226641532
 30
0.0
  0
VERTEX
  5
1FE
  8
6MM_ENGRAVE
 10
1748.225062146874
 20
-424.4769350089481
 30
0.0
  0
VERTEX
  5
1FF
  8
6MM_ENGRAVE
 10
1750.083690392613
 20
-427.7742897329658
 30
0.0
  0
VERTEX
  5
200
  8
6MM_ENGRAVE
 10
1751.841640954442
 20
-431.2120228547591
 30
0.0
  0
VERTEX
  5
201
  8
6MM_ENGRAVE
 10
1753.494706483152
 20
-434.7843622631572
 30
0.0
  0
VERTEX
  5
202
  8
6MM_ENGRAVE
 10
1754.155841846984
 20
-436.3691657249537
 30
0.0
  0
SEQEND
  5
203
  8
6MM_ENGRAVE
  0
POLYLINE
  5
45
  8
6MM_ENGRAVE
 66
     1
 10
0.0
 20
0.0
 30
0.0
 70
     1
  0
VERTEX
  5
204
  8
6MM_ENGRAVE
 10
1705.884915655181
 20
-453.16019980088
 30
0.0
  0
VERTEX
  5
205
  8
6MM_ENGRAVE
 10
1761.029306173917
 20
-453.1601998008818
 30
0.0
  0
VERTEX
  5
206
  8
6MM_ENGRAVE
 10
1760.979007923042
 20
-452.8880012409344
 30
0.0
  0
VERTEX
  5
207
  8
6MM_ENGRAVE
 10
1760.041772076347
 20
-448.6313382641731
 30
0.0
  0
VERTEX
  5
208
  8
6MM_ENGRAVE
 10
1758.975098907199
 20
-444.4739473609413
 30
0.0
  0
VERTEX
  5
209
  8
6MM_ENGRAVE
 10
1757.782998107787
 20
-440.4217540248117
 30
0.0
  0
VERTEX
  5
20A
  8
6MM_ENGRAVE
 10
1757.155952835309
 20
-438.5403262308444
 30
0.0
  0
VERTEX
  5
20B
  8
6MM_ENGRAVE
 10
1705.88491565518
 20
-438.5403262308475
 30
0.0
  0
SEQEND
  5
20C
  8
6MM_ENGRAVE
  0
POLYLINE
  5
46
  8
6MM_ENGRAVE
 66
     1
 10
0.0
 20
0.0
 30
0.0
 70
     1
  0
VERTEX
  5
20D
  8
6MM_ENGRAVE
 10
1705.88491565518
 20
-470.3130096670724
 30
0.0
  0
VERTEX
  5
20E
  8
6MM_ENGRAVE
 10
1705.88491565518
 20
-455.3313603067822
 30
0.0
  0
VERTEX
  5
20F
  8
6MM_ENGRAVE
 10
1705.884915655179
 20
-455.3313603067824
 30
0.0
  0
VERTEX
  5
210
  8
6MM_ENGRAVE
 10
1762.371886320621
 20
-455.3313603067742
 30
0.0
  0
VERTEX
  5
211
  8
6MM_ENGRAVE
 10
1762.449270275032
 20
-455.8466128064172
 30
0.0
  0
VERTEX
  5
212
  8
6MM_ENGRAVE
 10
1762.97440969391
 20
-460.3655963009844
 30
0.0
  0
VERTEX
  5
213
  8
6MM_ENGRAVE
 10
1763.354330683123
 20
-464.9602331726489
 30
0.0
  0
VERTEX
  5
214
  8
6MM_ENGRAVE
 10
1763.585135149115
 20
-469.6246630369917
 30
0.0
  0
VERTEX
  5
215
  8
6MM_ENGRAVE
 10
1763.59646118742
 20
-470.3130096670732
 30
0.0
  0
VERTEX
  5
216
  8
6MM_ENGRAVE
 10
1705.88491565518
 20
-470.3130096670714
 30
0.0
  0
SEQEND
  5
217
  8
6MM_ENGRAVE
  0
POLYLINE
  5
47
  8
6MM_ENGRAVE
 66
     1
 10
0.0
 20
0.0
 30
0.0
 70
     1
  0
VERTEX
  5
218
  8
6MM_ENGRAVE
 10
1705.88491565518
 20
-487.4658195332639
 30
0.0
  0
VERTEX
  5
219
  8
6MM_ENGRAVE
 10
1705.88491565518
 20
-472.4841701729688
 30
0.0
  0
VERTEX
  5
21A
  8
6MM_ENGRAVE
 10
1705.88491565518
 20
-472.4841701729692
 30
0.0
  0
VERTEX
  5
21B
  8
6MM_ENGRAVE
 10
1763.597784068261
 20
-472.4841701729692
 30
0.0
  0
VERTEX
  5
21C
  8
6MM_ENGRAVE
 10
1763.585135149115
 20
-473.2529156635728
 30
0.0
  0
VERTEX
  5
21D
  8
6MM_ENGRAVE
 10
1763.354330683124
 20
-477.9173455279151
 30
0.0
  0
VERTEX
  5
21E
  8
6MM_ENGRAVE
 10
1762.974409693911
 20
-482.5119823995796
 30
0.0
  0
VERTEX
  5
21F
  8
6MM_ENGRAVE
 10
1762.449270275032
 20
-487.0309658941474
 30
0.0
  0
VERTEX
  5
220
  8
6MM_ENGRAVE
 10
1762.383961141727
 20
-487.4658195332677
 30
0.0
  0
VERTEX
  5
221
  8
6MM_ENGRAVE
 10
1705.88491565518
 20
-487.4658195332631
 30
0.0
  0
SEQEND
  5
222
  8
6MM_ENGRAVE
  0
POLYLINE
  5
48
  8
6MM_ENGRAVE
 66
     1
 10
0.0
 20
0.0
 30
0.0
 70
     1
  0
VERTEX
  5
223
  8
6MM_ENGRAVE
 10
1705.88491565518
 20
-504.1738230999598
 30
0.0
  0
VERTEX
  5
224
  8
6MM_ENGRAVE
 10
1705.88491565518
 20
-489.6369800391612
 30
0.0
  0
VERTEX
  5
225
  8
6MM_ENGRAVE
 10
1761.044162689318
 20
-489.6369800391612
 30
0.0
  0
VERTEX
  5
226
  8
6MM_ENGRAVE
 10
1760.979007923043
 20
-489.9895774596293
 30
0.0
  0
VERTEX
  5
227
  8
6MM_ENGRAVE
 10
1760.041772076347
 20
-494.2462404363912
 30
0.0
  0
VERTEX
  5
228
  8
6MM_ENGRAVE
 10
1758.9750989072
 20
-498.4036313396228
 30
0.0
  0
VERTEX
  5
229
  8
6MM_ENGRAVE
 10
1757.782998107787
 20
-502.4558246757524
 30
0.0
  0
VERTEX
  5
22A
  8
6MM_ENGRAVE
 10
1757.210420837758
 20
-504.1738230999612
 30
0.0
  0
VERTEX
  5
22B
  8
6MM_ENGRAVE
 10
1705.884915655178
 20
-504.1738230999593
 30
0.0
  0
SEQEND
  5
22C
  8
6MM_ENGRAVE
  0
POLYLINE
  5
49
  8
6MM_ENGRAVE
 66
     1
 10
0.0
 20
0.0
 30
0.0
 70
     1
  0
VERTEX
  5
22D
  8
6MM_ENGRAVE
 10
1705.88491565518
 20
-521.119056693054
 30
0.0
  0
VERTEX
  5
22E
  8
6MM_ENGRAVE
 10
1705.884915655179
 20
-506.3449836058554
 30
0.0
  0
VERTEX
  5
22F
  8
6MM_ENGRAVE
 10
1705.884915655178
 20
-506.3449836058555
 30
0.0
  0
VERTEX
  5
230
  8
6MM_ENGRAVE
 10
1754.224019976608
 20
-506.3449836058583
 30
0.0
  0
VERTEX
  5
231
  8
6MM_ENGRAVE
 10
1753.494706483154
 20
-508.0932164374073
 30
0.0
  0
VERTEX
  5
232
  8
6MM_ENGRAVE
 10
1751.841640954444
 20
-511.6655558458042
 30
0.0
  0
VERTEX
  5
233
  8
6MM_ENGRAVE
 10
1750.083690392614
 20
-515.1032889675976
 30
0.0
  0
VERTEX
  5
234
  8
6MM_ENGRAVE
 10
1748.225062146874
 20
-518.4006436916161
 30
0.0
  0
VERTEX
  5
235
  8
6MM_ENGRAVE
 10
1746.538536653055
 20
-521.1190566930482
 30
0.0
  0
VERTEX
  5
236
  8
6MM_ENGRAVE
 10
1705.884915655178
 20
-521.1190566930532
 30
0.0
  0
SEQEND
  5
237
  8
6MM_ENGRAVE
  0
POLYLINE
  5
4A
  8
6MM_ENGRAVE
 66
     1
 10
0.0
 20
0.0
 30
0.0
 70
     1
  0
VERTEX
  5
238
  8
6MM_ENGRAVE
 10
1705.88491565518
 20
-541.9894703008856
 30
0.0
  0
VERTEX
  5
239
  8
6MM_ENGRAVE
 10
1705.884915655179
 20
-523.2902171989475
 30
0.0
  0
VERTEX
  5
23A
  8
6MM_ENGRAVE
 10
1705.884915655178
 20
-523.2902171989499
 30
0.0
  0
VERTEX
  5
23B
  8
6MM_ENGRAVE
 10
1740.658876210606
 20
-523.2902171989476
 30
0.0
  0
VERTEX
  5
23C
  8
6MM_ENGRAVE
 10
1739.868690571843
 20
-524.2444813344177
 30
0.0
  0
VERTEX
  5
23D
  8
6MM_ENGRAVE
 10
1737.57041733606
 20
-526.7560438071687
 30
0.0
  0
VERTEX
  5
23E
  8
6MM_ENGRAVE
 10
1735.196922250402
 20
-529.0943871746215
 30
0.0
  0
VERTEX
  5
23F
  8
6MM_ENGRAVE
 10
1732.752338431044
 20
-531.2544478947304
 30
0.0
  0
VERTEX
  5
240
  8
6MM_ENGRAVE
 10
1730.240701400477
 20
-533.2312954980646
 30
0.0
  0
VERTEX
  5
241
  8
6MM_ENGRAVE
 10
1727.665915317031
 20
-535.0201249841514
 30
0.0
  0
VERTEX
  5
242
  8
6MM_ENGRAVE
 10
1725.03171737069
 20
-536.6162389111912
 30
0.0
  0
VERTEX
  5
243
  8
6MM_ENGRAVE
 10
1722.341642884684
 20
-538.0150172580213
 30
0.0
  0
VERTEX
  5
244
  8
6MM_ENGRAVE
 10
1719.598994583249
 20
-539.2118739440505
 30
0.0
  0
VERTEX
  5
245
  8
6MM_ENGRAVE
 10
1716.806820216635
 20
-540.202200255955
 30
0.0
  0
VERTEX
  5
246
  8
6MM_ENGRAVE
 10
1713.941975704676
 20
-540.9884126585414
 30
0.0
  0
VERTEX
  5
247
  8
6MM_ENGRAVE
 10
1712.531555245339
 20
-541.2917020272864
 30
0.0
  0
VERTEX
  5
248
  8
6MM_ENGRAVE
 10
1711.084604603174
 20
-541.5458835653988
 30
0.0
  0
VERTEX
  5
249
  8
6MM_ENGRAVE
 10
1709.627178457903
 20
-541.7447690412348
 30
0.0
  0
VERTEX
  5
24A
  8
6MM_ENGRAVE
 10
1708.159545163641
 20
-541.8876934583961
 30
0.0
  0
VERTEX
  5
24B
  8
6MM_ENGRAVE
 10
1706.681963386736
 20
-541.973970813968
 30
0.0
  0
SEQEND
  5
24C
  8
6MM_ENGRAVE
  0
POLYLINE
  5
4B
  8
6MM_ENGRAVE
 66
     1
 10
0.0
 20
0.0
 30
0.0
 70
     1
  0
VERTEX
  5
24D
  8
6MM_ENGRAVE
 10
1775.485974786973
 20
-517.6450825426862
 30
0.0
  0
VERTEX
  5
24E
  8
6MM_ENGRAVE
 10
1764.708349775087
 20
-520.4737384221501
 30
0.0
  0
VERTEX
  5
24F
  8
6MM_ENGRAVE
 10
1775.511793875975
 20
-523.3238727560918
 30
0.0
  0
VERTEX
  5
250
  8
6MM_ENGRAVE
 10
1778.912099887907
 20
-532.2895929734675
 30
0.0
  0
VERTEX
  5
251
  8
6MM_ENGRAVE
 10
1782.338224988837
 20
-523.3023943016149
 30
0.0
  0
VERTEX
  5
252
  8
6MM_ENGRAVE
 10
1793.115850000726
 20
-520.4737384221501
 30
0.0
  0
VERTEX
  5
253
  8
6MM_ENGRAVE
 10
1782.312405899846
 20
-517.6236040882106
 30
0.0
  0
VERTEX
  5
254
  8
6MM_ENGRAVE
 10
1778.912099887907
 20
-508.6578838708308
 30
0.0
  0
SEQEND
  5
255
  8
6MM_ENGRAVE
  0
ENDSEC
  0
EOF
