  0
SECTION
  2
HEADER
  9
$ACADVER
  1
AC1009
  9
$DWGCODEPAGE
  3
ansi_1252
  9
$INSBASE
 10
0.0
 20
0.0
 30
0.0
  9
$EXTMIN
 10
782.4622968750001
 20
-853.5489399240411
 30
0.0
  9
$EXTMAX
 10
1395.143598696766
 20
-331.1920426250001
 30
0.0
  9
$LIMMIN
 10
0.0
 20
0.0
  9
$LIMMAX
 10
12.0
 20
9.0
  9
$ORTHOMODE
 70
     0
  9
$REGENMODE
 70
     1
  9
$FILLMODE
 70
     1
  9
$QTEXTMODE
 70
     0
  9
$MIRRTEXT
 70
     1
  9
$DRAGMODE
 70
     2
  9
$LTSCALE
 40
1.0
  9
$OSMODE
 70
    37
  9
$ATTMODE
 70
     1
  9
$TEXTSIZE
 40
0.2
  9
$TRACEWID
 40
0.05
  9
$TEXTSTYLE
  7
STANDARD
  9
$CLAYER
  8
0
  9
$CELTYPE
  6
BYLAYER
  9
$CECOLOR
 62
   256
  9
$DIMSCALE
 40
1.0
  9
$DIMASZ
 40
0.18
  9
$DIMEXO
 40
0.0625
  9
$DIMDLI
 40
0.38
  9
$DIMRND
 40
0.0
  9
$DIMDLE
 40
0.0
  9
$DIMEXE
 40
0.18
  9
$DIMTP
 40
0.0
  9
$DIMTM
 40
0.0
  9
$DIMTXT
 40
0.18
  9
$DIMCEN
 40
0.09
  9
$DIMTSZ
 40
0.0
  9
$DIMTOL
 70
     0
  9
$DIMLIM
 70
     0
  9
$DIMTIH
 70
     1
  9
$DIMTOH
 70
     1
  9
$DIMSE1
 70
     0
  9
$DIMSE2
 70
     0
  9
$DIMTAD
 70
     0
  9
$DIMZIN
 70
     0
  9
$DIMBLK
  1

  9
$DIMASO
 70
     1
  9
$DIMSHO
 70
     1
  9
$DIMPOST
  1

  9
$DIMAPOST
  1

  9
$DIMALT
 70
     0
  9
$DIMALTD
 70
     2
  9
$DIMALTF
 40
25.4
  9
$DIMLFAC
 40
1.0
  9
$DIMTOFL
 70
     0
  9
$DIMTVP
 40
0.0
  9
$DIMTIX
 70
     0
  9
$DIMSOXD
 70
     0
  9
$DIMSAH
 70
     0
  9
$DIMBLK1
  1

  9
$DIMBLK2
  1

  9
$DIMSTYLE
  2
STANDARD
  9
$DIMCLRD
 70
     0
  9
$DIMCLRE
 70
     0
  9
$DIMCLRT
 70
     0
  9
$DIMTFAC
 40
1.0
  9
$DIMGAP
 40
0.09
  9
$LUNITS
 70
     2
  9
$LUPREC
 70
     4
  9
$SKETCHINC
 40
0.1
  9
$FILLETRAD
 40
0.5
  9
$AUNITS
 70
     0
  9
$AUPREC
 70
     0
  9
$MENU
  1
.
  9
$ELEVATION
 40
0.0
  9
$PELEVATION
 40
0.0
  9
$THICKNESS
 40
0.0
  9
$LIMCHECK
 70
     0
  9
$CHAMFERA
 40
0.5
  9
$CHAMFERB
 40
0.5
  9
$SKPOLY
 70
     0
  9
$TDCREATE
 40
2454910.5
  9
$TDUPDATE
 40
2458443.893944572
  9
$TDINDWG
 40
0.0000000116
  9
$TDUSRTIMER
 40
0.0000000116
  9
$USRTIMER
 70
     1
  9
$ANGBASE
 50
0.0
  9
$ANGDIR
 70
     0
  9
$PDMODE
 70
     0
  9
$PDSIZE
 40
0.0
  9
$PLINEWID
 40
0.0
  9
$COORDS
 70
     1
  9
$SPLFRAME
 70
     0
  9
$SPLINETYPE
 70
     6
  9
$SPLINESEGS
 70
     8
  9
$ATTDIA
 70
     0
  9
$ATTREQ
 70
     1
  9
$HANDLING
 70
     1
  9
$HANDSEED
  5
300
  9
$SURFTAB1
 70
     6
  9
$SURFTAB2
 70
     6
  9
$SURFTYPE
 70
     6
  9
$SURFU
 70
     6
  9
$SURFV
 70
     6
  9
$UCSNAME
  2

  9
$UCSORG
 10
0.0
 20
0.0
 30
0.0
  9
$UCSXDIR
 10
1.0
 20
0.0
 30
0.0
  9
$UCSYDIR
 10
0.0
 20
1.0
 30
0.0
  9
$PUCSNAME
  2

  9
$PUCSORG
 10
0.0
 20
0.0
 30
0.0
  9
$PUCSXDIR
 10
1.0
 20
0.0
 30
0.0
  9
$PUCSYDIR
 10
0.0
 20
1.0
 30
0.0
  9
$USERI1
 70
     0
  9
$USERI2
 70
     0
  9
$USERI3
 70
     0
  9
$USERI4
 70
     0
  9
$USERI5
 70
     0
  9
$USERR1
 40
0.0
  9
$USERR2
 40
0.0
  9
$USERR3
 40
0.0
  9
$USERR4
 40
0.0
  9
$USERR5
 40
0.0
  9
$WORLDVIEW
 70
     1
  9
$SHADEDGE
 70
     3
  9
$SHADEDIF
 70
    70
  9
$TILEMODE
 70
     1
  9
$MAXACTVP
 70
    64
  9
$PLIMCHECK
 70
     0
  9
$PEXTMIN
 10
1.000000000000000E+20
 20
1.000000000000000E+20
 30
1.000000000000000E+20
  9
$PEXTMAX
 10
-1.000000000000000E+20
 20
-1.000000000000000E+20
 30
-1.000000000000000E+20
  9
$PLIMMIN
 10
0.0
 20
0.0
  9
$PLIMMAX
 10
12.0
 20
9.0
  9
$UNITMODE
 70
     0
  9
$VISRETAIN
 70
     1
  9
$PLINEGEN
 70
     0
  9
$PSLTSCALE
 70
     1
  0
ENDSEC
  0
SECTION
  2
TABLES
  0
TABLE
  2
VPORT
 70
     1
  0
VPORT
  2
*ACTIVE
 70
     0
 10
0.0
 20
0.0
 11
1.0
 21
1.0
 12
10.42990654205607
 22
4.5
 13
0.0
 23
0.0
 14
0.5
 24
0.5
 15
0.5
 25
0.5
 16
0.0
 26
0.0
 36
1.0
 17
0.0
 27
0.0
 37
0.0
 40
9.0
 41
1.972972972850329
 42
50.0
 43
0.0
 44
0.0
 50
0.0
 51
0.0
 71
     0
 72
   100
 73
     1
 74
     3
 75
     0
 76
     0
 77
     0
 78
     0
  0
ENDTAB
  0
TABLE
  2
LTYPE
 70
     2
  0
LTYPE
  2
CONTINUOUS
 70
     0
  3
Solid line
 72
    65
 73
     0
 40
0.0
  0
LTYPE
  2
CONTINUOUS2
 70
     0
  3
Solid Line
 72
    65
 73
     0
 40
0.0
  0
ENDTAB
  0
TABLE
  2
LAYER
 70
     4
  0
LAYER
  2
0
 70
     0
 62
     7
  6
CONTINUOUS
  0
LAYER
  2
CUT_LAST
 70
     0
 62
    18
  6
CONTINUOUS
  0
LAYER
  2
CUT_FIRST
 70
     0
 62
   105
  6
CONTINUOUS
  0
LAYER
  2
6MM_ENGRAVE
 70
     0
 62
   245
  6
CONTINUOUS
  0
ENDTAB
  0
TABLE
  2
STYLE
 70
     1
  0
STYLE
  2
STANDARD
 70
     0
 40
0.0
 41
1.0
 50
0.0
 71
     0
 42
0.2
  3
txt
  4

  0
ENDTAB
  0
TABLE
  2
VIEW
 70
     0
  0
ENDTAB
  0
TABLE
  2
UCS
 70
     0
  0
ENDTAB
  0
TABLE
  2
APPID
 70
     1
  0
APPID
  2
ACAD
 70
     0
  0
ENDTAB
  0
TABLE
  2
DIMSTYLE
 70
     1
  0
DIMSTYLE
  2
STANDARD
 70
     0
  3

  4

  5

  6

  7

 40
1.0
 41
0.18
 42
0.0625
 43
0.38
 44
0.18
 45
0.0
 46
0.0
 47
0.0
 48
0.0
140
0.18
141
0.09
142
0.0
143
25.4
144
1.0
145
0.0
146
1.0
147
0.09
 71
     0
 72
     0
 73
     1
 74
     1
 75
     0
 76
     0
 77
     0
 78
     0
170
     0
171
     2
172
     0
173
     0
174
     0
175
     0
176
     0
177
     0
178
     0
  0
ENDTAB
  0
ENDSEC
  0
SECTION
  2
BLOCKS
  0
BLOCK
  8
0
  2
$MODEL_SPACE
 70
     0
 10
0.0
 20
0.0
 30
0.0
  3
$MODEL_SPACE
  1

  0
ENDBLK
  5
21
  8
0
  0
BLOCK
 67
     1
  8
0
  2
$PAPER_SPACE
 70
     0
 10
0.0
 20
0.0
 30
0.0
  3
$PAPER_SPACE
  1

  0
ENDBLK
  5
1D
 67
     1
  8
0
  0
ENDSEC
  0
SECTION
  2
ENTITIES
  0
POLYLINE
  5
41
  8
CUT_LAST
 66
     1
 10
0.0
 20
0.0
 30
0.0
 70
     1
  0
VERTEX
  5
A9
  8
CUT_LAST
 10
1251.598583882328
 20
-448.1949232425212
 30
0.0
  0
VERTEX
  5
AA
  8
CUT_LAST
 10
1269.598605138241
 20
-448.1949232425203
 30
0.0
  0
VERTEX
  5
AB
  8
CUT_LAST
 10
1269.598605138241
 20
-460.1949374131312
 30
0.0
  0
VERTEX
  5
AC
  8
CUT_LAST
 10
1303.598645288308
 20
-460.194937413134
 30
0.0
  0
VERTEX
  5
AD
  8
CUT_LAST
 10
1303.598645288306
 20
-448.1949232425203
 30
0.0
  0
VERTEX
  5
AE
  8
CUT_LAST
 10
1321.598666544221
 20
-448.1949232425239
 30
0.0
  0
VERTEX
  5
AF
  8
CUT_LAST
 10
1333.598680714842
 20
-448.1949232425303
 30
0.0
  0
VERTEX
  5
B0
  8
CUT_LAST
 10
1333.598680714833
 20
-478.1949586690606
 30
0.0
  0
VERTEX
  5
B1
  8
CUT_LAST
 10
1321.598666544219
 20
-478.194958669057
 30
0.0
  0
VERTEX
  5
B2
  8
CUT_LAST
 10
1321.598666544219
 20
-548.19504133095
 30
0.0
  0
VERTEX
  5
B3
  8
CUT_LAST
 10
1333.598680714831
 20
-548.1950413309509
 30
0.0
  0
VERTEX
  5
B4
  8
CUT_LAST
 10
1333.598680714831
 20
-578.1950767574793
 30
0.0
  0
VERTEX
  5
B5
  8
CUT_LAST
 10
1303.598645288306
 20
-578.1950767574793
 30
0.0
  0
VERTEX
  5
B6
  8
CUT_LAST
 10
1303.598645288311
 20
-566.1950625868684
 30
0.0
  0
VERTEX
  5
B7
  8
CUT_LAST
 10
1269.598605138241
 20
-566.1950625868684
 30
0.0
  0
VERTEX
  5
B8
  8
CUT_LAST
 10
1269.598605138239
 20
-578.1950767574803
 30
0.0
  0
VERTEX
  5
B9
  8
CUT_LAST
 10
1239.59856971172
 20
-578.1950767574793
 30
0.0
  0
VERTEX
  5
BA
  8
CUT_LAST
 10
1239.598569711718
 20
-548.1950413309518
 30
0.0
  0
VERTEX
  5
BB
  8
CUT_LAST
 10
1251.59858388233
 20
-548.19504133095
 30
0.0
  0
VERTEX
  5
BC
  8
CUT_LAST
 10
1251.59858388233
 20
-478.1949586690606
 30
0.0
  0
VERTEX
  5
BD
  8
CUT_LAST
 10
1239.59856971172
 20
-478.1949586690606
 30
0.0
  0
VERTEX
  5
BE
  8
CUT_LAST
 10
1239.59856971172
 20
-448.1949232425339
 30
0.0
  0
SEQEND
  5
BF
  8
CUT_LAST
  0
POLYLINE
  5
43
  8
CUT_FIRST
 66
     1
 10
0.0
 20
0.0
 30
0.0
 70
     1
  0
VERTEX
  5
C0
  8
CUT_FIRST
 10
1280.09862521328
 20
-473.1950000000003
 30
0.0
  0
VERTEX
  5
C1
  8
CUT_FIRST
 10
1280.09862521328
 20
-553.1950000000003
 30
0.0
  0
VERTEX
  5
C2
  8
CUT_FIRST
 10
1293.09862521328
 20
-553.1950000000003
 30
0.0
  0
VERTEX
  5
C3
  8
CUT_FIRST
 10
1293.09862521328
 20
-473.1950000000003
 30
0.0
  0
SEQEND
  5
C4
  8
CUT_FIRST
  0
POLYLINE
  5
45
  8
6MM_ENGRAVE
 66
     1
 10
0.0
 20
0.0
 30
0.0
 70
     1
  0
VERTEX
  5
C5
  8
6MM_ENGRAVE
 10
1255.121653103737
 20
-582.9237864090849
 30
0.0
  0
VERTEX
  5
C6
  8
6MM_ENGRAVE
 10
1239.029453926687
 20
-582.9237864090835
 30
0.0
  0
VERTEX
  5
C7
  8
6MM_ENGRAVE
 10
1239.121631847814
 20
-598.9180445241266
 30
0.0
  0
VERTEX
  5
C8
  8
6MM_ENGRAVE
 10
1239.121631847811
 20
-632.9312902531576
 30
0.0
  0
VERTEX
  5
C9
  8
6MM_ENGRAVE
 10
1239.001878241565
 20
-649.0217080314421
 30
0.0
  0
VERTEX
  5
CA
  8
6MM_ENGRAVE
 10
1255.115581374203
 20
-648.9238690709728
 30
0.0
  0
VERTEX
  5
CB
  8
6MM_ENGRAVE
 10
1325.125253164525
 20
-648.9238690709738
 30
0.0
  0
VERTEX
  5
CC
  8
6MM_ENGRAVE
 10
1341.139517591301
 20
-648.9801978103742
 30
0.0
  0
VERTEX
  5
CD
  8
6MM_ENGRAVE
 10
1341.121757021549
 20
-632.9249540325739
 30
0.0
  0
VERTEX
  5
CE
  8
6MM_ENGRAVE
 10
1341.121757021547
 20
-598.9228813899583
 30
0.0
  0
VERTEX
  5
CF
  8
6MM_ENGRAVE
 10
1341.136484589273
 20
-583.0231255645456
 30
0.0
  0
VERTEX
  5
D0
  8
6MM_ENGRAVE
 10
1325.115535246639
 20
-582.9237864090849
 30
0.0
  0
SEQEND
  5
D1
  8
6MM_ENGRAVE
  0
POLYLINE
  5
46
  8
6MM_ENGRAVE
 66
     1
 10
0.0
 20
0.0
 30
0.0
 70
     1
  0
VERTEX
  5
D2
  8
6MM_ENGRAVE
 10
1311.09862521328
 20
-531.1950000000003
 30
0.0
  0
VERTEX
  5
D3
  8
6MM_ENGRAVE
 10
1299.09862521328
 20
-531.1950000000003
 30
0.0
  0
VERTEX
  5
D4
  8
6MM_ENGRAVE
 10
1299.09862521328
 20
-519.1949999999989
 30
0.0
  0
VERTEX
  5
D5
  8
6MM_ENGRAVE
 10
1311.09862521328
 20
-519.1950000000003
 30
0.0
  0
SEQEND
  5
D6
  8
6MM_ENGRAVE
  0
POLYLINE
  5
47
  8
6MM_ENGRAVE
 66
     1
 10
0.0
 20
0.0
 30
0.0
 70
     1
  0
VERTEX
  5
D7
  8
6MM_ENGRAVE
 10
1299.09862521328
 20
-483.1950000000003
 30
0.0
  0
VERTEX
  5
D8
  8
6MM_ENGRAVE
 10
1311.098625213282
 20
-483.1950000000019
 30
0.0
  0
VERTEX
  5
D9
  8
6MM_ENGRAVE
 10
1311.09862521328
 20
-471.1950000000003
 30
0.0
  0
VERTEX
  5
DA
  8
6MM_ENGRAVE
 10
1299.09862521328
 20
-471.1950000000003
 30
0.0
  0
SEQEND
  5
DB
  8
6MM_ENGRAVE
  0
POLYLINE
  5
48
  8
6MM_ENGRAVE
 66
     1
 10
0.0
 20
0.0
 30
0.0
 70
     1
  0
VERTEX
  5
DC
  8
6MM_ENGRAVE
 10
1299.09862521328
 20
-507.1950000000003
 30
0.0
  0
VERTEX
  5
DD
  8
6MM_ENGRAVE
 10
1311.098625213282
 20
-507.1950000000019
 30
0.0
  0
VERTEX
  5
DE
  8
6MM_ENGRAVE
 10
1311.09862521328
 20
-495.1950000000003
 30
0.0
  0
VERTEX
  5
DF
  8
6MM_ENGRAVE
 10
1299.09862521328
 20
-495.1950000000003
 30
0.0
  0
SEQEND
  5
E0
  8
6MM_ENGRAVE
  0
POLYLINE
  5
49
  8
6MM_ENGRAVE
 66
     1
 10
0.0
 20
0.0
 30
0.0
 70
     1
  0
VERTEX
  5
E1
  8
6MM_ENGRAVE
 10
1262.09862521328
 20
-507.1950000000003
 30
0.0
  0
VERTEX
  5
E2
  8
6MM_ENGRAVE
 10
1274.098625213281
 20
-507.1950000000004
 30
0.0
  0
VERTEX
  5
E3
  8
6MM_ENGRAVE
 10
1274.09862521328
 20
-495.1950000000003
 30
0.0
  0
VERTEX
  5
E4
  8
6MM_ENGRAVE
 10
1262.09862521328
 20
-495.1950000000003
 30
0.0
  0
SEQEND
  5
E5
  8
6MM_ENGRAVE
  0
POLYLINE
  5
4A
  8
6MM_ENGRAVE
 66
     1
 10
0.0
 20
0.0
 30
0.0
 70
     1
  0
VERTEX
  5
E6
  8
6MM_ENGRAVE
 10
1262.09862521328
 20
-519.1950000000003
 30
0.0
  0
VERTEX
  5
E7
  8
6MM_ENGRAVE
 10
1274.09862521328
 20
-519.1950000000005
 30
0.0
  0
VERTEX
  5
E8
  8
6MM_ENGRAVE
 10
1274.09862521328
 20
-531.1950000000003
 30
0.0
  0
VERTEX
  5
E9
  8
6MM_ENGRAVE
 10
1262.09862521328
 20
-531.1950000000003
 30
0.0
  0
SEQEND
  5
EA
  8
6MM_ENGRAVE
  0
POLYLINE
  5
4B
  8
6MM_ENGRAVE
 66
     1
 10
0.0
 20
0.0
 30
0.0
 70
     1
  0
VERTEX
  5
EB
  8
6MM_ENGRAVE
 10
1262.09862521328
 20
-483.1950000000003
 30
0.0
  0
VERTEX
  5
EC
  8
6MM_ENGRAVE
 10
1274.098625213281
 20
-483.1950000000004
 30
0.0
  0
VERTEX
  5
ED
  8
6MM_ENGRAVE
 10
1274.09862521328
 20
-471.1950000000003
 30
0.0
  0
VERTEX
  5
EE
  8
6MM_ENGRAVE
 10
1262.09862521328
 20
-471.1950000000003
 30
0.0
  0
SEQEND
  5
EF
  8
6MM_ENGRAVE
  0
POLYLINE
  5
4C
  8
6MM_ENGRAVE
 66
     1
 10
0.0
 20
0.0
 30
0.0
 70
     1
  0
VERTEX
  5
F0
  8
6MM_ENGRAVE
 10
1311.09862521328
 20
-555.1950000000003
 30
0.0
  0
VERTEX
  5
F1
  8
6MM_ENGRAVE
 10
1299.09862521328
 20
-555.1950000000003
 30
0.0
  0
VERTEX
  5
F2
  8
6MM_ENGRAVE
 10
1299.09862521328
 20
-543.1949999999989
 30
0.0
  0
VERTEX
  5
F3
  8
6MM_ENGRAVE
 10
1311.09862521328
 20
-543.1950000000003
 30
0.0
  0
SEQEND
  5
F4
  8
6MM_ENGRAVE
  0
POLYLINE
  5
4D
  8
6MM_ENGRAVE
 66
     1
 10
0.0
 20
0.0
 30
0.0
 70
     1
  0
VERTEX
  5
F5
  8
6MM_ENGRAVE
 10
1262.09862521328
 20
-543.1950000000003
 30
0.0
  0
VERTEX
  5
F6
  8
6MM_ENGRAVE
 10
1274.09862521328
 20
-543.1950000000005
 30
0.0
  0
VERTEX
  5
F7
  8
6MM_ENGRAVE
 10
1274.09862521328
 20
-555.1950000000003
 30
0.0
  0
VERTEX
  5
F8
  8
6MM_ENGRAVE
 10
1262.09862521328
 20
-555.1950000000003
 30
0.0
  0
SEQEND
  5
F9
  8
6MM_ENGRAVE
  0
POLYLINE
  5
4E
  8
6MM_ENGRAVE
 66
     1
 10
0.0
 20
0.0
 30
0.0
 70
     1
  0
VERTEX
  5
FA
  8
6MM_ENGRAVE
 10
1382.712885416433
 20
-477.9544114732135
 30
0.0
 42
0.4142135623730951
  0
VERTEX
  5
FB
  8
6MM_ENGRAVE
 10
1370.212885416433
 20
-465.4544114732135
 30
0.0
 42
0.4142135623730951
  0
VERTEX
  5
FC
  8
6MM_ENGRAVE
 10
1357.712885416432
 20
-477.9544114732135
 30
0.0
 42
0.4142135623730951
  0
VERTEX
  5
FD
  8
6MM_ENGRAVE
 10
1370.212885416433
 20
-490.4544114732135
 30
0.0
 42
0.4142135623730951
  0
SEQEND
  5
FE
  8
6MM_ENGRAVE
  0
POLYLINE
  5
4F
  8
6MM_ENGRAVE
 66
     1
 10
0.0
 20
0.0
 30
0.0
 70
     1
  0
VERTEX
  5
FF
  8
6MM_ENGRAVE
 10
1375.212885416433
 20
-518.5728114732138
 30
0.0
 42
0.4142135623730951
  0
VERTEX
  5
100
  8
6MM_ENGRAVE
 10
1370.212885416433
 20
-513.5728114732138
 30
0.0
 42
0.4142135623730951
  0
VERTEX
  5
101
  8
6MM_ENGRAVE
 10
1365.212885416433
 20
-518.5728114732138
 30
0.0
 42
0.4142135623730951
  0
VERTEX
  5
102
  8
6MM_ENGRAVE
 10
1370.212885416433
 20
-523.5728114732138
 30
0.0
 42
0.4142135623730951
  0
SEQEND
  5
103
  8
6MM_ENGRAVE
  0
POLYLINE
  5
50
  8
6MM_ENGRAVE
 66
     1
 10
0.0
 20
0.0
 30
0.0
  0
VERTEX
  5
104
  8
6MM_ENGRAVE
 10
1394.269923423119
 20
-639.4054944788348
 30
0.0
  0
VERTEX
  5
105
  8
6MM_ENGRAVE
 10
1346.155847409746
 20
-639.4054944788348
 30
0.0
  0
SEQEND
  5
106
  8
6MM_ENGRAVE
  0
POLYLINE
  5
51
  8
6MM_ENGRAVE
 66
     1
 10
0.0
 20
0.0
 30
0.0
  0
VERTEX
  5
107
  8
6MM_ENGRAVE
 10
1394.269923423119
 20
-639.4054944788348
 30
0.0
  0
VERTEX
  5
108
  8
6MM_ENGRAVE
 10
1394.269923423119
 20
-450.3399999616925
 30
0.0
  0
VERTEX
  5
109
  8
6MM_ENGRAVE
 10
1346.155847409746
 20
-450.3399999616925
 30
0.0
  0
VERTEX
  5
10A
  8
6MM_ENGRAVE
 10
1346.155847409746
 20
-639.4054944788348
 30
0.0
  0
SEQEND
  5
10B
  8
6MM_ENGRAVE
  0
POLYLINE
  5
52
  8
6MM_ENGRAVE
 66
     1
 10
0.0
 20
0.0
 30
0.0
 70
     1
  0
VERTEX
  5
10C
  8
6MM_ENGRAVE
 10
1201.872269203306
 20
-666.3770380066867
 30
0.0
 42
0.4142135623730951
  0
VERTEX
  5
10D
  8
6MM_ENGRAVE
 10
1214.372269203306
 20
-653.8770380066867
 30
0.0
 42
0.4142135623730951
  0
VERTEX
  5
10E
  8
6MM_ENGRAVE
 10
1201.872269203306
 20
-641.3770380066868
 30
0.0
 42
0.4142135623730951
  0
VERTEX
  5
10F
  8
6MM_ENGRAVE
 10
1189.372269203306
 20
-653.8770380066867
 30
0.0
 42
0.4142135623730951
  0
SEQEND
  5
110
  8
6MM_ENGRAVE
  0
POLYLINE
  5
53
  8
6MM_ENGRAVE
 66
     1
 10
0.0
 20
0.0
 30
0.0
 70
     1
  0
VERTEX
  5
111
  8
6MM_ENGRAVE
 10
1196.872269203306
 20
-621.3770380066867
 30
0.0
 42
0.4142135623730951
  0
VERTEX
  5
112
  8
6MM_ENGRAVE
 10
1201.872269203306
 20
-626.3770380066866
 30
0.0
 42
0.4142135623730951
  0
VERTEX
  5
113
  8
6MM_ENGRAVE
 10
1206.872269203306
 20
-621.3770380066867
 30
0.0
 42
0.4142135623730951
  0
VERTEX
  5
114
  8
6MM_ENGRAVE
 10
1201.872269203306
 20
-616.3770380066867
 30
0.0
 42
0.4142135623730951
  0
SEQEND
  5
115
  8
6MM_ENGRAVE
  0
POLYLINE
  5
54
  8
6MM_ENGRAVE
 66
     1
 10
0.0
 20
0.0
 30
0.0
 70
     1
  0
VERTEX
  5
116
  8
6MM_ENGRAVE
 10
1382.546893056003
 20
-853.5489399240402
 30
0.0
  0
VERTEX
  5
117
  8
6MM_ENGRAVE
 10
1364.54687180009
 20
-853.5489399240411
 30
0.0
  0
VERTEX
  5
118
  8
6MM_ENGRAVE
 10
1364.54687180009
 20
-841.5489257534301
 30
0.0
  0
VERTEX
  5
119
  8
6MM_ENGRAVE
 10
1330.546831650023
 20
-841.5489257534274
 30
0.0
  0
VERTEX
  5
11A
  8
6MM_ENGRAVE
 10
1330.546831650025
 20
-853.5489399240411
 30
0.0
  0
VERTEX
  5
11B
  8
6MM_ENGRAVE
 10
1312.54681039411
 20
-853.5489399240374
 30
0.0
  0
VERTEX
  5
11C
  8
6MM_ENGRAVE
 10
1300.546796223489
 20
-853.5489399240311
 30
0.0
  0
VERTEX
  5
11D
  8
6MM_ENGRAVE
 10
1300.546796223498
 20
-823.5489044975008
 30
0.0
  0
VERTEX
  5
11E
  8
6MM_ENGRAVE
 10
1312.546810394112
 20
-823.5489044975044
 30
0.0
  0
VERTEX
  5
11F
  8
6MM_ENGRAVE
 10
1312.546810394112
 20
-753.5488218356114
 30
0.0
  0
VERTEX
  5
120
  8
6MM_ENGRAVE
 10
1300.5467962235
 20
-753.5488218356105
 30
0.0
  0
VERTEX
  5
121
  8
6MM_ENGRAVE
 10
1300.5467962235
 20
-723.548786409082
 30
0.0
  0
VERTEX
  5
122
  8
6MM_ENGRAVE
 10
1330.546831650025
 20
-723.548786409082
 30
0.0
  0
VERTEX
  5
123
  8
6MM_ENGRAVE
 10
1330.54683165002
 20
-735.548800579693
 30
0.0
  0
VERTEX
  5
124
  8
6MM_ENGRAVE
 10
1364.54687180009
 20
-735.548800579693
 30
0.0
  0
VERTEX
  5
125
  8
6MM_ENGRAVE
 10
1364.546871800092
 20
-723.5487864090811
 30
0.0
  0
VERTEX
  5
126
  8
6MM_ENGRAVE
 10
1394.546907226611
 20
-723.548786409082
 30
0.0
  0
VERTEX
  5
127
  8
6MM_ENGRAVE
 10
1394.546907226613
 20
-753.5488218356096
 30
0.0
  0
VERTEX
  5
128
  8
6MM_ENGRAVE
 10
1382.546893056001
 20
-753.5488218356114
 30
0.0
  0
VERTEX
  5
129
  8
6MM_ENGRAVE
 10
1382.546893056001
 20
-823.5489044975008
 30
0.0
  0
VERTEX
  5
12A
  8
6MM_ENGRAVE
 10
1394.546907226611
 20
-823.5489044975008
 30
0.0
  0
VERTEX
  5
12B
  8
6MM_ENGRAVE
 10
1394.546907226611
 20
-853.5489399240274
 30
0.0
  0
SEQEND
  5
12C
  8
6MM_ENGRAVE
  0
POLYLINE
  5
55
  8
6MM_ENGRAVE
 66
     1
 10
0.0
 20
0.0
 30
0.0
 70
     1
  0
VERTEX
  5
12D
  8
6MM_ENGRAVE
 10
1354.046851725052
 20
-828.5488631665609
 30
0.0
  0
VERTEX
  5
12E
  8
6MM_ENGRAVE
 10
1354.046851725052
 20
-748.5488631665609
 30
0.0
  0
VERTEX
  5
12F
  8
6MM_ENGRAVE
 10
1341.046851725052
 20
-748.5488631665609
 30
0.0
  0
VERTEX
  5
130
  8
6MM_ENGRAVE
 10
1341.046851725052
 20
-828.5488631665609
 30
0.0
  0
SEQEND
  5
131
  8
6MM_ENGRAVE
  0
POLYLINE
  5
56
  8
6MM_ENGRAVE
 66
     1
 10
0.0
 20
0.0
 30
0.0
 70
     1
  0
VERTEX
  5
132
  8
6MM_ENGRAVE
 10
1379.023823834594
 20
-718.8200767574764
 30
0.0
  0
VERTEX
  5
133
  8
6MM_ENGRAVE
 10
1395.116023011644
 20
-718.8200767574778
 30
0.0
  0
VERTEX
  5
134
  8
6MM_ENGRAVE
 10
1395.023845090517
 20
-702.8258186424347
 30
0.0
  0
VERTEX
  5
135
  8
6MM_ENGRAVE
 10
1395.02384509052
 20
-668.8125729134036
 30
0.0
  0
VERTEX
  5
136
  8
6MM_ENGRAVE
 10
1395.143598696766
 20
-652.7221551351191
 30
0.0
  0
VERTEX
  5
137
  8
6MM_ENGRAVE
 10
1379.029895564128
 20
-652.8199940955884
 30
0.0
  0
VERTEX
  5
138
  8
6MM_ENGRAVE
 10
1309.020223773806
 20
-652.8199940955875
 30
0.0
  0
VERTEX
  5
139
  8
6MM_ENGRAVE
 10
1293.00595934703
 20
-652.7636653561871
 30
0.0
  0
VERTEX
  5
13A
  8
6MM_ENGRAVE
 10
1293.023719916782
 20
-668.8189091339874
 30
0.0
  0
VERTEX
  5
13B
  8
6MM_ENGRAVE
 10
1293.023719916784
 20
-702.8209817766029
 30
0.0
  0
VERTEX
  5
13C
  8
6MM_ENGRAVE
 10
1293.008992349058
 20
-718.7207376020157
 30
0.0
  0
VERTEX
  5
13D
  8
6MM_ENGRAVE
 10
1309.029941691692
 20
-718.8200767574764
 30
0.0
  0
SEQEND
  5
13E
  8
6MM_ENGRAVE
  0
POLYLINE
  5
57
  8
6MM_ENGRAVE
 66
     1
 10
0.0
 20
0.0
 30
0.0
 70
     1
  0
VERTEX
  5
13F
  8
6MM_ENGRAVE
 10
1323.046851725052
 20
-770.5488631665609
 30
0.0
  0
VERTEX
  5
140
  8
6MM_ENGRAVE
 10
1335.046851725052
 20
-770.5488631665609
 30
0.0
  0
VERTEX
  5
141
  8
6MM_ENGRAVE
 10
1335.046851725052
 20
-782.5488631665622
 30
0.0
  0
VERTEX
  5
142
  8
6MM_ENGRAVE
 10
1323.046851725052
 20
-782.5488631665609
 30
0.0
  0
SEQEND
  5
143
  8
6MM_ENGRAVE
  0
POLYLINE
  5
58
  8
6MM_ENGRAVE
 66
     1
 10
0.0
 20
0.0
 30
0.0
 70
     1
  0
VERTEX
  5
144
  8
6MM_ENGRAVE
 10
1335.046851725052
 20
-818.5488631665609
 30
0.0
  0
VERTEX
  5
145
  8
6MM_ENGRAVE
 10
1323.046851725049
 20
-818.5488631665595
 30
0.0
  0
VERTEX
  5
146
  8
6MM_ENGRAVE
 10
1323.046851725052
 20
-830.5488631665609
 30
0.0
  0
VERTEX
  5
147
  8
6MM_ENGRAVE
 10
1335.046851725052
 20
-830.5488631665609
 30
0.0
  0
SEQEND
  5
148
  8
6MM_ENGRAVE
  0
POLYLINE
  5
59
  8
6MM_ENGRAVE
 66
     1
 10
0.0
 20
0.0
 30
0.0
 70
     1
  0
VERTEX
  5
149
  8
6MM_ENGRAVE
 10
1335.046851725052
 20
-794.5488631665609
 30
0.0
  0
VERTEX
  5
14A
  8
6MM_ENGRAVE
 10
1323.046851725049
 20
-794.5488631665595
 30
0.0
  0
VERTEX
  5
14B
  8
6MM_ENGRAVE
 10
1323.046851725052
 20
-806.5488631665609
 30
0.0
  0
VERTEX
  5
14C
  8
6MM_ENGRAVE
 10
1335.046851725052
 20
-806.5488631665609
 30
0.0
  0
SEQEND
  5
14D
  8
6MM_ENGRAVE
  0
POLYLINE
  5
5A
  8
6MM_ENGRAVE
 66
     1
 10
0.0
 20
0.0
 30
0.0
 70
     1
  0
VERTEX
  5
14E
  8
6MM_ENGRAVE
 10
1372.046851725052
 20
-794.5488631665609
 30
0.0
  0
VERTEX
  5
14F
  8
6MM_ENGRAVE
 10
1360.04685172505
 20
-794.5488631665609
 30
0.0
  0
VERTEX
  5
150
  8
6MM_ENGRAVE
 10
1360.046851725052
 20
-806.5488631665609
 30
0.0
  0
VERTEX
  5
151
  8
6MM_ENGRAVE
 10
1372.046851725052
 20
-806.5488631665609
 30
0.0
  0
SEQEND
  5
152
  8
6MM_ENGRAVE
  0
POLYLINE
  5
5B
  8
6MM_ENGRAVE
 66
     1
 10
0.0
 20
0.0
 30
0.0
 70
     1
  0
VERTEX
  5
153
  8
6MM_ENGRAVE
 10
1372.046851725052
 20
-782.5488631665609
 30
0.0
  0
VERTEX
  5
154
  8
6MM_ENGRAVE
 10
1360.046851725052
 20
-782.5488631665609
 30
0.0
  0
VERTEX
  5
155
  8
6MM_ENGRAVE
 10
1360.046851725052
 20
-770.5488631665609
 30
0.0
  0
VERTEX
  5
156
  8
6MM_ENGRAVE
 10
1372.046851725052
 20
-770.5488631665609
 30
0.0
  0
SEQEND
  5
157
  8
6MM_ENGRAVE
  0
POLYLINE
  5
5C
  8
6MM_ENGRAVE
 66
     1
 10
0.0
 20
0.0
 30
0.0
 70
     1
  0
VERTEX
  5
158
  8
6MM_ENGRAVE
 10
1372.046851725052
 20
-818.5488631665609
 30
0.0
  0
VERTEX
  5
159
  8
6MM_ENGRAVE
 10
1360.04685172505
 20
-818.5488631665609
 30
0.0
  0
VERTEX
  5
15A
  8
6MM_ENGRAVE
 10
1360.046851725052
 20
-830.5488631665609
 30
0.0
  0
VERTEX
  5
15B
  8
6MM_ENGRAVE
 10
1372.046851725052
 20
-830.5488631665609
 30
0.0
  0
SEQEND
  5
15C
  8
6MM_ENGRAVE
  0
POLYLINE
  5
5D
  8
6MM_ENGRAVE
 66
     1
 10
0.0
 20
0.0
 30
0.0
 70
     1
  0
VERTEX
  5
15D
  8
6MM_ENGRAVE
 10
1323.046851725052
 20
-746.5488631665609
 30
0.0
  0
VERTEX
  5
15E
  8
6MM_ENGRAVE
 10
1335.046851725052
 20
-746.5488631665609
 30
0.0
  0
VERTEX
  5
15F
  8
6MM_ENGRAVE
 10
1335.046851725052
 20
-758.5488631665622
 30
0.0
  0
VERTEX
  5
160
  8
6MM_ENGRAVE
 10
1323.046851725052
 20
-758.5488631665609
 30
0.0
  0
SEQEND
  5
161
  8
6MM_ENGRAVE
  0
POLYLINE
  5
5E
  8
6MM_ENGRAVE
 66
     1
 10
0.0
 20
0.0
 30
0.0
 70
     1
  0
VERTEX
  5
162
  8
6MM_ENGRAVE
 10
1372.046851725052
 20
-758.5488631665609
 30
0.0
  0
VERTEX
  5
163
  8
6MM_ENGRAVE
 10
1360.046851725052
 20
-758.5488631665609
 30
0.0
  0
VERTEX
  5
164
  8
6MM_ENGRAVE
 10
1360.046851725052
 20
-746.5488631665609
 30
0.0
  0
VERTEX
  5
165
  8
6MM_ENGRAVE
 10
1372.046851725052
 20
-746.5488631665609
 30
0.0
  0
SEQEND
  5
166
  8
6MM_ENGRAVE
  0
POLYLINE
  5
5F
  8
6MM_ENGRAVE
 66
     1
 10
0.0
 20
0.0
 30
0.0
 70
     1
  0
VERTEX
  5
167
  8
6MM_ENGRAVE
 10
1027.9660130625
 20
-343.7069019687502
 30
0.0
 42
0.4142135623730951
  0
VERTEX
  5
168
  8
6MM_ENGRAVE
 10
1023.2160130625
 20
-348.4569019687502
 30
0.0
 42
0.4142135623730951
  0
VERTEX
  5
169
  8
6MM_ENGRAVE
 10
1027.9660130625
 20
-353.2069019687502
 30
0.0
 42
0.4142135623730951
  0
VERTEX
  5
16A
  8
6MM_ENGRAVE
 10
1032.7160130625
 20
-348.4569019687502
 30
0.0
 42
0.4142135623730951
  0
SEQEND
  5
16B
  8
6MM_ENGRAVE
  0
POLYLINE
  5
60
  8
6MM_ENGRAVE
 66
     1
 10
0.0
 20
0.0
 30
0.0
 70
     1
  0
VERTEX
  5
16C
  8
6MM_ENGRAVE
 10
1027.9660130625
 20
-343.7069019687502
 30
0.0
 42
0.4142135623730951
  0
VERTEX
  5
16D
  8
6MM_ENGRAVE
 10
1023.2160130625
 20
-348.4569019687502
 30
0.0
 42
0.4142135623730951
  0
VERTEX
  5
16E
  8
6MM_ENGRAVE
 10
1027.9660130625
 20
-353.2069019687502
 30
0.0
 42
0.4142135623730951
  0
VERTEX
  5
16F
  8
6MM_ENGRAVE
 10
1032.7160130625
 20
-348.4569019687502
 30
0.0
 42
0.4142135623730951
  0
SEQEND
  5
170
  8
6MM_ENGRAVE
  0
POLYLINE
  5
61
  8
6MM_ENGRAVE
 66
     1
 10
0.0
 20
0.0
 30
0.0
 70
     1
  0
VERTEX
  5
171
  8
6MM_ENGRAVE
 10
1017.2160130625
 20
-348.4569019687502
 30
0.0
 42
0.414213562373095
  0
VERTEX
  5
172
  8
6MM_ENGRAVE
 10
1027.9660130625
 20
-359.2069019687502
 30
0.0
 42
0.414213562373095
  0
VERTEX
  5
173
  8
6MM_ENGRAVE
 10
1038.7160130625
 20
-348.4569019687502
 30
0.0
 42
0.414213562373095
  0
VERTEX
  5
174
  8
6MM_ENGRAVE
 10
1027.9660130625
 20
-337.7069019687502
 30
0.0
 42
0.414213562373095
  0
SEQEND
  5
175
  8
6MM_ENGRAVE
  0
POLYLINE
  5
62
  8
6MM_ENGRAVE
 66
     1
 10
0.0
 20
0.0
 30
0.0
 70
     1
  0
VERTEX
  5
176
  8
6MM_ENGRAVE
 10
1069.1164036875
 20
-343.7069019687502
 30
0.0
 42
0.4142135623730951
  0
VERTEX
  5
177
  8
6MM_ENGRAVE
 10
1064.3664036875
 20
-348.4569019687502
 30
0.0
 42
0.4142135623730951
  0
VERTEX
  5
178
  8
6MM_ENGRAVE
 10
1069.1164036875
 20
-353.2069019687502
 30
0.0
 42
0.4142135623730951
  0
VERTEX
  5
179
  8
6MM_ENGRAVE
 10
1073.8664036875
 20
-348.4569019687502
 30
0.0
 42
0.4142135623730951
  0
SEQEND
  5
17A
  8
6MM_ENGRAVE
  0
POLYLINE
  5
63
  8
6MM_ENGRAVE
 66
     1
 10
0.0
 20
0.0
 30
0.0
 70
     1
  0
VERTEX
  5
17B
  8
6MM_ENGRAVE
 10
1069.1164036875
 20
-343.7069019687502
 30
0.0
 42
0.4142135623730951
  0
VERTEX
  5
17C
  8
6MM_ENGRAVE
 10
1064.3664036875
 20
-348.4569019687502
 30
0.0
 42
0.4142135623730951
  0
VERTEX
  5
17D
  8
6MM_ENGRAVE
 10
1069.1164036875
 20
-353.2069019687502
 30
0.0
 42
0.4142135623730951
  0
VERTEX
  5
17E
  8
6MM_ENGRAVE
 10
1073.8664036875
 20
-348.4569019687502
 30
0.0
 42
0.4142135623730951
  0
SEQEND
  5
17F
  8
6MM_ENGRAVE
  0
POLYLINE
  5
64
  8
6MM_ENGRAVE
 66
     1
 10
0.0
 20
0.0
 30
0.0
 70
     1
  0
VERTEX
  5
180
  8
6MM_ENGRAVE
 10
1058.3664036875
 20
-348.4569019687502
 30
0.0
 42
0.414213562373095
  0
VERTEX
  5
181
  8
6MM_ENGRAVE
 10
1069.1164036875
 20
-359.2069019687502
 30
0.0
 42
0.414213562373095
  0
VERTEX
  5
182
  8
6MM_ENGRAVE
 10
1079.8664036875
 20
-348.4569019687502
 30
0.0
 42
0.414213562373095
  0
VERTEX
  5
183
  8
6MM_ENGRAVE
 10
1069.1164036875
 20
-337.7069019687502
 30
0.0
 42
0.414213562373095
  0
SEQEND
  5
184
  8
6MM_ENGRAVE
  0
POLYLINE
  5
65
  8
6MM_ENGRAVE
 66
     1
 10
0.0
 20
0.0
 30
0.0
 70
     1
  0
VERTEX
  5
185
  8
6MM_ENGRAVE
 10
1201.809003877801
 20
-681.3774382728491
 30
0.0
 42
0.4142135623730951
  0
VERTEX
  5
186
  8
6MM_ENGRAVE
 10
1196.872669469468
 20
-686.4403033321911
 30
0.0
 42
0.4142135623730951
  0
VERTEX
  5
187
  8
6MM_ENGRAVE
 10
1201.93553452881
 20
-691.3766377405243
 30
0.0
 42
0.4142135623730951
  0
VERTEX
  5
188
  8
6MM_ENGRAVE
 10
1206.871868937143
 20
-686.3137726811823
 30
0.0
 42
0.4142135623730951
  0
SEQEND
  5
189
  8
6MM_ENGRAVE
  0
POLYLINE
  5
66
  8
6MM_ENGRAVE
 66
     1
 10
0.0
 20
0.0
 30
0.0
 70
     1
  0
VERTEX
  5
18A
  8
6MM_ENGRAVE
 10
1182.467049527564
 20
-634.3909227838095
 30
0.0
 42
0.4142135623730951
  0
VERTEX
  5
18B
  8
6MM_ENGRAVE
 10
1182.382751469118
 20
-627.3203574713792
 30
0.0
 42
0.4142135623730951
  0
VERTEX
  5
18C
  8
6MM_ENGRAVE
 10
1175.312186156688
 20
-627.4046555298252
 30
0.0
 42
0.4142135623730951
  0
VERTEX
  5
18D
  8
6MM_ENGRAVE
 10
1175.396484215134
 20
-634.4752208422555
 30
0.0
 42
0.4142135623730951
  0
SEQEND
  5
18E
  8
6MM_ENGRAVE
  0
POLYLINE
  5
67
  8
6MM_ENGRAVE
 66
     1
 10
0.0
 20
0.0
 30
0.0
 70
     1
  0
VERTEX
  5
18F
  8
6MM_ENGRAVE
 10
1174.37190547074
 20
-653.8166597818133
 30
0.0
 42
0.4142135623730951
  0
VERTEX
  5
190
  8
6MM_ENGRAVE
 10
1169.309040411399
 20
-648.8803253734794
 30
0.0
 42
0.4142135623730951
  0
VERTEX
  5
191
  8
6MM_ENGRAVE
 10
1164.372706003065
 20
-653.9431904328208
 30
0.0
 42
0.4142135623730951
  0
VERTEX
  5
192
  8
6MM_ENGRAVE
 10
1169.435571062406
 20
-658.8795248411546
 30
0.0
 42
0.4142135623730951
  0
SEQEND
  5
193
  8
6MM_ENGRAVE
  0
POLYLINE
  5
68
  8
6MM_ENGRAVE
 66
     1
 10
0.0
 20
0.0
 30
0.0
 70
     1
  0
VERTEX
  5
194
  8
6MM_ENGRAVE
 10
1182.386842595907
 20
-673.2829300714756
 30
0.0
 42
0.4142135623730951
  0
VERTEX
  5
195
  8
6MM_ENGRAVE
 10
1175.316277283477
 20
-673.3672281299201
 30
0.0
 42
0.4142135623730951
  0
VERTEX
  5
196
  8
6MM_ENGRAVE
 10
1175.400575341921
 20
-680.4377934423504
 30
0.0
 42
0.4142135623730951
  0
VERTEX
  5
197
  8
6MM_ENGRAVE
 10
1182.471140654352
 20
-680.3534953839059
 30
0.0
 42
0.4142135623730951
  0
SEQEND
  5
198
  8
6MM_ENGRAVE
  0
POLYLINE
  5
69
  8
6MM_ENGRAVE
 66
     1
 10
0.0
 20
0.0
 30
0.0
 70
     1
  0
VERTEX
  5
199
  8
6MM_ENGRAVE
 10
1219.467736714827
 20
-718.8200767574771
 30
0.0
 42
-1.0
  0
VERTEX
  5
19A
  8
6MM_ENGRAVE
 10
1219.467736714827
 20
-588.8199232425322
 30
0.0
  0
VERTEX
  5
19B
  8
6MM_ENGRAVE
 10
1223.006680714827
 20
-588.8199232425322
 30
0.0
  0
VERTEX
  5
19C
  8
6MM_ENGRAVE
 10
1223.006680714827
 20
-611.8199999999983
 30
0.0
  0
VERTEX
  5
19D
  8
6MM_ENGRAVE
 10
1235.006680714828
 20
-611.8199999999983
 30
0.0
  0
VERTEX
  5
19E
  8
6MM_ENGRAVE
 10
1235.006680714828
 20
-623.8199999999982
 30
0.0
  0
VERTEX
  5
19F
  8
6MM_ENGRAVE
 10
1223.006680714827
 20
-623.8199999999972
 30
0.0
  0
VERTEX
  5
1A0
  8
6MM_ENGRAVE
 10
1223.006680714827
 20
-635.8200000000015
 30
0.0
  0
VERTEX
  5
1A1
  8
6MM_ENGRAVE
 10
1235.006680714828
 20
-635.8199999999981
 30
0.0
  0
VERTEX
  5
1A2
  8
6MM_ENGRAVE
 10
1235.006680714828
 20
-647.819999999998
 30
0.0
  0
VERTEX
  5
1A3
  8
6MM_ENGRAVE
 10
1223.006680714827
 20
-647.8200000000007
 30
0.0
  0
VERTEX
  5
1A4
  8
6MM_ENGRAVE
 10
1223.006680714827
 20
-659.8199999999995
 30
0.0
  0
VERTEX
  5
1A5
  8
6MM_ENGRAVE
 10
1235.006680714828
 20
-659.819999999998
 30
0.0
  0
VERTEX
  5
1A6
  8
6MM_ENGRAVE
 10
1235.006680714828
 20
-671.819999999998
 30
0.0
  0
VERTEX
  5
1A7
  8
6MM_ENGRAVE
 10
1223.006680714827
 20
-671.8199999999965
 30
0.0
  0
VERTEX
  5
1A8
  8
6MM_ENGRAVE
 10
1223.006680714827
 20
-683.8199999999947
 30
0.0
  0
VERTEX
  5
1A9
  8
6MM_ENGRAVE
 10
1235.006680714828
 20
-683.819999999998
 30
0.0
  0
VERTEX
  5
1AA
  8
6MM_ENGRAVE
 10
1235.006680714828
 20
-695.819999999998
 30
0.0
  0
VERTEX
  5
1AB
  8
6MM_ENGRAVE
 10
1223.006680714827
 20
-695.8200000000013
 30
0.0
  0
VERTEX
  5
1AC
  8
6MM_ENGRAVE
 10
1223.006680714827
 20
-718.8200767574771
 30
0.0
  0
SEQEND
  5
1AD
  8
6MM_ENGRAVE
  0
POLYLINE
  5
6A
  8
6MM_ENGRAVE
 66
     1
 10
0.0
 20
0.0
 30
0.0
 70
     1
  0
VERTEX
  5
1AE
  8
6MM_ENGRAVE
 10
861.3935290218989
 20
-361.9163426250002
 30
0.0
 42
0.4142135623730951
  0
VERTEX
  5
1AF
  8
6MM_ENGRAVE
 10
873.8935290218989
 20
-349.4163426250002
 30
0.0
 42
0.4142135623730951
  0
VERTEX
  5
1B0
  8
6MM_ENGRAVE
 10
861.3935290218989
 20
-336.9163426250003
 30
0.0
 42
0.4142135623730951
  0
VERTEX
  5
1B1
  8
6MM_ENGRAVE
 10
848.8935290218989
 20
-349.4163426250002
 30
0.0
 42
0.4142135623730951
  0
SEQEND
  5
1B2
  8
6MM_ENGRAVE
  0
POLYLINE
  5
6B
  8
6MM_ENGRAVE
 66
     1
 10
0.0
 20
0.0
 30
0.0
 70
     1
  0
VERTEX
  5
1B3
  8
6MM_ENGRAVE
 10
861.3935290221831
 20
-361.9163426251778
 30
0.0
 42
0.4142135623730951
  0
VERTEX
  5
1B4
  8
6MM_ENGRAVE
 10
873.8935290221831
 20
-349.4163426251779
 30
0.0
 42
0.4142135623730951
  0
VERTEX
  5
1B5
  8
6MM_ENGRAVE
 10
861.3935290221831
 20
-336.9163426251778
 30
0.0
 42
0.4142135623730951
  0
VERTEX
  5
1B6
  8
6MM_ENGRAVE
 10
848.8935290221831
 20
-349.4163426251779
 30
0.0
 42
0.4142135623730951
  0
SEQEND
  5
1B7
  8
6MM_ENGRAVE
  0
POLYLINE
  5
6C
  8
6MM_ENGRAVE
 66
     1
 10
0.0
 20
0.0
 30
0.0
 70
     1
  0
VERTEX
  5
1B8
  8
6MM_ENGRAVE
 10
837.3939375000001
 20
-377.1920426250001
 30
0.0
  0
VERTEX
  5
1B9
  8
6MM_ENGRAVE
 10
885.3939375000001
 20
-377.1920426250001
 30
0.0
  0
VERTEX
  5
1BA
  8
6MM_ENGRAVE
 10
885.3939375000001
 20
-331.1920426250001
 30
0.0
  0
VERTEX
  5
1BB
  8
6MM_ENGRAVE
 10
837.3939375000001
 20
-331.1920426250001
 30
0.0
  0
SEQEND
  5
1BC
  8
6MM_ENGRAVE
  0
POLYLINE
  5
6D
  8
6MM_ENGRAVE
 66
     1
 10
0.0
 20
0.0
 30
0.0
 70
     1
  0
VERTEX
  5
1BD
  8
6MM_ENGRAVE
 10
806.4618883968989
 20
-361.9163426250002
 30
0.0
 42
0.4142135623730951
  0
VERTEX
  5
1BE
  8
6MM_ENGRAVE
 10
818.9618883968989
 20
-349.4163426250002
 30
0.0
 42
0.4142135623730951
  0
VERTEX
  5
1BF
  8
6MM_ENGRAVE
 10
806.4618883968989
 20
-336.9163426250003
 30
0.0
 42
0.4142135623730951
  0
VERTEX
  5
1C0
  8
6MM_ENGRAVE
 10
793.9618883968989
 20
-349.4163426250002
 30
0.0
 42
0.4142135623730951
  0
SEQEND
  5
1C1
  8
6MM_ENGRAVE
  0
POLYLINE
  5
6E
  8
6MM_ENGRAVE
 66
     1
 10
0.0
 20
0.0
 30
0.0
 70
     1
  0
VERTEX
  5
1C2
  8
6MM_ENGRAVE
 10
806.4618883971831
 20
-361.9163426251778
 30
0.0
 42
0.4142135623730951
  0
VERTEX
  5
1C3
  8
6MM_ENGRAVE
 10
818.9618883971831
 20
-349.4163426251779
 30
0.0
 42
0.4142135623730951
  0
VERTEX
  5
1C4
  8
6MM_ENGRAVE
 10
806.4618883971831
 20
-336.9163426251778
 30
0.0
 42
0.4142135623730951
  0
VERTEX
  5
1C5
  8
6MM_ENGRAVE
 10
793.9618883971831
 20
-349.4163426251779
 30
0.0
 42
0.4142135623730951
  0
SEQEND
  5
1C6
  8
6MM_ENGRAVE
  0
POLYLINE
  5
6F
  8
6MM_ENGRAVE
 66
     1
 10
0.0
 20
0.0
 30
0.0
 70
     1
  0
VERTEX
  5
1C7
  8
6MM_ENGRAVE
 10
782.4622968750001
 20
-377.1920426250001
 30
0.0
  0
VERTEX
  5
1C8
  8
6MM_ENGRAVE
 10
830.4622968750001
 20
-377.1920426250001
 30
0.0
  0
VERTEX
  5
1C9
  8
6MM_ENGRAVE
 10
830.4622968750001
 20
-331.1920426250001
 30
0.0
  0
VERTEX
  5
1CA
  8
6MM_ENGRAVE
 10
782.4622968750001
 20
-331.1920426250001
 30
0.0
  0
SEQEND
  5
1CB
  8
6MM_ENGRAVE
  0
POLYLINE
  5
70
  8
6MM_ENGRAVE
 66
     1
 10
0.0
 20
0.0
 30
0.0
 70
     1
  0
VERTEX
  5
1CC
  8
6MM_ENGRAVE
 10
861.3935290218989
 20
-416.8479832500002
 30
0.0
 42
0.4142135623730951
  0
VERTEX
  5
1CD
  8
6MM_ENGRAVE
 10
873.8935290218989
 20
-404.3479832500002
 30
0.0
 42
0.4142135623730951
  0
VERTEX
  5
1CE
  8
6MM_ENGRAVE
 10
861.3935290218989
 20
-391.8479832500003
 30
0.0
 42
0.4142135623730951
  0
VERTEX
  5
1CF
  8
6MM_ENGRAVE
 10
848.8935290218989
 20
-404.3479832500002
 30
0.0
 42
0.4142135623730951
  0
SEQEND
  5
1D0
  8
6MM_ENGRAVE
  0
POLYLINE
  5
71
  8
6MM_ENGRAVE
 66
     1
 10
0.0
 20
0.0
 30
0.0
 70
     1
  0
VERTEX
  5
1D1
  8
6MM_ENGRAVE
 10
861.3935290221831
 20
-416.8479832501778
 30
0.0
 42
0.4142135623730951
  0
VERTEX
  5
1D2
  8
6MM_ENGRAVE
 10
873.8935290221831
 20
-404.3479832501779
 30
0.0
 42
0.4142135623730951
  0
VERTEX
  5
1D3
  8
6MM_ENGRAVE
 10
861.3935290221831
 20
-391.8479832501778
 30
0.0
 42
0.4142135623730951
  0
VERTEX
  5
1D4
  8
6MM_ENGRAVE
 10
848.8935290221831
 20
-404.3479832501779
 30
0.0
 42
0.4142135623730951
  0
SEQEND
  5
1D5
  8
6MM_ENGRAVE
  0
POLYLINE
  5
72
  8
6MM_ENGRAVE
 66
     1
 10
0.0
 20
0.0
 30
0.0
 70
     1
  0
VERTEX
  5
1D6
  8
6MM_ENGRAVE
 10
837.3939375000001
 20
-432.1236832500001
 30
0.0
  0
VERTEX
  5
1D7
  8
6MM_ENGRAVE
 10
885.3939375000001
 20
-432.1236832500001
 30
0.0
  0
VERTEX
  5
1D8
  8
6MM_ENGRAVE
 10
885.3939375000001
 20
-386.1236832500001
 30
0.0
  0
VERTEX
  5
1D9
  8
6MM_ENGRAVE
 10
837.3939375000001
 20
-386.1236832500001
 30
0.0
  0
SEQEND
  5
1DA
  8
6MM_ENGRAVE
  0
POLYLINE
  5
73
  8
6MM_ENGRAVE
 66
     1
 10
0.0
 20
0.0
 30
0.0
 70
     1
  0
VERTEX
  5
1DB
  8
6MM_ENGRAVE
 10
806.4618883968989
 20
-416.8479832500002
 30
0.0
 42
0.4142135623730951
  0
VERTEX
  5
1DC
  8
6MM_ENGRAVE
 10
818.9618883968989
 20
-404.3479832500002
 30
0.0
 42
0.4142135623730951
  0
VERTEX
  5
1DD
  8
6MM_ENGRAVE
 10
806.4618883968989
 20
-391.8479832500003
 30
0.0
 42
0.4142135623730951
  0
VERTEX
  5
1DE
  8
6MM_ENGRAVE
 10
793.9618883968989
 20
-404.3479832500002
 30
0.0
 42
0.4142135623730951
  0
SEQEND
  5
1DF
  8
6MM_ENGRAVE
  0
POLYLINE
  5
74
  8
6MM_ENGRAVE
 66
     1
 10
0.0
 20
0.0
 30
0.0
 70
     1
  0
VERTEX
  5
1E0
  8
6MM_ENGRAVE
 10
806.4618883971831
 20
-416.8479832501778
 30
0.0
 42
0.4142135623730951
  0
VERTEX
  5
1E1
  8
6MM_ENGRAVE
 10
818.9618883971831
 20
-404.3479832501779
 30
0.0
 42
0.4142135623730951
  0
VERTEX
  5
1E2
  8
6MM_ENGRAVE
 10
806.4618883971831
 20
-391.8479832501778
 30
0.0
 42
0.4142135623730951
  0
VERTEX
  5
1E3
  8
6MM_ENGRAVE
 10
793.9618883971831
 20
-404.3479832501779
 30
0.0
 42
0.4142135623730951
  0
SEQEND
  5
1E4
  8
6MM_ENGRAVE
  0
POLYLINE
  5
75
  8
6MM_ENGRAVE
 66
     1
 10
0.0
 20
0.0
 30
0.0
 70
     1
  0
VERTEX
  5
1E5
  8
6MM_ENGRAVE
 10
782.4622968750001
 20
-432.1236832500001
 30
0.0
  0
VERTEX
  5
1E6
  8
6MM_ENGRAVE
 10
830.4622968750001
 20
-432.1236832500001
 30
0.0
  0
VERTEX
  5
1E7
  8
6MM_ENGRAVE
 10
830.4622968750001
 20
-386.1236832500001
 30
0.0
  0
VERTEX
  5
1E8
  8
6MM_ENGRAVE
 10
782.4622968750001
 20
-386.1236832500001
 30
0.0
  0
SEQEND
  5
1E9
  8
6MM_ENGRAVE
  0
POLYLINE
  5
76
  8
6MM_ENGRAVE
 66
     1
 10
0.0
 20
0.0
 30
0.0
 70
     1
  0
VERTEX
  5
1EA
  8
6MM_ENGRAVE
 10
982.2431383968989
 20
-361.9163426250002
 30
0.0
 42
0.4142135623730951
  0
VERTEX
  5
1EB
  8
6MM_ENGRAVE
 10
994.7431383968989
 20
-349.4163426250002
 30
0.0
 42
0.4142135623730951
  0
VERTEX
  5
1EC
  8
6MM_ENGRAVE
 10
982.2431383968989
 20
-336.9163426250003
 30
0.0
 42
0.4142135623730951
  0
VERTEX
  5
1ED
  8
6MM_ENGRAVE
 10
969.7431383968989
 20
-349.4163426250002
 30
0.0
 42
0.4142135623730951
  0
SEQEND
  5
1EE
  8
6MM_ENGRAVE
  0
POLYLINE
  5
77
  8
6MM_ENGRAVE
 66
     1
 10
0.0
 20
0.0
 30
0.0
 70
     1
  0
VERTEX
  5
1EF
  8
6MM_ENGRAVE
 10
982.2431383971831
 20
-361.9163426251778
 30
0.0
 42
0.4142135623730951
  0
VERTEX
  5
1F0
  8
6MM_ENGRAVE
 10
994.7431383971831
 20
-349.4163426251779
 30
0.0
 42
0.4142135623730951
  0
VERTEX
  5
1F1
  8
6MM_ENGRAVE
 10
982.2431383971831
 20
-336.9163426251778
 30
0.0
 42
0.4142135623730951
  0
VERTEX
  5
1F2
  8
6MM_ENGRAVE
 10
969.7431383971831
 20
-349.4163426251779
 30
0.0
 42
0.4142135623730951
  0
SEQEND
  5
1F3
  8
6MM_ENGRAVE
  0
POLYLINE
  5
78
  8
6MM_ENGRAVE
 66
     1
 10
0.0
 20
0.0
 30
0.0
 70
     1
  0
VERTEX
  5
1F4
  8
6MM_ENGRAVE
 10
958.2435468750001
 20
-377.1920426250001
 30
0.0
  0
VERTEX
  5
1F5
  8
6MM_ENGRAVE
 10
1006.243546875
 20
-377.1920426250001
 30
0.0
  0
VERTEX
  5
1F6
  8
6MM_ENGRAVE
 10
1006.243546875
 20
-331.1920426250001
 30
0.0
  0
VERTEX
  5
1F7
  8
6MM_ENGRAVE
 10
958.2435468750001
 20
-331.1920426250001
 30
0.0
  0
SEQEND
  5
1F8
  8
6MM_ENGRAVE
  0
POLYLINE
  5
79
  8
6MM_ENGRAVE
 66
     1
 10
0.0
 20
0.0
 30
0.0
 70
     1
  0
VERTEX
  5
1F9
  8
6MM_ENGRAVE
 10
927.3114977718989
 20
-361.9163426250002
 30
0.0
 42
0.4142135623730951
  0
VERTEX
  5
1FA
  8
6MM_ENGRAVE
 10
939.8114977718989
 20
-349.4163426250002
 30
0.0
 42
0.4142135623730951
  0
VERTEX
  5
1FB
  8
6MM_ENGRAVE
 10
927.3114977718989
 20
-336.9163426250003
 30
0.0
 42
0.4142135623730951
  0
VERTEX
  5
1FC
  8
6MM_ENGRAVE
 10
914.8114977718989
 20
-349.4163426250002
 30
0.0
 42
0.4142135623730951
  0
SEQEND
  5
1FD
  8
6MM_ENGRAVE
  0
POLYLINE
  5
7A
  8
6MM_ENGRAVE
 66
     1
 10
0.0
 20
0.0
 30
0.0
 70
     1
  0
VERTEX
  5
1FE
  8
6MM_ENGRAVE
 10
927.3114977721831
 20
-361.9163426251778
 30
0.0
 42
0.4142135623730951
  0
VERTEX
  5
1FF
  8
6MM_ENGRAVE
 10
939.8114977721831
 20
-349.4163426251779
 30
0.0
 42
0.4142135623730951
  0
VERTEX
  5
200
  8
6MM_ENGRAVE
 10
927.3114977721831
 20
-336.9163426251778
 30
0.0
 42
0.4142135623730951
  0
VERTEX
  5
201
  8
6MM_ENGRAVE
 10
914.8114977721831
 20
-349.4163426251779
 30
0.0
 42
0.4142135623730951
  0
SEQEND
  5
202
  8
6MM_ENGRAVE
  0
POLYLINE
  5
7B
  8
6MM_ENGRAVE
 66
     1
 10
0.0
 20
0.0
 30
0.0
 70
     1
  0
VERTEX
  5
203
  8
6MM_ENGRAVE
 10
903.3119062500001
 20
-377.1920426250001
 30
0.0
  0
VERTEX
  5
204
  8
6MM_ENGRAVE
 10
951.3119062500001
 20
-377.1920426250001
 30
0.0
  0
VERTEX
  5
205
  8
6MM_ENGRAVE
 10
951.3119062500001
 20
-331.1920426250001
 30
0.0
  0
VERTEX
  5
206
  8
6MM_ENGRAVE
 10
903.3119062500001
 20
-331.1920426250001
 30
0.0
  0
SEQEND
  5
207
  8
6MM_ENGRAVE
  0
POLYLINE
  5
7C
  8
6MM_ENGRAVE
 66
     1
 10
0.0
 20
0.0
 30
0.0
 70
     1
  0
VERTEX
  5
208
  8
6MM_ENGRAVE
 10
982.2431383968989
 20
-416.8479832500002
 30
0.0
 42
0.4142135623730951
  0
VERTEX
  5
209
  8
6MM_ENGRAVE
 10
994.7431383968989
 20
-404.3479832500002
 30
0.0
 42
0.4142135623730951
  0
VERTEX
  5
20A
  8
6MM_ENGRAVE
 10
982.2431383968989
 20
-391.8479832500003
 30
0.0
 42
0.4142135623730951
  0
VERTEX
  5
20B
  8
6MM_ENGRAVE
 10
969.7431383968989
 20
-404.3479832500002
 30
0.0
 42
0.4142135623730951
  0
SEQEND
  5
20C
  8
6MM_ENGRAVE
  0
POLYLINE
  5
7D
  8
6MM_ENGRAVE
 66
     1
 10
0.0
 20
0.0
 30
0.0
 70
     1
  0
VERTEX
  5
20D
  8
6MM_ENGRAVE
 10
982.2431383971831
 20
-416.8479832501778
 30
0.0
 42
0.4142135623730951
  0
VERTEX
  5
20E
  8
6MM_ENGRAVE
 10
994.7431383971831
 20
-404.3479832501779
 30
0.0
 42
0.4142135623730951
  0
VERTEX
  5
20F
  8
6MM_ENGRAVE
 10
982.2431383971831
 20
-391.8479832501778
 30
0.0
 42
0.4142135623730951
  0
VERTEX
  5
210
  8
6MM_ENGRAVE
 10
969.7431383971831
 20
-404.3479832501779
 30
0.0
 42
0.4142135623730951
  0
SEQEND
  5
211
  8
6MM_ENGRAVE
  0
POLYLINE
  5
7E
  8
6MM_ENGRAVE
 66
     1
 10
0.0
 20
0.0
 30
0.0
 70
     1
  0
VERTEX
  5
212
  8
6MM_ENGRAVE
 10
958.2435468750001
 20
-432.1236832500001
 30
0.0
  0
VERTEX
  5
213
  8
6MM_ENGRAVE
 10
1006.243546875
 20
-432.1236832500001
 30
0.0
  0
VERTEX
  5
214
  8
6MM_ENGRAVE
 10
1006.243546875
 20
-386.1236832500001
 30
0.0
  0
VERTEX
  5
215
  8
6MM_ENGRAVE
 10
958.2435468750001
 20
-386.1236832500001
 30
0.0
  0
SEQEND
  5
216
  8
6MM_ENGRAVE
  0
POLYLINE
  5
7F
  8
6MM_ENGRAVE
 66
     1
 10
0.0
 20
0.0
 30
0.0
 70
     1
  0
VERTEX
  5
217
  8
6MM_ENGRAVE
 10
927.3114977718989
 20
-416.8479832500002
 30
0.0
 42
0.4142135623730951
  0
VERTEX
  5
218
  8
6MM_ENGRAVE
 10
939.8114977718989
 20
-404.3479832500002
 30
0.0
 42
0.4142135623730951
  0
VERTEX
  5
219
  8
6MM_ENGRAVE
 10
927.3114977718989
 20
-391.8479832500003
 30
0.0
 42
0.4142135623730951
  0
VERTEX
  5
21A
  8
6MM_ENGRAVE
 10
914.8114977718989
 20
-404.3479832500002
 30
0.0
 42
0.4142135623730951
  0
SEQEND
  5
21B
  8
6MM_ENGRAVE
  0
POLYLINE
  5
80
  8
6MM_ENGRAVE
 66
     1
 10
0.0
 20
0.0
 30
0.0
 70
     1
  0
VERTEX
  5
21C
  8
6MM_ENGRAVE
 10
927.3114977721831
 20
-416.8479832501778
 30
0.0
 42
0.4142135623730951
  0
VERTEX
  5
21D
  8
6MM_ENGRAVE
 10
939.8114977721831
 20
-404.3479832501779
 30
0.0
 42
0.4142135623730951
  0
VERTEX
  5
21E
  8
6MM_ENGRAVE
 10
927.3114977721831
 20
-391.8479832501778
 30
0.0
 42
0.4142135623730951
  0
VERTEX
  5
21F
  8
6MM_ENGRAVE
 10
914.8114977721831
 20
-404.3479832501779
 30
0.0
 42
0.4142135623730951
  0
SEQEND
  5
220
  8
6MM_ENGRAVE
  0
POLYLINE
  5
81
  8
6MM_ENGRAVE
 66
     1
 10
0.0
 20
0.0
 30
0.0
 70
     1
  0
VERTEX
  5
221
  8
6MM_ENGRAVE
 10
903.3119062500001
 20
-432.1236832500001
 30
0.0
  0
VERTEX
  5
222
  8
6MM_ENGRAVE
 10
951.3119062500001
 20
-432.1236832500001
 30
0.0
  0
VERTEX
  5
223
  8
6MM_ENGRAVE
 10
951.3119062500001
 20
-386.1236832500001
 30
0.0
  0
VERTEX
  5
224
  8
6MM_ENGRAVE
 10
903.3119062500001
 20
-386.1236832500001
 30
0.0
  0
SEQEND
  5
225
  8
6MM_ENGRAVE
  0
POLYLINE
  5
82
  8
6MM_ENGRAVE
 66
     1
 10
0.0
 20
0.0
 30
0.0
 70
     1
  0
VERTEX
  5
226
  8
6MM_ENGRAVE
 10
1201.872269203306
 20
-525.7520380066867
 30
0.0
 42
0.4142135623730951
  0
VERTEX
  5
227
  8
6MM_ENGRAVE
 10
1214.372269203306
 20
-513.2520380066867
 30
0.0
 42
0.4142135623730951
  0
VERTEX
  5
228
  8
6MM_ENGRAVE
 10
1201.872269203306
 20
-500.7520380066868
 30
0.0
 42
0.4142135623730951
  0
VERTEX
  5
229
  8
6MM_ENGRAVE
 10
1189.372269203306
 20
-513.2520380066867
 30
0.0
 42
0.4142135623730951
  0
SEQEND
  5
22A
  8
6MM_ENGRAVE
  0
POLYLINE
  5
83
  8
6MM_ENGRAVE
 66
     1
 10
0.0
 20
0.0
 30
0.0
 70
     1
  0
VERTEX
  5
22B
  8
6MM_ENGRAVE
 10
1196.872269203306
 20
-480.7520380066867
 30
0.0
 42
0.4142135623730951
  0
VERTEX
  5
22C
  8
6MM_ENGRAVE
 10
1201.872269203306
 20
-485.7520380066866
 30
0.0
 42
0.4142135623730951
  0
VERTEX
  5
22D
  8
6MM_ENGRAVE
 10
1206.872269203306
 20
-480.7520380066867
 30
0.0
 42
0.4142135623730951
  0
VERTEX
  5
22E
  8
6MM_ENGRAVE
 10
1201.872269203306
 20
-475.7520380066867
 30
0.0
 42
0.4142135623730951
  0
SEQEND
  5
22F
  8
6MM_ENGRAVE
  0
POLYLINE
  5
84
  8
6MM_ENGRAVE
 66
     1
 10
0.0
 20
0.0
 30
0.0
 70
     1
  0
VERTEX
  5
230
  8
6MM_ENGRAVE
 10
1201.809003877801
 20
-540.7524382728491
 30
0.0
 42
0.4142135623730951
  0
VERTEX
  5
231
  8
6MM_ENGRAVE
 10
1196.872669469468
 20
-545.8153033321911
 30
0.0
 42
0.4142135623730951
  0
VERTEX
  5
232
  8
6MM_ENGRAVE
 10
1201.93553452881
 20
-550.7516377405243
 30
0.0
 42
0.4142135623730951
  0
VERTEX
  5
233
  8
6MM_ENGRAVE
 10
1206.871868937143
 20
-545.6887726811823
 30
0.0
 42
0.4142135623730951
  0
SEQEND
  5
234
  8
6MM_ENGRAVE
  0
POLYLINE
  5
85
  8
6MM_ENGRAVE
 66
     1
 10
0.0
 20
0.0
 30
0.0
 70
     1
  0
VERTEX
  5
235
  8
6MM_ENGRAVE
 10
1182.467049527564
 20
-493.7659227838095
 30
0.0
 42
0.4142135623730951
  0
VERTEX
  5
236
  8
6MM_ENGRAVE
 10
1182.382751469118
 20
-486.6953574713792
 30
0.0
 42
0.4142135623730951
  0
VERTEX
  5
237
  8
6MM_ENGRAVE
 10
1175.312186156688
 20
-486.7796555298252
 30
0.0
 42
0.4142135623730951
  0
VERTEX
  5
238
  8
6MM_ENGRAVE
 10
1175.396484215134
 20
-493.8502208422555
 30
0.0
 42
0.4142135623730951
  0
SEQEND
  5
239
  8
6MM_ENGRAVE
  0
POLYLINE
  5
86
  8
6MM_ENGRAVE
 66
     1
 10
0.0
 20
0.0
 30
0.0
 70
     1
  0
VERTEX
  5
23A
  8
6MM_ENGRAVE
 10
1174.37190547074
 20
-513.1916597818133
 30
0.0
 42
0.4142135623730951
  0
VERTEX
  5
23B
  8
6MM_ENGRAVE
 10
1169.309040411399
 20
-508.2553253734794
 30
0.0
 42
0.4142135623730951
  0
VERTEX
  5
23C
  8
6MM_ENGRAVE
 10
1164.372706003065
 20
-513.3181904328208
 30
0.0
 42
0.4142135623730951
  0
VERTEX
  5
23D
  8
6MM_ENGRAVE
 10
1169.435571062406
 20
-518.2545248411546
 30
0.0
 42
0.4142135623730951
  0
SEQEND
  5
23E
  8
6MM_ENGRAVE
  0
POLYLINE
  5
87
  8
6MM_ENGRAVE
 66
     1
 10
0.0
 20
0.0
 30
0.0
 70
     1
  0
VERTEX
  5
23F
  8
6MM_ENGRAVE
 10
1182.386842595907
 20
-532.6579300714756
 30
0.0
 42
0.4142135623730951
  0
VERTEX
  5
240
  8
6MM_ENGRAVE
 10
1175.316277283477
 20
-532.7422281299201
 30
0.0
 42
0.4142135623730951
  0
VERTEX
  5
241
  8
6MM_ENGRAVE
 10
1175.400575341921
 20
-539.8127934423504
 30
0.0
 42
0.4142135623730951
  0
VERTEX
  5
242
  8
6MM_ENGRAVE
 10
1182.471140654352
 20
-539.7284953839059
 30
0.0
 42
0.4142135623730951
  0
SEQEND
  5
243
  8
6MM_ENGRAVE
  0
POLYLINE
  5
88
  8
6MM_ENGRAVE
 66
     1
 10
0.0
 20
0.0
 30
0.0
 70
     1
  0
VERTEX
  5
244
  8
6MM_ENGRAVE
 10
1219.467736714827
 20
-578.1950767574771
 30
0.0
 42
-1.0
  0
VERTEX
  5
245
  8
6MM_ENGRAVE
 10
1219.467736714827
 20
-448.1949232425322
 30
0.0
  0
VERTEX
  5
246
  8
6MM_ENGRAVE
 10
1223.006680714827
 20
-448.1949232425322
 30
0.0
  0
VERTEX
  5
247
  8
6MM_ENGRAVE
 10
1223.006680714827
 20
-471.1949999999983
 30
0.0
  0
VERTEX
  5
248
  8
6MM_ENGRAVE
 10
1235.006680714828
 20
-471.1949999999983
 30
0.0
  0
VERTEX
  5
249
  8
6MM_ENGRAVE
 10
1235.006680714828
 20
-483.1949999999982
 30
0.0
  0
VERTEX
  5
24A
  8
6MM_ENGRAVE
 10
1223.006680714827
 20
-483.1949999999972
 30
0.0
  0
VERTEX
  5
24B
  8
6MM_ENGRAVE
 10
1223.006680714827
 20
-495.1950000000015
 30
0.0
  0
VERTEX
  5
24C
  8
6MM_ENGRAVE
 10
1235.006680714828
 20
-495.1949999999981
 30
0.0
  0
VERTEX
  5
24D
  8
6MM_ENGRAVE
 10
1235.006680714828
 20
-507.194999999998
 30
0.0
  0
VERTEX
  5
24E
  8
6MM_ENGRAVE
 10
1223.006680714827
 20
-507.1950000000007
 30
0.0
  0
VERTEX
  5
24F
  8
6MM_ENGRAVE
 10
1223.006680714827
 20
-519.1949999999995
 30
0.0
  0
VERTEX
  5
250
  8
6MM_ENGRAVE
 10
1235.006680714828
 20
-519.194999999998
 30
0.0
  0
VERTEX
  5
251
  8
6MM_ENGRAVE
 10
1235.006680714828
 20
-531.194999999998
 30
0.0
  0
VERTEX
  5
252
  8
6MM_ENGRAVE
 10
1223.006680714827
 20
-531.1949999999965
 30
0.0
  0
VERTEX
  5
253
  8
6MM_ENGRAVE
 10
1223.006680714827
 20
-543.1949999999947
 30
0.0
  0
VERTEX
  5
254
  8
6MM_ENGRAVE
 10
1235.006680714828
 20
-543.194999999998
 30
0.0
  0
VERTEX
  5
255
  8
6MM_ENGRAVE
 10
1235.006680714828
 20
-555.194999999998
 30
0.0
  0
VERTEX
  5
256
  8
6MM_ENGRAVE
 10
1223.006680714827
 20
-555.1950000000013
 30
0.0
  0
VERTEX
  5
257
  8
6MM_ENGRAVE
 10
1223.006680714827
 20
-578.1950767574771
 30
0.0
  0
SEQEND
  5
258
  8
6MM_ENGRAVE
  0
POLYLINE
  5
89
  8
6MM_ENGRAVE
 66
     1
 10
0.0
 20
0.0
 30
0.0
 70
     1
  0
VERTEX
  5
259
  8
6MM_ENGRAVE
 10
985.9347692033057
 20
-621.3770380066867
 30
0.0
 42
0.4142135623730951
  0
VERTEX
  5
25A
  8
6MM_ENGRAVE
 10
990.9347692033057
 20
-626.3770380066866
 30
0.0
 42
0.4142135623730951
  0
VERTEX
  5
25B
  8
6MM_ENGRAVE
 10
995.9347692033057
 20
-621.3770380066867
 30
0.0
 42
0.4142135623730951
  0
VERTEX
  5
25C
  8
6MM_ENGRAVE
 10
990.9347692033057
 20
-616.3770380066867
 30
0.0
 42
0.4142135623730951
  0
SEQEND
  5
25D
  8
6MM_ENGRAVE
  0
POLYLINE
  5
8A
  8
6MM_ENGRAVE
 66
     1
 10
0.0
 20
0.0
 30
0.0
 70
     1
  0
VERTEX
  5
25E
  8
6MM_ENGRAVE
 10
990.8715038778014
 20
-681.3774382728491
 30
0.0
 42
0.4142135623730951
  0
VERTEX
  5
25F
  8
6MM_ENGRAVE
 10
985.9351694694681
 20
-686.4403033321911
 30
0.0
 42
0.4142135623730951
  0
VERTEX
  5
260
  8
6MM_ENGRAVE
 10
990.99803452881
 20
-691.3766377405243
 30
0.0
 42
0.4142135623730951
  0
VERTEX
  5
261
  8
6MM_ENGRAVE
 10
995.9343689371433
 20
-686.3137726811823
 30
0.0
 42
0.4142135623730951
  0
SEQEND
  5
262
  8
6MM_ENGRAVE
  0
POLYLINE
  5
8B
  8
6MM_ENGRAVE
 66
     1
 10
0.0
 20
0.0
 30
0.0
 70
     1
  0
VERTEX
  5
263
  8
6MM_ENGRAVE
 10
971.5295495275641
 20
-634.3909227838095
 30
0.0
 42
0.4142135623730951
  0
VERTEX
  5
264
  8
6MM_ENGRAVE
 10
971.4452514691181
 20
-627.3203574713792
 30
0.0
 42
0.4142135623730951
  0
VERTEX
  5
265
  8
6MM_ENGRAVE
 10
964.3746861566879
 20
-627.4046555298252
 30
0.0
 42
0.4142135623730951
  0
VERTEX
  5
266
  8
6MM_ENGRAVE
 10
964.4589842151338
 20
-634.4752208422555
 30
0.0
 42
0.4142135623730951
  0
SEQEND
  5
267
  8
6MM_ENGRAVE
  0
POLYLINE
  5
8C
  8
6MM_ENGRAVE
 66
     1
 10
0.0
 20
0.0
 30
0.0
 70
     1
  0
VERTEX
  5
268
  8
6MM_ENGRAVE
 10
963.4344054707401
 20
-653.8166597818133
 30
0.0
 42
0.4142135623730951
  0
VERTEX
  5
269
  8
6MM_ENGRAVE
 10
958.3715404113989
 20
-648.8803253734794
 30
0.0
 42
0.4142135623730951
  0
VERTEX
  5
26A
  8
6MM_ENGRAVE
 10
953.4352060030649
 20
-653.9431904328208
 30
0.0
 42
0.4142135623730951
  0
VERTEX
  5
26B
  8
6MM_ENGRAVE
 10
958.4980710624061
 20
-658.8795248411546
 30
0.0
 42
0.4142135623730951
  0
SEQEND
  5
26C
  8
6MM_ENGRAVE
  0
POLYLINE
  5
8D
  8
6MM_ENGRAVE
 66
     1
 10
0.0
 20
0.0
 30
0.0
 70
     1
  0
VERTEX
  5
26D
  8
6MM_ENGRAVE
 10
971.449342595907
 20
-673.2829300714756
 30
0.0
 42
0.4142135623730951
  0
VERTEX
  5
26E
  8
6MM_ENGRAVE
 10
964.3787772834767
 20
-673.3672281299201
 30
0.0
 42
0.4142135623730951
  0
VERTEX
  5
26F
  8
6MM_ENGRAVE
 10
964.4630753419212
 20
-680.4377934423504
 30
0.0
 42
0.4142135623730951
  0
VERTEX
  5
270
  8
6MM_ENGRAVE
 10
971.5336406543515
 20
-680.3534953839059
 30
0.0
 42
0.4142135623730951
  0
SEQEND
  5
271
  8
6MM_ENGRAVE
  0
POLYLINE
  5
8E
  8
6MM_ENGRAVE
 66
     1
 10
0.0
 20
0.0
 30
0.0
 70
     1
  0
VERTEX
  5
272
  8
6MM_ENGRAVE
 10
1008.530236714827
 20
-718.8200767574771
 30
0.0
 42
-1.0
  0
VERTEX
  5
273
  8
6MM_ENGRAVE
 10
1008.530236714827
 20
-588.8199232425322
 30
0.0
  0
VERTEX
  5
274
  8
6MM_ENGRAVE
 10
1012.069180714827
 20
-588.8199232425322
 30
0.0
  0
VERTEX
  5
275
  8
6MM_ENGRAVE
 10
1012.069180714827
 20
-611.8199999999983
 30
0.0
  0
VERTEX
  5
276
  8
6MM_ENGRAVE
 10
1012.069180714827
 20
-623.8199999999972
 30
0.0
  0
VERTEX
  5
277
  8
6MM_ENGRAVE
 10
1012.069180714827
 20
-635.8200000000015
 30
0.0
  0
VERTEX
  5
278
  8
6MM_ENGRAVE
 10
1012.069180714827
 20
-647.8200000000007
 30
0.0
  0
VERTEX
  5
279
  8
6MM_ENGRAVE
 10
1012.069180714827
 20
-659.8199999999995
 30
0.0
  0
VERTEX
  5
27A
  8
6MM_ENGRAVE
 10
1012.069180714827
 20
-671.8199999999965
 30
0.0
  0
VERTEX
  5
27B
  8
6MM_ENGRAVE
 10
1012.069180714827
 20
-683.8199999999947
 30
0.0
  0
VERTEX
  5
27C
  8
6MM_ENGRAVE
 10
1012.069180714827
 20
-695.8200000000013
 30
0.0
  0
VERTEX
  5
27D
  8
6MM_ENGRAVE
 10
1012.069180714827
 20
-718.8200767574771
 30
0.0
  0
SEQEND
  5
27E
  8
6MM_ENGRAVE
  0
POLYLINE
  5
8F
  8
6MM_ENGRAVE
 66
     1
 10
0.0
 20
0.0
 30
0.0
 70
     1
  0
VERTEX
  5
27F
  8
6MM_ENGRAVE
 10
985.9347692033057
 20
-480.8330380066883
 30
0.0
 42
0.4142135623730951
  0
VERTEX
  5
280
  8
6MM_ENGRAVE
 10
990.9347692033057
 20
-485.8330380066882
 30
0.0
 42
0.4142135623730951
  0
VERTEX
  5
281
  8
6MM_ENGRAVE
 10
995.9347692033057
 20
-480.8330380066883
 30
0.0
 42
0.4142135623730951
  0
VERTEX
  5
282
  8
6MM_ENGRAVE
 10
990.9347692033057
 20
-475.8330380066883
 30
0.0
 42
0.4142135623730951
  0
SEQEND
  5
283
  8
6MM_ENGRAVE
  0
POLYLINE
  5
90
  8
6MM_ENGRAVE
 66
     1
 10
0.0
 20
0.0
 30
0.0
 70
     1
  0
VERTEX
  5
284
  8
6MM_ENGRAVE
 10
990.8715038778014
 20
-540.8334382728507
 30
0.0
 42
0.4142135623730951
  0
VERTEX
  5
285
  8
6MM_ENGRAVE
 10
985.9351694694681
 20
-545.8963033321927
 30
0.0
 42
0.4142135623730951
  0
VERTEX
  5
286
  8
6MM_ENGRAVE
 10
990.99803452881
 20
-550.8326377405259
 30
0.0
 42
0.4142135623730951
  0
VERTEX
  5
287
  8
6MM_ENGRAVE
 10
995.9343689371433
 20
-545.7697726811839
 30
0.0
 42
0.4142135623730951
  0
SEQEND
  5
288
  8
6MM_ENGRAVE
  0
POLYLINE
  5
91
  8
6MM_ENGRAVE
 66
     1
 10
0.0
 20
0.0
 30
0.0
 70
     1
  0
VERTEX
  5
289
  8
6MM_ENGRAVE
 10
971.5295495275641
 20
-493.8469227838111
 30
0.0
 42
0.4142135623730951
  0
VERTEX
  5
28A
  8
6MM_ENGRAVE
 10
971.4452514691181
 20
-486.7763574713808
 30
0.0
 42
0.4142135623730951
  0
VERTEX
  5
28B
  8
6MM_ENGRAVE
 10
964.3746861566879
 20
-486.8606555298268
 30
0.0
 42
0.4142135623730951
  0
VERTEX
  5
28C
  8
6MM_ENGRAVE
 10
964.4589842151338
 20
-493.9312208422571
 30
0.0
 42
0.4142135623730951
  0
SEQEND
  5
28D
  8
6MM_ENGRAVE
  0
POLYLINE
  5
92
  8
6MM_ENGRAVE
 66
     1
 10
0.0
 20
0.0
 30
0.0
 70
     1
  0
VERTEX
  5
28E
  8
6MM_ENGRAVE
 10
963.4344054707401
 20
-513.2726597818149
 30
0.0
 42
0.4142135623730951
  0
VERTEX
  5
28F
  8
6MM_ENGRAVE
 10
958.3715404113989
 20
-508.336325373481
 30
0.0
 42
0.4142135623730951
  0
VERTEX
  5
290
  8
6MM_ENGRAVE
 10
953.4352060030649
 20
-513.3991904328224
 30
0.0
 42
0.4142135623730951
  0
VERTEX
  5
291
  8
6MM_ENGRAVE
 10
958.4980710624061
 20
-518.3355248411563
 30
0.0
 42
0.4142135623730951
  0
SEQEND
  5
292
  8
6MM_ENGRAVE
  0
POLYLINE
  5
93
  8
6MM_ENGRAVE
 66
     1
 10
0.0
 20
0.0
 30
0.0
 70
     1
  0
VERTEX
  5
293
  8
6MM_ENGRAVE
 10
971.449342595907
 20
-532.7389300714772
 30
0.0
 42
0.4142135623730951
  0
VERTEX
  5
294
  8
6MM_ENGRAVE
 10
964.3787772834767
 20
-532.8232281299217
 30
0.0
 42
0.4142135623730951
  0
VERTEX
  5
295
  8
6MM_ENGRAVE
 10
964.4630753419212
 20
-539.893793442352
 30
0.0
 42
0.4142135623730951
  0
VERTEX
  5
296
  8
6MM_ENGRAVE
 10
971.5336406543515
 20
-539.8094953839075
 30
0.0
 42
0.4142135623730951
  0
SEQEND
  5
297
  8
6MM_ENGRAVE
  0
POLYLINE
  5
94
  8
6MM_ENGRAVE
 66
     1
 10
0.0
 20
0.0
 30
0.0
 70
     1
  0
VERTEX
  5
298
  8
6MM_ENGRAVE
 10
1008.530236714827
 20
-578.2760767574787
 30
0.0
 42
-1.0
  0
VERTEX
  5
299
  8
6MM_ENGRAVE
 10
1008.530236714827
 20
-448.2759232425338
 30
0.0
  0
VERTEX
  5
29A
  8
6MM_ENGRAVE
 10
1012.069180714827
 20
-448.2759232425338
 30
0.0
  0
VERTEX
  5
29B
  8
6MM_ENGRAVE
 10
1012.069180714827
 20
-471.276
 30
0.0
  0
VERTEX
  5
29C
  8
6MM_ENGRAVE
 10
1012.069180714827
 20
-483.2759999999988
 30
0.0
  0
VERTEX
  5
29D
  8
6MM_ENGRAVE
 10
1012.069180714827
 20
-495.2760000000031
 30
0.0
  0
VERTEX
  5
29E
  8
6MM_ENGRAVE
 10
1012.069180714827
 20
-507.2760000000023
 30
0.0
  0
VERTEX
  5
29F
  8
6MM_ENGRAVE
 10
1012.069180714827
 20
-519.2760000000011
 30
0.0
  0
VERTEX
  5
2A0
  8
6MM_ENGRAVE
 10
1012.069180714827
 20
-531.2759999999981
 30
0.0
  0
VERTEX
  5
2A1
  8
6MM_ENGRAVE
 10
1012.069180714827
 20
-543.2759999999963
 30
0.0
  0
VERTEX
  5
2A2
  8
6MM_ENGRAVE
 10
1012.069180714827
 20
-555.2760000000029
 30
0.0
  0
VERTEX
  5
2A3
  8
6MM_ENGRAVE
 10
1012.069180714827
 20
-578.2760767574787
 30
0.0
  0
SEQEND
  5
2A4
  8
6MM_ENGRAVE
  0
POLYLINE
  5
95
  8
6MM_ENGRAVE
 66
     1
 10
0.0
 20
0.0
 30
0.0
 70
     1
  0
VERTEX
  5
2A5
  8
6MM_ENGRAVE
 10
908.5910192033057
 20
-621.3770380066867
 30
0.0
 42
0.4142135623730951
  0
VERTEX
  5
2A6
  8
6MM_ENGRAVE
 10
913.5910192033057
 20
-626.3770380066866
 30
0.0
 42
0.4142135623730951
  0
VERTEX
  5
2A7
  8
6MM_ENGRAVE
 10
918.5910192033057
 20
-621.3770380066867
 30
0.0
 42
0.4142135623730951
  0
VERTEX
  5
2A8
  8
6MM_ENGRAVE
 10
913.5910192033057
 20
-616.3770380066867
 30
0.0
 42
0.4142135623730951
  0
SEQEND
  5
2A9
  8
6MM_ENGRAVE
  0
POLYLINE
  5
96
  8
6MM_ENGRAVE
 66
     1
 10
0.0
 20
0.0
 30
0.0
 70
     1
  0
VERTEX
  5
2AA
  8
6MM_ENGRAVE
 10
913.5277538778014
 20
-681.3774382728491
 30
0.0
 42
0.4142135623730951
  0
VERTEX
  5
2AB
  8
6MM_ENGRAVE
 10
908.5914194694681
 20
-686.4403033321911
 30
0.0
 42
0.4142135623730951
  0
VERTEX
  5
2AC
  8
6MM_ENGRAVE
 10
913.65428452881
 20
-691.3766377405243
 30
0.0
 42
0.4142135623730951
  0
VERTEX
  5
2AD
  8
6MM_ENGRAVE
 10
918.5906189371433
 20
-686.3137726811823
 30
0.0
 42
0.4142135623730951
  0
SEQEND
  5
2AE
  8
6MM_ENGRAVE
  0
POLYLINE
  5
97
  8
6MM_ENGRAVE
 66
     1
 10
0.0
 20
0.0
 30
0.0
 70
     1
  0
VERTEX
  5
2AF
  8
6MM_ENGRAVE
 10
894.1857995275641
 20
-634.3909227838095
 30
0.0
 42
0.4142135623730951
  0
VERTEX
  5
2B0
  8
6MM_ENGRAVE
 10
894.1015014691181
 20
-627.3203574713792
 30
0.0
 42
0.4142135623730951
  0
VERTEX
  5
2B1
  8
6MM_ENGRAVE
 10
887.0309361566879
 20
-627.4046555298252
 30
0.0
 42
0.4142135623730951
  0
VERTEX
  5
2B2
  8
6MM_ENGRAVE
 10
887.1152342151338
 20
-634.4752208422555
 30
0.0
 42
0.4142135623730951
  0
SEQEND
  5
2B3
  8
6MM_ENGRAVE
  0
POLYLINE
  5
98
  8
6MM_ENGRAVE
 66
     1
 10
0.0
 20
0.0
 30
0.0
 70
     1
  0
VERTEX
  5
2B4
  8
6MM_ENGRAVE
 10
886.0906554707401
 20
-653.8166597818133
 30
0.0
 42
0.4142135623730951
  0
VERTEX
  5
2B5
  8
6MM_ENGRAVE
 10
881.0277904113989
 20
-648.8803253734794
 30
0.0
 42
0.4142135623730951
  0
VERTEX
  5
2B6
  8
6MM_ENGRAVE
 10
876.0914560030649
 20
-653.9431904328208
 30
0.0
 42
0.4142135623730951
  0
VERTEX
  5
2B7
  8
6MM_ENGRAVE
 10
881.1543210624061
 20
-658.8795248411546
 30
0.0
 42
0.4142135623730951
  0
SEQEND
  5
2B8
  8
6MM_ENGRAVE
  0
POLYLINE
  5
99
  8
6MM_ENGRAVE
 66
     1
 10
0.0
 20
0.0
 30
0.0
 70
     1
  0
VERTEX
  5
2B9
  8
6MM_ENGRAVE
 10
894.105592595907
 20
-673.2829300714756
 30
0.0
 42
0.4142135623730951
  0
VERTEX
  5
2BA
  8
6MM_ENGRAVE
 10
887.0350272834767
 20
-673.3672281299201
 30
0.0
 42
0.4142135623730951
  0
VERTEX
  5
2BB
  8
6MM_ENGRAVE
 10
887.1193253419212
 20
-680.4377934423504
 30
0.0
 42
0.4142135623730951
  0
VERTEX
  5
2BC
  8
6MM_ENGRAVE
 10
894.1898906543515
 20
-680.3534953839059
 30
0.0
 42
0.4142135623730951
  0
SEQEND
  5
2BD
  8
6MM_ENGRAVE
  0
POLYLINE
  5
9A
  8
6MM_ENGRAVE
 66
     1
 10
0.0
 20
0.0
 30
0.0
 70
     1
  0
VERTEX
  5
2BE
  8
6MM_ENGRAVE
 10
931.1864867148265
 20
-718.8200767574771
 30
0.0
 42
-1.0
  0
VERTEX
  5
2BF
  8
6MM_ENGRAVE
 10
931.1864867148265
 20
-588.8199232425322
 30
0.0
  0
VERTEX
  5
2C0
  8
6MM_ENGRAVE
 10
934.7254307148266
 20
-588.8199232425322
 30
0.0
  0
VERTEX
  5
2C1
  8
6MM_ENGRAVE
 10
934.7254307148273
 20
-611.8199999999983
 30
0.0
  0
VERTEX
  5
2C2
  8
6MM_ENGRAVE
 10
934.7254307148266
 20
-623.8199999999972
 30
0.0
  0
VERTEX
  5
2C3
  8
6MM_ENGRAVE
 10
934.7254307148273
 20
-635.8200000000015
 30
0.0
  0
VERTEX
  5
2C4
  8
6MM_ENGRAVE
 10
934.7254307148266
 20
-647.8200000000007
 30
0.0
  0
VERTEX
  5
2C5
  8
6MM_ENGRAVE
 10
934.7254307148273
 20
-659.8199999999995
 30
0.0
  0
VERTEX
  5
2C6
  8
6MM_ENGRAVE
 10
934.7254307148273
 20
-671.8199999999965
 30
0.0
  0
VERTEX
  5
2C7
  8
6MM_ENGRAVE
 10
934.7254307148273
 20
-683.8199999999947
 30
0.0
  0
VERTEX
  5
2C8
  8
6MM_ENGRAVE
 10
934.7254307148273
 20
-695.8200000000013
 30
0.0
  0
VERTEX
  5
2C9
  8
6MM_ENGRAVE
 10
934.7254307148266
 20
-718.8200767574771
 30
0.0
  0
SEQEND
  5
2CA
  8
6MM_ENGRAVE
  0
POLYLINE
  5
9B
  8
6MM_ENGRAVE
 66
     1
 10
0.0
 20
0.0
 30
0.0
 70
     1
  0
VERTEX
  5
2CB
  8
6MM_ENGRAVE
 10
908.5910192033057
 20
-480.8330380066883
 30
0.0
 42
0.4142135623730951
  0
VERTEX
  5
2CC
  8
6MM_ENGRAVE
 10
913.5910192033057
 20
-485.8330380066882
 30
0.0
 42
0.4142135623730951
  0
VERTEX
  5
2CD
  8
6MM_ENGRAVE
 10
918.5910192033057
 20
-480.8330380066883
 30
0.0
 42
0.4142135623730951
  0
VERTEX
  5
2CE
  8
6MM_ENGRAVE
 10
913.5910192033057
 20
-475.8330380066883
 30
0.0
 42
0.4142135623730951
  0
SEQEND
  5
2CF
  8
6MM_ENGRAVE
  0
POLYLINE
  5
9C
  8
6MM_ENGRAVE
 66
     1
 10
0.0
 20
0.0
 30
0.0
 70
     1
  0
VERTEX
  5
2D0
  8
6MM_ENGRAVE
 10
913.5277538778014
 20
-540.8334382728507
 30
0.0
 42
0.4142135623730951
  0
VERTEX
  5
2D1
  8
6MM_ENGRAVE
 10
908.5914194694681
 20
-545.8963033321927
 30
0.0
 42
0.4142135623730951
  0
VERTEX
  5
2D2
  8
6MM_ENGRAVE
 10
913.65428452881
 20
-550.8326377405259
 30
0.0
 42
0.4142135623730951
  0
VERTEX
  5
2D3
  8
6MM_ENGRAVE
 10
918.5906189371433
 20
-545.7697726811839
 30
0.0
 42
0.4142135623730951
  0
SEQEND
  5
2D4
  8
6MM_ENGRAVE
  0
POLYLINE
  5
9D
  8
6MM_ENGRAVE
 66
     1
 10
0.0
 20
0.0
 30
0.0
 70
     1
  0
VERTEX
  5
2D5
  8
6MM_ENGRAVE
 10
894.1857995275641
 20
-493.8469227838111
 30
0.0
 42
0.4142135623730951
  0
VERTEX
  5
2D6
  8
6MM_ENGRAVE
 10
894.1015014691181
 20
-486.7763574713808
 30
0.0
 42
0.4142135623730951
  0
VERTEX
  5
2D7
  8
6MM_ENGRAVE
 10
887.0309361566879
 20
-486.8606555298268
 30
0.0
 42
0.4142135623730951
  0
VERTEX
  5
2D8
  8
6MM_ENGRAVE
 10
887.1152342151338
 20
-493.9312208422571
 30
0.0
 42
0.4142135623730951
  0
SEQEND
  5
2D9
  8
6MM_ENGRAVE
  0
POLYLINE
  5
9E
  8
6MM_ENGRAVE
 66
     1
 10
0.0
 20
0.0
 30
0.0
 70
     1
  0
VERTEX
  5
2DA
  8
6MM_ENGRAVE
 10
886.0906554707401
 20
-513.2726597818149
 30
0.0
 42
0.4142135623730951
  0
VERTEX
  5
2DB
  8
6MM_ENGRAVE
 10
881.0277904113989
 20
-508.336325373481
 30
0.0
 42
0.4142135623730951
  0
VERTEX
  5
2DC
  8
6MM_ENGRAVE
 10
876.0914560030649
 20
-513.3991904328224
 30
0.0
 42
0.4142135623730951
  0
VERTEX
  5
2DD
  8
6MM_ENGRAVE
 10
881.1543210624061
 20
-518.3355248411563
 30
0.0
 42
0.4142135623730951
  0
SEQEND
  5
2DE
  8
6MM_ENGRAVE
  0
POLYLINE
  5
9F
  8
6MM_ENGRAVE
 66
     1
 10
0.0
 20
0.0
 30
0.0
 70
     1
  0
VERTEX
  5
2DF
  8
6MM_ENGRAVE
 10
894.105592595907
 20
-532.7389300714772
 30
0.0
 42
0.4142135623730951
  0
VERTEX
  5
2E0
  8
6MM_ENGRAVE
 10
887.0350272834767
 20
-532.8232281299217
 30
0.0
 42
0.4142135623730951
  0
VERTEX
  5
2E1
  8
6MM_ENGRAVE
 10
887.1193253419212
 20
-539.893793442352
 30
0.0
 42
0.4142135623730951
  0
VERTEX
  5
2E2
  8
6MM_ENGRAVE
 10
894.1898906543515
 20
-539.8094953839075
 30
0.0
 42
0.4142135623730951
  0
SEQEND
  5
2E3
  8
6MM_ENGRAVE
  0
POLYLINE
  5
A0
  8
6MM_ENGRAVE
 66
     1
 10
0.0
 20
0.0
 30
0.0
 70
     1
  0
VERTEX
  5
2E4
  8
6MM_ENGRAVE
 10
931.1864867148265
 20
-578.2760767574787
 30
0.0
 42
-1.0
  0
VERTEX
  5
2E5
  8
6MM_ENGRAVE
 10
931.1864867148265
 20
-448.2759232425338
 30
0.0
  0
VERTEX
  5
2E6
  8
6MM_ENGRAVE
 10
934.7254307148266
 20
-448.2759232425338
 30
0.0
  0
VERTEX
  5
2E7
  8
6MM_ENGRAVE
 10
934.7254307148273
 20
-471.276
 30
0.0
  0
VERTEX
  5
2E8
  8
6MM_ENGRAVE
 10
934.7254307148266
 20
-483.2759999999988
 30
0.0
  0
VERTEX
  5
2E9
  8
6MM_ENGRAVE
 10
934.7254307148273
 20
-495.2760000000031
 30
0.0
  0
VERTEX
  5
2EA
  8
6MM_ENGRAVE
 10
934.7254307148266
 20
-507.2760000000023
 30
0.0
  0
VERTEX
  5
2EB
  8
6MM_ENGRAVE
 10
934.7254307148273
 20
-519.2760000000011
 30
0.0
  0
VERTEX
  5
2EC
  8
6MM_ENGRAVE
 10
934.7254307148273
 20
-531.2759999999981
 30
0.0
  0
VERTEX
  5
2ED
  8
6MM_ENGRAVE
 10
934.7254307148273
 20
-543.2759999999963
 30
0.0
  0
VERTEX
  5
2EE
  8
6MM_ENGRAVE
 10
934.7254307148273
 20
-555.2760000000029
 30
0.0
  0
VERTEX
  5
2EF
  8
6MM_ENGRAVE
 10
934.7254307148266
 20
-578.2760767574787
 30
0.0
  0
SEQEND
  5
2F0
  8
6MM_ENGRAVE
  0
POLYLINE
  5
A1
  8
6MM_ENGRAVE
 66
     1
 10
0.0
 20
0.0
 30
0.0
 70
     1
  0
VERTEX
  5
2F1
  8
6MM_ENGRAVE
 10
1263.932591521899
 20
-836.2970380066864
 30
0.0
 42
0.4142135623730951
  0
VERTEX
  5
2F2
  8
6MM_ENGRAVE
 10
1276.432591521899
 20
-823.7970380066864
 30
0.0
 42
0.4142135623730951
  0
VERTEX
  5
2F3
  8
6MM_ENGRAVE
 10
1263.932591521899
 20
-811.2970380066865
 30
0.0
 42
0.4142135623730951
  0
VERTEX
  5
2F4
  8
6MM_ENGRAVE
 10
1251.432591521899
 20
-823.7970380066864
 30
0.0
 42
0.4142135623730951
  0
SEQEND
  5
2F5
  8
6MM_ENGRAVE
  0
POLYLINE
  5
A2
  8
6MM_ENGRAVE
 66
     1
 10
0.0
 20
0.0
 30
0.0
 70
     1
  0
VERTEX
  5
2F6
  8
6MM_ENGRAVE
 10
1258.932591521899
 20
-791.2970380066864
 30
0.0
 42
0.4142135623730951
  0
VERTEX
  5
2F7
  8
6MM_ENGRAVE
 10
1263.932591521899
 20
-796.2970380066863
 30
0.0
 42
0.4142135623730951
  0
VERTEX
  5
2F8
  8
6MM_ENGRAVE
 10
1268.932591521899
 20
-791.2970380066864
 30
0.0
 42
0.4142135623730951
  0
VERTEX
  5
2F9
  8
6MM_ENGRAVE
 10
1263.932591521899
 20
-786.2970380066864
 30
0.0
 42
0.4142135623730951
  0
SEQEND
  5
2FA
  8
6MM_ENGRAVE
  0
POLYLINE
  5
A3
  8
6MM_ENGRAVE
 66
     1
 10
0.0
 20
0.0
 30
0.0
 70
     1
  0
VERTEX
  5
2FB
  8
6MM_ENGRAVE
 10
1239.904072518555
 20
-662.1047423170121
 30
0.0
  0
VERTEX
  5
2FC
  8
6MM_ENGRAVE
 10
1239.932591521899
 20
-851.8711159462978
 30
0.0
  0
VERTEX
  5
2FD
  8
6MM_ENGRAVE
 10
1287.932591521899
 20
-851.8711159462978
 30
0.0
  0
VERTEX
  5
2FE
  8
6MM_ENGRAVE
 10
1287.961110525242
 20
-662.1047423170121
 30
0.0
  0
SEQEND
  5
2FF
  8
6MM_ENGRAVE
  0
ENDSEC
  0
EOF
