  0
SECTION
  2
HEADER
  9
$ACADVER
  1
AC1009
  9
$DWGCODEPAGE
  3
ansi_1252
  9
$INSBASE
 10
0.0
 20
0.0
 30
0.0
  9
$EXTMIN
 10
966.7531041837188
 20
499.535503609391
 30
0.0
  9
$EXTMAX
 10
1066.753104183719
 20
554.535503609391
 30
0.0
  9
$LIMMIN
 10
0.0
 20
0.0
  9
$LIMMAX
 10
12.0
 20
9.0
  9
$ORTHOMODE
 70
     0
  9
$REGENMODE
 70
     1
  9
$FILLMODE
 70
     1
  9
$QTEXTMODE
 70
     0
  9
$MIRRTEXT
 70
     1
  9
$DRAGMODE
 70
     2
  9
$LTSCALE
 40
1.0
  9
$OSMODE
 70
    37
  9
$ATTMODE
 70
     1
  9
$TEXTSIZE
 40
0.2
  9
$TRACEWID
 40
0.05
  9
$TEXTSTYLE
  7
STANDARD
  9
$CLAYER
  8
0
  9
$CELTYPE
  6
BYLAYER
  9
$CECOLOR
 62
   256
  9
$DIMSCALE
 40
1.0
  9
$DIMASZ
 40
0.18
  9
$DIMEXO
 40
0.0625
  9
$DIMDLI
 40
0.38
  9
$DIMRND
 40
0.0
  9
$DIMDLE
 40
0.0
  9
$DIMEXE
 40
0.18
  9
$DIMTP
 40
0.0
  9
$DIMTM
 40
0.0
  9
$DIMTXT
 40
0.18
  9
$DIMCEN
 40
0.09
  9
$DIMTSZ
 40
0.0
  9
$DIMTOL
 70
     0
  9
$DIMLIM
 70
     0
  9
$DIMTIH
 70
     1
  9
$DIMTOH
 70
     1
  9
$DIMSE1
 70
     0
  9
$DIMSE2
 70
     0
  9
$DIMTAD
 70
     0
  9
$DIMZIN
 70
     0
  9
$DIMBLK
  1

  9
$DIMASO
 70
     1
  9
$DIMSHO
 70
     1
  9
$DIMPOST
  1

  9
$DIMAPOST
  1

  9
$DIMALT
 70
     0
  9
$DIMALTD
 70
     2
  9
$DIMALTF
 40
25.4
  9
$DIMLFAC
 40
1.0
  9
$DIMTOFL
 70
     0
  9
$DIMTVP
 40
0.0
  9
$DIMTIX
 70
     0
  9
$DIMSOXD
 70
     0
  9
$DIMSAH
 70
     0
  9
$DIMBLK1
  1

  9
$DIMBLK2
  1

  9
$DIMSTYLE
  2
STANDARD
  9
$DIMCLRD
 70
     0
  9
$DIMCLRE
 70
     0
  9
$DIMCLRT
 70
     0
  9
$DIMTFAC
 40
1.0
  9
$DIMGAP
 40
0.09
  9
$LUNITS
 70
     2
  9
$LUPREC
 70
     4
  9
$SKETCHINC
 40
0.1
  9
$FILLETRAD
 40
0.5
  9
$AUNITS
 70
     0
  9
$AUPREC
 70
     0
  9
$MENU
  1
.
  9
$ELEVATION
 40
0.0
  9
$PELEVATION
 40
0.0
  9
$THICKNESS
 40
0.0
  9
$LIMCHECK
 70
     0
  9
$CHAMFERA
 40
0.5
  9
$CHAMFERB
 40
0.5
  9
$SKPOLY
 70
     0
  9
$TDCREATE
 40
2454910.5
  9
$TDUPDATE
 40
2458441.678864155
  9
$TDINDWG
 40
0.0000000116
  9
$TDUSRTIMER
 40
0.0000000116
  9
$USRTIMER
 70
     1
  9
$ANGBASE
 50
0.0
  9
$ANGDIR
 70
     0
  9
$PDMODE
 70
     0
  9
$PDSIZE
 40
0.0
  9
$PLINEWID
 40
0.0
  9
$COORDS
 70
     1
  9
$SPLFRAME
 70
     0
  9
$SPLINETYPE
 70
     6
  9
$SPLINESEGS
 70
     8
  9
$ATTDIA
 70
     0
  9
$ATTREQ
 70
     1
  9
$HANDLING
 70
     1
  9
$HANDSEED
  5
12F
  9
$SURFTAB1
 70
     6
  9
$SURFTAB2
 70
     6
  9
$SURFTYPE
 70
     6
  9
$SURFU
 70
     6
  9
$SURFV
 70
     6
  9
$UCSNAME
  2

  9
$UCSORG
 10
0.0
 20
0.0
 30
0.0
  9
$UCSXDIR
 10
1.0
 20
0.0
 30
0.0
  9
$UCSYDIR
 10
0.0
 20
1.0
 30
0.0
  9
$PUCSNAME
  2

  9
$PUCSORG
 10
0.0
 20
0.0
 30
0.0
  9
$PUCSXDIR
 10
1.0
 20
0.0
 30
0.0
  9
$PUCSYDIR
 10
0.0
 20
1.0
 30
0.0
  9
$USERI1
 70
     0
  9
$USERI2
 70
     0
  9
$USERI3
 70
     0
  9
$USERI4
 70
     0
  9
$USERI5
 70
     0
  9
$USERR1
 40
0.0
  9
$USERR2
 40
0.0
  9
$USERR3
 40
0.0
  9
$USERR4
 40
0.0
  9
$USERR5
 40
0.0
  9
$WORLDVIEW
 70
     1
  9
$SHADEDGE
 70
     3
  9
$SHADEDIF
 70
    70
  9
$TILEMODE
 70
     1
  9
$MAXACTVP
 70
    64
  9
$PLIMCHECK
 70
     0
  9
$PEXTMIN
 10
1.000000000000000E+20
 20
1.000000000000000E+20
 30
1.000000000000000E+20
  9
$PEXTMAX
 10
-1.000000000000000E+20
 20
-1.000000000000000E+20
 30
-1.000000000000000E+20
  9
$PLIMMIN
 10
0.0
 20
0.0
  9
$PLIMMAX
 10
12.0
 20
9.0
  9
$UNITMODE
 70
     0
  9
$VISRETAIN
 70
     1
  9
$PLINEGEN
 70
     0
  9
$PSLTSCALE
 70
     1
  0
ENDSEC
  0
SECTION
  2
TABLES
  0
TABLE
  2
VPORT
 70
     1
  0
VPORT
  2
*ACTIVE
 70
     0
 10
0.0
 20
0.0
 11
1.0
 21
1.0
 12
10.42990654205607
 22
4.5
 13
0.0
 23
0.0
 14
0.5
 24
0.5
 15
0.5
 25
0.5
 16
0.0
 26
0.0
 36
1.0
 17
0.0
 27
0.0
 37
0.0
 40
9.0
 41
1.972972972850329
 42
50.0
 43
0.0
 44
0.0
 50
0.0
 51
0.0
 71
     0
 72
   100
 73
     1
 74
     3
 75
     0
 76
     0
 77
     0
 78
     0
  0
ENDTAB
  0
TABLE
  2
LTYPE
 70
     2
  0
LTYPE
  2
CONTINUOUS
 70
     0
  3
Solid line
 72
    65
 73
     0
 40
0.0
  0
LTYPE
  2
CONTINUOUS2
 70
     0
  3
Solid Line
 72
    65
 73
     0
 40
0.0
  0
ENDTAB
  0
TABLE
  2
LAYER
 70
     2
  0
LAYER
  2
0
 70
     0
 62
     7
  6
CONTINUOUS
  0
LAYER
  2
6MM_ENGRAVE
 70
     0
 62
   245
  6
CONTINUOUS
  0
ENDTAB
  0
TABLE
  2
STYLE
 70
     1
  0
STYLE
  2
STANDARD
 70
     0
 40
0.0
 41
1.0
 50
0.0
 71
     0
 42
0.2
  3
txt
  4

  0
ENDTAB
  0
TABLE
  2
VIEW
 70
     0
  0
ENDTAB
  0
TABLE
  2
UCS
 70
     0
  0
ENDTAB
  0
TABLE
  2
APPID
 70
     1
  0
APPID
  2
ACAD
 70
     0
  0
ENDTAB
  0
TABLE
  2
DIMSTYLE
 70
     1
  0
DIMSTYLE
  2
STANDARD
 70
     0
  3

  4

  5

  6

  7

 40
1.0
 41
0.18
 42
0.0625
 43
0.38
 44
0.18
 45
0.0
 46
0.0
 47
0.0
 48
0.0
140
0.18
141
0.09
142
0.0
143
25.4
144
1.0
145
0.0
146
1.0
147
0.09
 71
     0
 72
     0
 73
     1
 74
     1
 75
     0
 76
     0
 77
     0
 78
     0
170
     0
171
     2
172
     0
173
     0
174
     0
175
     0
176
     0
177
     0
178
     0
  0
ENDTAB
  0
ENDSEC
  0
SECTION
  2
BLOCKS
  0
BLOCK
  8
0
  2
$MODEL_SPACE
 70
     0
 10
0.0
 20
0.0
 30
0.0
  3
$MODEL_SPACE
  1

  0
ENDBLK
  5
21
  8
0
  0
BLOCK
 67
     1
  8
0
  2
$PAPER_SPACE
 70
     0
 10
0.0
 20
0.0
 30
0.0
  3
$PAPER_SPACE
  1

  0
ENDBLK
  5
1D
 67
     1
  8
0
  0
ENDSEC
  0
SECTION
  2
ENTITIES
  0
POLYLINE
  5
41
  8
6MM_ENGRAVE
 66
     1
 10
0.0
 20
0.0
 30
0.0
 70
     1
  0
VERTEX
  5
49
  8
6MM_ENGRAVE
 10
975.2946414337217
 20
527.035503609391
 30
0.0
 42
0.4142135623730951
  0
VERTEX
  5
4A
  8
6MM_ENGRAVE
 10
979.7946414337217
 20
522.535503609391
 30
0.0
 42
0.4142135623730951
  0
VERTEX
  5
4B
  8
6MM_ENGRAVE
 10
984.2946414337217
 20
527.035503609391
 30
0.0
 42
0.4142135623730951
  0
VERTEX
  5
4C
  8
6MM_ENGRAVE
 10
979.7946414337217
 20
531.535503609391
 30
0.0
 42
0.4142135623730951
  0
SEQEND
  5
4D
  8
6MM_ENGRAVE
  0
POLYLINE
  5
42
  8
6MM_ENGRAVE
 66
     1
 10
0.0
 20
0.0
 30
0.0
 70
     1
  0
VERTEX
  5
4E
  8
6MM_ENGRAVE
 10
1029.85597515667
 20
500.591707384904
 30
0.0
  0
VERTEX
  5
4F
  8
6MM_ENGRAVE
 10
1030.337690417831
 20
500.4650171966873
 30
0.0
  0
VERTEX
  5
50
  8
6MM_ENGRAVE
 10
1030.821820775294
 20
500.346266821409
 30
0.0
  0
VERTEX
  5
51
  8
6MM_ENGRAVE
 10
1031.308258805051
 20
500.2354885120751
 30
0.0
  0
VERTEX
  5
52
  8
6MM_ENGRAVE
 10
1031.796897083091
 20
500.1327145216916
 30
0.0
  0
VERTEX
  5
53
  8
6MM_ENGRAVE
 10
1032.287628185407
 20
500.0379771032643
 30
0.0
  0
VERTEX
  5
54
  8
6MM_ENGRAVE
 10
1032.780344687989
 20
499.9513085097994
 30
0.0
  0
VERTEX
  5
55
  8
6MM_ENGRAVE
 10
1033.274939166829
 20
499.8727409943028
 30
0.0
  0
VERTEX
  5
56
  8
6MM_ENGRAVE
 10
1033.771304197917
 20
499.8023068097805
 30
0.0
  0
VERTEX
  5
57
  8
6MM_ENGRAVE
 10
1034.269332357244
 20
499.7400382092383
 30
0.0
  0
VERTEX
  5
58
  8
6MM_ENGRAVE
 10
1034.768916220802
 20
499.6859674456823
 30
0.0
  0
VERTEX
  5
59
  8
6MM_ENGRAVE
 10
1035.269948364582
 20
499.6401267721185
 30
0.0
  0
VERTEX
  5
5A
  8
6MM_ENGRAVE
 10
1035.772321364574
 20
499.6025484415528
 30
0.0
  0
VERTEX
  5
5B
  8
6MM_ENGRAVE
 10
1036.275927796769
 20
499.5732647069913
 30
0.0
  0
VERTEX
  5
5C
  8
6MM_ENGRAVE
 10
1036.78066023716
 20
499.5523078214397
 30
0.0
  0
VERTEX
  5
5D
  8
6MM_ENGRAVE
 10
1037.286411261736
 20
499.5397100379043
 30
0.0
  0
VERTEX
  5
5E
  8
6MM_ENGRAVE
 10
1037.793073446489
 20
499.535503609391
 30
0.0
  0
VERTEX
  5
5F
  8
6MM_ENGRAVE
 10
1038.540544862047
 20
499.5444853141515
 30
0.0
  0
VERTEX
  5
60
  8
6MM_ENGRAVE
 10
1039.283352787065
 20
499.5712864387461
 30
0.0
  0
VERTEX
  5
61
  8
6MM_ENGRAVE
 10
1040.021269769958
 20
499.6156909986438
 30
0.0
  0
VERTEX
  5
62
  8
6MM_ENGRAVE
 10
1040.754068359137
 20
499.677483009314
 30
0.0
  0
VERTEX
  5
63
  8
6MM_ENGRAVE
 10
1041.481521103015
 20
499.7564464862257
 30
0.0
  0
VERTEX
  5
64
  8
6MM_ENGRAVE
 10
1042.203400550005
 20
499.8523654448484
 30
0.0
  0
VERTEX
  5
65
  8
6MM_ENGRAVE
 10
1042.919479248519
 20
499.9650239006511
 30
0.0
  0
VERTEX
  5
66
  8
6MM_ENGRAVE
 10
1043.629529746971
 20
500.0942058691033
 30
0.0
  0
VERTEX
  5
67
  8
6MM_ENGRAVE
 10
1044.333324593774
 20
500.239695365674
 30
0.0
  0
VERTEX
  5
68
  8
6MM_ENGRAVE
 10
1045.030636337339
 20
500.4012764058325
 30
0.0
  0
VERTEX
  5
69
  8
6MM_ENGRAVE
 10
1045.72123752608
 20
500.5787330050481
 30
0.0
  0
VERTEX
  5
6A
  8
6MM_ENGRAVE
 10
1046.404900708409
 20
500.77184917879
 30
0.0
  0
VERTEX
  5
6B
  8
6MM_ENGRAVE
 10
1047.081398432739
 20
500.9804089425273
 30
0.0
  0
VERTEX
  5
6C
  8
6MM_ENGRAVE
 10
1047.750503247483
 20
501.2041963117294
 30
0.0
  0
VERTEX
  5
6D
  8
6MM_ENGRAVE
 10
1048.411987701054
 20
501.4429953018654
 30
0.0
  0
VERTEX
  5
6E
  8
6MM_ENGRAVE
 10
1049.065624341864
 20
501.6965899284047
 30
0.0
  0
VERTEX
  5
6F
  8
6MM_ENGRAVE
 10
1049.711185718325
 20
501.9647642068164
 30
0.0
  0
VERTEX
  5
70
  8
6MM_ENGRAVE
 10
1050.348444378852
 20
502.2473021525698
 30
0.0
  0
VERTEX
  5
71
  8
6MM_ENGRAVE
 10
1050.977172871856
 20
502.543987781134
 30
0.0
  0
VERTEX
  5
72
  8
6MM_ENGRAVE
 10
1051.597143745751
 20
502.8546051079784
 30
0.0
  0
VERTEX
  5
73
  8
6MM_ENGRAVE
 10
1052.208129548948
 20
503.1789381485721
 30
0.0
  0
VERTEX
  5
74
  8
6MM_ENGRAVE
 10
1052.809902829861
 20
503.5167709183844
 30
0.0
  0
VERTEX
  5
75
  8
6MM_ENGRAVE
 10
1053.402236136903
 20
503.8678874328846
 30
0.0
  0
VERTEX
  5
76
  8
6MM_ENGRAVE
 10
1053.984902018485
 20
504.2320717075417
 30
0.0
  0
VERTEX
  5
77
  8
6MM_ENGRAVE
 10
1054.557673023021
 20
504.6091077578252
 30
0.0
  0
VERTEX
  5
78
  8
6MM_ENGRAVE
 10
1055.120321698924
 20
504.9987795992042
 30
0.0
  0
VERTEX
  5
79
  8
6MM_ENGRAVE
 10
1055.672620594607
 20
505.400871247148
 30
0.0
  0
VERTEX
  5
7A
  8
6MM_ENGRAVE
 10
1056.214342258481
 20
505.8151667171256
 30
0.0
  0
VERTEX
  5
7B
  8
6MM_ENGRAVE
 10
1056.74525923896
 20
506.2414500246066
 30
0.0
  0
VERTEX
  5
7C
  8
6MM_ENGRAVE
 10
1057.265144084457
 20
506.67950518506
 30
0.0
  0
VERTEX
  5
7D
  8
6MM_ENGRAVE
 10
1057.773769343385
 20
507.1291162139549
 30
0.0
  0
VERTEX
  5
7E
  8
6MM_ENGRAVE
 10
1058.270907564155
 20
507.5900671267609
 30
0.0
  0
VERTEX
  5
7F
  8
6MM_ENGRAVE
 10
1058.756331295181
 20
508.062141938947
 30
0.0
  0
VERTEX
  5
80
  8
6MM_ENGRAVE
 10
1059.229813084876
 20
508.5451246659824
 30
0.0
  0
VERTEX
  5
81
  8
6MM_ENGRAVE
 10
1059.691125481651
 20
509.0387993233365
 30
0.0
  0
VERTEX
  5
82
  8
6MM_ENGRAVE
 10
1060.140041033921
 20
509.5429499264783
 30
0.0
  0
VERTEX
  5
83
  8
6MM_ENGRAVE
 10
1060.576332290098
 20
510.0573604908773
 30
0.0
  0
VERTEX
  5
84
  8
6MM_ENGRAVE
 10
1060.999771798593
 20
510.5818150320025
 30
0.0
  0
VERTEX
  5
85
  8
6MM_ENGRAVE
 10
1061.410132107821
 20
511.1160975653232
 30
0.0
  0
VERTEX
  5
86
  8
6MM_ENGRAVE
 10
1061.807185766194
 20
511.6599921063088
 30
0.0
  0
VERTEX
  5
87
  8
6MM_ENGRAVE
 10
1062.190705322124
 20
512.2132826704284
 30
0.0
  0
VERTEX
  5
88
  8
6MM_ENGRAVE
 10
1062.560463324025
 20
512.775753273151
 30
0.0
  0
VERTEX
  5
89
  8
6MM_ENGRAVE
 10
1062.916232320309
 20
513.3471879299461
 30
0.0
  0
VERTEX
  5
8A
  8
6MM_ENGRAVE
 10
1063.257784859389
 20
513.9273706562831
 30
0.0
  0
VERTEX
  5
8B
  8
6MM_ENGRAVE
 10
1063.584893489677
 20
514.516085467631
 30
0.0
  0
VERTEX
  5
8C
  8
6MM_ENGRAVE
 10
1063.897330759587
 20
515.1131163794589
 30
0.0
  0
VERTEX
  5
8D
  8
6MM_ENGRAVE
 10
1064.19486921753
 20
515.7182474072362
 30
0.0
  0
VERTEX
  5
8E
  8
6MM_ENGRAVE
 10
1064.477281411921
 20
516.3312625664321
 30
0.0
  0
VERTEX
  5
8F
  8
6MM_ENGRAVE
 10
1064.744339891171
 20
516.9519458725159
 30
0.0
  0
VERTEX
  5
90
  8
6MM_ENGRAVE
 10
1064.995817203693
 20
517.5800813409567
 30
0.0
  0
VERTEX
  5
91
  8
6MM_ENGRAVE
 10
1065.2314858979
 20
518.2154529872239
 30
0.0
  0
VERTEX
  5
92
  8
6MM_ENGRAVE
 10
1065.451118522205
 20
518.8578448267866
 30
0.0
  0
VERTEX
  5
93
  8
6MM_ENGRAVE
 10
1065.65448762502
 20
519.5070408751141
 30
0.0
  0
VERTEX
  5
94
  8
6MM_ENGRAVE
 10
1065.841365754758
 20
520.1628251476756
 30
0.0
  0
VERTEX
  5
95
  8
6MM_ENGRAVE
 10
1066.011525459833
 20
520.8249816599402
 30
0.0
  0
VERTEX
  5
96
  8
6MM_ENGRAVE
 10
1066.164739288656
 20
521.4932944273774
 30
0.0
  0
VERTEX
  5
97
  8
6MM_ENGRAVE
 10
1066.30077978964
 20
522.1675474654562
 30
0.0
  0
VERTEX
  5
98
  8
6MM_ENGRAVE
 10
1066.419419511199
 20
522.847524789646
 30
0.0
  0
VERTEX
  5
99
  8
6MM_ENGRAVE
 10
1066.520431001744
 20
523.5330104154159
 30
0.0
  0
VERTEX
  5
9A
  8
6MM_ENGRAVE
 10
1066.603586809689
 20
524.2237883582352
 30
0.0
  0
VERTEX
  5
9B
  8
6MM_ENGRAVE
 10
1066.668659483446
 20
524.9196426335732
 30
0.0
  0
VERTEX
  5
9C
  8
6MM_ENGRAVE
 10
1066.715421571428
 20
525.620357256899
 30
0.0
  0
VERTEX
  5
9D
  8
6MM_ENGRAVE
 10
1066.743645622048
 20
526.3257162436818
 30
0.0
  0
VERTEX
  5
9E
  8
6MM_ENGRAVE
 10
1066.753104183719
 20
527.035503609391
 30
0.0
  0
VERTEX
  5
9F
  8
6MM_ENGRAVE
 10
1066.743645622048
 20
527.7452909751001
 30
0.0
  0
VERTEX
  5
A0
  8
6MM_ENGRAVE
 10
1066.715421571428
 20
528.450649961883
 30
0.0
  0
VERTEX
  5
A1
  8
6MM_ENGRAVE
 10
1066.668659483446
 20
529.1513645852087
 30
0.0
  0
VERTEX
  5
A2
  8
6MM_ENGRAVE
 10
1066.603586809689
 20
529.8472188605467
 30
0.0
  0
VERTEX
  5
A3
  8
6MM_ENGRAVE
 10
1066.520431001744
 20
530.537996803366
 30
0.0
  0
VERTEX
  5
A4
  8
6MM_ENGRAVE
 10
1066.419419511199
 20
531.223482429136
 30
0.0
  0
VERTEX
  5
A5
  8
6MM_ENGRAVE
 10
1066.30077978964
 20
531.9034597533257
 30
0.0
  0
VERTEX
  5
A6
  8
6MM_ENGRAVE
 10
1066.164739288656
 20
532.5777127914046
 30
0.0
  0
VERTEX
  5
A7
  8
6MM_ENGRAVE
 10
1066.011525459833
 20
533.2460255588417
 30
0.0
  0
VERTEX
  5
A8
  8
6MM_ENGRAVE
 10
1065.841365754758
 20
533.9081820711064
 30
0.0
  0
VERTEX
  5
A9
  8
6MM_ENGRAVE
 10
1065.65448762502
 20
534.5639663436679
 30
0.0
  0
VERTEX
  5
AA
  8
6MM_ENGRAVE
 10
1065.451118522205
 20
535.2131623919953
 30
0.0
  0
VERTEX
  5
AB
  8
6MM_ENGRAVE
 10
1065.2314858979
 20
535.855554231558
 30
0.0
  0
VERTEX
  5
AC
  8
6MM_ENGRAVE
 10
1064.995817203693
 20
536.4909258778252
 30
0.0
  0
VERTEX
  5
AD
  8
6MM_ENGRAVE
 10
1064.744339891171
 20
537.119061346266
 30
0.0
  0
VERTEX
  5
AE
  8
6MM_ENGRAVE
 10
1064.477281411921
 20
537.7397446523498
 30
0.0
  0
VERTEX
  5
AF
  8
6MM_ENGRAVE
 10
1064.19486921753
 20
538.3527598115458
 30
0.0
  0
VERTEX
  5
B0
  8
6MM_ENGRAVE
 10
1063.897330759587
 20
538.957890839323
 30
0.0
  0
VERTEX
  5
B1
  8
6MM_ENGRAVE
 10
1063.584893489677
 20
539.5549217511509
 30
0.0
  0
VERTEX
  5
B2
  8
6MM_ENGRAVE
 10
1063.257784859389
 20
540.1436365624988
 30
0.0
  0
VERTEX
  5
B3
  8
6MM_ENGRAVE
 10
1062.916232320309
 20
540.7238192888358
 30
0.0
  0
VERTEX
  5
B4
  8
6MM_ENGRAVE
 10
1062.560463324025
 20
541.2952539456309
 30
0.0
  0
VERTEX
  5
B5
  8
6MM_ENGRAVE
 10
1062.190705322124
 20
541.8577245483535
 30
0.0
  0
VERTEX
  5
B6
  8
6MM_ENGRAVE
 10
1061.807185766194
 20
542.411015112473
 30
0.0
  0
VERTEX
  5
B7
  8
6MM_ENGRAVE
 10
1061.410132107821
 20
542.9549096534586
 30
0.0
  0
VERTEX
  5
B8
  8
6MM_ENGRAVE
 10
1060.999771798593
 20
543.4891921867793
 30
0.0
  0
VERTEX
  5
B9
  8
6MM_ENGRAVE
 10
1060.576332290098
 20
544.0136467279044
 30
0.0
  0
VERTEX
  5
BA
  8
6MM_ENGRAVE
 10
1060.140041033921
 20
544.5280572923034
 30
0.0
  0
VERTEX
  5
BB
  8
6MM_ENGRAVE
 10
1059.691125481651
 20
545.0322078954454
 30
0.0
  0
VERTEX
  5
BC
  8
6MM_ENGRAVE
 10
1059.229813084876
 20
545.5258825527994
 30
0.0
  0
VERTEX
  5
BD
  8
6MM_ENGRAVE
 10
1058.756331295181
 20
546.0088652798349
 30
0.0
  0
VERTEX
  5
BE
  8
6MM_ENGRAVE
 10
1058.270907564155
 20
546.480940092021
 30
0.0
  0
VERTEX
  5
BF
  8
6MM_ENGRAVE
 10
1057.773769343385
 20
546.941891004827
 30
0.0
  0
VERTEX
  5
C0
  8
6MM_ENGRAVE
 10
1057.265144084457
 20
547.391502033722
 30
0.0
  0
VERTEX
  5
C1
  8
6MM_ENGRAVE
 10
1056.74525923896
 20
547.8295571941754
 30
0.0
  0
VERTEX
  5
C2
  8
6MM_ENGRAVE
 10
1056.214342258481
 20
548.2558405016563
 30
0.0
  0
VERTEX
  5
C3
  8
6MM_ENGRAVE
 10
1055.672620594607
 20
548.670135971634
 30
0.0
  0
VERTEX
  5
C4
  8
6MM_ENGRAVE
 10
1055.120321698924
 20
549.0722276195777
 30
0.0
  0
VERTEX
  5
C5
  8
6MM_ENGRAVE
 10
1054.557673023021
 20
549.4618994609566
 30
0.0
  0
VERTEX
  5
C6
  8
6MM_ENGRAVE
 10
1053.984902018485
 20
549.8389355112402
 30
0.0
  0
VERTEX
  5
C7
  8
6MM_ENGRAVE
 10
1053.402236136903
 20
550.2031197858973
 30
0.0
  0
VERTEX
  5
C8
  8
6MM_ENGRAVE
 10
1052.809902829861
 20
550.5542363003974
 30
0.0
  0
VERTEX
  5
C9
  8
6MM_ENGRAVE
 10
1052.208129548948
 20
550.8920690702098
 30
0.0
  0
VERTEX
  5
CA
  8
6MM_ENGRAVE
 10
1051.597143745751
 20
551.2164021108035
 30
0.0
  0
VERTEX
  5
CB
  8
6MM_ENGRAVE
 10
1050.977172871856
 20
551.5270194376478
 30
0.0
  0
VERTEX
  5
CC
  8
6MM_ENGRAVE
 10
1050.348444378852
 20
551.8237050662121
 30
0.0
  0
VERTEX
  5
CD
  8
6MM_ENGRAVE
 10
1049.711185718325
 20
552.1062430119655
 30
0.0
  0
VERTEX
  5
CE
  8
6MM_ENGRAVE
 10
1049.065624341864
 20
552.3744172903771
 30
0.0
  0
VERTEX
  5
CF
  8
6MM_ENGRAVE
 10
1048.411987701054
 20
552.6280119169164
 30
0.0
  0
VERTEX
  5
D0
  8
6MM_ENGRAVE
 10
1047.750503247483
 20
552.8668109070525
 30
0.0
  0
VERTEX
  5
D1
  8
6MM_ENGRAVE
 10
1047.081398432739
 20
553.0905982762546
 30
0.0
  0
VERTEX
  5
D2
  8
6MM_ENGRAVE
 10
1046.404900708409
 20
553.2991580399919
 30
0.0
  0
VERTEX
  5
D3
  8
6MM_ENGRAVE
 10
1045.72123752608
 20
553.4922742137337
 30
0.0
  0
VERTEX
  5
D4
  8
6MM_ENGRAVE
 10
1045.030636337339
 20
553.6697308129494
 30
0.0
  0
VERTEX
  5
D5
  8
6MM_ENGRAVE
 10
1044.333324593774
 20
553.831311853108
 30
0.0
  0
VERTEX
  5
D6
  8
6MM_ENGRAVE
 10
1043.629529746971
 20
553.9768013496787
 30
0.0
  0
VERTEX
  5
D7
  8
6MM_ENGRAVE
 10
1042.919479248519
 20
554.1059833181309
 30
0.0
  0
VERTEX
  5
D8
  8
6MM_ENGRAVE
 10
1042.203400550005
 20
554.2186417739337
 30
0.0
  0
VERTEX
  5
D9
  8
6MM_ENGRAVE
 10
1041.481521103015
 20
554.3145607325563
 30
0.0
  0
VERTEX
  5
DA
  8
6MM_ENGRAVE
 10
1040.754068359137
 20
554.3935242094681
 30
0.0
  0
VERTEX
  5
DB
  8
6MM_ENGRAVE
 10
1040.021269769958
 20
554.4553162201382
 30
0.0
  0
VERTEX
  5
DC
  8
6MM_ENGRAVE
 10
1039.283352787065
 20
554.4997207800359
 30
0.0
  0
VERTEX
  5
DD
  8
6MM_ENGRAVE
 10
1038.540544862047
 20
554.5265219046303
 30
0.0
  0
VERTEX
  5
DE
  8
6MM_ENGRAVE
 10
1037.793073446489
 20
554.535503609391
 30
0.0
  0
VERTEX
  5
DF
  8
6MM_ENGRAVE
 10
1036.842346808022
 20
554.5209523947744
 30
0.0
  0
VERTEX
  5
E0
  8
6MM_ENGRAVE
 10
1035.899296601185
 20
554.477547607551
 30
0.0
  0
VERTEX
  5
E1
  8
6MM_ENGRAVE
 10
1034.964410537252
 20
554.40566253266
 30
0.0
  0
VERTEX
  5
E2
  8
6MM_ENGRAVE
 10
1034.038176327495
 20
554.3056704550406
 30
0.0
  0
VERTEX
  5
E3
  8
6MM_ENGRAVE
 10
1033.121081683187
 20
554.1779446596322
 30
0.0
  0
VERTEX
  5
E4
  8
6MM_ENGRAVE
 10
1032.213614315601
 20
554.0228584313742
 30
0.0
  0
VERTEX
  5
E5
  8
6MM_ENGRAVE
 10
1031.316261936011
 20
553.8407850552056
 30
0.0
  0
VERTEX
  5
E6
  8
6MM_ENGRAVE
 10
1030.429512255688
 20
553.632097816066
 30
0.0
  0
VERTEX
  5
E7
  8
6MM_ENGRAVE
 10
974.9257750504288
 20
540.8186744039255
 30
0.0
  0
VERTEX
  5
E8
  8
6MM_ENGRAVE
 10
974.4815215999917
 20
540.7121273684822
 30
0.0
  0
VERTEX
  5
E9
  8
6MM_ENGRAVE
 10
974.0457964771635
 20
540.5884451937661
 30
0.0
  0
VERTEX
  5
EA
  8
6MM_ENGRAVE
 10
973.6189652845762
 20
540.4480638666907
 30
0.0
  0
VERTEX
  5
EB
  8
6MM_ENGRAVE
 10
973.2013936248615
 20
540.2914193741702
 30
0.0
  0
VERTEX
  5
EC
  8
6MM_ENGRAVE
 10
972.7934471006508
 20
540.1189477031188
 30
0.0
  0
VERTEX
  5
ED
  8
6MM_ENGRAVE
 10
972.3954913145761
 20
539.9310848404505
 30
0.0
  0
VERTEX
  5
EE
  8
6MM_ENGRAVE
 10
972.0078918692689
 20
539.7282667730794
 30
0.0
  0
VERTEX
  5
EF
  8
6MM_ENGRAVE
 10
971.6310143673608
 20
539.5109294879194
 30
0.0
  0
VERTEX
  5
F0
  8
6MM_ENGRAVE
 10
971.2652244114836
 20
539.2795089718846
 30
0.0
  0
VERTEX
  5
F1
  8
6MM_ENGRAVE
 10
970.9108876042692
 20
539.0344412118893
 30
0.0
  0
VERTEX
  5
F2
  8
6MM_ENGRAVE
 10
970.568369548349
 20
538.7761621948473
 30
0.0
  0
VERTEX
  5
F3
  8
6MM_ENGRAVE
 10
970.2380358463547
 20
538.5051079076726
 30
0.0
  0
VERTEX
  5
F4
  8
6MM_ENGRAVE
 10
969.9202521009181
 20
538.2217143372794
 30
0.0
  0
VERTEX
  5
F5
  8
6MM_ENGRAVE
 10
969.6153839146709
 20
537.9264174705818
 30
0.0
  0
VERTEX
  5
F6
  8
6MM_ENGRAVE
 10
969.3237968902447
 20
537.6196532944937
 30
0.0
  0
VERTEX
  5
F7
  8
6MM_ENGRAVE
 10
969.0458566302711
 20
537.3018577959292
 30
0.0
  0
VERTEX
  5
F8
  8
6MM_ENGRAVE
 10
968.781928737382
 20
536.9734669618024
 30
0.0
  0
VERTEX
  5
F9
  8
6MM_ENGRAVE
 10
968.5323788142091
 20
536.6349167790274
 30
0.0
  0
VERTEX
  5
FA
  8
6MM_ENGRAVE
 10
968.2975724633839
 20
536.2866432345181
 30
0.0
  0
VERTEX
  5
FB
  8
6MM_ENGRAVE
 10
968.0778752875381
 20
535.9290823151887
 30
0.0
  0
VERTEX
  5
FC
  8
6MM_ENGRAVE
 10
967.8736528893035
 20
535.5626700079531
 30
0.0
  0
VERTEX
  5
FD
  8
6MM_ENGRAVE
 10
967.6852708713116
 20
535.1878422997256
 30
0.0
  0
VERTEX
  5
FE
  8
6MM_ENGRAVE
 10
967.5130948361941
 20
534.8050351774201
 30
0.0
  0
VERTEX
  5
FF
  8
6MM_ENGRAVE
 10
967.357490386583
 20
534.4146846279506
 30
0.0
  0
VERTEX
  5
100
  8
6MM_ENGRAVE
 10
967.2188231251098
 20
534.0172266382313
 30
0.0
  0
VERTEX
  5
101
  8
6MM_ENGRAVE
 10
967.097458654406
 20
533.613097195176
 30
0.0
  0
VERTEX
  5
102
  8
6MM_ENGRAVE
 10
966.9937625771036
 20
533.202732285699
 30
0.0
  0
VERTEX
  5
103
  8
6MM_ENGRAVE
 10
966.908100495834
 20
532.7865678967142
 30
0.0
  0
VERTEX
  5
104
  8
6MM_ENGRAVE
 10
966.840838013229
 20
532.3650400151358
 30
0.0
  0
VERTEX
  5
105
  8
6MM_ENGRAVE
 10
966.7923407319204
 20
531.9385846278778
 30
0.0
  0
VERTEX
  5
106
  8
6MM_ENGRAVE
 10
966.7629742545397
 20
531.5076377218543
 30
0.0
  0
VERTEX
  5
107
  8
6MM_ENGRAVE
 10
966.7531041837188
 20
531.0726352839791
 30
0.0
  0
VERTEX
  5
108
  8
6MM_ENGRAVE
 10
966.7531041837188
 20
522.9983719348028
 30
0.0
  0
VERTEX
  5
109
  8
6MM_ENGRAVE
 10
966.7629742545445
 20
522.5633694969293
 30
0.0
  0
VERTEX
  5
10A
  8
6MM_ENGRAVE
 10
966.7923407319294
 20
522.1324225909075
 30
0.0
  0
VERTEX
  5
10B
  8
6MM_ENGRAVE
 10
966.8408380132419
 20
521.7059672036512
 30
0.0
  0
VERTEX
  5
10C
  8
6MM_ENGRAVE
 10
966.9081004958504
 20
521.2844393220746
 30
0.0
  0
VERTEX
  5
10D
  8
6MM_ENGRAVE
 10
966.9937625771231
 20
520.8682749330917
 30
0.0
  0
VERTEX
  5
10E
  8
6MM_ENGRAVE
 10
967.0974586544282
 20
520.4579100236164
 30
0.0
  0
VERTEX
  5
10F
  8
6MM_ENGRAVE
 10
967.2188231251342
 20
520.0537805805628
 30
0.0
  0
VERTEX
  5
110
  8
6MM_ENGRAVE
 10
967.3574903866095
 20
519.6563225908451
 30
0.0
  0
VERTEX
  5
111
  8
6MM_ENGRAVE
 10
967.5130948362223
 20
519.2659720413772
 30
0.0
  0
VERTEX
  5
112
  8
6MM_ENGRAVE
 10
967.6852708713409
 20
518.8831649190731
 30
0.0
  0
VERTEX
  5
113
  8
6MM_ENGRAVE
 10
967.8736528893337
 20
518.508337210847
 30
0.0
  0
VERTEX
  5
114
  8
6MM_ENGRAVE
 10
968.077875287569
 20
518.1419249036128
 30
0.0
  0
VERTEX
  5
115
  8
6MM_ENGRAVE
 10
968.2975724634152
 20
517.7843639842845
 30
0.0
  0
VERTEX
  5
116
  8
6MM_ENGRAVE
 10
968.5323788142405
 20
517.4360904397763
 30
0.0
  0
VERTEX
  5
117
  8
6MM_ENGRAVE
 10
968.7819287374134
 20
517.0975402570022
 30
0.0
  0
VERTEX
  5
118
  8
6MM_ENGRAVE
 10
969.0458566303021
 20
516.7691494228761
 30
0.0
  0
VERTEX
  5
119
  8
6MM_ENGRAVE
 10
969.3237968902749
 20
516.4513539243122
 30
0.0
  0
VERTEX
  5
11A
  8
6MM_ENGRAVE
 10
969.6153839147003
 20
516.1445897482245
 30
0.0
  0
VERTEX
  5
11B
  8
6MM_ENGRAVE
 10
969.9202521009463
 20
515.8492928815269
 30
0.0
  0
VERTEX
  5
11C
  8
6MM_ENGRAVE
 10
970.2380358463815
 20
515.5658993111336
 30
0.0
  0
VERTEX
  5
11D
  8
6MM_ENGRAVE
 10
970.5683695483744
 20
515.2948450239586
 30
0.0
  0
VERTEX
  5
11E
  8
6MM_ENGRAVE
 10
970.9108876042928
 20
515.036566006916
 30
0.0
  0
VERTEX
  5
11F
  8
6MM_ENGRAVE
 10
971.2652244115056
 20
514.7914982469197
 30
0.0
  0
VERTEX
  5
120
  8
6MM_ENGRAVE
 10
971.6310143673807
 20
514.5600777308839
 30
0.0
  0
VERTEX
  5
121
  8
6MM_ENGRAVE
 10
972.0078918692865
 20
514.3427404457225
 30
0.0
  0
VERTEX
  5
122
  8
6MM_ENGRAVE
 10
972.3954913145915
 20
514.1399223783496
 30
0.0
  0
VERTEX
  5
123
  8
6MM_ENGRAVE
 10
972.7934471006638
 20
513.9520595156791
 30
0.0
  0
VERTEX
  5
124
  8
6MM_ENGRAVE
 10
973.201393624872
 20
513.7795878446253
 30
0.0
  0
VERTEX
  5
125
  8
6MM_ENGRAVE
 10
973.6189652845842
 20
513.6229433521022
 30
0.0
  0
VERTEX
  5
126
  8
6MM_ENGRAVE
 10
974.0457964771689
 20
513.4825620250235
 30
0.0
  0
VERTEX
  5
127
  8
6MM_ENGRAVE
 10
974.4815215999944
 20
513.3588798503035
 30
0.0
  0
VERTEX
  5
128
  8
6MM_ENGRAVE
 10
974.9257750504288
 20
513.2523328148565
 30
0.0
  0
SEQEND
  5
129
  8
6MM_ENGRAVE
  0
POLYLINE
  5
43
  8
6MM_ENGRAVE
 66
     1
 10
0.0
 20
0.0
 30
0.0
 70
     1
  0
VERTEX
  5
12A
  8
6MM_ENGRAVE
 10
1039.253104183719
 20
540.035503609391
 30
0.0
 42
0.4142135623730951
  0
VERTEX
  5
12B
  8
6MM_ENGRAVE
 10
1026.253104183719
 20
527.035503609391
 30
0.0
 42
0.4142135623730951
  0
VERTEX
  5
12C
  8
6MM_ENGRAVE
 10
1039.253104183719
 20
514.035503609391
 30
0.0
 42
0.4142135623730951
  0
VERTEX
  5
12D
  8
6MM_ENGRAVE
 10
1052.253104183719
 20
527.035503609391
 30
0.0
 42
0.4142135623730951
  0
SEQEND
  5
12E
  8
6MM_ENGRAVE
  0
ENDSEC
  0
EOF
