  0
SECTION
  2
HEADER
  9
$ACADVER
  1
AC1009
  9
$DWGCODEPAGE
  3
ansi_1252
  9
$INSBASE
 10
0.0
 20
0.0
 30
0.0
  9
$EXTMIN
 10
1598.727082582499
 20
1037.571
 30
0.0
  9
$EXTMAX
 10
1635.387486606822
 20
1137.571
 30
0.0
  9
$LIMMIN
 10
0.0
 20
0.0
  9
$LIMMAX
 10
12.0
 20
9.0
  9
$ORTHOMODE
 70
     0
  9
$REGENMODE
 70
     1
  9
$FILLMODE
 70
     1
  9
$QTEXTMODE
 70
     0
  9
$MIRRTEXT
 70
     1
  9
$DRAGMODE
 70
     2
  9
$LTSCALE
 40
1.0
  9
$OSMODE
 70
    37
  9
$ATTMODE
 70
     1
  9
$TEXTSIZE
 40
0.2
  9
$TRACEWID
 40
0.05
  9
$TEXTSTYLE
  7
STANDARD
  9
$CLAYER
  8
0
  9
$CELTYPE
  6
BYLAYER
  9
$CECOLOR
 62
   256
  9
$DIMSCALE
 40
1.0
  9
$DIMASZ
 40
0.18
  9
$DIMEXO
 40
0.0625
  9
$DIMDLI
 40
0.38
  9
$DIMRND
 40
0.0
  9
$DIMDLE
 40
0.0
  9
$DIMEXE
 40
0.18
  9
$DIMTP
 40
0.0
  9
$DIMTM
 40
0.0
  9
$DIMTXT
 40
0.18
  9
$DIMCEN
 40
0.09
  9
$DIMTSZ
 40
0.0
  9
$DIMTOL
 70
     0
  9
$DIMLIM
 70
     0
  9
$DIMTIH
 70
     1
  9
$DIMTOH
 70
     1
  9
$DIMSE1
 70
     0
  9
$DIMSE2
 70
     0
  9
$DIMTAD
 70
     0
  9
$DIMZIN
 70
     0
  9
$DIMBLK
  1

  9
$DIMASO
 70
     1
  9
$DIMSHO
 70
     1
  9
$DIMPOST
  1

  9
$DIMAPOST
  1

  9
$DIMALT
 70
     0
  9
$DIMALTD
 70
     2
  9
$DIMALTF
 40
25.4
  9
$DIMLFAC
 40
1.0
  9
$DIMTOFL
 70
     0
  9
$DIMTVP
 40
0.0
  9
$DIMTIX
 70
     0
  9
$DIMSOXD
 70
     0
  9
$DIMSAH
 70
     0
  9
$DIMBLK1
  1

  9
$DIMBLK2
  1

  9
$DIMSTYLE
  2
STANDARD
  9
$DIMCLRD
 70
     0
  9
$DIMCLRE
 70
     0
  9
$DIMCLRT
 70
     0
  9
$DIMTFAC
 40
1.0
  9
$DIMGAP
 40
0.09
  9
$LUNITS
 70
     2
  9
$LUPREC
 70
     4
  9
$SKETCHINC
 40
0.1
  9
$FILLETRAD
 40
0.5
  9
$AUNITS
 70
     0
  9
$AUPREC
 70
     0
  9
$MENU
  1
.
  9
$ELEVATION
 40
0.0
  9
$PELEVATION
 40
0.0
  9
$THICKNESS
 40
0.0
  9
$LIMCHECK
 70
     0
  9
$CHAMFERA
 40
0.5
  9
$CHAMFERB
 40
0.5
  9
$SKPOLY
 70
     0
  9
$TDCREATE
 40
2454910.5
  9
$TDUPDATE
 40
2458441.563915
  9
$TDINDWG
 40
0.0000000116
  9
$TDUSRTIMER
 40
0.0000000116
  9
$USRTIMER
 70
     1
  9
$ANGBASE
 50
0.0
  9
$ANGDIR
 70
     0
  9
$PDMODE
 70
     0
  9
$PDSIZE
 40
0.0
  9
$PLINEWID
 40
0.0
  9
$COORDS
 70
     1
  9
$SPLFRAME
 70
     0
  9
$SPLINETYPE
 70
     6
  9
$SPLINESEGS
 70
     8
  9
$ATTDIA
 70
     0
  9
$ATTREQ
 70
     1
  9
$HANDLING
 70
     1
  9
$HANDSEED
  5
CE
  9
$SURFTAB1
 70
     6
  9
$SURFTAB2
 70
     6
  9
$SURFTYPE
 70
     6
  9
$SURFU
 70
     6
  9
$SURFV
 70
     6
  9
$UCSNAME
  2

  9
$UCSORG
 10
0.0
 20
0.0
 30
0.0
  9
$UCSXDIR
 10
1.0
 20
0.0
 30
0.0
  9
$UCSYDIR
 10
0.0
 20
1.0
 30
0.0
  9
$PUCSNAME
  2

  9
$PUCSORG
 10
0.0
 20
0.0
 30
0.0
  9
$PUCSXDIR
 10
1.0
 20
0.0
 30
0.0
  9
$PUCSYDIR
 10
0.0
 20
1.0
 30
0.0
  9
$USERI1
 70
     0
  9
$USERI2
 70
     0
  9
$USERI3
 70
     0
  9
$USERI4
 70
     0
  9
$USERI5
 70
     0
  9
$USERR1
 40
0.0
  9
$USERR2
 40
0.0
  9
$USERR3
 40
0.0
  9
$USERR4
 40
0.0
  9
$USERR5
 40
0.0
  9
$WORLDVIEW
 70
     1
  9
$SHADEDGE
 70
     3
  9
$SHADEDIF
 70
    70
  9
$TILEMODE
 70
     1
  9
$MAXACTVP
 70
    64
  9
$PLIMCHECK
 70
     0
  9
$PEXTMIN
 10
1.000000000000000E+20
 20
1.000000000000000E+20
 30
1.000000000000000E+20
  9
$PEXTMAX
 10
-1.000000000000000E+20
 20
-1.000000000000000E+20
 30
-1.000000000000000E+20
  9
$PLIMMIN
 10
0.0
 20
0.0
  9
$PLIMMAX
 10
12.0
 20
9.0
  9
$UNITMODE
 70
     0
  9
$VISRETAIN
 70
     1
  9
$PLINEGEN
 70
     0
  9
$PSLTSCALE
 70
     1
  0
ENDSEC
  0
SECTION
  2
TABLES
  0
TABLE
  2
VPORT
 70
     1
  0
VPORT
  2
*ACTIVE
 70
     0
 10
0.0
 20
0.0
 11
1.0
 21
1.0
 12
10.42990654205607
 22
4.5
 13
0.0
 23
0.0
 14
0.5
 24
0.5
 15
0.5
 25
0.5
 16
0.0
 26
0.0
 36
1.0
 17
0.0
 27
0.0
 37
0.0
 40
9.0
 41
1.972972972850329
 42
50.0
 43
0.0
 44
0.0
 50
0.0
 51
0.0
 71
     0
 72
   100
 73
     1
 74
     3
 75
     0
 76
     0
 77
     0
 78
     0
  0
ENDTAB
  0
TABLE
  2
LTYPE
 70
     2
  0
LTYPE
  2
CONTINUOUS
 70
     0
  3
Solid line
 72
    65
 73
     0
 40
0.0
  0
LTYPE
  2
CONTINUOUS2
 70
     0
  3
Solid Line
 72
    65
 73
     0
 40
0.0
  0
ENDTAB
  0
TABLE
  2
LAYER
 70
     4
  0
LAYER
  2
0
 70
     0
 62
     7
  6
CONTINUOUS
  0
LAYER
  2
3MM_CUT
 70
     0
 62
     5
  6
CONTINUOUS
  0
LAYER
  2
3MM_ENGRAVE
 70
     0
 62
     4
  6
CONTINUOUS
  0
LAYER
  2
6MM_ENGRAVE
 70
     0
 62
   245
  6
CONTINUOUS
  0
ENDTAB
  0
TABLE
  2
STYLE
 70
     1
  0
STYLE
  2
STANDARD
 70
     0
 40
0.0
 41
1.0
 50
0.0
 71
     0
 42
0.2
  3
txt
  4

  0
ENDTAB
  0
TABLE
  2
VIEW
 70
     0
  0
ENDTAB
  0
TABLE
  2
UCS
 70
     0
  0
ENDTAB
  0
TABLE
  2
APPID
 70
     1
  0
APPID
  2
ACAD
 70
     0
  0
ENDTAB
  0
TABLE
  2
DIMSTYLE
 70
     1
  0
DIMSTYLE
  2
STANDARD
 70
     0
  3

  4

  5

  6

  7

 40
1.0
 41
0.18
 42
0.0625
 43
0.38
 44
0.18
 45
0.0
 46
0.0
 47
0.0
 48
0.0
140
0.18
141
0.09
142
0.0
143
25.4
144
1.0
145
0.0
146
1.0
147
0.09
 71
     0
 72
     0
 73
     1
 74
     1
 75
     0
 76
     0
 77
     0
 78
     0
170
     0
171
     2
172
     0
173
     0
174
     0
175
     0
176
     0
177
     0
178
     0
  0
ENDTAB
  0
ENDSEC
  0
SECTION
  2
BLOCKS
  0
BLOCK
  8
0
  2
$MODEL_SPACE
 70
     0
 10
0.0
 20
0.0
 30
0.0
  3
$MODEL_SPACE
  1

  0
ENDBLK
  5
21
  8
0
  0
BLOCK
 67
     1
  8
0
  2
$PAPER_SPACE
 70
     0
 10
0.0
 20
0.0
 30
0.0
  3
$PAPER_SPACE
  1

  0
ENDBLK
  5
1D
 67
     1
  8
0
  0
ENDSEC
  0
SECTION
  2
ENTITIES
  0
POLYLINE
  5
41
  8
3MM_CUT
 66
     1
 10
0.0
 20
0.0
 30
0.0
 70
     1
  0
VERTEX
  5
4F
  8
3MM_CUT
 10
1619.381683447851
 20
1127.921886162495
 30
0.0
  0
VERTEX
  5
50
  8
3MM_CUT
 10
1621.003541095483
 20
1134.610957338681
 30
0.0
  0
VERTEX
  5
51
  8
3MM_CUT
 10
1625.159005507391
 20
1137.144564102958
 30
0.0
  0
VERTEX
  5
52
  8
3MM_CUT
 10
1625.159005507391
 20
1137.144564102958
 30
0.0
  0
VERTEX
  5
53
  8
3MM_CUT
 10
1631.848076683575
 20
1135.522706455326
 30
0.0
  0
VERTEX
  5
54
  8
3MM_CUT
 10
1631.848076683574
 20
1135.522706455326
 30
0.0
  0
VERTEX
  5
55
  8
3MM_CUT
 10
1634.381683447849
 20
1131.367242043419
 30
0.0
  0
VERTEX
  5
56
  8
3MM_CUT
 10
1634.381683447851
 20
1131.367242043418
 30
0.0
  0
VERTEX
  5
57
  8
3MM_CUT
 10
1632.759825800221
 20
1124.678170867233
 30
0.0
  0
VERTEX
  5
58
  8
3MM_CUT
 10
1628.604361388313
 20
1122.144564102959
 30
0.0
  0
VERTEX
  5
59
  8
3MM_CUT
 10
1628.604361388312
 20
1122.144564102955
 30
0.0
  0
VERTEX
  5
5A
  8
3MM_CUT
 10
1621.915290212128
 20
1123.766421750587
 30
0.0
  0
VERTEX
  5
5B
  8
3MM_CUT
 10
1621.915290212128
 20
1123.766421750588
 30
0.0
  0
SEQEND
  5
5C
  8
3MM_CUT
  0
POLYLINE
  5
42
  8
3MM_CUT
 66
     1
 10
0.0
 20
0.0
 30
0.0
  0
VERTEX
  5
5D
  8
3MM_CUT
 10
1615.387462989126
 20
1052.570958669049
 30
0.0
  0
VERTEX
  5
5E
  8
3MM_CUT
 10
1635.387486606818
 20
1070.569321967131
 30
0.0
  0
VERTEX
  5
5F
  8
3MM_CUT
 10
1635.387486606822
 20
1104.569362117194
 30
0.0
  0
VERTEX
  5
60
  8
3MM_CUT
 10
1615.387462989155
 20
1122.571041330947
 30
0.0
  0
SEQEND
  5
61
  8
3MM_CUT
  0
POLYLINE
  5
43
  8
3MM_CUT
 66
     1
 10
0.0
 20
0.0
 30
0.0
  0
VERTEX
  5
62
  8
3MM_CUT
 10
1609.886754662743
 20
1052.548706878034
 30
0.0
  0
VERTEX
  5
63
  8
3MM_CUT
 10
1609.864027537615
 20
1052.570958669049
 30
0.0
  0
VERTEX
  5
64
  8
3MM_CUT
 10
1609.51871698847
 20
1052.923624381531
 30
0.0
  0
VERTEX
  5
65
  8
3MM_CUT
 10
1609.178844400728
 20
1053.285465366454
 30
0.0
  0
VERTEX
  5
66
  8
3MM_CUT
 10
1608.84440977439
 20
1053.656335984571
 30
0.0
  0
VERTEX
  5
67
  8
3MM_CUT
 10
1608.515413109457
 20
1054.036090596638
 30
0.0
  0
VERTEX
  5
68
  8
3MM_CUT
 10
1608.191854405927
 20
1054.424583563411
 30
0.0
  0
VERTEX
  5
69
  8
3MM_CUT
 10
1607.873733663801
 20
1054.821669245642
 30
0.0
  0
VERTEX
  5
6A
  8
3MM_CUT
 10
1607.561050883078
 20
1055.227202004089
 30
0.0
  0
VERTEX
  5
6B
  8
3MM_CUT
 10
1607.25380606376
 20
1055.641036199504
 30
0.0
  0
VERTEX
  5
6C
  8
3MM_CUT
 10
1606.951999205845
 20
1056.063026192645
 30
0.0
  0
VERTEX
  5
6D
  8
3MM_CUT
 10
1606.655630309335
 20
1056.493026344265
 30
0.0
  0
VERTEX
  5
6E
  8
3MM_CUT
 10
1606.364699374228
 20
1056.930891015119
 30
0.0
  0
VERTEX
  5
6F
  8
3MM_CUT
 10
1606.079206400525
 20
1057.376474565962
 30
0.0
  0
VERTEX
  5
70
  8
3MM_CUT
 10
1605.799151388226
 20
1057.829631357549
 30
0.0
  0
VERTEX
  5
71
  8
3MM_CUT
 10
1605.524534337331
 20
1058.290215750636
 30
0.0
  0
VERTEX
  5
72
  8
3MM_CUT
 10
1605.255355247839
 20
1058.758082105976
 30
0.0
  0
VERTEX
  5
73
  8
3MM_CUT
 10
1604.991614119752
 20
1059.233084784325
 30
0.0
  0
VERTEX
  5
74
  8
3MM_CUT
 10
1604.733310953068
 20
1059.715078146439
 30
0.0
  0
VERTEX
  5
75
  8
3MM_CUT
 10
1604.480445747789
 20
1060.20391655307
 30
0.0
  0
VERTEX
  5
76
  8
3MM_CUT
 10
1604.233018503913
 20
1060.699454364976
 30
0.0
  0
VERTEX
  5
77
  8
3MM_CUT
 10
1603.991029221441
 20
1061.20154594291
 30
0.0
  0
VERTEX
  5
78
  8
3MM_CUT
 10
1603.754477900372
 20
1061.710045647628
 30
0.0
  0
VERTEX
  5
79
  8
3MM_CUT
 10
1603.523364540708
 20
1062.224807839884
 30
0.0
  0
VERTEX
  5
7A
  8
3MM_CUT
 10
1603.077451705591
 20
1063.272537130031
 30
0.0
  0
VERTEX
  5
7B
  8
3MM_CUT
 10
1602.65329071609
 20
1064.343568699391
 30
0.0
  0
VERTEX
  5
7C
  8
3MM_CUT
 10
1602.250881572204
 20
1065.436737434003
 30
0.0
  0
VERTEX
  5
7D
  8
3MM_CUT
 10
1601.870224273933
 20
1066.550878219907
 30
0.0
  0
VERTEX
  5
7E
  8
3MM_CUT
 10
1601.511318821278
 20
1067.684825943141
 30
0.0
  0
VERTEX
  5
7F
  8
3MM_CUT
 10
1601.174165214238
 20
1068.837415489746
 30
0.0
  0
VERTEX
  5
80
  8
3MM_CUT
 10
1600.858763452814
 20
1070.007481745759
 30
0.0
  0
VERTEX
  5
81
  8
3MM_CUT
 10
1600.565113537006
 20
1071.193859597222
 30
0.0
  0
VERTEX
  5
82
  8
3MM_CUT
 10
1600.293215466812
 20
1072.395383930174
 30
0.0
  0
VERTEX
  5
83
  8
3MM_CUT
 10
1600.043069242234
 20
1073.610889630653
 30
0.0
  0
VERTEX
  5
84
  8
3MM_CUT
 10
1599.814674863272
 20
1074.839211584699
 30
0.0
  0
VERTEX
  5
85
  8
3MM_CUT
 10
1599.608032329925
 20
1076.079184678351
 30
0.0
  0
VERTEX
  5
86
  8
3MM_CUT
 10
1599.423141642194
 20
1077.329643797649
 30
0.0
  0
VERTEX
  5
87
  8
3MM_CUT
 10
1599.260002800078
 20
1078.589423828632
 30
0.0
  0
VERTEX
  5
88
  8
3MM_CUT
 10
1599.118615803577
 20
1079.85735965734
 30
0.0
  0
VERTEX
  5
89
  8
3MM_CUT
 10
1598.998980652692
 20
1081.132286169811
 30
0.0
  0
VERTEX
  5
8A
  8
3MM_CUT
 10
1598.901097347423
 20
1082.413038252086
 30
0.0
  0
VERTEX
  5
8B
  8
3MM_CUT
 10
1598.824965887768
 20
1083.698450790203
 30
0.0
  0
VERTEX
  5
8C
  8
3MM_CUT
 10
1598.77058627373
 20
1084.987358670202
 30
0.0
  0
VERTEX
  5
8D
  8
3MM_CUT
 10
1598.737958505307
 20
1086.278596778122
 30
0.0
  0
VERTEX
  5
8E
  8
3MM_CUT
 10
1598.727082582499
 20
1087.571000000003
 30
0.0
  0
VERTEX
  5
8F
  8
3MM_CUT
 10
1598.737958505307
 20
1088.863403221884
 30
0.0
  0
VERTEX
  5
90
  8
3MM_CUT
 10
1598.77058627373
 20
1090.154641329804
 30
0.0
  0
VERTEX
  5
91
  8
3MM_CUT
 10
1598.824965887768
 20
1091.443549209803
 30
0.0
  0
VERTEX
  5
92
  8
3MM_CUT
 10
1598.901097347423
 20
1092.728961747921
 30
0.0
  0
VERTEX
  5
93
  8
3MM_CUT
 10
1598.998980652692
 20
1094.009713830195
 30
0.0
  0
VERTEX
  5
94
  8
3MM_CUT
 10
1599.118615803578
 20
1095.284640342667
 30
0.0
  0
VERTEX
  5
95
  8
3MM_CUT
 10
1599.260002800078
 20
1096.552576171374
 30
0.0
  0
VERTEX
  5
96
  8
3MM_CUT
 10
1599.423141642194
 20
1097.812356202357
 30
0.0
  0
VERTEX
  5
97
  8
3MM_CUT
 10
1599.608032329926
 20
1099.062815321655
 30
0.0
  0
VERTEX
  5
98
  8
3MM_CUT
 10
1599.814674863273
 20
1100.302788415307
 30
0.0
  0
VERTEX
  5
99
  8
3MM_CUT
 10
1600.043069242235
 20
1101.531110369353
 30
0.0
  0
VERTEX
  5
9A
  8
3MM_CUT
 10
1600.293215466813
 20
1102.746616069832
 30
0.0
  0
VERTEX
  5
9B
  8
3MM_CUT
 10
1600.565113537006
 20
1103.948140402783
 30
0.0
  0
VERTEX
  5
9C
  8
3MM_CUT
 10
1600.858763452815
 20
1105.134518254246
 30
0.0
  0
VERTEX
  5
9D
  8
3MM_CUT
 10
1601.17416521424
 20
1106.30458451026
 30
0.0
  0
VERTEX
  5
9E
  8
3MM_CUT
 10
1601.511318821279
 20
1107.457174056864
 30
0.0
  0
VERTEX
  5
9F
  8
3MM_CUT
 10
1601.870224273935
 20
1108.591121780098
 30
0.0
  0
VERTEX
  5
A0
  8
3MM_CUT
 10
1602.250881572206
 20
1109.705262566002
 30
0.0
  0
VERTEX
  5
A1
  8
3MM_CUT
 10
1602.653290716092
 20
1110.798431300613
 30
0.0
  0
VERTEX
  5
A2
  8
3MM_CUT
 10
1603.077451705594
 20
1111.869462869973
 30
0.0
  0
VERTEX
  5
A3
  8
3MM_CUT
 10
1603.523364540711
 20
1112.91719216012
 30
0.0
  0
VERTEX
  5
A4
  8
3MM_CUT
 10
1603.754477900375
 20
1113.431954352376
 30
0.0
  0
VERTEX
  5
A5
  8
3MM_CUT
 10
1603.991029221443
 20
1113.940454057094
 30
0.0
  0
VERTEX
  5
A6
  8
3MM_CUT
 10
1604.233018503916
 20
1114.442545635027
 30
0.0
  0
VERTEX
  5
A7
  8
3MM_CUT
 10
1604.480445747791
 20
1114.938083446933
 30
0.0
  0
VERTEX
  5
A8
  8
3MM_CUT
 10
1604.733310953071
 20
1115.426921853565
 30
0.0
  0
VERTEX
  5
A9
  8
3MM_CUT
 10
1604.991614119755
 20
1115.908915215678
 30
0.0
  0
VERTEX
  5
AA
  8
3MM_CUT
 10
1605.255355247843
 20
1116.383917894027
 30
0.0
  0
VERTEX
  5
AB
  8
3MM_CUT
 10
1605.524534337334
 20
1116.851784249367
 30
0.0
  0
VERTEX
  5
AC
  8
3MM_CUT
 10
1605.799151388229
 20
1117.312368642454
 30
0.0
  0
VERTEX
  5
AD
  8
3MM_CUT
 10
1606.079206400529
 20
1117.765525434041
 30
0.0
  0
VERTEX
  5
AE
  8
3MM_CUT
 10
1606.364699374232
 20
1118.211108984884
 30
0.0
  0
VERTEX
  5
AF
  8
3MM_CUT
 10
1606.655630309339
 20
1118.648973655738
 30
0.0
  0
VERTEX
  5
B0
  8
3MM_CUT
 10
1606.95199920585
 20
1119.078973807358
 30
0.0
  0
VERTEX
  5
B1
  8
3MM_CUT
 10
1607.253806063764
 20
1119.500963800498
 30
0.0
  0
VERTEX
  5
B2
  8
3MM_CUT
 10
1607.561050883083
 20
1119.914797995914
 30
0.0
  0
VERTEX
  5
B3
  8
3MM_CUT
 10
1607.873733663805
 20
1120.32033075436
 30
0.0
  0
VERTEX
  5
B4
  8
3MM_CUT
 10
1608.191854405932
 20
1120.717416436591
 30
0.0
  0
VERTEX
  5
B5
  8
3MM_CUT
 10
1608.515413109462
 20
1121.105909403363
 30
0.0
  0
VERTEX
  5
B6
  8
3MM_CUT
 10
1608.844409774396
 20
1121.48566401543
 30
0.0
  0
VERTEX
  5
B7
  8
3MM_CUT
 10
1609.178844400733
 20
1121.856534633547
 30
0.0
  0
VERTEX
  5
B8
  8
3MM_CUT
 10
1609.518716988475
 20
1122.21837561847
 30
0.0
  0
VERTEX
  5
B9
  8
3MM_CUT
 10
1609.864027537621
 20
1122.571041330952
 30
0.0
  0
VERTEX
  5
BA
  8
3MM_CUT
 10
1609.885915695889
 20
1122.592488281434
 30
0.0
  0
SEQEND
  5
BB
  8
3MM_CUT
  0
POLYLINE
  5
45
  8
3MM_ENGRAVE
 66
     1
 10
0.0
 20
0.0
 30
0.0
  0
VERTEX
  5
BC
  8
3MM_ENGRAVE
 10
1633.814033271181
 20
1129.026067131753
 30
0.0
  0
VERTEX
  5
BD
  8
3MM_ENGRAVE
 10
1620.43589091881
 20
1132.269782427016
 30
0.0
  0
SEQEND
  5
BE
  8
3MM_ENGRAVE
  0
POLYLINE
  5
46
  8
3MM_ENGRAVE
 66
     1
 10
0.0
 20
0.0
 30
0.0
  0
VERTEX
  5
BF
  8
3MM_ENGRAVE
 10
1633.327475976891
 20
1127.019345778897
 30
0.0
  0
VERTEX
  5
C0
  8
3MM_ENGRAVE
 10
1619.949333624521
 20
1130.26306107416
 30
0.0
  0
SEQEND
  5
C1
  8
3MM_ENGRAVE
  0
POLYLINE
  5
48
  8
6MM_ENGRAVE
 66
     1
 10
0.0
 20
0.0
 30
0.0
  0
VERTEX
  5
C2
  8
6MM_ENGRAVE
 10
1609.887656946807
 20
1122.592488281434
 30
0.0
  0
VERTEX
  5
C3
  8
6MM_ENGRAVE
 10
1609.887656946807
 20
1137.571
 30
0.0
  0
VERTEX
  5
C4
  8
6MM_ENGRAVE
 10
1615.410656946807
 20
1137.571
 30
0.0
  0
VERTEX
  5
C5
  8
6MM_ENGRAVE
 10
1615.410656946807
 20
1122.571
 30
0.0
  0
VERTEX
  5
C6
  8
6MM_ENGRAVE
 10
1615.387462989155
 20
1122.571
 30
0.0
  0
SEQEND
  5
C7
  8
6MM_ENGRAVE
  0
POLYLINE
  5
49
  8
6MM_ENGRAVE
 66
     1
 10
0.0
 20
0.0
 30
0.0
  0
VERTEX
  5
C8
  8
6MM_ENGRAVE
 10
1609.887656946807
 20
1052.549634052619
 30
0.0
  0
VERTEX
  5
C9
  8
6MM_ENGRAVE
 10
1609.887656946807
 20
1037.571
 30
0.0
  0
VERTEX
  5
CA
  8
6MM_ENGRAVE
 10
1615.410656946807
 20
1037.571
 30
0.0
  0
VERTEX
  5
CB
  8
6MM_ENGRAVE
 10
1615.410656946807
 20
1052.571
 30
0.0
  0
VERTEX
  5
CC
  8
6MM_ENGRAVE
 10
1615.3875089166
 20
1052.571
 30
0.0
  0
SEQEND
  5
CD
  8
6MM_ENGRAVE
  0
ENDSEC
  0
EOF
