  0
SECTION
  2
HEADER
  9
$ACADVER
  1
AC1009
  9
$DWGCODEPAGE
  3
ansi_1252
  9
$INSBASE
 10
0.0
 20
0.0
 30
0.0
  9
$EXTMIN
 10
302.7747305557025
 20
1000.87381649828
 30
0.0
  9
$EXTMAX
 10
642.7751320563275
 20
1400.874288851949
 30
0.0
  9
$LIMMIN
 10
0.0
 20
0.0
  9
$LIMMAX
 10
12.0
 20
9.0
  9
$ORTHOMODE
 70
     0
  9
$REGENMODE
 70
     1
  9
$FILLMODE
 70
     1
  9
$QTEXTMODE
 70
     0
  9
$MIRRTEXT
 70
     1
  9
$DRAGMODE
 70
     2
  9
$LTSCALE
 40
1.0
  9
$OSMODE
 70
    37
  9
$ATTMODE
 70
     1
  9
$TEXTSIZE
 40
0.2
  9
$TRACEWID
 40
0.05
  9
$TEXTSTYLE
  7
STANDARD
  9
$CLAYER
  8
0
  9
$CELTYPE
  6
BYLAYER
  9
$CECOLOR
 62
   256
  9
$DIMSCALE
 40
1.0
  9
$DIMASZ
 40
0.18
  9
$DIMEXO
 40
0.0625
  9
$DIMDLI
 40
0.38
  9
$DIMRND
 40
0.0
  9
$DIMDLE
 40
0.0
  9
$DIMEXE
 40
0.18
  9
$DIMTP
 40
0.0
  9
$DIMTM
 40
0.0
  9
$DIMTXT
 40
0.18
  9
$DIMCEN
 40
0.09
  9
$DIMTSZ
 40
0.0
  9
$DIMTOL
 70
     0
  9
$DIMLIM
 70
     0
  9
$DIMTIH
 70
     1
  9
$DIMTOH
 70
     1
  9
$DIMSE1
 70
     0
  9
$DIMSE2
 70
     0
  9
$DIMTAD
 70
     0
  9
$DIMZIN
 70
     0
  9
$DIMBLK
  1

  9
$DIMASO
 70
     1
  9
$DIMSHO
 70
     1
  9
$DIMPOST
  1

  9
$DIMAPOST
  1

  9
$DIMALT
 70
     0
  9
$DIMALTD
 70
     2
  9
$DIMALTF
 40
25.4
  9
$DIMLFAC
 40
1.0
  9
$DIMTOFL
 70
     0
  9
$DIMTVP
 40
0.0
  9
$DIMTIX
 70
     0
  9
$DIMSOXD
 70
     0
  9
$DIMSAH
 70
     0
  9
$DIMBLK1
  1

  9
$DIMBLK2
  1

  9
$DIMSTYLE
  2
STANDARD
  9
$DIMCLRD
 70
     0
  9
$DIMCLRE
 70
     0
  9
$DIMCLRT
 70
     0
  9
$DIMTFAC
 40
1.0
  9
$DIMGAP
 40
0.09
  9
$LUNITS
 70
     2
  9
$LUPREC
 70
     4
  9
$SKETCHINC
 40
0.1
  9
$FILLETRAD
 40
0.5
  9
$AUNITS
 70
     0
  9
$AUPREC
 70
     0
  9
$MENU
  1
.
  9
$ELEVATION
 40
0.0
  9
$PELEVATION
 40
0.0
  9
$THICKNESS
 40
0.0
  9
$LIMCHECK
 70
     0
  9
$CHAMFERA
 40
0.5
  9
$CHAMFERB
 40
0.5
  9
$SKPOLY
 70
     0
  9
$TDCREATE
 40
2454910.5
  9
$TDUPDATE
 40
2458441.509670579
  9
$TDINDWG
 40
0.0000000116
  9
$TDUSRTIMER
 40
0.0000000116
  9
$USRTIMER
 70
     1
  9
$ANGBASE
 50
0.0
  9
$ANGDIR
 70
     0
  9
$PDMODE
 70
     0
  9
$PDSIZE
 40
0.0
  9
$PLINEWID
 40
0.0
  9
$COORDS
 70
     1
  9
$SPLFRAME
 70
     0
  9
$SPLINETYPE
 70
     6
  9
$SPLINESEGS
 70
     8
  9
$ATTDIA
 70
     0
  9
$ATTREQ
 70
     1
  9
$HANDLING
 70
     1
  9
$HANDSEED
  5
311
  9
$SURFTAB1
 70
     6
  9
$SURFTAB2
 70
     6
  9
$SURFTYPE
 70
     6
  9
$SURFU
 70
     6
  9
$SURFV
 70
     6
  9
$UCSNAME
  2

  9
$UCSORG
 10
0.0
 20
0.0
 30
0.0
  9
$UCSXDIR
 10
1.0
 20
0.0
 30
0.0
  9
$UCSYDIR
 10
0.0
 20
1.0
 30
0.0
  9
$PUCSNAME
  2

  9
$PUCSORG
 10
0.0
 20
0.0
 30
0.0
  9
$PUCSXDIR
 10
1.0
 20
0.0
 30
0.0
  9
$PUCSYDIR
 10
0.0
 20
1.0
 30
0.0
  9
$USERI1
 70
     0
  9
$USERI2
 70
     0
  9
$USERI3
 70
     0
  9
$USERI4
 70
     0
  9
$USERI5
 70
     0
  9
$USERR1
 40
0.0
  9
$USERR2
 40
0.0
  9
$USERR3
 40
0.0
  9
$USERR4
 40
0.0
  9
$USERR5
 40
0.0
  9
$WORLDVIEW
 70
     1
  9
$SHADEDGE
 70
     3
  9
$SHADEDIF
 70
    70
  9
$TILEMODE
 70
     1
  9
$MAXACTVP
 70
    64
  9
$PLIMCHECK
 70
     0
  9
$PEXTMIN
 10
1.000000000000000E+20
 20
1.000000000000000E+20
 30
1.000000000000000E+20
  9
$PEXTMAX
 10
-1.000000000000000E+20
 20
-1.000000000000000E+20
 30
-1.000000000000000E+20
  9
$PLIMMIN
 10
0.0
 20
0.0
  9
$PLIMMAX
 10
12.0
 20
9.0
  9
$UNITMODE
 70
     0
  9
$VISRETAIN
 70
     1
  9
$PLINEGEN
 70
     0
  9
$PSLTSCALE
 70
     1
  0
ENDSEC
  0
SECTION
  2
TABLES
  0
TABLE
  2
VPORT
 70
     1
  0
VPORT
  2
*ACTIVE
 70
     0
 10
0.0
 20
0.0
 11
1.0
 21
1.0
 12
10.42990654205607
 22
4.5
 13
0.0
 23
0.0
 14
0.5
 24
0.5
 15
0.5
 25
0.5
 16
0.0
 26
0.0
 36
1.0
 17
0.0
 27
0.0
 37
0.0
 40
9.0
 41
1.972972972850329
 42
50.0
 43
0.0
 44
0.0
 50
0.0
 51
0.0
 71
     0
 72
   100
 73
     1
 74
     3
 75
     0
 76
     0
 77
     0
 78
     0
  0
ENDTAB
  0
TABLE
  2
LTYPE
 70
     2
  0
LTYPE
  2
CONTINUOUS
 70
     0
  3
Solid line
 72
    65
 73
     0
 40
0.0
  0
LTYPE
  2
CONTINUOUS2
 70
     0
  3
Solid Line
 72
    65
 73
     0
 40
0.0
  0
ENDTAB
  0
TABLE
  2
LAYER
 70
     5
  0
LAYER
  2
0
 70
     0
 62
     7
  6
CONTINUOUS
  0
LAYER
  2
CUT_LAST
 70
     0
 62
    18
  6
CONTINUOUS
  0
LAYER
  2
ENGRAVE
 70
     0
 62
    30
  6
CONTINUOUS
  0
LAYER
  2
CUT_FIRST
 70
     0
 62
   105
  6
CONTINUOUS
  0
LAYER
  2
ENGRAVE2
 70
     0
 62
    24
  6
CONTINUOUS
  0
ENDTAB
  0
TABLE
  2
STYLE
 70
     1
  0
STYLE
  2
STANDARD
 70
     0
 40
0.0
 41
1.0
 50
0.0
 71
     0
 42
0.2
  3
txt
  4

  0
ENDTAB
  0
TABLE
  2
VIEW
 70
     0
  0
ENDTAB
  0
TABLE
  2
UCS
 70
     0
  0
ENDTAB
  0
TABLE
  2
APPID
 70
     1
  0
APPID
  2
ACAD
 70
     0
  0
ENDTAB
  0
TABLE
  2
DIMSTYLE
 70
     1
  0
DIMSTYLE
  2
STANDARD
 70
     0
  3

  4

  5

  6

  7

 40
1.0
 41
0.18
 42
0.0625
 43
0.38
 44
0.18
 45
0.0
 46
0.0
 47
0.0
 48
0.0
140
0.18
141
0.09
142
0.0
143
25.4
144
1.0
145
0.0
146
1.0
147
0.09
 71
     0
 72
     0
 73
     1
 74
     1
 75
     0
 76
     0
 77
     0
 78
     0
170
     0
171
     2
172
     0
173
     0
174
     0
175
     0
176
     0
177
     0
178
     0
  0
ENDTAB
  0
ENDSEC
  0
SECTION
  2
BLOCKS
  0
BLOCK
  8
0
  2
$MODEL_SPACE
 70
     0
 10
0.0
 20
0.0
 30
0.0
  3
$MODEL_SPACE
  1

  0
ENDBLK
  5
21
  8
0
  0
BLOCK
 67
     1
  8
0
  2
$PAPER_SPACE
 70
     0
 10
0.0
 20
0.0
 30
0.0
  3
$PAPER_SPACE
  1

  0
ENDBLK
  5
1D
 67
     1
  8
0
  0
ENDSEC
  0
SECTION
  2
ENTITIES
  0
POLYLINE
  5
41
  8
CUT_LAST
 66
     1
 10
0.0
 20
0.0
 30
0.0
 70
     1
  0
VERTEX
  5
E1
  8
CUT_LAST
 10
332.7747659822271
 20
1000.87381649828
 30
0.0
  0
VERTEX
  5
E2
  8
CUT_LAST
 10
332.7747659822289
 20
1012.873830668917
 30
0.0
  0
VERTEX
  5
E3
  8
CUT_LAST
 10
314.7747447263123
 20
1012.873830668897
 30
0.0
  0
VERTEX
  5
E4
  8
CUT_LAST
 10
314.7747447263123
 20
1050.873875542484
 30
0.0
  0
VERTEX
  5
E5
  8
CUT_LAST
 10
302.7747305557025
 20
1050.873875542483
 30
0.0
  0
VERTEX
  5
E6
  8
CUT_LAST
 10
302.7747305557052
 20
1150.873993630891
 30
0.0
  0
VERTEX
  5
E7
  8
CUT_LAST
 10
314.7747447263123
 20
1150.873993630886
 30
0.0
  0
VERTEX
  5
E8
  8
CUT_LAST
 10
314.7747447263123
 20
1250.874111719314
 30
0.0
  0
VERTEX
  5
E9
  8
CUT_LAST
 10
302.7747305557052
 20
1250.874111719306
 30
0.0
  0
VERTEX
  5
EA
  8
CUT_LAST
 10
302.7747305557025
 20
1350.874229807642
 30
0.0
  0
VERTEX
  5
EB
  8
CUT_LAST
 10
314.7747447263118
 20
1350.874229807628
 30
0.0
  0
VERTEX
  5
EC
  8
CUT_LAST
 10
314.7747447263123
 20
1388.874274681337
 30
0.0
  0
VERTEX
  5
ED
  8
CUT_LAST
 10
332.7747659822267
 20
1388.874274681337
 30
0.0
  0
VERTEX
  5
EE
  8
CUT_LAST
 10
332.7747659822267
 20
1400.874288851946
 30
0.0
  0
VERTEX
  5
EF
  8
CUT_LAST
 10
366.7748061322923
 20
1400.874288851949
 30
0.0
  0
VERTEX
  5
F0
  8
CUT_LAST
 10
366.7748061322918
 20
1388.874274681337
 30
0.0
  0
VERTEX
  5
F1
  8
CUT_LAST
 10
384.7748273882096
 20
1388.87427468134
 30
0.0
  0
VERTEX
  5
F2
  8
CUT_LAST
 10
414.7748628147369
 20
1388.87427468133
 30
0.0
  0
VERTEX
  5
F3
  8
CUT_LAST
 10
414.7748628147451
 20
1400.87428885194
 30
0.0
  0
VERTEX
  5
F4
  8
CUT_LAST
 10
448.7749029647969
 20
1400.874288851943
 30
0.0
  0
VERTEX
  5
F5
  8
CUT_LAST
 10
448.7749029647937
 20
1388.87427468133
 30
0.0
  0
VERTEX
  5
F6
  8
CUT_LAST
 10
478.7749383913199
 20
1388.874274681334
 30
0.0
  0
VERTEX
  5
F7
  8
CUT_LAST
 10
496.7749596472343
 20
1388.874274681337
 30
0.0
  0
VERTEX
  5
F8
  8
CUT_LAST
 10
496.7749596472343
 20
1400.874288851946
 30
0.0
  0
VERTEX
  5
F9
  8
CUT_LAST
 10
530.7749997972999
 20
1400.874288851949
 30
0.0
  0
VERTEX
  5
FA
  8
CUT_LAST
 10
530.7749997972994
 20
1388.874274681337
 30
0.0
  0
VERTEX
  5
FB
  8
CUT_LAST
 10
548.7750210532172
 20
1388.87427468134
 30
0.0
  0
VERTEX
  5
FC
  8
CUT_LAST
 10
578.7750564797445
 20
1388.87427468133
 30
0.0
  0
VERTEX
  5
FD
  8
CUT_LAST
 10
578.7750564797527
 20
1400.87428885194
 30
0.0
  0
VERTEX
  5
FE
  8
CUT_LAST
 10
612.7750966298047
 20
1400.874288851943
 30
0.0
  0
VERTEX
  5
FF
  8
CUT_LAST
 10
612.7750966298015
 20
1388.87427468133
 30
0.0
  0
VERTEX
  5
100
  8
CUT_LAST
 10
642.7751320563275
 20
1388.87427468133
 30
0.0
  0
VERTEX
  5
101
  8
CUT_LAST
 10
642.7751320563266
 20
1350.874229807718
 30
0.0
  0
VERTEX
  5
102
  8
CUT_LAST
 10
630.7751178857195
 20
1350.874229807732
 30
0.0
  0
VERTEX
  5
103
  8
CUT_LAST
 10
630.7751178857195
 20
1250.874111719283
 30
0.0
  0
VERTEX
  5
104
  8
CUT_LAST
 10
642.7751320563266
 20
1250.874111719316
 30
0.0
  0
VERTEX
  5
105
  8
CUT_LAST
 10
642.7751320563266
 20
1150.873993630848
 30
0.0
  0
VERTEX
  5
106
  8
CUT_LAST
 10
630.7751178857195
 20
1150.8739936309
 30
0.0
  0
VERTEX
  5
107
  8
CUT_LAST
 10
630.7751178857195
 20
1050.873875542484
 30
0.0
  0
VERTEX
  5
108
  8
CUT_LAST
 10
642.7751320563266
 20
1050.87387554249
 30
0.0
  0
VERTEX
  5
109
  8
CUT_LAST
 10
642.7751320563266
 20
1012.873830668881
 30
0.0
  0
VERTEX
  5
10A
  8
CUT_LAST
 10
612.7750966298015
 20
1012.873830668887
 30
0.0
  0
VERTEX
  5
10B
  8
CUT_LAST
 10
612.7750966298034
 20
1000.873816498283
 30
0.0
  0
VERTEX
  5
10C
  8
CUT_LAST
 10
578.7750564797357
 20
1000.873816498283
 30
0.0
  0
VERTEX
  5
10D
  8
CUT_LAST
 10
578.7750564797363
 20
1012.873830668887
 30
0.0
  0
VERTEX
  5
10E
  8
CUT_LAST
 10
548.7750210532124
 20
1012.873830668889
 30
0.0
  0
VERTEX
  5
10F
  8
CUT_LAST
 10
530.7749997973003
 20
1012.873830668933
 30
0.0
  0
VERTEX
  5
110
  8
CUT_LAST
 10
530.7749997973003
 20
1000.873816498283
 30
0.0
  0
VERTEX
  5
111
  8
CUT_LAST
 10
496.7749596472339
 20
1000.873816498283
 30
0.0
  0
VERTEX
  5
112
  8
CUT_LAST
 10
496.7749596472365
 20
1012.873830668917
 30
0.0
  0
VERTEX
  5
113
  8
CUT_LAST
 10
478.7749383913192
 20
1012.873830668885
 30
0.0
  0
VERTEX
  5
114
  8
CUT_LAST
 10
448.7749029647937
 20
1012.873830668887
 30
0.0
  0
VERTEX
  5
115
  8
CUT_LAST
 10
448.7749029647943
 20
1000.873816498283
 30
0.0
  0
VERTEX
  5
116
  8
CUT_LAST
 10
414.774862814727
 20
1000.873816498283
 30
0.0
  0
VERTEX
  5
117
  8
CUT_LAST
 10
414.7748628147287
 20
1012.873830668887
 30
0.0
  0
VERTEX
  5
118
  8
CUT_LAST
 10
384.7748273882048
 20
1012.873830668889
 30
0.0
  0
VERTEX
  5
119
  8
CUT_LAST
 10
366.7748061322927
 20
1012.873830668933
 30
0.0
  0
VERTEX
  5
11A
  8
CUT_LAST
 10
366.7748061322927
 20
1000.873816498283
 30
0.0
  0
SEQEND
  5
11B
  8
CUT_LAST
  0
POLYLINE
  5
43
  8
ENGRAVE
 66
     1
 10
0.0
 20
0.0
 30
0.0
  0
VERTEX
  5
11C
  8
ENGRAVE
 10
314.7747447263118
 20
1350.874229807628
 30
0.0
  0
VERTEX
  5
11D
  8
ENGRAVE
 10
384.7748273882034
 20
1350.874229807639
 30
0.0
  0
SEQEND
  5
11E
  8
ENGRAVE
  0
POLYLINE
  5
44
  8
ENGRAVE
 66
     1
 10
0.0
 20
0.0
 30
0.0
  0
VERTEX
  5
11F
  8
ENGRAVE
 10
314.7747447263189
 20
1364.007561492405
 30
0.0
  0
VERTEX
  5
120
  8
ENGRAVE
 10
346.972576726106
 20
1364.02580618975
 30
0.0
  0
SEQEND
  5
121
  8
ENGRAVE
  0
POLYLINE
  5
45
  8
ENGRAVE
 66
     1
 10
0.0
 20
0.0
 30
0.0
  0
VERTEX
  5
122
  8
ENGRAVE
 10
465.7749230398285
 20
1151.985003720435
 30
0.0
  0
VERTEX
  5
123
  8
ENGRAVE
 10
465.7749230398197
 20
1249.763101629743
 30
0.0
  0
SEQEND
  5
124
  8
ENGRAVE
  0
POLYLINE
  5
46
  8
ENGRAVE
 66
     1
 10
0.0
 20
0.0
 30
0.0
  0
VERTEX
  5
125
  8
ENGRAVE
 10
466.7749242207119
 20
1150.8739936309
 30
0.0
  0
VERTEX
  5
126
  8
ENGRAVE
 10
448.7732450069593
 20
1170.874017248575
 30
0.0
  0
VERTEX
  5
127
  8
ENGRAVE
 10
414.7732048568955
 20
1170.874017248574
 30
0.0
  0
VERTEX
  5
128
  8
ENGRAVE
 10
396.7748415588135
 20
1150.873993630891
 30
0.0
  0
SEQEND
  5
129
  8
ENGRAVE
  0
POLYLINE
  5
47
  8
ENGRAVE
 66
     1
 10
0.0
 20
0.0
 30
0.0
  0
VERTEX
  5
12A
  8
ENGRAVE
 10
396.7748415588135
 20
1250.874111719311
 30
0.0
  0
VERTEX
  5
12B
  8
ENGRAVE
 10
414.7732048568957
 20
1230.874088101621
 30
0.0
  0
VERTEX
  5
12C
  8
ENGRAVE
 10
448.7732450069593
 20
1230.874088101617
 30
0.0
  0
VERTEX
  5
12D
  8
ENGRAVE
 10
466.7749242207119
 20
1250.874111719283
 30
0.0
  0
SEQEND
  5
12E
  8
ENGRAVE
  0
POLYLINE
  5
48
  8
ENGRAVE
 66
     1
 10
0.0
 20
0.0
 30
0.0
  0
VERTEX
  5
12F
  8
ENGRAVE
 10
397.7748427396957
 20
1249.762896943579
 30
0.0
  0
VERTEX
  5
130
  8
ENGRAVE
 10
397.7748427396957
 20
1151.985208406611
 30
0.0
  0
SEQEND
  5
131
  8
ENGRAVE
  0
POLYLINE
  5
49
  8
ENGRAVE
 66
     1
 10
0.0
 20
0.0
 30
0.0
  0
VERTEX
  5
132
  8
ENGRAVE
 10
473.7749324869021
 20
1150.873993630845
 30
0.0
  0
VERTEX
  5
133
  8
ENGRAVE
 10
473.774932486893
 20
1250.874111719369
 30
0.0
  0
SEQEND
  5
134
  8
ENGRAVE
  0
POLYLINE
  5
4A
  8
ENGRAVE
 66
     1
 10
0.0
 20
0.0
 30
0.0
  0
VERTEX
  5
135
  8
ENGRAVE
 10
469.7749277633654
 20
1150.873993630862
 30
0.0
  0
VERTEX
  5
136
  8
ENGRAVE
 10
469.7749277633563
 20
1250.874111719357
 30
0.0
  0
SEQEND
  5
137
  8
ENGRAVE
  0
POLYLINE
  5
4B
  8
ENGRAVE
 66
     1
 10
0.0
 20
0.0
 30
0.0
  0
VERTEX
  5
138
  8
ENGRAVE
 10
461.7749183162925
 20
1156.429555746875
 30
0.0
  0
VERTEX
  5
139
  8
ENGRAVE
 10
461.7749183162825
 20
1245.31854960332
 30
0.0
  0
SEQEND
  5
13A
  8
ENGRAVE
  0
POLYLINE
  5
4C
  8
ENGRAVE
 66
     1
 10
0.0
 20
0.0
 30
0.0
  0
VERTEX
  5
13B
  8
ENGRAVE
 10
457.7749135927556
 20
1160.874005439695
 30
0.0
  0
VERTEX
  5
13C
  8
ENGRAVE
 10
457.7749135927465
 20
1240.87409991051
 30
0.0
  0
SEQEND
  5
13D
  8
ENGRAVE
  0
POLYLINE
  5
4D
  8
ENGRAVE
 66
     1
 10
0.0
 20
0.0
 30
0.0
  0
VERTEX
  5
13E
  8
ENGRAVE
 10
453.7749088692185
 20
1165.318455132509
 30
0.0
  0
VERTEX
  5
13F
  8
ENGRAVE
 10
453.7749088692103
 20
1236.429650217683
 30
0.0
  0
SEQEND
  5
140
  8
ENGRAVE
  0
POLYLINE
  5
4E
  8
ENGRAVE
 66
     1
 10
0.0
 20
0.0
 30
0.0
  0
VERTEX
  5
141
  8
ENGRAVE
 10
449.7749041456811
 20
1169.762904825347
 30
0.0
  0
VERTEX
  5
142
  8
ENGRAVE
 10
449.7749041456741
 20
1231.985200524867
 30
0.0
  0
SEQEND
  5
143
  8
ENGRAVE
  0
POLYLINE
  5
4F
  8
ENGRAVE
 66
     1
 10
0.0
 20
0.0
 30
0.0
  0
VERTEX
  5
144
  8
ENGRAVE
 10
445.7748994221445
 20
1170.87401724857
 30
0.0
  0
VERTEX
  5
145
  8
ENGRAVE
 10
445.7748994221377
 20
1230.874088101622
 30
0.0
  0
SEQEND
  5
146
  8
ENGRAVE
  0
POLYLINE
  5
50
  8
ENGRAVE
 66
     1
 10
0.0
 20
0.0
 30
0.0
  0
VERTEX
  5
147
  8
ENGRAVE
 10
441.7748946986078
 20
1170.87401724857
 30
0.0
  0
VERTEX
  5
148
  8
ENGRAVE
 10
441.774894698601
 20
1230.874088101622
 30
0.0
  0
SEQEND
  5
149
  8
ENGRAVE
  0
POLYLINE
  5
51
  8
ENGRAVE
 66
     1
 10
0.0
 20
0.0
 30
0.0
  0
VERTEX
  5
14A
  8
ENGRAVE
 10
437.7748899750711
 20
1170.874017248569
 30
0.0
  0
VERTEX
  5
14B
  8
ENGRAVE
 10
437.7748899750643
 20
1230.874088101622
 30
0.0
  0
SEQEND
  5
14C
  8
ENGRAVE
  0
POLYLINE
  5
52
  8
ENGRAVE
 66
     1
 10
0.0
 20
0.0
 30
0.0
  0
VERTEX
  5
14D
  8
ENGRAVE
 10
433.7748852515347
 20
1170.874017248568
 30
0.0
  0
VERTEX
  5
14E
  8
ENGRAVE
 10
433.7748852515278
 20
1230.874088101621
 30
0.0
  0
SEQEND
  5
14F
  8
ENGRAVE
  0
POLYLINE
  5
53
  8
ENGRAVE
 66
     1
 10
0.0
 20
0.0
 30
0.0
  0
VERTEX
  5
150
  8
ENGRAVE
 10
429.774880527998
 20
1170.874017248567
 30
0.0
  0
VERTEX
  5
151
  8
ENGRAVE
 10
429.7748805279912
 20
1230.874088101621
 30
0.0
  0
SEQEND
  5
152
  8
ENGRAVE
  0
POLYLINE
  5
54
  8
ENGRAVE
 66
     1
 10
0.0
 20
0.0
 30
0.0
  0
VERTEX
  5
153
  8
ENGRAVE
 10
425.7748758044613
 20
1170.874017248566
 30
0.0
  0
VERTEX
  5
154
  8
ENGRAVE
 10
425.7748758044545
 20
1230.874088101621
 30
0.0
  0
SEQEND
  5
155
  8
ENGRAVE
  0
POLYLINE
  5
55
  8
ENGRAVE
 66
     1
 10
0.0
 20
0.0
 30
0.0
  0
VERTEX
  5
156
  8
ENGRAVE
 10
393.774838016159
 20
1250.874111719303
 30
0.0
  0
VERTEX
  5
157
  8
ENGRAVE
 10
393.774838016159
 20
1150.873993630871
 30
0.0
  0
SEQEND
  5
158
  8
ENGRAVE
  0
POLYLINE
  5
56
  8
ENGRAVE
 66
     1
 10
0.0
 20
0.0
 30
0.0
  0
VERTEX
  5
159
  8
ENGRAVE
 10
421.7748710809246
 20
1170.874017248566
 30
0.0
  0
VERTEX
  5
15A
  8
ENGRAVE
 10
421.7748710809178
 20
1230.874088101621
 30
0.0
  0
SEQEND
  5
15B
  8
ENGRAVE
  0
POLYLINE
  5
57
  8
ENGRAVE
 66
     1
 10
0.0
 20
0.0
 30
0.0
  0
VERTEX
  5
15C
  8
ENGRAVE
 10
389.7748332926224
 20
1250.874111719303
 30
0.0
  0
VERTEX
  5
15D
  8
ENGRAVE
 10
389.7748332926224
 20
1150.87399363087
 30
0.0
  0
SEQEND
  5
15E
  8
ENGRAVE
  0
POLYLINE
  5
58
  8
ENGRAVE
 66
     1
 10
0.0
 20
0.0
 30
0.0
  0
VERTEX
  5
15F
  8
ENGRAVE
 10
417.774866357388
 20
1170.874017248565
 30
0.0
  0
VERTEX
  5
160
  8
ENGRAVE
 10
417.7748663573811
 20
1230.874088101621
 30
0.0
  0
SEQEND
  5
161
  8
ENGRAVE
  0
POLYLINE
  5
59
  8
ENGRAVE
 66
     1
 10
0.0
 20
0.0
 30
0.0
  0
VERTEX
  5
162
  8
ENGRAVE
 10
384.7748273882016
 20
1250.874111719314
 30
0.0
  0
VERTEX
  5
163
  8
ENGRAVE
 10
367.774807313185
 20
1231.985200524862
 30
0.0
  0
VERTEX
  5
164
  8
ENGRAVE
 10
367.774807313124
 20
1169.76290482542
 30
0.0
  0
VERTEX
  5
165
  8
ENGRAVE
 10
384.7748273882012
 20
1150.873993630887
 30
0.0
  0
SEQEND
  5
166
  8
ENGRAVE
  0
POLYLINE
  5
5A
  8
ENGRAVE
 66
     1
 10
0.0
 20
0.0
 30
0.0
  0
VERTEX
  5
167
  8
ENGRAVE
 10
413.7748616338513
 20
1169.762904825373
 30
0.0
  0
VERTEX
  5
168
  8
ENGRAVE
 10
413.7748616338442
 20
1231.985200524844
 30
0.0
  0
SEQEND
  5
169
  8
ENGRAVE
  0
POLYLINE
  5
5B
  8
ENGRAVE
 66
     1
 10
0.0
 20
0.0
 30
0.0
  0
VERTEX
  5
16A
  8
ENGRAVE
 10
409.7748569103155
 20
1165.318455132551
 30
0.0
  0
VERTEX
  5
16B
  8
ENGRAVE
 10
409.7748569103076
 20
1236.429650217661
 30
0.0
  0
SEQEND
  5
16C
  8
ENGRAVE
  0
POLYLINE
  5
5C
  8
ENGRAVE
 66
     1
 10
0.0
 20
0.0
 30
0.0
  0
VERTEX
  5
16D
  8
ENGRAVE
 10
405.7748521867793
 20
1160.874005439723
 30
0.0
  0
VERTEX
  5
16E
  8
ENGRAVE
 10
405.7748521867702
 20
1240.874099910486
 30
0.0
  0
SEQEND
  5
16F
  8
ENGRAVE
  0
POLYLINE
  5
5D
  8
ENGRAVE
 66
     1
 10
0.0
 20
0.0
 30
0.0
  0
VERTEX
  5
170
  8
ENGRAVE
 10
401.7748474632324
 20
1156.429555746881
 30
0.0
  0
VERTEX
  5
171
  8
ENGRAVE
 10
401.7748474632324
 20
1245.318549603303
 30
0.0
  0
SEQEND
  5
172
  8
ENGRAVE
  0
POLYLINE
  5
5E
  8
ENGRAVE
 66
     1
 10
0.0
 20
0.0
 30
0.0
  0
VERTEX
  5
173
  8
ENGRAVE
 10
379.774821483798
 20
1156.429555746875
 30
0.0
  0
VERTEX
  5
174
  8
ENGRAVE
 10
379.7748214837879
 20
1245.31854960332
 30
0.0
  0
SEQEND
  5
175
  8
ENGRAVE
  0
POLYLINE
  5
5F
  8
ENGRAVE
 66
     1
 10
0.0
 20
0.0
 30
0.0
  0
VERTEX
  5
176
  8
ENGRAVE
 10
375.7748167602608
 20
1160.874005439695
 30
0.0
  0
VERTEX
  5
177
  8
ENGRAVE
 10
375.7748167602517
 20
1240.87409991051
 30
0.0
  0
SEQEND
  5
178
  8
ENGRAVE
  0
POLYLINE
  5
60
  8
ENGRAVE
 66
     1
 10
0.0
 20
0.0
 30
0.0
  0
VERTEX
  5
179
  8
ENGRAVE
 10
371.7748120367237
 20
1165.318455132509
 30
0.0
  0
VERTEX
  5
17A
  8
ENGRAVE
 10
371.7748120367155
 20
1236.429650217683
 30
0.0
  0
SEQEND
  5
17B
  8
ENGRAVE
  0
POLYLINE
  5
61
  8
ENGRAVE
 66
     1
 10
0.0
 20
0.0
 30
0.0
  0
VERTEX
  5
17C
  8
ENGRAVE
 10
314.7747447263123
 20
1250.874111719314
 30
0.0
  0
VERTEX
  5
17D
  8
ENGRAVE
 10
331.7747648013876
 20
1231.985200524794
 30
0.0
  0
VERTEX
  5
17E
  8
ENGRAVE
 10
331.7747648013558
 20
1169.762904825374
 30
0.0
  0
VERTEX
  5
17F
  8
ENGRAVE
 10
314.7747447263353
 20
1150.873993630863
 30
0.0
  0
SEQEND
  5
180
  8
ENGRAVE
  0
POLYLINE
  5
62
  8
ENGRAVE
 66
     1
 10
0.0
 20
0.0
 30
0.0
  0
VERTEX
  5
181
  8
ENGRAVE
 10
327.7747600778207
 20
1165.318455132551
 30
0.0
  0
VERTEX
  5
182
  8
ENGRAVE
 10
327.7747600778127
 20
1236.429650217661
 30
0.0
  0
SEQEND
  5
183
  8
ENGRAVE
  0
POLYLINE
  5
63
  8
ENGRAVE
 66
     1
 10
0.0
 20
0.0
 30
0.0
  0
VERTEX
  5
184
  8
ENGRAVE
 10
323.7747553542845
 20
1160.874005439723
 30
0.0
  0
VERTEX
  5
185
  8
ENGRAVE
 10
323.7747553542754
 20
1240.874099910486
 30
0.0
  0
SEQEND
  5
186
  8
ENGRAVE
  0
POLYLINE
  5
64
  8
ENGRAVE
 66
     1
 10
0.0
 20
0.0
 30
0.0
  0
VERTEX
  5
187
  8
ENGRAVE
 10
319.7747506307376
 20
1156.429555746881
 30
0.0
  0
VERTEX
  5
188
  8
ENGRAVE
 10
319.7747506307376
 20
1245.318549603303
 30
0.0
  0
SEQEND
  5
189
  8
ENGRAVE
  0
POLYLINE
  5
65
  8
ENGRAVE
 66
     1
 10
0.0
 20
0.0
 30
0.0
  0
VERTEX
  5
18A
  8
ENGRAVE
 10
314.7747447263123
 20
1050.873875542484
 30
0.0
  0
VERTEX
  5
18B
  8
ENGRAVE
 10
384.7748273882012
 20
1050.873875542494
 30
0.0
  0
SEQEND
  5
18C
  8
ENGRAVE
  0
POLYLINE
  5
66
  8
ENGRAVE
 66
     1
 10
0.0
 20
0.0
 30
0.0
  0
VERTEX
  5
18D
  8
ENGRAVE
 10
329.7747506307376
 20
1234.207438492181
 30
0.0
  0
VERTEX
  5
18E
  8
ENGRAVE
 10
329.7747506307376
 20
1167.540666858014
 30
0.0
  0
SEQEND
  5
18F
  8
ENGRAVE
  0
POLYLINE
  5
67
  8
ENGRAVE
 66
     1
 10
0.0
 20
0.0
 30
0.0
  0
VERTEX
  5
190
  8
ENGRAVE
 10
325.7747506307376
 20
1238.651882936624
 30
0.0
  0
VERTEX
  5
191
  8
ENGRAVE
 10
325.7747506307376
 20
1163.09622241356
 30
0.0
  0
SEQEND
  5
192
  8
ENGRAVE
  0
POLYLINE
  5
68
  8
ENGRAVE
 66
     1
 10
0.0
 20
0.0
 30
0.0
  0
VERTEX
  5
193
  8
ENGRAVE
 10
321.7747506307376
 20
1243.096327381066
 30
0.0
  0
VERTEX
  5
194
  8
ENGRAVE
 10
321.7747506307376
 20
1158.651777969105
 30
0.0
  0
SEQEND
  5
195
  8
ENGRAVE
  0
POLYLINE
  5
69
  8
ENGRAVE
 66
     1
 10
0.0
 20
0.0
 30
0.0
  0
VERTEX
  5
196
  8
ENGRAVE
 10
317.7747506307376
 20
1247.540771825509
 30
0.0
  0
VERTEX
  5
197
  8
ENGRAVE
 10
317.7747506307376
 20
1154.207333524651
 30
0.0
  0
SEQEND
  5
198
  8
ENGRAVE
  0
POLYLINE
  5
6A
  8
ENGRAVE
 66
     1
 10
0.0
 20
0.0
 30
0.0
  0
VERTEX
  5
199
  8
ENGRAVE
 10
331.7749867273014
 20
1200.385211520258
 30
0.0
  0
VERTEX
  5
19A
  8
ENGRAVE
 10
342.1864037591695
 20
1189.973794488378
 30
0.0
  0
VERTEX
  5
19B
  8
ENGRAVE
 10
357.363179687889
 20
1189.97379448837
 30
0.0
  0
VERTEX
  5
19C
  8
ENGRAVE
 10
367.77459671978
 20
1200.385211520267
 30
0.0
  0
SEQEND
  5
19D
  8
ENGRAVE
  0
POLYLINE
  5
6B
  8
ENGRAVE
 66
     1
 10
0.0
 20
0.0
 30
0.0
  0
VERTEX
  5
19E
  8
ENGRAVE
 10
369.7748120367169
 20
1234.207427995454
 30
0.0
  0
VERTEX
  5
19F
  8
ENGRAVE
 10
369.7748120367222
 20
1167.540677354755
 30
0.0
  0
SEQEND
  5
1A0
  8
ENGRAVE
  0
POLYLINE
  5
6C
  8
ENGRAVE
 66
     1
 10
0.0
 20
0.0
 30
0.0
  0
VERTEX
  5
1A1
  8
ENGRAVE
 10
373.7748120367166
 20
1238.651872439895
 30
0.0
  0
VERTEX
  5
1A2
  8
ENGRAVE
 10
373.7748120367226
 20
1163.096232910309
 30
0.0
  0
SEQEND
  5
1A3
  8
ENGRAVE
  0
POLYLINE
  5
6D
  8
ENGRAVE
 66
     1
 10
0.0
 20
0.0
 30
0.0
  0
VERTEX
  5
1A4
  8
ENGRAVE
 10
377.7748120367162
 20
1243.096316884337
 30
0.0
  0
VERTEX
  5
1A5
  8
ENGRAVE
 10
377.7748120367229
 20
1158.651788465863
 30
0.0
  0
SEQEND
  5
1A6
  8
ENGRAVE
  0
POLYLINE
  5
6E
  8
ENGRAVE
 66
     1
 10
0.0
 20
0.0
 30
0.0
  0
VERTEX
  5
1A7
  8
ENGRAVE
 10
381.7748120367159
 20
1247.540761328779
 30
0.0
  0
VERTEX
  5
1A8
  8
ENGRAVE
 10
381.7748120367233
 20
1154.207344021418
 30
0.0
  0
SEQEND
  5
1A9
  8
ENGRAVE
  0
POLYLINE
  5
6F
  8
ENGRAVE
 66
     1
 10
0.0
 20
0.0
 30
0.0
  0
VERTEX
  5
1AA
  8
ENGRAVE
 10
475.7749324869021
 20
1150.873993630845
 30
0.0
  0
VERTEX
  5
1AB
  8
ENGRAVE
 10
475.774932486893
 20
1250.87411171937
 30
0.0
  0
SEQEND
  5
1AC
  8
ENGRAVE
  0
POLYLINE
  5
70
  8
ENGRAVE
 66
     1
 10
0.0
 20
0.0
 30
0.0
  0
VERTEX
  5
1AD
  8
ENGRAVE
 10
471.7749277633654
 20
1150.873993630862
 30
0.0
  0
VERTEX
  5
1AE
  8
ENGRAVE
 10
471.7749277633563
 20
1250.874111719357
 30
0.0
  0
SEQEND
  5
1AF
  8
ENGRAVE
  0
POLYLINE
  5
71
  8
ENGRAVE
 66
     1
 10
0.0
 20
0.0
 30
0.0
  0
VERTEX
  5
1B0
  8
ENGRAVE
 10
447.7748994221445
 20
1170.87401724857
 30
0.0
  0
VERTEX
  5
1B1
  8
ENGRAVE
 10
447.7748994221377
 20
1230.874088101622
 30
0.0
  0
SEQEND
  5
1B2
  8
ENGRAVE
  0
POLYLINE
  5
72
  8
ENGRAVE
 66
     1
 10
0.0
 20
0.0
 30
0.0
  0
VERTEX
  5
1B3
  8
ENGRAVE
 10
443.7748946986078
 20
1170.87401724857
 30
0.0
  0
VERTEX
  5
1B4
  8
ENGRAVE
 10
443.774894698601
 20
1230.874088101622
 30
0.0
  0
SEQEND
  5
1B5
  8
ENGRAVE
  0
POLYLINE
  5
73
  8
ENGRAVE
 66
     1
 10
0.0
 20
0.0
 30
0.0
  0
VERTEX
  5
1B6
  8
ENGRAVE
 10
439.7748899750711
 20
1170.874017248569
 30
0.0
  0
VERTEX
  5
1B7
  8
ENGRAVE
 10
439.7748899750643
 20
1230.874088101622
 30
0.0
  0
SEQEND
  5
1B8
  8
ENGRAVE
  0
POLYLINE
  5
74
  8
ENGRAVE
 66
     1
 10
0.0
 20
0.0
 30
0.0
  0
VERTEX
  5
1B9
  8
ENGRAVE
 10
435.7748852515347
 20
1170.874017248568
 30
0.0
  0
VERTEX
  5
1BA
  8
ENGRAVE
 10
435.7748852515278
 20
1230.874088101621
 30
0.0
  0
SEQEND
  5
1BB
  8
ENGRAVE
  0
POLYLINE
  5
75
  8
ENGRAVE
 66
     1
 10
0.0
 20
0.0
 30
0.0
  0
VERTEX
  5
1BC
  8
ENGRAVE
 10
431.774880527998
 20
1170.874017248567
 30
0.0
  0
VERTEX
  5
1BD
  8
ENGRAVE
 10
431.7748805279912
 20
1230.874088101621
 30
0.0
  0
SEQEND
  5
1BE
  8
ENGRAVE
  0
POLYLINE
  5
76
  8
ENGRAVE
 66
     1
 10
0.0
 20
0.0
 30
0.0
  0
VERTEX
  5
1BF
  8
ENGRAVE
 10
427.7748758044613
 20
1170.874017248567
 30
0.0
  0
VERTEX
  5
1C0
  8
ENGRAVE
 10
427.7748758044545
 20
1230.874088101621
 30
0.0
  0
SEQEND
  5
1C1
  8
ENGRAVE
  0
POLYLINE
  5
77
  8
ENGRAVE
 66
     1
 10
0.0
 20
0.0
 30
0.0
  0
VERTEX
  5
1C2
  8
ENGRAVE
 10
423.7748710809246
 20
1170.874017248566
 30
0.0
  0
VERTEX
  5
1C3
  8
ENGRAVE
 10
423.7748710809178
 20
1230.874088101621
 30
0.0
  0
SEQEND
  5
1C4
  8
ENGRAVE
  0
POLYLINE
  5
78
  8
ENGRAVE
 66
     1
 10
0.0
 20
0.0
 30
0.0
  0
VERTEX
  5
1C5
  8
ENGRAVE
 10
387.7748332926224
 20
1250.874111719303
 30
0.0
  0
VERTEX
  5
1C6
  8
ENGRAVE
 10
387.7748332926224
 20
1150.87399363087
 30
0.0
  0
SEQEND
  5
1C7
  8
ENGRAVE
  0
POLYLINE
  5
79
  8
ENGRAVE
 66
     1
 10
0.0
 20
0.0
 30
0.0
  0
VERTEX
  5
1C8
  8
ENGRAVE
 10
419.774866357388
 20
1170.874017248565
 30
0.0
  0
VERTEX
  5
1C9
  8
ENGRAVE
 10
419.7748663573811
 20
1230.874088101621
 30
0.0
  0
SEQEND
  5
1CA
  8
ENGRAVE
  0
POLYLINE
  5
7A
  8
ENGRAVE
 66
     1
 10
0.0
 20
0.0
 30
0.0
  0
VERTEX
  5
1CB
  8
ENGRAVE
 10
391.774838016159
 20
1250.874111719303
 30
0.0
  0
VERTEX
  5
1CC
  8
ENGRAVE
 10
391.774838016159
 20
1150.873993630871
 30
0.0
  0
SEQEND
  5
1CD
  8
ENGRAVE
  0
POLYLINE
  5
7B
  8
ENGRAVE
 66
     1
 10
0.0
 20
0.0
 30
0.0
  0
VERTEX
  5
1CE
  8
ENGRAVE
 10
415.7748616338444
 20
1230.874088101619
 30
0.0
  0
VERTEX
  5
1CF
  8
ENGRAVE
 10
415.7748616338512
 20
1170.874017248574
 30
0.0
  0
SEQEND
  5
1D0
  8
ENGRAVE
  0
POLYLINE
  5
7C
  8
ENGRAVE
 66
     1
 10
0.0
 20
0.0
 30
0.0
  0
VERTEX
  5
1D1
  8
ENGRAVE
 10
411.7748569103078
 20
1234.205892708109
 30
0.0
  0
VERTEX
  5
1D2
  8
ENGRAVE
 10
411.7748569103153
 20
1167.542212642094
 30
0.0
  0
SEQEND
  5
1D3
  8
ENGRAVE
  0
POLYLINE
  5
7D
  8
ENGRAVE
 66
     1
 10
0.0
 20
0.0
 30
0.0
  0
VERTEX
  5
1D4
  8
ENGRAVE
 10
407.7748521867704
 20
1238.650751810945
 30
0.0
  0
VERTEX
  5
1D5
  8
ENGRAVE
 10
407.774852186779
 20
1163.097353539261
 30
0.0
  0
SEQEND
  5
1D6
  8
ENGRAVE
  0
POLYLINE
  5
7E
  8
ENGRAVE
 66
     1
 10
0.0
 20
0.0
 30
0.0
  0
VERTEX
  5
1D7
  8
ENGRAVE
 10
403.7748474632324
 20
1243.095610913781
 30
0.0
  0
VERTEX
  5
1D8
  8
ENGRAVE
 10
403.7748474632324
 20
1158.652494436418
 30
0.0
  0
SEQEND
  5
1D9
  8
ENGRAVE
  0
POLYLINE
  5
7F
  8
ENGRAVE
 66
     1
 10
0.0
 20
0.0
 30
0.0
  0
VERTEX
  5
1DA
  8
ENGRAVE
 10
399.7748427396957
 20
1247.540470016615
 30
0.0
  0
VERTEX
  5
1DB
  8
ENGRAVE
 10
399.7748427396957
 20
1154.207635333585
 30
0.0
  0
SEQEND
  5
1DC
  8
ENGRAVE
  0
POLYLINE
  5
80
  8
ENGRAVE
 66
     1
 10
0.0
 20
0.0
 30
0.0
  0
VERTEX
  5
1DD
  8
ENGRAVE
 10
395.7748427396957
 20
1250.874111719309
 30
0.0
  0
VERTEX
  5
1DE
  8
ENGRAVE
 10
395.7748427396957
 20
1150.873993630891
 30
0.0
  0
SEQEND
  5
1DF
  8
ENGRAVE
  0
POLYLINE
  5
81
  8
ENGRAVE
 66
     1
 10
0.0
 20
0.0
 30
0.0
  0
VERTEX
  5
1E0
  8
ENGRAVE
 10
451.7749041456742
 20
1234.208957752038
 30
0.0
  0
VERTEX
  5
1E1
  8
ENGRAVE
 10
451.7749041456807
 20
1167.539147598148
 30
0.0
  0
SEQEND
  5
1E2
  8
ENGRAVE
  0
POLYLINE
  5
82
  8
ENGRAVE
 66
     1
 10
0.0
 20
0.0
 30
0.0
  0
VERTEX
  5
1E3
  8
ENGRAVE
 10
455.7749088692105
 20
1238.65299811025
 30
0.0
  0
VERTEX
  5
1E4
  8
ENGRAVE
 10
455.774908869218
 20
1163.095107239932
 30
0.0
  0
SEQEND
  5
1E5
  8
ENGRAVE
  0
POLYLINE
  5
83
  8
ENGRAVE
 66
     1
 10
0.0
 20
0.0
 30
0.0
  0
VERTEX
  5
1E6
  8
ENGRAVE
 10
459.7749135927468
 20
1243.097038468461
 30
0.0
  0
VERTEX
  5
1E7
  8
ENGRAVE
 10
459.7749135927551
 20
1158.651066881718
 30
0.0
  0
SEQEND
  5
1E8
  8
ENGRAVE
  0
POLYLINE
  5
84
  8
ENGRAVE
 66
     1
 10
0.0
 20
0.0
 30
0.0
  0
VERTEX
  5
1E9
  8
ENGRAVE
 10
463.7749183162829
 20
1247.541078826673
 30
0.0
  0
VERTEX
  5
1EA
  8
ENGRAVE
 10
463.7749183162919
 20
1154.207026523504
 30
0.0
  0
SEQEND
  5
1EB
  8
ENGRAVE
  0
POLYLINE
  5
85
  8
ENGRAVE
 66
     1
 10
0.0
 20
0.0
 30
0.0
  0
VERTEX
  5
1EC
  8
ENGRAVE
 10
467.7749230398201
 20
1250.874111719279
 30
0.0
  0
VERTEX
  5
1ED
  8
ENGRAVE
 10
467.7749230398279
 20
1150.873993630894
 30
0.0
  0
SEQEND
  5
1EE
  8
ENGRAVE
  0
POLYLINE
  5
86
  8
ENGRAVE
 66
     1
 10
0.0
 20
0.0
 30
0.0
  0
VERTEX
  5
1EF
  8
ENGRAVE
 10
548.7750151487915
 20
1250.874111719314
 30
0.0
  0
VERTEX
  5
1F0
  8
ENGRAVE
 10
531.7749950737748
 20
1231.985200524862
 30
0.0
  0
VERTEX
  5
1F1
  8
ENGRAVE
 10
531.7749950737139
 20
1169.76290482542
 30
0.0
  0
VERTEX
  5
1F2
  8
ENGRAVE
 10
548.775015148791
 20
1150.873993630887
 30
0.0
  0
SEQEND
  5
1F3
  8
ENGRAVE
  0
POLYLINE
  5
87
  8
ENGRAVE
 66
     1
 10
0.0
 20
0.0
 30
0.0
  0
VERTEX
  5
1F4
  8
ENGRAVE
 10
543.7750092443878
 20
1156.429555746875
 30
0.0
  0
VERTEX
  5
1F5
  8
ENGRAVE
 10
543.7750092443778
 20
1245.31854960332
 30
0.0
  0
SEQEND
  5
1F6
  8
ENGRAVE
  0
POLYLINE
  5
88
  8
ENGRAVE
 66
     1
 10
0.0
 20
0.0
 30
0.0
  0
VERTEX
  5
1F7
  8
ENGRAVE
 10
539.7750045208506
 20
1160.874005439695
 30
0.0
  0
VERTEX
  5
1F8
  8
ENGRAVE
 10
539.7750045208415
 20
1240.87409991051
 30
0.0
  0
SEQEND
  5
1F9
  8
ENGRAVE
  0
POLYLINE
  5
89
  8
ENGRAVE
 66
     1
 10
0.0
 20
0.0
 30
0.0
  0
VERTEX
  5
1FA
  8
ENGRAVE
 10
535.7749997973135
 20
1165.318455132509
 30
0.0
  0
VERTEX
  5
1FB
  8
ENGRAVE
 10
535.7749997973053
 20
1236.429650217683
 30
0.0
  0
SEQEND
  5
1FC
  8
ENGRAVE
  0
POLYLINE
  5
8A
  8
ENGRAVE
 66
     1
 10
0.0
 20
0.0
 30
0.0
  0
VERTEX
  5
1FD
  8
ENGRAVE
 10
478.7749324869021
 20
1250.874111719314
 30
0.0
  0
VERTEX
  5
1FE
  8
ENGRAVE
 10
495.7749525619774
 20
1231.985200524794
 30
0.0
  0
VERTEX
  5
1FF
  8
ENGRAVE
 10
495.7749525619456
 20
1169.762904825374
 30
0.0
  0
VERTEX
  5
200
  8
ENGRAVE
 10
478.7749324869251
 20
1150.873993630863
 30
0.0
  0
SEQEND
  5
201
  8
ENGRAVE
  0
POLYLINE
  5
8B
  8
ENGRAVE
 66
     1
 10
0.0
 20
0.0
 30
0.0
  0
VERTEX
  5
202
  8
ENGRAVE
 10
491.7749478384105
 20
1165.318455132551
 30
0.0
  0
VERTEX
  5
203
  8
ENGRAVE
 10
491.7749478384026
 20
1236.429650217661
 30
0.0
  0
SEQEND
  5
204
  8
ENGRAVE
  0
POLYLINE
  5
8C
  8
ENGRAVE
 66
     1
 10
0.0
 20
0.0
 30
0.0
  0
VERTEX
  5
205
  8
ENGRAVE
 10
487.7749431148743
 20
1160.874005439723
 30
0.0
  0
VERTEX
  5
206
  8
ENGRAVE
 10
487.7749431148652
 20
1240.874099910486
 30
0.0
  0
SEQEND
  5
207
  8
ENGRAVE
  0
POLYLINE
  5
8D
  8
ENGRAVE
 66
     1
 10
0.0
 20
0.0
 30
0.0
  0
VERTEX
  5
208
  8
ENGRAVE
 10
483.7749383913274
 20
1156.429555746881
 30
0.0
  0
VERTEX
  5
209
  8
ENGRAVE
 10
483.7749383913274
 20
1245.318549603303
 30
0.0
  0
SEQEND
  5
20A
  8
ENGRAVE
  0
POLYLINE
  5
8E
  8
ENGRAVE
 66
     1
 10
0.0
 20
0.0
 30
0.0
  0
VERTEX
  5
20B
  8
ENGRAVE
 10
493.7749383913274
 20
1234.207438492181
 30
0.0
  0
VERTEX
  5
20C
  8
ENGRAVE
 10
493.7749383913274
 20
1167.540666858014
 30
0.0
  0
SEQEND
  5
20D
  8
ENGRAVE
  0
POLYLINE
  5
8F
  8
ENGRAVE
 66
     1
 10
0.0
 20
0.0
 30
0.0
  0
VERTEX
  5
20E
  8
ENGRAVE
 10
489.7749383913274
 20
1238.651882936624
 30
0.0
  0
VERTEX
  5
20F
  8
ENGRAVE
 10
489.7749383913274
 20
1163.09622241356
 30
0.0
  0
SEQEND
  5
210
  8
ENGRAVE
  0
POLYLINE
  5
90
  8
ENGRAVE
 66
     1
 10
0.0
 20
0.0
 30
0.0
  0
VERTEX
  5
211
  8
ENGRAVE
 10
485.7749383913274
 20
1243.096327381066
 30
0.0
  0
VERTEX
  5
212
  8
ENGRAVE
 10
485.7749383913274
 20
1158.651777969105
 30
0.0
  0
SEQEND
  5
213
  8
ENGRAVE
  0
POLYLINE
  5
91
  8
ENGRAVE
 66
     1
 10
0.0
 20
0.0
 30
0.0
  0
VERTEX
  5
214
  8
ENGRAVE
 10
481.7749383913274
 20
1247.540771825509
 30
0.0
  0
VERTEX
  5
215
  8
ENGRAVE
 10
481.7749383913274
 20
1154.207333524651
 30
0.0
  0
SEQEND
  5
216
  8
ENGRAVE
  0
POLYLINE
  5
92
  8
ENGRAVE
 66
     1
 10
0.0
 20
0.0
 30
0.0
  0
VERTEX
  5
217
  8
ENGRAVE
 10
533.7749997973067
 20
1234.207427995454
 30
0.0
  0
VERTEX
  5
218
  8
ENGRAVE
 10
533.774999797312
 20
1167.540677354755
 30
0.0
  0
SEQEND
  5
219
  8
ENGRAVE
  0
POLYLINE
  5
93
  8
ENGRAVE
 66
     1
 10
0.0
 20
0.0
 30
0.0
  0
VERTEX
  5
21A
  8
ENGRAVE
 10
537.7749997973065
 20
1238.651872439895
 30
0.0
  0
VERTEX
  5
21B
  8
ENGRAVE
 10
537.7749997973124
 20
1163.096232910309
 30
0.0
  0
SEQEND
  5
21C
  8
ENGRAVE
  0
POLYLINE
  5
94
  8
ENGRAVE
 66
     1
 10
0.0
 20
0.0
 30
0.0
  0
VERTEX
  5
21D
  8
ENGRAVE
 10
541.774999797306
 20
1243.096316884337
 30
0.0
  0
VERTEX
  5
21E
  8
ENGRAVE
 10
541.7749997973128
 20
1158.651788465863
 30
0.0
  0
SEQEND
  5
21F
  8
ENGRAVE
  0
POLYLINE
  5
95
  8
ENGRAVE
 66
     1
 10
0.0
 20
0.0
 30
0.0
  0
VERTEX
  5
220
  8
ENGRAVE
 10
545.7749997973058
 20
1247.540761328779
 30
0.0
  0
VERTEX
  5
221
  8
ENGRAVE
 10
545.7749997973131
 20
1154.207344021418
 30
0.0
  0
SEQEND
  5
222
  8
ENGRAVE
  0
POLYLINE
  5
96
  8
ENGRAVE
 66
     1
 10
0.0
 20
0.0
 30
0.0
  0
VERTEX
  5
223
  8
ENGRAVE
 10
495.7751744878913
 20
1200.385211520258
 30
0.0
  0
VERTEX
  5
224
  8
ENGRAVE
 10
506.1865915197593
 20
1189.973794488378
 30
0.0
  0
VERTEX
  5
225
  8
ENGRAVE
 10
521.3633674484788
 20
1189.97379448837
 30
0.0
  0
VERTEX
  5
226
  8
ENGRAVE
 10
531.7747844803698
 20
1200.385211520267
 30
0.0
  0
SEQEND
  5
227
  8
ENGRAVE
  0
POLYLINE
  5
97
  8
ENGRAVE
 66
     1
 10
0.0
 20
0.0
 30
0.0
  0
VERTEX
  5
228
  8
ENGRAVE
 10
629.7751108004184
 20
1151.985003720435
 30
0.0
  0
VERTEX
  5
229
  8
ENGRAVE
 10
629.7751108004095
 20
1249.763101629743
 30
0.0
  0
SEQEND
  5
22A
  8
ENGRAVE
  0
POLYLINE
  5
98
  8
ENGRAVE
 66
     1
 10
0.0
 20
0.0
 30
0.0
  0
VERTEX
  5
22B
  8
ENGRAVE
 10
561.7750305002855
 20
1249.762896943579
 30
0.0
  0
VERTEX
  5
22C
  8
ENGRAVE
 10
561.7750305002855
 20
1151.985208406611
 30
0.0
  0
SEQEND
  5
22D
  8
ENGRAVE
  0
POLYLINE
  5
99
  8
ENGRAVE
 66
     1
 10
0.0
 20
0.0
 30
0.0
  0
VERTEX
  5
22E
  8
ENGRAVE
 10
637.7751202474919
 20
1150.873993630845
 30
0.0
  0
VERTEX
  5
22F
  8
ENGRAVE
 10
637.7751202474828
 20
1250.874111719369
 30
0.0
  0
SEQEND
  5
230
  8
ENGRAVE
  0
POLYLINE
  5
9A
  8
ENGRAVE
 66
     1
 10
0.0
 20
0.0
 30
0.0
  0
VERTEX
  5
231
  8
ENGRAVE
 10
633.7751155239553
 20
1150.873993630862
 30
0.0
  0
VERTEX
  5
232
  8
ENGRAVE
 10
633.7751155239462
 20
1250.874111719357
 30
0.0
  0
SEQEND
  5
233
  8
ENGRAVE
  0
POLYLINE
  5
9B
  8
ENGRAVE
 66
     1
 10
0.0
 20
0.0
 30
0.0
  0
VERTEX
  5
234
  8
ENGRAVE
 10
625.7751060768824
 20
1156.429555746875
 30
0.0
  0
VERTEX
  5
235
  8
ENGRAVE
 10
625.7751060768724
 20
1245.31854960332
 30
0.0
  0
SEQEND
  5
236
  8
ENGRAVE
  0
POLYLINE
  5
9C
  8
ENGRAVE
 66
     1
 10
0.0
 20
0.0
 30
0.0
  0
VERTEX
  5
237
  8
ENGRAVE
 10
621.7751013533455
 20
1160.874005439695
 30
0.0
  0
VERTEX
  5
238
  8
ENGRAVE
 10
621.7751013533364
 20
1240.87409991051
 30
0.0
  0
SEQEND
  5
239
  8
ENGRAVE
  0
POLYLINE
  5
9D
  8
ENGRAVE
 66
     1
 10
0.0
 20
0.0
 30
0.0
  0
VERTEX
  5
23A
  8
ENGRAVE
 10
617.7750966298083
 20
1165.318455132509
 30
0.0
  0
VERTEX
  5
23B
  8
ENGRAVE
 10
617.7750966298001
 20
1236.429650217683
 30
0.0
  0
SEQEND
  5
23C
  8
ENGRAVE
  0
POLYLINE
  5
9E
  8
ENGRAVE
 66
     1
 10
0.0
 20
0.0
 30
0.0
  0
VERTEX
  5
23D
  8
ENGRAVE
 10
613.775091906271
 20
1169.762904825347
 30
0.0
  0
VERTEX
  5
23E
  8
ENGRAVE
 10
613.7750919062639
 20
1231.985200524867
 30
0.0
  0
SEQEND
  5
23F
  8
ENGRAVE
  0
POLYLINE
  5
9F
  8
ENGRAVE
 66
     1
 10
0.0
 20
0.0
 30
0.0
  0
VERTEX
  5
240
  8
ENGRAVE
 10
609.7750871827343
 20
1170.87401724857
 30
0.0
  0
VERTEX
  5
241
  8
ENGRAVE
 10
609.7750871827275
 20
1230.874088101622
 30
0.0
  0
SEQEND
  5
242
  8
ENGRAVE
  0
POLYLINE
  5
A0
  8
ENGRAVE
 66
     1
 10
0.0
 20
0.0
 30
0.0
  0
VERTEX
  5
243
  8
ENGRAVE
 10
605.7750824591976
 20
1170.87401724857
 30
0.0
  0
VERTEX
  5
244
  8
ENGRAVE
 10
605.7750824591908
 20
1230.874088101622
 30
0.0
  0
SEQEND
  5
245
  8
ENGRAVE
  0
POLYLINE
  5
A1
  8
ENGRAVE
 66
     1
 10
0.0
 20
0.0
 30
0.0
  0
VERTEX
  5
246
  8
ENGRAVE
 10
601.775077735661
 20
1170.874017248569
 30
0.0
  0
VERTEX
  5
247
  8
ENGRAVE
 10
601.7750777356541
 20
1230.874088101622
 30
0.0
  0
SEQEND
  5
248
  8
ENGRAVE
  0
POLYLINE
  5
A2
  8
ENGRAVE
 66
     1
 10
0.0
 20
0.0
 30
0.0
  0
VERTEX
  5
249
  8
ENGRAVE
 10
597.7750730121245
 20
1170.874017248568
 30
0.0
  0
VERTEX
  5
24A
  8
ENGRAVE
 10
597.7750730121177
 20
1230.874088101621
 30
0.0
  0
SEQEND
  5
24B
  8
ENGRAVE
  0
POLYLINE
  5
A3
  8
ENGRAVE
 66
     1
 10
0.0
 20
0.0
 30
0.0
  0
VERTEX
  5
24C
  8
ENGRAVE
 10
593.7750682885878
 20
1170.874017248567
 30
0.0
  0
VERTEX
  5
24D
  8
ENGRAVE
 10
593.775068288581
 20
1230.874088101621
 30
0.0
  0
SEQEND
  5
24E
  8
ENGRAVE
  0
POLYLINE
  5
A4
  8
ENGRAVE
 66
     1
 10
0.0
 20
0.0
 30
0.0
  0
VERTEX
  5
24F
  8
ENGRAVE
 10
557.7750257767489
 20
1250.874111719303
 30
0.0
  0
VERTEX
  5
250
  8
ENGRAVE
 10
557.7750257767489
 20
1150.873993630871
 30
0.0
  0
SEQEND
  5
251
  8
ENGRAVE
  0
POLYLINE
  5
A5
  8
ENGRAVE
 66
     1
 10
0.0
 20
0.0
 30
0.0
  0
VERTEX
  5
252
  8
ENGRAVE
 10
585.7750588415145
 20
1170.874017248566
 30
0.0
  0
VERTEX
  5
253
  8
ENGRAVE
 10
585.7750588415076
 20
1230.874088101621
 30
0.0
  0
SEQEND
  5
254
  8
ENGRAVE
  0
POLYLINE
  5
A6
  8
ENGRAVE
 66
     1
 10
0.0
 20
0.0
 30
0.0
  0
VERTEX
  5
255
  8
ENGRAVE
 10
553.7750210532122
 20
1250.874111719303
 30
0.0
  0
VERTEX
  5
256
  8
ENGRAVE
 10
553.7750210532122
 20
1150.87399363087
 30
0.0
  0
SEQEND
  5
257
  8
ENGRAVE
  0
POLYLINE
  5
A7
  8
ENGRAVE
 66
     1
 10
0.0
 20
0.0
 30
0.0
  0
VERTEX
  5
258
  8
ENGRAVE
 10
581.7750541179778
 20
1170.874017248565
 30
0.0
  0
VERTEX
  5
259
  8
ENGRAVE
 10
581.775054117971
 20
1230.874088101621
 30
0.0
  0
SEQEND
  5
25A
  8
ENGRAVE
  0
POLYLINE
  5
A8
  8
ENGRAVE
 66
     1
 10
0.0
 20
0.0
 30
0.0
  0
VERTEX
  5
25B
  8
ENGRAVE
 10
577.7750493944411
 20
1169.762904825373
 30
0.0
  0
VERTEX
  5
25C
  8
ENGRAVE
 10
577.7750493944341
 20
1231.985200524844
 30
0.0
  0
SEQEND
  5
25D
  8
ENGRAVE
  0
POLYLINE
  5
A9
  8
ENGRAVE
 66
     1
 10
0.0
 20
0.0
 30
0.0
  0
VERTEX
  5
25E
  8
ENGRAVE
 10
573.7750446709053
 20
1165.318455132551
 30
0.0
  0
VERTEX
  5
25F
  8
ENGRAVE
 10
573.7750446708974
 20
1236.429650217661
 30
0.0
  0
SEQEND
  5
260
  8
ENGRAVE
  0
POLYLINE
  5
AA
  8
ENGRAVE
 66
     1
 10
0.0
 20
0.0
 30
0.0
  0
VERTEX
  5
261
  8
ENGRAVE
 10
569.7750399473691
 20
1160.874005439723
 30
0.0
  0
VERTEX
  5
262
  8
ENGRAVE
 10
569.77503994736
 20
1240.874099910486
 30
0.0
  0
SEQEND
  5
263
  8
ENGRAVE
  0
POLYLINE
  5
AB
  8
ENGRAVE
 66
     1
 10
0.0
 20
0.0
 30
0.0
  0
VERTEX
  5
264
  8
ENGRAVE
 10
565.7750352238222
 20
1156.429555746881
 30
0.0
  0
VERTEX
  5
265
  8
ENGRAVE
 10
565.7750352238222
 20
1245.318549603303
 30
0.0
  0
SEQEND
  5
266
  8
ENGRAVE
  0
POLYLINE
  5
AC
  8
ENGRAVE
 66
     1
 10
0.0
 20
0.0
 30
0.0
  0
VERTEX
  5
267
  8
ENGRAVE
 10
639.7751202474919
 20
1150.873993630845
 30
0.0
  0
VERTEX
  5
268
  8
ENGRAVE
 10
639.7751202474828
 20
1250.87411171937
 30
0.0
  0
SEQEND
  5
269
  8
ENGRAVE
  0
POLYLINE
  5
AD
  8
ENGRAVE
 66
     1
 10
0.0
 20
0.0
 30
0.0
  0
VERTEX
  5
26A
  8
ENGRAVE
 10
635.7751155239553
 20
1150.873993630862
 30
0.0
  0
VERTEX
  5
26B
  8
ENGRAVE
 10
635.7751155239462
 20
1250.874111719357
 30
0.0
  0
SEQEND
  5
26C
  8
ENGRAVE
  0
POLYLINE
  5
AE
  8
ENGRAVE
 66
     1
 10
0.0
 20
0.0
 30
0.0
  0
VERTEX
  5
26D
  8
ENGRAVE
 10
611.7750871827343
 20
1170.87401724857
 30
0.0
  0
VERTEX
  5
26E
  8
ENGRAVE
 10
611.7750871827275
 20
1230.874088101622
 30
0.0
  0
SEQEND
  5
26F
  8
ENGRAVE
  0
POLYLINE
  5
AF
  8
ENGRAVE
 66
     1
 10
0.0
 20
0.0
 30
0.0
  0
VERTEX
  5
270
  8
ENGRAVE
 10
607.7750824591976
 20
1170.87401724857
 30
0.0
  0
VERTEX
  5
271
  8
ENGRAVE
 10
607.7750824591908
 20
1230.874088101622
 30
0.0
  0
SEQEND
  5
272
  8
ENGRAVE
  0
POLYLINE
  5
B0
  8
ENGRAVE
 66
     1
 10
0.0
 20
0.0
 30
0.0
  0
VERTEX
  5
273
  8
ENGRAVE
 10
603.775077735661
 20
1170.874017248569
 30
0.0
  0
VERTEX
  5
274
  8
ENGRAVE
 10
603.7750777356541
 20
1230.874088101622
 30
0.0
  0
SEQEND
  5
275
  8
ENGRAVE
  0
POLYLINE
  5
B1
  8
ENGRAVE
 66
     1
 10
0.0
 20
0.0
 30
0.0
  0
VERTEX
  5
276
  8
ENGRAVE
 10
599.7750730121245
 20
1170.874017248568
 30
0.0
  0
VERTEX
  5
277
  8
ENGRAVE
 10
599.7750730121177
 20
1230.874088101621
 30
0.0
  0
SEQEND
  5
278
  8
ENGRAVE
  0
POLYLINE
  5
B2
  8
ENGRAVE
 66
     1
 10
0.0
 20
0.0
 30
0.0
  0
VERTEX
  5
279
  8
ENGRAVE
 10
591.7750635650511
 20
1170.874017248567
 30
0.0
  0
VERTEX
  5
27A
  8
ENGRAVE
 10
591.7750635650443
 20
1230.874088101621
 30
0.0
  0
SEQEND
  5
27B
  8
ENGRAVE
  0
POLYLINE
  5
B3
  8
ENGRAVE
 66
     1
 10
0.0
 20
0.0
 30
0.0
  0
VERTEX
  5
27C
  8
ENGRAVE
 10
587.7750588415145
 20
1170.874017248566
 30
0.0
  0
VERTEX
  5
27D
  8
ENGRAVE
 10
587.7750588415076
 20
1230.874088101621
 30
0.0
  0
SEQEND
  5
27E
  8
ENGRAVE
  0
POLYLINE
  5
B4
  8
ENGRAVE
 66
     1
 10
0.0
 20
0.0
 30
0.0
  0
VERTEX
  5
27F
  8
ENGRAVE
 10
551.7750210532122
 20
1250.874111719303
 30
0.0
  0
VERTEX
  5
280
  8
ENGRAVE
 10
551.7750210532122
 20
1150.87399363087
 30
0.0
  0
SEQEND
  5
281
  8
ENGRAVE
  0
POLYLINE
  5
B5
  8
ENGRAVE
 66
     1
 10
0.0
 20
0.0
 30
0.0
  0
VERTEX
  5
282
  8
ENGRAVE
 10
583.7750541179778
 20
1170.874017248565
 30
0.0
  0
VERTEX
  5
283
  8
ENGRAVE
 10
583.775054117971
 20
1230.874088101621
 30
0.0
  0
SEQEND
  5
284
  8
ENGRAVE
  0
POLYLINE
  5
B6
  8
ENGRAVE
 66
     1
 10
0.0
 20
0.0
 30
0.0
  0
VERTEX
  5
285
  8
ENGRAVE
 10
555.7750257767489
 20
1250.874111719303
 30
0.0
  0
VERTEX
  5
286
  8
ENGRAVE
 10
555.7750257767489
 20
1150.873993630871
 30
0.0
  0
SEQEND
  5
287
  8
ENGRAVE
  0
POLYLINE
  5
B7
  8
ENGRAVE
 66
     1
 10
0.0
 20
0.0
 30
0.0
  0
VERTEX
  5
288
  8
ENGRAVE
 10
579.7750493944342
 20
1230.874088101619
 30
0.0
  0
VERTEX
  5
289
  8
ENGRAVE
 10
579.775049394441
 20
1170.874017248574
 30
0.0
  0
SEQEND
  5
28A
  8
ENGRAVE
  0
POLYLINE
  5
B8
  8
ENGRAVE
 66
     1
 10
0.0
 20
0.0
 30
0.0
  0
VERTEX
  5
28B
  8
ENGRAVE
 10
575.7750446708976
 20
1234.205892708109
 30
0.0
  0
VERTEX
  5
28C
  8
ENGRAVE
 10
575.7750446709051
 20
1167.542212642094
 30
0.0
  0
SEQEND
  5
28D
  8
ENGRAVE
  0
POLYLINE
  5
B9
  8
ENGRAVE
 66
     1
 10
0.0
 20
0.0
 30
0.0
  0
VERTEX
  5
28E
  8
ENGRAVE
 10
571.7750399473603
 20
1238.650751810945
 30
0.0
  0
VERTEX
  5
28F
  8
ENGRAVE
 10
571.7750399473689
 20
1163.097353539261
 30
0.0
  0
SEQEND
  5
290
  8
ENGRAVE
  0
POLYLINE
  5
BA
  8
ENGRAVE
 66
     1
 10
0.0
 20
0.0
 30
0.0
  0
VERTEX
  5
291
  8
ENGRAVE
 10
567.7750352238222
 20
1243.095610913781
 30
0.0
  0
VERTEX
  5
292
  8
ENGRAVE
 10
567.7750352238222
 20
1158.652494436418
 30
0.0
  0
SEQEND
  5
293
  8
ENGRAVE
  0
POLYLINE
  5
BB
  8
ENGRAVE
 66
     1
 10
0.0
 20
0.0
 30
0.0
  0
VERTEX
  5
294
  8
ENGRAVE
 10
563.7750305002855
 20
1247.540470016615
 30
0.0
  0
VERTEX
  5
295
  8
ENGRAVE
 10
563.7750305002855
 20
1154.207635333585
 30
0.0
  0
SEQEND
  5
296
  8
ENGRAVE
  0
POLYLINE
  5
BC
  8
ENGRAVE
 66
     1
 10
0.0
 20
0.0
 30
0.0
  0
VERTEX
  5
297
  8
ENGRAVE
 10
559.7750305002855
 20
1250.874111719309
 30
0.0
  0
VERTEX
  5
298
  8
ENGRAVE
 10
559.7750305002855
 20
1150.873993630891
 30
0.0
  0
SEQEND
  5
299
  8
ENGRAVE
  0
POLYLINE
  5
BD
  8
ENGRAVE
 66
     1
 10
0.0
 20
0.0
 30
0.0
  0
VERTEX
  5
29A
  8
ENGRAVE
 10
615.775091906264
 20
1234.208957752038
 30
0.0
  0
VERTEX
  5
29B
  8
ENGRAVE
 10
615.7750919062705
 20
1167.539147598148
 30
0.0
  0
SEQEND
  5
29C
  8
ENGRAVE
  0
POLYLINE
  5
BE
  8
ENGRAVE
 66
     1
 10
0.0
 20
0.0
 30
0.0
  0
VERTEX
  5
29D
  8
ENGRAVE
 10
619.7750966298004
 20
1238.65299811025
 30
0.0
  0
VERTEX
  5
29E
  8
ENGRAVE
 10
619.7750966298079
 20
1163.095107239932
 30
0.0
  0
SEQEND
  5
29F
  8
ENGRAVE
  0
POLYLINE
  5
BF
  8
ENGRAVE
 66
     1
 10
0.0
 20
0.0
 30
0.0
  0
VERTEX
  5
2A0
  8
ENGRAVE
 10
623.7751013533366
 20
1243.097038468461
 30
0.0
  0
VERTEX
  5
2A1
  8
ENGRAVE
 10
623.7751013533449
 20
1158.651066881718
 30
0.0
  0
SEQEND
  5
2A2
  8
ENGRAVE
  0
POLYLINE
  5
C0
  8
ENGRAVE
 66
     1
 10
0.0
 20
0.0
 30
0.0
  0
VERTEX
  5
2A3
  8
ENGRAVE
 10
627.7751060768727
 20
1247.541078826673
 30
0.0
  0
VERTEX
  5
2A4
  8
ENGRAVE
 10
627.7751060768817
 20
1154.207026523504
 30
0.0
  0
SEQEND
  5
2A5
  8
ENGRAVE
  0
POLYLINE
  5
C1
  8
ENGRAVE
 66
     1
 10
0.0
 20
0.0
 30
0.0
  0
VERTEX
  5
2A6
  8
ENGRAVE
 10
631.77511080041
 20
1250.874111719279
 30
0.0
  0
VERTEX
  5
2A7
  8
ENGRAVE
 10
631.7751108004177
 20
1150.873993630894
 30
0.0
  0
SEQEND
  5
2A8
  8
ENGRAVE
  0
POLYLINE
  5
C2
  8
ENGRAVE
 66
     1
 10
0.0
 20
0.0
 30
0.0
  0
VERTEX
  5
2A9
  8
ENGRAVE
 10
630.7751119813017
 20
1150.8739936309
 30
0.0
  0
VERTEX
  5
2AA
  8
ENGRAVE
 10
612.7734327675491
 20
1170.874017248575
 30
0.0
  0
VERTEX
  5
2AB
  8
ENGRAVE
 10
578.7733926174853
 20
1170.874017248574
 30
0.0
  0
VERTEX
  5
2AC
  8
ENGRAVE
 10
560.7750293194033
 20
1150.873993630891
 30
0.0
  0
SEQEND
  5
2AD
  8
ENGRAVE
  0
POLYLINE
  5
C3
  8
ENGRAVE
 66
     1
 10
0.0
 20
0.0
 30
0.0
  0
VERTEX
  5
2AE
  8
ENGRAVE
 10
595.7750682885878
 20
1170.874017248567
 30
0.0
  0
VERTEX
  5
2AF
  8
ENGRAVE
 10
595.775068288581
 20
1230.874088101621
 30
0.0
  0
SEQEND
  5
2B0
  8
ENGRAVE
  0
POLYLINE
  5
C4
  8
ENGRAVE
 66
     1
 10
0.0
 20
0.0
 30
0.0
  0
VERTEX
  5
2B1
  8
ENGRAVE
 10
589.7750635650511
 20
1170.874017248566
 30
0.0
  0
VERTEX
  5
2B2
  8
ENGRAVE
 10
589.7750635650443
 20
1230.874088101621
 30
0.0
  0
SEQEND
  5
2B3
  8
ENGRAVE
  0
POLYLINE
  5
C5
  8
ENGRAVE
 66
     1
 10
0.0
 20
0.0
 30
0.0
  0
VERTEX
  5
2B4
  8
ENGRAVE
 10
560.7750293194033
 20
1250.874111719311
 30
0.0
  0
VERTEX
  5
2B5
  8
ENGRAVE
 10
578.7733926174856
 20
1230.874088101621
 30
0.0
  0
VERTEX
  5
2B6
  8
ENGRAVE
 10
612.7734327675491
 20
1230.874088101617
 30
0.0
  0
VERTEX
  5
2B7
  8
ENGRAVE
 10
630.7751119813017
 20
1250.874111719283
 30
0.0
  0
SEQEND
  5
2B8
  8
ENGRAVE
  0
POLYLINE
  5
C6
  8
ENGRAVE
 66
     1
 10
0.0
 20
0.0
 30
0.0
  0
VERTEX
  5
2B9
  8
ENGRAVE
 10
396.7748415588135
 20
1050.873875542483
 30
0.0
  0
VERTEX
  5
2BA
  8
ENGRAVE
 10
466.7749242207119
 20
1050.873875542484
 30
0.0
  0
SEQEND
  5
2BB
  8
ENGRAVE
  0
POLYLINE
  5
C7
  8
ENGRAVE
 66
     1
 10
0.0
 20
0.0
 30
0.0
  0
VERTEX
  5
2BC
  8
ENGRAVE
 10
478.774938391319
 20
1050.87387554249
 30
0.0
  0
VERTEX
  5
2BD
  8
ENGRAVE
 10
548.7750210532088
 20
1050.873875542494
 30
0.0
  0
SEQEND
  5
2BE
  8
ENGRAVE
  0
POLYLINE
  5
C8
  8
ENGRAVE
 66
     1
 10
0.0
 20
0.0
 30
0.0
  0
VERTEX
  5
2BF
  8
ENGRAVE
 10
560.7750352238211
 20
1050.873875542483
 30
0.0
  0
VERTEX
  5
2C0
  8
ENGRAVE
 10
630.7751178857195
 20
1050.873875542484
 30
0.0
  0
SEQEND
  5
2C1
  8
ENGRAVE
  0
POLYLINE
  5
C9
  8
ENGRAVE
 66
     1
 10
0.0
 20
0.0
 30
0.0
  0
VERTEX
  5
2C2
  8
ENGRAVE
 10
478.774938391319
 20
1350.874229807718
 30
0.0
  0
VERTEX
  5
2C3
  8
ENGRAVE
 10
548.775021053211
 20
1350.874229807639
 30
0.0
  0
SEQEND
  5
2C4
  8
ENGRAVE
  0
POLYLINE
  5
CA
  8
ENGRAVE
 66
     1
 10
0.0
 20
0.0
 30
0.0
  0
VERTEX
  5
2C5
  8
ENGRAVE
 10
560.7750352238211
 20
1350.874229807642
 30
0.0
  0
VERTEX
  5
2C6
  8
ENGRAVE
 10
630.7751178857063
 20
1350.874229807628
 30
0.0
  0
SEQEND
  5
2C7
  8
ENGRAVE
  0
POLYLINE
  5
CB
  8
ENGRAVE
 66
     1
 10
0.0
 20
0.0
 30
0.0
  0
VERTEX
  5
2C8
  8
ENGRAVE
 10
548.7897838999048
 20
1375.774921928736
 30
0.0
  0
VERTEX
  5
2C9
  8
ENGRAVE
 10
642.7751320563214
 20
1375.74094299656
 30
0.0
  0
SEQEND
  5
2CA
  8
ENGRAVE
  0
POLYLINE
  5
CC
  8
ENGRAVE
 66
     1
 10
0.0
 20
0.0
 30
0.0
  0
VERTEX
  5
2CB
  8
ENGRAVE
 10
478.7750735117535
 20
1375.80023465186
 30
0.0
  0
VERTEX
  5
2CC
  8
ENGRAVE
 10
548.7897838999048
 20
1375.774921928736
 30
0.0
  0
SEQEND
  5
2CD
  8
ENGRAVE
  0
POLYLINE
  5
CD
  8
ENGRAVE
 66
     1
 10
0.0
 20
0.0
 30
0.0
  0
VERTEX
  5
2CE
  8
ENGRAVE
 10
314.775
 20
1375.8
 30
0.0
  0
VERTEX
  5
2CF
  8
ENGRAVE
 10
384.8105400945839
 20
1375.834206058792
 30
0.0
  0
SEQEND
  5
2D0
  8
ENGRAVE
  0
POLYLINE
  5
CE
  8
ENGRAVE
 66
     1
 10
0.0
 20
0.0
 30
0.0
  0
VERTEX
  5
2D1
  8
ENGRAVE
 10
516.5594947642237
 20
1364.026966355875
 30
0.0
  0
VERTEX
  5
2D2
  8
ENGRAVE
 10
548.7897857309048
 20
1364.022011150568
 30
0.0
  0
SEQEND
  5
2D3
  8
ENGRAVE
  0
POLYLINE
  5
CF
  8
ENGRAVE
 66
     1
 10
0.0
 20
0.0
 30
0.0
  0
VERTEX
  5
2D4
  8
ENGRAVE
 10
384.775975987503
 20
1364.04722724624
 30
0.0
  0
VERTEX
  5
2D5
  8
ENGRAVE
 10
478.7841120975722
 20
1364.032774084291
 30
0.0
  0
SEQEND
  5
2D6
  8
ENGRAVE
  0
POLYLINE
  5
D1
  8
CUT_FIRST
 66
     1
 10
0.0
 20
0.0
 30
0.0
 70
     1
  0
VERTEX
  5
2D7
  8
CUT_FIRST
 10
519.7749868075709
 20
1359.477216682819
 30
0.0
 42
0.4142135623730951
  0
VERTEX
  5
2D8
  8
CUT_FIRST
 10
513.7749797222655
 20
1365.477223768124
 30
0.0
 42
0.4142135623730951
  0
VERTEX
  5
2D9
  8
CUT_FIRST
 10
507.77497263696
 20
1359.477216682819
 30
0.0
 42
0.4142135623730951
  0
VERTEX
  5
2DA
  8
CUT_FIRST
 10
513.7749797222655
 20
1353.477209597514
 30
0.0
 42
0.4142135623730951
  0
SEQEND
  5
2DB
  8
CUT_FIRST
  0
POLYLINE
  5
D2
  8
CUT_FIRST
 66
     1
 10
0.0
 20
0.0
 30
0.0
 70
     1
  0
VERTEX
  5
2DC
  8
CUT_FIRST
 10
355.7747931425633
 20
1359.477216682819
 30
0.0
 42
0.4142135623730951
  0
VERTEX
  5
2DD
  8
CUT_FIRST
 10
349.7747860572579
 20
1365.477223768124
 30
0.0
 42
0.4142135623730951
  0
VERTEX
  5
2DE
  8
CUT_FIRST
 10
343.7747789719524
 20
1359.477216682819
 30
0.0
 42
0.4142135623730951
  0
VERTEX
  5
2DF
  8
CUT_FIRST
 10
349.7747860572579
 20
1353.477209597514
 30
0.0
 42
0.4142135623730951
  0
SEQEND
  5
2E0
  8
CUT_FIRST
  0
POLYLINE
  5
D3
  8
CUT_FIRST
 66
     1
 10
0.0
 20
0.0
 30
0.0
  0
VERTEX
  5
2E1
  8
CUT_FIRST
 10
478.7749383913194
 20
1012.873830668889
 30
0.0
  0
VERTEX
  5
2E2
  8
CUT_FIRST
 10
478.774938391319
 20
1050.87387554249
 30
0.0
  0
VERTEX
  5
2E3
  8
CUT_FIRST
 10
466.7749242207119
 20
1050.873875542484
 30
0.0
  0
VERTEX
  5
2E4
  8
CUT_FIRST
 10
466.7749242207119
 20
1150.8739936309
 30
0.0
  0
VERTEX
  5
2E5
  8
CUT_FIRST
 10
478.774938391319
 20
1150.873993630848
 30
0.0
  0
VERTEX
  5
2E6
  8
CUT_FIRST
 10
478.774938391319
 20
1250.874111719316
 30
0.0
  0
VERTEX
  5
2E7
  8
CUT_FIRST
 10
466.7749242207119
 20
1250.874111719283
 30
0.0
  0
VERTEX
  5
2E8
  8
CUT_FIRST
 10
466.7749242207119
 20
1350.874229807732
 30
0.0
  0
VERTEX
  5
2E9
  8
CUT_FIRST
 10
478.774938391319
 20
1350.874229807718
 30
0.0
  0
VERTEX
  5
2EA
  8
CUT_FIRST
 10
478.7749383913199
 20
1388.87427468133
 30
0.0
  0
SEQEND
  5
2EB
  8
CUT_FIRST
  0
POLYLINE
  5
D4
  8
CUT_FIRST
 66
     1
 10
0.0
 20
0.0
 30
0.0
  0
VERTEX
  5
2EC
  8
CUT_FIRST
 10
548.775021053211
 20
1012.873830668897
 30
0.0
  0
VERTEX
  5
2ED
  8
CUT_FIRST
 10
548.7750210532088
 20
1050.873875542494
 30
0.0
  0
VERTEX
  5
2EE
  8
CUT_FIRST
 10
560.7750352238211
 20
1050.873875542483
 30
0.0
  0
VERTEX
  5
2EF
  8
CUT_FIRST
 10
560.7750352238211
 20
1150.873993630891
 30
0.0
  0
VERTEX
  5
2F0
  8
CUT_FIRST
 10
548.7750210532088
 20
1150.873993630887
 30
0.0
  0
VERTEX
  5
2F1
  8
CUT_FIRST
 10
548.7750210532092
 20
1250.874111719314
 30
0.0
  0
VERTEX
  5
2F2
  8
CUT_FIRST
 10
560.7750352238211
 20
1250.874111719311
 30
0.0
  0
VERTEX
  5
2F3
  8
CUT_FIRST
 10
560.7750352238211
 20
1350.874229807642
 30
0.0
  0
VERTEX
  5
2F4
  8
CUT_FIRST
 10
548.775021053211
 20
1350.874229807639
 30
0.0
  0
VERTEX
  5
2F5
  8
CUT_FIRST
 10
548.775021053211
 20
1388.874274681337
 30
0.0
  0
SEQEND
  5
2F6
  8
CUT_FIRST
  0
POLYLINE
  5
D5
  8
CUT_FIRST
 66
     1
 10
0.0
 20
0.0
 30
0.0
  0
VERTEX
  5
2F7
  8
CUT_FIRST
 10
384.7748273882034
 20
1012.873830668897
 30
0.0
  0
VERTEX
  5
2F8
  8
CUT_FIRST
 10
384.7748273882012
 20
1050.873875542494
 30
0.0
  0
VERTEX
  5
2F9
  8
CUT_FIRST
 10
396.7748415588135
 20
1050.873875542483
 30
0.0
  0
VERTEX
  5
2FA
  8
CUT_FIRST
 10
396.7748415588135
 20
1150.873993630891
 30
0.0
  0
VERTEX
  5
2FB
  8
CUT_FIRST
 10
384.7748273882012
 20
1150.873993630887
 30
0.0
  0
VERTEX
  5
2FC
  8
CUT_FIRST
 10
384.7748273882016
 20
1250.874111719314
 30
0.0
  0
VERTEX
  5
2FD
  8
CUT_FIRST
 10
396.7748415588135
 20
1250.874111719311
 30
0.0
  0
VERTEX
  5
2FE
  8
CUT_FIRST
 10
396.7748415588135
 20
1350.874229807642
 30
0.0
  0
VERTEX
  5
2FF
  8
CUT_FIRST
 10
384.7748273882034
 20
1350.874229807639
 30
0.0
  0
VERTEX
  5
300
  8
CUT_FIRST
 10
384.7748273882034
 20
1388.874274681337
 30
0.0
  0
SEQEND
  5
301
  8
CUT_FIRST
  0
POLYLINE
  5
D7
  8
ENGRAVE2
 66
     1
 10
0.0
 20
0.0
 30
0.0
  0
VERTEX
  5
302
  8
ENGRAVE2
 10
384.811
 20
1375.8
 30
0.0
  0
VERTEX
  5
303
  8
ENGRAVE2
 10
478.7750735117535
 20
1375.80023465186
 30
0.0
  0
SEQEND
  5
304
  8
ENGRAVE2
  0
POLYLINE
  5
D8
  8
ENGRAVE2
 66
     1
 10
0.0
 20
0.0
 30
0.0
  0
VERTEX
  5
305
  8
ENGRAVE2
 10
352.3326615806491
 20
1364.028843447845
 30
0.0
  0
VERTEX
  5
306
  8
ENGRAVE2
 10
384.775975987503
 20
1364.04722724624
 30
0.0
  0
SEQEND
  5
307
  8
ENGRAVE2
  0
POLYLINE
  5
D9
  8
ENGRAVE2
 66
     1
 10
0.0
 20
0.0
 30
0.0
  0
VERTEX
  5
308
  8
ENGRAVE2
 10
396.7748415588135
 20
1350.874229807642
 30
0.0
  0
VERTEX
  5
309
  8
ENGRAVE2
 10
466.7749242207119
 20
1350.874229807732
 30
0.0
  0
SEQEND
  5
30A
  8
ENGRAVE2
  0
POLYLINE
  5
DA
  8
ENGRAVE2
 66
     1
 10
0.0
 20
0.0
 30
0.0
  0
VERTEX
  5
30B
  8
ENGRAVE2
 10
478.7841120975722
 20
1364.032774084291
 30
0.0
  0
VERTEX
  5
30C
  8
ENGRAVE2
 10
511.0355419537066
 20
1364.027815629011
 30
0.0
  0
SEQEND
  5
30D
  8
ENGRAVE2
  0
POLYLINE
  5
DB
  8
ENGRAVE2
 66
     1
 10
0.0
 20
0.0
 30
0.0
  0
VERTEX
  5
30E
  8
ENGRAVE2
 10
548.7897857309048
 20
1364.022011150568
 30
0.0
  0
VERTEX
  5
30F
  8
ENGRAVE2
 10
642.7751320563214
 20
1364.007561492405
 30
0.0
  0
SEQEND
  5
310
  8
ENGRAVE2
  0
ENDSEC
  0
EOF
