  0
SECTION
  2
HEADER
  9
$ACADVER
  1
AC1009
  9
$DWGCODEPAGE
  3
ansi_1252
  9
$INSBASE
 10
0.0
 20
0.0
 30
0.0
  9
$EXTMIN
 10
2137.917874627215
 20
908.5556088406137
 30
0.0
  9
$EXTMAX
 10
2462.574850708538
 20
1065.163608840615
 30
0.0
  9
$LIMMIN
 10
0.0
 20
0.0
  9
$LIMMAX
 10
12.0
 20
9.0
  9
$ORTHOMODE
 70
     0
  9
$REGENMODE
 70
     1
  9
$FILLMODE
 70
     1
  9
$QTEXTMODE
 70
     0
  9
$MIRRTEXT
 70
     1
  9
$DRAGMODE
 70
     2
  9
$LTSCALE
 40
1.0
  9
$OSMODE
 70
    37
  9
$ATTMODE
 70
     1
  9
$TEXTSIZE
 40
0.2
  9
$TRACEWID
 40
0.05
  9
$TEXTSTYLE
  7
STANDARD
  9
$CLAYER
  8
0
  9
$CELTYPE
  6
BYLAYER
  9
$CECOLOR
 62
   256
  9
$DIMSCALE
 40
1.0
  9
$DIMASZ
 40
0.18
  9
$DIMEXO
 40
0.0625
  9
$DIMDLI
 40
0.38
  9
$DIMRND
 40
0.0
  9
$DIMDLE
 40
0.0
  9
$DIMEXE
 40
0.18
  9
$DIMTP
 40
0.0
  9
$DIMTM
 40
0.0
  9
$DIMTXT
 40
0.18
  9
$DIMCEN
 40
0.09
  9
$DIMTSZ
 40
0.0
  9
$DIMTOL
 70
     0
  9
$DIMLIM
 70
     0
  9
$DIMTIH
 70
     1
  9
$DIMTOH
 70
     1
  9
$DIMSE1
 70
     0
  9
$DIMSE2
 70
     0
  9
$DIMTAD
 70
     0
  9
$DIMZIN
 70
     0
  9
$DIMBLK
  1

  9
$DIMASO
 70
     1
  9
$DIMSHO
 70
     1
  9
$DIMPOST
  1

  9
$DIMAPOST
  1

  9
$DIMALT
 70
     0
  9
$DIMALTD
 70
     2
  9
$DIMALTF
 40
25.4
  9
$DIMLFAC
 40
1.0
  9
$DIMTOFL
 70
     0
  9
$DIMTVP
 40
0.0
  9
$DIMTIX
 70
     0
  9
$DIMSOXD
 70
     0
  9
$DIMSAH
 70
     0
  9
$DIMBLK1
  1

  9
$DIMBLK2
  1

  9
$DIMSTYLE
  2
STANDARD
  9
$DIMCLRD
 70
     0
  9
$DIMCLRE
 70
     0
  9
$DIMCLRT
 70
     0
  9
$DIMTFAC
 40
1.0
  9
$DIMGAP
 40
0.09
  9
$LUNITS
 70
     2
  9
$LUPREC
 70
     4
  9
$SKETCHINC
 40
0.1
  9
$FILLETRAD
 40
0.5
  9
$AUNITS
 70
     0
  9
$AUPREC
 70
     0
  9
$MENU
  1
.
  9
$ELEVATION
 40
0.0
  9
$PELEVATION
 40
0.0
  9
$THICKNESS
 40
0.0
  9
$LIMCHECK
 70
     0
  9
$CHAMFERA
 40
0.5
  9
$CHAMFERB
 40
0.5
  9
$SKPOLY
 70
     0
  9
$TDCREATE
 40
2454910.5
  9
$TDUPDATE
 40
2458441.731199456
  9
$TDINDWG
 40
0.0000000116
  9
$TDUSRTIMER
 40
0.0000000116
  9
$USRTIMER
 70
     1
  9
$ANGBASE
 50
0.0
  9
$ANGDIR
 70
     0
  9
$PDMODE
 70
     0
  9
$PDSIZE
 40
0.0
  9
$PLINEWID
 40
0.0
  9
$COORDS
 70
     1
  9
$SPLFRAME
 70
     0
  9
$SPLINETYPE
 70
     6
  9
$SPLINESEGS
 70
     8
  9
$ATTDIA
 70
     0
  9
$ATTREQ
 70
     1
  9
$HANDLING
 70
     1
  9
$HANDSEED
  5
1AF
  9
$SURFTAB1
 70
     6
  9
$SURFTAB2
 70
     6
  9
$SURFTYPE
 70
     6
  9
$SURFU
 70
     6
  9
$SURFV
 70
     6
  9
$UCSNAME
  2

  9
$UCSORG
 10
0.0
 20
0.0
 30
0.0
  9
$UCSXDIR
 10
1.0
 20
0.0
 30
0.0
  9
$UCSYDIR
 10
0.0
 20
1.0
 30
0.0
  9
$PUCSNAME
  2

  9
$PUCSORG
 10
0.0
 20
0.0
 30
0.0
  9
$PUCSXDIR
 10
1.0
 20
0.0
 30
0.0
  9
$PUCSYDIR
 10
0.0
 20
1.0
 30
0.0
  9
$USERI1
 70
     0
  9
$USERI2
 70
     0
  9
$USERI3
 70
     0
  9
$USERI4
 70
     0
  9
$USERI5
 70
     0
  9
$USERR1
 40
0.0
  9
$USERR2
 40
0.0
  9
$USERR3
 40
0.0
  9
$USERR4
 40
0.0
  9
$USERR5
 40
0.0
  9
$WORLDVIEW
 70
     1
  9
$SHADEDGE
 70
     3
  9
$SHADEDIF
 70
    70
  9
$TILEMODE
 70
     1
  9
$MAXACTVP
 70
    64
  9
$PLIMCHECK
 70
     0
  9
$PEXTMIN
 10
1.000000000000000E+20
 20
1.000000000000000E+20
 30
1.000000000000000E+20
  9
$PEXTMAX
 10
-1.000000000000000E+20
 20
-1.000000000000000E+20
 30
-1.000000000000000E+20
  9
$PLIMMIN
 10
0.0
 20
0.0
  9
$PLIMMAX
 10
12.0
 20
9.0
  9
$UNITMODE
 70
     0
  9
$VISRETAIN
 70
     1
  9
$PLINEGEN
 70
     0
  9
$PSLTSCALE
 70
     1
  0
ENDSEC
  0
SECTION
  2
TABLES
  0
TABLE
  2
VPORT
 70
     1
  0
VPORT
  2
*ACTIVE
 70
     0
 10
0.0
 20
0.0
 11
1.0
 21
1.0
 12
10.42990654205607
 22
4.5
 13
0.0
 23
0.0
 14
0.5
 24
0.5
 15
0.5
 25
0.5
 16
0.0
 26
0.0
 36
1.0
 17
0.0
 27
0.0
 37
0.0
 40
9.0
 41
1.972972972850329
 42
50.0
 43
0.0
 44
0.0
 50
0.0
 51
0.0
 71
     0
 72
   100
 73
     1
 74
     3
 75
     0
 76
     0
 77
     0
 78
     0
  0
ENDTAB
  0
TABLE
  2
LTYPE
 70
     2
  0
LTYPE
  2
CONTINUOUS
 70
     0
  3
Solid line
 72
    65
 73
     0
 40
0.0
  0
LTYPE
  2
CONTINUOUS2
 70
     0
  3
Solid Line
 72
    65
 73
     0
 40
0.0
  0
ENDTAB
  0
TABLE
  2
LAYER
 70
     3
  0
LAYER
  2
0
 70
     0
 62
     7
  6
CONTINUOUS
  0
LAYER
  2
3MM_CUT
 70
     0
 62
     5
  6
CONTINUOUS
  0
LAYER
  2
6MM_ENGRAVE
 70
     0
 62
   245
  6
CONTINUOUS
  0
ENDTAB
  0
TABLE
  2
STYLE
 70
     1
  0
STYLE
  2
STANDARD
 70
     0
 40
0.0
 41
1.0
 50
0.0
 71
     0
 42
0.2
  3
txt
  4

  0
ENDTAB
  0
TABLE
  2
VIEW
 70
     0
  0
ENDTAB
  0
TABLE
  2
UCS
 70
     0
  0
ENDTAB
  0
TABLE
  2
APPID
 70
     1
  0
APPID
  2
ACAD
 70
     0
  0
ENDTAB
  0
TABLE
  2
DIMSTYLE
 70
     1
  0
DIMSTYLE
  2
STANDARD
 70
     0
  3

  4

  5

  6

  7

 40
1.0
 41
0.18
 42
0.0625
 43
0.38
 44
0.18
 45
0.0
 46
0.0
 47
0.0
 48
0.0
140
0.18
141
0.09
142
0.0
143
25.4
144
1.0
145
0.0
146
1.0
147
0.09
 71
     0
 72
     0
 73
     1
 74
     1
 75
     0
 76
     0
 77
     0
 78
     0
170
     0
171
     2
172
     0
173
     0
174
     0
175
     0
176
     0
177
     0
178
     0
  0
ENDTAB
  0
ENDSEC
  0
SECTION
  2
BLOCKS
  0
BLOCK
  8
0
  2
$MODEL_SPACE
 70
     0
 10
0.0
 20
0.0
 30
0.0
  3
$MODEL_SPACE
  1

  0
ENDBLK
  5
21
  8
0
  0
BLOCK
 67
     1
  8
0
  2
$PAPER_SPACE
 70
     0
 10
0.0
 20
0.0
 30
0.0
  3
$PAPER_SPACE
  1

  0
ENDBLK
  5
1D
 67
     1
  8
0
  0
ENDSEC
  0
SECTION
  2
ENTITIES
  0
POLYLINE
  5
41
  8
3MM_CUT
 66
     1
 10
0.0
 20
0.0
 30
0.0
 70
     1
  0
VERTEX
  5
4E
  8
3MM_CUT
 10
2436.829945602353
 20
939.5556088406156
 30
0.0
 42
-0.4142135623730951
  0
VERTEX
  5
4F
  8
3MM_CUT
 10
2431.579945602353
 20
934.3056088406156
 30
0.0
 42
-0.4142135623730951
  0
VERTEX
  5
50
  8
3MM_CUT
 10
2426.329945602353
 20
939.5556088406156
 30
0.0
 42
-0.4142135623730951
  0
VERTEX
  5
51
  8
3MM_CUT
 10
2431.579945602353
 20
944.8056088406156
 30
0.0
 42
-0.4142135623730951
  0
SEQEND
  5
52
  8
3MM_CUT
  0
POLYLINE
  5
43
  8
6MM_ENGRAVE
 66
     1
 10
0.0
 20
0.0
 30
0.0
 70
     1
  0
VERTEX
  5
53
  8
6MM_ENGRAVE
 10
2409.079945602352
 20
908.5556088406137
 30
0.0
  0
VERTEX
  5
54
  8
6MM_ENGRAVE
 10
2409.079945602352
 20
916.0556088406125
 30
0.0
  0
VERTEX
  5
55
  8
6MM_ENGRAVE
 10
2409.079945602339
 20
917.5556088406132
 30
0.0
  0
VERTEX
  5
56
  8
6MM_ENGRAVE
 10
2400.585040496171
 20
917.5556088406157
 30
0.0
  0
VERTEX
  5
57
  8
6MM_ENGRAVE
 10
2400.585040496174
 20
927.05560884061
 30
0.0
  0
VERTEX
  5
58
  8
6MM_ENGRAVE
 10
2403.585040496174
 20
927.0556088406096
 30
0.0
  0
VERTEX
  5
59
  8
6MM_ENGRAVE
 10
2403.585040496174
 20
932.0921672206265
 30
0.0
  0
VERTEX
  5
5A
  8
6MM_ENGRAVE
 10
2403.585040496174
 20
937.0373296506046
 30
0.0
  0
VERTEX
  5
5B
  8
6MM_ENGRAVE
 10
2400.585040496174
 20
937.0373296506046
 30
0.0
  0
VERTEX
  5
5C
  8
6MM_ENGRAVE
 10
2400.585040496174
 20
945.0373296506045
 30
0.0
  0
VERTEX
  5
5D
  8
6MM_ENGRAVE
 10
2403.585040496174
 20
945.0373296506045
 30
0.0
  0
VERTEX
  5
5E
  8
6MM_ENGRAVE
 10
2403.585040496174
 20
953.037329650605
 30
0.0
  0
VERTEX
  5
5F
  8
6MM_ENGRAVE
 10
2400.585040496171
 20
953.037329650605
 30
0.0
  0
VERTEX
  5
60
  8
6MM_ENGRAVE
 10
2400.585040496171
 20
961.0373296506052
 30
0.0
  0
VERTEX
  5
61
  8
6MM_ENGRAVE
 10
2403.585040496174
 20
961.0373296506052
 30
0.0
  0
VERTEX
  5
62
  8
6MM_ENGRAVE
 10
2403.585040496174
 20
968.0556088406145
 30
0.0
  0
VERTEX
  5
63
  8
6MM_ENGRAVE
 10
2403.585040496174
 20
971.0190504605999
 30
0.0
  0
VERTEX
  5
64
  8
6MM_ENGRAVE
 10
2403.585040496264
 20
972.0556088406162
 30
0.0
  0
VERTEX
  5
65
  8
6MM_ENGRAVE
 10
2400.585040496174
 20
972.055608840615
 30
0.0
  0
VERTEX
  5
66
  8
6MM_ENGRAVE
 10
2400.585040496174
 20
983.5190504605976
 30
0.0
  0
VERTEX
  5
67
  8
6MM_ENGRAVE
 10
2409.079945602352
 20
983.5190504605976
 30
0.0
  0
VERTEX
  5
68
  8
6MM_ENGRAVE
 10
2409.079945602346
 20
980.5190504606011
 30
0.0
  0
VERTEX
  5
69
  8
6MM_ENGRAVE
 10
2409.732648409118
 20
980.519050460597
 30
0.0
  0
VERTEX
  5
6A
  8
6MM_ENGRAVE
 10
2424.079945602356
 20
980.5190504605938
 30
0.0
  0
VERTEX
  5
6B
  8
6MM_ENGRAVE
 10
2424.079945602356
 20
983.5190504605939
 30
0.0
  0
VERTEX
  5
6C
  8
6MM_ENGRAVE
 10
2429.732648409129
 20
983.5190504605926
 30
0.0
  0
VERTEX
  5
6D
  8
6MM_ENGRAVE
 10
2431.504718012724
 20
983.5190504605962
 30
0.0
  0
VERTEX
  5
6E
  8
6MM_ENGRAVE
 10
2439.079945602353
 20
983.5190504605971
 30
0.0
  0
VERTEX
  5
6F
  8
6MM_ENGRAVE
 10
2439.079945602353
 20
980.5190504605961
 30
0.0
  0
VERTEX
  5
70
  8
6MM_ENGRAVE
 10
2449.732648409117
 20
980.5190504605961
 30
0.0
  0
VERTEX
  5
71
  8
6MM_ENGRAVE
 10
2454.079945602356
 20
980.5190504605952
 30
0.0
  0
VERTEX
  5
72
  8
6MM_ENGRAVE
 10
2454.079945602356
 20
983.5190504605962
 30
0.0
  0
VERTEX
  5
73
  8
6MM_ENGRAVE
 10
2462.574850708531
 20
983.5190504605962
 30
0.0
  0
VERTEX
  5
74
  8
6MM_ENGRAVE
 10
2462.574850708532
 20
972.0556088406162
 30
0.0
  0
VERTEX
  5
75
  8
6MM_ENGRAVE
 10
2459.574850708476
 20
972.0556088406157
 30
0.0
  0
VERTEX
  5
76
  8
6MM_ENGRAVE
 10
2459.574850708563
 20
971.0190504605999
 30
0.0
  0
VERTEX
  5
77
  8
6MM_ENGRAVE
 10
2459.574850708531
 20
971.0190504605999
 30
0.0
  0
VERTEX
  5
78
  8
6MM_ENGRAVE
 10
2459.574850708531
 20
968.0556088406149
 30
0.0
  0
VERTEX
  5
79
  8
6MM_ENGRAVE
 10
2459.574850708531
 20
961.0373296506052
 30
0.0
  0
VERTEX
  5
7A
  8
6MM_ENGRAVE
 10
2462.574850708533
 20
961.0373296506052
 30
0.0
  0
VERTEX
  5
7B
  8
6MM_ENGRAVE
 10
2462.574850708533
 20
953.037329650605
 30
0.0
  0
VERTEX
  5
7C
  8
6MM_ENGRAVE
 10
2459.574850708531
 20
953.037329650605
 30
0.0
  0
VERTEX
  5
7D
  8
6MM_ENGRAVE
 10
2459.574850708531
 20
945.0373296506045
 30
0.0
  0
VERTEX
  5
7E
  8
6MM_ENGRAVE
 10
2462.574850708533
 20
945.0373296506048
 30
0.0
  0
VERTEX
  5
7F
  8
6MM_ENGRAVE
 10
2462.574850708534
 20
937.0373296506046
 30
0.0
  0
VERTEX
  5
80
  8
6MM_ENGRAVE
 10
2459.574850708531
 20
937.0373296506046
 30
0.0
  0
VERTEX
  5
81
  8
6MM_ENGRAVE
 10
2459.574850708531
 20
932.0921672206265
 30
0.0
  0
VERTEX
  5
82
  8
6MM_ENGRAVE
 10
2459.574850708531
 20
927.05560884061
 30
0.0
  0
VERTEX
  5
83
  8
6MM_ENGRAVE
 10
2462.574850708532
 20
927.05560884061
 30
0.0
  0
VERTEX
  5
84
  8
6MM_ENGRAVE
 10
2462.574850708538
 20
917.5556088406194
 30
0.0
  0
VERTEX
  5
85
  8
6MM_ENGRAVE
 10
2454.079945602346
 20
917.555608840616
 30
0.0
  0
VERTEX
  5
86
  8
6MM_ENGRAVE
 10
2454.079945602362
 20
917.555608840616
 30
0.0
  0
VERTEX
  5
87
  8
6MM_ENGRAVE
 10
2454.079945602355
 20
908.5556088406156
 30
0.0
  0
VERTEX
  5
88
  8
6MM_ENGRAVE
 10
2439.079945602359
 20
908.5556088406157
 30
0.0
  0
VERTEX
  5
89
  8
6MM_ENGRAVE
 10
2439.079945602351
 20
917.5556088406146
 30
0.0
  0
VERTEX
  5
8A
  8
6MM_ENGRAVE
 10
2424.079945602348
 20
917.555608840616
 30
0.0
  0
VERTEX
  5
8B
  8
6MM_ENGRAVE
 10
2424.07994560236
 20
908.5556088406147
 30
0.0
  0
SEQEND
  5
8C
  8
6MM_ENGRAVE
  0
POLYLINE
  5
44
  8
6MM_ENGRAVE
 66
     1
 10
0.0
 20
0.0
 30
0.0
 70
     1
  0
VERTEX
  5
8D
  8
6MM_ENGRAVE
 10
2157.888223122621
 20
908.555608840615
 30
0.0
  0
VERTEX
  5
8E
  8
6MM_ENGRAVE
 10
2157.88822312262
 20
914.5556088406153
 30
0.0
  0
VERTEX
  5
8F
  8
6MM_ENGRAVE
 10
2157.888223122669
 20
917.5556088406144
 30
0.0
  0
VERTEX
  5
90
  8
6MM_ENGRAVE
 10
2140.917874627215
 20
917.5556088406141
 30
0.0
  0
VERTEX
  5
91
  8
6MM_ENGRAVE
 10
2140.917874627216
 20
927.0556088406107
 30
0.0
  0
VERTEX
  5
92
  8
6MM_ENGRAVE
 10
2137.917874627215
 20
927.0556088406105
 30
0.0
  0
VERTEX
  5
93
  8
6MM_ENGRAVE
 10
2137.917874627215
 20
931.0556088406119
 30
0.0
  0
VERTEX
  5
94
  8
6MM_ENGRAVE
 10
2137.917874627215
 20
937.0373296506043
 30
0.0
  0
VERTEX
  5
95
  8
6MM_ENGRAVE
 10
2140.917874627216
 20
937.0373296506043
 30
0.0
  0
VERTEX
  5
96
  8
6MM_ENGRAVE
 10
2140.917874627216
 20
945.0373296506043
 30
0.0
  0
VERTEX
  5
97
  8
6MM_ENGRAVE
 10
2137.917874627215
 20
945.0373296506043
 30
0.0
  0
VERTEX
  5
98
  8
6MM_ENGRAVE
 10
2137.917874627215
 20
953.0373296506045
 30
0.0
  0
VERTEX
  5
99
  8
6MM_ENGRAVE
 10
2140.917874627216
 20
953.0373296506045
 30
0.0
  0
VERTEX
  5
9A
  8
6MM_ENGRAVE
 10
2140.917874627216
 20
961.037329650605
 30
0.0
  0
VERTEX
  5
9B
  8
6MM_ENGRAVE
 10
2137.917874627215
 20
961.0373296506048
 30
0.0
  0
VERTEX
  5
9C
  8
6MM_ENGRAVE
 10
2137.917874627215
 20
968.0556088406142
 30
0.0
  0
VERTEX
  5
9D
  8
6MM_ENGRAVE
 10
2137.917874627215
 20
972.055608840615
 30
0.0
  0
VERTEX
  5
9E
  8
6MM_ENGRAVE
 10
2140.917874627216
 20
972.055608840615
 30
0.0
  0
VERTEX
  5
9F
  8
6MM_ENGRAVE
 10
2140.917874627215
 20
984.5556088406119
 30
0.0
  0
VERTEX
  5
A0
  8
6MM_ENGRAVE
 10
2157.88822312262
 20
984.5556088406112
 30
0.0
  0
VERTEX
  5
A1
  8
6MM_ENGRAVE
 10
2157.888223122615
 20
981.5556088406122
 30
0.0
  0
VERTEX
  5
A2
  8
6MM_ENGRAVE
 10
2169.998755181051
 20
981.5556088406122
 30
0.0
  0
VERTEX
  5
A3
  8
6MM_ENGRAVE
 10
2177.888223122617
 20
981.5556088406058
 30
0.0
  0
VERTEX
  5
A4
  8
6MM_ENGRAVE
 10
2177.888223122617
 20
984.5556088406121
 30
0.0
  0
VERTEX
  5
A5
  8
6MM_ENGRAVE
 10
2197.888223122605
 20
984.5556088406121
 30
0.0
  0
VERTEX
  5
A6
  8
6MM_ENGRAVE
 10
2197.888223122604
 20
981.5556088406122
 30
0.0
  0
VERTEX
  5
A7
  8
6MM_ENGRAVE
 10
2211.829506603207
 20
981.5556088406122
 30
0.0
  0
VERTEX
  5
A8
  8
6MM_ENGRAVE
 10
2217.888223122616
 20
981.5556088406104
 30
0.0
  0
VERTEX
  5
A9
  8
6MM_ENGRAVE
 10
2217.888223122616
 20
984.5556088406121
 30
0.0
  0
VERTEX
  5
AA
  8
6MM_ENGRAVE
 10
2236.116153519009
 20
984.5556088406121
 30
0.0
  0
VERTEX
  5
AB
  8
6MM_ENGRAVE
 10
2237.888223122605
 20
984.5556088406084
 30
0.0
  0
VERTEX
  5
AC
  8
6MM_ENGRAVE
 10
2237.888223122605
 20
981.5556088406095
 30
0.0
  0
VERTEX
  5
AD
  8
6MM_ENGRAVE
 10
2254.397738555017
 20
981.5556088406122
 30
0.0
  0
VERTEX
  5
AE
  8
6MM_ENGRAVE
 10
2257.888223122615
 20
981.5556088406113
 30
0.0
  0
VERTEX
  5
AF
  8
6MM_ENGRAVE
 10
2257.888223122615
 20
984.555608840613
 30
0.0
  0
VERTEX
  5
B0
  8
6MM_ENGRAVE
 10
2277.590085152201
 20
984.5556088406123
 30
0.0
  0
VERTEX
  5
B1
  8
6MM_ENGRAVE
 10
2277.888223122605
 20
981.5556088406122
 30
0.0
  0
VERTEX
  5
B2
  8
6MM_ENGRAVE
 10
2289.998755181041
 20
981.5556088406122
 30
0.0
  0
VERTEX
  5
B3
  8
6MM_ENGRAVE
 10
2297.888223122607
 20
981.5556088406058
 30
0.0
  0
VERTEX
  5
B4
  8
6MM_ENGRAVE
 10
2297.888223122607
 20
984.5556088406121
 30
0.0
  0
VERTEX
  5
B5
  8
6MM_ENGRAVE
 10
2317.888223122595
 20
984.5556088406121
 30
0.0
  0
VERTEX
  5
B6
  8
6MM_ENGRAVE
 10
2317.888223122594
 20
981.5556088406122
 30
0.0
  0
VERTEX
  5
B7
  8
6MM_ENGRAVE
 10
2331.829506603197
 20
981.5556088406122
 30
0.0
  0
VERTEX
  5
B8
  8
6MM_ENGRAVE
 10
2337.888223122606
 20
981.5556088406104
 30
0.0
  0
VERTEX
  5
B9
  8
6MM_ENGRAVE
 10
2337.888223122606
 20
984.5556088406121
 30
0.0
  0
VERTEX
  5
BA
  8
6MM_ENGRAVE
 10
2356.116153518999
 20
984.5556088406121
 30
0.0
  0
VERTEX
  5
BB
  8
6MM_ENGRAVE
 10
2357.888223122595
 20
984.5556088406084
 30
0.0
  0
VERTEX
  5
BC
  8
6MM_ENGRAVE
 10
2357.888223122595
 20
981.5556088406095
 30
0.0
  0
VERTEX
  5
BD
  8
6MM_ENGRAVE
 10
2374.397738555007
 20
981.5556088406122
 30
0.0
  0
VERTEX
  5
BE
  8
6MM_ENGRAVE
 10
2377.888223122605
 20
981.5556088406113
 30
0.0
  0
VERTEX
  5
BF
  8
6MM_ENGRAVE
 10
2377.888223122605
 20
984.555608840613
 30
0.0
  0
VERTEX
  5
C0
  8
6MM_ENGRAVE
 10
2393.173688189263
 20
984.5556088406141
 30
0.0
  0
VERTEX
  5
C1
  8
6MM_ENGRAVE
 10
2393.173688189261
 20
972.055608840615
 30
0.0
  0
VERTEX
  5
C2
  8
6MM_ENGRAVE
 10
2396.173688189265
 20
972.055608840615
 30
0.0
  0
VERTEX
  5
C3
  8
6MM_ENGRAVE
 10
2396.173688189264
 20
968.0556088406149
 30
0.0
  0
VERTEX
  5
C4
  8
6MM_ENGRAVE
 10
2396.173688189271
 20
961.037329650605
 30
0.0
  0
VERTEX
  5
C5
  8
6MM_ENGRAVE
 10
2393.17368818926
 20
961.0373296506052
 30
0.0
  0
VERTEX
  5
C6
  8
6MM_ENGRAVE
 10
2393.17368818926
 20
953.0373296506045
 30
0.0
  0
VERTEX
  5
C7
  8
6MM_ENGRAVE
 10
2396.173688189271
 20
953.037329650605
 30
0.0
  0
VERTEX
  5
C8
  8
6MM_ENGRAVE
 10
2396.173688189271
 20
945.0373296506043
 30
0.0
  0
VERTEX
  5
C9
  8
6MM_ENGRAVE
 10
2393.17368818926
 20
945.0373296506043
 30
0.0
  0
VERTEX
  5
CA
  8
6MM_ENGRAVE
 10
2393.17368818926
 20
937.0373296506043
 30
0.0
  0
VERTEX
  5
CB
  8
6MM_ENGRAVE
 10
2396.173688189264
 20
937.0373296506046
 30
0.0
  0
VERTEX
  5
CC
  8
6MM_ENGRAVE
 10
2396.173688189264
 20
931.055608840611
 30
0.0
  0
VERTEX
  5
CD
  8
6MM_ENGRAVE
 10
2396.173688189264
 20
927.0556088406105
 30
0.0
  0
VERTEX
  5
CE
  8
6MM_ENGRAVE
 10
2393.173688189261
 20
927.0556088406107
 30
0.0
  0
VERTEX
  5
CF
  8
6MM_ENGRAVE
 10
2393.17368818925
 20
917.5556088406157
 30
0.0
  0
VERTEX
  5
D0
  8
6MM_ENGRAVE
 10
2377.888223122601
 20
917.5556088406155
 30
0.0
  0
VERTEX
  5
D1
  8
6MM_ENGRAVE
 10
2377.888223122605
 20
917.5556088406153
 30
0.0
  0
VERTEX
  5
D2
  8
6MM_ENGRAVE
 10
2377.888223122605
 20
914.5556088406134
 30
0.0
  0
VERTEX
  5
D3
  8
6MM_ENGRAVE
 10
2377.888223122603
 20
908.5556088406157
 30
0.0
  0
VERTEX
  5
D4
  8
6MM_ENGRAVE
 10
2357.888223122603
 20
908.555608840614
 30
0.0
  0
VERTEX
  5
D5
  8
6MM_ENGRAVE
 10
2357.888223122594
 20
914.555608840618
 30
0.0
  0
VERTEX
  5
D6
  8
6MM_ENGRAVE
 10
2357.888223122595
 20
914.555608840618
 30
0.0
  0
VERTEX
  5
D7
  8
6MM_ENGRAVE
 10
2357.888223122592
 20
917.5556088406163
 30
0.0
  0
VERTEX
  5
D8
  8
6MM_ENGRAVE
 10
2337.888223122475
 20
917.5556088406157
 30
0.0
  0
VERTEX
  5
D9
  8
6MM_ENGRAVE
 10
2337.888223122606
 20
917.5556088406162
 30
0.0
  0
VERTEX
  5
DA
  8
6MM_ENGRAVE
 10
2337.888223122606
 20
914.5556088406144
 30
0.0
  0
VERTEX
  5
DB
  8
6MM_ENGRAVE
 10
2337.888223122623
 20
908.5556088406149
 30
0.0
  0
VERTEX
  5
DC
  8
6MM_ENGRAVE
 10
2317.888223122609
 20
908.5556088406149
 30
0.0
  0
VERTEX
  5
DD
  8
6MM_ENGRAVE
 10
2317.888223122595
 20
914.5556088406144
 30
0.0
  0
VERTEX
  5
DE
  8
6MM_ENGRAVE
 10
2317.888223122594
 20
917.5556088406144
 30
0.0
  0
VERTEX
  5
DF
  8
6MM_ENGRAVE
 10
2317.888223122657
 20
917.5556088406148
 30
0.0
  0
VERTEX
  5
E0
  8
6MM_ENGRAVE
 10
2297.888223122585
 20
917.5556088406179
 30
0.0
  0
VERTEX
  5
E1
  8
6MM_ENGRAVE
 10
2297.888223122607
 20
917.5556088406207
 30
0.0
  0
VERTEX
  5
E2
  8
6MM_ENGRAVE
 10
2297.888223122607
 20
914.5556088406144
 30
0.0
  0
VERTEX
  5
E3
  8
6MM_ENGRAVE
 10
2297.888223122597
 20
908.5556088406154
 30
0.0
  0
VERTEX
  5
E4
  8
6MM_ENGRAVE
 10
2277.888223122615
 20
908.5556088406154
 30
0.0
  0
VERTEX
  5
E5
  8
6MM_ENGRAVE
 10
2277.888223122607
 20
914.5556088406141
 30
0.0
  0
VERTEX
  5
E6
  8
6MM_ENGRAVE
 10
2277.888223122605
 20
917.5556088406144
 30
0.0
  0
VERTEX
  5
E7
  8
6MM_ENGRAVE
 10
2277.888223122651
 20
917.5556088406146
 30
0.0
  0
VERTEX
  5
E8
  8
6MM_ENGRAVE
 10
2257.888223122644
 20
917.555608840615
 30
0.0
  0
VERTEX
  5
E9
  8
6MM_ENGRAVE
 10
2257.888223122615
 20
914.5556088406134
 30
0.0
  0
VERTEX
  5
EA
  8
6MM_ENGRAVE
 10
2257.888223122616
 20
914.5556088406134
 30
0.0
  0
VERTEX
  5
EB
  8
6MM_ENGRAVE
 10
2257.888223122618
 20
908.5556088406149
 30
0.0
  0
VERTEX
  5
EC
  8
6MM_ENGRAVE
 10
2237.888223122607
 20
908.5556088406149
 30
0.0
  0
VERTEX
  5
ED
  8
6MM_ENGRAVE
 10
2237.888223122605
 20
914.555608840618
 30
0.0
  0
VERTEX
  5
EE
  8
6MM_ENGRAVE
 10
2237.888223122579
 20
917.555608840616
 30
0.0
  0
VERTEX
  5
EF
  8
6MM_ENGRAVE
 10
2217.888223122659
 20
917.5556088406154
 30
0.0
  0
VERTEX
  5
F0
  8
6MM_ENGRAVE
 10
2217.888223122616
 20
914.5556088406144
 30
0.0
  0
VERTEX
  5
F1
  8
6MM_ENGRAVE
 10
2217.888223122615
 20
908.5556088406154
 30
0.0
  0
VERTEX
  5
F2
  8
6MM_ENGRAVE
 10
2197.888223122616
 20
908.5556088406154
 30
0.0
  0
VERTEX
  5
F3
  8
6MM_ENGRAVE
 10
2197.888223122604
 20
914.5556088406144
 30
0.0
  0
VERTEX
  5
F4
  8
6MM_ENGRAVE
 10
2197.888223122605
 20
914.5556088406144
 30
0.0
  0
VERTEX
  5
F5
  8
6MM_ENGRAVE
 10
2197.888223122604
 20
917.5556088406144
 30
0.0
  0
VERTEX
  5
F6
  8
6MM_ENGRAVE
 10
2197.888223122657
 20
917.5556088406144
 30
0.0
  0
VERTEX
  5
F7
  8
6MM_ENGRAVE
 10
2177.888223122651
 20
917.5556088406175
 30
0.0
  0
VERTEX
  5
F8
  8
6MM_ENGRAVE
 10
2177.888223122617
 20
914.5556088406144
 30
0.0
  0
VERTEX
  5
F9
  8
6MM_ENGRAVE
 10
2177.888223122619
 20
914.5556088406144
 30
0.0
  0
VERTEX
  5
FA
  8
6MM_ENGRAVE
 10
2177.888223122616
 20
908.5556088406154
 30
0.0
  0
SEQEND
  5
FB
  8
6MM_ENGRAVE
  0
POLYLINE
  5
45
  8
6MM_ENGRAVE
 66
     1
 10
0.0
 20
0.0
 30
0.0
 70
     1
  0
VERTEX
  5
FC
  8
6MM_ENGRAVE
 10
2436.829945602353
 20
1034.163608840613
 30
0.0
 42
0.4142135623730951
  0
VERTEX
  5
FD
  8
6MM_ENGRAVE
 10
2431.579945602353
 20
1039.413608840613
 30
0.0
 42
0.4142135623730951
  0
VERTEX
  5
FE
  8
6MM_ENGRAVE
 10
2426.329945602353
 20
1034.163608840613
 30
0.0
 42
0.4142135623730951
  0
VERTEX
  5
FF
  8
6MM_ENGRAVE
 10
2431.579945602353
 20
1028.913608840613
 30
0.0
 42
0.4142135623730951
  0
SEQEND
  5
100
  8
6MM_ENGRAVE
  0
POLYLINE
  5
46
  8
6MM_ENGRAVE
 66
     1
 10
0.0
 20
0.0
 30
0.0
 70
     1
  0
VERTEX
  5
101
  8
6MM_ENGRAVE
 10
2409.079945602352
 20
1065.163608840615
 30
0.0
  0
VERTEX
  5
102
  8
6MM_ENGRAVE
 10
2409.079945602352
 20
1057.663608840616
 30
0.0
  0
VERTEX
  5
103
  8
6MM_ENGRAVE
 10
2409.079945602339
 20
1056.163608840615
 30
0.0
  0
VERTEX
  5
104
  8
6MM_ENGRAVE
 10
2400.585040496171
 20
1056.163608840613
 30
0.0
  0
VERTEX
  5
105
  8
6MM_ENGRAVE
 10
2400.585040496174
 20
1046.663608840619
 30
0.0
  0
VERTEX
  5
106
  8
6MM_ENGRAVE
 10
2403.585040496174
 20
1046.663608840619
 30
0.0
  0
VERTEX
  5
107
  8
6MM_ENGRAVE
 10
2403.585040496174
 20
1041.627050460602
 30
0.0
  0
VERTEX
  5
108
  8
6MM_ENGRAVE
 10
2403.585040496174
 20
1036.681888030624
 30
0.0
  0
VERTEX
  5
109
  8
6MM_ENGRAVE
 10
2400.585040496174
 20
1036.681888030624
 30
0.0
  0
VERTEX
  5
10A
  8
6MM_ENGRAVE
 10
2400.585040496174
 20
1028.681888030624
 30
0.0
  0
VERTEX
  5
10B
  8
6MM_ENGRAVE
 10
2403.585040496174
 20
1028.681888030624
 30
0.0
  0
VERTEX
  5
10C
  8
6MM_ENGRAVE
 10
2403.585040496174
 20
1020.681888030623
 30
0.0
  0
VERTEX
  5
10D
  8
6MM_ENGRAVE
 10
2400.585040496171
 20
1020.681888030623
 30
0.0
  0
VERTEX
  5
10E
  8
6MM_ENGRAVE
 10
2400.585040496171
 20
1012.681888030623
 30
0.0
  0
VERTEX
  5
10F
  8
6MM_ENGRAVE
 10
2403.585040496174
 20
1012.681888030623
 30
0.0
  0
VERTEX
  5
110
  8
6MM_ENGRAVE
 10
2403.585040496174
 20
1005.663608840614
 30
0.0
  0
VERTEX
  5
111
  8
6MM_ENGRAVE
 10
2403.585040496174
 20
1002.700167220628
 30
0.0
  0
VERTEX
  5
112
  8
6MM_ENGRAVE
 10
2403.585040496264
 20
1001.663608840612
 30
0.0
  0
VERTEX
  5
113
  8
6MM_ENGRAVE
 10
2400.585040496174
 20
1001.663608840613
 30
0.0
  0
VERTEX
  5
114
  8
6MM_ENGRAVE
 10
2400.585040496174
 20
990.2001672206306
 30
0.0
  0
VERTEX
  5
115
  8
6MM_ENGRAVE
 10
2409.079945602352
 20
990.2001672206306
 30
0.0
  0
VERTEX
  5
116
  8
6MM_ENGRAVE
 10
2409.079945602346
 20
993.2001672206271
 30
0.0
  0
VERTEX
  5
117
  8
6MM_ENGRAVE
 10
2409.732648409118
 20
993.2001672206312
 30
0.0
  0
VERTEX
  5
118
  8
6MM_ENGRAVE
 10
2424.079945602356
 20
993.2001672206344
 30
0.0
  0
VERTEX
  5
119
  8
6MM_ENGRAVE
 10
2424.079945602356
 20
990.2001672206343
 30
0.0
  0
VERTEX
  5
11A
  8
6MM_ENGRAVE
 10
2429.732648409129
 20
990.2001672206356
 30
0.0
  0
VERTEX
  5
11B
  8
6MM_ENGRAVE
 10
2431.504718012724
 20
990.200167220632
 30
0.0
  0
VERTEX
  5
11C
  8
6MM_ENGRAVE
 10
2439.079945602353
 20
990.2001672206311
 30
0.0
  0
VERTEX
  5
11D
  8
6MM_ENGRAVE
 10
2439.079945602353
 20
993.2001672206321
 30
0.0
  0
VERTEX
  5
11E
  8
6MM_ENGRAVE
 10
2449.732648409117
 20
993.2001672206321
 30
0.0
  0
VERTEX
  5
11F
  8
6MM_ENGRAVE
 10
2454.079945602356
 20
993.200167220633
 30
0.0
  0
VERTEX
  5
120
  8
6MM_ENGRAVE
 10
2454.079945602356
 20
990.200167220632
 30
0.0
  0
VERTEX
  5
121
  8
6MM_ENGRAVE
 10
2462.574850708531
 20
990.200167220632
 30
0.0
  0
VERTEX
  5
122
  8
6MM_ENGRAVE
 10
2462.574850708532
 20
1001.663608840612
 30
0.0
  0
VERTEX
  5
123
  8
6MM_ENGRAVE
 10
2459.574850708476
 20
1001.663608840612
 30
0.0
  0
VERTEX
  5
124
  8
6MM_ENGRAVE
 10
2459.574850708563
 20
1002.700167220628
 30
0.0
  0
VERTEX
  5
125
  8
6MM_ENGRAVE
 10
2459.574850708531
 20
1002.700167220628
 30
0.0
  0
VERTEX
  5
126
  8
6MM_ENGRAVE
 10
2459.574850708531
 20
1005.663608840613
 30
0.0
  0
VERTEX
  5
127
  8
6MM_ENGRAVE
 10
2459.574850708531
 20
1012.681888030623
 30
0.0
  0
VERTEX
  5
128
  8
6MM_ENGRAVE
 10
2462.574850708533
 20
1012.681888030623
 30
0.0
  0
VERTEX
  5
129
  8
6MM_ENGRAVE
 10
2462.574850708533
 20
1020.681888030623
 30
0.0
  0
VERTEX
  5
12A
  8
6MM_ENGRAVE
 10
2459.574850708531
 20
1020.681888030623
 30
0.0
  0
VERTEX
  5
12B
  8
6MM_ENGRAVE
 10
2459.574850708531
 20
1028.681888030624
 30
0.0
  0
VERTEX
  5
12C
  8
6MM_ENGRAVE
 10
2462.574850708533
 20
1028.681888030624
 30
0.0
  0
VERTEX
  5
12D
  8
6MM_ENGRAVE
 10
2462.574850708534
 20
1036.681888030624
 30
0.0
  0
VERTEX
  5
12E
  8
6MM_ENGRAVE
 10
2459.574850708531
 20
1036.681888030624
 30
0.0
  0
VERTEX
  5
12F
  8
6MM_ENGRAVE
 10
2459.574850708531
 20
1041.627050460602
 30
0.0
  0
VERTEX
  5
130
  8
6MM_ENGRAVE
 10
2459.574850708531
 20
1046.663608840619
 30
0.0
  0
VERTEX
  5
131
  8
6MM_ENGRAVE
 10
2462.574850708532
 20
1046.663608840619
 30
0.0
  0
VERTEX
  5
132
  8
6MM_ENGRAVE
 10
2462.574850708538
 20
1056.163608840609
 30
0.0
  0
VERTEX
  5
133
  8
6MM_ENGRAVE
 10
2454.079945602346
 20
1056.163608840613
 30
0.0
  0
VERTEX
  5
134
  8
6MM_ENGRAVE
 10
2454.079945602362
 20
1056.163608840613
 30
0.0
  0
VERTEX
  5
135
  8
6MM_ENGRAVE
 10
2454.079945602355
 20
1065.163608840613
 30
0.0
  0
VERTEX
  5
136
  8
6MM_ENGRAVE
 10
2439.079945602359
 20
1065.163608840613
 30
0.0
  0
VERTEX
  5
137
  8
6MM_ENGRAVE
 10
2439.079945602351
 20
1056.163608840614
 30
0.0
  0
VERTEX
  5
138
  8
6MM_ENGRAVE
 10
2424.079945602348
 20
1056.163608840613
 30
0.0
  0
VERTEX
  5
139
  8
6MM_ENGRAVE
 10
2424.07994560236
 20
1065.163608840614
 30
0.0
  0
SEQEND
  5
13A
  8
6MM_ENGRAVE
  0
POLYLINE
  5
47
  8
6MM_ENGRAVE
 66
     1
 10
0.0
 20
0.0
 30
0.0
 70
     1
  0
VERTEX
  5
13B
  8
6MM_ENGRAVE
 10
2157.888223122621
 20
1065.163608840614
 30
0.0
  0
VERTEX
  5
13C
  8
6MM_ENGRAVE
 10
2157.88822312262
 20
1059.163608840613
 30
0.0
  0
VERTEX
  5
13D
  8
6MM_ENGRAVE
 10
2157.888223122669
 20
1056.163608840614
 30
0.0
  0
VERTEX
  5
13E
  8
6MM_ENGRAVE
 10
2140.917874627215
 20
1056.163608840614
 30
0.0
  0
VERTEX
  5
13F
  8
6MM_ENGRAVE
 10
2140.917874627216
 20
1046.663608840618
 30
0.0
  0
VERTEX
  5
140
  8
6MM_ENGRAVE
 10
2137.917874627215
 20
1046.663608840618
 30
0.0
  0
VERTEX
  5
141
  8
6MM_ENGRAVE
 10
2137.917874627215
 20
1042.663608840617
 30
0.0
  0
VERTEX
  5
142
  8
6MM_ENGRAVE
 10
2137.917874627215
 20
1036.681888030624
 30
0.0
  0
VERTEX
  5
143
  8
6MM_ENGRAVE
 10
2140.917874627216
 20
1036.681888030624
 30
0.0
  0
VERTEX
  5
144
  8
6MM_ENGRAVE
 10
2140.917874627216
 20
1028.681888030624
 30
0.0
  0
VERTEX
  5
145
  8
6MM_ENGRAVE
 10
2137.917874627215
 20
1028.681888030624
 30
0.0
  0
VERTEX
  5
146
  8
6MM_ENGRAVE
 10
2137.917874627215
 20
1020.681888030624
 30
0.0
  0
VERTEX
  5
147
  8
6MM_ENGRAVE
 10
2140.917874627216
 20
1020.681888030624
 30
0.0
  0
VERTEX
  5
148
  8
6MM_ENGRAVE
 10
2140.917874627216
 20
1012.681888030623
 30
0.0
  0
VERTEX
  5
149
  8
6MM_ENGRAVE
 10
2137.917874627215
 20
1012.681888030623
 30
0.0
  0
VERTEX
  5
14A
  8
6MM_ENGRAVE
 10
2137.917874627215
 20
1005.663608840614
 30
0.0
  0
VERTEX
  5
14B
  8
6MM_ENGRAVE
 10
2137.917874627215
 20
1001.663608840613
 30
0.0
  0
VERTEX
  5
14C
  8
6MM_ENGRAVE
 10
2140.917874627216
 20
1001.663608840613
 30
0.0
  0
VERTEX
  5
14D
  8
6MM_ENGRAVE
 10
2140.917874627215
 20
989.1636088406163
 30
0.0
  0
VERTEX
  5
14E
  8
6MM_ENGRAVE
 10
2157.88822312262
 20
989.163608840617
 30
0.0
  0
VERTEX
  5
14F
  8
6MM_ENGRAVE
 10
2157.888223122615
 20
992.163608840616
 30
0.0
  0
VERTEX
  5
150
  8
6MM_ENGRAVE
 10
2169.998755181051
 20
992.163608840616
 30
0.0
  0
VERTEX
  5
151
  8
6MM_ENGRAVE
 10
2177.888223122617
 20
992.1636088406224
 30
0.0
  0
VERTEX
  5
152
  8
6MM_ENGRAVE
 10
2177.888223122617
 20
989.1636088406161
 30
0.0
  0
VERTEX
  5
153
  8
6MM_ENGRAVE
 10
2197.888223122605
 20
989.1636088406161
 30
0.0
  0
VERTEX
  5
154
  8
6MM_ENGRAVE
 10
2197.888223122604
 20
992.163608840616
 30
0.0
  0
VERTEX
  5
155
  8
6MM_ENGRAVE
 10
2211.829506603207
 20
992.163608840616
 30
0.0
  0
VERTEX
  5
156
  8
6MM_ENGRAVE
 10
2217.888223122616
 20
992.1636088406178
 30
0.0
  0
VERTEX
  5
157
  8
6MM_ENGRAVE
 10
2217.888223122616
 20
989.1636088406161
 30
0.0
  0
VERTEX
  5
158
  8
6MM_ENGRAVE
 10
2236.116153519009
 20
989.1636088406161
 30
0.0
  0
VERTEX
  5
159
  8
6MM_ENGRAVE
 10
2237.888223122605
 20
989.1636088406198
 30
0.0
  0
VERTEX
  5
15A
  8
6MM_ENGRAVE
 10
2237.888223122605
 20
992.1636088406187
 30
0.0
  0
VERTEX
  5
15B
  8
6MM_ENGRAVE
 10
2254.397738555017
 20
992.163608840616
 30
0.0
  0
VERTEX
  5
15C
  8
6MM_ENGRAVE
 10
2257.888223122615
 20
992.1636088406169
 30
0.0
  0
VERTEX
  5
15D
  8
6MM_ENGRAVE
 10
2257.888223122615
 20
989.1636088406152
 30
0.0
  0
VERTEX
  5
15E
  8
6MM_ENGRAVE
 10
2277.590085152201
 20
989.1636088406159
 30
0.0
  0
VERTEX
  5
15F
  8
6MM_ENGRAVE
 10
2277.888223122605
 20
992.163608840616
 30
0.0
  0
VERTEX
  5
160
  8
6MM_ENGRAVE
 10
2289.998755181041
 20
992.163608840616
 30
0.0
  0
VERTEX
  5
161
  8
6MM_ENGRAVE
 10
2297.888223122607
 20
992.1636088406224
 30
0.0
  0
VERTEX
  5
162
  8
6MM_ENGRAVE
 10
2297.888223122607
 20
989.1636088406161
 30
0.0
  0
VERTEX
  5
163
  8
6MM_ENGRAVE
 10
2317.888223122595
 20
989.1636088406161
 30
0.0
  0
VERTEX
  5
164
  8
6MM_ENGRAVE
 10
2317.888223122594
 20
992.163608840616
 30
0.0
  0
VERTEX
  5
165
  8
6MM_ENGRAVE
 10
2331.829506603197
 20
992.163608840616
 30
0.0
  0
VERTEX
  5
166
  8
6MM_ENGRAVE
 10
2337.888223122606
 20
992.1636088406178
 30
0.0
  0
VERTEX
  5
167
  8
6MM_ENGRAVE
 10
2337.888223122606
 20
989.1636088406161
 30
0.0
  0
VERTEX
  5
168
  8
6MM_ENGRAVE
 10
2356.116153518999
 20
989.1636088406161
 30
0.0
  0
VERTEX
  5
169
  8
6MM_ENGRAVE
 10
2357.888223122595
 20
989.1636088406198
 30
0.0
  0
VERTEX
  5
16A
  8
6MM_ENGRAVE
 10
2357.888223122595
 20
992.1636088406187
 30
0.0
  0
VERTEX
  5
16B
  8
6MM_ENGRAVE
 10
2374.397738555007
 20
992.163608840616
 30
0.0
  0
VERTEX
  5
16C
  8
6MM_ENGRAVE
 10
2377.888223122605
 20
992.1636088406169
 30
0.0
  0
VERTEX
  5
16D
  8
6MM_ENGRAVE
 10
2377.888223122605
 20
989.1636088406152
 30
0.0
  0
VERTEX
  5
16E
  8
6MM_ENGRAVE
 10
2393.173688189263
 20
989.1636088406141
 30
0.0
  0
VERTEX
  5
16F
  8
6MM_ENGRAVE
 10
2393.173688189261
 20
1001.663608840613
 30
0.0
  0
VERTEX
  5
170
  8
6MM_ENGRAVE
 10
2396.173688189265
 20
1001.663608840613
 30
0.0
  0
VERTEX
  5
171
  8
6MM_ENGRAVE
 10
2396.173688189264
 20
1005.663608840613
 30
0.0
  0
VERTEX
  5
172
  8
6MM_ENGRAVE
 10
2396.173688189271
 20
1012.681888030623
 30
0.0
  0
VERTEX
  5
173
  8
6MM_ENGRAVE
 10
2393.17368818926
 20
1012.681888030623
 30
0.0
  0
VERTEX
  5
174
  8
6MM_ENGRAVE
 10
2393.17368818926
 20
1020.681888030624
 30
0.0
  0
VERTEX
  5
175
  8
6MM_ENGRAVE
 10
2396.173688189271
 20
1020.681888030623
 30
0.0
  0
VERTEX
  5
176
  8
6MM_ENGRAVE
 10
2396.173688189271
 20
1028.681888030624
 30
0.0
  0
VERTEX
  5
177
  8
6MM_ENGRAVE
 10
2393.17368818926
 20
1028.681888030624
 30
0.0
  0
VERTEX
  5
178
  8
6MM_ENGRAVE
 10
2393.17368818926
 20
1036.681888030624
 30
0.0
  0
VERTEX
  5
179
  8
6MM_ENGRAVE
 10
2396.173688189264
 20
1036.681888030624
 30
0.0
  0
VERTEX
  5
17A
  8
6MM_ENGRAVE
 10
2396.173688189264
 20
1042.663608840618
 30
0.0
  0
VERTEX
  5
17B
  8
6MM_ENGRAVE
 10
2396.173688189264
 20
1046.663608840618
 30
0.0
  0
VERTEX
  5
17C
  8
6MM_ENGRAVE
 10
2393.173688189261
 20
1046.663608840618
 30
0.0
  0
VERTEX
  5
17D
  8
6MM_ENGRAVE
 10
2393.17368818925
 20
1056.163608840613
 30
0.0
  0
VERTEX
  5
17E
  8
6MM_ENGRAVE
 10
2377.888223122601
 20
1056.163608840613
 30
0.0
  0
VERTEX
  5
17F
  8
6MM_ENGRAVE
 10
2377.888223122605
 20
1056.163608840613
 30
0.0
  0
VERTEX
  5
180
  8
6MM_ENGRAVE
 10
2377.888223122605
 20
1059.163608840615
 30
0.0
  0
VERTEX
  5
181
  8
6MM_ENGRAVE
 10
2377.888223122603
 20
1065.163608840613
 30
0.0
  0
VERTEX
  5
182
  8
6MM_ENGRAVE
 10
2357.888223122603
 20
1065.163608840614
 30
0.0
  0
VERTEX
  5
183
  8
6MM_ENGRAVE
 10
2357.888223122594
 20
1059.16360884061
 30
0.0
  0
VERTEX
  5
184
  8
6MM_ENGRAVE
 10
2357.888223122595
 20
1059.16360884061
 30
0.0
  0
VERTEX
  5
185
  8
6MM_ENGRAVE
 10
2357.888223122592
 20
1056.163608840612
 30
0.0
  0
VERTEX
  5
186
  8
6MM_ENGRAVE
 10
2337.888223122475
 20
1056.163608840613
 30
0.0
  0
VERTEX
  5
187
  8
6MM_ENGRAVE
 10
2337.888223122606
 20
1056.163608840612
 30
0.0
  0
VERTEX
  5
188
  8
6MM_ENGRAVE
 10
2337.888223122606
 20
1059.163608840614
 30
0.0
  0
VERTEX
  5
189
  8
6MM_ENGRAVE
 10
2337.888223122623
 20
1065.163608840614
 30
0.0
  0
VERTEX
  5
18A
  8
6MM_ENGRAVE
 10
2317.888223122609
 20
1065.163608840614
 30
0.0
  0
VERTEX
  5
18B
  8
6MM_ENGRAVE
 10
2317.888223122595
 20
1059.163608840614
 30
0.0
  0
VERTEX
  5
18C
  8
6MM_ENGRAVE
 10
2317.888223122594
 20
1056.163608840614
 30
0.0
  0
VERTEX
  5
18D
  8
6MM_ENGRAVE
 10
2317.888223122657
 20
1056.163608840614
 30
0.0
  0
VERTEX
  5
18E
  8
6MM_ENGRAVE
 10
2297.888223122585
 20
1056.163608840611
 30
0.0
  0
VERTEX
  5
18F
  8
6MM_ENGRAVE
 10
2297.888223122607
 20
1056.163608840608
 30
0.0
  0
VERTEX
  5
190
  8
6MM_ENGRAVE
 10
2297.888223122607
 20
1059.163608840614
 30
0.0
  0
VERTEX
  5
191
  8
6MM_ENGRAVE
 10
2297.888223122597
 20
1065.163608840613
 30
0.0
  0
VERTEX
  5
192
  8
6MM_ENGRAVE
 10
2277.888223122615
 20
1065.163608840613
 30
0.0
  0
VERTEX
  5
193
  8
6MM_ENGRAVE
 10
2277.888223122607
 20
1059.163608840614
 30
0.0
  0
VERTEX
  5
194
  8
6MM_ENGRAVE
 10
2277.888223122605
 20
1056.163608840614
 30
0.0
  0
VERTEX
  5
195
  8
6MM_ENGRAVE
 10
2277.888223122651
 20
1056.163608840614
 30
0.0
  0
VERTEX
  5
196
  8
6MM_ENGRAVE
 10
2257.888223122644
 20
1056.163608840614
 30
0.0
  0
VERTEX
  5
197
  8
6MM_ENGRAVE
 10
2257.888223122615
 20
1059.163608840615
 30
0.0
  0
VERTEX
  5
198
  8
6MM_ENGRAVE
 10
2257.888223122616
 20
1059.163608840615
 30
0.0
  0
VERTEX
  5
199
  8
6MM_ENGRAVE
 10
2257.888223122618
 20
1065.163608840614
 30
0.0
  0
VERTEX
  5
19A
  8
6MM_ENGRAVE
 10
2237.888223122607
 20
1065.163608840614
 30
0.0
  0
VERTEX
  5
19B
  8
6MM_ENGRAVE
 10
2237.888223122605
 20
1059.16360884061
 30
0.0
  0
VERTEX
  5
19C
  8
6MM_ENGRAVE
 10
2237.888223122579
 20
1056.163608840613
 30
0.0
  0
VERTEX
  5
19D
  8
6MM_ENGRAVE
 10
2217.888223122659
 20
1056.163608840613
 30
0.0
  0
VERTEX
  5
19E
  8
6MM_ENGRAVE
 10
2217.888223122616
 20
1059.163608840614
 30
0.0
  0
VERTEX
  5
19F
  8
6MM_ENGRAVE
 10
2217.888223122615
 20
1065.163608840613
 30
0.0
  0
VERTEX
  5
1A0
  8
6MM_ENGRAVE
 10
2197.888223122616
 20
1065.163608840613
 30
0.0
  0
VERTEX
  5
1A1
  8
6MM_ENGRAVE
 10
2197.888223122604
 20
1059.163608840614
 30
0.0
  0
VERTEX
  5
1A2
  8
6MM_ENGRAVE
 10
2197.888223122605
 20
1059.163608840614
 30
0.0
  0
VERTEX
  5
1A3
  8
6MM_ENGRAVE
 10
2197.888223122604
 20
1056.163608840614
 30
0.0
  0
VERTEX
  5
1A4
  8
6MM_ENGRAVE
 10
2197.888223122657
 20
1056.163608840614
 30
0.0
  0
VERTEX
  5
1A5
  8
6MM_ENGRAVE
 10
2177.888223122651
 20
1056.163608840611
 30
0.0
  0
VERTEX
  5
1A6
  8
6MM_ENGRAVE
 10
2177.888223122617
 20
1059.163608840614
 30
0.0
  0
VERTEX
  5
1A7
  8
6MM_ENGRAVE
 10
2177.888223122619
 20
1059.163608840614
 30
0.0
  0
VERTEX
  5
1A8
  8
6MM_ENGRAVE
 10
2177.888223122616
 20
1065.163608840613
 30
0.0
  0
SEQEND
  5
1A9
  8
6MM_ENGRAVE
  0
POLYLINE
  5
48
  8
6MM_ENGRAVE
 66
     1
 10
0.0
 20
0.0
 30
0.0
 70
     1
  0
VERTEX
  5
1AA
  8
6MM_ENGRAVE
 10
2157.045781408243
 20
958.449462890625
 30
0.0
  0
VERTEX
  5
1AB
  8
6MM_ENGRAVE
 10
2377.045781408243
 20
958.449462890625
 30
0.0
  0
VERTEX
  5
1AC
  8
6MM_ENGRAVE
 10
2377.045781408243
 20
965.449462890625
 30
0.0
  0
VERTEX
  5
1AD
  8
6MM_ENGRAVE
 10
2157.045781408243
 20
965.449462890625
 30
0.0
  0
SEQEND
  5
1AE
  8
6MM_ENGRAVE
  0
ENDSEC
  0
EOF
