  0
SECTION
  2
HEADER
  9
$ACADVER
  1
AC1009
  9
$DWGCODEPAGE
  3
ansi_1252
  9
$INSBASE
 10
0.0
 20
0.0
 30
0.0
  9
$EXTMIN
 10
-669.1550220204814
 20
-135.5497841101187
 30
0.0
  9
$EXTMAX
 10
-248.639822742476
 20
-20.74964854461684
 30
0.0
  9
$LIMMIN
 10
0.0
 20
0.0
  9
$LIMMAX
 10
12.0
 20
9.0
  9
$ORTHOMODE
 70
     0
  9
$REGENMODE
 70
     1
  9
$FILLMODE
 70
     1
  9
$QTEXTMODE
 70
     0
  9
$MIRRTEXT
 70
     1
  9
$DRAGMODE
 70
     2
  9
$LTSCALE
 40
1.0
  9
$OSMODE
 70
    37
  9
$ATTMODE
 70
     1
  9
$TEXTSIZE
 40
0.2
  9
$TRACEWID
 40
0.05
  9
$TEXTSTYLE
  7
STANDARD
  9
$CLAYER
  8
0
  9
$CELTYPE
  6
BYLAYER
  9
$CECOLOR
 62
   256
  9
$DIMSCALE
 40
1.0
  9
$DIMASZ
 40
0.18
  9
$DIMEXO
 40
0.0625
  9
$DIMDLI
 40
0.38
  9
$DIMRND
 40
0.0
  9
$DIMDLE
 40
0.0
  9
$DIMEXE
 40
0.18
  9
$DIMTP
 40
0.0
  9
$DIMTM
 40
0.0
  9
$DIMTXT
 40
0.18
  9
$DIMCEN
 40
0.09
  9
$DIMTSZ
 40
0.0
  9
$DIMTOL
 70
     0
  9
$DIMLIM
 70
     0
  9
$DIMTIH
 70
     1
  9
$DIMTOH
 70
     1
  9
$DIMSE1
 70
     0
  9
$DIMSE2
 70
     0
  9
$DIMTAD
 70
     0
  9
$DIMZIN
 70
     0
  9
$DIMBLK
  1

  9
$DIMASO
 70
     1
  9
$DIMSHO
 70
     1
  9
$DIMPOST
  1

  9
$DIMAPOST
  1

  9
$DIMALT
 70
     0
  9
$DIMALTD
 70
     2
  9
$DIMALTF
 40
25.4
  9
$DIMLFAC
 40
1.0
  9
$DIMTOFL
 70
     0
  9
$DIMTVP
 40
0.0
  9
$DIMTIX
 70
     0
  9
$DIMSOXD
 70
     0
  9
$DIMSAH
 70
     0
  9
$DIMBLK1
  1

  9
$DIMBLK2
  1

  9
$DIMSTYLE
  2
STANDARD
  9
$DIMCLRD
 70
     0
  9
$DIMCLRE
 70
     0
  9
$DIMCLRT
 70
     0
  9
$DIMTFAC
 40
1.0
  9
$DIMGAP
 40
0.09
  9
$LUNITS
 70
     2
  9
$LUPREC
 70
     4
  9
$SKETCHINC
 40
0.1
  9
$FILLETRAD
 40
0.5
  9
$AUNITS
 70
     0
  9
$AUPREC
 70
     0
  9
$MENU
  1
.
  9
$ELEVATION
 40
0.0
  9
$PELEVATION
 40
0.0
  9
$THICKNESS
 40
0.0
  9
$LIMCHECK
 70
     0
  9
$CHAMFERA
 40
0.5
  9
$CHAMFERB
 40
0.5
  9
$SKPOLY
 70
     0
  9
$TDCREATE
 40
2454910.5
  9
$TDUPDATE
 40
2458445.860171759
  9
$TDINDWG
 40
0.0000000116
  9
$TDUSRTIMER
 40
0.0000000116
  9
$USRTIMER
 70
     1
  9
$ANGBASE
 50
0.0
  9
$ANGDIR
 70
     0
  9
$PDMODE
 70
     0
  9
$PDSIZE
 40
0.0
  9
$PLINEWID
 40
0.0
  9
$COORDS
 70
     1
  9
$SPLFRAME
 70
     0
  9
$SPLINETYPE
 70
     6
  9
$SPLINESEGS
 70
     8
  9
$ATTDIA
 70
     0
  9
$ATTREQ
 70
     1
  9
$HANDLING
 70
     1
  9
$HANDSEED
  5
11F
  9
$SURFTAB1
 70
     6
  9
$SURFTAB2
 70
     6
  9
$SURFTYPE
 70
     6
  9
$SURFU
 70
     6
  9
$SURFV
 70
     6
  9
$UCSNAME
  2

  9
$UCSORG
 10
0.0
 20
0.0
 30
0.0
  9
$UCSXDIR
 10
1.0
 20
0.0
 30
0.0
  9
$UCSYDIR
 10
0.0
 20
1.0
 30
0.0
  9
$PUCSNAME
  2

  9
$PUCSORG
 10
0.0
 20
0.0
 30
0.0
  9
$PUCSXDIR
 10
1.0
 20
0.0
 30
0.0
  9
$PUCSYDIR
 10
0.0
 20
1.0
 30
0.0
  9
$USERI1
 70
     0
  9
$USERI2
 70
     0
  9
$USERI3
 70
     0
  9
$USERI4
 70
     0
  9
$USERI5
 70
     0
  9
$USERR1
 40
0.0
  9
$USERR2
 40
0.0
  9
$USERR3
 40
0.0
  9
$USERR4
 40
0.0
  9
$USERR5
 40
0.0
  9
$WORLDVIEW
 70
     1
  9
$SHADEDGE
 70
     3
  9
$SHADEDIF
 70
    70
  9
$TILEMODE
 70
     1
  9
$MAXACTVP
 70
    64
  9
$PLIMCHECK
 70
     0
  9
$PEXTMIN
 10
1.000000000000000E+20
 20
1.000000000000000E+20
 30
1.000000000000000E+20
  9
$PEXTMAX
 10
-1.000000000000000E+20
 20
-1.000000000000000E+20
 30
-1.000000000000000E+20
  9
$PLIMMIN
 10
0.0
 20
0.0
  9
$PLIMMAX
 10
12.0
 20
9.0
  9
$UNITMODE
 70
     0
  9
$VISRETAIN
 70
     1
  9
$PLINEGEN
 70
     0
  9
$PSLTSCALE
 70
     1
  0
ENDSEC
  0
SECTION
  2
TABLES
  0
TABLE
  2
VPORT
 70
     1
  0
VPORT
  2
*ACTIVE
 70
     0
 10
0.0
 20
0.0
 11
1.0
 21
1.0
 12
10.42990654205607
 22
4.5
 13
0.0
 23
0.0
 14
0.5
 24
0.5
 15
0.5
 25
0.5
 16
0.0
 26
0.0
 36
1.0
 17
0.0
 27
0.0
 37
0.0
 40
9.0
 41
1.972972972850329
 42
50.0
 43
0.0
 44
0.0
 50
0.0
 51
0.0
 71
     0
 72
   100
 73
     1
 74
     3
 75
     0
 76
     0
 77
     0
 78
     0
  0
ENDTAB
  0
TABLE
  2
LTYPE
 70
     2
  0
LTYPE
  2
CONTINUOUS
 70
     0
  3
Solid line
 72
    65
 73
     0
 40
0.0
  0
LTYPE
  2
CONTINUOUS2
 70
     0
  3
Solid Line
 72
    65
 73
     0
 40
0.0
  0
ENDTAB
  0
TABLE
  2
LAYER
 70
     1
  0
LAYER
  2
0
 70
     0
 62
     7
  6
CONTINUOUS
  0
ENDTAB
  0
TABLE
  2
STYLE
 70
     1
  0
STYLE
  2
STANDARD
 70
     0
 40
0.0
 41
1.0
 50
0.0
 71
     0
 42
0.2
  3
txt
  4

  0
ENDTAB
  0
TABLE
  2
VIEW
 70
     0
  0
ENDTAB
  0
TABLE
  2
UCS
 70
     0
  0
ENDTAB
  0
TABLE
  2
APPID
 70
     1
  0
APPID
  2
ACAD
 70
     0
  0
ENDTAB
  0
TABLE
  2
DIMSTYLE
 70
     1
  0
DIMSTYLE
  2
STANDARD
 70
     0
  3

  4

  5

  6

  7

 40
1.0
 41
0.18
 42
0.0625
 43
0.38
 44
0.18
 45
0.0
 46
0.0
 47
0.0
 48
0.0
140
0.18
141
0.09
142
0.0
143
25.4
144
1.0
145
0.0
146
1.0
147
0.09
 71
     0
 72
     0
 73
     1
 74
     1
 75
     0
 76
     0
 77
     0
 78
     0
170
     0
171
     2
172
     0
173
     0
174
     0
175
     0
176
     0
177
     0
178
     0
  0
ENDTAB
  0
ENDSEC
  0
SECTION
  2
BLOCKS
  0
BLOCK
  8
0
  2
$MODEL_SPACE
 70
     0
 10
0.0
 20
0.0
 30
0.0
  3
$MODEL_SPACE
  1

  0
ENDBLK
  5
21
  8
0
  0
BLOCK
 67
     1
  8
0
  2
$PAPER_SPACE
 70
     0
 10
0.0
 20
0.0
 30
0.0
  3
$PAPER_SPACE
  1

  0
ENDBLK
  5
1D
 67
     1
  8
0
  0
ENDSEC
  0
SECTION
  2
ENTITIES
  0
POLYLINE
  5
40
  8
0
 66
     1
 10
0.0
 20
0.0
 30
0.0
 70
     1
  0
VERTEX
  5
4A
  8
0
 10
-456.0748389311671
 20
-40.64971632736756
 30
0.0
  0
VERTEX
  5
4B
  8
0
 10
-456.0748389311674
 20
-55.64971632736762
 30
0.0
  0
VERTEX
  5
4C
  8
0
 10
-453.0748389311676
 20
-55.64971632736466
 30
0.0
  0
VERTEX
  5
4D
  8
0
 10
-453.0748389311677
 20
-70.64971632736881
 30
0.0
  0
VERTEX
  5
4E
  8
0
 10
-456.0748389311674
 20
-70.64971632736767
 30
0.0
  0
VERTEX
  5
4F
  8
0
 10
-456.0748389311674
 20
-85.64971632736771
 30
0.0
  0
VERTEX
  5
50
  8
0
 10
-453.0748389311676
 20
-85.6497163273659
 30
0.0
  0
VERTEX
  5
51
  8
0
 10
-453.0748389311676
 20
-100.6497163273705
 30
0.0
  0
VERTEX
  5
52
  8
0
 10
-456.0748389311674
 20
-100.6497163273678
 30
0.0
  0
VERTEX
  5
53
  8
0
 10
-456.0748389311674
 20
-115.6497163273715
 30
0.0
  0
VERTEX
  5
54
  8
0
 10
-453.0748389311677
 20
-115.6497163273678
 30
0.0
  0
VERTEX
  5
55
  8
0
 10
-453.0748389311671
 20
-132.5497841101184
 30
0.0
  0
VERTEX
  5
56
  8
0
 10
-436.1044927032511
 20
-132.5497841101185
 30
0.0
  0
VERTEX
  5
57
  8
0
 10
-436.1044927032569
 20
-135.5497841101186
 30
0.0
  0
VERTEX
  5
58
  8
0
 10
-416.104492703238
 20
-135.5497841101186
 30
0.0
  0
VERTEX
  5
59
  8
0
 10
-416.1044927032512
 20
-132.5497841101185
 30
0.0
  0
VERTEX
  5
5A
  8
0
 10
-396.1044927032513
 20
-132.5497841101185
 30
0.0
  0
VERTEX
  5
5B
  8
0
 10
-396.1044927032579
 20
-135.5497841101186
 30
0.0
  0
VERTEX
  5
5C
  8
0
 10
-376.1044927032514
 20
-135.5497841101186
 30
0.0
  0
VERTEX
  5
5D
  8
0
 10
-376.1044927032585
 20
-132.5497841101185
 30
0.0
  0
VERTEX
  5
5E
  8
0
 10
-356.1044927032516
 20
-132.5497841101185
 30
0.0
  0
VERTEX
  5
5F
  8
0
 10
-356.104492703259
 20
-135.5497841101186
 30
0.0
  0
VERTEX
  5
60
  8
0
 10
-336.1044927032518
 20
-135.5497841101186
 30
0.0
  0
VERTEX
  5
61
  8
0
 10
-336.1044927032596
 20
-132.5497841101185
 30
0.0
  0
VERTEX
  5
62
  8
0
 10
-316.1044927032406
 20
-132.5497841101185
 30
0.0
  0
VERTEX
  5
63
  8
0
 10
-316.1044927032519
 20
-135.5497841101186
 30
0.0
  0
VERTEX
  5
64
  8
0
 10
-300.8448037176572
 20
-135.5497841101184
 30
0.0
  0
VERTEX
  5
65
  8
0
 10
-300.844803717657
 20
-115.6497163273563
 30
0.0
  0
VERTEX
  5
66
  8
0
 10
-303.8448037176572
 20
-115.6497163273678
 30
0.0
  0
VERTEX
  5
67
  8
0
 10
-303.8448037176572
 20
-100.6497163273678
 30
0.0
  0
VERTEX
  5
68
  8
0
 10
-300.844803717657
 20
-100.6497163273772
 30
0.0
  0
VERTEX
  5
69
  8
0
 10
-300.844803717657
 20
-85.64971632736771
 30
0.0
  0
VERTEX
  5
6A
  8
0
 10
-303.8448037176572
 20
-85.64971632738227
 30
0.0
  0
VERTEX
  5
6B
  8
0
 10
-303.8448037176572
 20
-70.6497163273604
 30
0.0
  0
VERTEX
  5
6C
  8
0
 10
-300.844803717657
 20
-70.64971632736767
 30
0.0
  0
VERTEX
  5
6D
  8
0
 10
-300.844803717657
 20
-55.64971632736512
 30
0.0
  0
VERTEX
  5
6E
  8
0
 10
-303.8448037176572
 20
-55.64971632736762
 30
0.0
  0
VERTEX
  5
6F
  8
0
 10
-303.8448037176572
 20
-40.64971632736756
 30
0.0
  0
VERTEX
  5
70
  8
0
 10
-300.844803717657
 20
-40.64971632738257
 30
0.0
  0
VERTEX
  5
71
  8
0
 10
-300.8448037176572
 20
-20.74964854461741
 30
0.0
  0
VERTEX
  5
72
  8
0
 10
-316.1044927032519
 20
-20.74964854461718
 30
0.0
  0
VERTEX
  5
73
  8
0
 10
-316.1044927032473
 20
-23.74964854461764
 30
0.0
  0
VERTEX
  5
74
  8
0
 10
-336.1044927032518
 20
-23.74964854461764
 30
0.0
  0
VERTEX
  5
75
  8
0
 10
-336.1044927032443
 20
-20.74964854461718
 30
0.0
  0
VERTEX
  5
76
  8
0
 10
-356.1044927032516
 20
-20.74964854461707
 30
0.0
  0
VERTEX
  5
77
  8
0
 10
-356.1044927032409
 20
-23.74964854461752
 30
0.0
  0
VERTEX
  5
78
  8
0
 10
-376.1044927032519
 20
-23.74964854461741
 30
0.0
  0
VERTEX
  5
79
  8
0
 10
-376.1044927032514
 20
-20.74964854461707
 30
0.0
  0
VERTEX
  5
7A
  8
0
 10
-396.104492703254
 20
-20.74964854461695
 30
0.0
  0
VERTEX
  5
7B
  8
0
 10
-396.1044927032513
 20
-23.74964854461741
 30
0.0
  0
VERTEX
  5
7C
  8
0
 10
-416.1044927032512
 20
-23.74964854461741
 30
0.0
  0
VERTEX
  5
7D
  8
0
 10
-416.1044927032509
 20
-20.74964854461695
 30
0.0
  0
VERTEX
  5
7E
  8
0
 10
-436.1044927032672
 20
-20.74964854461684
 30
0.0
  0
VERTEX
  5
7F
  8
0
 10
-436.1044927032511
 20
-23.74964854461729
 30
0.0
  0
VERTEX
  5
80
  8
0
 10
-453.0748389311671
 20
-23.74964854461695
 30
0.0
  0
VERTEX
  5
81
  8
0
 10
-453.0748389311677
 20
-40.64971632736984
 30
0.0
  0
SEQEND
  5
82
  8
0
  0
POLYLINE
  5
41
  8
0
 66
     1
 10
0.0
 20
0.0
 30
0.0
 70
     1
  0
VERTEX
  5
83
  8
0
 10
-516.9249868069713
 20
-59.80666719869981
 30
0.0
  0
VERTEX
  5
84
  8
0
 10
-516.9249868069713
 20
-66.80666719869981
 30
0.0
  0
VERTEX
  5
85
  8
0
 10
-533.8953330348712
 20
-66.80666719869981
 30
0.0
  0
VERTEX
  5
86
  8
0
 10
-533.8953330348712
 20
-75.80666719869981
 30
0.0
  0
VERTEX
  5
87
  8
0
 10
-553.8953330348876
 20
-75.80666719869981
 30
0.0
  0
VERTEX
  5
88
  8
0
 10
-553.8953330348876
 20
-66.80666719869981
 30
0.0
  0
VERTEX
  5
89
  8
0
 10
-573.8953330348844
 20
-66.80666719869981
 30
0.0
  0
VERTEX
  5
8A
  8
0
 10
-573.8953330348844
 20
-75.80666719869981
 30
0.0
  0
VERTEX
  5
8B
  8
0
 10
-593.895333034887
 20
-75.80666719869981
 30
0.0
  0
VERTEX
  5
8C
  8
0
 10
-593.895333034887
 20
-66.80666719869981
 30
0.0
  0
VERTEX
  5
8D
  8
0
 10
-613.8953330348868
 20
-66.80666719869981
 30
0.0
  0
VERTEX
  5
8E
  8
0
 10
-613.8953330348868
 20
-75.80666719869981
 30
0.0
  0
VERTEX
  5
8F
  8
0
 10
-633.8953330348942
 20
-75.80666719869981
 30
0.0
  0
VERTEX
  5
90
  8
0
 10
-633.8953330348942
 20
-66.80666719869981
 30
0.0
  0
VERTEX
  5
91
  8
0
 10
-653.8953330348867
 20
-66.80666719869981
 30
0.0
  0
VERTEX
  5
92
  8
0
 10
-653.8953330348867
 20
-75.80666719869981
 30
0.0
  0
VERTEX
  5
93
  8
0
 10
-666.155022020481
 20
-75.80666719869981
 30
0.0
  0
VERTEX
  5
94
  8
0
 10
-666.155022020481
 20
-59.80666719869981
 30
0.0
  0
VERTEX
  5
95
  8
0
 10
-669.1550220204812
 20
-59.80666719869981
 30
0.0
  0
VERTEX
  5
96
  8
0
 10
-669.1550220204812
 20
-46.80666719869981
 30
0.0
  0
VERTEX
  5
97
  8
0
 10
-666.155022020481
 20
-46.80666719869981
 30
0.0
  0
VERTEX
  5
98
  8
0
 10
-666.155022020481
 20
-36.80666719869981
 30
0.0
  0
VERTEX
  5
99
  8
0
 10
-653.8953330348867
 20
-36.80666719869981
 30
0.0
  0
VERTEX
  5
9A
  8
0
 10
-653.8953330348867
 20
-30.80666719869981
 30
0.0
  0
VERTEX
  5
9B
  8
0
 10
-633.8953330348942
 20
-30.80666719869981
 30
0.0
  0
VERTEX
  5
9C
  8
0
 10
-633.8953330348942
 20
-36.80666719869981
 30
0.0
  0
VERTEX
  5
9D
  8
0
 10
-613.8953330348868
 20
-36.80666719869981
 30
0.0
  0
VERTEX
  5
9E
  8
0
 10
-613.8953330348868
 20
-30.80666719869981
 30
0.0
  0
VERTEX
  5
9F
  8
0
 10
-593.895333034887
 20
-30.80666719869981
 30
0.0
  0
VERTEX
  5
A0
  8
0
 10
-593.895333034887
 20
-36.80666719869981
 30
0.0
  0
VERTEX
  5
A1
  8
0
 10
-573.8953330348844
 20
-36.80666719869981
 30
0.0
  0
VERTEX
  5
A2
  8
0
 10
-573.8953330348845
 20
-30.80666719869981
 30
0.0
  0
VERTEX
  5
A3
  8
0
 10
-553.8953330348876
 20
-30.80666719869981
 30
0.0
  0
VERTEX
  5
A4
  8
0
 10
-553.8953330348876
 20
-36.80666719869981
 30
0.0
  0
VERTEX
  5
A5
  8
0
 10
-533.8953330348712
 20
-36.80666719869981
 30
0.0
  0
VERTEX
  5
A6
  8
0
 10
-533.8953330348712
 20
-30.80666719869981
 30
0.0
  0
VERTEX
  5
A7
  8
0
 10
-516.9249868069713
 20
-30.80666719869981
 30
0.0
  0
VERTEX
  5
A8
  8
0
 10
-516.9249868069712
 20
-46.80666719869981
 30
0.0
  0
VERTEX
  5
A9
  8
0
 10
-513.9249868069711
 20
-46.80666719869981
 30
0.0
  0
VERTEX
  5
AA
  8
0
 10
-513.9249868069711
 20
-59.80666719869981
 30
0.0
  0
SEQEND
  5
AB
  8
0
  0
POLYLINE
  5
42
  8
0
 66
     1
 10
0.0
 20
0.0
 30
0.0
 70
     1
  0
VERTEX
  5
AC
  8
0
 10
-277.6398227424759
 20
-135.5497841101187
 30
0.0
  0
VERTEX
  5
AD
  8
0
 10
-277.6398227424767
 20
-132.5497841101184
 30
0.0
  0
VERTEX
  5
AE
  8
0
 10
-264.6398227424752
 20
-132.5497841101184
 30
0.0
  0
VERTEX
  5
AF
  8
0
 10
-264.6398227424759
 20
-135.5497841101185
 30
0.0
  0
VERTEX
  5
B0
  8
0
 10
-257.6398227424759
 20
-135.5497841101187
 30
0.0
  0
VERTEX
  5
B1
  8
0
 10
-257.639822742476
 20
-115.6497163273715
 30
0.0
  0
VERTEX
  5
B2
  8
0
 10
-248.639822742476
 20
-115.6497163273715
 30
0.0
  0
VERTEX
  5
B3
  8
0
 10
-248.639822742476
 20
-100.6497163273678
 30
0.0
  0
VERTEX
  5
B4
  8
0
 10
-257.6398227424759
 20
-100.6497163273678
 30
0.0
  0
VERTEX
  5
B5
  8
0
 10
-257.6398227424759
 20
-85.64971632736771
 30
0.0
  0
VERTEX
  5
B6
  8
0
 10
-248.639822742476
 20
-85.64971632736771
 30
0.0
  0
VERTEX
  5
B7
  8
0
 10
-248.639822742476
 20
-70.64971632736767
 30
0.0
  0
VERTEX
  5
B8
  8
0
 10
-257.6398227424759
 20
-70.64971632736768
 30
0.0
  0
VERTEX
  5
B9
  8
0
 10
-257.6398227424759
 20
-55.64971632736761
 30
0.0
  0
VERTEX
  5
BA
  8
0
 10
-248.639822742476
 20
-55.64971632736762
 30
0.0
  0
VERTEX
  5
BB
  8
0
 10
-248.639822742476
 20
-40.64971632736756
 30
0.0
  0
VERTEX
  5
BC
  8
0
 10
-257.639822742476
 20
-40.64971632736758
 30
0.0
  0
VERTEX
  5
BD
  8
0
 10
-257.639822742476
 20
-20.74964854461684
 30
0.0
  0
VERTEX
  5
BE
  8
0
 10
-264.6398227424759
 20
-20.74964854461684
 30
0.0
  0
VERTEX
  5
BF
  8
0
 10
-264.6398227424759
 20
-23.74964854461695
 30
0.0
  0
VERTEX
  5
C0
  8
0
 10
-277.6398227424761
 20
-23.74964854461695
 30
0.0
  0
VERTEX
  5
C1
  8
0
 10
-277.6398227424759
 20
-20.74964854461685
 30
0.0
  0
VERTEX
  5
C2
  8
0
 10
-293.6398227424759
 20
-20.74964854461685
 30
0.0
  0
VERTEX
  5
C3
  8
0
 10
-293.6398227424759
 20
-40.64971632736757
 30
0.0
  0
VERTEX
  5
C4
  8
0
 10
-287.6398227424759
 20
-40.64971632736756
 30
0.0
  0
VERTEX
  5
C5
  8
0
 10
-287.6398227424759
 20
-55.64971632736768
 30
0.0
  0
VERTEX
  5
C6
  8
0
 10
-293.6398227424759
 20
-55.64971632736762
 30
0.0
  0
VERTEX
  5
C7
  8
0
 10
-293.6398227424759
 20
-70.64971632736767
 30
0.0
  0
VERTEX
  5
C8
  8
0
 10
-287.6398227424759
 20
-70.64971632736763
 30
0.0
  0
VERTEX
  5
C9
  8
0
 10
-287.6398227424759
 20
-85.64971632736778
 30
0.0
  0
VERTEX
  5
CA
  8
0
 10
-293.639822742476
 20
-85.64971632736771
 30
0.0
  0
VERTEX
  5
CB
  8
0
 10
-293.6398227424759
 20
-100.6497163273682
 30
0.0
  0
VERTEX
  5
CC
  8
0
 10
-287.6398227424759
 20
-100.6497163273678
 30
0.0
  0
VERTEX
  5
CD
  8
0
 10
-287.6398227424759
 20
-115.6497163273715
 30
0.0
  0
VERTEX
  5
CE
  8
0
 10
-293.639822742476
 20
-115.6497163273712
 30
0.0
  0
VERTEX
  5
CF
  8
0
 10
-293.6398227424759
 20
-135.5497841101186
 30
0.0
  0
SEQEND
  5
D0
  8
0
  0
POLYLINE
  5
43
  8
0
 66
     1
 10
0.0
 20
0.0
 30
0.0
 70
     1
  0
VERTEX
  5
D1
  8
0
 10
-490.9319966555165
 20
-135.5497841101185
 30
0.0
  0
VERTEX
  5
D2
  8
0
 10
-490.9319966555165
 20
-132.5497841101184
 30
0.0
  0
VERTEX
  5
D3
  8
0
 10
-477.9319966555162
 20
-132.5497841101184
 30
0.0
  0
VERTEX
  5
D4
  8
0
 10
-477.9319966555165
 20
-135.5497841101187
 30
0.0
  0
VERTEX
  5
D5
  8
0
 10
-461.9319966555166
 20
-135.5497841101186
 30
0.0
  0
VERTEX
  5
D6
  8
0
 10
-461.9319966555165
 20
-115.6497163273712
 30
0.0
  0
VERTEX
  5
D7
  8
0
 10
-467.9319966555166
 20
-115.6497163273715
 30
0.0
  0
VERTEX
  5
D8
  8
0
 10
-467.9319966555166
 20
-100.6497163273678
 30
0.0
  0
VERTEX
  5
D9
  8
0
 10
-461.9319966555166
 20
-100.6497163273682
 30
0.0
  0
VERTEX
  5
DA
  8
0
 10
-461.9319966555165
 20
-85.64971632736771
 30
0.0
  0
VERTEX
  5
DB
  8
0
 10
-467.9319966555166
 20
-85.64971632736778
 30
0.0
  0
VERTEX
  5
DC
  8
0
 10
-467.9319966555166
 20
-70.64971632736763
 30
0.0
  0
VERTEX
  5
DD
  8
0
 10
-461.9319966555166
 20
-70.64971632736767
 30
0.0
  0
VERTEX
  5
DE
  8
0
 10
-461.9319966555166
 20
-55.64971632736763
 30
0.0
  0
VERTEX
  5
DF
  8
0
 10
-467.9319966555166
 20
-55.64971632736768
 30
0.0
  0
VERTEX
  5
E0
  8
0
 10
-467.9319966555166
 20
-40.64971632736757
 30
0.0
  0
VERTEX
  5
E1
  8
0
 10
-461.9319966555166
 20
-40.64971632736757
 30
0.0
  0
VERTEX
  5
E2
  8
0
 10
-461.9319966555166
 20
-20.74964854461685
 30
0.0
  0
VERTEX
  5
E3
  8
0
 10
-477.9319966555165
 20
-20.74964854461685
 30
0.0
  0
VERTEX
  5
E4
  8
0
 10
-477.9319966555164
 20
-23.74964854461695
 30
0.0
  0
VERTEX
  5
E5
  8
0
 10
-490.9319966555166
 20
-23.74964854461695
 30
0.0
  0
VERTEX
  5
E6
  8
0
 10
-490.9319966555165
 20
-20.74964854461684
 30
0.0
  0
VERTEX
  5
E7
  8
0
 10
-497.9319966555165
 20
-20.74964854461684
 30
0.0
  0
VERTEX
  5
E8
  8
0
 10
-497.9319966555165
 20
-40.64971632736759
 30
0.0
  0
VERTEX
  5
E9
  8
0
 10
-506.9319966555165
 20
-40.64971632736756
 30
0.0
  0
VERTEX
  5
EA
  8
0
 10
-506.9319966555165
 20
-55.64971632736763
 30
0.0
  0
VERTEX
  5
EB
  8
0
 10
-497.9319966555165
 20
-55.64971632736761
 30
0.0
  0
VERTEX
  5
EC
  8
0
 10
-497.9319966555165
 20
-70.64971632736768
 30
0.0
  0
VERTEX
  5
ED
  8
0
 10
-506.9319966555165
 20
-70.64971632736767
 30
0.0
  0
VERTEX
  5
EE
  8
0
 10
-506.9319966555165
 20
-85.64971632736771
 30
0.0
  0
VERTEX
  5
EF
  8
0
 10
-497.9319966555165
 20
-85.64971632736771
 30
0.0
  0
VERTEX
  5
F0
  8
0
 10
-497.9319966555165
 20
-100.6497163273678
 30
0.0
  0
VERTEX
  5
F1
  8
0
 10
-506.9319966555165
 20
-100.6497163273678
 30
0.0
  0
VERTEX
  5
F2
  8
0
 10
-506.9319966555165
 20
-115.6497163273715
 30
0.0
  0
VERTEX
  5
F3
  8
0
 10
-497.9319966555165
 20
-115.6497163273715
 30
0.0
  0
VERTEX
  5
F4
  8
0
 10
-497.9319966555165
 20
-135.5497841101186
 30
0.0
  0
SEQEND
  5
F5
  8
0
  0
POLYLINE
  5
44
  8
0
 66
     1
 10
0.0
 20
0.0
 30
0.0
 70
     1
  0
VERTEX
  5
F6
  8
0
 10
-666.1550220204812
 20
-111.2180384361573
 30
0.0
  0
VERTEX
  5
F7
  8
0
 10
-666.1550220204812
 20
-118.2180384361573
 30
0.0
  0
VERTEX
  5
F8
  8
0
 10
-649.1846757925813
 20
-118.2180384361573
 30
0.0
  0
VERTEX
  5
F9
  8
0
 10
-649.1846757925813
 20
-127.2180384361573
 30
0.0
  0
VERTEX
  5
FA
  8
0
 10
-629.1846757925648
 20
-127.2180384361573
 30
0.0
  0
VERTEX
  5
FB
  8
0
 10
-629.1846757925648
 20
-118.2180384361573
 30
0.0
  0
VERTEX
  5
FC
  8
0
 10
-609.1846757925679
 20
-118.2180384361573
 30
0.0
  0
VERTEX
  5
FD
  8
0
 10
-609.1846757925679
 20
-127.2180384361573
 30
0.0
  0
VERTEX
  5
FE
  8
0
 10
-589.1846757925653
 20
-127.2180384361573
 30
0.0
  0
VERTEX
  5
FF
  8
0
 10
-589.1846757925653
 20
-118.2180384361573
 30
0.0
  0
VERTEX
  5
100
  8
0
 10
-569.1846757925654
 20
-118.2180384361573
 30
0.0
  0
VERTEX
  5
101
  8
0
 10
-569.1846757925654
 20
-127.2180384361573
 30
0.0
  0
VERTEX
  5
102
  8
0
 10
-549.1846757925579
 20
-127.2180384361573
 30
0.0
  0
VERTEX
  5
103
  8
0
 10
-549.1846757925579
 20
-118.2180384361573
 30
0.0
  0
VERTEX
  5
104
  8
0
 10
-529.1846757925654
 20
-118.2180384361573
 30
0.0
  0
VERTEX
  5
105
  8
0
 10
-529.1846757925654
 20
-127.2180384361573
 30
0.0
  0
VERTEX
  5
106
  8
0
 10
-516.9249868069711
 20
-127.2180384361573
 30
0.0
  0
VERTEX
  5
107
  8
0
 10
-516.9249868069711
 20
-111.2180384361573
 30
0.0
  0
VERTEX
  5
108
  8
0
 10
-513.9249868069709
 20
-111.2180384361573
 30
0.0
  0
VERTEX
  5
109
  8
0
 10
-513.9249868069709
 20
-98.21803843615731
 30
0.0
  0
VERTEX
  5
10A
  8
0
 10
-516.9249868069711
 20
-98.21803843615731
 30
0.0
  0
VERTEX
  5
10B
  8
0
 10
-516.9249868069711
 20
-88.21803843615731
 30
0.0
  0
VERTEX
  5
10C
  8
0
 10
-529.1846757925654
 20
-88.21803843615731
 30
0.0
  0
VERTEX
  5
10D
  8
0
 10
-529.1846757925654
 20
-82.21803843615731
 30
0.0
  0
VERTEX
  5
10E
  8
0
 10
-549.1846757925579
 20
-82.21803843615731
 30
0.0
  0
VERTEX
  5
10F
  8
0
 10
-549.1846757925579
 20
-88.21803843615731
 30
0.0
  0
VERTEX
  5
110
  8
0
 10
-569.1846757925654
 20
-88.21803843615731
 30
0.0
  0
VERTEX
  5
111
  8
0
 10
-569.1846757925654
 20
-82.21803843615731
 30
0.0
  0
VERTEX
  5
112
  8
0
 10
-589.1846757925653
 20
-82.21803843615731
 30
0.0
  0
VERTEX
  5
113
  8
0
 10
-589.1846757925653
 20
-88.21803843615731
 30
0.0
  0
VERTEX
  5
114
  8
0
 10
-609.1846757925679
 20
-88.21803843615731
 30
0.0
  0
VERTEX
  5
115
  8
0
 10
-609.1846757925678
 20
-82.21803843615731
 30
0.0
  0
VERTEX
  5
116
  8
0
 10
-629.1846757925648
 20
-82.21803843615731
 30
0.0
  0
VERTEX
  5
117
  8
0
 10
-629.1846757925648
 20
-88.21803843615731
 30
0.0
  0
VERTEX
  5
118
  8
0
 10
-649.1846757925813
 20
-88.21803843615731
 30
0.0
  0
VERTEX
  5
119
  8
0
 10
-649.1846757925813
 20
-82.21803843615731
 30
0.0
  0
VERTEX
  5
11A
  8
0
 10
-666.1550220204812
 20
-82.21803843615731
 30
0.0
  0
VERTEX
  5
11B
  8
0
 10
-666.1550220204813
 20
-98.21803843615731
 30
0.0
  0
VERTEX
  5
11C
  8
0
 10
-669.1550220204814
 20
-98.21803843615731
 30
0.0
  0
VERTEX
  5
11D
  8
0
 10
-669.1550220204814
 20
-111.2180384361573
 30
0.0
  0
SEQEND
  5
11E
  8
0
  0
ENDSEC
  0
EOF
