  0
SECTION
  2
HEADER
  9
$ACADVER
  1
AC1009
  9
$DWGCODEPAGE
  3
ansi_1252
  9
$INSBASE
 10
0.0
 20
0.0
 30
0.0
  9
$EXTMIN
 10
-143.7178505800584
 20
-272.0758687993084
 30
0.0
  9
$EXTMAX
 10
-13.58716382845427
 20
-205.4675968070647
 30
0.0
  9
$LIMMIN
 10
0.0
 20
0.0
  9
$LIMMAX
 10
12.0
 20
9.0
  9
$ORTHOMODE
 70
     0
  9
$REGENMODE
 70
     1
  9
$FILLMODE
 70
     1
  9
$QTEXTMODE
 70
     0
  9
$MIRRTEXT
 70
     1
  9
$DRAGMODE
 70
     2
  9
$LTSCALE
 40
1.0
  9
$OSMODE
 70
    37
  9
$ATTMODE
 70
     1
  9
$TEXTSIZE
 40
0.2
  9
$TRACEWID
 40
0.05
  9
$TEXTSTYLE
  7
STANDARD
  9
$CLAYER
  8
0
  9
$CELTYPE
  6
BYLAYER
  9
$CECOLOR
 62
   256
  9
$DIMSCALE
 40
1.0
  9
$DIMASZ
 40
0.18
  9
$DIMEXO
 40
0.0625
  9
$DIMDLI
 40
0.38
  9
$DIMRND
 40
0.0
  9
$DIMDLE
 40
0.0
  9
$DIMEXE
 40
0.18
  9
$DIMTP
 40
0.0
  9
$DIMTM
 40
0.0
  9
$DIMTXT
 40
0.18
  9
$DIMCEN
 40
0.09
  9
$DIMTSZ
 40
0.0
  9
$DIMTOL
 70
     0
  9
$DIMLIM
 70
     0
  9
$DIMTIH
 70
     1
  9
$DIMTOH
 70
     1
  9
$DIMSE1
 70
     0
  9
$DIMSE2
 70
     0
  9
$DIMTAD
 70
     0
  9
$DIMZIN
 70
     0
  9
$DIMBLK
  1

  9
$DIMASO
 70
     1
  9
$DIMSHO
 70
     1
  9
$DIMPOST
  1

  9
$DIMAPOST
  1

  9
$DIMALT
 70
     0
  9
$DIMALTD
 70
     2
  9
$DIMALTF
 40
25.4
  9
$DIMLFAC
 40
1.0
  9
$DIMTOFL
 70
     0
  9
$DIMTVP
 40
0.0
  9
$DIMTIX
 70
     0
  9
$DIMSOXD
 70
     0
  9
$DIMSAH
 70
     0
  9
$DIMBLK1
  1

  9
$DIMBLK2
  1

  9
$DIMSTYLE
  2
STANDARD
  9
$DIMCLRD
 70
     0
  9
$DIMCLRE
 70
     0
  9
$DIMCLRT
 70
     0
  9
$DIMTFAC
 40
1.0
  9
$DIMGAP
 40
0.09
  9
$LUNITS
 70
     2
  9
$LUPREC
 70
     4
  9
$SKETCHINC
 40
0.1
  9
$FILLETRAD
 40
0.5
  9
$AUNITS
 70
     0
  9
$AUPREC
 70
     0
  9
$MENU
  1
.
  9
$ELEVATION
 40
0.0
  9
$PELEVATION
 40
0.0
  9
$THICKNESS
 40
0.0
  9
$LIMCHECK
 70
     0
  9
$CHAMFERA
 40
0.5
  9
$CHAMFERB
 40
0.5
  9
$SKPOLY
 70
     0
  9
$TDCREATE
 40
2454910.5
  9
$TDUPDATE
 40
2458448.763130127
  9
$TDINDWG
 40
0.0000000116
  9
$TDUSRTIMER
 40
0.0000000116
  9
$USRTIMER
 70
     1
  9
$ANGBASE
 50
0.0
  9
$ANGDIR
 70
     0
  9
$PDMODE
 70
     0
  9
$PDSIZE
 40
0.0
  9
$PLINEWID
 40
0.0
  9
$COORDS
 70
     1
  9
$SPLFRAME
 70
     0
  9
$SPLINETYPE
 70
     6
  9
$SPLINESEGS
 70
     8
  9
$ATTDIA
 70
     0
  9
$ATTREQ
 70
     1
  9
$HANDLING
 70
     1
  9
$HANDSEED
  5
319
  9
$SURFTAB1
 70
     6
  9
$SURFTAB2
 70
     6
  9
$SURFTYPE
 70
     6
  9
$SURFU
 70
     6
  9
$SURFV
 70
     6
  9
$UCSNAME
  2

  9
$UCSORG
 10
0.0
 20
0.0
 30
0.0
  9
$UCSXDIR
 10
1.0
 20
0.0
 30
0.0
  9
$UCSYDIR
 10
0.0
 20
1.0
 30
0.0
  9
$PUCSNAME
  2

  9
$PUCSORG
 10
0.0
 20
0.0
 30
0.0
  9
$PUCSXDIR
 10
1.0
 20
0.0
 30
0.0
  9
$PUCSYDIR
 10
0.0
 20
1.0
 30
0.0
  9
$USERI1
 70
     0
  9
$USERI2
 70
     0
  9
$USERI3
 70
     0
  9
$USERI4
 70
     0
  9
$USERI5
 70
     0
  9
$USERR1
 40
0.0
  9
$USERR2
 40
0.0
  9
$USERR3
 40
0.0
  9
$USERR4
 40
0.0
  9
$USERR5
 40
0.0
  9
$WORLDVIEW
 70
     1
  9
$SHADEDGE
 70
     3
  9
$SHADEDIF
 70
    70
  9
$TILEMODE
 70
     1
  9
$MAXACTVP
 70
    64
  9
$PLIMCHECK
 70
     0
  9
$PEXTMIN
 10
1.000000000000000E+20
 20
1.000000000000000E+20
 30
1.000000000000000E+20
  9
$PEXTMAX
 10
-1.000000000000000E+20
 20
-1.000000000000000E+20
 30
-1.000000000000000E+20
  9
$PLIMMIN
 10
0.0
 20
0.0
  9
$PLIMMAX
 10
12.0
 20
9.0
  9
$UNITMODE
 70
     0
  9
$VISRETAIN
 70
     1
  9
$PLINEGEN
 70
     0
  9
$PSLTSCALE
 70
     1
  0
ENDSEC
  0
SECTION
  2
TABLES
  0
TABLE
  2
VPORT
 70
     1
  0
VPORT
  2
*ACTIVE
 70
     0
 10
0.0
 20
0.0
 11
1.0
 21
1.0
 12
10.42990654205607
 22
4.5
 13
0.0
 23
0.0
 14
0.5
 24
0.5
 15
0.5
 25
0.5
 16
0.0
 26
0.0
 36
1.0
 17
0.0
 27
0.0
 37
0.0
 40
9.0
 41
1.972972972850329
 42
50.0
 43
0.0
 44
0.0
 50
0.0
 51
0.0
 71
     0
 72
   100
 73
     1
 74
     3
 75
     0
 76
     0
 77
     0
 78
     0
  0
ENDTAB
  0
TABLE
  2
LTYPE
 70
     2
  0
LTYPE
  2
CONTINUOUS
 70
     0
  3
Solid line
 72
    65
 73
     0
 40
0.0
  0
LTYPE
  2
CONTINUOUS2
 70
     0
  3
Solid Line
 72
    65
 73
     0
 40
0.0
  0
ENDTAB
  0
TABLE
  2
LAYER
 70
     1
  0
LAYER
  2
0
 70
     0
 62
     7
  6
CONTINUOUS
  0
ENDTAB
  0
TABLE
  2
STYLE
 70
     1
  0
STYLE
  2
STANDARD
 70
     0
 40
0.0
 41
1.0
 50
0.0
 71
     0
 42
0.2
  3
txt
  4

  0
ENDTAB
  0
TABLE
  2
VIEW
 70
     0
  0
ENDTAB
  0
TABLE
  2
UCS
 70
     0
  0
ENDTAB
  0
TABLE
  2
APPID
 70
     1
  0
APPID
  2
ACAD
 70
     0
  0
ENDTAB
  0
TABLE
  2
DIMSTYLE
 70
     1
  0
DIMSTYLE
  2
STANDARD
 70
     0
  3

  4

  5

  6

  7

 40
1.0
 41
0.18
 42
0.0625
 43
0.38
 44
0.18
 45
0.0
 46
0.0
 47
0.0
 48
0.0
140
0.18
141
0.09
142
0.0
143
25.4
144
1.0
145
0.0
146
1.0
147
0.09
 71
     0
 72
     0
 73
     1
 74
     1
 75
     0
 76
     0
 77
     0
 78
     0
170
     0
171
     2
172
     0
173
     0
174
     0
175
     0
176
     0
177
     0
178
     0
  0
ENDTAB
  0
ENDSEC
  0
SECTION
  2
BLOCKS
  0
BLOCK
  8
0
  2
$MODEL_SPACE
 70
     0
 10
0.0
 20
0.0
 30
0.0
  3
$MODEL_SPACE
  1

  0
ENDBLK
  5
21
  8
0
  0
BLOCK
 67
     1
  8
0
  2
$PAPER_SPACE
 70
     0
 10
0.0
 20
0.0
 30
0.0
  3
$PAPER_SPACE
  1

  0
ENDBLK
  5
1D
 67
     1
  8
0
  0
ENDSEC
  0
SECTION
  2
ENTITIES
  0
POLYLINE
  5
40
  8
0
 66
     1
 10
0.0
 20
0.0
 30
0.0
 70
     1
  0
VERTEX
  5
51
  8
0
 10
-143.7178505800584
 20
-270.467596807065
 30
0.0
  0
VERTEX
  5
52
  8
0
 10
-109.7101683058109
 20
-270.467596807065
 30
0.0
  0
VERTEX
  5
53
  8
0
 10
-109.7101683058109
 20
-205.4675968070647
 30
0.0
  0
VERTEX
  5
54
  8
0
 10
-143.7178505800584
 20
-205.4675968070647
 30
0.0
  0
SEQEND
  5
55
  8
0
  0
POLYLINE
  5
41
  8
0
 66
     1
 10
0.0
 20
0.0
 30
0.0
 70
     1
  0
VERTEX
  5
56
  8
0
 10
-106.9265897104931
 20
-260.4675968070649
 30
0.0
  0
VERTEX
  5
57
  8
0
 10
-106.9265897104931
 20
-254.4675968070647
 30
0.0
  0
VERTEX
  5
58
  8
0
 10
-103.9265897104932
 20
-254.4675968070647
 30
0.0
  0
VERTEX
  5
59
  8
0
 10
-103.9265897104932
 20
-248.4675968070644
 30
0.0
  0
VERTEX
  5
5A
  8
0
 10
-106.9265897104931
 20
-248.4675968070647
 30
0.0
  0
VERTEX
  5
5B
  8
0
 10
-106.9265897104931
 20
-242.4675968070647
 30
0.0
  0
VERTEX
  5
5C
  8
0
 10
-103.9265897104932
 20
-242.467596807065
 30
0.0
  0
VERTEX
  5
5D
  8
0
 10
-103.9265897104932
 20
-236.4675968070647
 30
0.0
  0
VERTEX
  5
5E
  8
0
 10
-106.9265897104932
 20
-236.4675968070647
 30
0.0
  0
VERTEX
  5
5F
  8
0
 10
-106.9265897104932
 20
-230.4675968070647
 30
0.0
  0
VERTEX
  5
60
  8
0
 10
-103.9265897104932
 20
-230.4675968070647
 30
0.0
  0
VERTEX
  5
61
  8
0
 10
-103.9265897104931
 20
-220.4675968070647
 30
0.0
  0
VERTEX
  5
62
  8
0
 10
-63.92658971049315
 20
-220.4675968070647
 30
0.0
  0
VERTEX
  5
63
  8
0
 10
-63.92658971049315
 20
-270.467596807065
 30
0.0
  0
VERTEX
  5
64
  8
0
 10
-103.9265897104931
 20
-270.467596807065
 30
0.0
  0
VERTEX
  5
65
  8
0
 10
-103.9265897104932
 20
-260.4675968070648
 30
0.0
  0
SEQEND
  5
66
  8
0
  0
POLYLINE
  5
42
  8
0
 66
     1
 10
0.0
 20
0.0
 30
0.0
 70
     1
  0
VERTEX
  5
67
  8
0
 10
-115.7101683058109
 20
-236.4675968070648
 30
0.0
  0
VERTEX
  5
68
  8
0
 10
-115.7101683058109
 20
-230.4675968070647
 30
0.0
  0
VERTEX
  5
69
  8
0
 10
-121.7101683058109
 20
-230.4675968070647
 30
0.0
  0
VERTEX
  5
6A
  8
0
 10
-121.7101683058109
 20
-236.4675968070648
 30
0.0
  0
SEQEND
  5
6B
  8
0
  0
POLYLINE
  5
43
  8
0
 66
     1
 10
0.0
 20
0.0
 30
0.0
 70
     1
  0
VERTEX
  5
6C
  8
0
 10
-115.7101683058109
 20
-248.4675968070647
 30
0.0
  0
VERTEX
  5
6D
  8
0
 10
-121.7101683058109
 20
-248.4675968070647
 30
0.0
  0
VERTEX
  5
6E
  8
0
 10
-121.7101683058109
 20
-242.4675968070647
 30
0.0
  0
VERTEX
  5
6F
  8
0
 10
-115.7101683058109
 20
-242.4675968070647
 30
0.0
  0
SEQEND
  5
70
  8
0
  0
POLYLINE
  5
44
  8
0
 66
     1
 10
0.0
 20
0.0
 30
0.0
 70
     1
  0
VERTEX
  5
71
  8
0
 10
-115.7101683058109
 20
-260.4675968070649
 30
0.0
  0
VERTEX
  5
72
  8
0
 10
-115.7101683058109
 20
-254.4675968070647
 30
0.0
  0
VERTEX
  5
73
  8
0
 10
-121.7101683058109
 20
-254.4675968070647
 30
0.0
  0
VERTEX
  5
74
  8
0
 10
-121.7101683058109
 20
-260.4675968070648
 30
0.0
  0
SEQEND
  5
75
  8
0
  0
POLYLINE
  5
45
  8
0
 66
     1
 10
0.0
 20
0.0
 30
0.0
 70
     1
  0
VERTEX
  5
76
  8
0
 10
-127.2101683058109
 20
-217.4675968070647
 30
0.0
 42
0.4142135623730951
  0
VERTEX
  5
77
  8
0
 10
-125.7101683058109
 20
-215.9675968070647
 30
0.0
 42
0.4142135623730951
  0
VERTEX
  5
78
  8
0
 10
-127.2101683058109
 20
-214.4675968070647
 30
0.0
 42
0.4142135623730951
  0
VERTEX
  5
79
  8
0
 10
-128.7101683058109
 20
-215.9675968070647
 30
0.0
 42
0.4142135623730951
  0
SEQEND
  5
7A
  8
0
  0
POLYLINE
  5
46
  8
0
 66
     1
 10
0.0
 20
0.0
 30
0.0
 70
     1
  0
VERTEX
  5
7B
  8
0
 10
-17.30045178694978
 20
-253.0102440688005
 30
0.0
  0
VERTEX
  5
7C
  8
0
 10
-17.27165265590959
 20
-253.2622364654023
 30
0.0
  0
VERTEX
  5
7D
  8
0
 10
-17.21195445719084
 20
-253.3706331947341
 30
0.0
  0
VERTEX
  5
7E
  8
0
 10
-17.14675642441928
 20
-253.453730687423
 30
0.0
  0
VERTEX
  5
7F
  8
0
 10
-17.07845848518157
 20
-253.5231285934713
 30
0.0
  0
VERTEX
  5
80
  8
0
 10
-16.93616277868784
 20
-253.6364251749593
 30
0.0
  0
VERTEX
  5
81
  8
0
 10
-16.79166713857295
 20
-253.7397220581694
 30
0.0
  0
VERTEX
  5
82
  8
0
 10
-16.48517638635697
 20
-253.873518021127
 30
0.0
  0
VERTEX
  5
83
  8
0
 10
-16.18538543198713
 20
-254.0334131965898
 30
0.0
  0
VERTEX
  5
84
  8
0
 10
-15.89119430865287
 20
-254.2136077595566
 30
0.0
  0
VERTEX
  5
85
  8
0
 10
-15.60200303445757
 20
-254.4114017914924
 30
0.0
  0
VERTEX
  5
86
  8
0
 10
-15.31781160940115
 20
-254.62509534369
 30
0.0
  0
VERTEX
  5
87
  8
0
 10
-15.03842003951813
 20
-254.853488452356
 30
0.0
  0
VERTEX
  5
88
  8
0
 10
-14.76402831877402
 20
-255.095881138611
 30
0.0
  0
VERTEX
  5
89
  8
0
 10
-14.49453645018606
 20
-255.3514734265927
 30
0.0
  0
VERTEX
  5
8A
  8
0
 10
-15.40790889088454
 20
-257.9163960348604
 30
0.0
  0
VERTEX
  5
8B
  8
0
 10
-15.77819771811323
 20
-257.9441951960728
 30
0.0
  0
VERTEX
  5
8C
  8
0
 10
-16.14408667809961
 20
-257.9584947646101
 30
0.0
  0
VERTEX
  5
8D
  8
0
 10
-16.50497578894709
 20
-257.958994749524
 30
0.0
  0
VERTEX
  5
8E
  8
0
 10
-16.86026506875896
 20
-257.944995171935
 30
0.0
  0
VERTEX
  5
8F
  8
0
 10
-17.20935453563861
 20
-257.9154960620154
 30
0.0
  0
VERTEX
  5
90
  8
0
 10
-17.55124421975817
 20
-257.8690974620062
 30
0.0
  0
VERTEX
  5
91
  8
0
 10
-17.88463416034155
 20
-257.8035994382863
 30
0.0
  0
VERTEX
  5
92
  8
0
 10
-18.20672444187099
 20
-257.7135021568029
 30
0.0
  0
VERTEX
  5
93
  8
0
 10
-18.38391909535446
 20
-257.7022024977489
 30
0.0
  0
VERTEX
  5
94
  8
0
 10
-18.56581360702847
 20
-257.7001025611106
 30
0.0
  0
VERTEX
  5
95
  8
0
 10
-18.66261068635802
 20
-257.710702241285
 30
0.0
  0
VERTEX
  5
96
  8
0
 10
-18.76570757560263
 20
-257.7339015412897
 30
0.0
  0
VERTEX
  5
97
  8
0
 10
-18.88050411183229
 20
-257.7802001443161
 30
0.0
  0
VERTEX
  5
98
  8
0
 10
-19.06199863557521
 20
-257.9572948008168
 30
0.0
  0
VERTEX
  5
99
  8
0
 10
-19.93147240083395
 20
-259.487848619224
 30
0.0
  0
VERTEX
  5
9A
  8
0
 10
-19.990570617656
 20
-259.7344411787557
 30
0.0
  0
VERTEX
  5
9B
  8
0
 10
-19.97167118791091
 20
-259.8567374886937
 30
0.0
  0
VERTEX
  5
9C
  8
0
 10
-19.93877218057676
 20
-259.9571344594033
 30
0.0
  0
VERTEX
  5
9D
  8
0
 10
-19.89837339953428
 20
-260.045731786145
 30
0.0
  0
VERTEX
  5
9E
  8
0
 10
-19.80337626589474
 20
-260.2008271064344
 30
0.0
  0
VERTEX
  5
9F
  8
0
 10
-19.70287929820239
 20
-260.3473226862049
 30
0.0
  0
VERTEX
  5
A0
  8
0
 10
-19.46068660591294
 20
-260.5778157315092
 30
0.0
  0
VERTEX
  5
A1
  8
0
 10
-19.23359345802305
 20
-260.8306081039732
 30
0.0
  0
VERTEX
  5
A2
  8
0
 10
-19.01879993901491
 20
-261.1005999574751
 30
0.0
  0
VERTEX
  5
A3
  8
0
 10
-18.81470609716408
 20
-261.3853913644281
 30
0.0
  0
VERTEX
  5
A4
  8
0
 10
-18.62071195057383
 20
-261.683382373108
 30
0.0
  0
VERTEX
  5
A5
  8
0
 10
-18.43631751433036
 20
-261.9935730136867
 30
0.0
  0
VERTEX
  5
A6
  8
0
 10
-18.26132279446804
 20
-262.3151633103023
 30
0.0
  0
VERTEX
  5
A7
  8
0
 10
-18.09552779702132
 20
-262.6475532810579
 30
0.0
  0
VERTEX
  5
A8
  8
0
 10
-19.83107543012439
 20
-264.7453899827674
 30
0.0
  0
VERTEX
  5
A9
  8
0
 10
-20.18856464355738
 20
-264.6447930180922
 30
0.0
  0
VERTEX
  5
AA
  8
0
 10
-20.5372541225059
 20
-264.5331963853114
 30
0.0
  0
VERTEX
  5
AB
  8
0
 10
-20.87654388507323
 20
-264.410200096494
 30
0.0
  0
VERTEX
  5
AC
  8
0
 10
-21.20563395539716
 20
-264.2755041606914
 30
0.0
  0
VERTEX
  5
AD
  8
0
 10
-21.52352436364987
 20
-264.1284085990242
 30
0.0
  0
VERTEX
  5
AE
  8
0
 10
-21.8290151460381
 20
-263.9679134416648
 30
0.0
  0
VERTEX
  5
AF
  8
0
 10
-22.11980637195788
 20
-263.7923187399058
 30
0.0
  0
VERTEX
  5
B0
  8
0
 10
-22.39169816813252
 20
-263.5975246174534
 30
0.0
  0
VERTEX
  5
B1
  8
0
 10
-22.55439325911308
 20
-263.5263267657151
 30
0.0
  0
VERTEX
  5
B2
  8
0
 10
-22.72458812380202
 20
-263.4620287057886
 30
0.0
  0
VERTEX
  5
B3
  8
0
 10
-22.81918526951044
 20
-263.4389294027667
 30
0.0
  0
VERTEX
  5
B4
  8
0
 10
-22.92398210746228
 20
-263.4254298100917
 30
0.0
  0
VERTEX
  5
B5
  8
0
 10
-23.04767837515925
 20
-263.4297296803511
 30
0.0
  0
VERTEX
  5
B6
  8
0
 10
-23.27877140236026
 20
-263.5340265333891
 30
0.0
  0
VERTEX
  5
B7
  8
0
 10
-24.61933095348837
 20
-264.6748921099086
 30
0.0
  0
VERTEX
  5
B8
  8
0
 10
-24.75922673239545
 20
-264.886385728485
 30
0.0
  0
VERTEX
  5
B9
  8
0
 10
-24.78322600826228
 20
-265.0077820655781
 30
0.0
  0
VERTEX
  5
BA
  8
0
 10
-24.78672590265953
 20
-265.1134788763749
 30
0.0
  0
VERTEX
  5
BB
  8
0
 10
-24.7789261380028
 20
-265.21047594967
 30
0.0
  0
VERTEX
  5
BC
  8
0
 10
-24.74272723023699
 20
-265.388770569964
 30
0.0
  0
VERTEX
  5
BD
  8
0
 10
-24.69842856686611
 20
-265.5606653833602
 30
0.0
  0
VERTEX
  5
BE
  8
0
 10
-24.54963305649177
 20
-265.8602563437645
 30
0.0
  0
VERTEX
  5
BF
  8
0
 10
-24.42283688232868
 20
-266.1754468334822
 30
0.0
  0
VERTEX
  5
C0
  8
0
 10
-24.31324018920348
 20
-266.5026369611334
 30
0.0
  0
VERTEX
  5
C1
  8
0
 10
-24.2188430374606
 20
-266.8400267810279
 30
0.0
  0
VERTEX
  5
C2
  8
0
 10
-24.13844546330675
 20
-267.1863163323898
 30
0.0
  0
VERTEX
  5
C3
  8
0
 10
-24.07134748786238
 20
-267.5409056333222
 30
0.0
  0
VERTEX
  5
C4
  8
0
 10
-24.01684913224811
 20
-267.902994707963
 30
0.0
  0
VERTEX
  5
C5
  8
0
 10
-23.97475040249839
 20
-268.2719835744156
 30
0.0
  0
VERTEX
  5
C6
  8
0
 10
-26.32307954606785
 20
-269.6497420031372
 30
0.0
  0
VERTEX
  5
C7
  8
0
 10
-26.62467044612767
 20
-269.4329485444735
 30
0.0
  0
VERTEX
  5
C8
  8
0
 10
-26.91416171127135
 20
-269.2087553090842
 30
0.0
  0
VERTEX
  5
C9
  8
0
 10
-27.19085336261936
 20
-268.9771622969693
 30
0.0
  0
VERTEX
  5
CA
  8
0
 10
-27.45404542129228
 20
-268.738069511146
 30
0.0
  0
VERTEX
  5
CB
  8
0
 10
-27.70253792349676
 20
-268.4910769636832
 30
0.0
  0
VERTEX
  5
CC
  8
0
 10
-27.93463092052558
 20
-268.2357846666497
 30
0.0
  0
VERTEX
  5
CD
  8
0
 10
-28.14792448479204
 20
-267.9712926472007
 30
0.0
  0
VERTEX
  5
CE
  8
0
 10
-28.33681878526056
 20
-267.6953009747321
 30
0.0
  0
VERTEX
  5
CF
  8
0
 10
-28.46531490813086
 20
-267.5727046738457
 30
0.0
  0
VERTEX
  5
D0
  8
0
 10
-28.60321074738238
 20
-267.4541082522705
 30
0.0
  0
VERTEX
  5
D1
  8
0
 10
-28.68420830343294
 20
-267.4001098815701
 30
0.0
  0
VERTEX
  5
D2
  8
0
 10
-28.77800547327915
 20
-267.3516113449226
 30
0.0
  0
VERTEX
  5
D3
  8
0
 10
-28.89580191899216
 20
-267.3133125005184
 30
0.0
  0
VERTEX
  5
D4
  8
0
 10
-29.14859429145612
 20
-267.3322119302635
 30
0.0
  0
VERTEX
  5
D5
  8
0
 10
-30.7985445073008
 20
-267.9457934165922
 30
0.0
  0
VERTEX
  5
D6
  8
0
 10
-31.00233835820332
 20
-268.0966888636049
 30
0.0
  0
VERTEX
  5
D7
  8
0
 10
-31.06633642718153
 20
-268.2025856683673
 30
0.0
  0
VERTEX
  5
D8
  8
0
 10
-31.10573523839625
 20
-268.3006827084729
 30
0.0
  0
VERTEX
  5
D9
  8
0
 10
-31.13173445391864
 20
-268.3944798783192
 30
0.0
  0
VERTEX
  5
DA
  8
0
 10
-31.15863364228606
 20
-268.5743744503376
 30
0.0
  0
VERTEX
  5
DB
  8
0
 10
-31.17583312332395
 20
-268.7511691158899
 30
0.0
  0
VERTEX
  5
DC
  8
0
 10
-31.13843425176479
 20
-269.0834590896628
 30
0.0
  0
VERTEX
  5
DD
  8
0
 10
-31.12703459572805
 20
-269.4230488431784
 30
0.0
  0
VERTEX
  5
DE
  8
0
 10
-31.13603432417813
 20
-269.7679384367814
 30
0.0
  0
VERTEX
  5
DF
  8
0
 10
-31.16273351857997
 20
-270.1173278946094
 30
0.0
  0
VERTEX
  5
E0
  8
0
 10
-31.20563222419193
 20
-270.4703172438174
 30
0.0
  0
VERTEX
  5
E1
  8
0
 10
-31.26383046816899
 20
-270.8264064994915
 30
0.0
  0
VERTEX
  5
E2
  8
0
 10
-31.33642827766614
 20
-271.1852956706834
 30
0.0
  0
VERTEX
  5
E3
  8
0
 10
-31.42312566173509
 20
-271.5463847754964
 30
0.0
  0
VERTEX
  5
E4
  8
0
 10
-34.10104486054239
 20
-272.0378699458525
 30
0.0
  0
VERTEX
  5
E5
  8
0
 10
-34.3102385485149
 20
-271.7310792026882
 30
0.0
  0
VERTEX
  5
E6
  8
0
 10
-34.50563265286402
 20
-271.4213885470233
 30
0.0
  0
VERTEX
  5
E7
  8
0
 10
-34.68652719471028
 20
-271.1090979698062
 30
0.0
  0
VERTEX
  5
E8
  8
0
 10
-34.85202220120865
 20
-270.7944074650023
 30
0.0
  0
VERTEX
  5
E9
  8
0
 10
-35.00101770554856
 20
-270.4773170326118
 30
0.0
  0
VERTEX
  5
EA
  8
0
 10
-35.13181375902278
 20
-270.1580266666002
 30
0.0
  0
VERTEX
  5
EB
  8
0
 10
-35.24171044309631
 20
-269.8365363669674
 30
0.0
  0
VERTEX
  5
EC
  8
0
 10
-35.32480793578522
 20
-269.512646139748
 30
0.0
  0
VERTEX
  5
ED
  8
0
 10
-35.40370555519742
 20
-269.3534509431647
 30
0.0
  0
VERTEX
  5
EE
  8
0
 10
-35.49270286987026
 20
-269.194855728478
 30
0.0
  0
VERTEX
  5
EF
  8
0
 10
-35.55030113195065
 20
-269.1163580969969
 30
0.0
  0
VERTEX
  5
F0
  8
0
 10
-35.62189897162001
 20
-269.0387604383608
 30
0.0
  0
VERTEX
  5
F1
  8
0
 10
-35.71939602982904
 20
-268.9624627405008
 30
0.0
  0
VERTEX
  5
F2
  8
0
 10
-35.96348866479126
 20
-268.893764813332
 30
0.0
  0
VERTEX
  5
F3
  8
0
 10
-37.72373555264058
 20
-268.9060644422138
 30
0.0
  0
VERTEX
  5
F4
  8
0
 10
-37.9669282147578
 20
-268.9781622667971
 30
0.0
  0
VERTEX
  5
F5
  8
0
 10
-38.06332530615623
 20
-269.0557599254332
 30
0.0
  0
VERTEX
  5
F6
  8
0
 10
-38.13392317599784
 20
-269.1344575508798
 30
0.0
  0
VERTEX
  5
F7
  8
0
 10
-38.1903214742849
 20
-269.2137551582231
 30
0.0
  0
VERTEX
  5
F8
  8
0
 10
-38.27721885231938
 20
-269.3735503367031
 30
0.0
  0
VERTEX
  5
F9
  8
0
 10
-38.35381654112769
 20
-269.5337455031142
 30
0.0
  0
VERTEX
  5
FA
  8
0
 10
-38.43231417260877
 20
-269.858835694127
 30
0.0
  0
VERTEX
  5
FB
  8
0
 10
-38.53781098944008
 20
-270.1818259485015
 30
0.0
  0
VERTEX
  5
FC
  8
0
 10
-38.66410717868924
 20
-270.5029162602031
 30
0.0
  0
VERTEX
  5
FD
  8
0
 10
-38.80870281578692
 20
-270.8220066322492
 30
0.0
  0
VERTEX
  5
FE
  8
0
 10
-38.96979795504301
 20
-271.1389970676569
 30
0.0
  0
VERTEX
  5
FF
  8
0
 10
-39.14619263266424
 20
-271.4537875694435
 30
0.0
  0
VERTEX
  5
100
  8
0
 10
-39.33728686675389
 20
-271.7661781436435
 30
0.0
  0
VERTEX
  5
101
  8
0
 10
-39.54218068446696
 20
-272.0758687993084
 30
0.0
  0
VERTEX
  5
102
  8
0
 10
-42.2266996841376
 20
-271.6217825005114
 30
0.0
  0
VERTEX
  5
103
  8
0
 10
-42.31839691734547
 20
-271.2618933594916
 30
0.0
  0
VERTEX
  5
104
  8
0
 10
-42.39609457296434
 20
-270.9041041551103
 30
0.0
  0
VERTEX
  5
105
  8
0
 10
-42.45919266909753
 20
-270.5488148752984
 30
0.0
  0
VERTEX
  5
106
  8
0
 10
-42.50709122384845
 20
-270.1965255049699
 30
0.0
  0
VERTEX
  5
107
  8
0
 10
-42.53859027342365
 20
-269.8476360320558
 30
0.0
  0
VERTEX
  5
108
  8
0
 10
-42.55238985704707
 20
-269.5028464354356
 30
0.0
  0
VERTEX
  5
109
  8
0
 10
-42.54569005920089
 20
-269.1631566849372
 30
0.0
  0
VERTEX
  5
10A
  8
0
 10
-42.51299104583236
 20
-268.8302667292677
 30
0.0
  0
VERTEX
  5
10B
  8
0
 10
-42.53269045143973
 20
-268.6537720546637
 30
0.0
  0
VERTEX
  5
10C
  8
0
 10
-42.56208956437656
 20
-268.4742774705764
 30
0.0
  0
VERTEX
  5
10D
  8
0
 10
-42.58938874067513
 20
-268.3808802886613
 30
0.0
  0
VERTEX
  5
10E
  8
0
 10
-42.63008751266594
 20
-268.2833832304523
 30
0.0
  0
VERTEX
  5
10F
  8
0
 10
-42.69568553336862
 20
-268.1783863985349
 30
0.0
  0
VERTEX
  5
110
  8
0
 10
-42.90147932392668
 20
-268.03029086704
 30
0.0
  0
VERTEX
  5
111
  8
0
 10
-44.55982928632474
 20
-267.4398086837331
 30
0.0
  0
VERTEX
  5
112
  8
0
 10
-44.81292164973706
 20
-267.4244091483853
 30
0.0
  0
VERTEX
  5
113
  8
0
 10
-44.93011811355343
 20
-267.4644079414966
 30
0.0
  0
VERTEX
  5
114
  8
0
 10
-45.02331530150293
 20
-267.5141064419375
 30
0.0
  0
VERTEX
  5
115
  8
0
 10
-45.10341288470852
 20
-267.5693047764312
 30
0.0
  0
VERTEX
  5
116
  8
0
 10
-45.23970877223556
 20
-267.6898011406793
 30
0.0
  0
VERTEX
  5
117
  8
0
 10
-45.36650494639865
 20
-267.8141973872557
 30
0.0
  0
VERTEX
  5
118
  8
0
 10
-45.5514993645388
 20
-268.0927889812765
 30
0.0
  0
VERTEX
  5
119
  8
0
 10
-45.76109304044246
 20
-268.3602809102089
 30
0.0
  0
VERTEX
  5
11A
  8
0
 10
-45.98958614609124
 20
-268.6187731106912
 30
0.0
  0
VERTEX
  5
11B
  8
0
 10
-46.2345787538985
 20
-268.8691655555685
 30
0.0
  0
VERTEX
  5
11C
  8
0
 10
-46.49437091515692
 20
-269.1119582297546
 30
0.0
  0
VERTEX
  5
11D
  8
0
 10
-46.76786266305606
 20
-269.3474511241979
 30
0.0
  0
VERTEX
  5
11E
  8
0
 10
-47.0541540247508
 20
-269.5755442419156
 30
0.0
  0
VERTEX
  5
11F
  8
0
 10
-47.35274501532727
 20
-269.796537573856
 30
0.0
  0
VERTEX
  5
120
  8
0
 10
-49.72007358562466
 20
-268.4516781524684
 30
0.0
  0
VERTEX
  5
121
  8
0
 10
-49.6830747019966
 20
-268.082189301102
 30
0.0
  0
VERTEX
  5
122
  8
0
 10
-49.63367619250408
 20
-267.7194002475817
 30
0.0
  0
VERTEX
  5
123
  8
0
 10
-49.57147806921586
 20
-267.3639109738043
 30
0.0
  0
VERTEX
  5
124
  8
0
 10
-49.49598034721814
 20
-267.0164214586491
 30
0.0
  0
VERTEX
  5
125
  8
0
 10
-49.40628305366582
 20
-266.6778316749612
 30
0.0
  0
VERTEX
  5
126
  8
0
 10
-49.30128622174847
 20
-266.3491415925684
 30
0.0
  0
VERTEX
  5
127
  8
0
 10
-49.17888991482761
 20
-266.0321511571607
 30
0.0
  0
VERTEX
  5
128
  8
0
 10
-49.03429427772997
 20
-265.7305602571008
 30
0.0
  0
VERTEX
  5
129
  8
0
 10
-48.99239554194577
 20
-265.558065461808
 30
0.0
  0
VERTEX
  5
12A
  8
0
 10
-48.95869655874944
 20
-265.3792708566
 30
0.0
  0
VERTEX
  5
12B
  8
0
 10
-48.95229675185162
 20
-265.2821737863222
 30
0.0
  0
VERTEX
  5
12C
  8
0
 10
-48.95729660099052
 20
-265.1765769725081
 30
0.0
  0
VERTEX
  5
12D
  8
0
 10
-48.98299582556461
 20
-265.0554806263634
 30
0.0
  0
VERTEX
  5
12E
  8
0
 10
-49.12579151697226
 20
-264.8459869474425
 30
0.0
  0
VERTEX
  5
12F
  8
0
 10
-50.48215059137934
 20
-263.7239208036854
 30
0.0
  0
VERTEX
  5
130
  8
0
 10
-50.71474357332205
 20
-263.6229238510791
 30
0.0
  0
VERTEX
  5
131
  8
0
 10
-50.83843984101902
 20
-263.6203239295269
 30
0.0
  0
VERTEX
  5
132
  8
0
 10
-50.94303668500532
 20
-263.6352234799609
 30
0.0
  0
VERTEX
  5
133
  8
0
 10
-51.03723384278261
 20
-263.6597227407416
 30
0.0
  0
VERTEX
  5
134
  8
0
 10
-51.20652873462656
 20
-263.726320731272
 30
0.0
  0
VERTEX
  5
135
  8
0
 10
-51.36822385577933
 20
-263.7998185136142
 30
0.0
  0
VERTEX
  5
136
  8
0
 10
-51.63731573643616
 20
-263.9983125244295
 30
0.0
  0
VERTEX
  5
137
  8
0
 10
-51.92570703476929
 20
-264.1780071024824
 30
0.0
  0
VERTEX
  5
138
  8
0
 10
-52.22889788655358
 20
-264.3427021331185
 30
0.0
  0
VERTEX
  5
139
  8
0
 10
-52.54478835515076
 20
-264.4942975590106
 30
0.0
  0
VERTEX
  5
13A
  8
0
 10
-52.87197848280186
 20
-264.6335933560211
 30
0.0
  0
VERTEX
  5
13B
  8
0
 10
-53.20946829967919
 20
-264.7612895030292
 30
0.0
  0
VERTEX
  5
13C
  8
0
 10
-53.55655782690324
 20
-264.8777859879661
 30
0.0
  0
VERTEX
  5
13D
  8
0
 10
-53.91264708257735
 20
-264.9832828047973
 30
0.0
  0
VERTEX
  5
13E
  8
0
 10
-55.67719384068614
 20
-262.9098453668859
 30
0.0
  0
VERTEX
  5
13F
  8
0
 10
-55.51609870143004
 20
-262.5752554625091
 30
0.0
  0
VERTEX
  5
140
  8
0
 10
-55.34560384579277
 20
-262.2512652383069
 30
0.0
  0
VERTEX
  5
141
  8
0
 10
-55.16560927679154
 20
-261.9384746761758
 30
0.0
  0
VERTEX
  5
142
  8
0
 10
-54.975815003478
 20
-261.6377837489609
 30
0.0
  0
VERTEX
  5
143
  8
0
 10
-54.77572104093831
 20
-261.3502924234729
 30
0.0
  0
VERTEX
  5
144
  8
0
 10
-54.56462741029296
 20
-261.0773006604877
 30
0.0
  0
VERTEX
  5
145
  8
0
 10
-54.34113415378307
 20
-260.8214083815576
 30
0.0
  0
VERTEX
  5
146
  8
0
 10
-54.10214136494257
 20
-260.587415441856
 30
0.0
  0
VERTEX
  5
147
  8
0
 10
-54.00374433388853
 20
-260.4396199013094
 30
0.0
  0
VERTEX
  5
148
  8
0
 10
-53.91094713387014
 20
-260.2831246232611
 30
0.0
  0
VERTEX
  5
149
  8
0
 10
-53.87174831662097
 20
-260.1940273116055
 30
0.0
  0
VERTEX
  5
14A
  8
0
 10
-53.84034926402853
 20
-260.0932303529648
 30
0.0
  0
VERTEX
  5
14B
  8
0
 10
-53.82304978600789
 20
-259.9706340520784
 30
0.0
  0
VERTEX
  5
14C
  8
0
 10
-53.88554790024439
 20
-259.724841468409
 30
0.0
  0
VERTEX
  5
14D
  8
0
 10
-54.77632102283495
 20
-258.2065872788835
 30
0.0
  0
VERTEX
  5
14E
  8
0
 10
-54.96031547114734
 20
-258.0320925439351
 30
0.0
  0
VERTEX
  5
14F
  8
0
 10
-55.07581198625645
 20
-257.9873938926331
 30
0.0
  0
VERTEX
  5
150
  8
0
 10
-55.17920886644939
 20
-257.9655945503874
 30
0.0
  0
VERTEX
  5
151
  8
0
 10
-55.27600594577893
 20
-257.9563948279717
 30
0.0
  0
VERTEX
  5
152
  8
0
 10
-55.45790045745296
 20
-257.9610946861624
 30
0.0
  0
VERTEX
  5
153
  8
0
 10
-55.63499511395364
 20
-257.974794272803
 30
0.0
  0
VERTEX
  5
154
  8
0
 10
-55.95578543470697
 20
-258.0693914185114
 30
0.0
  0
VERTEX
  5
155
  8
0
 10
-56.28817540546258
 20
-258.1395893004219
 30
0.0
  0
VERTEX
  5
156
  8
0
 10
-56.62946510768546
 20
-258.1906877586217
 30
0.0
  0
VERTEX
  5
157
  8
0
 10
-56.97805458965119
 20
-258.2249867237147
 30
0.0
  0
VERTEX
  5
158
  8
0
 10
-57.33314387549753
 20
-258.2439861504426
 30
0.0
  0
VERTEX
  5
159
  8
0
 10
-57.69403298634501
 20
-258.2485860116504
 30
0.0
  0
VERTEX
  5
15A
  8
0
 10
-58.06002194331421
 20
-258.2393862892348
 30
0.0
  0
VERTEX
  5
15B
  8
0
 10
-58.43071075847398
 20
-258.2167869711269
 30
0.0
  0
VERTEX
  5
15C
  8
0
 10
-59.37978212202437
 20
-255.6648639706204
 30
0.0
  0
VERTEX
  5
15D
  8
0
 10
-59.11389014481645
 20
-255.4054717972931
 30
0.0
  0
VERTEX
  5
15E
  8
0
 10
-58.84289832148679
 20
-255.1592792256925
 30
0.0
  0
VERTEX
  5
15F
  8
0
 10
-58.56670665505266
 20
-254.9269862346981
 30
0.0
  0
VERTEX
  5
160
  8
0
 10
-58.28551513947961
 20
-254.7093928001722
 30
0.0
  0
VERTEX
  5
161
  8
0
 10
-57.99912378080209
 20
-254.5075988889253
 30
0.0
  0
VERTEX
  5
162
  8
0
 10
-57.70743258203733
 20
-254.3233044496646
 30
0.0
  0
VERTEX
  5
163
  8
0
 10
-57.40994155827137
 20
-254.1592094009251
 30
0.0
  0
VERTEX
  5
164
  8
0
 10
-57.10535074872818
 20
-254.021113567708
 30
0.0
  0
VERTEX
  5
165
  8
0
 10
-56.96225506637221
 20
-253.9158167448423
 30
0.0
  0
VERTEX
  5
166
  8
0
 10
-56.82155931160291
 20
-253.8006202206815
 30
0.0
  0
VERTEX
  5
167
  8
0
 10
-56.75426134219298
 20
-253.7303223417883
 30
0.0
  0
VERTEX
  5
168
  8
0
 10
-56.69026327321478
 20
-253.6462248792716
 30
0.0
  0
VERTEX
  5
169
  8
0
 10
-56.63206502923772
 20
-253.5370281740775
 30
0.0
  0
VERTEX
  5
16A
  8
0
 10
-56.60676579259477
 20
-253.2846357895446
 30
0.0
  0
VERTEX
  5
16B
  8
0
 10
-56.92455620386473
 20
-251.5532880297183
 30
0.0
  0
VERTEX
  5
16C
  8
0
 10
-57.03775278836993
 20
-251.326394875794
 30
0.0
  0
VERTEX
  5
16D
  8
0
 10
-57.13094997631947
 20
-251.2448973348295
 30
0.0
  0
VERTEX
  5
16E
  8
0
 10
-57.22064726987176
 20
-251.1890990184391
 30
0.0
  0
VERTEX
  5
16F
  8
0
 10
-57.30854461773404
 20
-251.1473002796377
 30
0.0
  0
VERTEX
  5
170
  8
0
 10
-57.48103941302688
 20
-251.0895020235918
 30
0.0
  0
VERTEX
  5
171
  8
0
 10
-57.65213425056082
 20
-251.0418034628065
 30
0.0
  0
VERTEX
  5
172
  8
0
 10
-57.98592417907535
 20
-251.0209040934058
 30
0.0
  0
VERTEX
  5
173
  8
0
 10
-58.32231402914212
 20
-250.9732055326204
 30
0.0
  0
VERTEX
  5
174
  8
0
 10
-58.6604038279161
 20
-250.9045076054516
 30
0.0
  0
VERTEX
  5
175
  8
0
 10
-58.99979358746619
 20
-250.8176102274172
 30
0.0
  0
VERTEX
  5
176
  8
0
 10
-59.33998332287852
 20
-250.7140133532587
 30
0.0
  0
VERTEX
  5
177
  8
0
 10
-59.68057304622199
 20
-250.5949169467695
 30
0.0
  0
VERTEX
  5
178
  8
0
 10
-60.02136276353102
 20
-250.4610209868291
 30
0.0
  0
VERTEX
  5
179
  8
0
 10
-60.36195248687446
 20
-250.3129254553342
 30
0.0
  0
VERTEX
  5
17A
  8
0
 10
-60.38095191360236
 20
-247.590307605225
 30
0.0
  0
VERTEX
  5
17B
  8
0
 10
-60.04246212689725
 20
-247.4376122125223
 30
0.0
  0
VERTEX
  5
17C
  8
0
 10
-59.70357235226105
 20
-247.2989163974085
 30
0.0
  0
VERTEX
  5
17D
  8
0
 10
-59.36468257762482
 20
-247.1751201327288
 30
0.0
  0
VERTEX
  5
17E
  8
0
 10
-59.02599279695416
 20
-247.0667234033969
 30
0.0
  0
VERTEX
  5
17F
  8
0
 10
-58.68790299818018
 20
-246.9751261671719
 30
0.0
  0
VERTEX
  5
180
  8
0
 10
-58.3507131722512
 20
-246.9017283818125
 30
0.0
  0
VERTEX
  5
181
  8
0
 10
-58.01502330106388
 20
-246.8492299658538
 30
0.0
  0
VERTEX
  5
182
  8
0
 10
-57.68153336349768
 20
-246.8237307352453
 30
0.0
  0
VERTEX
  5
183
  8
0
 10
-57.5111385048432
 20
-246.7736322468733
 30
0.0
  0
VERTEX
  5
184
  8
0
 10
-57.33954368239534
 20
-246.7135340602234
 30
0.0
  0
VERTEX
  5
185
  8
0
 10
-57.25224631642975
 20
-246.6704353606459
 30
0.0
  0
VERTEX
  5
186
  8
0
 10
-57.16324900175692
 20
-246.6133370834794
 30
0.0
  0
VERTEX
  5
187
  8
0
 10
-57.07125177760074
 20
-246.5306395787216
 30
0.0
  0
VERTEX
  5
188
  8
0
 10
-56.96125509654445
 20
-246.3021464730728
 30
0.0
  0
VERTEX
  5
189
  8
0
 10
-56.66766395510686
 20
-244.566498842987
 30
0.0
  0
VERTEX
  5
18A
  8
0
 10
-56.69646308614705
 20
-244.3146064433681
 30
0.0
  0
VERTEX
  5
18B
  8
0
 10
-56.7561612848658
 20
-244.2061097170534
 30
0.0
  0
VERTEX
  5
18C
  8
0
 10
-56.82135931763733
 20
-244.1230122243645
 30
0.0
  0
VERTEX
  5
18D
  8
0
 10
-56.88965725687504
 20
-244.0536143183162
 30
0.0
  0
VERTEX
  5
18E
  8
0
 10
-57.03195296336878
 20
-243.9403177368283
 30
0.0
  0
VERTEX
  5
18F
  8
0
 10
-57.17644860348366
 20
-243.8370208536181
 30
0.0
  0
VERTEX
  5
190
  8
0
 10
-57.48293935569966
 20
-243.7032248906605
 30
0.0
  0
VERTEX
  5
191
  8
0
 10
-57.78273031006951
 20
-243.5433297151978
 30
0.0
  0
VERTEX
  5
192
  8
0
 10
-58.07692143340374
 20
-243.363135152231
 30
0.0
  0
VERTEX
  5
193
  8
0
 10
-58.36611270759907
 20
-243.1653411202952
 30
0.0
  0
VERTEX
  5
194
  8
0
 10
-58.65040412963826
 20
-242.9516475680976
 30
0.0
  0
VERTEX
  5
195
  8
0
 10
-58.92969570253851
 20
-242.7232544594316
 30
0.0
  0
VERTEX
  5
196
  8
0
 10
-59.20408742328262
 20
-242.4808617731766
 30
0.0
  0
VERTEX
  5
197
  8
0
 10
-59.47357929187058
 20
-242.2252694851948
 30
0.0
  0
VERTEX
  5
198
  8
0
 10
-58.56020685117207
 20
-239.6603468769272
 30
0.0
  0
VERTEX
  5
199
  8
0
 10
-58.18991802394342
 20
-239.6325477157148
 30
0.0
  0
VERTEX
  5
19A
  8
0
 10
-57.82402906395703
 20
-239.6182481471775
 30
0.0
  0
VERTEX
  5
19B
  8
0
 10
-57.4632399500923
 20
-239.6177481622636
 30
0.0
  0
VERTEX
  5
19C
  8
0
 10
-57.10785067329766
 20
-239.6318477368353
 30
0.0
  0
VERTEX
  5
19D
  8
0
 10
-56.75876120641803
 20
-239.661346846755
 30
0.0
  0
VERTEX
  5
19E
  8
0
 10
-56.41687152229846
 20
-239.7076454497814
 30
0.0
  0
VERTEX
  5
19F
  8
0
 10
-56.08348158171506
 20
-239.7731434735013
 30
0.0
  0
VERTEX
  5
1A0
  8
0
 10
-55.76139130018561
 20
-239.8632407549847
 30
0.0
  0
VERTEX
  5
1A1
  8
0
 10
-55.5841966467022
 20
-239.8745404140387
 30
0.0
  0
VERTEX
  5
1A2
  8
0
 10
-55.40230213502815
 20
-239.876640350677
 30
0.0
  0
VERTEX
  5
1A3
  8
0
 10
-55.30550505569859
 20
-239.8660406705025
 30
0.0
  0
VERTEX
  5
1A4
  8
0
 10
-55.20240816645401
 20
-239.8428413704979
 30
0.0
  0
VERTEX
  5
1A5
  8
0
 10
-55.08761163022432
 20
-239.7965427674715
 30
0.0
  0
VERTEX
  5
1A6
  8
0
 10
-54.9061171064814
 20
-239.6194481109708
 30
0.0
  0
VERTEX
  5
1A7
  8
0
 10
-54.03664334122267
 20
-238.0888942925637
 30
0.0
  0
VERTEX
  5
1A8
  8
0
 10
-53.97754512440059
 20
-237.8423017330319
 30
0.0
  0
VERTEX
  5
1A9
  8
0
 10
-53.99654455112849
 20
-237.7200054230939
 30
0.0
  0
VERTEX
  5
1AA
  8
0
 10
-54.02934356147985
 20
-237.6196084523843
 30
0.0
  0
VERTEX
  5
1AB
  8
0
 10
-54.06974234252233
 20
-237.5311111226254
 30
0.0
  0
VERTEX
  5
1AC
  8
0
 10
-54.16473947616187
 20
-237.3759158053532
 30
0.0
  0
VERTEX
  5
1AD
  8
0
 10
-54.26523644385425
 20
-237.2294202255827
 30
0.0
  0
VERTEX
  5
1AE
  8
0
 10
-54.50742913614367
 20
-236.9989271802784
 30
0.0
  0
VERTEX
  5
1AF
  8
0
 10
-54.73452228403356
 20
-236.7461348078144
 30
0.0
  0
VERTEX
  5
1B0
  8
0
 10
-54.94941580002451
 20
-236.4761429543126
 30
0.0
  0
VERTEX
  5
1B1
  8
0
 10
-55.15340964489256
 20
-236.1913515473595
 30
0.0
  0
VERTEX
  5
1B2
  8
0
 10
-55.34740379148278
 20
-235.8933605386797
 30
0.0
  0
VERTEX
  5
1B3
  8
0
 10
-55.53179822772628
 20
-235.5831698981009
 30
0.0
  0
VERTEX
  5
1B4
  8
0
 10
-55.7067929475886
 20
-235.2615796014854
 30
0.0
  0
VERTEX
  5
1B5
  8
0
 10
-55.87258794503528
 20
-234.9291896307297
 30
0.0
  0
VERTEX
  5
1B6
  8
0
 10
-54.13704031193225
 20
-232.8313529290203
 30
0.0
  0
VERTEX
  5
1B7
  8
0
 10
-53.77955109849923
 20
-232.9319498936954
 30
0.0
  0
VERTEX
  5
1B8
  8
0
 10
-53.43086161955071
 20
-233.0435465264762
 30
0.0
  0
VERTEX
  5
1B9
  8
0
 10
-53.09157185698341
 20
-233.1665428152937
 30
0.0
  0
VERTEX
  5
1BA
  8
0
 10
-52.76258178364223
 20
-233.3012387510963
 30
0.0
  0
VERTEX
  5
1BB
  8
0
 10
-52.4445913784067
 20
-233.4483343127634
 30
0.0
  0
VERTEX
  5
1BC
  8
0
 10
-52.13910059601851
 20
-233.6088294701229
 30
0.0
  0
VERTEX
  5
1BD
  8
0
 10
-51.84830937009876
 20
-233.7845241688646
 30
0.0
  0
VERTEX
  5
1BE
  8
0
 10
-51.57641757392409
 20
-233.9792182943343
 30
0.0
  0
VERTEX
  5
1BF
  8
0
 10
-51.41372248294353
 20
-234.0504161460726
 30
0.0
  0
VERTEX
  5
1C0
  8
0
 10
-51.24352761825459
 20
-234.1147142059991
 30
0.0
  0
VERTEX
  5
1C1
  8
0
 10
-51.14903046952892
 20
-234.137813509021
 30
0.0
  0
VERTEX
  5
1C2
  8
0
 10
-51.0442336315771
 20
-234.151313101696
 30
0.0
  0
VERTEX
  5
1C3
  8
0
 10
-50.92043736689736
 20
-234.1470132314366
 30
0.0
  0
VERTEX
  5
1C4
  8
0
 10
-50.68934433969631
 20
-234.0427163783986
 30
0.0
  0
VERTEX
  5
1C5
  8
0
 10
-49.34878478856824
 20
-232.9018508018791
 30
0.0
  0
VERTEX
  5
1C6
  8
0
 10
-49.20888900966116
 20
-232.6903571833027
 30
0.0
  0
VERTEX
  5
1C7
  8
0
 10
-49.18488973379434
 20
-232.5689608462096
 30
0.0
  0
VERTEX
  5
1C8
  8
0
 10
-49.18148983637984
 20
-232.4633640323956
 30
0.0
  0
VERTEX
  5
1C9
  8
0
 10
-49.18918960405379
 20
-232.3662669621177
 30
0.0
  0
VERTEX
  5
1CA
  8
0
 10
-49.2253885118196
 20
-232.1880723388064
 30
0.0
  0
VERTEX
  5
1CB
  8
0
 10
-49.26968717519046
 20
-232.0160775284275
 30
0.0
  0
VERTEX
  5
1CC
  8
0
 10
-49.4184826855648
 20
-231.7164865680232
 30
0.0
  0
VERTEX
  5
1CD
  8
0
 10
-49.54527885972792
 20
-231.4012960783055
 30
0.0
  0
VERTEX
  5
1CE
  8
0
 10
-49.65487555285313
 20
-231.0741059506544
 30
0.0
  0
VERTEX
  5
1CF
  8
0
 10
-49.74927270459597
 20
-230.7368161277426
 30
0.0
  0
VERTEX
  5
1D0
  8
0
 10
-49.82967027874986
 20
-230.390426579398
 30
0.0
  0
VERTEX
  5
1D1
  8
0
 10
-49.89676825419423
 20
-230.0358372784656
 30
0.0
  0
VERTEX
  5
1D2
  8
0
 10
-49.9512666098085
 20
-229.6737482038247
 30
0.0
  0
VERTEX
  5
1D3
  8
0
 10
-49.99336533955822
 20
-229.3047593373722
 30
0.0
  0
VERTEX
  5
1D4
  8
0
 10
-47.64503619598874
 20
-227.9270009086505
 30
0.0
  0
VERTEX
  5
1D5
  8
0
 10
-47.34344529592887
 20
-228.1437943673142
 30
0.0
  0
VERTEX
  5
1D6
  8
0
 10
-47.05395403078522
 20
-228.3679876027036
 30
0.0
  0
VERTEX
  5
1D7
  8
0
 10
-46.77726237943722
 20
-228.5995806148185
 30
0.0
  0
VERTEX
  5
1D8
  8
0
 10
-46.51407032076429
 20
-228.8386734006418
 30
0.0
  0
VERTEX
  5
1D9
  8
0
 10
-46.26557781855982
 20
-229.0856659481046
 30
0.0
  0
VERTEX
  5
1DA
  8
0
 10
-46.033484821531
 20
-229.340958245138
 30
0.0
  0
VERTEX
  5
1DB
  8
0
 10
-45.82019125726454
 20
-229.6054502645871
 30
0.0
  0
VERTEX
  5
1DC
  8
0
 10
-45.6313969537788
 20
-229.8814419370556
 30
0.0
  0
VERTEX
  5
1DD
  8
0
 10
-45.50280083392568
 20
-230.004038237942
 30
0.0
  0
VERTEX
  5
1DE
  8
0
 10
-45.36490499467419
 20
-230.1226346595173
 30
0.0
  0
VERTEX
  5
1DF
  8
0
 10
-45.28400743560641
 20
-230.1766330302176
 30
0.0
  0
VERTEX
  5
1E0
  8
0
 10
-45.19011026877743
 20
-230.2251315668652
 30
0.0
  0
VERTEX
  5
1E1
  8
0
 10
-45.07241382004716
 20
-230.2634304112694
 30
0.0
  0
VERTEX
  5
1E2
  8
0
 10
-44.81952145060042
 20
-230.2445309815242
 30
0.0
  0
VERTEX
  5
1E3
  8
0
 10
-43.16957123475575
 20
-229.6309494951956
 30
0.0
  0
VERTEX
  5
1E4
  8
0
 10
-42.96577738385322
 20
-229.4800540481828
 30
0.0
  0
VERTEX
  5
1E5
  8
0
 10
-42.90177931487504
 20
-229.3741572434205
 30
0.0
  0
VERTEX
  5
1E6
  8
0
 10
-42.8623805036603
 20
-229.2760602033148
 30
0.0
  0
VERTEX
  5
1E7
  8
0
 10
-42.8364812851207
 20
-229.1822630334686
 30
0.0
  0
VERTEX
  5
1E8
  8
0
 10
-42.80948209977049
 20
-229.0023684614501
 30
0.0
  0
VERTEX
  5
1E9
  8
0
 10
-42.79228261873263
 20
-228.8255737958978
 30
0.0
  0
VERTEX
  5
1EA
  8
0
 10
-42.82968149029176
 20
-228.493283822125
 30
0.0
  0
VERTEX
  5
1EB
  8
0
 10
-42.84108114632849
 20
-228.1536940686093
 30
0.0
  0
VERTEX
  5
1EC
  8
0
 10
-42.83208141787846
 20
-227.8088044750064
 30
0.0
  0
VERTEX
  5
1ED
  8
0
 10
-42.80538222347657
 20
-227.4594150171784
 30
0.0
  0
VERTEX
  5
1EE
  8
0
 10
-42.76248351786462
 20
-227.1064256679705
 30
0.0
  0
VERTEX
  5
1EF
  8
0
 10
-42.70428527388755
 20
-226.7503364122963
 30
0.0
  0
VERTEX
  5
1F0
  8
0
 10
-42.6316874643904
 20
-226.3914472411044
 30
0.0
  0
VERTEX
  5
1F1
  8
0
 10
-42.54499008032145
 20
-226.0303581362914
 30
0.0
  0
VERTEX
  5
1F2
  8
0
 10
-39.86707088151417
 20
-225.5388729659352
 30
0.0
  0
VERTEX
  5
1F3
  8
0
 10
-39.65787719354161
 20
-225.8456637090996
 30
0.0
  0
VERTEX
  5
1F4
  8
0
 10
-39.46248308919252
 20
-226.1553543647645
 30
0.0
  0
VERTEX
  5
1F5
  8
0
 10
-39.28168854432906
 20
-226.4676449419816
 30
0.0
  0
VERTEX
  5
1F6
  8
0
 10
-39.1161935378307
 20
-226.7823354467855
 30
0.0
  0
VERTEX
  5
1F7
  8
0
 10
-38.96719803349077
 20
-227.099425879176
 30
0.0
  0
VERTEX
  5
1F8
  8
0
 10
-38.83630198303376
 20
-227.4187162451876
 30
0.0
  0
VERTEX
  5
1F9
  8
0
 10
-38.72640529896024
 20
-227.7402065448204
 30
0.0
  0
VERTEX
  5
1FA
  8
0
 10
-38.64330780627134
 20
-228.0641967690226
 30
0.0
  0
VERTEX
  5
1FB
  8
0
 10
-38.56451018384188
 20
-228.2232919686231
 30
0.0
  0
VERTEX
  5
1FC
  8
0
 10
-38.47541287218631
 20
-228.3818871833098
 30
0.0
  0
VERTEX
  5
1FD
  8
0
 10
-38.41781461010591
 20
-228.4603848147908
 30
0.0
  0
VERTEX
  5
1FE
  8
0
 10
-38.34621677043653
 20
-228.5380824704097
 30
0.0
  0
VERTEX
  5
1FF
  8
0
 10
-38.24871971222753
 20
-228.6142801712869
 30
0.0
  0
VERTEX
  5
200
  8
0
 10
-38.0046270772653
 20
-228.6829780984557
 30
0.0
  0
VERTEX
  5
201
  8
0
 10
-36.24438018941596
 20
-228.670678469574
 30
0.0
  0
VERTEX
  5
202
  8
0
 10
-36.00128752428154
 20
-228.5985806449907
 30
0.0
  0
VERTEX
  5
203
  8
0
 10
-35.90479043590032
 20
-228.5209829863546
 30
0.0
  0
VERTEX
  5
204
  8
0
 10
-35.8342925630415
 20
-228.442285360908
 30
0.0
  0
VERTEX
  5
205
  8
0
 10
-35.77779426777165
 20
-228.3630877505474
 30
0.0
  0
VERTEX
  5
206
  8
0
 10
-35.69089688973716
 20
-228.2031925750846
 30
0.0
  0
VERTEX
  5
207
  8
0
 10
-35.61429920092887
 20
-228.0429974086735
 30
0.0
  0
VERTEX
  5
208
  8
0
 10
-35.53580156944777
 20
-227.7179072176608
 30
0.0
  0
VERTEX
  5
209
  8
0
 10
-35.43040474959926
 20
-227.3949169632863
 30
0.0
  0
VERTEX
  5
20A
  8
0
 10
-35.30400856336728
 20
-227.0738266515847
 30
0.0
  0
VERTEX
  5
20B
  8
0
 10
-35.15941292626962
 20
-226.7547362795386
 30
0.0
  0
VERTEX
  5
20C
  8
0
 10
-34.99831778701353
 20
-226.4377458441309
 30
0.0
  0
VERTEX
  5
20D
  8
0
 10
-34.8219231093923
 20
-226.1229553423443
 30
0.0
  0
VERTEX
  5
20E
  8
0
 10
-34.63092887228545
 20
-225.8105647681443
 30
0.0
  0
VERTEX
  5
20F
  8
0
 10
-34.4259350575896
 20
-225.5008741124794
 30
0.0
  0
VERTEX
  5
210
  8
0
 10
-31.74141605791894
 20
-225.9549604112764
 30
0.0
  0
VERTEX
  5
211
  8
0
 10
-31.64971882471107
 20
-226.3148495522961
 30
0.0
  0
VERTEX
  5
212
  8
0
 10
-31.57202116909224
 20
-226.6726387566775
 30
0.0
  0
VERTEX
  5
213
  8
0
 10
-31.50892307295901
 20
-227.0279280364894
 30
0.0
  0
VERTEX
  5
214
  8
0
 10
-31.46102451820812
 20
-227.3802174068179
 30
0.0
  0
VERTEX
  5
215
  8
0
 10
-31.4295254686329
 20
-227.7292068767147
 30
0.0
  0
VERTEX
  5
216
  8
0
 10
-31.41572588500946
 20
-228.0738964763521
 30
0.0
  0
VERTEX
  5
217
  8
0
 10
-31.42242568285565
 20
-228.4136862238333
 30
0.0
  0
VERTEX
  5
218
  8
0
 10
-31.4551246962242
 20
-228.74647618252
 30
0.0
  0
VERTEX
  5
219
  8
0
 10
-31.43552528759962
 20
-228.922970857124
 30
0.0
  0
VERTEX
  5
21A
  8
0
 10
-31.40602617767998
 20
-229.1024654412114
 30
0.0
  0
VERTEX
  5
21B
  8
0
 10
-31.37882699836423
 20
-229.1959626201092
 30
0.0
  0
VERTEX
  5
21C
  8
0
 10
-31.3380282293906
 20
-229.2933596813355
 30
0.0
  0
VERTEX
  5
21D
  8
0
 10
-31.27243020868792
 20
-229.3983565132528
 30
0.0
  0
VERTEX
  5
21E
  8
0
 10
-31.06663641812987
 20
-229.5464520447478
 30
0.0
  0
VERTEX
  5
21F
  8
0
 10
-29.4082864557318
 20
-230.1369342280546
 30
0.0
  0
VERTEX
  5
220
  8
0
 10
-29.15519409231952
 20
-230.1523337634025
 30
0.0
  0
VERTEX
  5
221
  8
0
 10
-29.03799762850316
 20
-230.1124349672739
 30
0.0
  0
VERTEX
  5
222
  8
0
 10
-28.94480044055362
 20
-230.0626364698502
 30
0.0
  0
VERTEX
  5
223
  8
0
 10
-28.86470285734805
 20
-230.0074381353565
 30
0.0
  0
VERTEX
  5
224
  8
0
 10
-28.72840696982101
 20
-229.8869417711084
 30
0.0
  0
VERTEX
  5
225
  8
0
 10
-28.60161079565792
 20
-229.762545524532
 30
0.0
  0
VERTEX
  5
226
  8
0
 10
-28.41661637751777
 20
-229.4839539305112
 30
0.0
  0
VERTEX
  5
227
  8
0
 10
-28.20702270161412
 20
-229.2164620015788
 30
0.0
  0
VERTEX
  5
228
  8
0
 10
-27.97852959596531
 20
-228.9579698010965
 30
0.0
  0
VERTEX
  5
229
  8
0
 10
-27.73353698815808
 20
-228.7075773562192
 30
0.0
  0
VERTEX
  5
22A
  8
0
 10
-27.47374482689962
 20
-228.4647846820331
 30
0.0
  0
VERTEX
  5
22B
  8
0
 10
-27.20025307900055
 20
-228.2293917845726
 30
0.0
  0
VERTEX
  5
22C
  8
0
 10
-26.91396171730578
 20
-228.0011986698721
 30
0.0
  0
VERTEX
  5
22D
  8
0
 10
-26.61547072371205
 20
-227.7802053379317
 30
0.0
  0
VERTEX
  5
22E
  8
0
 10
-24.24804215643192
 20
-229.1250647593193
 30
0.0
  0
VERTEX
  5
22F
  8
0
 10
-24.28504104005997
 20
-229.4945536106857
 30
0.0
  0
VERTEX
  5
230
  8
0
 10
-24.33443954955253
 20
-229.857342664206
 30
0.0
  0
VERTEX
  5
231
  8
0
 10
-24.39663767284071
 20
-230.2128319379835
 30
0.0
  0
VERTEX
  5
232
  8
0
 10
-24.47213539483846
 20
-230.5603214531386
 30
0.0
  0
VERTEX
  5
233
  8
0
 10
-24.56183268839075
 20
-230.8989112368265
 30
0.0
  0
VERTEX
  5
234
  8
0
 10
-24.66682952030814
 20
-231.2276013192193
 30
0.0
  0
VERTEX
  5
235
  8
0
 10
-24.78922582722896
 20
-231.544591754627
 30
0.0
  0
VERTEX
  5
236
  8
0
 10
-24.93382146432664
 20
-231.8461826546869
 30
0.0
  0
VERTEX
  5
237
  8
0
 10
-24.9757202001108
 20
-232.0187774469625
 30
0.0
  0
VERTEX
  5
238
  8
0
 10
-25.00941918330714
 20
-232.1974720551876
 30
0.0
  0
VERTEX
  5
239
  8
0
 10
-25.01581899020499
 20
-232.2945691254655
 30
0.0
  0
VERTEX
  5
23A
  8
0
 10
-25.01081914106608
 20
-232.4001659392796
 30
0.0
  0
VERTEX
  5
23B
  8
0
 10
-24.985119916492
 20
-232.5212622854243
 30
0.0
  0
VERTEX
  5
23C
  8
0
 10
-24.84232422508433
 20
-232.7307559643452
 30
0.0
  0
VERTEX
  5
23D
  8
0
 10
-23.48596515067725
 20
-233.8528221081023
 30
0.0
  0
VERTEX
  5
23E
  8
0
 10
-23.25347216571731
 20
-233.9538190607086
 30
0.0
  0
VERTEX
  5
23F
  8
0
 10
-23.12967590103759
 20
-233.9564189822608
 30
0.0
  0
VERTEX
  5
240
  8
0
 10
-23.02507905705131
 20
-233.9415194318268
 30
0.0
  0
VERTEX
  5
241
  8
0
 10
-22.93088189927401
 20
-233.9170201710461
 30
0.0
  0
VERTEX
  5
242
  8
0
 10
-22.76158700743007
 20
-233.8504221805156
 30
0.0
  0
VERTEX
  5
243
  8
0
 10
-22.59989188627728
 20
-233.7769243981735
 30
0.0
  0
VERTEX
  5
244
  8
0
 10
-22.33080000562043
 20
-233.5784303873582
 30
0.0
  0
VERTEX
  5
245
  8
0
 10
-22.04240870728735
 20
-233.3987358093053
 30
0.0
  0
VERTEX
  5
246
  8
0
 10
-21.73921785550301
 20
-233.2340407786692
 30
0.0
  0
VERTEX
  5
247
  8
0
 10
-21.42332738690585
 20
-233.082445352777
 30
0.0
  0
VERTEX
  5
248
  8
0
 10
-21.09623725623749
 20
-232.9431495557666
 30
0.0
  0
VERTEX
  5
249
  8
0
 10
-20.75864744237742
 20
-232.8154534087585
 30
0.0
  0
VERTEX
  5
24A
  8
0
 10
-20.41155791515335
 20
-232.6989569238216
 30
0.0
  0
VERTEX
  5
24B
  8
0
 10
-20.05546865947926
 20
-232.5934601069903
 30
0.0
  0
VERTEX
  5
24C
  8
0
 10
-18.29092190137045
 20
-234.6668975449018
 30
0.0
  0
VERTEX
  5
24D
  8
0
 10
-18.45201704062657
 20
-235.0014874492785
 30
0.0
  0
VERTEX
  5
24E
  8
0
 10
-18.62251189626387
 20
-235.3254776734808
 30
0.0
  0
VERTEX
  5
24F
  8
0
 10
-18.80250646526508
 20
-235.6382682356118
 30
0.0
  0
VERTEX
  5
250
  8
0
 10
-18.99230073857862
 20
-235.9389591628266
 30
0.0
  0
VERTEX
  5
251
  8
0
 10
-19.19239470111833
 20
-236.2264504883147
 30
0.0
  0
VERTEX
  5
252
  8
0
 10
-19.40348833176365
 20
-236.4994422512999
 30
0.0
  0
VERTEX
  5
253
  8
0
 10
-19.62698158827354
 20
-236.75533453023
 30
0.0
  0
VERTEX
  5
254
  8
0
 10
-19.86597437711407
 20
-236.9893274699316
 30
0.0
  0
VERTEX
  5
255
  8
0
 10
-19.96437140816808
 20
-237.1371230104782
 30
0.0
  0
VERTEX
  5
256
  8
0
 10
-20.05716860818647
 20
-237.2936182885265
 30
0.0
  0
VERTEX
  5
257
  8
0
 10
-20.09636742543563
 20
-237.3827156001821
 30
0.0
  0
VERTEX
  5
258
  8
0
 10
-20.12786647501086
 20
-237.4836125558056
 30
0.0
  0
VERTEX
  5
259
  8
0
 10
-20.14506595604875
 20
-237.6061088597092
 30
0.0
  0
VERTEX
  5
25A
  8
0
 10
-20.08256784181221
 20
-237.8519014433787
 30
0.0
  0
VERTEX
  5
25B
  8
0
 10
-19.19179471922166
 20
-239.3701556329041
 30
0.0
  0
VERTEX
  5
25C
  8
0
 10
-19.0078002709093
 20
-239.5446503678525
 30
0.0
  0
VERTEX
  5
25D
  8
0
 10
-18.89240375278293
 20
-239.5893490191545
 30
0.0
  0
VERTEX
  5
25E
  8
0
 10
-18.78900687258999
 20
-239.6111483614002
 30
0.0
  0
VERTEX
  5
25F
  8
0
 10
-18.69210979627768
 20
-239.6203480838158
 30
0.0
  0
VERTEX
  5
260
  8
0
 10
-18.51021528460365
 20
-239.6156482256252
 30
0.0
  0
VERTEX
  5
261
  8
0
 10
-18.33322062508576
 20
-239.6019486389846
 30
0.0
  0
VERTEX
  5
262
  8
0
 10
-18.01233030734967
 20
-239.5073514932762
 30
0.0
  0
VERTEX
  5
263
  8
0
 10
-17.67994033659406
 20
-239.4371536113657
 30
0.0
  0
VERTEX
  5
264
  8
0
 10
-17.33865063437116
 20
-239.3860551531659
 30
0.0
  0
VERTEX
  5
265
  8
0
 10
-16.99006115240542
 20
-239.3517561880729
 30
0.0
  0
VERTEX
  5
266
  8
0
 10
-16.63497186655908
 20
-239.3327567613449
 30
0.0
  0
VERTEX
  5
267
  8
0
 10
-16.2741827526944
 20
-239.3281569001371
 30
0.0
  0
VERTEX
  5
268
  8
0
 10
-15.90809379874244
 20
-239.3373566225528
 30
0.0
  0
VERTEX
  5
269
  8
0
 10
-15.53740498358268
 20
-239.3600559376435
 30
0.0
  0
VERTEX
  5
26A
  8
0
 10
-14.58843361701504
 20
-241.9119789381499
 30
0.0
  0
VERTEX
  5
26B
  8
0
 10
-14.8542255972402
 20
-242.1712711144944
 30
0.0
  0
VERTEX
  5
26C
  8
0
 10
-15.12521742056984
 20
-242.417463686095
 30
0.0
  0
VERTEX
  5
26D
  8
0
 10
-15.40140908700398
 20
-242.6497566770894
 30
0.0
  0
VERTEX
  5
26E
  8
0
 10
-15.68260060257701
 20
-242.8673501116153
 30
0.0
  0
VERTEX
  5
26F
  8
0
 10
-15.96899196125452
 20
-243.0691440228623
 30
0.0
  0
VERTEX
  5
270
  8
0
 10
-16.2606831600193
 20
-243.253438462123
 30
0.0
  0
VERTEX
  5
271
  8
0
 10
-16.55817418378525
 20
-243.4175335108625
 30
0.0
  0
VERTEX
  5
272
  8
0
 10
-16.86276499332845
 20
-243.5556293440795
 30
0.0
  0
VERTEX
  5
273
  8
0
 10
-17.00586067568443
 20
-243.6609261669452
 30
0.0
  0
VERTEX
  5
274
  8
0
 10
-17.14655643045373
 20
-243.776122691106
 30
0.0
  0
VERTEX
  5
275
  8
0
 10
-17.21385439986362
 20
-243.8464205699993
 30
0.0
  0
VERTEX
  5
276
  8
0
 10
-17.27785246884186
 20
-243.930518032516
 30
0.0
  0
VERTEX
  5
277
  8
0
 10
-17.33605071281892
 20
-244.0398147346928
 30
0.0
  0
VERTEX
  5
278
  8
0
 10
-17.36134994946187
 20
-244.2921071222429
 30
0.0
  0
VERTEX
  5
279
  8
0
 10
-17.04355953819189
 20
-246.0234548820692
 30
0.0
  0
VERTEX
  5
27A
  8
0
 10
-16.93036295368667
 20
-246.2503480359936
 30
0.0
  0
VERTEX
  5
27B
  8
0
 10
-16.83716576573717
 20
-246.331845576958
 30
0.0
  0
VERTEX
  5
27C
  8
0
 10
-16.74746847218489
 20
-246.3876438933484
 30
0.0
  0
VERTEX
  5
27D
  8
0
 10
-16.65957112432261
 20
-246.4294426321498
 30
0.0
  0
VERTEX
  5
27E
  8
0
 10
-16.48707632902973
 20
-246.4872408881957
 30
0.0
  0
VERTEX
  5
27F
  8
0
 10
-16.31598149149579
 20
-246.5349394489811
 30
0.0
  0
VERTEX
  5
280
  8
0
 10
-15.9821915629813
 20
-246.5558388183818
 30
0.0
  0
VERTEX
  5
281
  8
0
 10
-15.64580171291453
 20
-246.6035373791671
 30
0.0
  0
VERTEX
  5
282
  8
0
 10
-15.30771191414054
 20
-246.6722353063359
 30
0.0
  0
VERTEX
  5
283
  8
0
 10
-14.96832215459044
 20
-246.7591326843704
 30
0.0
  0
VERTEX
  5
284
  8
0
 10
-14.62813241917809
 20
-246.8627295585289
 30
0.0
  0
VERTEX
  5
285
  8
0
 10
-14.28754269583466
 20
-246.9819259620008
 30
0.0
  0
VERTEX
  5
286
  8
0
 10
-13.94675297852562
 20
-247.1157219249584
 30
0.0
  0
VERTEX
  5
287
  8
0
 10
-13.60616325518218
 20
-247.2638174564533
 30
0.0
  0
VERTEX
  5
288
  8
0
 10
-13.58716382845427
 20
-249.9864353065626
 30
0.0
  0
VERTEX
  5
289
  8
0
 10
-13.92565361515939
 20
-250.1391306992653
 30
0.0
  0
VERTEX
  5
28A
  8
0
 10
-14.26454338979559
 20
-250.277826514379
 30
0.0
  0
VERTEX
  5
28B
  8
0
 10
-14.60343316443182
 20
-250.4016227790587
 30
0.0
  0
VERTEX
  5
28C
  8
0
 10
-14.94212294510248
 20
-250.5100195083906
 30
0.0
  0
VERTEX
  5
28D
  8
0
 10
-15.28021274387648
 20
-250.6016167446157
 30
0.0
  0
VERTEX
  5
28E
  8
0
 10
-15.61740256980544
 20
-250.6751145269579
 30
0.0
  0
VERTEX
  5
28F
  8
0
 10
-15.95309244099275
 20
-250.7275129459337
 30
0.0
  0
VERTEX
  5
290
  8
0
 10
-16.28658237855893
 20
-250.7530121765423
 30
0.0
  0
VERTEX
  5
291
  8
0
 10
-16.45697723721344
 20
-250.8031106649143
 30
0.0
  0
VERTEX
  5
292
  8
0
 10
-16.62867205664408
 20
-250.8633088485469
 30
0.0
  0
VERTEX
  5
293
  8
0
 10
-16.71586942562686
 20
-250.9063075511417
 30
0.0
  0
VERTEX
  5
294
  8
0
 10
-16.80486674029972
 20
-250.9634058283081
 30
0.0
  0
VERTEX
  5
295
  8
0
 10
-16.89686396445587
 20
-251.0462033300487
 30
0.0
  0
VERTEX
  5
296
  8
0
 10
-17.00686064551219
 20
-251.2745964387147
 30
0.0
  0
SEQEND
  5
297
  8
0
  0
POLYLINE
  5
47
  8
0
 66
     1
 10
0.0
 20
0.0
 30
0.0
 70
     1
  0
VERTEX
  5
298
  8
0
 10
-29.80477449244842
 20
-248.902468013244
 30
0.0
  0
VERTEX
  5
299
  8
0
 10
-21.73261805463966
 20
-251.776881283211
 30
0.0
  0
VERTEX
  5
29A
  8
0
 10
-20.45275667205807
 20
-251.0114043800418
 30
0.0
  0
VERTEX
  5
29B
  8
0
 10
-20.34006007246677
 20
-249.8849383690424
 30
0.0
  0
VERTEX
  5
29C
  8
0
 10
-20.30406115866653
 20
-248.7535725058869
 30
0.0
  0
VERTEX
  5
29D
  8
0
 10
-20.34485992764013
 20
-247.6222066427313
 30
0.0
  0
VERTEX
  5
29E
  8
0
 10
-20.46225638542205
 20
-246.4963406136286
 30
0.0
  0
VERTEX
  5
29F
  8
0
 10
-20.65575054709839
 20
-245.3808742707348
 30
0.0
  0
VERTEX
  5
2A0
  8
0
 10
-20.92444243982411
 20
-244.28120745112
 30
0.0
  0
VERTEX
  5
2A1
  8
0
 10
-21.26713209980591
 20
-243.2023400039232
 30
0.0
  0
VERTEX
  5
2A2
  8
0
 10
-21.68221957531931
 20
-242.1491717813004
 30
0.0
  0
VERTEX
  5
2A3
  8
0
 10
-22.16780492369153
 20
-241.1265026384251
 30
0.0
  0
VERTEX
  5
2A4
  8
0
 10
-22.72168821130145
 20
-240.1392324274533
 30
0.0
  0
VERTEX
  5
2A5
  8
0
 10
-23.34116951961403
 20
-239.1917610156273
 30
0.0
  0
VERTEX
  5
2A6
  8
0
 10
-24.02354893009429
 20
-238.2884882701894
 30
0.0
  0
VERTEX
  5
2A7
  8
0
 10
-24.76552654231048
 20
-237.4335140674336
 30
0.0
  0
VERTEX
  5
2A8
  8
0
 10
-25.56390245281374
 20
-236.6309382836536
 30
0.0
  0
VERTEX
  5
2A9
  8
0
 10
-26.41477677927571
 20
-235.8842608132468
 30
0.0
  0
VERTEX
  5
2AA
  8
0
 10
-27.31434963635077
 20
-235.1970815475932
 30
0.0
  0
VERTEX
  5
2AB
  8
0
 10
-28.25852114774501
 20
-234.5725003931589
 30
0.0
  0
VERTEX
  5
2AC
  8
0
 10
-29.66057884328187
 20
-235.0805850626563
 30
0.0
  0
VERTEX
  5
2AD
  8
0
 10
-32.53499211324883
 20
-243.1527415004651
 30
0.0
  0
VERTEX
  5
2AE
  8
0
 10
-32.04490690065157
 20
-245.2058795508725
 30
0.0
  0
VERTEX
  5
2AF
  8
0
 10
-31.47232417726211
 20
-246.171150425633
 30
0.0
  0
VERTEX
  5
2B0
  8
0
 10
-31.08613582977166
 20
-247.2250186271353
 30
0.0
  0
SEQEND
  5
2B1
  8
0
  0
POLYLINE
  5
48
  8
0
 66
     1
 10
0.0
 20
0.0
 30
0.0
 70
     1
  0
VERTEX
  5
2B2
  8
0
 10
-36.86996131367803
 20
-241.6090880773139
 30
0.0
  0
VERTEX
  5
2B3
  8
0
 10
-33.99564804069388
 20
-233.5369316395052
 30
0.0
  0
VERTEX
  5
2B4
  8
0
 10
-34.76102494688023
 20
-232.2570702569236
 30
0.0
  0
VERTEX
  5
2B5
  8
0
 10
-35.88749095787963
 20
-232.1443736573323
 30
0.0
  0
VERTEX
  5
2B6
  8
0
 10
-37.01895681801794
 20
-232.108374743532
 30
0.0
  0
VERTEX
  5
2B7
  8
0
 10
-38.15022268419072
 20
-232.1491735125056
 30
0.0
  0
VERTEX
  5
2B8
  8
0
 10
-39.27618871027623
 20
-232.2665699702875
 30
0.0
  0
VERTEX
  5
2B9
  8
0
 10
-40.39155505618723
 20
-232.4600641319639
 30
0.0
  0
VERTEX
  5
2BA
  8
0
 10
-41.49122187580198
 20
-232.7287560246896
 30
0.0
  0
VERTEX
  5
2BB
  8
0
 10
-42.57008932299884
 20
-233.0714456846714
 30
0.0
  0
VERTEX
  5
2BC
  8
0
 10
-43.62325754562166
 20
-233.4865331601848
 30
0.0
  0
VERTEX
  5
2BD
  8
0
 10
-44.64592668849703
 20
-233.972118508557
 30
0.0
  0
VERTEX
  5
2BE
  8
0
 10
-45.6331968994688
 20
-234.526001796167
 30
0.0
  0
VERTEX
  5
2BF
  8
0
 10
-46.58066831129476
 20
-235.1454831044796
 30
0.0
  0
VERTEX
  5
2C0
  8
0
 10
-47.48394105673263
 20
-235.8278625149598
 30
0.0
  0
VERTEX
  5
2C1
  8
0
 10
-48.33891525948853
 20
-236.569840127176
 30
0.0
  0
VERTEX
  5
2C2
  8
0
 10
-49.14149104326847
 20
-237.3682160376792
 30
0.0
  0
VERTEX
  5
2C3
  8
0
 10
-49.8881685136753
 20
-238.2190903641412
 30
0.0
  0
VERTEX
  5
2C4
  8
0
 10
-50.57534777932888
 20
-239.1186632212163
 30
0.0
  0
VERTEX
  5
2C5
  8
0
 10
-51.1999289337632
 20
-240.0628347326105
 30
0.0
  0
VERTEX
  5
2C6
  8
0
 10
-50.6918442642658
 20
-241.4648924281474
 30
0.0
  0
VERTEX
  5
2C7
  8
0
 10
-42.61968782645697
 20
-244.3393056981143
 30
0.0
  0
VERTEX
  5
2C8
  8
0
 10
-40.56654977604954
 20
-243.8492204855171
 30
0.0
  0
VERTEX
  5
2C9
  8
0
 10
-39.60127890128902
 20
-243.2766377621276
 30
0.0
  0
VERTEX
  5
2CA
  8
0
 10
-38.54741069978678
 20
-242.8904494146372
 30
0.0
  0
SEQEND
  5
2CB
  8
0
  0
POLYLINE
  5
49
  8
0
 66
     1
 10
0.0
 20
0.0
 30
0.0
 70
     1
  0
VERTEX
  5
2CC
  8
0
 10
-44.16334124960815
 20
-248.6742748985435
 30
0.0
  0
VERTEX
  5
2CD
  8
0
 10
-52.23549768741698
 20
-245.7999616255593
 30
0.0
  0
VERTEX
  5
2CE
  8
0
 10
-53.51535906999851
 20
-246.5653385317457
 30
0.0
  0
VERTEX
  5
2CF
  8
0
 10
-53.62805566958987
 20
-247.6918045427451
 30
0.0
  0
VERTEX
  5
2D0
  8
0
 10
-53.6640545833901
 20
-248.8232704028835
 30
0.0
  0
VERTEX
  5
2D1
  8
0
 10
-53.62335581139928
 20
-249.9545362690562
 30
0.0
  0
VERTEX
  5
2D2
  8
0
 10
-53.50585935663456
 20
-251.0805022951417
 30
0.0
  0
VERTEX
  5
2D3
  8
0
 10
-53.31236519495825
 20
-252.1958686410527
 30
0.0
  0
VERTEX
  5
2D4
  8
0
 10
-53.04367330223249
 20
-253.2955354606675
 30
0.0
  0
VERTEX
  5
2D5
  8
0
 10
-52.7009836422507
 20
-254.3744029078644
 30
0.0
  0
VERTEX
  5
2D6
  8
0
 10
-52.2858961667373
 20
-255.4275711304871
 30
0.0
  0
VERTEX
  5
2D7
  8
0
 10
-51.80031081836508
 20
-256.4502402733625
 30
0.0
  0
VERTEX
  5
2D8
  8
0
 10
-51.24642753075517
 20
-257.4375104843343
 30
0.0
  0
VERTEX
  5
2D9
  8
0
 10
-50.62694622244256
 20
-258.3849818961602
 30
0.0
  0
VERTEX
  5
2DA
  8
0
 10
-49.9446668089451
 20
-259.2882546415981
 30
0.0
  0
VERTEX
  5
2DB
  8
0
 10
-49.2025891997461
 20
-260.143228844354
 30
0.0
  0
VERTEX
  5
2DC
  8
0
 10
-48.40421328924285
 20
-260.945804628134
 30
0.0
  0
VERTEX
  5
2DD
  8
0
 10
-47.5533389627809
 20
-261.6924820985408
 30
0.0
  0
VERTEX
  5
2DE
  8
0
 10
-46.6537661057058
 20
-262.3796613641944
 30
0.0
  0
VERTEX
  5
2DF
  8
0
 10
-45.70959459431157
 20
-263.0042425186287
 30
0.0
  0
VERTEX
  5
2E0
  8
0
 10
-44.30753689877469
 20
-262.4961578491313
 30
0.0
  0
VERTEX
  5
2E1
  8
0
 10
-41.43312362880771
 20
-254.4240014113225
 30
0.0
  0
VERTEX
  5
2E2
  8
0
 10
-41.92320884140497
 20
-252.370863360915
 30
0.0
  0
VERTEX
  5
2E3
  8
0
 10
-42.49579156479447
 20
-251.4055924861545
 30
0.0
  0
VERTEX
  5
2E4
  8
0
 10
-42.88197991228489
 20
-250.3517242846523
 30
0.0
  0
SEQEND
  5
2E5
  8
0
  0
POLYLINE
  5
4A
  8
0
 66
     1
 10
0.0
 20
0.0
 30
0.0
 70
     1
  0
VERTEX
  5
2E6
  8
0
 10
-37.09815442837852
 20
-255.9676548344736
 30
0.0
  0
VERTEX
  5
2E7
  8
0
 10
-39.97256769834546
 20
-264.0398112722825
 30
0.0
  0
VERTEX
  5
2E8
  8
0
 10
-39.20709079517631
 20
-265.3196726548641
 30
0.0
  0
VERTEX
  5
2E9
  8
0
 10
-38.0806247841769
 20
-265.4323692544554
 30
0.0
  0
VERTEX
  5
2EA
  8
0
 10
-36.94925892102135
 20
-265.4683681682557
 30
0.0
  0
VERTEX
  5
2EB
  8
0
 10
-35.81789305786585
 20
-265.4276693962648
 30
0.0
  0
VERTEX
  5
2EC
  8
0
 10
-34.69202702876308
 20
-265.3101729415001
 30
0.0
  0
VERTEX
  5
2ED
  8
0
 10
-33.57656068586931
 20
-265.1166787798238
 30
0.0
  0
VERTEX
  5
2EE
  8
0
 10
-32.47689386625457
 20
-264.8479868870981
 30
0.0
  0
VERTEX
  5
2EF
  8
0
 10
-31.3980264190577
 20
-264.5052972271163
 30
0.0
  0
VERTEX
  5
2F0
  8
0
 10
-30.34485819643491
 20
-264.0902097516029
 30
0.0
  0
VERTEX
  5
2F1
  8
0
 10
-29.32218905355955
 20
-263.6046244032307
 30
0.0
  0
VERTEX
  5
2F2
  8
0
 10
-28.33491884258778
 20
-263.0507411156207
 30
0.0
  0
VERTEX
  5
2F3
  8
0
 10
-27.38744743076182
 20
-262.4312598073081
 30
0.0
  0
VERTEX
  5
2F4
  8
0
 10
-26.48417468532394
 20
-261.7489803938107
 30
0.0
  0
VERTEX
  5
2F5
  8
0
 10
-25.62920048256808
 20
-261.0069027846116
 30
0.0
  0
VERTEX
  5
2F6
  8
0
 10
-24.82662469878814
 20
-260.2085268741084
 30
0.0
  0
VERTEX
  5
2F7
  8
0
 10
-24.07994722838133
 20
-259.3576525476464
 30
0.0
  0
VERTEX
  5
2F8
  8
0
 10
-23.39276796272773
 20
-258.4580796905713
 30
0.0
  0
VERTEX
  5
2F9
  8
0
 10
-22.76818680829342
 20
-257.513908179177
 30
0.0
  0
VERTEX
  5
2FA
  8
0
 10
-23.27627147779081
 20
-256.1118504836402
 30
0.0
  0
VERTEX
  5
2FB
  8
0
 10
-31.34842791559957
 20
-253.2374372136732
 30
0.0
  0
VERTEX
  5
2FC
  8
0
 10
-33.40156596600701
 20
-253.7275224262705
 30
0.0
  0
VERTEX
  5
2FD
  8
0
 10
-34.36683684076752
 20
-254.3001051496599
 30
0.0
  0
VERTEX
  5
2FE
  8
0
 10
-35.42070504226977
 20
-254.6862934971504
 30
0.0
  0
SEQEND
  5
2FF
  8
0
  0
POLYLINE
  5
4B
  8
0
 66
     1
 10
0.0
 20
0.0
 30
0.0
 70
     1
  0
VERTEX
  5
300
  8
0
 10
-35.63405787102826
 20
-248.7883714558938
 30
0.0
  0
VERTEX
  5
301
  8
0
 10
-35.6800478710283
 20
-248.4389914558938
 30
0.0
  0
VERTEX
  5
302
  8
0
 10
-35.81495787102826
 20
-248.1133714558937
 30
0.0
  0
VERTEX
  5
303
  8
0
 10
-36.02942787102828
 20
-247.8337414558937
 30
0.0
  0
VERTEX
  5
304
  8
0
 10
-36.30905787102827
 20
-247.6192714558938
 30
0.0
  0
VERTEX
  5
305
  8
0
 10
-36.63467787102826
 20
-247.4843614558938
 30
0.0
  0
VERTEX
  5
306
  8
0
 10
-36.98405787102824
 20
-247.4383714558938
 30
0.0
  0
VERTEX
  5
307
  8
0
 10
-37.33343787102827
 20
-247.4843614558938
 30
0.0
  0
VERTEX
  5
308
  8
0
 10
-37.65905787102825
 20
-247.6192714558938
 30
0.0
  0
VERTEX
  5
309
  8
0
 10
-37.93868787102825
 20
-247.8337414558937
 30
0.0
  0
VERTEX
  5
30A
  8
0
 10
-38.15315787102822
 20
-248.1133714558937
 30
0.0
  0
VERTEX
  5
30B
  8
0
 10
-38.28806787102823
 20
-248.4389914558938
 30
0.0
  0
VERTEX
  5
30C
  8
0
 10
-38.33405787102826
 20
-248.7883714558938
 30
0.0
  0
VERTEX
  5
30D
  8
0
 10
-38.28806787102823
 20
-249.1377514558938
 30
0.0
  0
VERTEX
  5
30E
  8
0
 10
-38.15315787102822
 20
-249.4633714558938
 30
0.0
  0
VERTEX
  5
30F
  8
0
 10
-37.93868787102825
 20
-249.7430014558938
 30
0.0
  0
VERTEX
  5
310
  8
0
 10
-37.65905787102825
 20
-249.9574714558938
 30
0.0
  0
VERTEX
  5
311
  8
0
 10
-37.33343787102827
 20
-250.0923814558938
 30
0.0
  0
VERTEX
  5
312
  8
0
 10
-36.98405787102824
 20
-250.1383714558938
 30
0.0
  0
VERTEX
  5
313
  8
0
 10
-36.63467787102826
 20
-250.0923814558938
 30
0.0
  0
VERTEX
  5
314
  8
0
 10
-36.30905787102827
 20
-249.9574714558938
 30
0.0
  0
VERTEX
  5
315
  8
0
 10
-36.02942787102828
 20
-249.7430014558938
 30
0.0
  0
VERTEX
  5
316
  8
0
 10
-35.81495787102826
 20
-249.4633714558938
 30
0.0
  0
VERTEX
  5
317
  8
0
 10
-35.6800478710283
 20
-249.1377514558938
 30
0.0
  0
SEQEND
  5
318
  8
0
  0
ENDSEC
  0
EOF
