  0
SECTION
  2
HEADER
  9
$ACADVER
  1
AC1009
  9
$DWGCODEPAGE
  3
ansi_1252
  9
$INSBASE
 10
0.0
 20
0.0
 30
0.0
  9
$EXTMIN
 10
612.3388202670482
 20
887.4467662396019
 30
0.0
  9
$EXTMAX
 10
1499.07282194147
 20
1394.983927454401
 30
0.0
  9
$LIMMIN
 10
0.0
 20
0.0
  9
$LIMMAX
 10
12.0
 20
9.0
  9
$ORTHOMODE
 70
     0
  9
$REGENMODE
 70
     1
  9
$FILLMODE
 70
     1
  9
$QTEXTMODE
 70
     0
  9
$MIRRTEXT
 70
     1
  9
$DRAGMODE
 70
     2
  9
$LTSCALE
 40
1.0
  9
$OSMODE
 70
    37
  9
$ATTMODE
 70
     1
  9
$TEXTSIZE
 40
0.2
  9
$TRACEWID
 40
0.05
  9
$TEXTSTYLE
  7
STANDARD
  9
$CLAYER
  8
0
  9
$CELTYPE
  6
BYLAYER
  9
$CECOLOR
 62
   256
  9
$DIMSCALE
 40
1.0
  9
$DIMASZ
 40
0.18
  9
$DIMEXO
 40
0.0625
  9
$DIMDLI
 40
0.38
  9
$DIMRND
 40
0.0
  9
$DIMDLE
 40
0.0
  9
$DIMEXE
 40
0.18
  9
$DIMTP
 40
0.0
  9
$DIMTM
 40
0.0
  9
$DIMTXT
 40
0.18
  9
$DIMCEN
 40
0.09
  9
$DIMTSZ
 40
0.0
  9
$DIMTOL
 70
     0
  9
$DIMLIM
 70
     0
  9
$DIMTIH
 70
     1
  9
$DIMTOH
 70
     1
  9
$DIMSE1
 70
     0
  9
$DIMSE2
 70
     0
  9
$DIMTAD
 70
     0
  9
$DIMZIN
 70
     0
  9
$DIMBLK
  1

  9
$DIMASO
 70
     1
  9
$DIMSHO
 70
     1
  9
$DIMPOST
  1

  9
$DIMAPOST
  1

  9
$DIMALT
 70
     0
  9
$DIMALTD
 70
     2
  9
$DIMALTF
 40
25.4
  9
$DIMLFAC
 40
1.0
  9
$DIMTOFL
 70
     0
  9
$DIMTVP
 40
0.0
  9
$DIMTIX
 70
     0
  9
$DIMSOXD
 70
     0
  9
$DIMSAH
 70
     0
  9
$DIMBLK1
  1

  9
$DIMBLK2
  1

  9
$DIMSTYLE
  2
STANDARD
  9
$DIMCLRD
 70
     0
  9
$DIMCLRE
 70
     0
  9
$DIMCLRT
 70
     0
  9
$DIMTFAC
 40
1.0
  9
$DIMGAP
 40
0.09
  9
$LUNITS
 70
     2
  9
$LUPREC
 70
     4
  9
$SKETCHINC
 40
0.1
  9
$FILLETRAD
 40
0.5
  9
$AUNITS
 70
     0
  9
$AUPREC
 70
     0
  9
$MENU
  1
.
  9
$ELEVATION
 40
0.0
  9
$PELEVATION
 40
0.0
  9
$THICKNESS
 40
0.0
  9
$LIMCHECK
 70
     0
  9
$CHAMFERA
 40
0.5
  9
$CHAMFERB
 40
0.5
  9
$SKPOLY
 70
     0
  9
$TDCREATE
 40
2454910.5
  9
$TDUPDATE
 40
2458441.54460066
  9
$TDINDWG
 40
0.0000000116
  9
$TDUSRTIMER
 40
0.0000000116
  9
$USRTIMER
 70
     1
  9
$ANGBASE
 50
0.0
  9
$ANGDIR
 70
     0
  9
$PDMODE
 70
     0
  9
$PDSIZE
 40
0.0
  9
$PLINEWID
 40
0.0
  9
$COORDS
 70
     1
  9
$SPLFRAME
 70
     0
  9
$SPLINETYPE
 70
     6
  9
$SPLINESEGS
 70
     8
  9
$ATTDIA
 70
     0
  9
$ATTREQ
 70
     1
  9
$HANDLING
 70
     1
  9
$HANDSEED
  5
1CB
  9
$SURFTAB1
 70
     6
  9
$SURFTAB2
 70
     6
  9
$SURFTYPE
 70
     6
  9
$SURFU
 70
     6
  9
$SURFV
 70
     6
  9
$UCSNAME
  2

  9
$UCSORG
 10
0.0
 20
0.0
 30
0.0
  9
$UCSXDIR
 10
1.0
 20
0.0
 30
0.0
  9
$UCSYDIR
 10
0.0
 20
1.0
 30
0.0
  9
$PUCSNAME
  2

  9
$PUCSORG
 10
0.0
 20
0.0
 30
0.0
  9
$PUCSXDIR
 10
1.0
 20
0.0
 30
0.0
  9
$PUCSYDIR
 10
0.0
 20
1.0
 30
0.0
  9
$USERI1
 70
     0
  9
$USERI2
 70
     0
  9
$USERI3
 70
     0
  9
$USERI4
 70
     0
  9
$USERI5
 70
     0
  9
$USERR1
 40
0.0
  9
$USERR2
 40
0.0
  9
$USERR3
 40
0.0
  9
$USERR4
 40
0.0
  9
$USERR5
 40
0.0
  9
$WORLDVIEW
 70
     1
  9
$SHADEDGE
 70
     3
  9
$SHADEDIF
 70
    70
  9
$TILEMODE
 70
     1
  9
$MAXACTVP
 70
    64
  9
$PLIMCHECK
 70
     0
  9
$PEXTMIN
 10
1.000000000000000E+20
 20
1.000000000000000E+20
 30
1.000000000000000E+20
  9
$PEXTMAX
 10
-1.000000000000000E+20
 20
-1.000000000000000E+20
 30
-1.000000000000000E+20
  9
$PLIMMIN
 10
0.0
 20
0.0
  9
$PLIMMAX
 10
12.0
 20
9.0
  9
$UNITMODE
 70
     0
  9
$VISRETAIN
 70
     1
  9
$PLINEGEN
 70
     0
  9
$PSLTSCALE
 70
     1
  0
ENDSEC
  0
SECTION
  2
TABLES
  0
TABLE
  2
VPORT
 70
     1
  0
VPORT
  2
*ACTIVE
 70
     0
 10
0.0
 20
0.0
 11
1.0
 21
1.0
 12
10.42990654205607
 22
4.5
 13
0.0
 23
0.0
 14
0.5
 24
0.5
 15
0.5
 25
0.5
 16
0.0
 26
0.0
 36
1.0
 17
0.0
 27
0.0
 37
0.0
 40
9.0
 41
1.972972972850329
 42
50.0
 43
0.0
 44
0.0
 50
0.0
 51
0.0
 71
     0
 72
   100
 73
     1
 74
     3
 75
     0
 76
     0
 77
     0
 78
     0
  0
ENDTAB
  0
TABLE
  2
LTYPE
 70
     2
  0
LTYPE
  2
CONTINUOUS
 70
     0
  3
Solid line
 72
    65
 73
     0
 40
0.0
  0
LTYPE
  2
CONTINUOUS2
 70
     0
  3
Solid Line
 72
    65
 73
     0
 40
0.0
  0
ENDTAB
  0
TABLE
  2
LAYER
 70
     4
  0
LAYER
  2
0
 70
     0
 62
     7
  6
CONTINUOUS
  0
LAYER
  2
CUT_LAST
 70
     0
 62
    18
  6
CONTINUOUS
  0
LAYER
  2
ENGRAVE
 70
     0
 62
    30
  6
CONTINUOUS
  0
LAYER
  2
CUT_FIRST
 70
     0
 62
   105
  6
CONTINUOUS
  0
ENDTAB
  0
TABLE
  2
STYLE
 70
     1
  0
STYLE
  2
STANDARD
 70
     0
 40
0.0
 41
1.0
 50
0.0
 71
     0
 42
0.2
  3
txt
  4

  0
ENDTAB
  0
TABLE
  2
VIEW
 70
     0
  0
ENDTAB
  0
TABLE
  2
UCS
 70
     0
  0
ENDTAB
  0
TABLE
  2
APPID
 70
     1
  0
APPID
  2
ACAD
 70
     0
  0
ENDTAB
  0
TABLE
  2
DIMSTYLE
 70
     1
  0
DIMSTYLE
  2
STANDARD
 70
     0
  3

  4

  5

  6

  7

 40
1.0
 41
0.18
 42
0.0625
 43
0.38
 44
0.18
 45
0.0
 46
0.0
 47
0.0
 48
0.0
140
0.18
141
0.09
142
0.0
143
25.4
144
1.0
145
0.0
146
1.0
147
0.09
 71
     0
 72
     0
 73
     1
 74
     1
 75
     0
 76
     0
 77
     0
 78
     0
170
     0
171
     2
172
     0
173
     0
174
     0
175
     0
176
     0
177
     0
178
     0
  0
ENDTAB
  0
ENDSEC
  0
SECTION
  2
BLOCKS
  0
BLOCK
  8
0
  2
$MODEL_SPACE
 70
     0
 10
0.0
 20
0.0
 30
0.0
  3
$MODEL_SPACE
  1

  0
ENDBLK
  5
21
  8
0
  0
BLOCK
 67
     1
  8
0
  2
$PAPER_SPACE
 70
     0
 10
0.0
 20
0.0
 30
0.0
  3
$PAPER_SPACE
  1

  0
ENDBLK
  5
1D
 67
     1
  8
0
  0
ENDSEC
  0
SECTION
  2
ENTITIES
  0
POLYLINE
  5
41
  8
CUT_LAST
 66
     1
 10
0.0
 20
0.0
 30
0.0
 70
     1
  0
VERTEX
  5
6D
  8
CUT_LAST
 10
1049.065825610269
 20
1382.983913283782
 30
0.0
  0
VERTEX
  5
6E
  8
CUT_LAST
 10
1079.065861036806
 20
1382.983913283778
 30
0.0
  0
VERTEX
  5
6F
  8
CUT_LAST
 10
1079.065861036803
 20
1394.983927454392
 30
0.0
  0
VERTEX
  5
70
  8
CUT_LAST
 10
1092.694639672605
 20
1394.983927454392
 30
0.0
  0
VERTEX
  5
71
  8
CUT_LAST
 10
1139.08699930195
 20
1394.98392745439
 30
0.0
  0
VERTEX
  5
72
  8
CUT_LAST
 10
1149.065943698698
 20
1394.983927454395
 30
0.0
  0
VERTEX
  5
73
  8
CUT_LAST
 10
1149.065943698689
 20
1382.983913283778
 30
0.0
  0
VERTEX
  5
74
  8
CUT_LAST
 10
1179.065979125222
 20
1382.983913283787
 30
0.0
  0
VERTEX
  5
75
  8
CUT_LAST
 10
1197.066000381137
 20
1382.983913283749
 30
0.0
  0
VERTEX
  5
76
  8
CUT_LAST
 10
1197.066000381137
 20
1394.983927454401
 30
0.0
  0
VERTEX
  5
77
  8
CUT_LAST
 10
1231.066040531203
 20
1394.983927454397
 30
0.0
  0
VERTEX
  5
78
  8
CUT_LAST
 10
1231.066040531201
 20
1382.983913283763
 30
0.0
  0
VERTEX
  5
79
  8
CUT_LAST
 10
1249.066061787117
 20
1382.98391328378
 30
0.0
  0
VERTEX
  5
7A
  8
CUT_LAST
 10
1279.066097213643
 20
1382.983913283778
 30
0.0
  0
VERTEX
  5
7B
  8
CUT_LAST
 10
1279.06609721364
 20
1394.983927454392
 30
0.0
  0
VERTEX
  5
7C
  8
CUT_LAST
 10
1292.694875849442
 20
1394.983927454392
 30
0.0
  0
VERTEX
  5
7D
  8
CUT_LAST
 10
1339.087235478784
 20
1394.98392745439
 30
0.0
  0
VERTEX
  5
7E
  8
CUT_LAST
 10
1349.066179875531
 20
1394.983927454395
 30
0.0
  0
VERTEX
  5
7F
  8
CUT_LAST
 10
1349.066179875522
 20
1382.983913283778
 30
0.0
  0
VERTEX
  5
80
  8
CUT_LAST
 10
1379.066215302054
 20
1382.983913283787
 30
0.0
  0
VERTEX
  5
81
  8
CUT_LAST
 10
1397.066236557969
 20
1382.983913283749
 30
0.0
  0
VERTEX
  5
82
  8
CUT_LAST
 10
1397.066236557969
 20
1394.983927454401
 30
0.0
  0
VERTEX
  5
83
  8
CUT_LAST
 10
1431.066276708035
 20
1394.983927454397
 30
0.0
  0
VERTEX
  5
84
  8
CUT_LAST
 10
1431.066276708033
 20
1382.983913283763
 30
0.0
  0
VERTEX
  5
85
  8
CUT_LAST
 10
1449.066297963949
 20
1382.983913283785
 30
0.0
  0
VERTEX
  5
86
  8
CUT_LAST
 10
1449.066297963949
 20
1344.983868410196
 30
0.0
  0
VERTEX
  5
87
  8
CUT_LAST
 10
1461.066312134559
 20
1344.983868410198
 30
0.0
  0
VERTEX
  5
88
  8
CUT_LAST
 10
1461.066312134557
 20
1244.98375032179
 30
0.0
  0
VERTEX
  5
89
  8
CUT_LAST
 10
1449.066297963949
 20
1244.983750321795
 30
0.0
  0
VERTEX
  5
8A
  8
CUT_LAST
 10
1449.066297963949
 20
1209.513567967398
 30
0.0
  0
VERTEX
  5
8B
  8
CUT_LAST
 10
1449.066297963949
 20
1174.043385613063
 30
0.0
  0
VERTEX
  5
8C
  8
CUT_LAST
 10
1461.066312134557
 20
1174.043385613063
 30
0.0
  0
VERTEX
  5
8D
  8
CUT_LAST
 10
1461.066312134557
 20
1141.215346846996
 30
0.0
  0
VERTEX
  5
8E
  8
CUT_LAST
 10
1461.066312134557
 20
1108.387308080934
 30
0.0
  0
VERTEX
  5
8F
  8
CUT_LAST
 10
1449.066297963949
 20
1108.387308080934
 30
0.0
  0
VERTEX
  5
90
  8
CUT_LAST
 10
1449.066297963949
 20
1072.917125726588
 30
0.0
  0
VERTEX
  5
91
  8
CUT_LAST
 10
1449.066297963949
 20
1037.446943372239
 30
0.0
  0
VERTEX
  5
92
  8
CUT_LAST
 10
1461.066312134557
 20
1037.446943372247
 30
0.0
  0
VERTEX
  5
93
  8
CUT_LAST
 10
1461.066312134559
 20
937.4468252839115
 30
0.0
  0
VERTEX
  5
94
  8
CUT_LAST
 10
1449.06629796395
 20
937.446825283926
 30
0.0
  0
VERTEX
  5
95
  8
CUT_LAST
 10
1449.066297963949
 20
899.4467804102169
 30
0.0
  0
VERTEX
  5
96
  8
CUT_LAST
 10
1431.066276708036
 20
899.4467804102169
 30
0.0
  0
VERTEX
  5
97
  8
CUT_LAST
 10
1431.066276708036
 20
887.4467662396073
 30
0.0
  0
VERTEX
  5
98
  8
CUT_LAST
 10
1397.066236557969
 20
887.4467662396046
 30
0.0
  0
VERTEX
  5
99
  8
CUT_LAST
 10
1397.06623655797
 20
899.4467804102169
 30
0.0
  0
VERTEX
  5
9A
  8
CUT_LAST
 10
1379.066215302056
 20
899.4467804102133
 30
0.0
  0
VERTEX
  5
9B
  8
CUT_LAST
 10
1349.06617987553
 20
899.4467804102078
 30
0.0
  0
VERTEX
  5
9C
  8
CUT_LAST
 10
1349.06617987553
 20
887.4467662396019
 30
0.0
  0
VERTEX
  5
9D
  8
CUT_LAST
 10
1339.087235478784
 20
887.4467662396019
 30
0.0
  0
VERTEX
  5
9E
  8
CUT_LAST
 10
1292.694875849441
 20
887.4467662396023
 30
0.0
  0
VERTEX
  5
9F
  8
CUT_LAST
 10
1279.066097213643
 20
887.4467662396023
 30
0.0
  0
VERTEX
  5
A0
  8
CUT_LAST
 10
1279.066097213643
 20
899.4467804102082
 30
0.0
  0
VERTEX
  5
A1
  8
CUT_LAST
 10
1249.066061787117
 20
899.4467804102101
 30
0.0
  0
VERTEX
  5
A2
  8
CUT_LAST
 10
1231.066040531203
 20
899.4467804102173
 30
0.0
  0
VERTEX
  5
A3
  8
CUT_LAST
 10
1231.066040531203
 20
887.4467662396078
 30
0.0
  0
VERTEX
  5
A4
  8
CUT_LAST
 10
1197.066000381137
 20
887.446766239605
 30
0.0
  0
VERTEX
  5
A5
  8
CUT_LAST
 10
1197.066000381138
 20
899.4467804102173
 30
0.0
  0
VERTEX
  5
A6
  8
CUT_LAST
 10
1179.065979125224
 20
899.4467804102137
 30
0.0
  0
VERTEX
  5
A7
  8
CUT_LAST
 10
1149.065943698697
 20
899.4467804102082
 30
0.0
  0
VERTEX
  5
A8
  8
CUT_LAST
 10
1149.065943698697
 20
887.4467662396023
 30
0.0
  0
VERTEX
  5
A9
  8
CUT_LAST
 10
1139.08699930195
 20
887.4467662396023
 30
0.0
  0
VERTEX
  5
AA
  8
CUT_LAST
 10
1092.694639672604
 20
887.4467662396023
 30
0.0
  0
VERTEX
  5
AB
  8
CUT_LAST
 10
1079.065861036806
 20
887.4467662396023
 30
0.0
  0
VERTEX
  5
AC
  8
CUT_LAST
 10
1079.065861036806
 20
899.4467804102082
 30
0.0
  0
VERTEX
  5
AD
  8
CUT_LAST
 10
1049.065825610269
 20
899.4467804102101
 30
0.0
  0
VERTEX
  5
AE
  8
CUT_LAST
 10
1031.065804354342
 20
899.4467804102169
 30
0.0
  0
VERTEX
  5
AF
  8
CUT_LAST
 10
1031.065804354342
 20
887.4467662396073
 30
0.0
  0
VERTEX
  5
B0
  8
CUT_LAST
 10
997.0657642042763
 20
887.4467662396046
 30
0.0
  0
VERTEX
  5
B1
  8
CUT_LAST
 10
997.0657642042772
 20
899.4467804102169
 30
0.0
  0
VERTEX
  5
B2
  8
CUT_LAST
 10
979.0657429483624
 20
899.4467804102133
 30
0.0
  0
VERTEX
  5
B3
  8
CUT_LAST
 10
949.0657075218367
 20
899.4467804102078
 30
0.0
  0
VERTEX
  5
B4
  8
CUT_LAST
 10
949.0657075218367
 20
887.4467662396019
 30
0.0
  0
VERTEX
  5
B5
  8
CUT_LAST
 10
939.0867631250912
 20
887.4467662396019
 30
0.0
  0
VERTEX
  5
B6
  8
CUT_LAST
 10
892.6944034957478
 20
887.4467662396023
 30
0.0
  0
VERTEX
  5
B7
  8
CUT_LAST
 10
879.06562485995
 20
887.4467662396023
 30
0.0
  0
VERTEX
  5
B8
  8
CUT_LAST
 10
879.06562485995
 20
899.4467804102082
 30
0.0
  0
VERTEX
  5
B9
  8
CUT_LAST
 10
849.0655894334243
 20
899.4467804102101
 30
0.0
  0
VERTEX
  5
BA
  8
CUT_LAST
 10
831.0655681775104
 20
899.4467804102173
 30
0.0
  0
VERTEX
  5
BB
  8
CUT_LAST
 10
831.0655681775104
 20
887.4467662396078
 30
0.0
  0
VERTEX
  5
BC
  8
CUT_LAST
 10
797.0655280274443
 20
887.446766239605
 30
0.0
  0
VERTEX
  5
BD
  8
CUT_LAST
 10
797.0655280274452
 20
899.4467804102173
 30
0.0
  0
VERTEX
  5
BE
  8
CUT_LAST
 10
779.0655067715304
 20
899.4467804102137
 30
0.0
  0
VERTEX
  5
BF
  8
CUT_LAST
 10
749.0654713450047
 20
899.4467804102082
 30
0.0
  0
VERTEX
  5
C0
  8
CUT_LAST
 10
749.0654713450047
 20
887.4467662396023
 30
0.0
  0
VERTEX
  5
C1
  8
CUT_LAST
 10
739.0865269482592
 20
887.4467662396023
 30
0.0
  0
VERTEX
  5
C2
  8
CUT_LAST
 10
692.694167318916
 20
887.4467662396023
 30
0.0
  0
VERTEX
  5
C3
  8
CUT_LAST
 10
679.065388683118
 20
887.4467662396023
 30
0.0
  0
VERTEX
  5
C4
  8
CUT_LAST
 10
679.065388683118
 20
899.4467804102082
 30
0.0
  0
VERTEX
  5
C5
  8
CUT_LAST
 10
649.0653532565932
 20
899.4467804102028
 30
0.0
  0
VERTEX
  5
C6
  8
CUT_LAST
 10
649.0653532565932
 20
937.4468252838119
 30
0.0
  0
VERTEX
  5
C7
  8
CUT_LAST
 10
661.0653674272005
 20
937.4468252838064
 30
0.0
  0
VERTEX
  5
C8
  8
CUT_LAST
 10
661.0653674272005
 20
1037.446943372222
 30
0.0
  0
VERTEX
  5
C9
  8
CUT_LAST
 10
649.0653532565932
 20
1037.44694337217
 30
0.0
  0
VERTEX
  5
CA
  8
CUT_LAST
 10
649.0653532565932
 20
1072.917125726588
 30
0.0
  0
VERTEX
  5
CB
  8
CUT_LAST
 10
649.0653532565868
 20
1108.387308080935
 30
0.0
  0
VERTEX
  5
CC
  8
CUT_LAST
 10
661.0653674272023
 20
1108.387308080935
 30
0.0
  0
VERTEX
  5
CD
  8
CUT_LAST
 10
661.0653674272023
 20
1141.215346846997
 30
0.0
  0
VERTEX
  5
CE
  8
CUT_LAST
 10
661.0653674272023
 20
1174.043385613063
 30
0.0
  0
VERTEX
  5
CF
  8
CUT_LAST
 10
649.0653532565932
 20
1174.043385613063
 30
0.0
  0
VERTEX
  5
D0
  8
CUT_LAST
 10
649.0653532565932
 20
1209.513567967398
 30
0.0
  0
VERTEX
  5
D1
  8
CUT_LAST
 10
649.0653532565932
 20
1244.983750321765
 30
0.0
  0
VERTEX
  5
D2
  8
CUT_LAST
 10
661.0653674272005
 20
1244.983750321732
 30
0.0
  0
VERTEX
  5
D3
  8
CUT_LAST
 10
661.0653674272005
 20
1344.983868410181
 30
0.0
  0
VERTEX
  5
D4
  8
CUT_LAST
 10
649.0653532565932
 20
1344.983868410167
 30
0.0
  0
VERTEX
  5
D5
  8
CUT_LAST
 10
649.0653532565923
 20
1382.98391328378
 30
0.0
  0
VERTEX
  5
D6
  8
CUT_LAST
 10
679.065388683118
 20
1382.983913283778
 30
0.0
  0
VERTEX
  5
D7
  8
CUT_LAST
 10
679.0653886831153
 20
1394.983927454392
 30
0.0
  0
VERTEX
  5
D8
  8
CUT_LAST
 10
692.6941673189169
 20
1394.983927454392
 30
0.0
  0
VERTEX
  5
D9
  8
CUT_LAST
 10
739.0865269482592
 20
1394.98392745439
 30
0.0
  0
VERTEX
  5
DA
  8
CUT_LAST
 10
749.0654713450056
 20
1394.983927454395
 30
0.0
  0
VERTEX
  5
DB
  8
CUT_LAST
 10
749.0654713449974
 20
1382.983913283778
 30
0.0
  0
VERTEX
  5
DC
  8
CUT_LAST
 10
779.0655067715286
 20
1382.983913283787
 30
0.0
  0
VERTEX
  5
DD
  8
CUT_LAST
 10
797.0655280274434
 20
1382.983913283749
 30
0.0
  0
VERTEX
  5
DE
  8
CUT_LAST
 10
797.0655280274434
 20
1394.983927454401
 30
0.0
  0
VERTEX
  5
DF
  8
CUT_LAST
 10
831.0655681775095
 20
1394.983927454397
 30
0.0
  0
VERTEX
  5
E0
  8
CUT_LAST
 10
831.0655681775077
 20
1382.983913283763
 30
0.0
  0
VERTEX
  5
E1
  8
CUT_LAST
 10
849.0655894334243
 20
1382.98391328378
 30
0.0
  0
VERTEX
  5
E2
  8
CUT_LAST
 10
879.06562485995
 20
1382.983913283778
 30
0.0
  0
VERTEX
  5
E3
  8
CUT_LAST
 10
879.0656248599473
 20
1394.983927454392
 30
0.0
  0
VERTEX
  5
E4
  8
CUT_LAST
 10
892.6944034957487
 20
1394.983927454392
 30
0.0
  0
VERTEX
  5
E5
  8
CUT_LAST
 10
939.0867631250912
 20
1394.98392745439
 30
0.0
  0
VERTEX
  5
E6
  8
CUT_LAST
 10
949.0657075218376
 20
1394.983927454395
 30
0.0
  0
VERTEX
  5
E7
  8
CUT_LAST
 10
949.0657075218294
 20
1382.983913283778
 30
0.0
  0
VERTEX
  5
E8
  8
CUT_LAST
 10
979.0657429483606
 20
1382.983913283787
 30
0.0
  0
VERTEX
  5
E9
  8
CUT_LAST
 10
997.0657642042754
 20
1382.983913283749
 30
0.0
  0
VERTEX
  5
EA
  8
CUT_LAST
 10
997.0657642042754
 20
1394.983927454401
 30
0.0
  0
VERTEX
  5
EB
  8
CUT_LAST
 10
1031.065804354341
 20
1394.983927454397
 30
0.0
  0
VERTEX
  5
EC
  8
CUT_LAST
 10
1031.06580435434
 20
1382.983913283763
 30
0.0
  0
SEQEND
  5
ED
  8
CUT_LAST
  0
POLYLINE
  5
42
  8
CUT_LAST
 66
     1
 10
0.0
 20
0.0
 30
0.0
  0
VERTEX
  5
EE
  8
CUT_LAST
 10
1379.066215302058
 20
1382.983913283785
 30
0.0
  0
VERTEX
  5
EF
  8
CUT_LAST
 10
1379.06621530206
 20
1344.983868410187
 30
0.0
  0
VERTEX
  5
F0
  8
CUT_LAST
 10
1367.066201131448
 20
1344.983868410198
 30
0.0
  0
VERTEX
  5
F1
  8
CUT_LAST
 10
1367.066201131448
 20
1244.98375032179
 30
0.0
  0
VERTEX
  5
F2
  8
CUT_LAST
 10
1379.06621530206
 20
1244.983750321795
 30
0.0
  0
VERTEX
  5
F3
  8
CUT_LAST
 10
1379.06621530206
 20
1209.513567967398
 30
0.0
  0
VERTEX
  5
F4
  8
CUT_LAST
 10
1379.06621530206
 20
1174.043385613063
 30
0.0
  0
VERTEX
  5
F5
  8
CUT_LAST
 10
1367.066201131448
 20
1174.043385613063
 30
0.0
  0
VERTEX
  5
F6
  8
CUT_LAST
 10
1367.066201131448
 20
1141.215346846996
 30
0.0
  0
VERTEX
  5
F7
  8
CUT_LAST
 10
1367.066201131448
 20
1108.387308080934
 30
0.0
  0
VERTEX
  5
F8
  8
CUT_LAST
 10
1379.06621530206
 20
1108.387308080934
 30
0.0
  0
VERTEX
  5
F9
  8
CUT_LAST
 10
1379.06621530206
 20
1072.917125726588
 30
0.0
  0
VERTEX
  5
FA
  8
CUT_LAST
 10
1379.06621530206
 20
1037.446943372239
 30
0.0
  0
VERTEX
  5
FB
  8
CUT_LAST
 10
1367.066201131448
 20
1037.446943372243
 30
0.0
  0
VERTEX
  5
FC
  8
CUT_LAST
 10
1367.066201131448
 20
937.4468252839115
 30
0.0
  0
VERTEX
  5
FD
  8
CUT_LAST
 10
1379.066215302058
 20
937.4468252839142
 30
0.0
  0
VERTEX
  5
FE
  8
CUT_LAST
 10
1379.066215302058
 20
899.4467804102169
 30
0.0
  0
SEQEND
  5
FF
  8
CUT_LAST
  0
POLYLINE
  5
43
  8
CUT_LAST
 66
     1
 10
0.0
 20
0.0
 30
0.0
  0
VERTEX
  5
100
  8
CUT_LAST
 10
1249.066061787117
 20
1382.983913283785
 30
0.0
  0
VERTEX
  5
101
  8
CUT_LAST
 10
1249.066061787117
 20
1344.983868410196
 30
0.0
  0
VERTEX
  5
102
  8
CUT_LAST
 10
1261.066075957727
 20
1344.983868410198
 30
0.0
  0
VERTEX
  5
103
  8
CUT_LAST
 10
1261.066075957725
 20
1244.98375032179
 30
0.0
  0
VERTEX
  5
104
  8
CUT_LAST
 10
1249.066061787117
 20
1244.983750321795
 30
0.0
  0
VERTEX
  5
105
  8
CUT_LAST
 10
1249.066061787117
 20
1209.513567967398
 30
0.0
  0
VERTEX
  5
106
  8
CUT_LAST
 10
1249.066061787113
 20
1174.043385613063
 30
0.0
  0
VERTEX
  5
107
  8
CUT_LAST
 10
1261.066075957728
 20
1174.043385613063
 30
0.0
  0
VERTEX
  5
108
  8
CUT_LAST
 10
1261.066075957728
 20
1141.215346846997
 30
0.0
  0
VERTEX
  5
109
  8
CUT_LAST
 10
1261.066075957728
 20
1108.387308080935
 30
0.0
  0
VERTEX
  5
10A
  8
CUT_LAST
 10
1249.066061787116
 20
1108.387308080935
 30
0.0
  0
VERTEX
  5
10B
  8
CUT_LAST
 10
1249.066061787117
 20
1072.917125726588
 30
0.0
  0
VERTEX
  5
10C
  8
CUT_LAST
 10
1249.066061787117
 20
1037.44694337224
 30
0.0
  0
VERTEX
  5
10D
  8
CUT_LAST
 10
1261.066075957725
 20
1037.446943372248
 30
0.0
  0
VERTEX
  5
10E
  8
CUT_LAST
 10
1261.066075957727
 20
937.446825283912
 30
0.0
  0
VERTEX
  5
10F
  8
CUT_LAST
 10
1249.066061787118
 20
937.4468252839265
 30
0.0
  0
VERTEX
  5
110
  8
CUT_LAST
 10
1249.066061787117
 20
899.4467804102173
 30
0.0
  0
SEQEND
  5
111
  8
CUT_LAST
  0
POLYLINE
  5
44
  8
CUT_LAST
 66
     1
 10
0.0
 20
0.0
 30
0.0
  0
VERTEX
  5
112
  8
CUT_LAST
 10
1179.065979125226
 20
1382.983913283785
 30
0.0
  0
VERTEX
  5
113
  8
CUT_LAST
 10
1179.065979125228
 20
1344.983868410187
 30
0.0
  0
VERTEX
  5
114
  8
CUT_LAST
 10
1167.065964954616
 20
1344.983868410198
 30
0.0
  0
VERTEX
  5
115
  8
CUT_LAST
 10
1167.065964954616
 20
1244.98375032179
 30
0.0
  0
VERTEX
  5
116
  8
CUT_LAST
 10
1179.065979125228
 20
1244.983750321795
 30
0.0
  0
VERTEX
  5
117
  8
CUT_LAST
 10
1179.065979125228
 20
1209.513567967398
 30
0.0
  0
VERTEX
  5
118
  8
CUT_LAST
 10
1179.065979125228
 20
1174.043385613063
 30
0.0
  0
VERTEX
  5
119
  8
CUT_LAST
 10
1167.065964954616
 20
1174.043385613063
 30
0.0
  0
VERTEX
  5
11A
  8
CUT_LAST
 10
1167.065964954616
 20
1141.215346846997
 30
0.0
  0
VERTEX
  5
11B
  8
CUT_LAST
 10
1167.065964954616
 20
1108.387308080935
 30
0.0
  0
VERTEX
  5
11C
  8
CUT_LAST
 10
1179.065979125231
 20
1108.387308080935
 30
0.0
  0
VERTEX
  5
11D
  8
CUT_LAST
 10
1179.065979125228
 20
1072.917125726588
 30
0.0
  0
VERTEX
  5
11E
  8
CUT_LAST
 10
1179.065979125228
 20
1037.44694337224
 30
0.0
  0
VERTEX
  5
11F
  8
CUT_LAST
 10
1167.065964954616
 20
1037.446943372243
 30
0.0
  0
VERTEX
  5
120
  8
CUT_LAST
 10
1167.065964954616
 20
937.446825283912
 30
0.0
  0
VERTEX
  5
121
  8
CUT_LAST
 10
1179.065979125226
 20
937.4468252839147
 30
0.0
  0
VERTEX
  5
122
  8
CUT_LAST
 10
1179.065979125226
 20
899.4467804102173
 30
0.0
  0
SEQEND
  5
123
  8
CUT_LAST
  0
POLYLINE
  5
45
  8
CUT_LAST
 66
     1
 10
0.0
 20
0.0
 30
0.0
  0
VERTEX
  5
124
  8
CUT_LAST
 10
979.0657429483651
 20
1382.983913283785
 30
0.0
  0
VERTEX
  5
125
  8
CUT_LAST
 10
979.065742948367
 20
1344.983868410187
 30
0.0
  0
VERTEX
  5
126
  8
CUT_LAST
 10
967.0657287777551
 20
1344.983868410198
 30
0.0
  0
VERTEX
  5
127
  8
CUT_LAST
 10
967.0657287777551
 20
1244.98375032179
 30
0.0
  0
VERTEX
  5
128
  8
CUT_LAST
 10
979.065742948367
 20
1244.983750321795
 30
0.0
  0
VERTEX
  5
129
  8
CUT_LAST
 10
979.065742948367
 20
1209.513567967398
 30
0.0
  0
VERTEX
  5
12A
  8
CUT_LAST
 10
979.065742948367
 20
1174.043385613063
 30
0.0
  0
VERTEX
  5
12B
  8
CUT_LAST
 10
967.0657287777551
 20
1174.043385613063
 30
0.0
  0
VERTEX
  5
12C
  8
CUT_LAST
 10
967.0657287777551
 20
1141.215346846996
 30
0.0
  0
VERTEX
  5
12D
  8
CUT_LAST
 10
967.0657287777551
 20
1108.387308080934
 30
0.0
  0
VERTEX
  5
12E
  8
CUT_LAST
 10
979.065742948367
 20
1108.387308080934
 30
0.0
  0
VERTEX
  5
12F
  8
CUT_LAST
 10
979.065742948367
 20
1072.917125726588
 30
0.0
  0
VERTEX
  5
130
  8
CUT_LAST
 10
979.065742948367
 20
1037.446943372239
 30
0.0
  0
VERTEX
  5
131
  8
CUT_LAST
 10
967.0657287777551
 20
1037.446943372243
 30
0.0
  0
VERTEX
  5
132
  8
CUT_LAST
 10
967.0657287777551
 20
937.4468252839115
 30
0.0
  0
VERTEX
  5
133
  8
CUT_LAST
 10
979.0657429483651
 20
937.4468252839142
 30
0.0
  0
VERTEX
  5
134
  8
CUT_LAST
 10
979.0657429483651
 20
899.4467804102169
 30
0.0
  0
SEQEND
  5
135
  8
CUT_LAST
  0
POLYLINE
  5
46
  8
CUT_LAST
 66
     1
 10
0.0
 20
0.0
 30
0.0
  0
VERTEX
  5
136
  8
CUT_LAST
 10
849.0655894334243
 20
1382.983913283785
 30
0.0
  0
VERTEX
  5
137
  8
CUT_LAST
 10
849.0655894334243
 20
1344.983868410196
 30
0.0
  0
VERTEX
  5
138
  8
CUT_LAST
 10
861.0656036040343
 20
1344.983868410198
 30
0.0
  0
VERTEX
  5
139
  8
CUT_LAST
 10
861.0656036040316
 20
1244.98375032179
 30
0.0
  0
VERTEX
  5
13A
  8
CUT_LAST
 10
849.0655894334243
 20
1244.983750321795
 30
0.0
  0
VERTEX
  5
13B
  8
CUT_LAST
 10
849.0655894334243
 20
1209.513567967398
 30
0.0
  0
VERTEX
  5
13C
  8
CUT_LAST
 10
849.0655894334197
 20
1174.043385613063
 30
0.0
  0
VERTEX
  5
13D
  8
CUT_LAST
 10
861.0656036040352
 20
1174.043385613063
 30
0.0
  0
VERTEX
  5
13E
  8
CUT_LAST
 10
861.0656036040352
 20
1141.215346846997
 30
0.0
  0
VERTEX
  5
13F
  8
CUT_LAST
 10
861.0656036040352
 20
1108.387308080935
 30
0.0
  0
VERTEX
  5
140
  8
CUT_LAST
 10
849.0655894334225
 20
1108.387308080935
 30
0.0
  0
VERTEX
  5
141
  8
CUT_LAST
 10
849.0655894334243
 20
1072.917125726588
 30
0.0
  0
VERTEX
  5
142
  8
CUT_LAST
 10
849.0655894334243
 20
1037.44694337224
 30
0.0
  0
VERTEX
  5
143
  8
CUT_LAST
 10
861.0656036040316
 20
1037.446943372248
 30
0.0
  0
VERTEX
  5
144
  8
CUT_LAST
 10
861.0656036040343
 20
937.446825283912
 30
0.0
  0
VERTEX
  5
145
  8
CUT_LAST
 10
849.0655894334252
 20
937.4468252839265
 30
0.0
  0
VERTEX
  5
146
  8
CUT_LAST
 10
849.0655894334243
 20
899.4467804102173
 30
0.0
  0
SEQEND
  5
147
  8
CUT_LAST
  0
POLYLINE
  5
47
  8
CUT_LAST
 66
     1
 10
0.0
 20
0.0
 30
0.0
  0
VERTEX
  5
148
  8
CUT_LAST
 10
1049.065825610281
 20
899.4467804102028
 30
0.0
  0
VERTEX
  5
149
  8
CUT_LAST
 10
1049.065825610281
 20
937.4468252838119
 30
0.0
  0
VERTEX
  5
14A
  8
CUT_LAST
 10
1061.065839780888
 20
937.4468252838064
 30
0.0
  0
VERTEX
  5
14B
  8
CUT_LAST
 10
1061.065839780888
 20
1037.446943372222
 30
0.0
  0
VERTEX
  5
14C
  8
CUT_LAST
 10
1049.065825610281
 20
1037.44694337217
 30
0.0
  0
VERTEX
  5
14D
  8
CUT_LAST
 10
1049.065825610281
 20
1072.917125726588
 30
0.0
  0
VERTEX
  5
14E
  8
CUT_LAST
 10
1049.065825610275
 20
1108.387308080935
 30
0.0
  0
VERTEX
  5
14F
  8
CUT_LAST
 10
1061.06583978089
 20
1108.387308080935
 30
0.0
  0
VERTEX
  5
150
  8
CUT_LAST
 10
1061.06583978089
 20
1141.215346846997
 30
0.0
  0
VERTEX
  5
151
  8
CUT_LAST
 10
1061.06583978089
 20
1174.043385613063
 30
0.0
  0
VERTEX
  5
152
  8
CUT_LAST
 10
1049.065825610281
 20
1174.043385613063
 30
0.0
  0
VERTEX
  5
153
  8
CUT_LAST
 10
1049.065825610281
 20
1209.513567967398
 30
0.0
  0
VERTEX
  5
154
  8
CUT_LAST
 10
1049.065825610281
 20
1244.983750321765
 30
0.0
  0
VERTEX
  5
155
  8
CUT_LAST
 10
1061.065839780888
 20
1244.983750321732
 30
0.0
  0
VERTEX
  5
156
  8
CUT_LAST
 10
1061.065839780888
 20
1344.983868410181
 30
0.0
  0
VERTEX
  5
157
  8
CUT_LAST
 10
1049.065825610281
 20
1344.983868410167
 30
0.0
  0
VERTEX
  5
158
  8
CUT_LAST
 10
1049.06582561028
 20
1382.98391328378
 30
0.0
  0
SEQEND
  5
159
  8
CUT_LAST
  0
POLYLINE
  5
48
  8
CUT_LAST
 66
     1
 10
0.0
 20
0.0
 30
0.0
  0
VERTEX
  5
15A
  8
CUT_LAST
 10
779.0655067715331
 20
1382.983913283785
 30
0.0
  0
VERTEX
  5
15B
  8
CUT_LAST
 10
779.065506771535
 20
1344.983868410187
 30
0.0
  0
VERTEX
  5
15C
  8
CUT_LAST
 10
767.0654926009233
 20
1344.983868410198
 30
0.0
  0
VERTEX
  5
15D
  8
CUT_LAST
 10
767.0654926009233
 20
1244.98375032179
 30
0.0
  0
VERTEX
  5
15E
  8
CUT_LAST
 10
779.065506771535
 20
1244.983750321795
 30
0.0
  0
VERTEX
  5
15F
  8
CUT_LAST
 10
779.065506771535
 20
1209.513567967398
 30
0.0
  0
VERTEX
  5
160
  8
CUT_LAST
 10
779.065506771535
 20
1174.043385613063
 30
0.0
  0
VERTEX
  5
161
  8
CUT_LAST
 10
767.0654926009233
 20
1174.043385613063
 30
0.0
  0
VERTEX
  5
162
  8
CUT_LAST
 10
767.0654926009233
 20
1141.215346846997
 30
0.0
  0
VERTEX
  5
163
  8
CUT_LAST
 10
767.0654926009233
 20
1108.387308080935
 30
0.0
  0
VERTEX
  5
164
  8
CUT_LAST
 10
779.0655067715377
 20
1108.387308080935
 30
0.0
  0
VERTEX
  5
165
  8
CUT_LAST
 10
779.065506771535
 20
1072.917125726588
 30
0.0
  0
VERTEX
  5
166
  8
CUT_LAST
 10
779.065506771535
 20
1037.44694337224
 30
0.0
  0
VERTEX
  5
167
  8
CUT_LAST
 10
767.0654926009233
 20
1037.446943372243
 30
0.0
  0
VERTEX
  5
168
  8
CUT_LAST
 10
767.0654926009233
 20
937.446825283912
 30
0.0
  0
VERTEX
  5
169
  8
CUT_LAST
 10
779.0655067715331
 20
937.4468252839147
 30
0.0
  0
VERTEX
  5
16A
  8
CUT_LAST
 10
779.0655067715331
 20
899.4467804102173
 30
0.0
  0
SEQEND
  5
16B
  8
CUT_LAST
  0
POLYLINE
  5
4A
  8
ENGRAVE
 66
     1
 10
0.0
 20
0.0
 30
0.0
  0
VERTEX
  5
16C
  8
ENGRAVE
 10
1485.968378566973
 20
904.9833407734918
 30
0.0
  0
VERTEX
  5
16D
  8
ENGRAVE
 10
612.338820267067
 20
904.9833407734918
 30
0.0
  0
SEQEND
  5
16E
  8
ENGRAVE
  0
POLYLINE
  5
4B
  8
ENGRAVE
 66
     1
 10
0.0
 20
0.0
 30
0.0
  0
VERTEX
  5
16F
  8
ENGRAVE
 10
645.0999287033518
 20
1384.983907597888
 30
0.0
  0
VERTEX
  5
170
  8
ENGRAVE
 10
1465.130050549319
 20
1384.983907597888
 30
0.0
  0
SEQEND
  5
171
  8
ENGRAVE
  0
POLYLINE
  5
4C
  8
ENGRAVE
 66
     1
 10
0.0
 20
0.0
 30
0.0
  0
VERTEX
  5
172
  8
ENGRAVE
 10
625.4432636415634
 20
1344.983860362523
 30
0.0
  0
VERTEX
  5
173
  8
ENGRAVE
 10
1499.072821941455
 20
1344.983860362523
 30
0.0
  0
SEQEND
  5
174
  8
ENGRAVE
  0
POLYLINE
  5
4D
  8
ENGRAVE
 66
     1
 10
0.0
 20
0.0
 30
0.0
  0
VERTEX
  5
175
  8
ENGRAVE
 10
612.3388202670482
 20
1364.983883980206
 30
0.0
  0
VERTEX
  5
176
  8
ENGRAVE
 10
1485.495713384584
 20
1364.983883980206
 30
0.0
  0
SEQEND
  5
177
  8
ENGRAVE
  0
POLYLINE
  5
4E
  8
ENGRAVE
 66
     1
 10
0.0
 20
0.0
 30
0.0
  0
VERTEX
  5
178
  8
ENGRAVE
 10
625.4432636415634
 20
1324.983836744839
 30
0.0
  0
VERTEX
  5
179
  8
ENGRAVE
 10
1499.072821941453
 20
1324.983836744839
 30
0.0
  0
SEQEND
  5
17A
  8
ENGRAVE
  0
POLYLINE
  5
4F
  8
ENGRAVE
 66
     1
 10
0.0
 20
0.0
 30
0.0
  0
VERTEX
  5
17B
  8
ENGRAVE
 10
625.4432636415634
 20
1304.98375497401
 30
0.0
  0
VERTEX
  5
17C
  8
ENGRAVE
 10
1499.072821941452
 20
1304.983754974011
 30
0.0
  0
SEQEND
  5
17D
  8
ENGRAVE
  0
POLYLINE
  5
50
  8
ENGRAVE
 66
     1
 10
0.0
 20
0.0
 30
0.0
  0
VERTEX
  5
17E
  8
ENGRAVE
 10
625.4432636415634
 20
1284.983789509473
 30
0.0
  0
VERTEX
  5
17F
  8
ENGRAVE
 10
1499.072821941452
 20
1284.983789509473
 30
0.0
  0
SEQEND
  5
180
  8
ENGRAVE
  0
POLYLINE
  5
51
  8
ENGRAVE
 66
     1
 10
0.0
 20
0.0
 30
0.0
  0
VERTEX
  5
181
  8
ENGRAVE
 10
625.4432636415634
 20
1264.983765891789
 30
0.0
  0
VERTEX
  5
182
  8
ENGRAVE
 10
1499.072821941451
 20
1264.983765891789
 30
0.0
  0
SEQEND
  5
183
  8
ENGRAVE
  0
POLYLINE
  5
52
  8
ENGRAVE
 66
     1
 10
0.0
 20
0.0
 30
0.0
  0
VERTEX
  5
184
  8
ENGRAVE
 10
612.3388202670953
 20
1244.983742274107
 30
0.0
  0
VERTEX
  5
185
  8
ENGRAVE
 10
1485.495713384584
 20
1244.983742274107
 30
0.0
  0
SEQEND
  5
186
  8
ENGRAVE
  0
POLYLINE
  5
53
  8
ENGRAVE
 66
     1
 10
0.0
 20
0.0
 30
0.0
  0
VERTEX
  5
187
  8
ENGRAVE
 10
612.3388202670957
 20
1224.983718656423
 30
0.0
  0
VERTEX
  5
188
  8
ENGRAVE
 10
1485.495713384584
 20
1224.983718656423
 30
0.0
  0
SEQEND
  5
189
  8
ENGRAVE
  0
POLYLINE
  5
54
  8
ENGRAVE
 66
     1
 10
0.0
 20
0.0
 30
0.0
  0
VERTEX
  5
18A
  8
ENGRAVE
 10
612.3388202670591
 20
1204.983636885609
 30
0.0
  0
VERTEX
  5
18B
  8
ENGRAVE
 10
1485.495713384566
 20
1204.983636885614
 30
0.0
  0
SEQEND
  5
18C
  8
ENGRAVE
  0
POLYLINE
  5
55
  8
ENGRAVE
 66
     1
 10
0.0
 20
0.0
 30
0.0
  0
VERTEX
  5
18D
  8
ENGRAVE
 10
625.4432636415615
 20
1164.983647803373
 30
0.0
  0
VERTEX
  5
18E
  8
ENGRAVE
 10
1499.07282194145
 20
1164.983647803373
 30
0.0
  0
SEQEND
  5
18F
  8
ENGRAVE
  0
POLYLINE
  5
56
  8
ENGRAVE
 66
     1
 10
0.0
 20
0.0
 30
0.0
  0
VERTEX
  5
190
  8
ENGRAVE
 10
612.3388202670591
 20
1184.983671421057
 30
0.0
  0
VERTEX
  5
191
  8
ENGRAVE
 10
1485.495713384566
 20
1184.983671421057
 30
0.0
  0
SEQEND
  5
192
  8
ENGRAVE
  0
POLYLINE
  5
57
  8
ENGRAVE
 66
     1
 10
0.0
 20
0.0
 30
0.0
  0
VERTEX
  5
193
  8
ENGRAVE
 10
625.4432636415618
 20
1144.983624185689
 30
0.0
  0
VERTEX
  5
194
  8
ENGRAVE
 10
1499.07282194145
 20
1144.983624185689
 30
0.0
  0
SEQEND
  5
195
  8
ENGRAVE
  0
POLYLINE
  5
58
  8
ENGRAVE
 66
     1
 10
0.0
 20
0.0
 30
0.0
  0
VERTEX
  5
196
  8
ENGRAVE
 10
625.4432636415881
 20
1124.983658721137
 30
0.0
  0
VERTEX
  5
197
  8
ENGRAVE
 10
1499.07282194147
 20
1124.983658721131
 30
0.0
  0
SEQEND
  5
198
  8
ENGRAVE
  0
POLYLINE
  5
59
  8
ENGRAVE
 66
     1
 10
0.0
 20
0.0
 30
0.0
  0
VERTEX
  5
199
  8
ENGRAVE
 10
612.3388202670668
 20
1104.983576950323
 30
0.0
  0
VERTEX
  5
19A
  8
ENGRAVE
 10
1485.495713384584
 20
1104.983576950323
 30
0.0
  0
SEQEND
  5
19B
  8
ENGRAVE
  0
POLYLINE
  5
5A
  8
ENGRAVE
 66
     1
 10
0.0
 20
0.0
 30
0.0
  0
VERTEX
  5
19C
  8
ENGRAVE
 10
612.3388202670706
 20
1084.98355333264
 30
0.0
  0
VERTEX
  5
19D
  8
ENGRAVE
 10
1485.495713384586
 20
1084.98355333264
 30
0.0
  0
SEQEND
  5
19E
  8
ENGRAVE
  0
POLYLINE
  5
5B
  8
ENGRAVE
 66
     1
 10
0.0
 20
0.0
 30
0.0
  0
VERTEX
  5
19F
  8
ENGRAVE
 10
612.3388202670556
 20
1064.983529714957
 30
0.0
  0
VERTEX
  5
1A0
  8
ENGRAVE
 10
1485.495713384589
 20
1064.983529714957
 30
0.0
  0
SEQEND
  5
1A1
  8
ENGRAVE
  0
POLYLINE
  5
5C
  8
ENGRAVE
 66
     1
 10
0.0
 20
0.0
 30
0.0
  0
VERTEX
  5
1A2
  8
ENGRAVE
 10
625.443263641565
 20
1024.983540632736
 30
0.0
  0
VERTEX
  5
1A3
  8
ENGRAVE
 10
1499.072821941448
 20
1024.983540632735
 30
0.0
  0
SEQEND
  5
1A4
  8
ENGRAVE
  0
POLYLINE
  5
5D
  8
ENGRAVE
 66
     1
 10
0.0
 20
0.0
 30
0.0
  0
VERTEX
  5
1A5
  8
ENGRAVE
 10
612.3388202670559
 20
1044.983506097273
 30
0.0
  0
VERTEX
  5
1A6
  8
ENGRAVE
 10
1485.495713384589
 20
1044.983506097273
 30
0.0
  0
SEQEND
  5
1A7
  8
ENGRAVE
  0
POLYLINE
  5
5E
  8
ENGRAVE
 66
     1
 10
0.0
 20
0.0
 30
0.0
  0
VERTEX
  5
1A8
  8
ENGRAVE
 10
625.443263641565
 20
1004.983458861908
 30
0.0
  0
VERTEX
  5
1A9
  8
ENGRAVE
 10
1499.072821941448
 20
1004.983458861908
 30
0.0
  0
SEQEND
  5
1AA
  8
ENGRAVE
  0
POLYLINE
  5
5F
  8
ENGRAVE
 66
     1
 10
0.0
 20
0.0
 30
0.0
  0
VERTEX
  5
1AB
  8
ENGRAVE
 10
625.443263641565
 20
984.9834352442235
 30
0.0
  0
VERTEX
  5
1AC
  8
ENGRAVE
 10
1499.072821941449
 20
984.9834352442235
 30
0.0
  0
SEQEND
  5
1AD
  8
ENGRAVE
  0
POLYLINE
  5
60
  8
ENGRAVE
 66
     1
 10
0.0
 20
0.0
 30
0.0
  0
VERTEX
  5
1AE
  8
ENGRAVE
 10
625.443263641565
 20
964.9834116265401
 30
0.0
  0
VERTEX
  5
1AF
  8
ENGRAVE
 10
1499.072821941449
 20
964.9834116265401
 30
0.0
  0
SEQEND
  5
1B0
  8
ENGRAVE
  0
POLYLINE
  5
61
  8
ENGRAVE
 66
     1
 10
0.0
 20
0.0
 30
0.0
  0
VERTEX
  5
1B1
  8
ENGRAVE
 10
625.443263641565
 20
944.9833880088581
 30
0.0
  0
VERTEX
  5
1B2
  8
ENGRAVE
 10
1499.07282194145
 20
944.9833880088581
 30
0.0
  0
SEQEND
  5
1B3
  8
ENGRAVE
  0
POLYLINE
  5
62
  8
ENGRAVE
 66
     1
 10
0.0
 20
0.0
 30
0.0
  0
VERTEX
  5
1B4
  8
ENGRAVE
 10
612.3388202670668
 20
924.9834225443069
 30
0.0
  0
VERTEX
  5
1B5
  8
ENGRAVE
 10
1485.495713384582
 20
924.9834225443069
 30
0.0
  0
SEQEND
  5
1B6
  8
ENGRAVE
  0
POLYLINE
  5
64
  8
CUT_FIRST
 66
     1
 10
0.0
 20
0.0
 30
0.0
 70
     1
  0
VERTEX
  5
1B7
  8
CUT_FIRST
 10
714.0654300140636
 20
925.4468111133037
 30
0.0
 42
0.4142135623730951
  0
VERTEX
  5
1B8
  8
CUT_FIRST
 10
720.0654370993686
 20
931.446818198609
 30
0.0
 42
0.4142135623730951
  0
VERTEX
  5
1B9
  8
CUT_FIRST
 10
714.0654300140636
 20
937.4468252839147
 30
0.0
 42
0.4142135623730951
  0
VERTEX
  5
1BA
  8
CUT_FIRST
 10
708.0654229287586
 20
931.446818198609
 30
0.0
 42
0.4142135623730951
  0
SEQEND
  5
1BB
  8
CUT_FIRST
  0
POLYLINE
  5
65
  8
CUT_FIRST
 66
     1
 10
0.0
 20
0.0
 30
0.0
 70
     1
  0
VERTEX
  5
1BC
  8
CUT_FIRST
 10
914.0656661908947
 20
925.4468111133037
 30
0.0
 42
0.4142135623730951
  0
VERTEX
  5
1BD
  8
CUT_FIRST
 10
920.0656732761997
 20
931.446818198609
 30
0.0
 42
0.4142135623730951
  0
VERTEX
  5
1BE
  8
CUT_FIRST
 10
914.0656661908947
 20
937.4468252839147
 30
0.0
 42
0.4142135623730951
  0
VERTEX
  5
1BF
  8
CUT_FIRST
 10
908.0656591055897
 20
931.446818198609
 30
0.0
 42
0.4142135623730951
  0
SEQEND
  5
1C0
  8
CUT_FIRST
  0
POLYLINE
  5
66
  8
CUT_FIRST
 66
     1
 10
0.0
 20
0.0
 30
0.0
 70
     1
  0
VERTEX
  5
1C1
  8
CUT_FIRST
 10
1114.065902367753
 20
925.4468111133037
 30
0.0
 42
0.4142135623730951
  0
VERTEX
  5
1C2
  8
CUT_FIRST
 10
1120.065909453058
 20
931.446818198609
 30
0.0
 42
0.4142135623730951
  0
VERTEX
  5
1C3
  8
CUT_FIRST
 10
1114.065902367753
 20
937.4468252839147
 30
0.0
 42
0.4142135623730951
  0
VERTEX
  5
1C4
  8
CUT_FIRST
 10
1108.065895282448
 20
931.446818198609
 30
0.0
 42
0.4142135623730951
  0
SEQEND
  5
1C5
  8
CUT_FIRST
  0
POLYLINE
  5
67
  8
CUT_FIRST
 66
     1
 10
0.0
 20
0.0
 30
0.0
 70
     1
  0
VERTEX
  5
1C6
  8
CUT_FIRST
 10
1314.066138544588
 20
925.4468111133037
 30
0.0
 42
0.4142135623730951
  0
VERTEX
  5
1C7
  8
CUT_FIRST
 10
1320.066145629893
 20
931.446818198609
 30
0.0
 42
0.4142135623730951
  0
VERTEX
  5
1C8
  8
CUT_FIRST
 10
1314.066138544588
 20
937.4468252839147
 30
0.0
 42
0.4142135623730951
  0
VERTEX
  5
1C9
  8
CUT_FIRST
 10
1308.066131459283
 20
931.446818198609
 30
0.0
 42
0.4142135623730951
  0
SEQEND
  5
1CA
  8
CUT_FIRST
  0
ENDSEC
  0
EOF
