  0
SECTION
  2
HEADER
  9
$ACADVER
  1
AC1009
  9
$DWGCODEPAGE
  3
ansi_1252
  9
$INSBASE
 10
0.0
 20
0.0
 30
0.0
  9
$EXTMIN
 10
1334.098345496797
 20
-545.4408847139754
 30
0.0
  9
$EXTMAX
 10
1612.012015767218
 20
-420.5647984743757
 30
0.0
  9
$LIMMIN
 10
0.0
 20
0.0
  9
$LIMMAX
 10
12.0
 20
9.0
  9
$ORTHOMODE
 70
     0
  9
$REGENMODE
 70
     1
  9
$FILLMODE
 70
     1
  9
$QTEXTMODE
 70
     0
  9
$MIRRTEXT
 70
     1
  9
$DRAGMODE
 70
     2
  9
$LTSCALE
 40
1.0
  9
$OSMODE
 70
    37
  9
$ATTMODE
 70
     1
  9
$TEXTSIZE
 40
0.2
  9
$TRACEWID
 40
0.05
  9
$TEXTSTYLE
  7
STANDARD
  9
$CLAYER
  8
0
  9
$CELTYPE
  6
BYLAYER
  9
$CECOLOR
 62
   256
  9
$DIMSCALE
 40
1.0
  9
$DIMASZ
 40
0.18
  9
$DIMEXO
 40
0.0625
  9
$DIMDLI
 40
0.38
  9
$DIMRND
 40
0.0
  9
$DIMDLE
 40
0.0
  9
$DIMEXE
 40
0.18
  9
$DIMTP
 40
0.0
  9
$DIMTM
 40
0.0
  9
$DIMTXT
 40
0.18
  9
$DIMCEN
 40
0.09
  9
$DIMTSZ
 40
0.0
  9
$DIMTOL
 70
     0
  9
$DIMLIM
 70
     0
  9
$DIMTIH
 70
     1
  9
$DIMTOH
 70
     1
  9
$DIMSE1
 70
     0
  9
$DIMSE2
 70
     0
  9
$DIMTAD
 70
     0
  9
$DIMZIN
 70
     0
  9
$DIMBLK
  1

  9
$DIMASO
 70
     1
  9
$DIMSHO
 70
     1
  9
$DIMPOST
  1

  9
$DIMAPOST
  1

  9
$DIMALT
 70
     0
  9
$DIMALTD
 70
     2
  9
$DIMALTF
 40
25.4
  9
$DIMLFAC
 40
1.0
  9
$DIMTOFL
 70
     0
  9
$DIMTVP
 40
0.0
  9
$DIMTIX
 70
     0
  9
$DIMSOXD
 70
     0
  9
$DIMSAH
 70
     0
  9
$DIMBLK1
  1

  9
$DIMBLK2
  1

  9
$DIMSTYLE
  2
STANDARD
  9
$DIMCLRD
 70
     0
  9
$DIMCLRE
 70
     0
  9
$DIMCLRT
 70
     0
  9
$DIMTFAC
 40
1.0
  9
$DIMGAP
 40
0.09
  9
$LUNITS
 70
     2
  9
$LUPREC
 70
     4
  9
$SKETCHINC
 40
0.1
  9
$FILLETRAD
 40
0.5
  9
$AUNITS
 70
     0
  9
$AUPREC
 70
     0
  9
$MENU
  1
.
  9
$ELEVATION
 40
0.0
  9
$PELEVATION
 40
0.0
  9
$THICKNESS
 40
0.0
  9
$LIMCHECK
 70
     0
  9
$CHAMFERA
 40
0.5
  9
$CHAMFERB
 40
0.5
  9
$SKPOLY
 70
     0
  9
$TDCREATE
 40
2454910.5
  9
$TDUPDATE
 40
2458443.752801285
  9
$TDINDWG
 40
0.0000000116
  9
$TDUSRTIMER
 40
0.0000000116
  9
$USRTIMER
 70
     1
  9
$ANGBASE
 50
0.0
  9
$ANGDIR
 70
     0
  9
$PDMODE
 70
     0
  9
$PDSIZE
 40
0.0
  9
$PLINEWID
 40
0.0
  9
$COORDS
 70
     1
  9
$SPLFRAME
 70
     0
  9
$SPLINETYPE
 70
     6
  9
$SPLINESEGS
 70
     8
  9
$ATTDIA
 70
     0
  9
$ATTREQ
 70
     1
  9
$HANDLING
 70
     1
  9
$HANDSEED
  5
24F
  9
$SURFTAB1
 70
     6
  9
$SURFTAB2
 70
     6
  9
$SURFTYPE
 70
     6
  9
$SURFU
 70
     6
  9
$SURFV
 70
     6
  9
$UCSNAME
  2

  9
$UCSORG
 10
0.0
 20
0.0
 30
0.0
  9
$UCSXDIR
 10
1.0
 20
0.0
 30
0.0
  9
$UCSYDIR
 10
0.0
 20
1.0
 30
0.0
  9
$PUCSNAME
  2

  9
$PUCSORG
 10
0.0
 20
0.0
 30
0.0
  9
$PUCSXDIR
 10
1.0
 20
0.0
 30
0.0
  9
$PUCSYDIR
 10
0.0
 20
1.0
 30
0.0
  9
$USERI1
 70
     0
  9
$USERI2
 70
     0
  9
$USERI3
 70
     0
  9
$USERI4
 70
     0
  9
$USERI5
 70
     0
  9
$USERR1
 40
0.0
  9
$USERR2
 40
0.0
  9
$USERR3
 40
0.0
  9
$USERR4
 40
0.0
  9
$USERR5
 40
0.0
  9
$WORLDVIEW
 70
     1
  9
$SHADEDGE
 70
     3
  9
$SHADEDIF
 70
    70
  9
$TILEMODE
 70
     1
  9
$MAXACTVP
 70
    64
  9
$PLIMCHECK
 70
     0
  9
$PEXTMIN
 10
1.000000000000000E+20
 20
1.000000000000000E+20
 30
1.000000000000000E+20
  9
$PEXTMAX
 10
-1.000000000000000E+20
 20
-1.000000000000000E+20
 30
-1.000000000000000E+20
  9
$PLIMMIN
 10
0.0
 20
0.0
  9
$PLIMMAX
 10
12.0
 20
9.0
  9
$UNITMODE
 70
     0
  9
$VISRETAIN
 70
     1
  9
$PLINEGEN
 70
     0
  9
$PSLTSCALE
 70
     1
  0
ENDSEC
  0
SECTION
  2
TABLES
  0
TABLE
  2
VPORT
 70
     1
  0
VPORT
  2
*ACTIVE
 70
     0
 10
0.0
 20
0.0
 11
1.0
 21
1.0
 12
10.42990654205607
 22
4.5
 13
0.0
 23
0.0
 14
0.5
 24
0.5
 15
0.5
 25
0.5
 16
0.0
 26
0.0
 36
1.0
 17
0.0
 27
0.0
 37
0.0
 40
9.0
 41
1.972972972850329
 42
50.0
 43
0.0
 44
0.0
 50
0.0
 51
0.0
 71
     0
 72
   100
 73
     1
 74
     3
 75
     0
 76
     0
 77
     0
 78
     0
  0
ENDTAB
  0
TABLE
  2
LTYPE
 70
     2
  0
LTYPE
  2
CONTINUOUS
 70
     0
  3
Solid line
 72
    65
 73
     0
 40
0.0
  0
LTYPE
  2
CONTINUOUS2
 70
     0
  3
Solid Line
 72
    65
 73
     0
 40
0.0
  0
ENDTAB
  0
TABLE
  2
LAYER
 70
     2
  0
LAYER
  2
0
 70
     0
 62
     7
  6
CONTINUOUS
  0
LAYER
  2
6MM_ENGRAVE
 70
     0
 62
   245
  6
CONTINUOUS
  0
ENDTAB
  0
TABLE
  2
STYLE
 70
     1
  0
STYLE
  2
STANDARD
 70
     0
 40
0.0
 41
1.0
 50
0.0
 71
     0
 42
0.2
  3
txt
  4

  0
ENDTAB
  0
TABLE
  2
VIEW
 70
     0
  0
ENDTAB
  0
TABLE
  2
UCS
 70
     0
  0
ENDTAB
  0
TABLE
  2
APPID
 70
     1
  0
APPID
  2
ACAD
 70
     0
  0
ENDTAB
  0
TABLE
  2
DIMSTYLE
 70
     1
  0
DIMSTYLE
  2
STANDARD
 70
     0
  3

  4

  5

  6

  7

 40
1.0
 41
0.18
 42
0.0625
 43
0.38
 44
0.18
 45
0.0
 46
0.0
 47
0.0
 48
0.0
140
0.18
141
0.09
142
0.0
143
25.4
144
1.0
145
0.0
146
1.0
147
0.09
 71
     0
 72
     0
 73
     1
 74
     1
 75
     0
 76
     0
 77
     0
 78
     0
170
     0
171
     2
172
     0
173
     0
174
     0
175
     0
176
     0
177
     0
178
     0
  0
ENDTAB
  0
ENDSEC
  0
SECTION
  2
BLOCKS
  0
BLOCK
  8
0
  2
$MODEL_SPACE
 70
     0
 10
0.0
 20
0.0
 30
0.0
  3
$MODEL_SPACE
  1

  0
ENDBLK
  5
21
  8
0
  0
BLOCK
 67
     1
  8
0
  2
$PAPER_SPACE
 70
     0
 10
0.0
 20
0.0
 30
0.0
  3
$PAPER_SPACE
  1

  0
ENDBLK
  5
1D
 67
     1
  8
0
  0
ENDSEC
  0
SECTION
  2
ENTITIES
  0
POLYLINE
  5
41
  8
6MM_ENGRAVE
 66
     1
 10
0.0
 20
0.0
 30
0.0
 70
     1
  0
VERTEX
  5
50
  8
6MM_ENGRAVE
 10
1418.653446965704
 20
-511.903042722483
 30
0.0
 42
0.1197374911983832
  0
VERTEX
  5
51
  8
6MM_ENGRAVE
 10
1418.665983850171
 20
-511.9334806469213
 30
0.0
 42
-0.528572153671556
  0
VERTEX
  5
52
  8
6MM_ENGRAVE
 10
1418.654899278298
 20
-511.9644769851348
 30
0.0
 42
-0.0008974509690686
  0
VERTEX
  5
53
  8
6MM_ENGRAVE
 10
1413.261026965303
 20
-513.3594555571657
 30
0.0
 42
0.0008974509690192
  0
VERTEX
  5
54
  8
6MM_ENGRAVE
 10
1407.867154652309
 20
-514.7544341291965
 30
0.0
  0
VERTEX
  5
55
  8
6MM_ENGRAVE
 10
1418.670598753198
 20
-517.6045684631382
 30
0.0
  0
VERTEX
  5
56
  8
6MM_ENGRAVE
 10
1422.070904765128
 20
-526.5702886805146
 30
0.0
  0
VERTEX
  5
57
  8
6MM_ENGRAVE
 10
1425.497029866059
 20
-517.5830900086613
 30
0.0
  0
VERTEX
  5
58
  8
6MM_ENGRAVE
 10
1436.274654877948
 20
-514.7544341291965
 30
0.0
 42
0.0005041938326824
  0
VERTEX
  5
59
  8
6MM_ENGRAVE
 10
1430.868954662738
 20
-513.3444857403725
 30
0.0
 42
-0.0005041938325835
  0
VERTEX
  5
5A
  8
6MM_ENGRAVE
 10
1425.463254447529
 20
-511.9345373515486
 30
0.0
 42
-0.3998813752753463
  0
VERTEX
  5
5B
  8
6MM_ENGRAVE
 10
1425.456495937961
 20
-511.9236082949941
 30
0.0
 42
0.2672658564920533
  0
VERTEX
  5
5C
  8
6MM_ENGRAVE
 10
1425.452510491522
 20
-511.9113919966416
 30
0.0
 42
0.1165558919076346
  0
VERTEX
  5
5D
  8
6MM_ENGRAVE
 10
1425.461016782291
 20
-511.9047735370531
 30
0.0
 42
-0.2271103990047046
  0
VERTEX
  5
5E
  8
6MM_ENGRAVE
 10
1425.470737303599
 20
-511.900118168596
 30
0.0
 42
-0.0000704315442778
  0
VERTEX
  5
5F
  8
6MM_ENGRAVE
 10
1435.88223275737
 20
-511.9015979544487
 30
0.0
 42
0.000070431543093
  0
VERTEX
  5
60
  8
6MM_ENGRAVE
 10
1446.293728211141
 20
-511.9030777403014
 30
0.0
 42
-0.0125375453468379
  0
VERTEX
  5
61
  8
6MM_ENGRAVE
 10
1446.260228786144
 20
-516.5564158306059
 30
0.0
 42
-0.0811224683308011
  0
VERTEX
  5
62
  8
6MM_ENGRAVE
 10
1445.232777573558
 20
-521.7814419934327
 30
0.0
 42
-0.0904311940605169
  0
VERTEX
  5
63
  8
6MM_ENGRAVE
 10
1441.788183867209
 20
-527.5747562723034
 30
0.0
 42
-0.1330013154763879
  0
VERTEX
  5
64
  8
6MM_ENGRAVE
 10
1430.030830768188
 20
-535.4392750964804
 30
0.0
 42
-0.0974553400692623
  0
VERTEX
  5
65
  8
6MM_ENGRAVE
 10
1418.365622784904
 20
-536.9738569052888
 30
0.0
 42
-0.0975682569794642
  0
VERTEX
  5
66
  8
6MM_ENGRAVE
 10
1407.002297279554
 20
-533.9750829697649
 30
0.0
 42
-0.1076164465152198
  0
VERTEX
  5
67
  8
6MM_ENGRAVE
 10
1399.101213555836
 20
-527.7546029613954
 30
0.0
 42
-0.1143333367832672
  0
VERTEX
  5
68
  8
6MM_ENGRAVE
 10
1394.878000185977
 20
-519.2682730735288
 30
0.0
 42
-0.0170814826084425
  0
VERTEX
  5
69
  8
6MM_ENGRAVE
 10
1394.637999928905
 20
-518.0838726983518
 30
0.0
 42
0.0056933353703639
  0
VERTEX
  5
6A
  8
6MM_ENGRAVE
 10
1394.425032034321
 20
-516.894314356785
 30
0.0
  0
VERTEX
  5
6B
  8
6MM_ENGRAVE
 10
1394.425032034328
 20
-516.894314356785
 30
0.0
  0
VERTEX
  5
6C
  8
6MM_ENGRAVE
 10
1394.425059396548
 20
-511.9030120272376
 30
0.0
  0
SEQEND
  5
6D
  8
6MM_ENGRAVE
  0
POLYLINE
  5
42
  8
6MM_ENGRAVE
 66
     1
 10
0.0
 20
0.0
 30
0.0
 70
     1
  0
VERTEX
  5
6E
  8
6MM_ENGRAVE
 10
1585.06445850624
 20
-515.3051352345356
 30
0.0
  0
VERTEX
  5
6F
  8
6MM_ENGRAVE
 10
1612.011591456118
 20
-515.3070382837952
 30
0.0
  0
VERTEX
  5
70
  8
6MM_ENGRAVE
 10
1612.012015767218
 20
-503.6670021189071
 30
0.0
  0
VERTEX
  5
71
  8
6MM_ENGRAVE
 10
1581.937277895105
 20
-503.6642666028208
 30
0.0
 42
0.0284547993658444
  0
VERTEX
  5
72
  8
6MM_ENGRAVE
 10
1578.986088560152
 20
-498.9198676684833
 30
0.0
 42
0.0425591169468926
  0
VERTEX
  5
73
  8
6MM_ENGRAVE
 10
1576.581582992661
 20
-496.056004928007
 30
0.0
 42
0.0617171282319418
  0
VERTEX
  5
74
  8
6MM_ENGRAVE
 10
1570.455151392482
 20
-491.2616156878348
 30
0.0
 42
0.0976849000277724
  0
VERTEX
  5
75
  8
6MM_ENGRAVE
 10
1555.664255396466
 20
-485.9295474570638
 30
0.0
  0
VERTEX
  5
76
  8
6MM_ENGRAVE
 10
1555.664060146607
 20
-461.5040048488363
 30
0.0
  0
VERTEX
  5
77
  8
6MM_ENGRAVE
 10
1543.663948648516
 20
-461.5040124367385
 30
0.0
  0
VERTEX
  5
78
  8
6MM_ENGRAVE
 10
1543.663830612566
 20
-485.9317817930868
 30
0.0
 42
0.033121077195956
  0
VERTEX
  5
79
  8
6MM_ENGRAVE
 10
1536.119031887108
 20
-487.9609497372203
 30
0.0
 42
0.0849266764923912
  0
VERTEX
  5
7A
  8
6MM_ENGRAVE
 10
1525.279163633556
 20
-493.8602531404083
 30
0.0
 42
0.0418665700411366
  0
VERTEX
  5
7B
  8
6MM_ENGRAVE
 10
1521.72034570565
 20
-497.1858066722017
 30
0.0
 42
0.043873995867839
  0
VERTEX
  5
7C
  8
6MM_ENGRAVE
 10
1518.91481051469
 20
-500.8924975287356
 30
0.0
 42
0.0219264512995434
  0
VERTEX
  5
7D
  8
6MM_ENGRAVE
 10
1518.134282255657
 20
-502.2673166374709
 30
0.0
 42
-0.0073077762357931
  0
VERTEX
  5
7E
  8
6MM_ENGRAVE
 10
1517.394268468872
 20
-503.6643604951433
 30
0.0
  0
VERTEX
  5
7F
  8
6MM_ENGRAVE
 10
1358.011591597604
 20
-503.6669272587213
 30
0.0
  0
VERTEX
  5
80
  8
6MM_ENGRAVE
 10
1358.011591597604
 20
-515.3070059079997
 30
0.0
  0
VERTEX
  5
81
  8
6MM_ENGRAVE
 10
1384.958876003231
 20
-515.3059754236859
 30
0.0
 42
0.0387526605295567
  0
VERTEX
  5
82
  8
6MM_ENGRAVE
 10
1385.413365191741
 20
-520.3564096712129
 30
0.0
 42
0.0513628485683379
  0
VERTEX
  5
83
  8
6MM_ENGRAVE
 10
1386.434456331966
 20
-524.0480284654377
 30
0.0
 42
0.1838371496650265
  0
VERTEX
  5
84
  8
6MM_ENGRAVE
 10
1401.785827423126
 20
-540.9928235551873
 30
0.0
 42
0.2162990789689725
  0
VERTEX
  5
85
  8
6MM_ENGRAVE
 10
1435.498083619987
 20
-542.5124777766414
 30
0.0
 42
0.1381006420178734
  0
VERTEX
  5
86
  8
6MM_ENGRAVE
 10
1450.487747801243
 20
-530.98774192562
 30
0.0
 42
0.1591653884174604
  0
VERTEX
  5
87
  8
6MM_ENGRAVE
 10
1455.761420880543
 20
-515.3465047454338
 30
0.0
 42
0.0120513831787407
  0
VERTEX
  5
88
  8
6MM_ENGRAVE
 10
1455.761330767247
 20
-515.340328615292
 30
0.0
 42
0.0021586726842407
  0
VERTEX
  5
89
  8
6MM_ENGRAVE
 10
1455.759848345078
 20
-515.3058817326273
 30
0.0
  0
VERTEX
  5
8A
  8
6MM_ENGRAVE
 10
1514.263337143455
 20
-515.3053440091447
 30
0.0
 42
0.0257820118061991
  0
VERTEX
  5
8B
  8
6MM_ENGRAVE
 10
1514.585376690495
 20
-519.4976679811807
 30
0.0
 42
0.0539756251545182
  0
VERTEX
  5
8C
  8
6MM_ENGRAVE
 10
1515.56843793529
 20
-523.5843882877092
 30
0.0
 42
0.1669980963285278
  0
VERTEX
  5
8D
  8
6MM_ENGRAVE
 10
1528.031957460888
 20
-539.1601780005979
 30
0.0
 42
0.1923989854010969
  0
VERTEX
  5
8E
  8
6MM_ENGRAVE
 10
1557.517404740402
 20
-544.6734240290613
 30
0.0
 42
0.1582567564938972
  0
VERTEX
  5
8F
  8
6MM_ENGRAVE
 10
1578.063472291468
 20
-533.2019582388745
 30
0.0
 42
0.1078329248486538
  0
VERTEX
  5
90
  8
6MM_ENGRAVE
 10
1583.776036067406
 20
-523.5152427833546
 30
0.0
 42
0.040606723859865
  0
VERTEX
  5
91
  8
6MM_ENGRAVE
 10
1584.867308784338
 20
-518.9938946452074
 30
0.0
 42
0.051177816751802
  0
SEQEND
  5
92
  8
6MM_ENGRAVE
  0
POLYLINE
  5
43
  8
6MM_ENGRAVE
 66
     1
 10
0.0
 20
0.0
 30
0.0
 70
     1
  0
VERTEX
  5
93
  8
6MM_ENGRAVE
 10
1523.776626522616
 20
-514.0477107018211
 30
0.0
  0
VERTEX
  5
94
  8
6MM_ENGRAVE
 10
1523.776618719911
 20
-514.0477786757816
 30
0.0
  0
VERTEX
  5
95
  8
6MM_ENGRAVE
 10
1523.829600811201
 20
-513.5190223711002
 30
0.0
  0
VERTEX
  5
96
  8
6MM_ENGRAVE
 10
1523.897565016229
 20
-512.9941415931098
 30
0.0
  0
VERTEX
  5
97
  8
6MM_ENGRAVE
 10
1523.980327472567
 20
-512.4732787879906
 30
0.0
  0
VERTEX
  5
98
  8
6MM_ENGRAVE
 10
1524.077704317788
 20
-511.9565764019228
 30
0.0
  0
VERTEX
  5
99
  8
6MM_ENGRAVE
 10
1524.189511689462
 20
-511.4441768810864
 30
0.0
  0
VERTEX
  5
9A
  8
6MM_ENGRAVE
 10
1524.315565725163
 20
-510.9362226716616
 30
0.0
  0
VERTEX
  5
9B
  8
6MM_ENGRAVE
 10
1524.455682562461
 20
-510.4328562198285
 30
0.0
  0
VERTEX
  5
9C
  8
6MM_ENGRAVE
 10
1524.609678338929
 20
-509.9342199717673
 30
0.0
  0
VERTEX
  5
9D
  8
6MM_ENGRAVE
 10
1524.777369192138
 20
-509.4404563736581
 30
0.0
  0
VERTEX
  5
9E
  8
6MM_ENGRAVE
 10
1524.958571259661
 20
-508.9517078716811
 30
0.0
  0
VERTEX
  5
9F
  8
6MM_ENGRAVE
 10
1525.15310067907
 20
-508.4681169120163
 30
0.0
  0
VERTEX
  5
A0
  8
6MM_ENGRAVE
 10
1525.360773587935
 20
-507.989825940844
 30
0.0
  0
VERTEX
  5
A1
  8
6MM_ENGRAVE
 10
1525.58140612383
 20
-507.5169774043441
 30
0.0
  0
VERTEX
  5
A2
  8
6MM_ENGRAVE
 10
1525.814814424327
 20
-507.0497137486969
 30
0.0
  0
VERTEX
  5
A3
  8
6MM_ENGRAVE
 10
1526.060814626996
 20
-506.5881774200825
 30
0.0
  0
VERTEX
  5
A4
  8
6MM_ENGRAVE
 10
1526.31922286941
 20
-506.1325108646811
 30
0.0
  0
VERTEX
  5
A5
  8
6MM_ENGRAVE
 10
1526.589855289141
 20
-505.6828565286728
 30
0.0
  0
VERTEX
  5
A6
  8
6MM_ENGRAVE
 10
1526.872528023761
 20
-505.2393568582377
 30
0.0
  0
VERTEX
  5
A7
  8
6MM_ENGRAVE
 10
1527.167057210842
 20
-504.8021542995559
 30
0.0
  0
VERTEX
  5
A8
  8
6MM_ENGRAVE
 10
1527.473258987955
 20
-504.3713912988076
 30
0.0
  0
VERTEX
  5
A9
  8
6MM_ENGRAVE
 10
1527.790949492673
 20
-503.9472103021729
 30
0.0
  0
VERTEX
  5
AA
  8
6MM_ENGRAVE
 10
1528.119944862567
 20
-503.529753755832
 30
0.0
  0
VERTEX
  5
AB
  8
6MM_ENGRAVE
 10
1528.46006123521
 20
-503.119164105965
 30
0.0
  0
VERTEX
  5
AC
  8
6MM_ENGRAVE
 10
1528.811114748172
 20
-502.7155837987519
 30
0.0
  0
VERTEX
  5
AD
  8
6MM_ENGRAVE
 10
1529.172921539027
 20
-502.3191552803731
 30
0.0
  0
VERTEX
  5
AE
  8
6MM_ENGRAVE
 10
1529.545297745346
 20
-501.9300209970085
 30
0.0
  0
VERTEX
  5
AF
  8
6MM_ENGRAVE
 10
1529.928059504701
 20
-501.5483233948384
 30
0.0
  0
VERTEX
  5
B0
  8
6MM_ENGRAVE
 10
1530.321022954664
 20
-501.1742049200428
 30
0.0
  0
VERTEX
  5
B1
  8
6MM_ENGRAVE
 10
1530.724004232807
 20
-500.8078080188019
 30
0.0
  0
VERTEX
  5
B2
  8
6MM_ENGRAVE
 10
1531.136819476701
 20
-500.4492751372959
 30
0.0
  0
VERTEX
  5
B3
  8
6MM_ENGRAVE
 10
1531.559284823919
 20
-500.0987487217049
 30
0.0
  0
VERTEX
  5
B4
  8
6MM_ENGRAVE
 10
1531.991216412033
 20
-499.7563712182089
 30
0.0
  0
VERTEX
  5
B5
  8
6MM_ENGRAVE
 10
1532.432430378614
 20
-499.4222850729882
 30
0.0
  0
VERTEX
  5
B6
  8
6MM_ENGRAVE
 10
1532.882742861234
 20
-499.0966327322228
 30
0.0
  0
VERTEX
  5
B7
  8
6MM_ENGRAVE
 10
1533.341969997466
 20
-498.7795566420929
 30
0.0
  0
VERTEX
  5
B8
  8
6MM_ENGRAVE
 10
1533.809927924881
 20
-498.4711992487788
 30
0.0
  0
VERTEX
  5
B9
  8
6MM_ENGRAVE
 10
1534.286432781051
 20
-498.1717029984604
 30
0.0
  0
VERTEX
  5
BA
  8
6MM_ENGRAVE
 10
1534.771300703548
 20
-497.8812103373179
 30
0.0
  0
VERTEX
  5
BB
  8
6MM_ENGRAVE
 10
1535.264347829943
 20
-497.5998637115315
 30
0.0
  0
VERTEX
  5
BC
  8
6MM_ENGRAVE
 10
1535.76539029781
 20
-497.3278055672812
 30
0.0
  0
VERTEX
  5
BD
  8
6MM_ENGRAVE
 10
1536.274244244719
 20
-497.0651783507473
 30
0.0
  0
VERTEX
  5
BE
  8
6MM_ENGRAVE
 10
1536.790725808243
 20
-496.8121245081097
 30
0.0
  0
VERTEX
  5
BF
  8
6MM_ENGRAVE
 10
1537.314651125953
 20
-496.5687864855488
 30
0.0
  0
VERTEX
  5
C0
  8
6MM_ENGRAVE
 10
1537.845836335422
 20
-496.3353067292446
 30
0.0
  0
VERTEX
  5
C1
  8
6MM_ENGRAVE
 10
1538.384097574221
 20
-496.1118276853773
 30
0.0
  0
VERTEX
  5
C2
  8
6MM_ENGRAVE
 10
1538.929250979922
 20
-495.898491800127
 30
0.0
  0
VERTEX
  5
C3
  8
6MM_ENGRAVE
 10
1539.481112690098
 20
-495.6954415196738
 30
0.0
  0
VERTEX
  5
C4
  8
6MM_ENGRAVE
 10
1540.03949884232
 20
-495.5028192901978
 30
0.0
  0
VERTEX
  5
C5
  8
6MM_ENGRAVE
 10
1540.604225574159
 20
-495.3207675578792
 30
0.0
  0
VERTEX
  5
C6
  8
6MM_ENGRAVE
 10
1541.175109023189
 20
-495.1494287688982
 30
0.0
  0
VERTEX
  5
C7
  8
6MM_ENGRAVE
 10
1541.751965326981
 20
-494.988945369435
 30
0.0
  0
VERTEX
  5
C8
  8
6MM_ENGRAVE
 10
1542.334610623106
 20
-494.8394598056694
 30
0.0
  0
VERTEX
  5
C9
  8
6MM_ENGRAVE
 10
1542.922861049137
 20
-494.7011145237817
 30
0.0
  0
VERTEX
  5
CA
  8
6MM_ENGRAVE
 10
1543.516532742645
 20
-494.5740519699523
 30
0.0
  0
VERTEX
  5
CB
  8
6MM_ENGRAVE
 10
1544.115441841203
 20
-494.4584145903609
 30
0.0
  0
VERTEX
  5
CC
  8
6MM_ENGRAVE
 10
1544.719404482382
 20
-494.3543448311879
 30
0.0
  0
VERTEX
  5
CD
  8
6MM_ENGRAVE
 10
1545.328236803754
 20
-494.2619851386134
 30
0.0
  0
VERTEX
  5
CE
  8
6MM_ENGRAVE
 10
1545.941754942892
 20
-494.1814779588175
 30
0.0
  0
VERTEX
  5
CF
  8
6MM_ENGRAVE
 10
1546.559775037367
 20
-494.1129657379803
 30
0.0
  0
VERTEX
  5
D0
  8
6MM_ENGRAVE
 10
1547.18211322475
 20
-494.0565909222821
 30
0.0
  0
VERTEX
  5
D1
  8
6MM_ENGRAVE
 10
1547.808585642614
 20
-494.0124959579028
 30
0.0
  0
VERTEX
  5
D2
  8
6MM_ENGRAVE
 10
1548.439008428532
 20
-493.9808232910227
 30
0.0
  0
VERTEX
  5
D3
  8
6MM_ENGRAVE
 10
1549.073197720074
 20
-493.9617153678219
 30
0.0
  0
VERTEX
  5
D4
  8
6MM_ENGRAVE
 10
1549.710969654813
 20
-493.9553146344805
 30
0.0
  0
VERTEX
  5
D5
  8
6MM_ENGRAVE
 10
1550.349089016122
 20
-493.961693419777
 30
0.0
  0
VERTEX
  5
D6
  8
6MM_ENGRAVE
 10
1550.984301740207
 20
-493.9807359572123
 30
0.0
  0
VERTEX
  5
D7
  8
6MM_ENGRAVE
 10
1551.616390720857
 20
-494.0123019345687
 30
0.0
  0
VERTEX
  5
D8
  8
6MM_ENGRAVE
 10
1552.245138851859
 20
-494.0562510396284
 30
0.0
  0
VERTEX
  5
D9
  8
6MM_ENGRAVE
 10
1552.870329027001
 20
-494.1124429601734
 30
0.0
  0
VERTEX
  5
DA
  8
6MM_ENGRAVE
 10
1553.491744140069
 20
-494.1807373839862
 30
0.0
  0
VERTEX
  5
DB
  8
6MM_ENGRAVE
 10
1554.109167084852
 20
-494.2609939988489
 30
0.0
  0
VERTEX
  5
DC
  8
6MM_ENGRAVE
 10
1554.722380755136
 20
-494.3530724925436
 30
0.0
  0
VERTEX
  5
DD
  8
6MM_ENGRAVE
 10
1555.33116804471
 20
-494.4568325528525
 30
0.0
  0
VERTEX
  5
DE
  8
6MM_ENGRAVE
 10
1555.93531184736
 20
-494.5721338675579
 30
0.0
  0
VERTEX
  5
DF
  8
6MM_ENGRAVE
 10
1556.534595056874
 20
-494.6988361244419
 30
0.0
  0
VERTEX
  5
E0
  8
6MM_ENGRAVE
 10
1557.128800567039
 20
-494.8367990112868
 30
0.0
  0
VERTEX
  5
E1
  8
6MM_ENGRAVE
 10
1557.717711271644
 20
-494.9858822158747
 30
0.0
  0
VERTEX
  5
E2
  8
6MM_ENGRAVE
 10
1558.301110064474
 20
-495.1459454259879
 30
0.0
  0
VERTEX
  5
E3
  8
6MM_ENGRAVE
 10
1558.878779839318
 20
-495.3168483294086
 30
0.0
  0
VERTEX
  5
E4
  8
6MM_ENGRAVE
 10
1559.450503489964
 20
-495.4984506139189
 30
0.0
  0
VERTEX
  5
E5
  8
6MM_ENGRAVE
 10
1560.016063910198
 20
-495.690611967301
 30
0.0
  0
VERTEX
  5
E6
  8
6MM_ENGRAVE
 10
1560.575243993807
 20
-495.8931920773372
 30
0.0
  0
VERTEX
  5
E7
  8
6MM_ENGRAVE
 10
1561.127826634581
 20
-496.1060506318096
 30
0.0
  0
VERTEX
  5
E8
  8
6MM_ENGRAVE
 10
1561.673594726305
 20
-496.3290473185004
 30
0.0
  0
VERTEX
  5
E9
  8
6MM_ENGRAVE
 10
1562.212331162768
 20
-496.5620418251919
 30
0.0
  0
VERTEX
  5
EA
  8
6MM_ENGRAVE
 10
1562.743818837756
 20
-496.8048938396662
 30
0.0
  0
VERTEX
  5
EB
  8
6MM_ENGRAVE
 10
1563.267840645057
 20
-497.0574630497056
 30
0.0
  0
VERTEX
  5
EC
  8
6MM_ENGRAVE
 10
1563.784179478459
 20
-497.3196091430922
 30
0.0
  0
VERTEX
  5
ED
  8
6MM_ENGRAVE
 10
1564.29261823175
 20
-497.5911918076082
 30
0.0
  0
VERTEX
  5
EE
  8
6MM_ENGRAVE
 10
1564.792939798715
 20
-497.8720707310359
 30
0.0
  0
VERTEX
  5
EF
  8
6MM_ENGRAVE
 10
1565.284927073143
 20
-498.1621056011574
 30
0.0
  0
VERTEX
  5
F0
  8
6MM_ENGRAVE
 10
1565.768362948822
 20
-498.4611561057549
 30
0.0
  0
VERTEX
  5
F1
  8
6MM_ENGRAVE
 10
1566.243030319539
 20
-498.7690819326106
 30
0.0
  0
VERTEX
  5
F2
  8
6MM_ENGRAVE
 10
1566.70871207908
 20
-499.0857427695069
 30
0.0
  0
VERTEX
  5
F3
  8
6MM_ENGRAVE
 10
1567.165191121234
 20
-499.4109983042256
 30
0.0
  0
VERTEX
  5
F4
  8
6MM_ENGRAVE
 10
1567.612250339789
 20
-499.7447082245493
 30
0.0
  0
VERTEX
  5
F5
  8
6MM_ENGRAVE
 10
1568.049672628531
 20
-500.08673221826
 30
0.0
  0
VERTEX
  5
F6
  8
6MM_ENGRAVE
 10
1568.477240881247
 20
-500.4369299731399
 30
0.0
  0
VERTEX
  5
F7
  8
6MM_ENGRAVE
 10
1568.894737991726
 20
-500.7951611769712
 30
0.0
  0
VERTEX
  5
F8
  8
6MM_ENGRAVE
 10
1569.301946853755
 20
-501.1612855175362
 30
0.0
  0
VERTEX
  5
F9
  8
6MM_ENGRAVE
 10
1569.698650361121
 20
-501.5351626826169
 30
0.0
  0
VERTEX
  5
FA
  8
6MM_ENGRAVE
 10
1570.084631407611
 20
-501.9166523599957
 30
0.0
  0
VERTEX
  5
FB
  8
6MM_ENGRAVE
 10
1570.459672887014
 20
-502.3056142374547
 30
0.0
  0
VERTEX
  5
FC
  8
6MM_ENGRAVE
 10
1570.823557693116
 20
-502.7019080027761
 30
0.0
  0
VERTEX
  5
FD
  8
6MM_ENGRAVE
 10
1571.176068719705
 20
-503.1053933437422
 30
0.0
  0
VERTEX
  5
FE
  8
6MM_ENGRAVE
 10
1571.516988860568
 20
-503.5159299481351
 30
0.0
  0
VERTEX
  5
FF
  8
6MM_ENGRAVE
 10
1571.846101009493
 20
-503.9333775037369
 30
0.0
  0
VERTEX
  5
100
  8
6MM_ENGRAVE
 10
1572.163188060267
 20
-504.35759569833
 30
0.0
  0
VERTEX
  5
101
  8
6MM_ENGRAVE
 10
1572.468032906678
 20
-504.7884442196964
 30
0.0
  0
VERTEX
  5
102
  8
6MM_ENGRAVE
 10
1572.760418442513
 20
-505.2257827556185
 30
0.0
  0
VERTEX
  5
103
  8
6MM_ENGRAVE
 10
1573.04012756156
 20
-505.6694709938784
 30
0.0
  0
VERTEX
  5
104
  8
6MM_ENGRAVE
 10
1573.306943157605
 20
-506.1193686222583
 30
0.0
  0
VERTEX
  5
105
  8
6MM_ENGRAVE
 10
1573.560648124437
 20
-506.5753353285404
 30
0.0
  0
VERTEX
  5
106
  8
6MM_ENGRAVE
 10
1573.801025355842
 20
-507.037230800507
 30
0.0
  0
VERTEX
  5
107
  8
6MM_ENGRAVE
 10
1574.027857745609
 20
-507.5049147259401
 30
0.0
  0
VERTEX
  5
108
  8
6MM_ENGRAVE
 10
1574.240928187525
 20
-507.978246792622
 30
0.0
  0
VERTEX
  5
109
  8
6MM_ENGRAVE
 10
1574.440019575376
 20
-508.457086688335
 30
0.0
  0
VERTEX
  5
10A
  8
6MM_ENGRAVE
 10
1574.624914802951
 20
-508.9412941008611
 30
0.0
  0
VERTEX
  5
10B
  8
6MM_ENGRAVE
 10
1574.795396764037
 20
-509.4307287179827
 30
0.0
  0
VERTEX
  5
10C
  8
6MM_ENGRAVE
 10
1574.951248352422
 20
-509.9252502274818
 30
0.0
  0
VERTEX
  5
10D
  8
6MM_ENGRAVE
 10
1575.092252461892
 20
-510.4247183171407
 30
0.0
  0
VERTEX
  5
10E
  8
6MM_ENGRAVE
 10
1575.218191986236
 20
-510.9289926747416
 30
0.0
  0
VERTEX
  5
10F
  8
6MM_ENGRAVE
 10
1575.32884981924
 20
-511.4379329880667
 30
0.0
  0
VERTEX
  5
110
  8
6MM_ENGRAVE
 10
1575.424008854692
 20
-511.9513989448982
 30
0.0
  0
VERTEX
  5
111
  8
6MM_ENGRAVE
 10
1575.50345198638
 20
-512.4692502330183
 30
0.0
  0
VERTEX
  5
112
  8
6MM_ENGRAVE
 10
1575.566962108091
 20
-512.9913465402092
 30
0.0
  0
VERTEX
  5
113
  8
6MM_ENGRAVE
 10
1575.614322113612
 20
-513.5175475542532
 30
0.0
  0
VERTEX
  5
114
  8
6MM_ENGRAVE
 10
1575.645314896731
 20
-514.0477129629322
 30
0.0
  0
VERTEX
  5
115
  8
6MM_ENGRAVE
 10
1575.665822731245
 20
-514.7324732592147
 30
0.0
  0
VERTEX
  5
116
  8
6MM_ENGRAVE
 10
1575.672658676082
 20
-515.4710465164081
 30
0.0
  0
VERTEX
  5
117
  8
6MM_ENGRAVE
 10
1575.665822731245
 20
-516.2096197736016
 30
0.0
  0
VERTEX
  5
118
  8
6MM_ENGRAVE
 10
1575.645314896731
 20
-516.894380069884
 30
0.0
  0
VERTEX
  5
119
  8
6MM_ENGRAVE
 10
1575.614322113612
 20
-517.4245454785516
 30
0.0
  0
VERTEX
  5
11A
  8
6MM_ENGRAVE
 10
1575.566962108091
 20
-517.9507464925844
 30
0.0
  0
VERTEX
  5
11B
  8
6MM_ENGRAVE
 10
1575.50345198638
 20
-518.4728427997645
 30
0.0
  0
VERTEX
  5
11C
  8
6MM_ENGRAVE
 10
1575.424008854692
 20
-518.9906940878741
 30
0.0
  0
VERTEX
  5
11D
  8
6MM_ENGRAVE
 10
1575.32884981924
 20
-519.5041600446955
 30
0.0
  0
VERTEX
  5
11E
  8
6MM_ENGRAVE
 10
1575.218191986236
 20
-520.0131003580109
 30
0.0
  0
VERTEX
  5
11F
  8
6MM_ENGRAVE
 10
1575.092252461892
 20
-520.5173747156025
 30
0.0
  0
VERTEX
  5
120
  8
6MM_ENGRAVE
 10
1574.951248352422
 20
-521.0168428052523
 30
0.0
  0
VERTEX
  5
121
  8
6MM_ENGRAVE
 10
1574.795396764037
 20
-521.5113643147425
 30
0.0
  0
VERTEX
  5
122
  8
6MM_ENGRAVE
 10
1574.624914802951
 20
-522.0007989318556
 30
0.0
  0
VERTEX
  5
123
  8
6MM_ENGRAVE
 10
1574.440019575376
 20
-522.4850063443737
 30
0.0
  0
VERTEX
  5
124
  8
6MM_ENGRAVE
 10
1574.240928187525
 20
-522.9638462400787
 30
0.0
  0
VERTEX
  5
125
  8
6MM_ENGRAVE
 10
1574.027857745609
 20
-523.4371783067531
 30
0.0
  0
VERTEX
  5
126
  8
6MM_ENGRAVE
 10
1573.801025355842
 20
-523.9048622321791
 30
0.0
  0
VERTEX
  5
127
  8
6MM_ENGRAVE
 10
1573.560648124437
 20
-524.3667577041385
 30
0.0
  0
VERTEX
  5
128
  8
6MM_ENGRAVE
 10
1573.306943157605
 20
-524.8227244104139
 30
0.0
  0
VERTEX
  5
129
  8
6MM_ENGRAVE
 10
1573.04012756156
 20
-525.2726220387874
 30
0.0
  0
VERTEX
  5
12A
  8
6MM_ENGRAVE
 10
1572.760418442513
 20
-525.7163102770411
 30
0.0
  0
VERTEX
  5
12B
  8
6MM_ENGRAVE
 10
1572.468032906678
 20
-526.1536488129573
 30
0.0
  0
VERTEX
  5
12C
  8
6MM_ENGRAVE
 10
1572.163188060267
 20
-526.5844973343181
 30
0.0
  0
VERTEX
  5
12D
  8
6MM_ENGRAVE
 10
1571.846101009493
 20
-527.0087155289059
 30
0.0
  0
VERTEX
  5
12E
  8
6MM_ENGRAVE
 10
1571.516988860568
 20
-527.4261630845025
 30
0.0
  0
VERTEX
  5
12F
  8
6MM_ENGRAVE
 10
1571.176068719705
 20
-527.8366996888903
 30
0.0
  0
VERTEX
  5
130
  8
6MM_ENGRAVE
 10
1570.823557693116
 20
-528.2401850298518
 30
0.0
  0
VERTEX
  5
131
  8
6MM_ENGRAVE
 10
1570.459672887014
 20
-528.6364787951687
 30
0.0
  0
VERTEX
  5
132
  8
6MM_ENGRAVE
 10
1570.084631407611
 20
-529.0254406726235
 30
0.0
  0
VERTEX
  5
133
  8
6MM_ENGRAVE
 10
1569.698650361121
 20
-529.4069303499982
 30
0.0
  0
VERTEX
  5
134
  8
6MM_ENGRAVE
 10
1569.301946853755
 20
-529.7808075150751
 30
0.0
  0
VERTEX
  5
135
  8
6MM_ENGRAVE
 10
1568.894737991726
 20
-530.1469318556365
 30
0.0
  0
VERTEX
  5
136
  8
6MM_ENGRAVE
 10
1568.477240881247
 20
-530.5051630594644
 30
0.0
  0
VERTEX
  5
137
  8
6MM_ENGRAVE
 10
1568.049672628531
 20
-530.8553608143411
 30
0.0
  0
VERTEX
  5
138
  8
6MM_ENGRAVE
 10
1567.612250339789
 20
-531.1973848080487
 30
0.0
  0
VERTEX
  5
139
  8
6MM_ENGRAVE
 10
1567.165191121234
 20
-531.5310947283695
 30
0.0
  0
VERTEX
  5
13A
  8
6MM_ENGRAVE
 10
1566.70871207908
 20
-531.8563502630857
 30
0.0
  0
VERTEX
  5
13B
  8
6MM_ENGRAVE
 10
1566.243030319539
 20
-532.1730110999794
 30
0.0
  0
VERTEX
  5
13C
  8
6MM_ENGRAVE
 10
1565.768362948822
 20
-532.4809369268328
 30
0.0
  0
VERTEX
  5
13D
  8
6MM_ENGRAVE
 10
1565.284927073143
 20
-532.7799874314281
 30
0.0
  0
VERTEX
  5
13E
  8
6MM_ENGRAVE
 10
1564.792939798715
 20
-533.0700223015476
 30
0.0
  0
VERTEX
  5
13F
  8
6MM_ENGRAVE
 10
1564.29261823175
 20
-533.3509012249734
 30
0.0
  0
VERTEX
  5
140
  8
6MM_ENGRAVE
 10
1563.784179478459
 20
-533.6224838894877
 30
0.0
  0
VERTEX
  5
141
  8
6MM_ENGRAVE
 10
1563.267840645057
 20
-533.8846299828726
 30
0.0
  0
VERTEX
  5
142
  8
6MM_ENGRAVE
 10
1562.743818837756
 20
-534.1371991929107
 30
0.0
  0
VERTEX
  5
143
  8
6MM_ENGRAVE
 10
1562.212331162768
 20
-534.3800512073836
 30
0.0
  0
VERTEX
  5
144
  8
6MM_ENGRAVE
 10
1561.673594726305
 20
-534.6130457140739
 30
0.0
  0
VERTEX
  5
145
  8
6MM_ENGRAVE
 10
1561.127826634581
 20
-534.8360424007637
 30
0.0
  0
VERTEX
  5
146
  8
6MM_ENGRAVE
 10
1560.575243993807
 20
-535.0489009552351
 30
0.0
  0
VERTEX
  5
147
  8
6MM_ENGRAVE
 10
1560.016063910198
 20
-535.2514810652704
 30
0.0
  0
VERTEX
  5
148
  8
6MM_ENGRAVE
 10
1559.450503489964
 20
-535.4436424186517
 30
0.0
  0
VERTEX
  5
149
  8
6MM_ENGRAVE
 10
1558.878779839318
 20
-535.6252447031613
 30
0.0
  0
VERTEX
  5
14A
  8
6MM_ENGRAVE
 10
1558.301110064474
 20
-535.7961476065814
 30
0.0
  0
VERTEX
  5
14B
  8
6MM_ENGRAVE
 10
1557.717711271644
 20
-535.956210816694
 30
0.0
  0
VERTEX
  5
14C
  8
6MM_ENGRAVE
 10
1557.128800567039
 20
-536.1052940212815
 30
0.0
  0
VERTEX
  5
14D
  8
6MM_ENGRAVE
 10
1556.534595056874
 20
-536.2432569081259
 30
0.0
  0
VERTEX
  5
14E
  8
6MM_ENGRAVE
 10
1555.93531184736
 20
-536.3699591650097
 30
0.0
  0
VERTEX
  5
14F
  8
6MM_ENGRAVE
 10
1555.33116804471
 20
-536.4852604797148
 30
0.0
  0
VERTEX
  5
150
  8
6MM_ENGRAVE
 10
1554.722380755136
 20
-536.5890205400236
 30
0.0
  0
VERTEX
  5
151
  8
6MM_ENGRAVE
 10
1554.109167084852
 20
-536.6810990337183
 30
0.0
  0
VERTEX
  5
152
  8
6MM_ENGRAVE
 10
1553.491744140069
 20
-536.7613556485807
 30
0.0
  0
VERTEX
  5
153
  8
6MM_ENGRAVE
 10
1552.870329027001
 20
-536.8296500723933
 30
0.0
  0
VERTEX
  5
154
  8
6MM_ENGRAVE
 10
1552.245138851859
 20
-536.8858419929384
 30
0.0
  0
VERTEX
  5
155
  8
6MM_ENGRAVE
 10
1551.616390720857
 20
-536.9297910979981
 30
0.0
  0
VERTEX
  5
156
  8
6MM_ENGRAVE
 10
1550.984301740207
 20
-536.9613570753545
 30
0.0
  0
VERTEX
  5
157
  8
6MM_ENGRAVE
 10
1550.349089016122
 20
-536.9803996127898
 30
0.0
  0
VERTEX
  5
158
  8
6MM_ENGRAVE
 10
1549.710969654813
 20
-536.9867783980862
 30
0.0
  0
VERTEX
  5
159
  8
6MM_ENGRAVE
 10
1549.073197720074
 20
-536.980377664745
 30
0.0
  0
VERTEX
  5
15A
  8
6MM_ENGRAVE
 10
1548.439008428532
 20
-536.9612697415441
 30
0.0
  0
VERTEX
  5
15B
  8
6MM_ENGRAVE
 10
1547.808585642614
 20
-536.929597074664
 30
0.0
  0
VERTEX
  5
15C
  8
6MM_ENGRAVE
 10
1547.18211322475
 20
-536.8855021102847
 30
0.0
  0
VERTEX
  5
15D
  8
6MM_ENGRAVE
 10
1546.559775037367
 20
-536.8291272945864
 30
0.0
  0
VERTEX
  5
15E
  8
6MM_ENGRAVE
 10
1545.941754942892
 20
-536.7606150737494
 30
0.0
  0
VERTEX
  5
15F
  8
6MM_ENGRAVE
 10
1545.328236803754
 20
-536.6801078939534
 30
0.0
  0
VERTEX
  5
160
  8
6MM_ENGRAVE
 10
1544.719404482382
 20
-536.5877482013789
 30
0.0
  0
VERTEX
  5
161
  8
6MM_ENGRAVE
 10
1544.115441841203
 20
-536.4836784422059
 30
0.0
  0
VERTEX
  5
162
  8
6MM_ENGRAVE
 10
1543.516532742645
 20
-536.3680410626146
 30
0.0
  0
VERTEX
  5
163
  8
6MM_ENGRAVE
 10
1542.922861049137
 20
-536.2409785087851
 30
0.0
  0
VERTEX
  5
164
  8
6MM_ENGRAVE
 10
1542.334610623106
 20
-536.1026332268975
 30
0.0
  0
VERTEX
  5
165
  8
6MM_ENGRAVE
 10
1541.751965326981
 20
-535.9531476631321
 30
0.0
  0
VERTEX
  5
166
  8
6MM_ENGRAVE
 10
1541.175109023189
 20
-535.7926642636687
 30
0.0
  0
VERTEX
  5
167
  8
6MM_ENGRAVE
 10
1540.604225574159
 20
-535.6213254746876
 30
0.0
  0
VERTEX
  5
168
  8
6MM_ENGRAVE
 10
1540.03949884232
 20
-535.4392737423691
 30
0.0
  0
VERTEX
  5
169
  8
6MM_ENGRAVE
 10
1539.481112690098
 20
-535.2466515128932
 30
0.0
  0
VERTEX
  5
16A
  8
6MM_ENGRAVE
 10
1538.929250979922
 20
-535.04360123244
 30
0.0
  0
VERTEX
  5
16B
  8
6MM_ENGRAVE
 10
1538.384097574221
 20
-534.8302653471895
 30
0.0
  0
VERTEX
  5
16C
  8
6MM_ENGRAVE
 10
1537.845836335422
 20
-534.6067863033222
 30
0.0
  0
VERTEX
  5
16D
  8
6MM_ENGRAVE
 10
1537.314651125953
 20
-534.373306547018
 30
0.0
  0
VERTEX
  5
16E
  8
6MM_ENGRAVE
 10
1536.790725808243
 20
-534.1299685244571
 30
0.0
  0
VERTEX
  5
16F
  8
6MM_ENGRAVE
 10
1536.274244244719
 20
-533.8769146818197
 30
0.0
  0
VERTEX
  5
170
  8
6MM_ENGRAVE
 10
1535.76539029781
 20
-533.6142874652858
 30
0.0
  0
VERTEX
  5
171
  8
6MM_ENGRAVE
 10
1535.264347829943
 20
-533.3422293210355
 30
0.0
  0
VERTEX
  5
172
  8
6MM_ENGRAVE
 10
1534.771300703548
 20
-533.060882695249
 30
0.0
  0
VERTEX
  5
173
  8
6MM_ENGRAVE
 10
1534.286432781051
 20
-532.7703900341066
 30
0.0
  0
VERTEX
  5
174
  8
6MM_ENGRAVE
 10
1533.809927924881
 20
-532.4708937837881
 30
0.0
  0
VERTEX
  5
175
  8
6MM_ENGRAVE
 10
1533.341969997466
 20
-532.1625363904739
 30
0.0
  0
VERTEX
  5
176
  8
6MM_ENGRAVE
 10
1532.882742861234
 20
-531.845460300344
 30
0.0
  0
VERTEX
  5
177
  8
6MM_ENGRAVE
 10
1532.432430378614
 20
-531.5198079595787
 30
0.0
  0
VERTEX
  5
178
  8
6MM_ENGRAVE
 10
1531.991216412033
 20
-531.185721814358
 30
0.0
  0
VERTEX
  5
179
  8
6MM_ENGRAVE
 10
1531.559284823919
 20
-530.843344310862
 30
0.0
  0
VERTEX
  5
17A
  8
6MM_ENGRAVE
 10
1531.136819476701
 20
-530.492817895271
 30
0.0
  0
VERTEX
  5
17B
  8
6MM_ENGRAVE
 10
1530.724004232807
 20
-530.1342850137648
 30
0.0
  0
VERTEX
  5
17C
  8
6MM_ENGRAVE
 10
1530.321022954664
 20
-529.767888112524
 30
0.0
  0
VERTEX
  5
17D
  8
6MM_ENGRAVE
 10
1529.928059504701
 20
-529.3937696377285
 30
0.0
  0
VERTEX
  5
17E
  8
6MM_ENGRAVE
 10
1529.545297745346
 20
-529.0120720355584
 30
0.0
  0
VERTEX
  5
17F
  8
6MM_ENGRAVE
 10
1529.172921539027
 20
-528.6229377521938
 30
0.0
  0
VERTEX
  5
180
  8
6MM_ENGRAVE
 10
1528.811114748172
 20
-528.2265092338149
 30
0.0
  0
VERTEX
  5
181
  8
6MM_ENGRAVE
 10
1528.46006123521
 20
-527.8229289266019
 30
0.0
  0
VERTEX
  5
182
  8
6MM_ENGRAVE
 10
1528.119944862567
 20
-527.4123392767349
 30
0.0
  0
VERTEX
  5
183
  8
6MM_ENGRAVE
 10
1527.790949492673
 20
-526.994882730394
 30
0.0
  0
VERTEX
  5
184
  8
6MM_ENGRAVE
 10
1527.473258987955
 20
-526.5707017337593
 30
0.0
  0
VERTEX
  5
185
  8
6MM_ENGRAVE
 10
1527.167057210842
 20
-526.1399387330109
 30
0.0
  0
VERTEX
  5
186
  8
6MM_ENGRAVE
 10
1526.872528023761
 20
-525.7027361743292
 30
0.0
  0
VERTEX
  5
187
  8
6MM_ENGRAVE
 10
1526.589855289141
 20
-525.259236503894
 30
0.0
  0
VERTEX
  5
188
  8
6MM_ENGRAVE
 10
1526.31922286941
 20
-524.8095821678857
 30
0.0
  0
VERTEX
  5
189
  8
6MM_ENGRAVE
 10
1526.060814626996
 20
-524.3539156124842
 30
0.0
  0
VERTEX
  5
18A
  8
6MM_ENGRAVE
 10
1525.814814424327
 20
-523.8923792838698
 30
0.0
  0
VERTEX
  5
18B
  8
6MM_ENGRAVE
 10
1525.58140612383
 20
-523.4251156282226
 30
0.0
  0
VERTEX
  5
18C
  8
6MM_ENGRAVE
 10
1525.360773587935
 20
-522.9522670917228
 30
0.0
  0
VERTEX
  5
18D
  8
6MM_ENGRAVE
 10
1525.15310067907
 20
-522.4739761205503
 30
0.0
  0
VERTEX
  5
18E
  8
6MM_ENGRAVE
 10
1524.958571259661
 20
-521.9903851608856
 30
0.0
  0
VERTEX
  5
18F
  8
6MM_ENGRAVE
 10
1524.777369192138
 20
-521.5016366589085
 30
0.0
  0
VERTEX
  5
190
  8
6MM_ENGRAVE
 10
1524.609678338929
 20
-521.0078730607993
 30
0.0
  0
VERTEX
  5
191
  8
6MM_ENGRAVE
 10
1524.455682562461
 20
-520.509236812738
 30
0.0
  0
VERTEX
  5
192
  8
6MM_ENGRAVE
 10
1524.315565725163
 20
-520.0058703609051
 30
0.0
  0
VERTEX
  5
193
  8
6MM_ENGRAVE
 10
1524.189511689462
 20
-519.4979161514802
 30
0.0
  0
VERTEX
  5
194
  8
6MM_ENGRAVE
 10
1524.077704317788
 20
-518.9855166306438
 30
0.0
  0
VERTEX
  5
195
  8
6MM_ENGRAVE
 10
1523.980327472567
 20
-518.468814244576
 30
0.0
  0
VERTEX
  5
196
  8
6MM_ENGRAVE
 10
1523.897565016229
 20
-517.9479514394568
 30
0.0
  0
VERTEX
  5
197
  8
6MM_ENGRAVE
 10
1523.829600811201
 20
-517.4230706614665
 30
0.0
  0
VERTEX
  5
198
  8
6MM_ENGRAVE
 10
1523.776618719911
 20
-516.894314356785
 30
0.0
  0
VERTEX
  5
199
  8
6MM_ENGRAVE
 10
1523.776618719917
 20
-516.894314356785
 30
0.0
  0
SEQEND
  5
19A
  8
6MM_ENGRAVE
  0
POLYLINE
  5
44
  8
6MM_ENGRAVE
 66
     1
 10
0.0
 20
0.0
 30
0.0
 70
     1
  0
VERTEX
  5
19B
  8
6MM_ENGRAVE
 10
1584.023566222395
 20
-514.305061722578
 30
0.0
 42
-0.0267394602957598
  0
VERTEX
  5
19C
  8
6MM_ENGRAVE
 10
1583.681387703263
 20
-519.1126714764606
 30
0.0
 42
-0.0765148249710515
  0
VERTEX
  5
19D
  8
6MM_ENGRAVE
 10
1581.695794543997
 20
-526.0898915537688
 30
0.0
 42
-0.1048473330506779
  0
VERTEX
  5
19E
  8
6MM_ENGRAVE
 10
1575.191431066755
 20
-534.8457261869778
 30
0.0
 42
-0.1536209274841777
  0
VERTEX
  5
19F
  8
6MM_ENGRAVE
 10
1554.296863806698
 20
-544.128846649199
 30
0.0
 42
-0.202374703122267
  0
VERTEX
  5
1A0
  8
6MM_ENGRAVE
 10
1524.823939113311
 20
-535.4580131396812
 30
0.0
 42
-0.1917510414584003
  0
VERTEX
  5
1A1
  8
6MM_ENGRAVE
 10
1515.49162304937
 20
-518.6327102095108
 30
0.0
 42
-0.0210793917758917
  0
VERTEX
  5
1A2
  8
6MM_ENGRAVE
 10
1515.369176907375
 20
-517.2016981697891
 30
0.0
 42
-0.0104466890660699
  0
VERTEX
  5
1A3
  8
6MM_ENGRAVE
 10
1515.304539489831
 20
-514.305334439093
 30
0.0
  0
VERTEX
  5
1A4
  8
6MM_ENGRAVE
 10
1454.720389286755
 20
-514.3058912865716
 30
0.0
 42
-0.023686143626511
  0
VERTEX
  5
1A5
  8
6MM_ENGRAVE
 10
1454.39472814976
 20
-519.0733164404099
 30
0.0
 42
-0.0522623625490926
  0
VERTEX
  5
1A6
  8
6MM_ENGRAVE
 10
1453.38673147907
 20
-523.5810269302735
 30
0.0
 42
-0.1415241614751358
  0
VERTEX
  5
1A7
  8
6MM_ENGRAVE
 10
1445.075113345502
 20
-535.5850847676563
 30
0.0
 42
-0.20381635310588
  0
VERTEX
  5
1A8
  8
6MM_ENGRAVE
 10
1415.699153664013
 20
-544.0921891822868
 30
0.0
 42
-0.142780352561056
  0
VERTEX
  5
1A9
  8
6MM_ENGRAVE
 10
1395.569829816715
 20
-535.4893025734925
 30
0.0
 42
-0.1759681601752471
  0
VERTEX
  5
1AA
  8
6MM_ENGRAVE
 10
1386.421720737592
 20
-520.0498397267045
 30
0.0
 42
-0.0282671438628161
  0
VERTEX
  5
1AB
  8
6MM_ENGRAVE
 10
1386.173111086651
 20
-518.1483672710439
 30
0.0
 42
-0.0140844386279425
  0
VERTEX
  5
1AC
  8
6MM_ENGRAVE
 10
1385.998844503668
 20
-514.3059356537815
 30
0.0
  0
VERTEX
  5
1AD
  8
6MM_ENGRAVE
 10
1359.011591597604
 20
-514.3069676665204
 30
0.0
  0
VERTEX
  5
1AE
  8
6MM_ENGRAVE
 10
1359.011591597604
 20
-504.6669111544434
 30
0.0
  0
VERTEX
  5
1AF
  8
6MM_ENGRAVE
 10
1518.026331507562
 20
-504.6643503162721
 30
0.0
 42
-0.0322204985752376
  0
VERTEX
  5
1B0
  8
6MM_ENGRAVE
 10
1521.04514317332
 20
-499.8351302448606
 30
0.0
 42
-0.0821179232994955
  0
VERTEX
  5
1B1
  8
6MM_ENGRAVE
 10
1527.434355393409
 20
-493.4659460781622
 30
0.0
 42
-0.0626306242163848
  0
VERTEX
  5
1B2
  8
6MM_ENGRAVE
 10
1535.078290570941
 20
-489.3408953486039
 30
0.0
 42
-0.0547908530108519
  0
VERTEX
  5
1B3
  8
6MM_ENGRAVE
 10
1544.663826475605
 20
-486.7879363757124
 30
0.0
  0
VERTEX
  5
1B4
  8
6MM_ENGRAVE
 10
1544.663943816491
 20
-462.5040118044224
 30
0.0
  0
VERTEX
  5
1B5
  8
6MM_ENGRAVE
 10
1554.664068140255
 20
-462.5040054811507
 30
0.0
  0
VERTEX
  5
1B6
  8
6MM_ENGRAVE
 10
1554.66426223697
 20
-486.7852909576382
 30
0.0
 42
-0.0278426556648328
  0
VERTEX
  5
1B7
  8
6MM_ENGRAVE
 10
1563.292674237496
 20
-489.0028618900564
 30
0.0
 42
-0.1017618337576888
  0
VERTEX
  5
1B8
  8
6MM_ENGRAVE
 10
1573.901676852092
 20
-494.9379340004052
 30
0.0
 42
-0.051873531844802
  0
VERTEX
  5
1B9
  8
6MM_ENGRAVE
 10
1577.868175606672
 20
-499.1595026440901
 30
0.0
 42
-0.0462783599981778
  0
VERTEX
  5
1BA
  8
6MM_ENGRAVE
 10
1581.304887361584
 20
-504.6642090864403
 30
0.0
  0
VERTEX
  5
1BB
  8
6MM_ENGRAVE
 10
1611.011979317139
 20
-504.6669111624573
 30
0.0
  0
VERTEX
  5
1BC
  8
6MM_ENGRAVE
 10
1611.011627910759
 20
-514.3069676622903
 30
0.0
  0
SEQEND
  5
1BD
  8
6MM_ENGRAVE
  0
POLYLINE
  5
45
  8
6MM_ENGRAVE
 66
     1
 10
0.0
 20
0.0
 30
0.0
 70
     1
  0
VERTEX
  5
1BE
  8
6MM_ENGRAVE
 10
1610.011664365399
 20
-513.3068970407853
 30
0.0
  0
VERTEX
  5
1BF
  8
6MM_ENGRAVE
 10
1610.01194286706
 20
-505.6668202060073
 30
0.0
  0
VERTEX
  5
1C0
  8
6MM_ENGRAVE
 10
1580.672496828064
 20
-505.6641515700597
 30
0.0
 42
0.0159800910567258
  0
VERTEX
  5
1C1
  8
6MM_ENGRAVE
 10
1578.460988173702
 20
-501.9088757506032
 30
0.0
 42
0.0562566099135111
  0
VERTEX
  5
1C2
  8
6MM_ENGRAVE
 10
1574.683331366014
 20
-497.2045206963724
 30
0.0
 42
0.0846237212758973
  0
VERTEX
  5
1C3
  8
6MM_ENGRAVE
 10
1566.362729273853
 20
-491.3520957515258
 30
0.0
 42
0.072370069687689
  0
VERTEX
  5
1C4
  8
6MM_ENGRAVE
 10
1555.019372555983
 20
-487.8475618724038
 30
0.0
 42
0.0014685943887535
  0
VERTEX
  5
1C5
  8
6MM_ENGRAVE
 10
1554.341921918356
 20
-487.7436347997846
 30
0.0
 42
-0.0004895311500252
  0
VERTEX
  5
1C6
  8
6MM_ENGRAVE
 10
1553.664269077474
 20
-487.6410344582121
 30
0.0
  0
VERTEX
  5
1C7
  8
6MM_ENGRAVE
 10
1553.664076133904
 20
-463.5040061134652
 30
0.0
  0
VERTEX
  5
1C8
  8
6MM_ENGRAVE
 10
1545.663938984466
 20
-463.5040111721064
 30
0.0
  0
VERTEX
  5
1C9
  8
6MM_ENGRAVE
 10
1545.663822338643
 20
-487.6440909583377
 30
0.0
 42
0.0224508948156587
  0
VERTEX
  5
1CA
  8
6MM_ENGRAVE
 10
1537.924003807269
 20
-489.4524645341302
 30
0.0
 42
0.086109950680854
  0
VERTEX
  5
1CB
  8
6MM_ENGRAVE
 10
1528.309577197936
 20
-494.0520006824087
 30
0.0
 42
0.0844904321793277
  0
VERTEX
  5
1CC
  8
6MM_ENGRAVE
 10
1521.747856395199
 20
-500.6294456699039
 30
0.0
 42
0.0326386372831212
  0
VERTEX
  5
1CD
  8
6MM_ENGRAVE
 10
1518.658394546253
 20
-505.6643401374012
 30
0.0
  0
VERTEX
  5
1CE
  8
6MM_ENGRAVE
 10
1360.011591597604
 20
-505.6668950501656
 30
0.0
  0
VERTEX
  5
1CF
  8
6MM_ENGRAVE
 10
1360.011591597604
 20
-513.3069294250413
 30
0.0
  0
VERTEX
  5
1D0
  8
6MM_ENGRAVE
 10
1387.003717734762
 20
-513.3058972259462
 30
0.0
 42
0.02608637500317
  0
VERTEX
  5
1D1
  8
6MM_ENGRAVE
 10
1387.363950314521
 20
-518.865982757789
 30
0.0
 42
0.0884015069490876
  0
VERTEX
  5
1D2
  8
6MM_ENGRAVE
 10
1389.625525822412
 20
-526.3569850175529
 30
0.0
 42
0.1332120357231342
  0
VERTEX
  5
1D3
  8
6MM_ENGRAVE
 10
1399.48062656339
 20
-537.2719610417911
 30
0.0
 42
0.2019894099609983
  0
VERTEX
  5
1D4
  8
6MM_ENGRAVE
 10
1428.993115790799
 20
-542.4262170392441
 30
0.0
 42
0.1475050010074819
  0
VERTEX
  5
1D5
  8
6MM_ENGRAVE
 10
1447.146867203009
 20
-532.0655365033404
 30
0.0
 42
0.1392622647011904
  0
VERTEX
  5
1D6
  8
6MM_ENGRAVE
 10
1453.170849123866
 20
-520.5660428935497
 30
0.0
 42
0.0327879298223147
  0
VERTEX
  5
1D7
  8
6MM_ENGRAVE
 10
1453.504057934665
 20
-518.2057548854831
 30
0.0
 42
0.0159230254558437
  0
VERTEX
  5
1D8
  8
6MM_ENGRAVE
 10
1453.714147343428
 20
-513.3059005352072
 30
0.0
  0
VERTEX
  5
1D9
  8
6MM_ENGRAVE
 10
1516.307181755877
 20
-513.3053252234588
 30
0.0
 42
0.0141285207932194
  0
VERTEX
  5
1DA
  8
6MM_ENGRAVE
 10
1516.608233633266
 20
-518.6630983718187
 30
0.0
 42
0.0529941945625457
  0
VERTEX
  5
1DB
  8
6MM_ENGRAVE
 10
1517.333196760547
 20
-522.4270826905014
 30
0.0
 42
0.1514988659171831
  0
VERTEX
  5
1DC
  8
6MM_ENGRAVE
 10
1525.915679729147
 20
-535.0565573644831
 30
0.0
 42
0.2184151671416249
  0
VERTEX
  5
1DD
  8
6MM_ENGRAVE
 10
1556.828877153702
 20
-542.724278840711
 30
0.0
 42
0.1522620143793361
  0
VERTEX
  5
1DE
  8
6MM_ENGRAVE
 10
1576.083234910867
 20
-532.4753519324807
 30
0.0
 42
0.1443889582537788
  0
VERTEX
  5
1DF
  8
6MM_ENGRAVE
 10
1582.47478161864
 20
-520.5685817653532
 30
0.0
 42
0.0327507267472971
  0
VERTEX
  5
1E0
  8
6MM_ENGRAVE
 10
1582.807933420906
 20
-518.2109440867462
 30
0.0
 42
0.0158674380691993
  0
VERTEX
  5
1E1
  8
6MM_ENGRAVE
 10
1583.019844170534
 20
-513.3049908356415
 30
0.0
  0
SEQEND
  5
1E2
  8
6MM_ENGRAVE
  0
POLYLINE
  5
46
  8
6MM_ENGRAVE
 66
     1
 10
0.0
 20
0.0
 30
0.0
 70
     1
  0
VERTEX
  5
1E3
  8
6MM_ENGRAVE
 10
1524.09514690304
 20
-522.5580345780635
 30
0.0
 42
0.1466254483904966
  0
VERTEX
  5
1E4
  8
6MM_ENGRAVE
 10
1531.645012336445
 20
-532.2255690176321
 30
0.0
 42
0.2128420894279838
  0
VERTEX
  5
1E5
  8
6MM_ENGRAVE
 10
1556.676332939263
 20
-537.2261685245248
 30
0.0
 42
0.1244360773421736
  0
VERTEX
  5
1E6
  8
6MM_ENGRAVE
 10
1569.868156616562
 20
-530.5277138386234
 30
0.0
 42
0.3181963331986492
  0
VERTEX
  5
1E7
  8
6MM_ENGRAVE
 10
1575.282636700372
 20
-508.1325693754425
 30
0.0
 42
0.1470361575216549
  0
VERTEX
  5
1E8
  8
6MM_ENGRAVE
 10
1567.606817266759
 20
-498.461760589942
 30
0.0
 42
0.160230117899874
  0
VERTEX
  5
1E9
  8
6MM_ENGRAVE
 10
1548.992193209995
 20
-492.9036137489388
 30
0.0
 42
0.1537776850612092
  0
VERTEX
  5
1EA
  8
6MM_ENGRAVE
 10
1531.44216920486
 20
-498.9691276740078
 30
0.0
 42
0.1004189785201626
  0
VERTEX
  5
1EB
  8
6MM_ENGRAVE
 10
1525.367224792841
 20
-505.7205825082001
 30
0.0
 42
0.1147824438303635
  0
VERTEX
  5
1EC
  8
6MM_ENGRAVE
 10
1522.802075801863
 20
-513.8978276378496
 30
0.0
 42
0.1122803320216643
  0
SEQEND
  5
1ED
  8
6MM_ENGRAVE
  0
POLYLINE
  5
47
  8
6MM_ENGRAVE
 66
     1
 10
0.0
 20
0.0
 30
0.0
 70
     1
  0
VERTEX
  5
1EE
  8
6MM_ENGRAVE
 10
1526.253603676214
 20
-528.2505103164139
 30
0.0
 42
-0.107131128433849
  0
VERTEX
  5
1EF
  8
6MM_ENGRAVE
 10
1522.404926731822
 20
-519.9417954360722
 30
0.0
 42
-0.2058027477365002
  0
VERTEX
  5
1F0
  8
6MM_ENGRAVE
 10
1525.445248843182
 20
-503.7493878985522
 30
0.0
 42
-0.1224911823373106
  0
VERTEX
  5
1F1
  8
6MM_ENGRAVE
 10
1534.175993774544
 20
-495.849354994068
 30
0.0
 42
-0.1876450616598394
  0
VERTEX
  5
1F2
  8
6MM_ENGRAVE
 10
1557.925475561111
 20
-492.9677019464204
 30
0.0
 42
-0.1426256737875065
  0
VERTEX
  5
1F3
  8
6MM_ENGRAVE
 10
1572.380904311029
 20
-501.5068787874794
 30
0.0
 42
-0.1790259888549752
  0
VERTEX
  5
1F4
  8
6MM_ENGRAVE
 10
1577.644193217676
 20
-513.9701165713996
 30
0.0
 42
-0.0976939326098244
  0
VERTEX
  5
1F5
  8
6MM_ENGRAVE
 10
1576.320178530843
 20
-522.7613598987608
 30
0.0
 42
-0.1013086665316926
  0
VERTEX
  5
1F6
  8
6MM_ENGRAVE
 10
1571.863863264276
 20
-530.0924817321238
 30
0.0
 42
-0.1076356512807227
  0
VERTEX
  5
1F7
  8
6MM_ENGRAVE
 10
1562.798930809724
 20
-536.4044345181865
 30
0.0
 42
-0.1689833701890826
  0
VERTEX
  5
1F8
  8
6MM_ENGRAVE
 10
1540.61948591206
 20
-537.7143617464475
 30
0.0
 42
-0.0768270451363731
  0
VERTEX
  5
1F9
  8
6MM_ENGRAVE
 10
1532.278168404272
 20
-533.8972870098227
 30
0.0
 42
-0.0854686855296568
  0
SEQEND
  5
1FA
  8
6MM_ENGRAVE
  0
POLYLINE
  5
48
  8
6MM_ENGRAVE
 66
     1
 10
0.0
 20
0.0
 30
0.0
 70
     1
  0
VERTEX
  5
1FB
  8
6MM_ENGRAVE
 10
1447.293728211141
 20
-510.903079007213
 30
0.0
  0
VERTEX
  5
1FC
  8
6MM_ENGRAVE
 10
1393.425064878521
 20
-510.9030107603319
 30
0.0
 42
0.0066073238971192
  0
VERTEX
  5
1FD
  8
6MM_ENGRAVE
 10
1393.706957240187
 20
-517.5268766148798
 30
0.0
 42
0.0958663880146461
  0
VERTEX
  5
1FE
  8
6MM_ENGRAVE
 10
1395.303890582366
 20
-523.8629946751076
 30
0.0
 42
0.1299050034442761
  0
VERTEX
  5
1FF
  8
6MM_ENGRAVE
 10
1402.319480418809
 20
-532.2532062648492
 30
0.0
 42
0.1895343845592698
  0
VERTEX
  5
200
  8
6MM_ENGRAVE
 10
1424.47639998493
 20
-537.7083061768848
 30
0.0
 42
0.1446289436788158
  0
VERTEX
  5
201
  8
6MM_ENGRAVE
 10
1440.384956964578
 20
-530.5946452844121
 30
0.0
 42
0.182856009388397
  0
VERTEX
  5
202
  8
6MM_ENGRAVE
 10
1447.090358152274
 20
-518.359060580162
 30
0.0
 42
0.0280924141402931
  0
VERTEX
  5
203
  8
6MM_ENGRAVE
 10
1447.192006938093
 20
-517.1436540360326
 30
0.0
 42
0.0054854513480322
  0
SEQEND
  5
204
  8
6MM_ENGRAVE
  0
POLYLINE
  5
49
  8
6MM_ENGRAVE
 66
     1
 10
0.0
 20
0.0
 30
0.0
 70
     1
  0
VERTEX
  5
205
  8
6MM_ENGRAVE
 10
1392.417156557045
 20
-509.9030094833998
 30
0.0
  0
VERTEX
  5
206
  8
6MM_ENGRAVE
 10
1448.274292326533
 20
-509.9030802495012
 30
0.0
 42
-0.0042421540946627
  0
VERTEX
  5
207
  8
6MM_ENGRAVE
 10
1448.207957815536
 20
-516.5296865191507
 30
0.0
 42
-0.0866567358560073
  0
VERTEX
  5
208
  8
6MM_ENGRAVE
 10
1447.012464703555
 20
-522.7000708002809
 30
0.0
 42
-0.1426874100915662
  0
VERTEX
  5
209
  8
6MM_ENGRAVE
 10
1439.487869028183
 20
-532.6451995995759
 30
0.0
 42
-0.2100643659394022
  0
VERTEX
  5
20A
  8
6MM_ENGRAVE
 10
1414.369632863847
 20
-538.4075848557635
 30
0.0
 42
-0.1219500432883904
  0
VERTEX
  5
20B
  8
6MM_ENGRAVE
 10
1400.522131719835
 20
-532.0350117781992
 30
0.0
 42
-0.1480515781410056
  0
VERTEX
  5
20C
  8
6MM_ENGRAVE
 10
1393.353771587599
 20
-521.620325622077
 30
0.0
 42
-0.0659598018847448
  0
VERTEX
  5
20D
  8
6MM_ENGRAVE
 10
1392.709075423365
 20
-518.0187804995323
 30
0.0
 42
-0.0047234364549453
  0
SEQEND
  5
20E
  8
6MM_ENGRAVE
  0
POLYLINE
  5
4A
  8
6MM_ENGRAVE
 66
     1
 10
0.0
 20
0.0
 30
0.0
 70
     1
  0
VERTEX
  5
20F
  8
6MM_ENGRAVE
 10
1334.0983454968
 20
-420.5647984743763
 30
0.0
 42
0.024078418808765
  0
VERTEX
  5
210
  8
6MM_ENGRAVE
 10
1334.940008476806
 20
-428.3849724061873
 30
0.0
 42
0.0459937936989477
  0
VERTEX
  5
211
  8
6MM_ENGRAVE
 10
1336.983594498694
 20
-436.4799320071934
 30
0.0
 42
0.0760754067307605
  0
VERTEX
  5
212
  8
6MM_ENGRAVE
 10
1344.4755361268
 20
-450.4898967945405
 30
0.0
 42
0.0787836586478805
  0
VERTEX
  5
213
  8
6MM_ENGRAVE
 10
1363.317699995861
 20
-468.7835779365799
 30
0.0
 42
0.0632570747865679
  0
VERTEX
  5
214
  8
6MM_ENGRAVE
 10
1385.705149312033
 20
-480.6398285060168
 30
0.0
 42
0.090833166546644
  0
VERTEX
  5
215
  8
6MM_ENGRAVE
 10
1439.044604203738
 20
-490.3198825409838
 30
0.0
 42
0.0379033897848592
  0
VERTEX
  5
216
  8
6MM_ENGRAVE
 10
1462.555241801895
 20
-488.496200164198
 30
0.0
 42
0.0381700126337746
  0
VERTEX
  5
217
  8
6MM_ENGRAVE
 10
1485.358341142015
 20
-483.1693467553201
 30
0.0
 42
0.0677367650157593
  0
VERTEX
  5
218
  8
6MM_ENGRAVE
 10
1512.365617185784
 20
-470.419964169638
 30
0.0
 42
0.0776483134627619
  0
VERTEX
  5
219
  8
6MM_ENGRAVE
 10
1531.784805465099
 20
-452.9955501032029
 30
0.0
 42
0.0614241437478868
  0
VERTEX
  5
21A
  8
6MM_ENGRAVE
 10
1539.277529340454
 20
-441.092323868812
 30
0.0
 42
0.0676546546543189
  0
VERTEX
  5
21B
  8
6MM_ENGRAVE
 10
1543.103219241158
 20
-428.8983103702069
 30
0.0
 42
0.0136343742294756
  0
VERTEX
  5
21C
  8
6MM_ENGRAVE
 10
1543.47160923604
 20
-426.314822038081
 30
0.0
 42
0.0061577322586876
  0
VERTEX
  5
21D
  8
6MM_ENGRAVE
 10
1544.060202782668
 20
-420.5675470462804
 30
0.0
  0
VERTEX
  5
21E
  8
6MM_ENGRAVE
 10
1530.003612323371
 20
-420.5647984743775
 30
0.0
 42
-0.0206108339859391
  0
VERTEX
  5
21F
  8
6MM_ENGRAVE
 10
1529.392421271138
 20
-426.3172981334811
 30
0.0
 42
-0.0592785039940569
  0
VERTEX
  5
220
  8
6MM_ENGRAVE
 10
1527.112287383646
 20
-434.7031212445661
 30
0.0
 42
-0.0574454132994024
  0
VERTEX
  5
221
  8
6MM_ENGRAVE
 10
1522.481374397182
 20
-443.2068490051481
 30
0.0
 42
-0.046882238184247
  0
VERTEX
  5
222
  8
6MM_ENGRAVE
 10
1514.781963599752
 20
-452.2167661374531
 30
0.0
 42
-0.0147039549152863
  0
VERTEX
  5
223
  8
6MM_ENGRAVE
 10
1513.021861863922
 20
-453.825724049378
 30
0.0
 42
0.00490100435889
  0
VERTEX
  5
224
  8
6MM_ENGRAVE
 10
1511.230558564649
 20
-455.3998702220162
 30
0.0
  0
VERTEX
  5
225
  8
6MM_ENGRAVE
 10
1511.230558564655
 20
-420.5647984743766
 30
0.0
  0
VERTEX
  5
226
  8
6MM_ENGRAVE
 10
1503.230549117571
 20
-420.5647984743766
 30
0.0
  0
VERTEX
  5
227
  8
6MM_ENGRAVE
 10
1503.230549117571
 20
-461.264205998734
 30
0.0
  0
VERTEX
  5
228
  8
6MM_ENGRAVE
 10
1500.585936772776
 20
-462.9049449660717
 30
0.0
 42
-0.0183054540801704
  0
VERTEX
  5
229
  8
6MM_ENGRAVE
 10
1495.818303578764
 20
-465.5047022482216
 30
0.0
 42
-0.0126370392666822
  0
VERTEX
  5
22A
  8
6MM_ENGRAVE
 10
1488.693706056771
 20
-468.835724666181
 30
0.0
  0
VERTEX
  5
22B
  8
6MM_ENGRAVE
 10
1488.693706056779
 20
-420.5647984743766
 30
0.0
  0
VERTEX
  5
22C
  8
6MM_ENGRAVE
 10
1480.693696609701
 20
-420.5647984743766
 30
0.0
  0
VERTEX
  5
22D
  8
6MM_ENGRAVE
 10
1480.693696609704
 20
-471.8358356545061
 30
0.0
 42
-0.0117599100094608
  0
VERTEX
  5
22E
  8
6MM_ENGRAVE
 10
1472.72092163343
 20
-474.1500899814608
 30
0.0
 42
-0.0143003533561402
  0
VERTEX
  5
22F
  8
6MM_ENGRAVE
 10
1466.073823039666
 20
-475.7091889931145
 30
0.0
  0
VERTEX
  5
230
  8
6MM_ENGRAVE
 10
1466.073823039668
 20
-420.5647984743784
 30
0.0
  0
VERTEX
  5
231
  8
6MM_ENGRAVE
 10
1458.073813592589
 20
-420.5647984743766
 30
0.0
  0
VERTEX
  5
232
  8
6MM_ENGRAVE
 10
1458.073813592597
 20
-477.0517691398183
 30
0.0
 42
-0.0126597946395644
  0
VERTEX
  5
233
  8
6MM_ENGRAVE
 10
1450.734437385239
 20
-477.8391670530236
 30
0.0
 42
-0.0122077041656748
  0
VERTEX
  5
234
  8
6MM_ENGRAVE
 10
1443.092164232299
 20
-478.2763440066175
 30
0.0
  0
VERTEX
  5
235
  8
6MM_ENGRAVE
 10
1443.092164232301
 20
-420.5647984743775
 30
0.0
  0
VERTEX
  5
236
  8
6MM_ENGRAVE
 10
1435.092154785226
 20
-420.5647984743775
 30
0.0
  0
VERTEX
  5
237
  8
6MM_ENGRAVE
 10
1435.092154785226
 20
-478.2776668874587
 30
0.0
 42
-0.0120740058954379
  0
VERTEX
  5
238
  8
6MM_ENGRAVE
 10
1427.369449774661
 20
-477.8393411956876
 30
0.0
 42
-0.0127934948588188
  0
VERTEX
  5
239
  8
6MM_ENGRAVE
 10
1420.110505424928
 20
-477.063843960924
 30
0.0
  0
VERTEX
  5
23A
  8
6MM_ENGRAVE
 10
1420.110505424932
 20
-420.5647984743775
 30
0.0
  0
VERTEX
  5
23B
  8
6MM_ENGRAVE
 10
1412.110495977858
 20
-420.5647984743775
 30
0.0
  0
VERTEX
  5
23C
  8
6MM_ENGRAVE
 10
1412.110495977857
 20
-475.7240455085159
 30
0.0
 42
-0.0140879628480151
  0
VERTEX
  5
23D
  8
6MM_ENGRAVE
 10
1405.382719776758
 20
-474.1510465415276
 30
0.0
 42
-0.0119722875564945
  0
VERTEX
  5
23E
  8
6MM_ENGRAVE
 10
1397.573652917057
 20
-471.8903036569556
 30
0.0
  0
VERTEX
  5
23F
  8
6MM_ENGRAVE
 10
1397.573652917059
 20
-420.5647984743757
 30
0.0
  0
VERTEX
  5
240
  8
6MM_ENGRAVE
 10
1389.573643469986
 20
-420.5647984743757
 30
0.0
  0
VERTEX
  5
241
  8
6MM_ENGRAVE
 10
1389.573643469983
 20
-468.9039027958053
 30
0.0
 42
-0.0124709653280615
  0
VERTEX
  5
242
  8
6MM_ENGRAVE
 10
1382.282573690223
 20
-465.4999646377075
 30
0.0
 42
-0.018499242080011
  0
VERTEX
  5
243
  8
6MM_ENGRAVE
 10
1377.517983384225
 20
-462.9049449660717
 30
0.0
  0
VERTEX
  5
244
  8
6MM_ENGRAVE
 10
1374.799570382793
 20
-461.2184194722524
 30
0.0
  0
VERTEX
  5
245
  8
6MM_ENGRAVE
 10
1374.799570382788
 20
-420.5647984743757
 30
0.0
  0
VERTEX
  5
246
  8
6MM_ENGRAVE
 10
1366.799560935715
 20
-420.5647984743757
 30
0.0
  0
VERTEX
  5
247
  8
6MM_ENGRAVE
 10
1366.799560935717
 20
-455.3387590298036
 30
0.0
 42
-0.0152754209396949
  0
VERTEX
  5
248
  8
6MM_ENGRAVE
 10
1361.536572448393
 20
-450.3220708902421
 30
0.0
 42
-0.0339426562480925
  0
VERTEX
  5
249
  8
6MM_ENGRAVE
 10
1356.972085362092
 20
-445.02176653598
 30
0.0
 42
-0.0627277026912915
  0
VERTEX
  5
24A
  8
6MM_ENGRAVE
 10
1350.994832286285
 20
-434.5286941089369
 30
0.0
 42
-0.0707832123184367
  0
VERTEX
  5
24B
  8
6MM_ENGRAVE
 10
1348.33215748152
 20
-424.1516226350029
 30
0.0
 42
-0.0169865709498973
  0
VERTEX
  5
24C
  8
6MM_ENGRAVE
 10
1348.195924461694
 20
-422.3595232613822
 30
0.0
 42
0.0056617063085762
  0
VERTEX
  5
24D
  8
6MM_ENGRAVE
 10
1348.100307833779
 20
-420.5647984743775
 30
0.0
  0
SEQEND
  5
24E
  8
6MM_ENGRAVE
  0
ENDSEC
  0
EOF
