  0
SECTION
  2
HEADER
  9
$ACADVER
  1
AC1009
  9
$DWGCODEPAGE
  3
ansi_1252
  9
$INSBASE
 10
0.0
 20
0.0
 30
0.0
  9
$EXTMIN
 10
-1890.41326533828
 20
917.6314421977429
 30
0.0
  9
$EXTMAX
 10
-1769.396691752454
 20
1037.725924792002
 30
0.0
  9
$LIMMIN
 10
0.0
 20
0.0
  9
$LIMMAX
 10
12.0
 20
9.0
  9
$ORTHOMODE
 70
     0
  9
$REGENMODE
 70
     1
  9
$FILLMODE
 70
     1
  9
$QTEXTMODE
 70
     0
  9
$MIRRTEXT
 70
     1
  9
$DRAGMODE
 70
     2
  9
$LTSCALE
 40
1.0
  9
$OSMODE
 70
    37
  9
$ATTMODE
 70
     1
  9
$TEXTSIZE
 40
0.2
  9
$TRACEWID
 40
0.05
  9
$TEXTSTYLE
  7
STANDARD
  9
$CLAYER
  8
0
  9
$CELTYPE
  6
BYLAYER
  9
$CECOLOR
 62
   256
  9
$DIMSCALE
 40
1.0
  9
$DIMASZ
 40
0.18
  9
$DIMEXO
 40
0.0625
  9
$DIMDLI
 40
0.38
  9
$DIMRND
 40
0.0
  9
$DIMDLE
 40
0.0
  9
$DIMEXE
 40
0.18
  9
$DIMTP
 40
0.0
  9
$DIMTM
 40
0.0
  9
$DIMTXT
 40
0.18
  9
$DIMCEN
 40
0.09
  9
$DIMTSZ
 40
0.0
  9
$DIMTOL
 70
     0
  9
$DIMLIM
 70
     0
  9
$DIMTIH
 70
     1
  9
$DIMTOH
 70
     1
  9
$DIMSE1
 70
     0
  9
$DIMSE2
 70
     0
  9
$DIMTAD
 70
     0
  9
$DIMZIN
 70
     0
  9
$DIMBLK
  1

  9
$DIMASO
 70
     1
  9
$DIMSHO
 70
     1
  9
$DIMPOST
  1

  9
$DIMAPOST
  1

  9
$DIMALT
 70
     0
  9
$DIMALTD
 70
     2
  9
$DIMALTF
 40
25.4
  9
$DIMLFAC
 40
1.0
  9
$DIMTOFL
 70
     0
  9
$DIMTVP
 40
0.0
  9
$DIMTIX
 70
     0
  9
$DIMSOXD
 70
     0
  9
$DIMSAH
 70
     0
  9
$DIMBLK1
  1

  9
$DIMBLK2
  1

  9
$DIMSTYLE
  2
STANDARD
  9
$DIMCLRD
 70
     0
  9
$DIMCLRE
 70
     0
  9
$DIMCLRT
 70
     0
  9
$DIMTFAC
 40
1.0
  9
$DIMGAP
 40
0.09
  9
$LUNITS
 70
     2
  9
$LUPREC
 70
     4
  9
$SKETCHINC
 40
0.1
  9
$FILLETRAD
 40
0.5
  9
$AUNITS
 70
     0
  9
$AUPREC
 70
     0
  9
$MENU
  1
.
  9
$ELEVATION
 40
0.0
  9
$PELEVATION
 40
0.0
  9
$THICKNESS
 40
0.0
  9
$LIMCHECK
 70
     0
  9
$CHAMFERA
 40
0.5
  9
$CHAMFERB
 40
0.5
  9
$SKPOLY
 70
     0
  9
$TDCREATE
 40
2454910.5
  9
$TDUPDATE
 40
2458439.502634259
  9
$TDINDWG
 40
0.0000000116
  9
$TDUSRTIMER
 40
0.0000000116
  9
$USRTIMER
 70
     1
  9
$ANGBASE
 50
0.0
  9
$ANGDIR
 70
     0
  9
$PDMODE
 70
     0
  9
$PDSIZE
 40
0.0
  9
$PLINEWID
 40
0.0
  9
$COORDS
 70
     1
  9
$SPLFRAME
 70
     0
  9
$SPLINETYPE
 70
     6
  9
$SPLINESEGS
 70
     8
  9
$ATTDIA
 70
     0
  9
$ATTREQ
 70
     1
  9
$HANDLING
 70
     1
  9
$HANDSEED
  5
175
  9
$SURFTAB1
 70
     6
  9
$SURFTAB2
 70
     6
  9
$SURFTYPE
 70
     6
  9
$SURFU
 70
     6
  9
$SURFV
 70
     6
  9
$UCSNAME
  2

  9
$UCSORG
 10
0.0
 20
0.0
 30
0.0
  9
$UCSXDIR
 10
1.0
 20
0.0
 30
0.0
  9
$UCSYDIR
 10
0.0
 20
1.0
 30
0.0
  9
$PUCSNAME
  2

  9
$PUCSORG
 10
0.0
 20
0.0
 30
0.0
  9
$PUCSXDIR
 10
1.0
 20
0.0
 30
0.0
  9
$PUCSYDIR
 10
0.0
 20
1.0
 30
0.0
  9
$USERI1
 70
     0
  9
$USERI2
 70
     0
  9
$USERI3
 70
     0
  9
$USERI4
 70
     0
  9
$USERI5
 70
     0
  9
$USERR1
 40
0.0
  9
$USERR2
 40
0.0
  9
$USERR3
 40
0.0
  9
$USERR4
 40
0.0
  9
$USERR5
 40
0.0
  9
$WORLDVIEW
 70
     1
  9
$SHADEDGE
 70
     3
  9
$SHADEDIF
 70
    70
  9
$TILEMODE
 70
     1
  9
$MAXACTVP
 70
    64
  9
$PLIMCHECK
 70
     0
  9
$PEXTMIN
 10
1.000000000000000E+20
 20
1.000000000000000E+20
 30
1.000000000000000E+20
  9
$PEXTMAX
 10
-1.000000000000000E+20
 20
-1.000000000000000E+20
 30
-1.000000000000000E+20
  9
$PLIMMIN
 10
0.0
 20
0.0
  9
$PLIMMAX
 10
12.0
 20
9.0
  9
$UNITMODE
 70
     0
  9
$VISRETAIN
 70
     1
  9
$PLINEGEN
 70
     0
  9
$PSLTSCALE
 70
     1
  0
ENDSEC
  0
SECTION
  2
TABLES
  0
TABLE
  2
VPORT
 70
     1
  0
VPORT
  2
*ACTIVE
 70
     0
 10
0.0
 20
0.0
 11
1.0
 21
1.0
 12
10.42990654205607
 22
4.5
 13
0.0
 23
0.0
 14
0.5
 24
0.5
 15
0.5
 25
0.5
 16
0.0
 26
0.0
 36
1.0
 17
0.0
 27
0.0
 37
0.0
 40
9.0
 41
1.972972972850329
 42
50.0
 43
0.0
 44
0.0
 50
0.0
 51
0.0
 71
     0
 72
   100
 73
     1
 74
     3
 75
     0
 76
     0
 77
     0
 78
     0
  0
ENDTAB
  0
TABLE
  2
LTYPE
 70
     2
  0
LTYPE
  2
CONTINUOUS
 70
     0
  3
Solid line
 72
    65
 73
     0
 40
0.0
  0
LTYPE
  2
CONTINUOUS2
 70
     0
  3
Solid Line
 72
    65
 73
     0
 40
0.0
  0
ENDTAB
  0
TABLE
  2
LAYER
 70
     2
  0
LAYER
  2
0
 70
     0
 62
     7
  6
CONTINUOUS
  0
LAYER
  2
6MM_ENGRAVE
 70
     0
 62
   245
  6
CONTINUOUS
  0
ENDTAB
  0
TABLE
  2
STYLE
 70
     1
  0
STYLE
  2
STANDARD
 70
     0
 40
0.0
 41
1.0
 50
0.0
 71
     0
 42
0.2
  3
txt
  4

  0
ENDTAB
  0
TABLE
  2
VIEW
 70
     0
  0
ENDTAB
  0
TABLE
  2
UCS
 70
     0
  0
ENDTAB
  0
TABLE
  2
APPID
 70
     1
  0
APPID
  2
ACAD
 70
     0
  0
ENDTAB
  0
TABLE
  2
DIMSTYLE
 70
     1
  0
DIMSTYLE
  2
STANDARD
 70
     0
  3

  4

  5

  6

  7

 40
1.0
 41
0.18
 42
0.0625
 43
0.38
 44
0.18
 45
0.0
 46
0.0
 47
0.0
 48
0.0
140
0.18
141
0.09
142
0.0
143
25.4
144
1.0
145
0.0
146
1.0
147
0.09
 71
     0
 72
     0
 73
     1
 74
     1
 75
     0
 76
     0
 77
     0
 78
     0
170
     0
171
     2
172
     0
173
     0
174
     0
175
     0
176
     0
177
     0
178
     0
  0
ENDTAB
  0
ENDSEC
  0
SECTION
  2
BLOCKS
  0
BLOCK
  8
0
  2
$MODEL_SPACE
 70
     0
 10
0.0
 20
0.0
 30
0.0
  3
$MODEL_SPACE
  1

  0
ENDBLK
  5
21
  8
0
  0
BLOCK
 67
     1
  8
0
  2
$PAPER_SPACE
 70
     0
 10
0.0
 20
0.0
 30
0.0
  3
$PAPER_SPACE
  1

  0
ENDBLK
  5
1D
 67
     1
  8
0
  0
ENDSEC
  0
SECTION
  2
ENTITIES
  0
POLYLINE
  5
41
  8
6MM_ENGRAVE
 66
     1
 10
0.0
 20
0.0
 30
0.0
 70
     1
  0
VERTEX
  5
47
  8
6MM_ENGRAVE
 10
-1889.759972336045
 20
1018.13789740408
 30
0.0
  0
VERTEX
  5
48
  8
6MM_ENGRAVE
 10
-1889.45340401171
 20
1017.396528448951
 30
0.0
  0
VERTEX
  5
49
  8
6MM_ENGRAVE
 10
-1889.041358629556
 20
1016.631293836145
 30
0.0
  0
VERTEX
  5
4A
  8
6MM_ENGRAVE
 10
-1888.516008847638
 20
1015.875814589999
 30
0.0
  0
VERTEX
  5
4B
  8
6MM_ENGRAVE
 10
-1887.887125751156
 20
1015.171313214257
 30
0.0
  0
VERTEX
  5
4C
  8
6MM_ENGRAVE
 10
-1887.183123856882
 20
1014.554421101372
 30
0.0
  0
VERTEX
  5
4D
  8
6MM_ENGRAVE
 10
-1886.442946202723
 20
1014.045849527086
 30
0.0
  0
VERTEX
  5
4E
  8
6MM_ENGRAVE
 10
-1885.703442525729
 20
1013.647065386082
 30
0.0
  0
VERTEX
  5
4F
  8
6MM_ENGRAVE
 10
-1884.990160090638
 20
1013.345321726265
 30
0.0
  0
VERTEX
  5
50
  8
6MM_ENGRAVE
 10
-1884.315117505262
 20
1013.121693893352
 30
0.0
  0
VERTEX
  5
51
  8
6MM_ENGRAVE
 10
-1883.679566013159
 20
1012.957298537946
 30
0.0
  0
VERTEX
  5
52
  8
6MM_ENGRAVE
 10
-1883.024366340056
 20
1012.825493590935
 30
0.0
  0
VERTEX
  5
53
  8
6MM_ENGRAVE
 10
-1881.96075790475
 20
1012.679755227551
 30
0.0
  0
VERTEX
  5
54
  8
6MM_ENGRAVE
 10
-1881.890749382863
 20
1012.674112602463
 30
0.0
  0
VERTEX
  5
55
  8
6MM_ENGRAVE
 10
-1882.300758032947
 20
1011.668378722392
 30
0.0
  0
VERTEX
  5
56
  8
6MM_ENGRAVE
 10
-1882.595446452065
 20
1010.657906371645
 30
0.0
  0
VERTEX
  5
57
  8
6MM_ENGRAVE
 10
-1882.788190534518
 20
1009.658346907625
 30
0.0
  0
VERTEX
  5
58
  8
6MM_ENGRAVE
 10
-1882.894075441572
 20
1008.67510966101
 30
0.0
  0
VERTEX
  5
59
  8
6MM_ENGRAVE
 10
-1882.927173248381
 20
1007.689245666705
 30
0.0
  0
VERTEX
  5
5A
  8
6MM_ENGRAVE
 10
-1882.892581257348
 20
1006.776139154197
 30
0.0
  0
VERTEX
  5
5B
  8
6MM_ENGRAVE
 10
-1882.785042945995
 20
1005.854409617412
 30
0.0
  0
VERTEX
  5
5C
  8
6MM_ENGRAVE
 10
-1882.601835449186
 20
1004.939594388128
 30
0.0
  0
VERTEX
  5
5D
  8
6MM_ENGRAVE
 10
-1882.339836435432
 20
1004.036950106227
 30
0.0
  0
VERTEX
  5
5E
  8
6MM_ENGRAVE
 10
-1881.996199193491
 20
1003.152901153833
 30
0.0
  0
VERTEX
  5
5F
  8
6MM_ENGRAVE
 10
-1881.568699474004
 20
1002.295161120159
 30
0.0
  0
VERTEX
  5
60
  8
6MM_ENGRAVE
 10
-1881.056178351061
 20
1001.472756650543
 30
0.0
  0
VERTEX
  5
61
  8
6MM_ENGRAVE
 10
-1880.459050749328
 20
1000.695894135805
 30
0.0
  0
VERTEX
  5
62
  8
6MM_ENGRAVE
 10
-1879.77981272744
 20
999.9756160161191
 30
0.0
  0
VERTEX
  5
63
  8
6MM_ENGRAVE
 10
-1879.567468330401
 20
999.7924620532954
 30
0.0
  0
VERTEX
  5
64
  8
6MM_ENGRAVE
 10
-1879.668132539751
 20
999.7043343884343
 30
0.0
  0
VERTEX
  5
65
  8
6MM_ENGRAVE
 10
-1880.290355793584
 20
999.0468974094547
 30
0.0
  0
VERTEX
  5
66
  8
6MM_ENGRAVE
 10
-1880.839181635447
 20
998.3534933368101
 30
0.0
  0
VERTEX
  5
67
  8
6MM_ENGRAVE
 10
-1881.319862523409
 20
997.6285956970096
 30
0.0
  0
VERTEX
  5
68
  8
6MM_ENGRAVE
 10
-1881.736313290934
 20
996.8749174818731
 30
0.0
  0
VERTEX
  5
69
  8
6MM_ENGRAVE
 10
-1882.09098341738
 20
996.0940827815175
 30
0.0
  0
VERTEX
  5
6A
  8
6MM_ENGRAVE
 10
-1882.384877194274
 20
995.2871466009892
 30
0.0
  0
VERTEX
  5
6B
  8
6MM_ENGRAVE
 10
-1882.617643711268
 20
994.4550058655404
 30
0.0
  0
VERTEX
  5
6C
  8
6MM_ENGRAVE
 10
-1882.787702576521
 20
993.5987457210031
 30
0.0
  0
VERTEX
  5
6D
  8
6MM_ENGRAVE
 10
-1882.892400779291
 20
992.7199533414314
 30
0.0
  0
VERTEX
  5
6E
  8
6MM_ENGRAVE
 10
-1882.926080690466
 20
991.8745482715058
 30
0.0
  0
VERTEX
  5
6F
  8
6MM_ENGRAVE
 10
-1882.905689806548
 20
990.9794255541347
 30
0.0
  0
VERTEX
  5
70
  8
6MM_ENGRAVE
 10
-1882.83994278849
 20
990.118728696958
 30
0.0
  0
VERTEX
  5
71
  8
6MM_ENGRAVE
 10
-1882.711752076667
 20
989.2229953171409
 30
0.0
  0
VERTEX
  5
72
  8
6MM_ENGRAVE
 10
-1882.500100727784
 20
988.2865633981964
 30
0.0
  0
VERTEX
  5
73
  8
6MM_ENGRAVE
 10
-1882.179971437792
 20
987.3136402758264
 30
0.0
  0
VERTEX
  5
74
  8
6MM_ENGRAVE
 10
-1881.727401672054
 20
986.323920727621
 30
0.0
  0
VERTEX
  5
75
  8
6MM_ENGRAVE
 10
-1881.128962270058
 20
985.3546516274391
 30
0.0
  0
VERTEX
  5
76
  8
6MM_ENGRAVE
 10
-1880.391986668081
 20
984.4541332756821
 30
0.0
  0
VERTEX
  5
77
  8
6MM_ENGRAVE
 10
-1879.599827205292
 20
983.7153784862523
 30
0.0
  0
VERTEX
  5
78
  8
6MM_ENGRAVE
 10
-1879.785258414606
 20
983.5531897703877
 30
0.0
  0
VERTEX
  5
79
  8
6MM_ENGRAVE
 10
-1880.230124900758
 20
983.109256214655
 30
0.0
  0
VERTEX
  5
7A
  8
6MM_ENGRAVE
 10
-1880.646172759221
 20
982.6346120742164
 30
0.0
  0
VERTEX
  5
7B
  8
6MM_ENGRAVE
 10
-1881.0291894769
 20
982.1335415639442
 30
0.0
  0
VERTEX
  5
7C
  8
6MM_ENGRAVE
 10
-1881.375976103691
 20
981.6111247154549
 30
0.0
  0
VERTEX
  5
7D
  8
6MM_ENGRAVE
 10
-1881.730845915188
 20
980.992098894767
 30
0.0
  0
VERTEX
  5
7E
  8
6MM_ENGRAVE
 10
-1882.190380239901
 20
979.9790578643169
 30
0.0
  0
VERTEX
  5
7F
  8
6MM_ENGRAVE
 10
-1882.543942764536
 20
978.8704458797911
 30
0.0
  0
VERTEX
  5
80
  8
6MM_ENGRAVE
 10
-1882.769923474062
 20
977.7792463418118
 30
0.0
  0
VERTEX
  5
81
  8
6MM_ENGRAVE
 10
-1882.890673427341
 20
976.7156423201268
 30
0.0
  0
VERTEX
  5
82
  8
6MM_ENGRAVE
 10
-1882.926988498807
 20
975.6709136683894
 30
0.0
  0
VERTEX
  5
83
  8
6MM_ENGRAVE
 10
-1882.893012302784
 20
974.6950427183328
 30
0.0
  0
VERTEX
  5
84
  8
6MM_ENGRAVE
 10
-1882.783156207227
 20
973.7085203613824
 30
0.0
  0
VERTEX
  5
85
  8
6MM_ENGRAVE
 10
-1882.584026388326
 20
972.7068159116352
 30
0.0
  0
VERTEX
  5
86
  8
6MM_ENGRAVE
 10
-1882.281244461981
 20
971.6966503685999
 30
0.0
  0
VERTEX
  5
87
  8
6MM_ENGRAVE
 10
-1881.861564342998
 20
970.6919468576107
 30
0.0
  0
VERTEX
  5
88
  8
6MM_ENGRAVE
 10
-1881.316474060102
 20
969.7143858147265
 30
0.0
  0
VERTEX
  5
89
  8
6MM_ENGRAVE
 10
-1880.646189790578
 20
968.7915312293235
 30
0.0
  0
VERTEX
  5
8A
  8
6MM_ENGRAVE
 10
-1879.862171887021
 20
967.952142654392
 30
0.0
  0
VERTEX
  5
8B
  8
6MM_ENGRAVE
 10
-1879.56459386819
 20
967.7034069774444
 30
0.0
  0
VERTEX
  5
8C
  8
6MM_ENGRAVE
 10
-1879.821741719092
 20
967.4753315274374
 30
0.0
  0
VERTEX
  5
8D
  8
6MM_ENGRAVE
 10
-1880.573105635169
 20
966.6418696353212
 30
0.0
  0
VERTEX
  5
8E
  8
6MM_ENGRAVE
 10
-1881.224741949878
 20
965.7342239916343
 30
0.0
  0
VERTEX
  5
8F
  8
6MM_ENGRAVE
 10
-1881.76926058753
 20
964.7695973825321
 30
0.0
  0
VERTEX
  5
90
  8
6MM_ENGRAVE
 10
-1882.204300717723
 20
963.7651020326084
 30
0.0
  0
VERTEX
  5
91
  8
6MM_ENGRAVE
 10
-1882.531852285883
 20
962.7359884003672
 30
0.0
  0
VERTEX
  5
92
  8
6MM_ENGRAVE
 10
-1882.757008365651
 20
961.6945573336707
 30
0.0
  0
VERTEX
  5
93
  8
6MM_ENGRAVE
 10
-1882.886584822103
 20
960.6498116742623
 30
0.0
  0
VERTEX
  5
94
  8
6MM_ENGRAVE
 10
-1882.928528948946
 20
959.5926684853366
 30
0.0
  0
VERTEX
  5
95
  8
6MM_ENGRAVE
 10
-1882.883455787961
 20
958.5553899480547
 30
0.0
  0
VERTEX
  5
96
  8
6MM_ENGRAVE
 10
-1882.740266604167
 20
957.5038245400174
 30
0.0
  0
VERTEX
  5
97
  8
6MM_ENGRAVE
 10
-1882.490520948064
 20
956.4543302211041
 30
0.0
  0
VERTEX
  5
98
  8
6MM_ENGRAVE
 10
-1882.127441150291
 20
955.4205815637742
 30
0.0
  0
VERTEX
  5
99
  8
6MM_ENGRAVE
 10
-1881.818467495448
 20
954.7757204569826
 30
0.0
  0
VERTEX
  5
9A
  8
6MM_ENGRAVE
 10
-1890.41326533828
 20
954.5947268905705
 30
0.0
  0
VERTEX
  5
9B
  8
6MM_ENGRAVE
 10
-1890.41326533828
 20
928.3575842364638
 30
0.0
  0
VERTEX
  5
9C
  8
6MM_ENGRAVE
 10
-1859.418693595309
 20
917.6314421977429
 30
0.0
  0
VERTEX
  5
9D
  8
6MM_ENGRAVE
 10
-1789.226820417108
 20
924.0890592076205
 30
0.0
  0
VERTEX
  5
9E
  8
6MM_ENGRAVE
 10
-1787.521329644114
 20
924.1112166196472
 30
0.0
  0
VERTEX
  5
9F
  8
6MM_ENGRAVE
 10
-1786.723848394608
 20
924.1446643643546
 30
0.0
  0
VERTEX
  5
A0
  8
6MM_ENGRAVE
 10
-1785.750657746408
 20
924.2613529942273
 30
0.0
  0
VERTEX
  5
A1
  8
6MM_ENGRAVE
 10
-1784.620048242224
 20
924.5282358729332
 30
0.0
  0
VERTEX
  5
A2
  8
6MM_ENGRAVE
 10
-1783.484931768158
 20
924.9938112119944
 30
0.0
  0
VERTEX
  5
A3
  8
6MM_ENGRAVE
 10
-1782.689954606658
 20
925.4691278554747
 30
0.0
  0
VERTEX
  5
A4
  8
6MM_ENGRAVE
 10
-1782.033565227561
 20
925.9692079234283
 30
0.0
  0
VERTEX
  5
A5
  8
6MM_ENGRAVE
 10
-1781.592319500879
 20
926.3961140673157
 30
0.0
  0
VERTEX
  5
A6
  8
6MM_ENGRAVE
 10
-1781.166031814248
 20
926.4255909932215
 30
0.0
  0
VERTEX
  5
A7
  8
6MM_ENGRAVE
 10
-1780.296120826346
 20
926.5419760616614
 30
0.0
  0
VERTEX
  5
A8
  8
6MM_ENGRAVE
 10
-1779.315625830095
 20
926.7624450006274
 30
0.0
  0
VERTEX
  5
A9
  8
6MM_ENGRAVE
 10
-1778.115233675595
 20
927.2006803246804
 30
0.0
  0
VERTEX
  5
AA
  8
6MM_ENGRAVE
 10
-1776.825441527447
 20
927.9920575381675
 30
0.0
  0
VERTEX
  5
AB
  8
6MM_ENGRAVE
 10
-1775.84635695084
 20
928.954068920897
 30
0.0
  0
VERTEX
  5
AC
  8
6MM_ENGRAVE
 10
-1775.568927914678
 20
929.3625362273058
 30
0.0
  0
VERTEX
  5
AD
  8
6MM_ENGRAVE
 10
-1775.447260573297
 20
929.4251759821427
 30
0.0
  0
VERTEX
  5
AE
  8
6MM_ENGRAVE
 10
-1774.655173619562
 20
929.943308544829
 30
0.0
  0
VERTEX
  5
AF
  8
6MM_ENGRAVE
 10
-1773.961537872005
 20
930.4901004462827
 30
0.0
  0
VERTEX
  5
B0
  8
6MM_ENGRAVE
 10
-1773.344620544514
 20
931.0579767504023
 30
0.0
  0
VERTEX
  5
B1
  8
6MM_ENGRAVE
 10
-1772.788640182265
 20
931.644018767809
 30
0.0
  0
VERTEX
  5
B2
  8
6MM_ENGRAVE
 10
-1772.282612546329
 20
932.2475824707471
 30
0.0
  0
VERTEX
  5
B3
  8
6MM_ENGRAVE
 10
-1771.819155831221
 20
932.8691663088284
 30
0.0
  0
VERTEX
  5
B4
  8
6MM_ENGRAVE
 10
-1771.393548766904
 20
933.5099665932721
 30
0.0
  0
VERTEX
  5
B5
  8
6MM_ENGRAVE
 10
-1771.003078829464
 20
934.1718078043195
 30
0.0
  0
VERTEX
  5
B6
  8
6MM_ENGRAVE
 10
-1770.646655153785
 20
934.8572914713259
 30
0.0
  0
VERTEX
  5
B7
  8
6MM_ENGRAVE
 10
-1770.324669036661
 20
935.5700924478515
 30
0.0
  0
VERTEX
  5
B8
  8
6MM_ENGRAVE
 10
-1770.039121875137
 20
936.3153689373212
 30
0.0
  0
VERTEX
  5
B9
  8
6MM_ENGRAVE
 10
-1769.794095913641
 20
937.1002499967653
 30
0.0
  0
VERTEX
  5
BA
  8
6MM_ENGRAVE
 10
-1769.596716707761
 20
937.9343048645242
 30
0.0
  0
VERTEX
  5
BB
  8
6MM_ENGRAVE
 10
-1769.458835380619
 20
938.8297258953244
 30
0.0
  0
VERTEX
  5
BC
  8
6MM_ENGRAVE
 10
-1769.396691752454
 20
939.8493556655103
 30
0.0
  0
VERTEX
  5
BD
  8
6MM_ENGRAVE
 10
-1769.463151308195
 20
940.9021056479469
 30
0.0
  0
VERTEX
  5
BE
  8
6MM_ENGRAVE
 10
-1769.643515304529
 20
941.8799287618676
 30
0.0
  0
VERTEX
  5
BF
  8
6MM_ENGRAVE
 10
-1769.886156580557
 20
942.7381129879432
 30
0.0
  0
VERTEX
  5
C0
  8
6MM_ENGRAVE
 10
-1770.170920833534
 20
943.516051686227
 30
0.0
  0
VERTEX
  5
C1
  8
6MM_ENGRAVE
 10
-1770.488851665294
 20
944.2391265388433
 30
0.0
  0
VERTEX
  5
C2
  8
6MM_ENGRAVE
 10
-1770.835995039033
 20
944.923175680884
 30
0.0
  0
VERTEX
  5
C3
  8
6MM_ENGRAVE
 10
-1771.210839027835
 20
945.5779586345452
 30
0.0
  0
VERTEX
  5
C4
  8
6MM_ENGRAVE
 10
-1771.61339574337
 20
946.2095010072808
 30
0.0
  0
VERTEX
  5
C5
  8
6MM_ENGRAVE
 10
-1772.045090086282
 20
946.8216544830047
 30
0.0
  0
VERTEX
  5
C6
  8
6MM_ENGRAVE
 10
-1772.509164617013
 20
947.4171651427696
 30
0.0
  0
VERTEX
  5
C7
  8
6MM_ENGRAVE
 10
-1773.011591087252
 20
947.998424041507
 30
0.0
  0
VERTEX
  5
C8
  8
6MM_ENGRAVE
 10
-1773.562688528435
 20
948.5679362536248
 30
0.0
  0
VERTEX
  5
C9
  8
6MM_ENGRAVE
 10
-1774.179881561614
 20
949.1283098468098
 30
0.0
  0
VERTEX
  5
CA
  8
6MM_ENGRAVE
 10
-1774.892303664255
 20
949.6810082633251
 30
0.0
  0
VERTEX
  5
CB
  8
6MM_ENGRAVE
 10
-1775.7479272679
 20
950.2216503926936
 30
0.0
  0
VERTEX
  5
CC
  8
6MM_ENGRAVE
 10
-1775.895172052853
 20
950.2908351066638
 30
0.0
  0
VERTEX
  5
CD
  8
6MM_ENGRAVE
 10
-1776.38571701202
 20
950.8802014923494
 30
0.0
  0
VERTEX
  5
CE
  8
6MM_ENGRAVE
 10
-1777.108716592339
 20
951.5588471258541
 30
0.0
  0
VERTEX
  5
CF
  8
6MM_ENGRAVE
 10
-1778.197931208479
 20
952.2856817445847
 30
0.0
  0
VERTEX
  5
D0
  8
6MM_ENGRAVE
 10
-1779.356987553087
 20
952.7873900505845
 30
0.0
  0
VERTEX
  5
D1
  8
6MM_ENGRAVE
 10
-1780.398045006824
 20
953.0765826073431
 30
0.0
  0
VERTEX
  5
D2
  8
6MM_ENGRAVE
 10
-1781.342474142421
 20
953.2355410735056
 30
0.0
  0
VERTEX
  5
D3
  8
6MM_ENGRAVE
 10
-1782.224676356311
 20
953.3126685756837
 30
0.0
  0
VERTEX
  5
D4
  8
6MM_ENGRAVE
 10
-1782.29372457225
 20
953.3144386577854
 30
0.0
  0
VERTEX
  5
D5
  8
6MM_ENGRAVE
 10
-1782.666081881936
 20
953.596141743064
 30
0.0
  0
VERTEX
  5
D6
  8
6MM_ENGRAVE
 10
-1783.654387992313
 20
954.1021221935529
 30
0.0
  0
VERTEX
  5
D7
  8
6MM_ENGRAVE
 10
-1784.510638169114
 20
954.4072355494153
 30
0.0
  0
VERTEX
  5
D8
  8
6MM_ENGRAVE
 10
-1785.254760406941
 20
954.595139347701
 30
0.0
  0
VERTEX
  5
D9
  8
6MM_ENGRAVE
 10
-1785.928052933119
 20
954.7168905551089
 30
0.0
  0
VERTEX
  5
DA
  8
6MM_ENGRAVE
 10
-1786.612002567304
 20
954.8058280883927
 30
0.0
  0
VERTEX
  5
DB
  8
6MM_ENGRAVE
 10
-1787.858922063093
 20
954.9042248212163
 30
0.0
  0
VERTEX
  5
DC
  8
6MM_ENGRAVE
 10
-1788.267052823439
 20
954.9200001881183
 30
0.0
  0
VERTEX
  5
DD
  8
6MM_ENGRAVE
 10
-1787.976476359928
 20
955.5190862576892
 30
0.0
  0
VERTEX
  5
DE
  8
6MM_ENGRAVE
 10
-1787.60784179139
 20
956.5382213123012
 30
0.0
  0
VERTEX
  5
DF
  8
6MM_ENGRAVE
 10
-1787.346232719952
 20
957.5874086737203
 30
0.0
  0
VERTEX
  5
E0
  8
6MM_ENGRAVE
 10
-1787.191368773629
 20
958.654147006062
 30
0.0
  0
VERTEX
  5
E1
  8
6MM_ENGRAVE
 10
-1787.142540899337
 20
959.6904000736722
 30
0.0
  0
VERTEX
  5
E2
  8
6MM_ENGRAVE
 10
-1787.175943661929
 20
960.6680116197531
 30
0.0
  0
VERTEX
  5
E3
  8
6MM_ENGRAVE
 10
-1787.279964368455
 20
961.6199870915734
 30
0.0
  0
VERTEX
  5
E4
  8
6MM_ENGRAVE
 10
-1787.468780491386
 20
962.5889467207653
 30
0.0
  0
VERTEX
  5
E5
  8
6MM_ENGRAVE
 10
-1787.755419036488
 20
963.5669864125393
 30
0.0
  0
VERTEX
  5
E6
  8
6MM_ENGRAVE
 10
-1788.15085005777
 20
964.5394664211599
 30
0.0
  0
VERTEX
  5
E7
  8
6MM_ENGRAVE
 10
-1788.66070604868
 20
965.4852750472355
 30
0.0
  0
VERTEX
  5
E8
  8
6MM_ENGRAVE
 10
-1789.282242829559
 20
966.3793501982982
 30
0.0
  0
VERTEX
  5
E9
  8
6MM_ENGRAVE
 10
-1790.003151076733
 20
967.1972415372452
 30
0.0
  0
VERTEX
  5
EA
  8
6MM_ENGRAVE
 10
-1790.669696653061
 20
967.7994074630908
 30
0.0
  0
VERTEX
  5
EB
  8
6MM_ENGRAVE
 10
-1790.496926939948
 20
967.9448296009577
 30
0.0
  0
VERTEX
  5
EC
  8
6MM_ENGRAVE
 10
-1790.006115597815
 20
968.4166090495601
 30
0.0
  0
VERTEX
  5
ED
  8
6MM_ENGRAVE
 10
-1789.547929451113
 20
968.91938665614
 30
0.0
  0
VERTEX
  5
EE
  8
6MM_ENGRAVE
 10
-1789.124512074795
 20
969.4506858343302
 30
0.0
  0
VERTEX
  5
EF
  8
6MM_ENGRAVE
 10
-1788.737707747598
 20
970.0078294882369
 30
0.0
  0
VERTEX
  5
F0
  8
6MM_ENGRAVE
 10
-1788.389037023071
 20
970.5879967443252
 30
0.0
  0
VERTEX
  5
F1
  8
6MM_ENGRAVE
 10
-1788.079685186656
 20
971.1882811524483
 30
0.0
  0
VERTEX
  5
F2
  8
6MM_ENGRAVE
 10
-1787.810502840886
 20
971.8057475719143
 30
0.0
  0
VERTEX
  5
F3
  8
6MM_ENGRAVE
 10
-1787.582017462668
 20
972.4374849256747
 30
0.0
  0
VERTEX
  5
F4
  8
6MM_ENGRAVE
 10
-1787.394453948514
 20
973.0806530333175
 30
0.0
  0
VERTEX
  5
F5
  8
6MM_ENGRAVE
 10
-1787.247762151069
 20
973.7325219857739
 30
0.0
  0
VERTEX
  5
F6
  8
6MM_ENGRAVE
 10
-1787.141649050805
 20
974.390503768369
 30
0.0
  0
VERTEX
  5
F7
  8
6MM_ENGRAVE
 10
-1787.075613650542
 20
975.052175669618
 30
0.0
  0
VERTEX
  5
F8
  8
6MM_ENGRAVE
 10
-1787.048982652624
 20
975.7152964891284
 30
0.0
  0
VERTEX
  5
F9
  8
6MM_ENGRAVE
 10
-1787.060945565824
 20
976.3778154450192
 30
0.0
  0
VERTEX
  5
FA
  8
6MM_ENGRAVE
 10
-1787.110588038548
 20
977.0378757596372
 30
0.0
  0
VERTEX
  5
FB
  8
6MM_ENGRAVE
 10
-1787.196922673764
 20
977.6938126887908
 30
0.0
  0
VERTEX
  5
FC
  8
6MM_ENGRAVE
 10
-1787.318916860022
 20
978.3441483058705
 30
0.0
  0
VERTEX
  5
FD
  8
6MM_ENGRAVE
 10
-1787.475517296905
 20
978.9875826013558
 30
0.0
  0
VERTEX
  5
FE
  8
6MM_ENGRAVE
 10
-1787.665671271902
 20
979.6229829646654
 30
0.0
  0
VERTEX
  5
FF
  8
6MM_ENGRAVE
 10
-1787.954095506067
 20
980.4343314706348
 30
0.0
  0
VERTEX
  5
100
  8
6MM_ENGRAVE
 10
-1788.420591621783
 20
981.3845484183003
 30
0.0
  0
VERTEX
  5
101
  8
6MM_ENGRAVE
 10
-1789.048662040749
 20
982.2864441523361
 30
0.0
  0
VERTEX
  5
102
  8
6MM_ENGRAVE
 10
-1789.687359137955
 20
983.0019516427733
 30
0.0
  0
VERTEX
  5
103
  8
6MM_ENGRAVE
 10
-1790.322235499701
 20
983.5872775015068
 30
0.0
  0
VERTEX
  5
104
  8
6MM_ENGRAVE
 10
-1790.542513746658
 20
983.7597168046642
 30
0.0
  0
VERTEX
  5
105
  8
6MM_ENGRAVE
 10
-1790.169230146017
 20
984.0755274049989
 30
0.0
  0
VERTEX
  5
106
  8
6MM_ENGRAVE
 10
-1789.385193531278
 20
984.9277524876234
 30
0.0
  0
VERTEX
  5
107
  8
6MM_ENGRAVE
 10
-1788.719028913487
 20
985.861795677316
 30
0.0
  0
VERTEX
  5
108
  8
6MM_ENGRAVE
 10
-1788.181132434652
 20
986.847201847082
 30
0.0
  0
VERTEX
  5
109
  8
6MM_ENGRAVE
 10
-1787.769969557778
 20
987.8557669969996
 30
0.0
  0
VERTEX
  5
10A
  8
6MM_ENGRAVE
 10
-1787.475281141285
 20
988.8662393415798
 30
0.0
  0
VERTEX
  5
10B
  8
6MM_ENGRAVE
 10
-1787.282537058047
 20
989.8657988066552
 30
0.0
  0
VERTEX
  5
10C
  8
6MM_ENGRAVE
 10
-1787.17665215111
 20
990.8490360563846
 30
0.0
  0
VERTEX
  5
10D
  8
6MM_ENGRAVE
 10
-1787.143462981436
 20
991.8376214179661
 30
0.0
  0
VERTEX
  5
10E
  8
6MM_ENGRAVE
 10
-1787.178274630694
 20
992.7350221040542
 30
0.0
  0
VERTEX
  5
10F
  8
6MM_ENGRAVE
 10
-1787.284617449051
 20
993.6374671971425
 30
0.0
  0
VERTEX
  5
110
  8
6MM_ENGRAVE
 10
-1787.461757354413
 20
994.5253661885254
 30
0.0
  0
VERTEX
  5
111
  8
6MM_ENGRAVE
 10
-1787.709842395299
 20
995.3950382462299
 30
0.0
  0
VERTEX
  5
112
  8
6MM_ENGRAVE
 10
-1788.0293911336
 20
996.242715706705
 30
0.0
  0
VERTEX
  5
113
  8
6MM_ENGRAVE
 10
-1788.421343123125
 20
997.0643163181849
 30
0.0
  0
VERTEX
  5
114
  8
6MM_ENGRAVE
 10
-1788.887028966347
 20
997.8551582407908
 30
0.0
  0
VERTEX
  5
115
  8
6MM_ENGRAVE
 10
-1789.428023798469
 20
998.6096313822845
 30
0.0
  0
VERTEX
  5
116
  8
6MM_ENGRAVE
 10
-1790.045841886082
 20
999.3208563698995
 30
0.0
  0
VERTEX
  5
117
  8
6MM_ENGRAVE
 10
-1790.554107751113
 20
999.8027766364646
 30
0.0
  0
VERTEX
  5
118
  8
6MM_ENGRAVE
 10
-1790.496223641483
 20
999.8503288657485
 30
0.0
  0
VERTEX
  5
119
  8
6MM_ENGRAVE
 10
-1790.019502103205
 20
1000.299480072666
 30
0.0
  0
VERTEX
  5
11A
  8
6MM_ENGRAVE
 10
-1789.572974546045
 20
1000.78226269564
 30
0.0
  0
VERTEX
  5
11B
  8
6MM_ENGRAVE
 10
-1789.160579385534
 20
1001.295031036399
 30
0.0
  0
VERTEX
  5
11C
  8
6MM_ENGRAVE
 10
-1788.785480939616
 20
1001.833444587057
 30
0.0
  0
VERTEX
  5
11D
  8
6MM_ENGRAVE
 10
-1788.449893631503
 20
1002.392742915996
 30
0.0
  0
VERTEX
  5
11E
  8
6MM_ENGRAVE
 10
-1788.155007174948
 20
1002.968052066371
 30
0.0
  0
VERTEX
  5
11F
  8
6MM_ENGRAVE
 10
-1787.901015380185
 20
1003.554678207842
 30
0.0
  0
VERTEX
  5
120
  8
6MM_ENGRAVE
 10
-1787.687231993319
 20
1004.148351797267
 30
0.0
  0
VERTEX
  5
121
  8
6MM_ENGRAVE
 10
-1787.512265180101
 20
1004.745398299903
 30
0.0
  0
VERTEX
  5
122
  8
6MM_ENGRAVE
 10
-1787.356200220528
 20
1005.420804219819
 30
0.0
  0
VERTEX
  5
123
  8
6MM_ENGRAVE
 10
-1787.194933231611
 20
1006.523955972079
 30
0.0
  0
VERTEX
  5
124
  8
6MM_ENGRAVE
 10
-1787.142769795427
 20
1007.665876788415
 30
0.0
  0
VERTEX
  5
125
  8
6MM_ENGRAVE
 10
-1787.176652151129
 20
1008.675109661042
 30
0.0
  0
VERTEX
  5
126
  8
6MM_ENGRAVE
 10
-1787.282537059502
 20
1009.658346916898
 30
0.0
  0
VERTEX
  5
127
  8
6MM_ENGRAVE
 10
-1787.475281143961
 20
1010.657906386126
 30
0.0
  0
VERTEX
  5
128
  8
6MM_ENGRAVE
 10
-1787.554300701137
 20
1010.928860626684
 30
0.0
  0
VERTEX
  5
129
  8
6MM_ENGRAVE
 10
-1786.838676396786
 20
1010.807087357588
 30
0.0
  0
VERTEX
  5
12A
  8
6MM_ENGRAVE
 10
-1785.895789921171
 20
1010.700800739069
 30
0.0
  0
VERTEX
  5
12B
  8
6MM_ENGRAVE
 10
-1784.961727900754
 20
1010.638930821557
 30
0.0
  0
VERTEX
  5
12C
  8
6MM_ENGRAVE
 10
-1784.030223247431
 20
1010.615708141119
 30
0.0
  0
VERTEX
  5
12D
  8
6MM_ENGRAVE
 10
-1783.099894788764
 20
1010.629851953123
 30
0.0
  0
VERTEX
  5
12E
  8
6MM_ENGRAVE
 10
-1782.167873679336
 20
1010.683755218811
 30
0.0
  0
VERTEX
  5
12F
  8
6MM_ENGRAVE
 10
-1781.222401601295
 20
1010.785395545561
 30
0.0
  0
VERTEX
  5
130
  8
6MM_ENGRAVE
 10
-1780.229279396126
 20
1010.955704934297
 30
0.0
  0
VERTEX
  5
131
  8
6MM_ENGRAVE
 10
-1779.227482933216
 20
1011.220571851753
 30
0.0
  0
VERTEX
  5
132
  8
6MM_ENGRAVE
 10
-1778.497896486322
 20
1011.492501478965
 30
0.0
  0
VERTEX
  5
133
  8
6MM_ENGRAVE
 10
-1777.734587036741
 20
1011.861134805352
 30
0.0
  0
VERTEX
  5
134
  8
6MM_ENGRAVE
 10
-1776.812734432984
 20
1012.463942693237
 30
0.0
  0
VERTEX
  5
135
  8
6MM_ENGRAVE
 10
-1775.734658119299
 20
1013.497714744564
 30
0.0
  0
VERTEX
  5
136
  8
6MM_ENGRAVE
 10
-1775.525278114642
 20
1013.846727994614
 30
0.0
  0
VERTEX
  5
137
  8
6MM_ENGRAVE
 10
-1775.238569203986
 20
1014.026805623704
 30
0.0
  0
VERTEX
  5
138
  8
6MM_ENGRAVE
 10
-1774.681835537354
 20
1014.419456914566
 30
0.0
  0
VERTEX
  5
139
  8
6MM_ENGRAVE
 10
-1774.152076584913
 20
1014.830138755809
 30
0.0
  0
VERTEX
  5
13A
  8
6MM_ENGRAVE
 10
-1773.636857206904
 20
1015.265390470329
 30
0.0
  0
VERTEX
  5
13B
  8
6MM_ENGRAVE
 10
-1773.129776285947
 20
1015.732145135124
 30
0.0
  0
VERTEX
  5
13C
  8
6MM_ENGRAVE
 10
-1772.605981122531
 20
1016.261483716164
 30
0.0
  0
VERTEX
  5
13D
  8
6MM_ENGRAVE
 10
-1772.095113771227
 20
1016.849080027423
 30
0.0
  0
VERTEX
  5
13E
  8
6MM_ENGRAVE
 10
-1771.614541318781
 20
1017.49529310278
 30
0.0
  0
VERTEX
  5
13F
  8
6MM_ENGRAVE
 10
-1771.190692783875
 20
1018.163866533145
 30
0.0
  0
VERTEX
  5
140
  8
6MM_ENGRAVE
 10
-1770.822990871531
 20
1018.848794817728
 30
0.0
  0
VERTEX
  5
141
  8
6MM_ENGRAVE
 10
-1770.509969501436
 20
1019.544776183669
 30
0.0
  0
VERTEX
  5
142
  8
6MM_ENGRAVE
 10
-1770.249544564202
 20
1020.247316662379
 30
0.0
  0
VERTEX
  5
143
  8
6MM_ENGRAVE
 10
-1770.039272104952
 20
1020.952742677782
 30
0.0
  0
VERTEX
  5
144
  8
6MM_ENGRAVE
 10
-1769.876569635581
 20
1021.658146913782
 30
0.0
  0
VERTEX
  5
145
  8
6MM_ENGRAVE
 10
-1769.758889821808
 20
1022.36129402127
 30
0.0
  0
VERTEX
  5
146
  8
6MM_ENGRAVE
 10
-1769.683846468888
 20
1023.060507686736
 30
0.0
  0
VERTEX
  5
147
  8
6MM_ENGRAVE
 10
-1769.649298661722
 20
1023.754555457806
 30
0.0
  0
VERTEX
  5
148
  8
6MM_ENGRAVE
 10
-1769.653401847944
 20
1024.442540732391
 30
0.0
  0
VERTEX
  5
149
  8
6MM_ENGRAVE
 10
-1769.694634761931
 20
1025.123806960997
 30
0.0
  0
VERTEX
  5
14A
  8
6MM_ENGRAVE
 10
-1769.771810107114
 20
1025.797855153811
 30
0.0
  0
VERTEX
  5
14B
  8
6MM_ENGRAVE
 10
-1769.884075163558
 20
1026.464273272351
 30
0.0
  0
VERTEX
  5
14C
  8
6MM_ENGRAVE
 10
-1770.030906678763
 20
1027.122675219471
 30
0.0
  0
VERTEX
  5
14D
  8
6MM_ENGRAVE
 10
-1770.212102753423
 20
1027.772646252539
 30
0.0
  0
VERTEX
  5
14E
  8
6MM_ENGRAVE
 10
-1770.427772737488
 20
1028.413691107453
 30
0.0
  0
VERTEX
  5
14F
  8
6MM_ENGRAVE
 10
-1770.678324928125
 20
1029.045181967493
 30
0.0
  0
VERTEX
  5
150
  8
6MM_ENGRAVE
 10
-1770.964450279189
 20
1029.666302882932
 30
0.0
  0
VERTEX
  5
151
  8
6MM_ENGRAVE
 10
-1771.287099097437
 20
1030.275988484969
 30
0.0
  0
VERTEX
  5
152
  8
6MM_ENGRAVE
 10
-1771.647446351834
 20
1030.872855641492
 30
0.0
  0
VERTEX
  5
153
  8
6MM_ENGRAVE
 10
-1772.04683949345
 20
1031.455127729458
 30
0.0
  0
VERTEX
  5
154
  8
6MM_ENGRAVE
 10
-1772.486722209048
 20
1032.020554663688
 30
0.0
  0
VERTEX
  5
155
  8
6MM_ENGRAVE
 10
-1772.968526524551
 20
1032.566334027275
 30
0.0
  0
VERTEX
  5
156
  8
6MM_ENGRAVE
 10
-1773.493527184156
 20
1033.089043911484
 30
0.0
  0
VERTEX
  5
157
  8
6MM_ENGRAVE
 10
-1774.062655512323
 20
1033.584602799657
 30
0.0
  0
VERTEX
  5
158
  8
6MM_ENGRAVE
 10
-1774.676276466252
 20
1034.048276373216
 30
0.0
  0
VERTEX
  5
159
  8
6MM_ENGRAVE
 10
-1775.333943248295
 20
1034.474753738716
 30
0.0
  0
VERTEX
  5
15A
  8
6MM_ENGRAVE
 10
-1775.590094981077
 20
1034.615067013983
 30
0.0
  0
VERTEX
  5
15B
  8
6MM_ENGRAVE
 10
-1775.712507739676
 20
1034.821556491687
 30
0.0
  0
VERTEX
  5
15C
  8
6MM_ENGRAVE
 10
-1776.783386003511
 20
1035.860390305722
 30
0.0
  0
VERTEX
  5
15D
  8
6MM_ENGRAVE
 10
-1777.703887925036
 20
1036.469126302619
 30
0.0
  0
VERTEX
  5
15E
  8
6MM_ENGRAVE
 10
-1778.467602589325
 20
1036.841998790763
 30
0.0
  0
VERTEX
  5
15F
  8
6MM_ENGRAVE
 10
-1779.198239238019
 20
1037.117205356968
 30
0.0
  0
VERTEX
  5
160
  8
6MM_ENGRAVE
 10
-1780.197670640922
 20
1037.384089821974
 30
0.0
  0
VERTEX
  5
161
  8
6MM_ENGRAVE
 10
-1781.187070948094
 20
1037.555338072686
 30
0.0
  0
VERTEX
  5
162
  8
6MM_ENGRAVE
 10
-1782.127464459139
 20
1037.657333241075
 30
0.0
  0
VERTEX
  5
163
  8
6MM_ENGRAVE
 10
-1783.054005588951
 20
1037.711461110264
 30
0.0
  0
VERTEX
  5
164
  8
6MM_ENGRAVE
 10
-1783.979128499668
 20
1037.725924792002
 30
0.0
  0
VERTEX
  5
165
  8
6MM_ENGRAVE
 10
-1784.906023506115
 20
1037.70330294588
 30
0.0
  0
VERTEX
  5
166
  8
6MM_ENGRAVE
 10
-1785.835823486312
 20
1037.642614306934
 30
0.0
  0
VERTEX
  5
167
  8
6MM_ENGRAVE
 10
-1786.773419469169
 20
1037.538799312263
 30
0.0
  0
VERTEX
  5
168
  8
6MM_ENGRAVE
 10
-1787.735331415894
 20
1037.379131548816
 30
0.0
  0
VERTEX
  5
169
  8
6MM_ENGRAVE
 10
-1788.764763319279
 20
1037.131928440579
 30
0.0
  0
VERTEX
  5
16A
  8
6MM_ENGRAVE
 10
-1789.816763056309
 20
1036.76116287241
 30
0.0
  0
VERTEX
  5
16B
  8
6MM_ENGRAVE
 10
-1790.603765417078
 20
1036.376134050657
 30
0.0
  0
VERTEX
  5
16C
  8
6MM_ENGRAVE
 10
-1791.200807912064
 20
1035.997270711915
 30
0.0
  0
VERTEX
  5
16D
  8
6MM_ENGRAVE
 10
-1890.413265338279
 20
1035.703988086341
 30
0.0
  0
VERTEX
  5
16E
  8
6MM_ENGRAVE
 10
-1890.413265338274
 20
1024.150103215448
 30
0.0
  0
VERTEX
  5
16F
  8
6MM_ENGRAVE
 10
-1890.397826916596
 20
1022.180651151633
 30
0.0
  0
VERTEX
  5
170
  8
6MM_ENGRAVE
 10
-1890.350484226029
 20
1021.150996719476
 30
0.0
  0
VERTEX
  5
171
  8
6MM_ENGRAVE
 10
-1890.245086432867
 20
1020.140484186995
 30
0.0
  0
VERTEX
  5
172
  8
6MM_ENGRAVE
 10
-1890.131426716924
 20
1019.483072345254
 30
0.0
  0
VERTEX
  5
173
  8
6MM_ENGRAVE
 10
-1889.979129673557
 20
1018.835600889266
 30
0.0
  0
SEQEND
  5
174
  8
6MM_ENGRAVE
  0
ENDSEC
  0
EOF
