  0
SECTION
  2
HEADER
  9
$ACADVER
  1
AC1009
  9
$DWGCODEPAGE
  3
ansi_1252
  9
$INSBASE
 10
0.0
 20
0.0
 30
0.0
  9
$EXTMIN
 10
-522.76527691774
 20
-248.0561009830166
 30
0.0
  9
$EXTMAX
 10
-40.01971009333431
 20
251.9444894590725
 30
0.0
  9
$LIMMIN
 10
0.0
 20
0.0
  9
$LIMMAX
 10
12.0
 20
9.0
  9
$ORTHOMODE
 70
     0
  9
$REGENMODE
 70
     1
  9
$FILLMODE
 70
     1
  9
$QTEXTMODE
 70
     0
  9
$MIRRTEXT
 70
     1
  9
$DRAGMODE
 70
     2
  9
$LTSCALE
 40
1.0
  9
$OSMODE
 70
    37
  9
$ATTMODE
 70
     1
  9
$TEXTSIZE
 40
0.2
  9
$TRACEWID
 40
0.05
  9
$TEXTSTYLE
  7
STANDARD
  9
$CLAYER
  8
0
  9
$CELTYPE
  6
BYLAYER
  9
$CECOLOR
 62
   256
  9
$DIMSCALE
 40
1.0
  9
$DIMASZ
 40
0.18
  9
$DIMEXO
 40
0.0625
  9
$DIMDLI
 40
0.38
  9
$DIMRND
 40
0.0
  9
$DIMDLE
 40
0.0
  9
$DIMEXE
 40
0.18
  9
$DIMTP
 40
0.0
  9
$DIMTM
 40
0.0
  9
$DIMTXT
 40
0.18
  9
$DIMCEN
 40
0.09
  9
$DIMTSZ
 40
0.0
  9
$DIMTOL
 70
     0
  9
$DIMLIM
 70
     0
  9
$DIMTIH
 70
     1
  9
$DIMTOH
 70
     1
  9
$DIMSE1
 70
     0
  9
$DIMSE2
 70
     0
  9
$DIMTAD
 70
     0
  9
$DIMZIN
 70
     0
  9
$DIMBLK
  1

  9
$DIMASO
 70
     1
  9
$DIMSHO
 70
     1
  9
$DIMPOST
  1

  9
$DIMAPOST
  1

  9
$DIMALT
 70
     0
  9
$DIMALTD
 70
     2
  9
$DIMALTF
 40
25.4
  9
$DIMLFAC
 40
1.0
  9
$DIMTOFL
 70
     0
  9
$DIMTVP
 40
0.0
  9
$DIMTIX
 70
     0
  9
$DIMSOXD
 70
     0
  9
$DIMSAH
 70
     0
  9
$DIMBLK1
  1

  9
$DIMBLK2
  1

  9
$DIMSTYLE
  2
STANDARD
  9
$DIMCLRD
 70
     0
  9
$DIMCLRE
 70
     0
  9
$DIMCLRT
 70
     0
  9
$DIMTFAC
 40
1.0
  9
$DIMGAP
 40
0.09
  9
$LUNITS
 70
     2
  9
$LUPREC
 70
     4
  9
$SKETCHINC
 40
0.1
  9
$FILLETRAD
 40
0.5
  9
$AUNITS
 70
     0
  9
$AUPREC
 70
     0
  9
$MENU
  1
.
  9
$ELEVATION
 40
0.0
  9
$PELEVATION
 40
0.0
  9
$THICKNESS
 40
0.0
  9
$LIMCHECK
 70
     0
  9
$CHAMFERA
 40
0.5
  9
$CHAMFERB
 40
0.5
  9
$SKPOLY
 70
     0
  9
$TDCREATE
 40
2454910.5
  9
$TDUPDATE
 40
2458441.747100243
  9
$TDINDWG
 40
0.0000000116
  9
$TDUSRTIMER
 40
0.0000000116
  9
$USRTIMER
 70
     1
  9
$ANGBASE
 50
0.0
  9
$ANGDIR
 70
     0
  9
$PDMODE
 70
     0
  9
$PDSIZE
 40
0.0
  9
$PLINEWID
 40
0.0
  9
$COORDS
 70
     1
  9
$SPLFRAME
 70
     0
  9
$SPLINETYPE
 70
     6
  9
$SPLINESEGS
 70
     8
  9
$ATTDIA
 70
     0
  9
$ATTREQ
 70
     1
  9
$HANDLING
 70
     1
  9
$HANDSEED
  5
170
  9
$SURFTAB1
 70
     6
  9
$SURFTAB2
 70
     6
  9
$SURFTYPE
 70
     6
  9
$SURFU
 70
     6
  9
$SURFV
 70
     6
  9
$UCSNAME
  2

  9
$UCSORG
 10
0.0
 20
0.0
 30
0.0
  9
$UCSXDIR
 10
1.0
 20
0.0
 30
0.0
  9
$UCSYDIR
 10
0.0
 20
1.0
 30
0.0
  9
$PUCSNAME
  2

  9
$PUCSORG
 10
0.0
 20
0.0
 30
0.0
  9
$PUCSXDIR
 10
1.0
 20
0.0
 30
0.0
  9
$PUCSYDIR
 10
0.0
 20
1.0
 30
0.0
  9
$USERI1
 70
     0
  9
$USERI2
 70
     0
  9
$USERI3
 70
     0
  9
$USERI4
 70
     0
  9
$USERI5
 70
     0
  9
$USERR1
 40
0.0
  9
$USERR2
 40
0.0
  9
$USERR3
 40
0.0
  9
$USERR4
 40
0.0
  9
$USERR5
 40
0.0
  9
$WORLDVIEW
 70
     1
  9
$SHADEDGE
 70
     3
  9
$SHADEDIF
 70
    70
  9
$TILEMODE
 70
     1
  9
$MAXACTVP
 70
    64
  9
$PLIMCHECK
 70
     0
  9
$PEXTMIN
 10
1.000000000000000E+20
 20
1.000000000000000E+20
 30
1.000000000000000E+20
  9
$PEXTMAX
 10
-1.000000000000000E+20
 20
-1.000000000000000E+20
 30
-1.000000000000000E+20
  9
$PLIMMIN
 10
0.0
 20
0.0
  9
$PLIMMAX
 10
12.0
 20
9.0
  9
$UNITMODE
 70
     0
  9
$VISRETAIN
 70
     1
  9
$PLINEGEN
 70
     0
  9
$PSLTSCALE
 70
     1
  0
ENDSEC
  0
SECTION
  2
TABLES
  0
TABLE
  2
VPORT
 70
     1
  0
VPORT
  2
*ACTIVE
 70
     0
 10
0.0
 20
0.0
 11
1.0
 21
1.0
 12
10.42990654205607
 22
4.5
 13
0.0
 23
0.0
 14
0.5
 24
0.5
 15
0.5
 25
0.5
 16
0.0
 26
0.0
 36
1.0
 17
0.0
 27
0.0
 37
0.0
 40
9.0
 41
1.972972972850329
 42
50.0
 43
0.0
 44
0.0
 50
0.0
 51
0.0
 71
     0
 72
   100
 73
     1
 74
     3
 75
     0
 76
     0
 77
     0
 78
     0
  0
ENDTAB
  0
TABLE
  2
LTYPE
 70
     2
  0
LTYPE
  2
CONTINUOUS
 70
     0
  3
Solid line
 72
    65
 73
     0
 40
0.0
  0
LTYPE
  2
CONTINUOUS2
 70
     0
  3
Solid Line
 72
    65
 73
     0
 40
0.0
  0
ENDTAB
  0
TABLE
  2
LAYER
 70
     2
  0
LAYER
  2
0
 70
     0
 62
     7
  6
CONTINUOUS
  0
LAYER
  2
6MM_ENGRAVE
 70
     0
 62
   245
  6
CONTINUOUS
  0
ENDTAB
  0
TABLE
  2
STYLE
 70
     1
  0
STYLE
  2
STANDARD
 70
     0
 40
0.0
 41
1.0
 50
0.0
 71
     0
 42
0.2
  3
txt
  4

  0
ENDTAB
  0
TABLE
  2
VIEW
 70
     0
  0
ENDTAB
  0
TABLE
  2
UCS
 70
     0
  0
ENDTAB
  0
TABLE
  2
APPID
 70
     1
  0
APPID
  2
ACAD
 70
     0
  0
ENDTAB
  0
TABLE
  2
DIMSTYLE
 70
     1
  0
DIMSTYLE
  2
STANDARD
 70
     0
  3

  4

  5

  6

  7

 40
1.0
 41
0.18
 42
0.0625
 43
0.38
 44
0.18
 45
0.0
 46
0.0
 47
0.0
 48
0.0
140
0.18
141
0.09
142
0.0
143
25.4
144
1.0
145
0.0
146
1.0
147
0.09
 71
     0
 72
     0
 73
     1
 74
     1
 75
     0
 76
     0
 77
     0
 78
     0
170
     0
171
     2
172
     0
173
     0
174
     0
175
     0
176
     0
177
     0
178
     0
  0
ENDTAB
  0
ENDSEC
  0
SECTION
  2
BLOCKS
  0
BLOCK
  8
0
  2
$MODEL_SPACE
 70
     0
 10
0.0
 20
0.0
 30
0.0
  3
$MODEL_SPACE
  1

  0
ENDBLK
  5
21
  8
0
  0
BLOCK
 67
     1
  8
0
  2
$PAPER_SPACE
 70
     0
 10
0.0
 20
0.0
 30
0.0
  3
$PAPER_SPACE
  1

  0
ENDBLK
  5
1D
 67
     1
  8
0
  0
ENDSEC
  0
SECTION
  2
ENTITIES
  0
POLYLINE
  5
41
  8
6MM_ENGRAVE
 66
     1
 10
0.0
 20
0.0
 30
0.0
 70
     1
  0
VERTEX
  5
5E
  8
6MM_ENGRAVE
 10
-423.2720321473827
 20
-86.09600005874135
 30
0.0
  0
VERTEX
  5
5F
  8
6MM_ENGRAVE
 10
-463.2720793827493
 20
-86.09600005874044
 30
0.0
  0
VERTEX
  5
60
  8
6MM_ENGRAVE
 10
-463.2720793827493
 20
-98.09601422935273
 30
0.0
  0
VERTEX
  5
61
  8
6MM_ENGRAVE
 10
-423.2720321473824
 20
-98.09601422935273
 30
0.0
  0
SEQEND
  5
62
  8
6MM_ENGRAVE
  0
POLYLINE
  5
42
  8
6MM_ENGRAVE
 66
     1
 10
0.0
 20
0.0
 30
0.0
 70
     1
  0
VERTEX
  5
63
  8
6MM_ENGRAVE
 10
-343.2719376766495
 20
-86.09600005874044
 30
0.0
  0
VERTEX
  5
64
  8
6MM_ENGRAVE
 10
-343.2719376766495
 20
-98.09601422935091
 30
0.0
  0
VERTEX
  5
65
  8
6MM_ENGRAVE
 10
-383.2719849120156
 20
-98.09601422935091
 30
0.0
  0
VERTEX
  5
66
  8
6MM_ENGRAVE
 10
-383.2719849120156
 20
-86.09600005874044
 30
0.0
  0
SEQEND
  5
67
  8
6MM_ENGRAVE
  0
POLYLINE
  5
43
  8
6MM_ENGRAVE
 66
     1
 10
0.0
 20
0.0
 30
0.0
  0
VERTEX
  5
68
  8
6MM_ENGRAVE
 10
-282.7649935055372
 20
-86.09600005874135
 30
0.0
  0
VERTEX
  5
69
  8
6MM_ENGRAVE
 10
-303.2718904412829
 20
-86.09600005874135
 30
0.0
  0
VERTEX
  5
6A
  8
6MM_ENGRAVE
 10
-303.2718904412829
 20
-98.09601422935091
 30
0.0
  0
VERTEX
  5
6B
  8
6MM_ENGRAVE
 10
-294.7650076761487
 20
-98.09601422935053
 30
0.0
  0
SEQEND
  5
6C
  8
6MM_ENGRAVE
  0
POLYLINE
  5
44
  8
6MM_ENGRAVE
 66
     1
 10
0.0
 20
0.0
 30
0.0
  0
VERTEX
  5
6D
  8
6MM_ENGRAVE
 10
-522.7652769177373
 20
-86.09600005874411
 30
0.0
  0
VERTEX
  5
6E
  8
6MM_ENGRAVE
 10
-522.7652769177373
 20
-58.05587661502282
 30
0.0
  0
VERTEX
  5
6F
  8
6MM_ENGRAVE
 10
-510.7652627471273
 20
-58.05587661502918
 30
0.0
  0
VERTEX
  5
70
  8
6MM_ENGRAVE
 10
-510.7652627471273
 20
-18.05582937965203
 30
0.0
  0
VERTEX
  5
71
  8
6MM_ENGRAVE
 10
-522.7652769177373
 20
-18.05582937965658
 30
0.0
  0
VERTEX
  5
72
  8
6MM_ENGRAVE
 10
-522.7652769177373
 20
21.9442178557097
 30
0.0
  0
VERTEX
  5
73
  8
6MM_ENGRAVE
 10
-510.7652627471273
 20
21.94421785570333
 30
0.0
  0
VERTEX
  5
74
  8
6MM_ENGRAVE
 10
-510.7652627471273
 20
61.94426509108048
 30
0.0
  0
VERTEX
  5
75
  8
6MM_ENGRAVE
 10
-522.7652769177373
 20
61.94426509107593
 30
0.0
  0
VERTEX
  5
76
  8
6MM_ENGRAVE
 10
-522.7652769177373
 20
101.9443123264472
 30
0.0
  0
VERTEX
  5
77
  8
6MM_ENGRAVE
 10
-510.7652627471273
 20
101.9443123264427
 30
0.0
  0
VERTEX
  5
78
  8
6MM_ENGRAVE
 10
-510.7652627471273
 20
141.9443595618089
 30
0.0
  0
VERTEX
  5
79
  8
6MM_ENGRAVE
 10
-522.7652769177373
 20
141.9443595618035
 30
0.0
  0
VERTEX
  5
7A
  8
6MM_ENGRAVE
 10
-522.7652769177373
 20
181.9444067971797
 30
0.0
  0
VERTEX
  5
7B
  8
6MM_ENGRAVE
 10
-510.7652627471273
 20
181.9444067971751
 30
0.0
  0
VERTEX
  5
7C
  8
6MM_ENGRAVE
 10
-510.7652627471273
 20
221.9444540325413
 30
0.0
  0
VERTEX
  5
7D
  8
6MM_ENGRAVE
 10
-522.7652769177373
 20
221.9444540325368
 30
0.0
  0
VERTEX
  5
7E
  8
6MM_ENGRAVE
 10
-522.7652769177373
 20
239.9444752884615
 30
0.0
  0
VERTEX
  5
7F
  8
6MM_ENGRAVE
 10
-510.7652627471273
 20
239.9444752884606
 30
0.0
  0
VERTEX
  5
80
  8
6MM_ENGRAVE
 10
-503.272126618115
 20
239.9444752884579
 30
0.0
  0
VERTEX
  5
81
  8
6MM_ENGRAVE
 10
-503.272126618115
 20
251.9444894590725
 30
0.0
  0
VERTEX
  5
82
  8
6MM_ENGRAVE
 10
-463.2720793827486
 20
251.9444894590725
 30
0.0
  0
VERTEX
  5
83
  8
6MM_ENGRAVE
 10
-463.2720793827486
 20
239.9444752884588
 30
0.0
  0
VERTEX
  5
84
  8
6MM_ENGRAVE
 10
-423.2720321473822
 20
239.9444752884588
 30
0.0
  0
VERTEX
  5
85
  8
6MM_ENGRAVE
 10
-423.2720321473822
 20
251.9444894590706
 30
0.0
  0
VERTEX
  5
86
  8
6MM_ENGRAVE
 10
-383.2719849120159
 20
251.9444894590706
 30
0.0
  0
VERTEX
  5
87
  8
6MM_ENGRAVE
 10
-383.2719849120159
 20
239.944475288457
 30
0.0
  0
VERTEX
  5
88
  8
6MM_ENGRAVE
 10
-343.2719376766495
 20
239.944475288457
 30
0.0
  0
VERTEX
  5
89
  8
6MM_ENGRAVE
 10
-343.2719376766495
 20
251.9444894590725
 30
0.0
  0
VERTEX
  5
8A
  8
6MM_ENGRAVE
 10
-303.2718904412829
 20
251.9444894590725
 30
0.0
  0
VERTEX
  5
8B
  8
6MM_ENGRAVE
 10
-303.2718904412829
 20
239.9444752884561
 30
0.0
  0
VERTEX
  5
8C
  8
6MM_ENGRAVE
 10
-294.7650076761487
 20
239.9444752884606
 30
0.0
  0
VERTEX
  5
8D
  8
6MM_ENGRAVE
 10
-282.7649935055388
 20
239.9444752884606
 30
0.0
  0
VERTEX
  5
8E
  8
6MM_ENGRAVE
 10
-282.7649935055388
 20
221.9444540325368
 30
0.0
  0
VERTEX
  5
8F
  8
6MM_ENGRAVE
 10
-294.7650076761487
 20
221.9444540325422
 30
0.0
  0
VERTEX
  5
90
  8
6MM_ENGRAVE
 10
-294.7650076761487
 20
181.9444067971751
 30
0.0
  0
VERTEX
  5
91
  8
6MM_ENGRAVE
 10
-282.7649935055388
 20
181.9444067971897
 30
0.0
  0
VERTEX
  5
92
  8
6MM_ENGRAVE
 10
-282.7649935055388
 20
141.9443595618044
 30
0.0
  0
VERTEX
  5
93
  8
6MM_ENGRAVE
 10
-294.7650076761487
 20
141.9443595618089
 30
0.0
  0
VERTEX
  5
94
  8
6MM_ENGRAVE
 10
-294.7650076761487
 20
101.9443123264381
 30
0.0
  0
VERTEX
  5
95
  8
6MM_ENGRAVE
 10
-282.7649935055388
 20
101.9443123264427
 30
0.0
  0
VERTEX
  5
96
  8
6MM_ENGRAVE
 10
-282.7649935055388
 20
61.94426509107139
 30
0.0
  0
VERTEX
  5
97
  8
6MM_ENGRAVE
 10
-294.7650076761487
 20
61.94426509107593
 30
0.0
  0
VERTEX
  5
98
  8
6MM_ENGRAVE
 10
-294.7650076761487
 20
21.94421785570515
 30
0.0
  0
VERTEX
  5
99
  8
6MM_ENGRAVE
 10
-282.7649935055388
 20
21.9442178557097
 30
0.0
  0
VERTEX
  5
9A
  8
6MM_ENGRAVE
 10
-282.7649935055388
 20
-18.05582937965658
 30
0.0
  0
VERTEX
  5
9B
  8
6MM_ENGRAVE
 10
-294.7650076761487
 20
-18.05582937964203
 30
0.0
  0
VERTEX
  5
9C
  8
6MM_ENGRAVE
 10
-294.7650076761487
 20
-58.05587661502737
 30
0.0
  0
VERTEX
  5
9D
  8
6MM_ENGRAVE
 10
-282.7649935055388
 20
-58.05587661502282
 30
0.0
  0
VERTEX
  5
9E
  8
6MM_ENGRAVE
 10
-282.7649935055388
 20
-86.09600005874135
 30
0.0
  0
SEQEND
  5
9F
  8
6MM_ENGRAVE
  0
POLYLINE
  5
45
  8
6MM_ENGRAVE
 66
     1
 10
0.0
 20
0.0
 30
0.0
  0
VERTEX
  5
A0
  8
6MM_ENGRAVE
 10
-510.7652627471273
 20
-98.09601422935022
 30
0.0
  0
VERTEX
  5
A1
  8
6MM_ENGRAVE
 10
-510.7652627471273
 20
-138.0559710857553
 30
0.0
  0
VERTEX
  5
A2
  8
6MM_ENGRAVE
 10
-522.7652769177373
 20
-138.0559710857517
 30
0.0
  0
VERTEX
  5
A3
  8
6MM_ENGRAVE
 10
-522.76527691774
 20
-151.8127100579251
 30
0.0
  0
VERTEX
  5
A4
  8
6MM_ENGRAVE
 10
-522.76527691774
 20
-163.8127242285333
 30
0.0
  0
VERTEX
  5
A5
  8
6MM_ENGRAVE
 10
-522.7652769177373
 20
-178.056018321122
 30
0.0
  0
VERTEX
  5
A6
  8
6MM_ENGRAVE
 10
-510.7652627471273
 20
-178.056018321122
 30
0.0
  0
VERTEX
  5
A7
  8
6MM_ENGRAVE
 10
-510.7652627471273
 20
-218.0560655564882
 30
0.0
  0
VERTEX
  5
A8
  8
6MM_ENGRAVE
 10
-522.7652769177373
 20
-218.0560655564818
 30
0.0
  0
VERTEX
  5
A9
  8
6MM_ENGRAVE
 10
-522.7652769177373
 20
-236.0560868124093
 30
0.0
  0
VERTEX
  5
AA
  8
6MM_ENGRAVE
 10
-510.7652627471273
 20
-236.0560868124066
 30
0.0
  0
VERTEX
  5
AB
  8
6MM_ENGRAVE
 10
-503.272126618115
 20
-236.0560868124057
 30
0.0
  0
VERTEX
  5
AC
  8
6MM_ENGRAVE
 10
-503.272126618115
 20
-248.0561009830166
 30
0.0
  0
VERTEX
  5
AD
  8
6MM_ENGRAVE
 10
-463.2720793827486
 20
-248.0561009830166
 30
0.0
  0
VERTEX
  5
AE
  8
6MM_ENGRAVE
 10
-463.2720793827496
 20
-236.0560868124066
 30
0.0
  0
VERTEX
  5
AF
  8
6MM_ENGRAVE
 10
-423.2720321473822
 20
-236.0560868124066
 30
0.0
  0
VERTEX
  5
B0
  8
6MM_ENGRAVE
 10
-423.2720321473822
 20
-248.0561009830166
 30
0.0
  0
VERTEX
  5
B1
  8
6MM_ENGRAVE
 10
-383.2719849120159
 20
-248.0561009830166
 30
0.0
  0
VERTEX
  5
B2
  8
6MM_ENGRAVE
 10
-383.2719849120159
 20
-236.0560868124066
 30
0.0
  0
VERTEX
  5
B3
  8
6MM_ENGRAVE
 10
-343.2719376766495
 20
-236.0560868124066
 30
0.0
  0
VERTEX
  5
B4
  8
6MM_ENGRAVE
 10
-343.2719376766495
 20
-248.0561009830166
 30
0.0
  0
VERTEX
  5
B5
  8
6MM_ENGRAVE
 10
-303.2718904412829
 20
-248.0561009830166
 30
0.0
  0
VERTEX
  5
B6
  8
6MM_ENGRAVE
 10
-303.2718904412829
 20
-236.0560868124066
 30
0.0
  0
VERTEX
  5
B7
  8
6MM_ENGRAVE
 10
-294.7650076761487
 20
-236.0560868124066
 30
0.0
  0
VERTEX
  5
B8
  8
6MM_ENGRAVE
 10
-294.7650076761487
 20
-236.0560868124066
 30
0.0
  0
VERTEX
  5
B9
  8
6MM_ENGRAVE
 10
-282.7649935055388
 20
-236.0560868124066
 30
0.0
  0
VERTEX
  5
BA
  8
6MM_ENGRAVE
 10
-282.7649935055388
 20
-218.0560655564882
 30
0.0
  0
VERTEX
  5
BB
  8
6MM_ENGRAVE
 10
-294.7650076761487
 20
-218.05606555649
 30
0.0
  0
VERTEX
  5
BC
  8
6MM_ENGRAVE
 10
-294.7650076761487
 20
-178.056018321122
 30
0.0
  0
VERTEX
  5
BD
  8
6MM_ENGRAVE
 10
-282.7649935055388
 20
-178.0560183211247
 30
0.0
  0
VERTEX
  5
BE
  8
6MM_ENGRAVE
 10
-282.7649935055381
 20
-163.8127242285333
 30
0.0
  0
VERTEX
  5
BF
  8
6MM_ENGRAVE
 10
-282.7649935055388
 20
-151.8127100579251
 30
0.0
  0
VERTEX
  5
C0
  8
6MM_ENGRAVE
 10
-282.7649935055388
 20
-138.0559710857553
 30
0.0
  0
VERTEX
  5
C1
  8
6MM_ENGRAVE
 10
-294.7650076761487
 20
-138.0559710857581
 30
0.0
  0
VERTEX
  5
C2
  8
6MM_ENGRAVE
 10
-294.7650076761487
 20
-98.09601422935053
 30
0.0
  0
SEQEND
  5
C3
  8
6MM_ENGRAVE
  0
POLYLINE
  5
46
  8
6MM_ENGRAVE
 66
     1
 10
0.0
 20
0.0
 30
0.0
  0
VERTEX
  5
C4
  8
6MM_ENGRAVE
 10
-510.7652627471273
 20
-98.09601422935056
 30
0.0
  0
VERTEX
  5
C5
  8
6MM_ENGRAVE
 10
-503.272126618115
 20
-98.09601422935091
 30
0.0
  0
VERTEX
  5
C6
  8
6MM_ENGRAVE
 10
-503.272126618115
 20
-86.09600005874135
 30
0.0
  0
VERTEX
  5
C7
  8
6MM_ENGRAVE
 10
-522.76527691774
 20
-86.09600005874226
 30
0.0
  0
SEQEND
  5
C8
  8
6MM_ENGRAVE
  0
POLYLINE
  5
47
  8
6MM_ENGRAVE
 66
     1
 10
0.0
 20
0.0
 30
0.0
 70
     1
  0
VERTEX
  5
C9
  8
6MM_ENGRAVE
 10
-402.765135211638
 20
213.3268998739163
 30
0.0
 42
0.4142135623730951
  0
VERTEX
  5
CA
  8
6MM_ENGRAVE
 10
-415.765135211638
 20
200.3268998739163
 30
0.0
 42
0.4142135623730951
  0
VERTEX
  5
CB
  8
6MM_ENGRAVE
 10
-402.765135211638
 20
187.3268998739163
 30
0.0
 42
0.4142135623730951
  0
VERTEX
  5
CC
  8
6MM_ENGRAVE
 10
-389.765135211638
 20
200.3268998739163
 30
0.0
 42
0.4142135623730951
  0
SEQEND
  5
CD
  8
6MM_ENGRAVE
  0
POLYLINE
  5
48
  8
6MM_ENGRAVE
 66
     1
 10
0.0
 20
0.0
 30
0.0
 70
     1
  0
VERTEX
  5
CE
  8
6MM_ENGRAVE
 10
-466.7235979616351
 20
200.3268998739163
 30
0.0
 42
0.4142135623730951
  0
VERTEX
  5
CF
  8
6MM_ENGRAVE
 10
-462.2235979616351
 20
195.8268998739163
 30
0.0
 42
0.4142135623730951
  0
VERTEX
  5
D0
  8
6MM_ENGRAVE
 10
-457.7235979616351
 20
200.3268998739163
 30
0.0
 42
0.4142135623730951
  0
VERTEX
  5
D1
  8
6MM_ENGRAVE
 10
-462.2235979616351
 20
204.8268998739163
 30
0.0
 42
0.4142135623730951
  0
SEQEND
  5
D2
  8
6MM_ENGRAVE
  0
POLYLINE
  5
49
  8
6MM_ENGRAVE
 66
     1
 10
0.0
 20
0.0
 30
0.0
 70
     1
  0
VERTEX
  5
D3
  8
6MM_ENGRAVE
 10
-447.9905979364281
 20
155.1014371491262
 30
0.0
 42
0.4142135623730951
  0
VERTEX
  5
D4
  8
6MM_ENGRAVE
 10
-441.6266369057493
 20
155.1014371491262
 30
0.0
 42
0.4142135623730951
  0
VERTEX
  5
D5
  8
6MM_ENGRAVE
 10
-441.6266369057491
 20
161.4653981798051
 30
0.0
 42
0.4142135623730951
  0
VERTEX
  5
D6
  8
6MM_ENGRAVE
 10
-447.9905979364281
 20
161.4653981798051
 30
0.0
 42
0.4142135623730951
  0
SEQEND
  5
D7
  8
6MM_ENGRAVE
  0
POLYLINE
  5
4A
  8
6MM_ENGRAVE
 66
     1
 10
0.0
 20
0.0
 30
0.0
 70
     1
  0
VERTEX
  5
D8
  8
6MM_ENGRAVE
 10
-402.765135211638
 20
136.3684371239193
 30
0.0
 42
0.4142135623730951
  0
VERTEX
  5
D9
  8
6MM_ENGRAVE
 10
-398.265135211638
 20
140.8684371239193
 30
0.0
 42
0.4142135623730951
  0
VERTEX
  5
DA
  8
6MM_ENGRAVE
 10
-402.765135211638
 20
145.3684371239193
 30
0.0
 42
0.4142135623730951
  0
VERTEX
  5
DB
  8
6MM_ENGRAVE
 10
-407.265135211638
 20
140.8684371239193
 30
0.0
 42
0.4142135623730951
  0
SEQEND
  5
DC
  8
6MM_ENGRAVE
  0
POLYLINE
  5
4B
  8
6MM_ENGRAVE
 66
     1
 10
0.0
 20
0.0
 30
0.0
 70
     1
  0
VERTEX
  5
DD
  8
6MM_ENGRAVE
 10
-357.539672486848
 20
155.1014371491262
 30
0.0
 42
0.4142135623730951
  0
VERTEX
  5
DE
  8
6MM_ENGRAVE
 10
-357.539672486848
 20
161.4653981798051
 30
0.0
 42
0.4142135623730951
  0
VERTEX
  5
DF
  8
6MM_ENGRAVE
 10
-363.9036335175269
 20
161.4653981798052
 30
0.0
 42
0.4142135623730951
  0
VERTEX
  5
E0
  8
6MM_ENGRAVE
 10
-363.903633517527
 20
155.1014371491262
 30
0.0
 42
0.4142135623730951
  0
SEQEND
  5
E1
  8
6MM_ENGRAVE
  0
POLYLINE
  5
4C
  8
6MM_ENGRAVE
 66
     1
 10
0.0
 20
0.0
 30
0.0
 70
     1
  0
VERTEX
  5
E2
  8
6MM_ENGRAVE
 10
-338.8066724616411
 20
200.3268998739163
 30
0.0
 42
0.4142135623730951
  0
VERTEX
  5
E3
  8
6MM_ENGRAVE
 10
-343.3066724616411
 20
204.8268998739162
 30
0.0
 42
0.4142135623730951
  0
VERTEX
  5
E4
  8
6MM_ENGRAVE
 10
-347.8066724616411
 20
200.3268998739163
 30
0.0
 42
0.4142135623730951
  0
VERTEX
  5
E5
  8
6MM_ENGRAVE
 10
-343.3066724616412
 20
195.8268998739162
 30
0.0
 42
0.4142135623730951
  0
SEQEND
  5
E6
  8
6MM_ENGRAVE
  0
POLYLINE
  5
4D
  8
6MM_ENGRAVE
 66
     1
 10
0.0
 20
0.0
 30
0.0
 70
     1
  0
VERTEX
  5
E7
  8
6MM_ENGRAVE
 10
-139.5129548636917
 20
-86.09600005874135
 30
0.0
  0
VERTEX
  5
E8
  8
6MM_ENGRAVE
 10
-99.51290762832502
 20
-86.09600005874044
 30
0.0
  0
VERTEX
  5
E9
  8
6MM_ENGRAVE
 10
-99.51290762832502
 20
-98.09601422935273
 30
0.0
  0
VERTEX
  5
EA
  8
6MM_ENGRAVE
 10
-139.5129548636919
 20
-98.09601422935273
 30
0.0
  0
SEQEND
  5
EB
  8
6MM_ENGRAVE
  0
POLYLINE
  5
4E
  8
6MM_ENGRAVE
 66
     1
 10
0.0
 20
0.0
 30
0.0
 70
     1
  0
VERTEX
  5
EC
  8
6MM_ENGRAVE
 10
-219.5130493344249
 20
-86.09600005874044
 30
0.0
  0
VERTEX
  5
ED
  8
6MM_ENGRAVE
 10
-219.5130493344249
 20
-98.09601422935091
 30
0.0
  0
VERTEX
  5
EE
  8
6MM_ENGRAVE
 10
-179.5130020990587
 20
-98.09601422935091
 30
0.0
  0
VERTEX
  5
EF
  8
6MM_ENGRAVE
 10
-179.5130020990587
 20
-86.09600005874044
 30
0.0
  0
SEQEND
  5
F0
  8
6MM_ENGRAVE
  0
POLYLINE
  5
4F
  8
6MM_ENGRAVE
 66
     1
 10
0.0
 20
0.0
 30
0.0
  0
VERTEX
  5
F1
  8
6MM_ENGRAVE
 10
-280.0199935055372
 20
-86.09600005874135
 30
0.0
  0
VERTEX
  5
F2
  8
6MM_ENGRAVE
 10
-259.5130965697914
 20
-86.09600005874135
 30
0.0
  0
VERTEX
  5
F3
  8
6MM_ENGRAVE
 10
-259.5130965697914
 20
-98.09601422935091
 30
0.0
  0
VERTEX
  5
F4
  8
6MM_ENGRAVE
 10
-268.0199793349256
 20
-98.09601422935053
 30
0.0
  0
SEQEND
  5
F5
  8
6MM_ENGRAVE
  0
POLYLINE
  5
50
  8
6MM_ENGRAVE
 66
     1
 10
0.0
 20
0.0
 30
0.0
  0
VERTEX
  5
F6
  8
6MM_ENGRAVE
 10
-40.01971009333704
 20
-86.09600005874411
 30
0.0
  0
VERTEX
  5
F7
  8
6MM_ENGRAVE
 10
-40.01971009333704
 20
-58.05587661502282
 30
0.0
  0
VERTEX
  5
F8
  8
6MM_ENGRAVE
 10
-52.01972426394701
 20
-58.05587661502918
 30
0.0
  0
VERTEX
  5
F9
  8
6MM_ENGRAVE
 10
-52.01972426394701
 20
-18.05582937965203
 30
0.0
  0
VERTEX
  5
FA
  8
6MM_ENGRAVE
 10
-40.01971009333704
 20
-18.05582937965658
 30
0.0
  0
VERTEX
  5
FB
  8
6MM_ENGRAVE
 10
-40.01971009333704
 20
21.9442178557097
 30
0.0
  0
VERTEX
  5
FC
  8
6MM_ENGRAVE
 10
-52.01972426394701
 20
21.94421785570333
 30
0.0
  0
VERTEX
  5
FD
  8
6MM_ENGRAVE
 10
-52.01972426394701
 20
61.94426509108048
 30
0.0
  0
VERTEX
  5
FE
  8
6MM_ENGRAVE
 10
-40.01971009333704
 20
61.94426509107593
 30
0.0
  0
VERTEX
  5
FF
  8
6MM_ENGRAVE
 10
-40.01971009333704
 20
101.9443123264472
 30
0.0
  0
VERTEX
  5
100
  8
6MM_ENGRAVE
 10
-52.01972426394701
 20
101.9443123264427
 30
0.0
  0
VERTEX
  5
101
  8
6MM_ENGRAVE
 10
-52.01972426394701
 20
141.9443595618089
 30
0.0
  0
VERTEX
  5
102
  8
6MM_ENGRAVE
 10
-40.01971009333704
 20
141.9443595618035
 30
0.0
  0
VERTEX
  5
103
  8
6MM_ENGRAVE
 10
-40.01971009333704
 20
181.9444067971797
 30
0.0
  0
VERTEX
  5
104
  8
6MM_ENGRAVE
 10
-52.01972426394701
 20
181.9444067971751
 30
0.0
  0
VERTEX
  5
105
  8
6MM_ENGRAVE
 10
-52.01972426394701
 20
221.9444540325413
 30
0.0
  0
VERTEX
  5
106
  8
6MM_ENGRAVE
 10
-40.01971009333704
 20
221.9444540325368
 30
0.0
  0
VERTEX
  5
107
  8
6MM_ENGRAVE
 10
-40.01971009333704
 20
239.9444752884615
 30
0.0
  0
VERTEX
  5
108
  8
6MM_ENGRAVE
 10
-52.01972426394701
 20
239.9444752884606
 30
0.0
  0
VERTEX
  5
109
  8
6MM_ENGRAVE
 10
-59.51286039295934
 20
239.9444752884579
 30
0.0
  0
VERTEX
  5
10A
  8
6MM_ENGRAVE
 10
-59.51286039295934
 20
251.9444894590725
 30
0.0
  0
VERTEX
  5
10B
  8
6MM_ENGRAVE
 10
-99.5129076283257
 20
251.9444894590725
 30
0.0
  0
VERTEX
  5
10C
  8
6MM_ENGRAVE
 10
-99.5129076283257
 20
239.9444752884588
 30
0.0
  0
VERTEX
  5
10D
  8
6MM_ENGRAVE
 10
-139.5129548636921
 20
239.9444752884588
 30
0.0
  0
VERTEX
  5
10E
  8
6MM_ENGRAVE
 10
-139.5129548636921
 20
251.9444894590706
 30
0.0
  0
VERTEX
  5
10F
  8
6MM_ENGRAVE
 10
-179.5130020990585
 20
251.9444894590706
 30
0.0
  0
VERTEX
  5
110
  8
6MM_ENGRAVE
 10
-179.5130020990585
 20
239.944475288457
 30
0.0
  0
VERTEX
  5
111
  8
6MM_ENGRAVE
 10
-219.5130493344249
 20
239.944475288457
 30
0.0
  0
VERTEX
  5
112
  8
6MM_ENGRAVE
 10
-219.5130493344249
 20
251.9444894590725
 30
0.0
  0
VERTEX
  5
113
  8
6MM_ENGRAVE
 10
-259.5130965697914
 20
251.9444894590725
 30
0.0
  0
VERTEX
  5
114
  8
6MM_ENGRAVE
 10
-259.5130965697914
 20
239.9444752884561
 30
0.0
  0
VERTEX
  5
115
  8
6MM_ENGRAVE
 10
-268.0199793349257
 20
239.9444752884606
 30
0.0
  0
VERTEX
  5
116
  8
6MM_ENGRAVE
 10
-280.0199935055356
 20
239.9444752884606
 30
0.0
  0
VERTEX
  5
117
  8
6MM_ENGRAVE
 10
-280.0199935055356
 20
221.9444540325368
 30
0.0
  0
VERTEX
  5
118
  8
6MM_ENGRAVE
 10
-268.0199793349257
 20
221.9444540325422
 30
0.0
  0
VERTEX
  5
119
  8
6MM_ENGRAVE
 10
-268.0199793349257
 20
181.9444067971751
 30
0.0
  0
VERTEX
  5
11A
  8
6MM_ENGRAVE
 10
-280.0199935055356
 20
181.9444067971897
 30
0.0
  0
VERTEX
  5
11B
  8
6MM_ENGRAVE
 10
-280.0199935055356
 20
141.9443595618044
 30
0.0
  0
VERTEX
  5
11C
  8
6MM_ENGRAVE
 10
-268.0199793349257
 20
141.9443595618089
 30
0.0
  0
VERTEX
  5
11D
  8
6MM_ENGRAVE
 10
-268.0199793349257
 20
101.9443123264381
 30
0.0
  0
VERTEX
  5
11E
  8
6MM_ENGRAVE
 10
-280.0199935055356
 20
101.9443123264427
 30
0.0
  0
VERTEX
  5
11F
  8
6MM_ENGRAVE
 10
-280.0199935055356
 20
61.94426509107139
 30
0.0
  0
VERTEX
  5
120
  8
6MM_ENGRAVE
 10
-268.0199793349257
 20
61.94426509107593
 30
0.0
  0
VERTEX
  5
121
  8
6MM_ENGRAVE
 10
-268.0199793349257
 20
21.94421785570515
 30
0.0
  0
VERTEX
  5
122
  8
6MM_ENGRAVE
 10
-280.0199935055356
 20
21.9442178557097
 30
0.0
  0
VERTEX
  5
123
  8
6MM_ENGRAVE
 10
-280.0199935055356
 20
-18.05582937965658
 30
0.0
  0
VERTEX
  5
124
  8
6MM_ENGRAVE
 10
-268.0199793349257
 20
-18.05582937964203
 30
0.0
  0
VERTEX
  5
125
  8
6MM_ENGRAVE
 10
-268.0199793349257
 20
-58.05587661502737
 30
0.0
  0
VERTEX
  5
126
  8
6MM_ENGRAVE
 10
-280.0199935055356
 20
-58.05587661502282
 30
0.0
  0
VERTEX
  5
127
  8
6MM_ENGRAVE
 10
-280.0199935055356
 20
-86.09600005874135
 30
0.0
  0
SEQEND
  5
128
  8
6MM_ENGRAVE
  0
POLYLINE
  5
51
  8
6MM_ENGRAVE
 66
     1
 10
0.0
 20
0.0
 30
0.0
  0
VERTEX
  5
129
  8
6MM_ENGRAVE
 10
-52.01972426394701
 20
-98.09601422935022
 30
0.0
  0
VERTEX
  5
12A
  8
6MM_ENGRAVE
 10
-52.01972426394701
 20
-138.0559710857553
 30
0.0
  0
VERTEX
  5
12B
  8
6MM_ENGRAVE
 10
-40.01971009333704
 20
-138.0559710857517
 30
0.0
  0
VERTEX
  5
12C
  8
6MM_ENGRAVE
 10
-40.01971009333431
 20
-151.8127100579251
 30
0.0
  0
VERTEX
  5
12D
  8
6MM_ENGRAVE
 10
-40.01971009333431
 20
-163.8127242285333
 30
0.0
  0
VERTEX
  5
12E
  8
6MM_ENGRAVE
 10
-40.01971009333704
 20
-178.056018321122
 30
0.0
  0
VERTEX
  5
12F
  8
6MM_ENGRAVE
 10
-52.01972426394701
 20
-178.056018321122
 30
0.0
  0
VERTEX
  5
130
  8
6MM_ENGRAVE
 10
-52.01972426394701
 20
-218.0560655564882
 30
0.0
  0
VERTEX
  5
131
  8
6MM_ENGRAVE
 10
-40.01971009333704
 20
-218.0560655564818
 30
0.0
  0
VERTEX
  5
132
  8
6MM_ENGRAVE
 10
-40.01971009333704
 20
-236.0560868124093
 30
0.0
  0
VERTEX
  5
133
  8
6MM_ENGRAVE
 10
-52.01972426394701
 20
-236.0560868124066
 30
0.0
  0
VERTEX
  5
134
  8
6MM_ENGRAVE
 10
-59.51286039295934
 20
-236.0560868124057
 30
0.0
  0
VERTEX
  5
135
  8
6MM_ENGRAVE
 10
-59.51286039295934
 20
-248.0561009830166
 30
0.0
  0
VERTEX
  5
136
  8
6MM_ENGRAVE
 10
-99.5129076283257
 20
-248.0561009830166
 30
0.0
  0
VERTEX
  5
137
  8
6MM_ENGRAVE
 10
-99.5129076283248
 20
-236.0560868124066
 30
0.0
  0
VERTEX
  5
138
  8
6MM_ENGRAVE
 10
-139.5129548636921
 20
-236.0560868124066
 30
0.0
  0
VERTEX
  5
139
  8
6MM_ENGRAVE
 10
-139.5129548636921
 20
-248.0561009830166
 30
0.0
  0
VERTEX
  5
13A
  8
6MM_ENGRAVE
 10
-179.5130020990585
 20
-248.0561009830166
 30
0.0
  0
VERTEX
  5
13B
  8
6MM_ENGRAVE
 10
-179.5130020990585
 20
-236.0560868124066
 30
0.0
  0
VERTEX
  5
13C
  8
6MM_ENGRAVE
 10
-219.5130493344249
 20
-236.0560868124066
 30
0.0
  0
VERTEX
  5
13D
  8
6MM_ENGRAVE
 10
-219.5130493344249
 20
-248.0561009830166
 30
0.0
  0
VERTEX
  5
13E
  8
6MM_ENGRAVE
 10
-259.5130965697914
 20
-248.0561009830166
 30
0.0
  0
VERTEX
  5
13F
  8
6MM_ENGRAVE
 10
-259.5130965697914
 20
-236.0560868124066
 30
0.0
  0
VERTEX
  5
140
  8
6MM_ENGRAVE
 10
-268.0199793349257
 20
-236.0560868124066
 30
0.0
  0
VERTEX
  5
141
  8
6MM_ENGRAVE
 10
-268.0199793349257
 20
-236.0560868124066
 30
0.0
  0
VERTEX
  5
142
  8
6MM_ENGRAVE
 10
-280.0199935055356
 20
-236.0560868124066
 30
0.0
  0
VERTEX
  5
143
  8
6MM_ENGRAVE
 10
-280.0199935055356
 20
-218.0560655564882
 30
0.0
  0
VERTEX
  5
144
  8
6MM_ENGRAVE
 10
-268.0199793349257
 20
-218.05606555649
 30
0.0
  0
VERTEX
  5
145
  8
6MM_ENGRAVE
 10
-268.0199793349257
 20
-178.056018321122
 30
0.0
  0
VERTEX
  5
146
  8
6MM_ENGRAVE
 10
-280.0199935055356
 20
-178.0560183211247
 30
0.0
  0
VERTEX
  5
147
  8
6MM_ENGRAVE
 10
-280.0199935055363
 20
-163.8127242285333
 30
0.0
  0
VERTEX
  5
148
  8
6MM_ENGRAVE
 10
-280.0199935055356
 20
-151.8127100579251
 30
0.0
  0
VERTEX
  5
149
  8
6MM_ENGRAVE
 10
-280.0199935055356
 20
-138.0559710857553
 30
0.0
  0
VERTEX
  5
14A
  8
6MM_ENGRAVE
 10
-268.0199793349257
 20
-138.0559710857581
 30
0.0
  0
VERTEX
  5
14B
  8
6MM_ENGRAVE
 10
-268.0199793349257
 20
-98.09601422935053
 30
0.0
  0
SEQEND
  5
14C
  8
6MM_ENGRAVE
  0
POLYLINE
  5
52
  8
6MM_ENGRAVE
 66
     1
 10
0.0
 20
0.0
 30
0.0
  0
VERTEX
  5
14D
  8
6MM_ENGRAVE
 10
-52.01972426394701
 20
-98.09601422935056
 30
0.0
  0
VERTEX
  5
14E
  8
6MM_ENGRAVE
 10
-59.51286039295934
 20
-98.09601422935091
 30
0.0
  0
VERTEX
  5
14F
  8
6MM_ENGRAVE
 10
-59.51286039295934
 20
-86.09600005874135
 30
0.0
  0
VERTEX
  5
150
  8
6MM_ENGRAVE
 10
-40.01971009333431
 20
-86.09600005874226
 30
0.0
  0
SEQEND
  5
151
  8
6MM_ENGRAVE
  0
POLYLINE
  5
53
  8
6MM_ENGRAVE
 66
     1
 10
0.0
 20
0.0
 30
0.0
 70
     1
  0
VERTEX
  5
152
  8
6MM_ENGRAVE
 10
-160.0198517994363
 20
213.3268998739163
 30
0.0
 42
-0.4142135623730951
  0
VERTEX
  5
153
  8
6MM_ENGRAVE
 10
-147.0198517994363
 20
200.3268998739163
 30
0.0
 42
-0.4142135623730951
  0
VERTEX
  5
154
  8
6MM_ENGRAVE
 10
-160.0198517994363
 20
187.3268998739163
 30
0.0
 42
-0.4142135623730951
  0
VERTEX
  5
155
  8
6MM_ENGRAVE
 10
-173.0198517994363
 20
200.3268998739163
 30
0.0
 42
-0.4142135623730951
  0
SEQEND
  5
156
  8
6MM_ENGRAVE
  0
POLYLINE
  5
54
  8
6MM_ENGRAVE
 66
     1
 10
0.0
 20
0.0
 30
0.0
 70
     1
  0
VERTEX
  5
157
  8
6MM_ENGRAVE
 10
-96.0613890494393
 20
200.3268998739163
 30
0.0
 42
-0.4142135623730951
  0
VERTEX
  5
158
  8
6MM_ENGRAVE
 10
-100.5613890494393
 20
195.8268998739163
 30
0.0
 42
-0.4142135623730951
  0
VERTEX
  5
159
  8
6MM_ENGRAVE
 10
-105.0613890494393
 20
200.3268998739163
 30
0.0
 42
-0.4142135623730951
  0
VERTEX
  5
15A
  8
6MM_ENGRAVE
 10
-100.5613890494393
 20
204.8268998739163
 30
0.0
 42
-0.4142135623730951
  0
SEQEND
  5
15B
  8
6MM_ENGRAVE
  0
POLYLINE
  5
55
  8
6MM_ENGRAVE
 66
     1
 10
0.0
 20
0.0
 30
0.0
 70
     1
  0
VERTEX
  5
15C
  8
6MM_ENGRAVE
 10
-114.7943890746462
 20
155.1014371491262
 30
0.0
 42
-0.4142135623730951
  0
VERTEX
  5
15D
  8
6MM_ENGRAVE
 10
-121.1583501053251
 20
155.1014371491262
 30
0.0
 42
-0.4142135623730951
  0
VERTEX
  5
15E
  8
6MM_ENGRAVE
 10
-121.1583501053252
 20
161.4653981798051
 30
0.0
 42
-0.4142135623730951
  0
VERTEX
  5
15F
  8
6MM_ENGRAVE
 10
-114.7943890746462
 20
161.4653981798051
 30
0.0
 42
-0.4142135623730951
  0
SEQEND
  5
160
  8
6MM_ENGRAVE
  0
POLYLINE
  5
56
  8
6MM_ENGRAVE
 66
     1
 10
0.0
 20
0.0
 30
0.0
 70
     1
  0
VERTEX
  5
161
  8
6MM_ENGRAVE
 10
-160.0198517994364
 20
136.3684371239193
 30
0.0
 42
-0.4142135623730951
  0
VERTEX
  5
162
  8
6MM_ENGRAVE
 10
-164.5198517994363
 20
140.8684371239193
 30
0.0
 42
-0.4142135623730951
  0
VERTEX
  5
163
  8
6MM_ENGRAVE
 10
-160.0198517994364
 20
145.3684371239193
 30
0.0
 42
-0.4142135623730951
  0
VERTEX
  5
164
  8
6MM_ENGRAVE
 10
-155.5198517994363
 20
140.8684371239193
 30
0.0
 42
-0.4142135623730951
  0
SEQEND
  5
165
  8
6MM_ENGRAVE
  0
POLYLINE
  5
57
  8
6MM_ENGRAVE
 66
     1
 10
0.0
 20
0.0
 30
0.0
 70
     1
  0
VERTEX
  5
166
  8
6MM_ENGRAVE
 10
-205.2453145242263
 20
155.1014371491262
 30
0.0
 42
-0.4142135623730951
  0
VERTEX
  5
167
  8
6MM_ENGRAVE
 10
-205.2453145242263
 20
161.4653981798051
 30
0.0
 42
-0.4142135623730951
  0
VERTEX
  5
168
  8
6MM_ENGRAVE
 10
-198.8813534935474
 20
161.4653981798052
 30
0.0
 42
-0.4142135623730951
  0
VERTEX
  5
169
  8
6MM_ENGRAVE
 10
-198.8813534935474
 20
155.1014371491262
 30
0.0
 42
-0.4142135623730951
  0
SEQEND
  5
16A
  8
6MM_ENGRAVE
  0
POLYLINE
  5
58
  8
6MM_ENGRAVE
 66
     1
 10
0.0
 20
0.0
 30
0.0
 70
     1
  0
VERTEX
  5
16B
  8
6MM_ENGRAVE
 10
-223.9783145494332
 20
200.3268998739163
 30
0.0
 42
-0.4142135623730951
  0
VERTEX
  5
16C
  8
6MM_ENGRAVE
 10
-219.4783145494333
 20
204.8268998739162
 30
0.0
 42
-0.4142135623730951
  0
VERTEX
  5
16D
  8
6MM_ENGRAVE
 10
-214.9783145494332
 20
200.3268998739163
 30
0.0
 42
-0.4142135623730951
  0
VERTEX
  5
16E
  8
6MM_ENGRAVE
 10
-219.4783145494332
 20
195.8268998739162
 30
0.0
 42
-0.4142135623730951
  0
SEQEND
  5
16F
  8
6MM_ENGRAVE
  0
ENDSEC
  0
EOF
